<?xml version="1.0" encoding="UTF-8" standalone="no"?>
<!-- Created with Inkscape (http://www.inkscape.org/) -->

<svg
   width="10mm"
   height="10mm"
   viewBox="0 0 10 10"
   version="1.1"
   id="svg1"
   xml:space="preserve"
   inkscape:version="1.3.2 (091e20e, 2023-11-25, custom)"
   sodipodi:docname="icons.svg"
   xmlns:inkscape="http://www.inkscape.org/namespaces/inkscape"
   xmlns:sodipodi="http://sodipodi.sourceforge.net/DTD/sodipodi-0.dtd"
   xmlns="http://www.w3.org/2000/svg"
   xmlns:svg="http://www.w3.org/2000/svg"><sodipodi:namedview
     id="namedview1"
     pagecolor="#ffffff"
     bordercolor="#666666"
     borderopacity="1.0"
     inkscape:showpageshadow="2"
     inkscape:pageopacity="0.0"
     inkscape:pagecheckerboard="0"
     inkscape:deskcolor="#d1d1d1"
     inkscape:document-units="mm"
     showgrid="true"
     inkscape:zoom="4"
     inkscape:cx="4.375"
     inkscape:cy="16.625"
     inkscape:window-width="3440"
     inkscape:window-height="1387"
     inkscape:window-x="-8"
     inkscape:window-y="22"
     inkscape:window-maximized="1"
     inkscape:current-layer="g2-4"><inkscape:grid
       id="grid1"
       units="cm"
       originx="-10"
       originy="-9.9999994"
       spacingx="10"
       spacingy="10"
       empcolor="#3f3fff"
       empopacity="0.25098039"
       color="#3f3fff"
       opacity="0.1254902"
       empspacing="5"
       dotted="false"
       gridanglex="30"
       gridanglez="30"
       visible="true" /><sodipodi:guide
       position="-10,307"
       orientation="0,793.70079"
       id="guide1"
       inkscape:locked="false" /><sodipodi:guide
       position="200,307"
       orientation="1122.5197,0"
       id="guide2"
       inkscape:locked="false" /><sodipodi:guide
       position="200,9.9999997"
       orientation="0,-793.70079"
       id="guide3"
       inkscape:locked="false" /><sodipodi:guide
       position="-10,9.9999997"
       orientation="-1122.5197,0"
       id="guide4"
       inkscape:locked="false" /></sodipodi:namedview><defs
     id="defs1" /><g
     inkscape:label="Layer 1"
     inkscape:groupmode="layer"
     id="layer1"
     transform="translate(-10,-9.9999997)"><g
       id="g16"
       inkscape:export-filename="werte\gs.svg"
       inkscape:export-xdpi="325.12"
       inkscape:export-ydpi="325.12"><g
         id="g14"><ellipse
           id="path4-3"
           cx="15"
           cy="14.999999"
           rx="5"
           ry="4.9999995"
           style="fill:#897752;fill-opacity:1;stroke-width:0.290169" /><path
           id="path4-1-1"
           style="fill:#f4ead1;fill-opacity:1;stroke-width:0.253525"
           d="m 14.999911,10.631485 a 4.3685756,4.3685751 0 0 0 -4.368726,4.368725 4.3685756,4.3685751 0 0 0 4.368726,4.368209 4.3685756,4.3685751 0 0 0 4.368726,-4.368209 4.3685756,4.3685751 0 0 0 -4.368726,-4.368725 z m 0,0.58446 a 3.7839234,3.7839229 0 0 1 3.784265,3.784265 3.7839234,3.7839229 0 0 1 -3.784265,3.783749 3.7839234,3.7839229 0 0 1 -3.783748,-3.783749 3.7839234,3.7839229 0 0 1 3.783748,-3.784265 z" /></g><g
         id="g15"><path
           id="path2"
           style="fill:#f4ead1;fill-opacity:1;stroke:#897752;stroke-width:0.05;stroke-linecap:butt;stroke-linejoin:miter;stroke-dasharray:none;stroke-dashoffset:0;stroke-opacity:1"
           d="m 14.768836,11.958599 c -0.05889,0.0042 -1.05166,0.256605 -1.207306,0.311291 -0.155645,0.05468 -0.235572,0.100961 -0.328118,0.100961 -0.09255,0 -0.265018,0.130406 -0.265018,0.130406 0,0 -0.311291,0.117786 -0.424871,0.113579 -0.113578,-0.0042 -0.113579,-0.117788 -0.168265,-0.21454 -0.05469,-0.09675 -0.277639,-0.311291 -0.429077,-0.361771 -0.151439,-0.05048 -0.525831,-0.159852 -0.715129,0.10096 -0.189298,0.26081 -0.231365,0.580516 -0.164059,0.710922 0.06731,0.130405 0.307085,0.344944 0.399631,0.378597 0.09255,0.03365 0.138819,0.222952 0.164059,0.231366 0.02524,0.0084 0.09255,-0.05468 0.143025,-0.04628 0.05048,0.0084 0.09255,0.02945 0.117786,0.0084 0.02524,-0.02103 0.02103,0.01683 0.04627,0.03365 0.02524,0.01683 0.206126,0.05468 0.206126,0.05468 0,0 0.09254,-0.02524 0.134612,-0.09675 0.04207,-0.07151 0.07572,-0.214537 0.07572,-0.214537 0,0 0.05048,0.10096 0.01683,0.180885 -0.03365,0.07993 -0.03365,0.143026 -0.126199,0.159852 -0.09255,0.01683 -0.243985,-0.02945 -0.290258,0.01262 -0.04627,0.04207 -0.260812,0.197712 -0.332325,0.277638 -0.07151,0.07993 -0.172472,0.243986 -0.218745,0.248191 -0.04627,0.0042 -0.281845,-0.231365 -0.395424,-0.429076 -0.113579,-0.197662 -0.155645,-0.336481 -0.155645,-0.336481 0,0 0.05889,-0.08834 0.05889,-0.193506 0,-0.105166 -0.03365,-0.201919 -0.04627,-0.302878 -0.01262,-0.100961 0.01262,-0.193505 -0.02524,-0.201918 -0.03786,-0.0084 -0.07993,0.08413 -0.07572,0.121992 0.0042,0.03786 0.01683,0.138819 -0.05048,0.130406 -0.06731,-0.0084 -0.138819,-0.298672 -0.151439,-0.349152 -0.01262,-0.05048 -0.03365,-0.121992 -0.05889,-0.121992 -0.02524,0 -0.04627,0.09676 -0.0084,0.193505 0.03786,0.09675 0.05048,0.121993 0.01262,0.143026 -0.03786,0.02103 -0.1262,-0.353358 -0.155646,-0.344944 -0.02945,0.0084 -0.04207,0.164059 -0.0042,0.256605 0.03786,0.09255 0.105166,0.172472 0.0631,0.193505 -0.04207,0.02103 -0.121993,-0.07993 -0.180885,-0.193505 -0.05889,-0.113579 -0.09845,-0.133705 -0.06573,-0.01472 0.03272,0.118982 0.137031,0.230376 0.116209,0.266071 -0.02082,0.0357 -0.04007,0.0048 -0.102537,-0.05468 -0.06246,-0.05949 -0.07147,-0.05537 -0.09675,-0.04049 -0.02528,0.01488 -0.01314,0.02366 -0.01314,0.02366 0,0 0.04141,0.03917 0.0652,0.08677 0.0238,0.04759 0.06853,0.04759 0.114631,0.147232 0.04611,0.09965 0.101276,0.172219 0.13251,0.228736 0.03123,0.05652 0.170536,0.109932 0.216642,0.179834 0.04611,0.0699 0.0939,0.314125 0.168265,0.482186 0.07436,0.16806 0.368896,0.694248 0.434336,0.731429 0.06544,0.03718 0.179833,-0.0073 0.179833,-0.0073 0,0 0.146003,-0.08605 0.195083,-0.135138 0.04908,-0.04908 0.04919,-0.01025 0.114631,-0.05784 0.06544,-0.04759 0.411864,-0.34247 0.492177,-0.431707 0.08031,-0.08924 0.190472,-0.234806 0.209806,-0.248192 0.01933,-0.01338 0.22119,0.111705 0.417509,0.444853 0.19632,0.333148 0.432775,0.301647 0.745101,0.602075 0.312326,0.300428 0.493754,0.535294 0.493754,0.535294 0,0 -0.558809,0.253116 -0.877084,0.464308 -0.318276,0.211195 -0.824202,0.606618 -0.853948,0.698829 -0.02975,0.09221 0.0596,0.321442 0.166688,0.514787 0.107084,0.193345 0.481868,0.716707 0.701983,1.02011 0.220116,0.303403 0.481748,0.669305 0.431181,0.92809 -0.05057,0.258784 -0.386485,0.389639 -0.386485,0.389639 0,0 -0.166616,0.02992 -0.226107,0.09833 -0.05949,0.06842 -0.05386,0.145913 0.02051,0.193506 0.07436,0.04759 0.277077,-0.04795 0.458524,-0.10149 0.181446,-0.05354 0.288309,-0.145551 0.377546,-0.187195 0.08924,-0.04164 0.457997,-0.163533 0.457997,-0.163534 0,0 0.01804,-0.07762 0.01209,-0.160904 -0.006,-0.08332 -0.06532,-0.184295 -0.136715,-0.309225 -0.07139,-0.12499 -0.220088,-0.28573 -0.285528,-0.470151 -0.06544,-0.184422 -0.196588,-0.56534 -0.256079,-0.809253 -0.05949,-0.243911 -0.511633,-0.743523 -0.511633,-0.743523 0,0 0.190424,-0.124653 0.434336,-0.142501 0.243912,-0.01785 0.386651,0.06541 0.684105,-0.01788 0.297453,-0.08329 0.339243,-0.136808 0.48797,-0.190349 0.148727,-0.05354 0.499621,-0.125282 0.648348,-0.40489 0.148727,-0.279606 0.148944,-0.404106 0.125148,-0.659916 -0.0238,-0.255811 -0.285526,-0.511633 -0.285526,-0.511633 0,0 -0.922389,-1.154104 -1.071116,-1.403965 -0.148726,-0.249862 -0.350728,-0.54739 -0.350728,-0.54739 0,0 0.451771,-0.17838 0.600498,-0.249769 0.148727,-0.07139 0.303403,-0.19666 0.303403,-0.19666 l 1.231494,0.285525 c 0,0 0.208486,0.07131 0.256079,0.154595 0.04759,0.08329 0.142851,0.155016 0.243985,0.19666 0.101135,0.04165 0.214013,0.118734 0.214013,0.160378 0,0.04165 0.05942,-0.08939 0.05942,-0.08939 0,0 -0.16511,-0.09202 -0.148284,-0.16774 0.01683,-0.07571 0.09675,-0.06731 0.180886,-0.06731 0.08413,0 0.323911,0.02103 0.361771,0.0042 0.03786,-0.01683 0.0631,0.02945 0.06731,-0.03786 0.0042,-0.06731 -0.03786,-0.01262 -0.1262,-0.03786 -0.08834,-0.02524 -0.176679,-0.02103 -0.201918,-0.05048 -0.02524,-0.02945 -0.02524,-0.0589 -0.02524,-0.0589 l 0.189298,0.01683 c 0,0 0.176679,0.0042 0.235572,-0.02103 0.05889,-0.02524 0.03365,-0.07151 0.03365,-0.07151 0,0 -0.100959,-0.01262 -0.155645,-0.01262 -0.05469,0 -0.290259,-0.03365 -0.290259,-0.03365 0,0 -0.01262,-0.02945 0.02945,-0.05048 0.04207,-0.02103 0.311292,-0.117787 0.311292,-0.117787 0,0 0.0084,-0.05048 -0.0084,-0.0631 -0.01683,-0.01262 -0.214539,0.03786 -0.265018,0.0631 -0.05048,0.02525 -0.193506,0.04628 -0.193506,0.04628 0,0 0.01262,-0.07993 0.05889,-0.1262 0.04627,-0.04627 0.193506,-0.147232 0.143026,-0.185092 -0.05048,-0.03786 -0.206125,0.121994 -0.206125,0.121994 0,0 -0.176679,0.113578 -0.260812,0.10096 -0.08413,-0.01262 -0.138819,-0.02103 -0.201919,0.0042 -0.0631,0.02524 -0.08834,0.03785 -0.176679,-0.0042 -0.08833,-0.04207 -0.487963,-0.239778 -0.673054,-0.298672 -0.185092,-0.05889 -0.572104,-0.126198 -0.630996,-0.121992 z m -3.136576,1.142629 c 0,0 -0.02993,0.08778 -0.05521,0.06994 -0.02528,-0.01785 0.05521,-0.06994 0.05521,-0.06994 z m 3.953189,2.150118 c -1e-6,0 0.03576,0.136995 0.03576,0.29762 0,0.160624 -0.09529,0.368979 -0.261863,0.583145 -0.166573,0.214166 -0.499538,0.303404 -0.499538,0.303404 0,0 0.184319,0.249976 0.344944,0.470091 0.160625,0.220116 0.529532,0.45204 0.642564,0.553174 0.113033,0.101134 0.321036,0.291362 0.48166,0.422241 0.160625,0.130879 0.32715,0.130829 0.475876,0.172473 0.148727,0.04165 0.172254,0.01191 0.172254,0.01191 l 0.497117,-0.384954 c 0,0 -0.264616,-0.150374 -0.544222,-0.275304 -0.279608,-0.124931 -0.297332,-0.386487 -0.535295,-0.689889 -0.237963,-0.303403 -0.440171,-0.416665 -0.571052,-0.636781 0.07429,-0.334317 -0.238201,-0.82713 -0.238201,-0.82713 z"
           sodipodi:nodetypes="ccsccssssscscccscscsscccsscccsscccccssscscccssssccsscsscsssssccssscscsscssssscscsccscscssscssccccscsccccsscsccscccccsscssscccsscc" /><path
           id="path3"
           style="fill:#f4ead1;fill-opacity:1"
           d="m 14.402543,13.307291 0.256315,0.297656 1.901693,-0.04134 z m 0.537435,0.7028 0.28112,0.338997 1.992643,0.01654 z m 0.624251,0.768945 0.243913,0.289388 1.5875,-0.0083 z"
           sodipodi:nodetypes="cccccccccccc" /><path
           id="path3-2"
           style="fill:#f4ead1;fill-opacity:1"
           d="m 15.959248,15.527734 0.08682,0.302911 1.579232,-0.059 z m 0.367937,0.818555 0.23151,0.227376 1.260905,-0.0083 z"
           sodipodi:nodetypes="cccccccc" /></g></g></g></svg>
