<?xml version="1.0" encoding="UTF-8" standalone="no"?>
<!-- Created with Inkscape (http://www.inkscape.org/) -->

<svg
   width="9.999999mm"
   height="10mm"
   viewBox="0 0 9.999999 10"
   version="1.1"
   id="svg1"
   xml:space="preserve"
   inkscape:version="1.3.2 (091e20e, 2023-11-25, custom)"
   sodipodi:docname="icons.svg"
   xmlns:inkscape="http://www.inkscape.org/namespaces/inkscape"
   xmlns:sodipodi="http://sodipodi.sourceforge.net/DTD/sodipodi-0.dtd"
   xmlns="http://www.w3.org/2000/svg"
   xmlns:svg="http://www.w3.org/2000/svg"><sodipodi:namedview
     id="namedview1"
     pagecolor="#ffffff"
     bordercolor="#666666"
     borderopacity="1.0"
     inkscape:showpageshadow="2"
     inkscape:pageopacity="0.0"
     inkscape:pagecheckerboard="0"
     inkscape:deskcolor="#d1d1d1"
     inkscape:document-units="mm"
     showgrid="true"
     inkscape:zoom="4"
     inkscape:cx="4.375"
     inkscape:cy="16.625"
     inkscape:window-width="3440"
     inkscape:window-height="1387"
     inkscape:window-x="-8"
     inkscape:window-y="22"
     inkscape:window-maximized="1"
     inkscape:current-layer="g2-4"><inkscape:grid
       id="grid1"
       units="cm"
       originx="-39.987396"
       originy="-9.9999994"
       spacingx="10"
       spacingy="10"
       empcolor="#3f3fff"
       empopacity="0.25098039"
       color="#3f3fff"
       opacity="0.1254902"
       empspacing="5"
       dotted="false"
       gridanglex="30"
       gridanglez="30"
       visible="true" /><sodipodi:guide
       position="-39.987397,307"
       orientation="0,793.70079"
       id="guide1"
       inkscape:locked="false" /><sodipodi:guide
       position="170.0126,307"
       orientation="1122.5197,0"
       id="guide2"
       inkscape:locked="false" /><sodipodi:guide
       position="170.0126,9.9999997"
       orientation="0,-793.70079"
       id="guide3"
       inkscape:locked="false" /><sodipodi:guide
       position="-39.987397,9.9999997"
       orientation="-1122.5197,0"
       id="guide4"
       inkscape:locked="false" /></sodipodi:namedview><defs
     id="defs1" /><g
     inkscape:label="Layer 1"
     inkscape:groupmode="layer"
     id="layer1"
     transform="translate(-39.987397,-9.9999997)"><g
       id="g58"
       inkscape:export-filename="ini.png"
       inkscape:export-xdpi="325.12"
       inkscape:export-ydpi="325.12"><g
         id="g2-0-1"
         transform="translate(20.012604,9.9999985)"><ellipse
           id="path4-39-8"
           cx="24.974792"
           cy="5.0000005"
           rx="5"
           ry="4.9999995"
           style="fill:#897752;fill-opacity:1;stroke-width:0.290169" /><path
           id="path4-1-13-9"
           style="fill:#f4ead1;fill-opacity:1;stroke-width:0.253525"
           d="M 24.974831,0.63139392 A 4.3685756,4.3685751 0 0 0 20.606105,5.0001195 4.3685756,4.3685751 0 0 0 21.694928,7.8826309 L 22.147097,7.4981582 A 3.7839234,3.7839229 0 0 1 21.191083,5.0001195 3.7839234,3.7839229 0 0 1 24.974831,1.2158544 3.7839234,3.7839229 0 0 1 28.759096,5.0001195 3.7839234,3.7839229 0 0 1 24.974831,8.7838679 3.7839234,3.7839229 0 0 1 24.137673,8.678448 l -0.561206,0.4506184 a 4.3685756,4.3685751 0 0 0 1.398364,0.2392619 4.3685756,4.3685751 0 0 0 4.368725,-4.3682088 4.3685756,4.3685751 0 0 0 -4.368725,-4.36872558 z" /></g><g
         id="g57"><path
           id="path24"
           style="fill:#f4ead1;fill-opacity:1;stroke:none;stroke-width:0.28454px;stroke-linecap:butt;stroke-linejoin:miter;stroke-opacity:1"
           d="m 47.922139,12.768213 c -0.178321,0.01842 -0.633399,0.166052 -0.686779,0.234094 -0.061,0.07776 0.04858,0.518314 0.04858,0.518315 l -7.003191,5.845121 c 0,0 0.634256,0.414732 1.58595,0.324011 0.951694,-0.09072 2.086494,-1.037005 2.293917,-1.244368 0.20742,-0.207364 3.403927,-4.017326 3.403927,-4.017326 0,0 -0.02404,0.06464 0.08578,0.05168 0.109812,-0.01296 0.500228,-0.142627 0.500228,-0.142627 0,0 0.15833,-0.103576 0.170533,-0.194303 0.01221,-0.09072 -0.146245,-0.725537 -0.146245,-0.725537 l 0.219625,-0.129708 -0.182934,-0.33693 -0.121957,0.129708 c 0,0 -0.01246,-0.285173 -0.110071,-0.311093 -0.0122,-0.0032 -0.03189,-0.0037 -0.05736,-10e-4 z m -0.03256,0.104903 c 0.02321,2.29e-4 0.0451,0.008 0.05788,0.02997 0.02046,0.03508 0.03772,0.152446 0.03772,0.152446 l 0.1757,0.73949 c 0,0 0.07283,0.327006 0.05529,0.367936 -0.01754,0.04093 -0.09033,0.08203 -0.131258,0.10542 -0.04093,0.02338 -0.429948,0.108003 -0.429948,0.108003 v -0.03772 l 0.181385,-0.1726 c 0,0 0.07866,0.03528 0.07286,-0.183968 -0.0058,-0.219242 -0.122473,-0.666626 -0.122473,-0.666626 l -0.02067,-0.03204 -0.03824,-0.01499 -0.140043,0.03824 -0.08165,0.03204 -0.131775,0.114205 -0.03204,0.01447 c 0,0 -0.03222,-0.113838 -0.04392,-0.201538 -0.01174,-0.0877 0.0057,-0.166915 0.0057,-0.166915 0,0 0.01183,-0.03178 0.07906,-0.07855 0.06724,-0.04678 0.429491,-0.12887 0.464571,-0.14056 0.01316,-0.0044 0.02793,-0.0069 0.04186,-0.0067 z m 0.315227,0.173633 0.119372,0.204639 -0.151929,0.09043 -0.04082,-0.213423 z m -0.549838,0.494027 0.04703,0.409277 -3.063896,2.91145 c 0,0 -0.764074,0.664013 -1.629358,1.242818 -0.865285,0.578805 -1.386478,0.536402 -1.386478,0.536402 z"
           sodipodi:nodetypes="ssccsscscsccccssssccsscccccccccccccsssccccccccscc" /><path
           id="path25-9"
           style="fill:#f4ead1;fill-opacity:1;stroke:none;stroke-width:0.264583px;stroke-linecap:butt;stroke-linejoin:miter;stroke-opacity:1"
           d="m 43.700692,10.834998 -0.855762,0.376204 3.719153,1.555461 z m -1.804025,1.091923 -0.543636,0.657841 4.519621,0.6196 z m -0.882633,1.277441 -0.289388,0.963765 4.63796,-0.37052 z m 4.315499,1.122412 -4.67465,0.438216 0.04961,1.014409 z m 2.230871,0.934827 -0.697115,3.679878 0.780315,-0.505395 z" /></g></g></g></svg>
