<?xml version="1.0" encoding="UTF-8" standalone="no"?>
<!DOCTYPE svg PUBLIC "-//W3C//DTD SVG 20010904//EN"
              "http://www.w3.org/TR/2001/REC-SVG-20010904/DTD/svg10.dtd">

<svg xmlns="http://www.w3.org/2000/svg"
     width="6.66667in" height="6.66667in"
     viewBox="0 0 2000 2000">
  <path id="Auswahl"
        fill="beige" stroke="black" stroke-width="15"
        d="M 914.00,0.14
           C 914.00,0.14 877.00,4.16 877.00,4.16
             877.00,4.16 822.00,12.42 822.00,12.42
             760.27,23.55 699.65,40.11 641.00,62.42
             519.03,108.82 407.44,179.17 312.00,268.09
             312.00,268.09 288.00,292.00 288.00,292.00
             189.26,390.74 112.07,510.48 62.42,641.00
             38.79,703.14 21.58,767.45 10.59,833.00
             7.32,852.49 0.03,903.93 0.00,922.00
             0.00,922.00 0.00,999.00 0.00,999.00
             0.00,999.00 0.00,1073.00 0.00,1073.00
             0.00,1073.00 6.73,1137.00 6.73,1137.00
             11.87,1172.64 18.53,1208.08 27.37,1243.00
             81.11,1455.29 204.83,1647.22 377.00,1782.79
             468.91,1855.16 570.08,1909.69 681.00,1946.67
             744.56,1967.85 814.35,1984.03 881.00,1991.16
             881.00,1991.16 938.00,1996.04 938.00,1996.04
             938.00,1996.04 949.00,1997.04 949.00,1997.04
             949.00,1997.04 962.00,1997.04 962.00,1997.04
             962.00,1997.04 974.00,1998.00 974.00,1998.00
             974.00,1998.00 1021.00,1998.00 1021.00,1998.00
             1021.00,1998.00 1038.00,1997.00 1038.00,1997.00
             1038.00,1997.00 1095.00,1993.17 1095.00,1993.17
             1171.31,1985.54 1242.20,1970.60 1315.00,1946.33
             1353.94,1933.35 1392.05,1918.14 1429.00,1900.26
             1429.00,1900.26 1455.00,1887.69 1455.00,1887.69
             1455.00,1887.69 1499.00,1863.58 1499.00,1863.58
             1565.28,1825.11 1626.95,1779.14 1683.00,1726.91
             1683.00,1726.91 1707.00,1703.00 1707.00,1703.00
             1837.06,1572.94 1928.46,1407.87 1970.88,1229.00
             1981.38,1184.75 1988.65,1140.22 1993.17,1095.00
             1993.17,1095.00 1996.00,1065.00 1996.00,1065.00
             1996.00,1065.00 1996.00,1056.00 1996.00,1056.00
             1996.00,1056.00 1997.04,1046.00 1997.04,1046.00
             1997.04,1046.00 1997.04,1033.00 1997.04,1033.00
             1997.04,1033.00 1998.00,1021.00 1998.00,1021.00
             1998.00,1021.00 1998.00,974.00 1998.00,974.00
             1998.00,974.00 1997.00,959.00 1997.00,959.00
             1996.46,912.92 1989.63,861.47 1981.42,816.00
             1964.51,722.21 1932.45,626.71 1888.74,542.00
             1840.91,449.30 1779.77,364.77 1706.00,291.00
             1706.00,291.00 1683.00,268.09 1683.00,268.09
             1574.22,166.74 1451.87,94.29 1311.00,47.33
             1259.36,30.12 1210.63,18.69 1157.00,9.75
             1139.20,6.79 1091.56,0.20 1075.00,0.14
             1075.00,0.14 972.00,0.14 972.00,0.14
             972.00,0.14 914.00,0.14 914.00,0.14 Z" />
  <path id="Pfad"
        fill="#B87333" stroke="black" stroke-width="20"
        d="M 997.09,755.55
           C 997.09,755.55 294.00,285.00 294.00,285.00
             294.00,285.00 68.67,1370.00 68.67,1370.00
             68.67,1370.00 996.33,1997.67 996.33,1997.67
             996.33,1997.67 1924.67,1375.33 1924.67,1375.33
             1924.67,1375.33 1703.50,288.50 1703.50,288.50
             1703.50,288.50 997.12,755.75 997.12,755.75" />
  <path id="Pfad #1"
        fill="none" stroke="black" stroke-width="20"
        d="M 294.00,285.09
           C 294.00,285.09 996.73,1997.82 996.73,1997.82
             996.73,1997.82 1703.50,288.56 1703.50,288.56M 294.00,285.09
           C 294.00,285.09 997.06,755.44 997.06,755.44
             997.06,755.44 1703.50,288.53 1703.50,288.53" />
</svg>
