<?xml version="1.0" encoding="UTF-8" standalone="no"?>
<svg
   xmlns:dc="http://purl.org/dc/elements/1.1/"
   xmlns:cc="http://creativecommons.org/ns#"
   xmlns:rdf="http://www.w3.org/1999/02/22-rdf-syntax-ns#"
   xmlns:svg="http://www.w3.org/2000/svg"
   xmlns="http://www.w3.org/2000/svg"
   xmlns:sodipodi="http://sodipodi.sourceforge.net/DTD/sodipodi-0.dtd"
   xmlns:inkscape="http://www.inkscape.org/namespaces/inkscape"
   inkscape:version="1.0 (4035a4fb49, 2020-05-01)"
   sodipodi:docname="battle-skill_bw.svg"
   id="svg5"
   version="1.1"
   height="512"
   width="512"
   viewBox="0 0 512 512">
  <title
     id="title869">Battle: Skill</title>
  <metadata
     id="metadata11">
    <rdf:RDF>
      <cc:Work
         rdf:about="">
        <dc:format>image/svg+xml</dc:format>
        <dc:type
           rdf:resource="http://purl.org/dc/dcmitype/StillImage" />
        <dc:title>Battle: Skill</dc:title>
        <cc:license
           rdf:resource="http://creativecommons.org/publicdomain/zero/1.0/" />
        <dc:contributor>
          <cc:Agent>
            <dc:title>based upon Battle gear icon by Lorc, Stiletto iconby Lorc and Bow arrow iconby Delapouite under CC BY 3.0 (Game-icons.net)</dc:title>
          </cc:Agent>
        </dc:contributor>
        <dc:date>2022.02.10</dc:date>
        <dc:creator>
          <cc:Agent>
            <dc:title>Streuner²</dc:title>
          </cc:Agent>
        </dc:creator>
      </cc:Work>
      <cc:License
         rdf:about="http://creativecommons.org/publicdomain/zero/1.0/">
        <cc:permits
           rdf:resource="http://creativecommons.org/ns#Reproduction" />
        <cc:permits
           rdf:resource="http://creativecommons.org/ns#Distribution" />
        <cc:permits
           rdf:resource="http://creativecommons.org/ns#DerivativeWorks" />
      </cc:License>
    </rdf:RDF>
  </metadata>
  <defs
     id="defs9" />
  <sodipodi:namedview
     inkscape:current-layer="svg5"
     inkscape:window-maximized="1"
     inkscape:window-y="-11"
     inkscape:window-x="-11"
     inkscape:cy="170.78842"
     inkscape:cx="95.082801"
     inkscape:zoom="1.8732344"
     showgrid="false"
     id="namedview7"
     inkscape:window-height="2066"
     inkscape:window-width="3840"
     inkscape:pageshadow="2"
     inkscape:pageopacity="0.61960784"
     guidetolerance="10"
     gridtolerance="10"
     objecttolerance="10"
     borderopacity="1"
     bordercolor="#666666"
     pagecolor="#323232"
     inkscape:document-rotation="0"
     borderlayer="false"
     inkscape:showpageshadow="false"
     showguides="true"
     inkscape:guide-bbox="true"
     guidecolor="#00ff00"
     guideopacity="0.49803922">
    <sodipodi:guide
       inkscape:color="rgb(0,255,0)"
       inkscape:locked="false"
       inkscape:label=""
       position="256,256"
       orientation="-1,0"
       id="guide869" />
    <sodipodi:guide
       inkscape:color="rgb(0,255,0)"
       inkscape:locked="false"
       inkscape:label=""
       position="256,256"
       orientation="0,1"
       id="guide905" />
  </sodipodi:namedview>
  <filter
     id="shadow">
    <feDropShadow
       stdDeviation="6"
       dy="12"
       dx="6" />
  </filter>
  <path
     d="M 256 71.009766 C 153.73227 71.009764 70.990237 153.7448 70.990234 256 C 70.990234 358.25521 153.73226 440.99024 256 440.99023 C 358.26773 440.99023 441.00977 358.2552 441.00977 256 C 441.00976 153.7448 358.26773 71.009766 256 71.009766 z "
     style="color:#000000;font-style:normal;font-variant:normal;font-weight:normal;font-stretch:normal;font-size:medium;line-height:normal;font-family:sans-serif;font-variant-ligatures:normal;font-variant-position:normal;font-variant-caps:normal;font-variant-numeric:normal;font-variant-alternates:normal;font-variant-east-asian:normal;font-feature-settings:normal;font-variation-settings:normal;text-indent:0;text-align:start;text-decoration:none;text-decoration-line:none;text-decoration-style:solid;text-decoration-color:#000000;letter-spacing:normal;word-spacing:normal;text-transform:none;writing-mode:lr-tb;direction:ltr;text-orientation:mixed;dominant-baseline:auto;baseline-shift:baseline;text-anchor:start;white-space:normal;shape-padding:0;shape-margin:0;inline-size:0;clip-rule:nonzero;display:inline;overflow:visible;visibility:visible;isolation:auto;mix-blend-mode:normal;color-interpolation:sRGB;color-interpolation-filters:linearRGB;solid-color:#000000;solid-opacity:1;vector-effect:none;fill:#ffffff;fill-opacity:1;fill-rule:evenodd;stroke:none;stroke-width:15.0001;stroke-linecap:round;stroke-linejoin:round;stroke-miterlimit:4;stroke-dasharray:none;stroke-dashoffset:0;stroke-opacity:1;paint-order:normal;color-rendering:auto;image-rendering:auto;shape-rendering:auto;text-rendering:auto;enable-background:accumulate;stop-color:#000000"
     id="path907" />
  <path
     id="path909"
     d="M 255.99987,56.00977 C 145.62637,56.009768 55.990106,145.63726 55.990103,256 c 0,110.36275 89.636267,199.99024 200.009767,199.99023 110.24772,0 199.79602,-89.42555 200,-199.61523 a 7.5000501,7.5000501 0 0 0 0.01,-0.33789 7.5000501,7.5000501 0 0 0 0,-0.0371 7.5000501,7.5000501 0 0 0 -0.01,-0.38086 c -0.20717,-110.18697 -89.75425,-199.60938 -200,-199.60938 z m 0,15 c 102.26773,0 185.00976,82.73504 185.00977,184.99023 0,102.2552 -82.74204,184.99023 -185.00977,184.99023 C 153.73213,440.99024 70.990103,358.25521 70.990103,256 70.990106,153.74481 153.73214,71.009768 255.99987,71.00977 Z"
     style="color:#000000;font-style:normal;font-variant:normal;font-weight:normal;font-stretch:normal;font-size:medium;line-height:normal;font-family:sans-serif;font-variant-ligatures:normal;font-variant-position:normal;font-variant-caps:normal;font-variant-numeric:normal;font-variant-alternates:normal;font-variant-east-asian:normal;font-feature-settings:normal;font-variation-settings:normal;text-indent:0;text-align:start;text-decoration:none;text-decoration-line:none;text-decoration-style:solid;text-decoration-color:#000000;letter-spacing:normal;word-spacing:normal;text-transform:none;writing-mode:lr-tb;direction:ltr;text-orientation:mixed;dominant-baseline:auto;baseline-shift:baseline;text-anchor:start;white-space:normal;shape-padding:0;shape-margin:0;inline-size:0;clip-rule:nonzero;display:inline;overflow:visible;visibility:visible;isolation:auto;mix-blend-mode:normal;color-interpolation:sRGB;color-interpolation-filters:linearRGB;solid-color:#000000;solid-opacity:1;vector-effect:none;fill:#000100;fill-opacity:1;fill-rule:evenodd;stroke:none;stroke-width:15.0001;stroke-linecap:round;stroke-linejoin:round;stroke-miterlimit:4;stroke-dasharray:none;stroke-dashoffset:0;stroke-opacity:1;paint-order:normal;color-rendering:auto;image-rendering:auto;shape-rendering:auto;text-rendering:auto;enable-background:accumulate;stop-color:#000000" />
  <g
     style="stroke-width:0.893976"
     transform="matrix(0.57875447,0.95794695,-0.95571127,0.58010834,40.710459,-509.09232)"
     id="g879">
    <path
       id="path844"
       style="color:#000000;font-style:normal;font-variant:normal;font-weight:normal;font-stretch:normal;font-size:medium;line-height:normal;font-family:sans-serif;font-variant-ligatures:normal;font-variant-position:normal;font-variant-caps:normal;font-variant-numeric:normal;font-variant-alternates:normal;font-variant-east-asian:normal;font-feature-settings:normal;font-variation-settings:normal;text-indent:0;text-align:start;text-decoration:none;text-decoration-line:none;text-decoration-style:solid;text-decoration-color:#000000;letter-spacing:normal;word-spacing:normal;text-transform:none;writing-mode:lr-tb;direction:ltr;text-orientation:mixed;dominant-baseline:auto;baseline-shift:baseline;text-anchor:start;white-space:normal;shape-padding:0;shape-margin:0;inline-size:0;clip-rule:nonzero;display:inline;overflow:visible;visibility:visible;isolation:auto;mix-blend-mode:normal;color-interpolation:sRGB;color-interpolation-filters:linearRGB;solid-color:#000000;solid-opacity:1;vector-effect:none;fill:#000100;fill-opacity:1;fill-rule:nonzero;stroke:none;stroke-width:26.8193;stroke-linecap:round;stroke-linejoin:round;stroke-miterlimit:4;stroke-dasharray:none;stroke-dashoffset:0;stroke-opacity:1;paint-order:stroke fill markers;color-rendering:auto;image-rendering:auto;shape-rendering:auto;text-rendering:auto;enable-background:accumulate;stop-color:#000000"
       d="m 611.18275,-37.422644 a 15.0015,15.0015 0 0 0 -14.92969,16.609375 c 11.33558,104.926034 41.24371,198.053909 75.48438,297.345709 -11.23731,2.02873 -22.65837,3.25635 -34.30078,3.42578 a 15.0015,15.0015 0 0 0 -13.95117,19.91797 l 9.03515,26.02148 a 15.0015,15.0015 0 0 0 19.0918,9.25 l 50.32226,-17.47461 c 13.35264,24.21126 20.38312,50.98785 24.05079,79.80079 a 15.0015,15.0015 0 0 0 19.80078,12.27539 l 25.1914,-8.74805 a 15.0015,15.0015 0 0 0 7.99414,-21.79688 c -14.577,-24.68576 -24.96363,-50.39279 -30.15234,-77.8125 l 49.83008,-17.30273 a 15.0015,15.0015 0 0 0 9.25,-19.0918 l -9.03711,-26.02148 a 15.0015,15.0015 0 0 0 -22.63672,-7.46094 c -9.71764,6.64512 -19.71269,12.71854 -29.91797,18.2168 C 712.27487,151.02509 680.26127,55.992375 623.72767,-30.621863 a 15.0015,15.0015 0 0 0 -5.9414,-5.261719 15.0015,15.0015 0 0 0 -6.60352,-1.539062 z m -0.0176,15 h 0.002 c 58.24571,89.237339 90.30059,188.524494 126.59961,293.294924 16.26879,-7.59772 31.93142,-16.72311 46.92578,-26.97656 l 9.03711,26.02344 -61.70508,21.42578 c 4.48802,34.20861 16.50407,65.80453 34.03125,95.48633 l -25.19141,8.74804 c -4.36027,-34.25398 -13.43421,-66.87183 -32.32226,-96.08007 l -61.85157,21.47851 -9.03515,-26.02148 c 18.41663,-0.26802 36.33334,-2.8311 53.6914,-7.28907 C 654.81284,182.31255 622.90591,86.253715 611.16517,-22.422644 Z" />
    <path
       id="path846"
       d="m 611.16574,-22.423434 c 11.74074,108.676359 43.64795,204.735464 80.18192,310.090114 -17.35806,4.45797 -35.27581,7.02096 -53.69244,7.28898 l 9.03583,26.02128 61.85029,-21.47736 c 18.88805,29.20824 27.96358,61.82588 32.32385,96.07986 l 25.19111,-8.74755 c -17.52718,-29.6818 -29.5445,-61.27792 -34.03252,-95.48653 l 61.7052,-21.42697 -9.03614,-26.0222 c -14.99436,10.25345 -30.6574,19.37889 -46.92619,26.97661 C 701.46763,166.10237 669.41267,66.814505 611.16696,-22.422834 Z"
       style="color:#000000;font-style:normal;font-variant:normal;font-weight:normal;font-stretch:normal;font-size:medium;line-height:normal;font-family:sans-serif;font-variant-ligatures:normal;font-variant-position:normal;font-variant-caps:normal;font-variant-numeric:normal;font-variant-alternates:normal;font-variant-east-asian:normal;font-feature-settings:normal;font-variation-settings:normal;text-indent:0;text-align:start;text-decoration:none;text-decoration-line:none;text-decoration-style:solid;text-decoration-color:#000000;letter-spacing:normal;word-spacing:normal;text-transform:none;writing-mode:lr-tb;direction:ltr;text-orientation:mixed;dominant-baseline:auto;baseline-shift:baseline;text-anchor:start;white-space:normal;shape-padding:0;shape-margin:0;inline-size:0;clip-rule:nonzero;display:inline;overflow:visible;visibility:visible;isolation:auto;mix-blend-mode:normal;color-interpolation:sRGB;color-interpolation-filters:linearRGB;solid-color:#000000;solid-opacity:1;vector-effect:none;fill:#ffffff;fill-opacity:1;fill-rule:nonzero;stroke:none;stroke-width:26.8193;stroke-linecap:round;stroke-linejoin:round;stroke-miterlimit:4;stroke-dasharray:none;stroke-dashoffset:0;stroke-opacity:1;paint-order:stroke fill markers;color-rendering:auto;image-rendering:auto;shape-rendering:auto;text-rendering:auto;enable-background:accumulate;stop-color:#000000" />
  </g>
  <g
     id="g902">
    <path
       id="path891"
       style="color:#000000;font-style:normal;font-variant:normal;font-weight:normal;font-stretch:normal;font-size:medium;line-height:normal;font-family:sans-serif;font-variant-ligatures:normal;font-variant-position:normal;font-variant-caps:normal;font-variant-numeric:normal;font-variant-alternates:normal;font-variant-east-asian:normal;font-feature-settings:normal;font-variation-settings:normal;text-indent:0;text-align:start;text-decoration:none;text-decoration-line:none;text-decoration-style:solid;text-decoration-color:#000000;letter-spacing:normal;word-spacing:normal;text-transform:none;writing-mode:lr-tb;direction:ltr;text-orientation:mixed;dominant-baseline:auto;baseline-shift:baseline;text-anchor:start;white-space:normal;shape-padding:0;shape-margin:0;inline-size:0;clip-rule:nonzero;display:inline;overflow:visible;visibility:visible;isolation:auto;mix-blend-mode:normal;color-interpolation:sRGB;color-interpolation-filters:linearRGB;solid-color:#000000;solid-opacity:1;vector-effect:none;fill:#000100;fill-opacity:1;fill-rule:nonzero;stroke:none;stroke-width:30.0001;stroke-linecap:round;stroke-linejoin:round;stroke-miterlimit:4;stroke-dasharray:none;stroke-dashoffset:0;stroke-opacity:1;paint-order:stroke fill markers;color-rendering:auto;image-rendering:auto;shape-rendering:auto;text-rendering:auto;enable-background:accumulate;stop-color:#000000"
       d="M 87.857422 45.628906 C 87.463129 45.636041 87.062956 45.656424 86.65625 45.691406 C 83.417313 45.970003 79.774976 47.216978 75.59375 50.691406 C 75.389089 50.860136 75.185259 51.031227 74.988281 51.208984 A 15.00155 15.00155 0 0 0 74.957031 51.238281 A 15.00155 15.00155 0 0 0 72.537109 54.056641 C 71.566379 55.406035 70.740557 56.827236 70.193359 58.304688 A 15.00155 15.00155 0 0 0 70.160156 58.392578 C 63.290996 77.306712 67.972312 98.032021 76.353516 116.60352 C 84.729928 135.16439 97.133648 152.79248 117.51953 157.93164 C 118.83216 158.29352 120.08694 158.59086 121.37305 158.92188 L 336.30664 403.37695 C 336.47094 404.69973 336.6051 405.98639 336.79688 407.33984 C 339.2912 428.20704 355.18387 442.75891 372.51562 453.43945 C 389.86196 464.12898 409.81702 471.4252 429.45508 467.0332 C 435.67474 465.64153 440.32664 460.45926 442.12109 456.61523 C 443.91579 452.77069 444.25538 449.6708 444.42969 446.77148 C 444.77831 440.97284 443.98603 435.69383 442.89062 430.54883 C 441.79523 425.40382 440.42351 420.73698 438.44531 416.39844 C 437.45622 414.22917 436.79851 412.2338 433.57227 409.02539 C 431.95914 407.42118 429.27432 404.8274 423.6875 404.26953 C 418.64551 403.76606 413.08086 406.78186 410.37305 409.5625 C 410.25899 409.60646 410.01095 409.69757 409.42188 409.79492 C 407.82157 410.05939 404.88413 409.98882 402.20898 409.38086 C 400.29291 408.9454 398.75023 408.26947 397.62891 407.69336 C 397.67441 382.99646 396.0133 349.22099 390.75781 317.02344 C 385.25099 283.28609 377.76032 251.50876 357.21289 232.80469 C 344.31732 221.06575 329.62335 212.64704 316.03711 204.48242 C 309.67779 189.96092 303.20763 174.3105 293.21484 160.01758 C 277.29501 137.24497 246.73722 125.74979 213.98242 115.9707 C 182.72211 106.6378 149.43765 100.66659 124.9375 97.550781 C 124.50958 96.364672 124.03828 94.747018 123.85156 92.791016 C 123.59083 90.059711 123.89626 87.137565 124.36328 85.583984 C 124.53518 85.01222 124.6588 84.779344 124.7168 84.671875 C 127.62696 82.534765 131.12469 78.078718 131.59961 73.214844 C 132.12937 67.789247 130.08709 64.402871 128.74414 62.457031 C 126.05825 58.565353 124.18378 57.680047 122.28516 56.4375 C 118.48792 53.952406 114.46267 52.126799 109.9043 50.408203 C 105.34593 48.689608 100.50446 47.222752 95.339844 46.476562 C 93.080322 46.150105 90.617472 45.57896 87.857422 45.628906 z M 89.496094 61.054688 C 99.598255 60.866266 119.9041 70.225946 116.23828 72.339844 C 104.16857 79.302684 107.72402 110.51912 119.43945 111.92578 C 167.32596 117.67582 258.39592 136.39175 280.91992 168.61133 C 290.47552 182.27893 297.11638 198.869 304.24023 214.85352 C 319.18018 223.9643 334.78373 232.67102 347.11523 243.89648 C 376.18715 270.36029 383.09413 363.07941 382.66797 411.30664 C 382.56374 423.10712 413.06797 430.62702 421.51758 419.54688 C 424.76165 415.29339 434.59085 450.51641 426.18164 452.39648 C 400.37669 458.16768 354.69729 430.98036 351.68359 405.52539 C 351.26686 402.6144 350.92099 399.75929 350.62109 396.93945 L 129.58594 145.54688 C 126.8281 144.88863 124.04225 144.18223 121.20898 143.39648 C 96.349067 137.14968 75.233356 88.367762 84.259766 63.513672 C 84.429881 63.054357 84.69412 62.658851 85.039062 62.345703 L 85.039062 62.34375 C 85.075802 62.3106 85.111941 62.279217 85.150391 62.248047 C 86.104433 61.451577 87.625323 61.08958 89.496094 61.054688 z M 145.47656 148.875 L 349.35547 380.75391 C 347.14893 341.79257 349.86967 307.50955 314.94336 249.59375 C 301.0591 232.26036 287.43595 215.00773 271.1543 199.79102 C 218.18489 157.73952 183.83507 156.0499 145.47656 148.875 z M 185.5625 171.75 C 207.66438 177.19892 230.47262 186.76819 261.3418 211.18164 C 276.09061 225.04664 288.98999 241.20046 302.51562 258.08984 C 322.66784 291.70679 329.23156 315.50851 331.80078 338.07422 L 185.5625 171.75 z " />
    <path
       id="path893"
       d="m 85.038563,62.344738 c -0.344942,0.313148 -0.609435,0.709825 -0.77955,1.16914 -9.02641,24.85409 12.08922,73.635062 36.949137,79.881862 2.83327,0.78575 5.62049,1.49378 8.37833,2.15202 l 221.03557,251.39258 c 0.2999,2.81984 0.64528,5.67387 1.06201,8.58486 3.0137,25.45497 48.69226,52.64171 74.49721,46.87051 8.40921,-1.88007 -1.41947,-37.10147 -4.66354,-32.84799 -8.44961,11.08014 -38.95402,3.55945 -38.84979,-8.24103 0.42616,-48.22723 -6.48078,-140.94545 -35.5527,-167.40926 -12.3315,-11.22546 -27.93577,-19.93317 -42.87572,-29.04395 -7.12385,-15.98452 -13.76328,-32.5742 -23.31888,-46.2418 -22.524,-32.21958 -113.59442,-50.93492 -161.48093,-56.68496 -11.71543,-1.40666 -15.27201,-32.623652 -3.2023,-39.586492 4.34467,-2.50536 -24.980217,-15.18945 -31.086087,-10.09204 -0.03845,0.03117 -0.07605,0.06335 -0.11279,0.0965 z m 60.438697,86.531122 c 38.35851,7.1749 72.7081,8.86333 125.67751,50.91483 16.28165,15.21671 29.905,32.46989 43.78926,49.80328 34.92631,57.9158 32.20457,92.19899 34.41111,131.16033 z"
       style="color:#000000;font-style:normal;font-variant:normal;font-weight:normal;font-stretch:normal;font-size:medium;line-height:normal;font-family:sans-serif;font-variant-ligatures:normal;font-variant-position:normal;font-variant-caps:normal;font-variant-numeric:normal;font-variant-alternates:normal;font-variant-east-asian:normal;font-feature-settings:normal;font-variation-settings:normal;text-indent:0;text-align:start;text-decoration:none;text-decoration-line:none;text-decoration-style:solid;text-decoration-color:#000000;letter-spacing:normal;word-spacing:normal;text-transform:none;writing-mode:lr-tb;direction:ltr;text-orientation:mixed;dominant-baseline:auto;baseline-shift:baseline;text-anchor:start;white-space:normal;shape-padding:0;shape-margin:0;inline-size:0;clip-rule:nonzero;display:inline;overflow:visible;visibility:visible;isolation:auto;mix-blend-mode:normal;color-interpolation:sRGB;color-interpolation-filters:linearRGB;solid-color:#000000;solid-opacity:1;vector-effect:none;fill:#fcfcfc;fill-opacity:1;fill-rule:nonzero;stroke:none;stroke-width:30.0001;stroke-linecap:round;stroke-linejoin:round;stroke-miterlimit:4;stroke-dasharray:none;stroke-dashoffset:0;stroke-opacity:1;paint-order:stroke fill markers;color-rendering:auto;image-rendering:auto;shape-rendering:auto;text-rendering:auto;enable-background:accumulate;stop-color:#000000" />
  </g>
</svg>
