<?xml version="1.0" encoding="UTF-8" standalone="no"?>
<svg
   xmlns:dc="http://purl.org/dc/elements/1.1/"
   xmlns:cc="http://creativecommons.org/ns#"
   xmlns:rdf="http://www.w3.org/1999/02/22-rdf-syntax-ns#"
   xmlns:svg="http://www.w3.org/2000/svg"
   xmlns="http://www.w3.org/2000/svg"
   xmlns:xlink="http://www.w3.org/1999/xlink"
   xmlns:sodipodi="http://sodipodi.sourceforge.net/DTD/sodipodi-0.dtd"
   xmlns:inkscape="http://www.inkscape.org/namespaces/inkscape"
   inkscape:version="1.0 (4035a4fb49, 2020-05-01)"
   sodipodi:docname="battle-talent1_wc.svg"
   id="svg5"
   version="1.1"
   height="512"
   width="512"
   viewBox="0 0 512 512">
  <title
     id="title869">Battle: Skill</title>
  <metadata
     id="metadata11">
    <rdf:RDF>
      <cc:Work
         rdf:about="">
        <dc:format>image/svg+xml</dc:format>
        <dc:type
           rdf:resource="http://purl.org/dc/dcmitype/StillImage" />
        <dc:title>Battle: Skill</dc:title>
        <cc:license
           rdf:resource="http://creativecommons.org/publicdomain/zero/1.0/" />
        <dc:contributor>
          <cc:Agent>
            <dc:title>based upon Battle gear icon by Lorc, Stiletto iconby Lorc and Bow arrow iconby Delapouite under CC BY 3.0 (Game-icons.net)</dc:title>
          </cc:Agent>
        </dc:contributor>
        <dc:date>2022.02.10</dc:date>
        <dc:creator>
          <cc:Agent>
            <dc:title>Streuner²</dc:title>
          </cc:Agent>
        </dc:creator>
      </cc:Work>
      <cc:License
         rdf:about="http://creativecommons.org/publicdomain/zero/1.0/">
        <cc:permits
           rdf:resource="http://creativecommons.org/ns#Reproduction" />
        <cc:permits
           rdf:resource="http://creativecommons.org/ns#Distribution" />
        <cc:permits
           rdf:resource="http://creativecommons.org/ns#DerivativeWorks" />
      </cc:License>
    </rdf:RDF>
  </metadata>
  <defs
     id="defs9">
    <linearGradient
       id="linearGradient887"
       inkscape:collect="always">
      <stop
         id="stop883"
         offset="0"
         style="stop-color:#fedbb4;stop-opacity:1" />
      <stop
         id="stop885"
         offset="1"
         style="stop-color:#c86400;stop-opacity:1" />
    </linearGradient>
    <radialGradient
       gradientUnits="userSpaceOnUse"
       gradientTransform="matrix(1,0,0,1.0156721,0,-4.1152521)"
       r="188.61914"
       fy="256.10159"
       fx="256"
       cy="256.10159"
       cx="256"
       id="radialGradient889"
       xlink:href="#linearGradient887"
       inkscape:collect="always" />
  </defs>
  <sodipodi:namedview
     inkscape:current-layer="svg5"
     inkscape:window-maximized="1"
     inkscape:window-y="-11"
     inkscape:window-x="-11"
     inkscape:cy="268.8403"
     inkscape:cx="137.38579"
     inkscape:zoom="2.6491535"
     showgrid="false"
     id="namedview7"
     inkscape:window-height="2066"
     inkscape:window-width="3840"
     inkscape:pageshadow="2"
     inkscape:pageopacity="0.61960784"
     guidetolerance="10"
     gridtolerance="10"
     objecttolerance="10"
     borderopacity="1"
     bordercolor="#666666"
     pagecolor="#323232"
     inkscape:document-rotation="0"
     borderlayer="false"
     inkscape:showpageshadow="false"
     showguides="true"
     inkscape:guide-bbox="true"
     guidecolor="#00ff00"
     guideopacity="0.49803922">
    <sodipodi:guide
       inkscape:color="rgb(0,255,0)"
       inkscape:locked="false"
       inkscape:label=""
       position="256,256"
       orientation="-1,0"
       id="guide869" />
    <sodipodi:guide
       inkscape:color="rgb(0,255,0)"
       inkscape:locked="false"
       inkscape:label=""
       position="256,256"
       orientation="0,1"
       id="guide905" />
  </sodipodi:namedview>
  <filter
     id="shadow">
    <feDropShadow
       stdDeviation="6"
       dy="12"
       dx="6" />
  </filter>
  <path
     d="M 256 71.009766 C 153.73227 71.009764 70.990237 153.7448 70.990234 256 C 70.990234 358.25521 153.73226 440.99024 256 440.99023 C 256.20327 440.99023 256.4043 440.98113 256.60742 440.98047 C 268.17359 431.06432 278.01609 420.3384 285.63672 408.07227 L 260.64453 387.30859 A 15.0015 15.0015 0 0 1 258.66992 366.21094 L 270.72266 351.63477 A 15.0015 15.0015 0 0 1 295.00781 353.25195 C 298.09866 358.20382 301.47512 362.89038 305.09961 367.3457 C 310.38251 360.9995 315.64969 354.73976 320.91797 348.52148 L 275.125 296.43945 C 274.91569 296.38295 274.72038 296.33915 274.50977 296.28125 C 258.92796 292.3502 250.96199 280.03322 245.38867 267.68359 C 239.81113 255.32459 236.29607 241.71145 241.42188 227.59766 C 241.43287 227.56836 241.44388 227.53907 241.45508 227.50977 C 241.70228 226.84233 242.11314 226.20659 242.45703 225.55469 L 242.46289 225.53711 C 242.58184 225.29022 242.70754 225.04664 242.83984 224.80664 C 243.0585 224.43763 243.24711 224.07297 243.49609 223.7168 C 244.18143 222.68311 244.9923 221.7384 245.91016 220.9043 C 245.91316 220.9013 245.91597 220.89948 245.91797 220.89648 C 245.92907 220.88538 245.94007 220.87428 245.95117 220.86328 C 246.12752 220.70417 246.31264 220.54988 246.49805 220.39648 C 250.38922 217.15939 253.60092 216.04873 256.3125 215.82227 C 256.65268 215.79387 256.98378 215.78034 257.30859 215.77734 C 259.58232 215.75473 261.48912 216.28732 263.15039 216.52734 C 266.9476 217.07597 270.2048 218.08518 273.30469 219.25391 C 276.40459 220.42263 279.09682 221.60692 282.03125 223.52734 C 283.49846 224.48756 285.05965 225.11038 287.5918 228.7793 C 288.85788 230.61376 290.86292 233.89932 290.3418 239.23633 C 289.98971 242.84231 287.91846 246.14638 285.71875 248.48828 C 300.48575 250.56065 318.99449 254.04557 336.79297 259.35938 C 353.86964 264.45769 370.27049 269.8651 381.96875 281.03125 C 399.82503 262.97381 418.59599 245.65672 439.08008 229.21289 C 426.12116 139.67805 349.16709 71.009766 256 71.009766 z M 259.70898 231.24414 C 260.00836 231.26352 260.32066 231.29651 260.63867 231.33594 C 260.32057 231.29649 260.00844 231.26353 259.70898 231.24414 z M 257.98633 231.25977 C 257.91403 231.26787 257.84724 231.28082 257.77734 231.29102 C 257.84696 231.28086 257.91433 231.26784 257.98633 231.25977 z M 257.30859 231.37891 C 257.23662 231.39605 257.16621 231.4136 257.09766 231.43359 C 257.16634 231.41355 257.23648 231.3961 257.30859 231.37891 z M 261.1543 231.40039 C 261.60126 231.46819 262.06112 231.55275 262.53125 231.65234 C 262.06137 231.5528 261.60104 231.46819 261.1543 231.40039 z M 256.70703 231.57422 C 256.64554 231.60022 256.58109 231.62329 256.52344 231.65234 C 256.58105 231.62329 256.64559 231.60022 256.70703 231.57422 z M 262.71289 231.6875 C 263.24938 231.80494 263.79765 231.94435 264.34961 232.0957 C 263.79718 231.94421 263.24982 231.80503 262.71289 231.6875 z M 264.87695 232.24805 C 265.2591 232.35891 265.64147 232.47241 266.02344 232.5957 C 265.64078 232.47217 265.25979 232.35911 264.87695 232.24805 z M 266.66602 232.8125 C 267.02048 232.9332 267.37236 233.05696 267.7207 233.18555 C 267.37174 233.05672 267.02112 232.9334 266.66602 232.8125 z M 268.26367 233.39062 C 268.62647 233.52999 268.98234 233.67134 269.33203 233.81641 C 268.9815 233.67098 268.62738 233.53033 268.26367 233.39062 z M 269.9043 234.05664 C 270.22143 234.19379 270.52211 234.33333 270.82227 234.47266 C 270.52197 234.33328 270.22158 234.19383 269.9043 234.05664 z M 271.35352 234.7168 C 271.7966 234.93151 272.21754 235.14695 272.60547 235.35938 C 272.2172 235.14681 271.79699 234.93164 271.35352 234.7168 z M 272.88867 235.52344 C 273.18186 235.68986 273.46309 235.85507 273.71289 236.01562 C 273.46218 235.85442 273.18312 235.69054 272.88867 235.52344 z M 273.98828 236.20508 C 274.19932 236.34905 274.39475 236.48936 274.5625 236.625 C 274.39448 236.48902 274.19984 236.34944 273.98828 236.20508 z M 275.30664 237.41406 C 275.32393 237.44567 275.34475 237.47741 275.35742 237.50781 C 275.34481 237.47757 275.32383 237.4455 275.30664 237.41406 z M 275.38672 237.59961 C 275.39858 237.64405 275.40577 237.68719 275.40625 237.72852 C 275.40568 237.68698 275.39877 237.64428 275.38672 237.59961 z M 275.40234 237.80469 C 275.3953 237.8455 275.37744 237.88281 275.35742 237.91992 C 275.37744 237.8828 275.39531 237.84552 275.40234 237.80469 z M 275.32227 237.98633 C 275.27897 238.04026 275.22291 238.09069 275.14648 238.13477 C 275.22294 238.09068 275.27896 238.04028 275.32227 237.98633 z M 448.22852 241.10547 C 447.94761 241.33123 447.66699 241.5571 447.38672 241.7832 C 447.66698 241.55709 447.94762 241.33123 448.22852 241.10547 z M 440.79688 247.17969 C 438.0192 249.48698 435.27198 251.81244 432.55273 254.1543 C 435.27193 251.81259 438.0192 249.48893 440.79688 247.18164 L 440.79688 247.17969 z M 284.28711 249.86133 C 283.72447 250.33289 283.15248 250.83469 282.64258 251.12891 C 283.3607 250.71464 283.88941 250.29131 284.31445 249.88672 C 284.30425 249.87782 284.29731 249.87033 284.28711 249.86133 z M 282.67969 263.1543 C 283.20918 263.22776 283.7791 263.31678 284.32031 263.39453 C 283.77768 263.31658 283.21054 263.22795 282.67969 263.1543 z M 288.73633 264.05078 C 289.48725 264.16837 290.26982 264.30268 291.03711 264.42773 C 290.26879 264.3025 289.48824 264.16852 288.73633 264.05078 z M 295.03711 265.09766 C 295.9826 265.26226 296.95082 265.43997 297.91406 265.61523 C 296.94832 265.43952 295.98499 265.26265 295.03711 265.09766 z M 301.79883 266.33984 C 302.75957 266.52502 303.73065 266.72064 304.70312 266.91602 C 303.72818 266.72015 302.76197 266.52546 301.79883 266.33984 z M 440.67773 266.9668 C 439.78108 268.4911 438.87464 270.00955 437.96289 271.52344 C 438.87481 270.00931 439.78093 268.49135 440.67773 266.9668 z M 308.75586 267.75391 C 309.78006 267.97173 310.80669 268.19495 311.83789 268.42383 C 310.80483 268.19455 309.78189 267.97209 308.75586 267.75391 z M 315.72461 269.3125 C 316.80753 269.56615 317.89017 269.82214 318.97461 270.08789 C 317.8881 269.82165 316.80959 269.56659 315.72461 269.3125 z M 323.01367 271.11328 C 324.18354 271.4168 325.35539 271.71356 326.51953 272.03125 C 325.35458 271.71337 324.18435 271.41697 323.01367 271.11328 z M 437.71484 271.93555 C 436.7955 273.45887 435.86976 274.97695 434.93555 276.49023 C 435.86964 274.97722 436.79562 273.45861 437.71484 271.93555 z M 327.57031 272.32031 C 329.51929 272.86046 331.45657 273.41989 333.37305 274 C 331.45568 273.41966 329.5202 272.86065 327.57031 272.32031 z M 334.85156 274.45312 C 335.43366 274.63351 336.01611 274.81393 336.59375 274.99805 C 336.01595 274.81389 335.43382 274.63355 334.85156 274.45312 z M 338.16602 275.50977 C 338.79317 275.71497 339.42227 275.91922 340.04297 276.12891 C 339.42215 275.9192 338.7933 275.71499 338.16602 275.50977 z M 341.82812 276.74805 C 342.29379 276.9104 342.76529 277.06749 343.22656 277.23242 C 342.76545 277.06757 342.29362 276.91032 341.82812 276.74805 z M 346.41016 278.40625 C 346.91038 278.59627 347.39697 278.79312 347.89062 278.98633 C 347.397 278.79315 346.91033 278.59623 346.41016 278.40625 z M 349.57227 279.64844 C 350.03439 279.83572 350.48398 280.02858 350.93945 280.21875 C 350.48402 280.02861 350.03435 279.83568 349.57227 279.64844 z M 352.65234 280.94141 C 353.10073 281.13599 353.53757 281.33569 353.97852 281.5332 C 353.53751 281.33569 353.10079 281.136 352.65234 280.94141 z M 355.58203 282.25977 C 356.0662 282.48543 356.53981 282.71596 357.01367 282.94531 C 356.53956 282.71586 356.06647 282.48553 355.58203 282.25977 z M 358.36523 283.60938 C 358.8278 283.84177 359.28298 284.07643 359.73438 284.3125 C 359.28296 284.07645 358.82781 283.84175 358.36523 283.60938 z M 361.08984 285.03516 C 361.539 285.28016 361.98339 285.5285 362.41992 285.77734 C 361.98294 285.52825 361.53948 285.2804 361.08984 285.03516 z M 363.61133 286.47266 C 364.04542 286.73081 364.4766 286.98978 364.89648 287.25195 C 364.47682 286.98995 364.04518 286.73065 363.61133 286.47266 z M 307.42188 287.64453 C 307.97285 287.74484 308.52456 287.84774 309.07617 287.95117 C 308.52485 287.84765 307.97255 287.74492 307.42188 287.64453 z M 365.98047 287.95117 C 366.40217 288.22652 366.82703 288.50158 367.23242 288.78125 C 366.82655 288.50125 366.4027 288.22684 365.98047 287.95117 z M 311.22852 288.36523 C 311.84475 288.48629 312.46391 288.61502 313.08203 288.74219 C 312.46387 288.61483 311.84478 288.48647 311.22852 288.36523 z M 315.35742 289.21875 C 315.94019 289.34644 316.52784 289.48989 317.11328 289.625 C 316.52796 289.48974 315.94007 289.34659 315.35742 289.21875 z M 368.23242 289.5 C 368.61787 289.77923 369.01035 290.05641 369.37891 290.33984 C 369.01026 290.05633 368.61796 289.7793 368.23242 289.5 z M 321.38672 290.68555 C 322.03719 290.85716 322.68438 291.019 323.33984 291.20312 C 322.68439 291.0188 322.03718 290.85735 321.38672 290.68555 z M 370.37305 291.14453 C 370.69718 291.40897 371.03482 291.6695 371.34375 291.9375 C 371.03482 291.6695 370.69718 291.40897 370.37305 291.14453 z M 325.63086 291.88672 C 326.25267 292.07463 326.87272 292.25787 327.5 292.45898 C 326.87233 292.25757 326.25306 292.07493 325.63086 291.88672 z M 434.46484 304.86523 C 429.59255 312.08211 424.56462 319.18507 419.43359 326.21875 C 421.3821 327.65719 423.31514 329.19316 425.22461 330.8418 C 428.92062 322.48977 432.02416 313.81555 434.46484 304.86523 z M 343.64258 316.54102 C 342.46206 316.48368 343.0663 318.07445 344.88672 320.77734 C 345.66152 319.90324 346.43829 319.03136 347.21484 318.16016 C 345.45075 317.08808 344.28341 316.57214 343.64258 316.54102 z M 410.50586 338.28906 C 411.56052 339.06254 412.59102 339.85479 413.59961 340.66406 C 412.59248 339.85376 411.56044 339.06244 410.50586 338.28906 z M 419.51367 346.28125 C 419.54765 346.32317 419.58137 346.36596 419.61523 346.4082 C 419.58136 346.36599 419.54765 346.32315 419.51367 346.28125 z M 420.36133 347.39453 C 420.62477 347.7501 420.88421 348.1154 421.14062 348.49023 C 420.88412 348.11573 420.62484 347.74984 420.36133 347.39453 z M 421.73438 349.37305 C 421.97728 349.74982 422.2147 350.14333 422.45117 350.53711 C 422.2145 350.14358 421.97745 349.74959 421.73438 349.37305 z M 423.5 352.37695 C 423.68533 352.71867 423.87351 353.05215 424.05469 353.4043 C 423.87351 353.05263 423.68534 352.71819 423.5 352.37695 z M 424.83008 354.98438 C 424.93317 355.20021 425.03698 355.4136 425.13867 355.63281 C 425.03696 355.41379 424.9332 355.20001 424.83008 354.98438 z M 425.88281 357.29297 C 425.98708 357.53419 426.09064 357.77867 426.19336 358.02344 C 426.09062 357.77875 425.98711 357.53409 425.88281 357.29297 z M 389.85547 364.71094 C 388.76239 366.07411 387.65726 367.43379 386.55859 368.79492 C 389.81304 372.39718 392.70367 375.63134 394.92969 378.19141 C 395.16328 377.92581 395.40073 377.66343 395.63281 377.39648 C 394.09897 373.44528 392.20483 369.24882 389.85547 364.71094 z M 326.55273 365.05664 C 325.23968 366.61865 323.92453 368.17679 322.60938 369.74805 C 323.92518 368.17611 325.23902 366.61932 326.55273 365.05664 z M 320.58008 372.18164 C 315.62161 378.11731 310.64792 384.10146 305.62891 390.16602 C 310.64805 384.10131 315.62129 378.11732 320.58008 372.18164 z M 363.48633 396.93359 C 360.51337 400.51838 357.55514 404.0969 354.56641 407.69336 C 355.93475 408.45281 357.31392 409.19855 358.70312 409.93164 C 362.0994 407.66322 365.41228 405.28306 368.64453 402.80078 L 363.48633 396.93359 z M 304.79492 404.48633 C 304.2199 405.67266 303.6216 406.83905 303.01367 407.99805 C 303.62156 406.83938 304.22002 405.6724 304.79492 404.48633 z M 302.58984 408.80469 C 301.99735 409.91449 301.39145 411.01424 300.76953 412.09961 C 301.39199 411.0138 301.99691 409.91502 302.58984 408.80469 z M 358.75195 409.95703 C 360.01517 410.62323 361.28642 411.2793 362.56641 411.92383 L 362.61328 411.92383 C 361.32203 411.27375 360.02637 410.62934 358.75195 409.95703 z M 300.36523 412.79102 C 299.79753 413.76738 299.21983 414.73433 298.62891 415.69141 C 299.21986 414.73482 299.79753 413.76692 300.36523 412.79102 z M 298.27344 416.27148 C 297.63337 417.29603 296.97459 418.30558 296.30859 419.30859 C 296.97498 418.30563 297.63301 417.29601 298.27344 416.27148 z M 295.67969 420.25 C 295.04485 421.18855 294.40109 422.11888 293.74414 423.03906 C 294.40115 422.11938 295.04479 421.18804 295.67969 420.25 z M 292.91211 424.17969 C 292.45603 424.80475 291.99537 425.4262 291.5293 426.04297 C 291.99559 425.42629 292.4558 424.80466 292.91211 424.17969 z M 304.3418 427.6543 C 303.77533 428.22828 303.21729 428.80891 302.66016 429.39062 C 303.2172 428.80902 303.77542 428.22814 304.3418 427.6543 z M 301.4668 430.63867 C 300.83878 431.30859 300.22155 431.98813 299.60547 432.66797 C 300.22167 431.98806 300.83866 431.30866 301.4668 430.63867 z M 287.38086 431.27148 C 287.22641 431.45729 287.06942 431.64112 286.91406 431.82617 C 287.06951 431.6411 287.22632 431.45731 287.38086 431.27148 z M 298.72852 433.62891 C 297.84658 434.61772 296.97667 435.6159 296.11914 436.625 L 296.12109 436.625 C 296.97837 435.61626 297.84684 434.61737 298.72852 433.62891 z M 283.98828 435.20898 C 283.83154 435.38497 283.67513 435.56102 283.51758 435.73633 C 283.67515 435.56105 283.83152 435.38493 283.98828 435.20898 z M 296.0957 436.6543 C 295.00902 437.93359 293.94479 439.23172 292.89648 440.54297 C 293.94447 439.23203 295.00927 437.93329 296.0957 436.6543 z M 280.09375 439.43359 C 279.49103 440.06376 278.88066 440.68703 278.26758 441.30859 C 278.88074 440.68693 279.49094 440.06386 280.09375 439.43359 z M 292.01367 441.66992 C 291.25487 442.63543 290.5044 443.60767 289.76562 444.58984 C 290.50444 443.60749 291.25481 442.63562 292.01367 441.66992 z M 288.82812 445.84961 C 288.09902 446.83713 287.38144 447.83416 286.67188 448.83789 C 287.38134 447.83421 288.09915 446.83708 288.82812 445.84961 z M 285.85156 449.99805 C 284.89598 451.37248 283.95157 452.7565 283.03125 454.16016 C 283.95165 452.75637 284.89598 451.37261 285.85156 449.99805 z "
     style="fill:url(#radialGradient889);fill-opacity:1;fill-rule:evenodd;stroke-width:15;stroke-linecap:round;stroke-linejoin:round;paint-order:stroke fill markers;stop-color:#000000"
     id="rect868" />
  <path
     style="color:#000000;font-style:normal;font-variant:normal;font-weight:normal;font-stretch:normal;font-size:medium;line-height:normal;font-family:sans-serif;font-variant-ligatures:normal;font-variant-position:normal;font-variant-caps:normal;font-variant-numeric:normal;font-variant-alternates:normal;font-variant-east-asian:normal;font-feature-settings:normal;font-variation-settings:normal;text-indent:0;text-align:start;text-decoration:none;text-decoration-line:none;text-decoration-style:solid;text-decoration-color:#000000;letter-spacing:normal;word-spacing:normal;text-transform:none;writing-mode:lr-tb;direction:ltr;text-orientation:mixed;dominant-baseline:auto;baseline-shift:baseline;text-anchor:start;white-space:normal;shape-padding:0;shape-margin:0;inline-size:0;clip-rule:nonzero;display:inline;overflow:visible;visibility:visible;isolation:auto;mix-blend-mode:normal;color-interpolation:sRGB;color-interpolation-filters:linearRGB;solid-color:#000000;solid-opacity:1;vector-effect:none;fill:#c86400;fill-opacity:1;fill-rule:nonzero;stroke:none;stroke-width:30;stroke-linecap:round;stroke-linejoin:round;stroke-miterlimit:4;stroke-dasharray:none;stroke-dashoffset:0;stroke-opacity:1;paint-order:stroke fill markers;color-rendering:auto;image-rendering:auto;shape-rendering:auto;text-rendering:auto;enable-background:accumulate;stop-color:#000000"
     d="m 256,232.00021 c -0.2117,0.19218 -0.37403,0.43563 -0.47843,0.71752 -5.53969,15.25346 7.4194,45.19134 22.67644,49.02513 1.73883,0.48223 3.44941,0.91676 5.14195,1.32073 l 135.65403,154.28475 c 0.18406,1.73059 0.39602,3.48217 0.65178,5.2687 1.84957,15.62224 29.88343,32.30729 45.72045,28.76539 5.16091,-1.15384 -0.87116,-22.76993 -2.86211,-20.15948 -5.18569,6.80011 -23.90687,2.1845 -23.8429,-5.05769 0.26154,-29.59803 -3.97739,-86.50109 -21.81942,-102.74247 -7.56809,-6.88929 -17.14475,-12.23339 -26.3137,-17.82486 -4.37205,-9.81003 -8.44681,-19.99145 -14.31127,-28.37954 -13.82344,-19.77381 -69.71521,-31.2598 -99.10414,-34.78871 -7.19,-0.8633 -9.37274,-20.0218 -1.96531,-24.29504 2.66641,-1.53759 -15.33087,-9.32207 -19.07817,-6.19369 -0.0236,0.0191 -0.0467,0.0389 -0.0692,0.0592 z m 37.09246,53.10591 c 23.54139,4.40338 44.62244,5.4396 77.13084,31.24746 9.99238,9.33881 18.35331,19.92744 26.87436,30.56529 21.43499,35.54411 19.7646,56.5844 21.1188,80.49577 z"
     id="path878" />
  <path
     d="M 459.0293 232.625 C 434.39 251.48267 412.24563 271.604 391.28906 292.88672 C 395.95818 300.44847 399.23553 308.10669 402.32812 315.22461 C 403.81979 316.11515 405.35605 317.03795 406.89062 317.96484 C 426.61634 290.96714 444.44006 263.05385 459.0293 232.62695 L 459.0293 232.625 z M 380.46289 304.09375 C 380.95783 304.98857 381.43895 305.89629 381.91211 306.8125 C 381.43897 305.89662 380.95771 304.98836 380.46289 304.09375 z M 382.75977 308.49414 C 382.96225 308.90068 383.16205 309.30912 383.36133 309.71875 C 383.16196 309.30918 382.96232 308.90064 382.75977 308.49414 z M 373.5 319.52734 C 373.86692 319.89243 374.22892 320.26065 374.5918 320.62891 C 374.22906 320.26081 373.86678 319.89228 373.5 319.52734 z M 376.90625 323.02344 C 377.20202 323.33566 377.49959 323.6468 377.79297 323.96094 C 377.49952 323.64674 377.20209 323.33572 376.90625 323.02344 z M 359.41992 326.97461 C 357.72024 328.87736 356.029 330.80199 354.33594 332.7207 C 360.6542 340.15032 368.74823 349.13446 376.37891 357.55273 C 378.05178 355.47213 379.70068 353.38767 381.35742 351.30469 C 374.42843 342.70209 367.72482 334.64483 360.41016 327.74023 C 360.05343 327.46058 359.76427 327.24272 359.41992 326.97461 z M 380.5957 327.02344 C 380.7067 327.14734 380.82094 327.26843 380.93164 327.39258 C 380.82095 327.26846 380.70668 327.14732 380.5957 327.02344 z M 383.88086 330.76953 C 384.25033 331.19949 384.61547 331.63226 384.98242 332.06445 C 384.61564 331.63247 384.25016 331.19928 383.88086 330.76953 z M 386.50586 333.87305 C 387.96521 335.6177 389.41433 337.37297 390.84961 339.14258 C 389.41442 337.37299 387.96519 335.61764 386.50586 333.87305 z M 330.91016 359.88281 C 322.53352 369.79296 314.13972 379.88228 305.62891 390.16602 C 296.84867 381.54816 288.98187 371.92529 282.2832 361.19336 L 270.23047 375.76953 L 304.79492 404.48633 C 294.37205 425.98968 278.46443 442.93857 259.92188 457.69727 L 274 469.39258 C 285.18401 448.52071 299.44934 430.20633 317.91992 415.38867 L 352.4043 444.03711 L 364.45703 429.46094 C 353.11708 424.29606 342.20173 418.3362 331.9668 411.47656 C 339.19203 402.7511 346.36945 394.129 353.47461 385.54688 L 330.91016 359.88281 z "
     style="color:#000000;font-style:normal;font-variant:normal;font-weight:normal;font-stretch:normal;font-size:medium;line-height:normal;font-family:sans-serif;font-variant-ligatures:normal;font-variant-position:normal;font-variant-caps:normal;font-variant-numeric:normal;font-variant-alternates:normal;font-variant-east-asian:normal;font-feature-settings:normal;font-variation-settings:normal;text-indent:0;text-align:start;text-decoration:none;text-decoration-line:none;text-decoration-style:solid;text-decoration-color:#000000;letter-spacing:normal;word-spacing:normal;text-transform:none;writing-mode:lr-tb;direction:ltr;text-orientation:mixed;dominant-baseline:auto;baseline-shift:baseline;text-anchor:start;white-space:normal;shape-padding:0;shape-margin:0;inline-size:0;clip-rule:nonzero;display:inline;overflow:visible;visibility:visible;isolation:auto;mix-blend-mode:normal;color-interpolation:sRGB;color-interpolation-filters:linearRGB;solid-color:#000000;solid-opacity:1;vector-effect:none;fill:#c86400;fill-opacity:1;fill-rule:nonzero;stroke:none;stroke-width:30;stroke-linecap:round;stroke-linejoin:round;stroke-miterlimit:4;stroke-dasharray:none;stroke-dashoffset:0;stroke-opacity:1;paint-order:stroke fill markers;color-rendering:auto;image-rendering:auto;shape-rendering:auto;text-rendering:auto;enable-background:accumulate;stop-color:#000000"
     id="path872" />
</svg>
