<?xml version="1.0" encoding="UTF-8" standalone="no"?>
<svg
   xmlns:dc="http://purl.org/dc/elements/1.1/"
   xmlns:cc="http://creativecommons.org/ns#"
   xmlns:rdf="http://www.w3.org/1999/02/22-rdf-syntax-ns#"
   xmlns:svg="http://www.w3.org/2000/svg"
   xmlns="http://www.w3.org/2000/svg"
   xmlns:xlink="http://www.w3.org/1999/xlink"
   xmlns:sodipodi="http://sodipodi.sourceforge.net/DTD/sodipodi-0.dtd"
   xmlns:inkscape="http://www.inkscape.org/namespaces/inkscape"
   viewBox="0 0 512 512"
   width="512"
   height="512"
   version="1.1"
   id="svg5"
   sodipodi:docname="liturgy_bwc.svg"
   inkscape:version="1.0 (4035a4fb49, 2020-05-01)">
  <title
     id="title862">Devine: Liturgy</title>
  <metadata
     id="metadata11">
    <rdf:RDF>
      <cc:Work
         rdf:about="">
        <dc:format>image/svg+xml</dc:format>
        <dc:type
           rdf:resource="http://purl.org/dc/dcmitype/StillImage" />
        <dc:title>Devine: Liturgy</dc:title>
        <cc:license
           rdf:resource="http://creativecommons.org/licenses/by-sa/4.0/" />
        <dc:date>2022.02.07</dc:date>
        <dc:creator>
          <cc:Agent>
            <dc:title>Streuner²</dc:title>
          </cc:Agent>
        </dc:creator>
        <dc:contributor>
          <cc:Agent>
            <dc:title>completely selfmade</dc:title>
          </cc:Agent>
        </dc:contributor>
      </cc:Work>
      <cc:License
         rdf:about="http://creativecommons.org/licenses/by-sa/4.0/">
        <cc:permits
           rdf:resource="http://creativecommons.org/ns#Reproduction" />
        <cc:permits
           rdf:resource="http://creativecommons.org/ns#Distribution" />
        <cc:requires
           rdf:resource="http://creativecommons.org/ns#Notice" />
        <cc:requires
           rdf:resource="http://creativecommons.org/ns#Attribution" />
        <cc:permits
           rdf:resource="http://creativecommons.org/ns#DerivativeWorks" />
        <cc:requires
           rdf:resource="http://creativecommons.org/ns#ShareAlike" />
      </cc:License>
    </rdf:RDF>
  </metadata>
  <defs
     id="defs9">
    <linearGradient
       id="linearGradient892"
       inkscape:collect="always">
      <stop
         id="stop888"
         offset="0"
         style="stop-color:#fde1fc;stop-opacity:1" />
      <stop
         id="stop890"
         offset="1"
         style="stop-color:#8e5d6f;stop-opacity:1" />
    </linearGradient>
    <linearGradient
       id="linearGradient856"
       inkscape:collect="always">
      <stop
         id="stop852"
         offset="0"
         style="stop-color:#8e5d6f;stop-opacity:1" />
      <stop
         style="stop-color:#8e5d6f;stop-opacity:1"
         offset="0.06481092"
         id="stop860" />
      <stop
         id="stop854"
         offset="1"
         style="stop-color:#fde1fc;stop-opacity:1" />
    </linearGradient>
    <radialGradient
       gradientUnits="userSpaceOnUse"
       gradientTransform="matrix(1,0,0,0.99977178,0,0.05842511)"
       r="183.43457"
       fy="256.00003"
       fx="256.00098"
       cy="256.00003"
       cx="256.00098"
       id="radialGradient894"
       xlink:href="#linearGradient892"
       inkscape:collect="always" />
    <radialGradient
       r="226.11719"
       fy="256"
       fx="256"
       cy="256"
       cx="256"
       gradientTransform="translate(0,-1.0302622e-4)"
       gradientUnits="userSpaceOnUse"
       id="radialGradient896"
       xlink:href="#linearGradient856"
       inkscape:collect="always" />
  </defs>
  <sodipodi:namedview
     guideopacity="0.49803922"
     guidecolor="#00ff00"
     inkscape:guide-bbox="true"
     showguides="true"
     inkscape:showpageshadow="false"
     borderlayer="false"
     inkscape:document-rotation="0"
     pagecolor="#323232"
     bordercolor="#666666"
     borderopacity="1"
     objecttolerance="10"
     gridtolerance="10"
     guidetolerance="10"
     inkscape:pageopacity="0.61960784"
     inkscape:pageshadow="2"
     inkscape:window-width="3840"
     inkscape:window-height="2066"
     id="namedview7"
     showgrid="false"
     inkscape:zoom="1.8732344"
     inkscape:cx="-4.9573158"
     inkscape:cy="180.0939"
     inkscape:window-x="-11"
     inkscape:window-y="-11"
     inkscape:window-maximized="1"
     inkscape:current-layer="svg5">
    <sodipodi:guide
       id="guide869"
       orientation="-1,0"
       position="256,256"
       inkscape:label=""
       inkscape:locked="false"
       inkscape:color="rgb(0,255,0)" />
    <sodipodi:guide
       id="guide905"
       orientation="0,1"
       position="256,256"
       inkscape:label=""
       inkscape:locked="false"
       inkscape:color="rgb(0,255,0)" />
  </sodipodi:namedview>
  <filter
     id="shadow">
    <feDropShadow
       dx="6"
       dy="12"
       stdDeviation="6" />
  </filter>
  <path
     sodipodi:nodetypes="cccccccccccccccccccccccccccccccccccccccccccccccc"
     d="m 231.69141,72.607328 c -16.21687,2.122885 -31.76603,6.344234 -46.37305,12.376953 l 35.45508,39.554689 z m 48.61718,0 10.91602,51.929692 35.45508,-39.554692 c -14.6063,-6.032079 -30.15525,-10.252256 -46.3711,-12.375 z M 143.24023,109.29288 c -12.7368,9.79543 -24.15728,21.20962 -33.95703,33.94141 l 50.48047,16.52734 z m 225.52149,0.002 -16.52344,50.4668 50.47852,-16.52734 c -9.79926,-12.73085 -21.21918,-24.14454 -33.95508,-33.93946 z m 58.2793,76.00391 -39.57813,35.47656 51.97266,10.92578 c -2.12499,-16.22669 -6.35191,-31.78667 -12.39453,-46.40234 z m -342.08008,0.002 c -6.0419,14.61461 -10.26959,30.17306 -12.39453,46.39844 l 51.96875,-10.92383 z m 354.47461,94.99805 -51.97266,10.92578 39.57813,35.47656 c 6.04262,-14.61567 10.26954,-30.17565 12.39453,-46.40234 z m -366.86914,0.002 c 2.12494,16.22538 6.35263,31.78383 12.39453,46.39844 l 39.57617,-35.47266 z m 87.19531,71.93555 -50.47852,16.52734 c 9.7994,12.73156 21.21874,24.14604 33.95508,33.94141 z m 192.47656,0.002 16.52344,50.4668 c 12.73631,-9.79523 24.15561,-21.21007 33.95508,-33.94141 z m -61.01367,35.22461 -10.91602,51.92969 c 16.21585,-2.12275 31.7648,-6.34292 46.3711,-12.375 z m -70.44922,0.002 -35.45508,39.55274 c 14.60634,6.0322 30.1551,10.25223 46.3711,12.375 z"
     style="color:#000000;font-style:normal;font-variant:normal;font-weight:normal;font-stretch:normal;font-size:medium;line-height:normal;font-family:sans-serif;font-variant-ligatures:normal;font-variant-position:normal;font-variant-caps:normal;font-variant-numeric:normal;font-variant-alternates:normal;font-variant-east-asian:normal;font-feature-settings:normal;font-variation-settings:normal;text-indent:0;text-align:start;text-decoration:none;text-decoration-line:none;text-decoration-style:solid;text-decoration-color:#000000;letter-spacing:normal;word-spacing:normal;text-transform:none;writing-mode:lr-tb;direction:ltr;text-orientation:mixed;dominant-baseline:auto;baseline-shift:baseline;text-anchor:start;white-space:normal;shape-padding:0;shape-margin:0;inline-size:0;clip-rule:nonzero;display:inline;overflow:visible;visibility:visible;isolation:auto;mix-blend-mode:normal;color-interpolation:sRGB;color-interpolation-filters:linearRGB;solid-color:#000000;solid-opacity:1;vector-effect:none;fill:url(#radialGradient894);fill-opacity:1;fill-rule:evenodd;stroke:none;stroke-width:15.0001;stroke-linecap:round;stroke-linejoin:round;stroke-miterlimit:4;stroke-dasharray:none;stroke-dashoffset:0;stroke-opacity:1;paint-order:normal;color-rendering:auto;image-rendering:auto;shape-rendering:auto;text-rendering:auto;enable-background:accumulate;stop-color:#000000"
     id="path841" />
  <path
     d="M 256 29.882812 L 231.34961 147.14258 C 239.28256 145.34838 247.53224 144.39648 256 144.39648 C 264.46892 144.39648 272.71758 145.34956 280.65039 147.14453 L 256 29.882812 z M 142.94141 60.177734 L 180.24219 174.10938 C 192.3098 162.94172 206.83728 154.39761 222.91602 149.40039 L 142.94141 60.177734 z M 369.05859 60.177734 L 289.08398 149.40039 C 305.16293 154.40028 319.68826 162.95183 331.75195 174.125 L 369.05859 60.177734 z M 60.177734 142.94141 L 149.38672 222.9043 C 154.3875 206.82734 162.93631 192.30482 174.10742 180.24219 L 60.177734 142.94141 z M 451.82227 142.94141 L 337.875 180.24805 C 349.04401 192.31566 357.58523 206.8483 362.58203 222.93164 L 451.82227 142.94141 z M 256 159.41797 C 202.52366 159.41797 159.35742 202.58306 159.35742 256 C 159.35742 309.41693 202.52366 352.58203 256 352.58203 C 309.47634 352.58203 352.64258 309.41693 352.64258 256 C 352.64258 202.58306 309.47634 159.41797 256 159.41797 z M 364.83398 231.3457 C 366.5761 239.04568 367.52909 247.04209 367.58398 255.25 A 7.4894396 7.5105449 0 0 1 367.62305 256 A 7.4894396 7.5105449 0 0 1 367.58398 256.76367 C 367.52808 264.9665 366.57507 272.9588 364.83398 280.6543 L 482.11719 256 L 364.83398 231.3457 z M 147.125 231.35352 L 29.882812 256 L 147.125 280.64648 C 145.3306 272.71483 144.37891 264.46776 144.37891 256 C 144.37891 247.5329 145.33087 239.28455 147.125 231.35352 z M 362.58203 289.06836 C 357.58504 305.15211 349.04438 319.68401 337.875 331.75195 L 451.82227 369.05859 L 362.58203 289.06836 z M 149.38672 289.0957 L 60.177734 369.05859 L 174.10742 331.75781 C 162.93672 319.69538 154.38757 305.1721 149.38672 289.0957 z M 331.75195 337.875 C 319.68825 349.04843 305.16292 357.59761 289.08398 362.59766 L 369.05859 451.82227 L 331.75195 337.875 z M 180.24219 337.89062 L 142.94141 451.82227 L 222.91406 362.60156 C 206.83603 357.60411 192.30936 349.05813 180.24219 337.89062 z M 231.34961 364.85742 L 256 482.11719 L 280.65039 364.85742 C 272.71757 366.65246 264.46892 367.60352 256 367.60352 C 247.53224 367.60352 239.28256 366.65168 231.34961 364.85742 z "
     style="color:#000000;font-style:normal;font-variant:normal;font-weight:normal;font-stretch:normal;font-size:medium;line-height:normal;font-family:sans-serif;font-variant-ligatures:normal;font-variant-position:normal;font-variant-caps:normal;font-variant-numeric:normal;font-variant-alternates:normal;font-variant-east-asian:normal;font-feature-settings:normal;font-variation-settings:normal;text-indent:0;text-align:start;text-decoration:none;text-decoration-line:none;text-decoration-style:solid;text-decoration-color:#000000;letter-spacing:normal;word-spacing:normal;text-transform:none;writing-mode:lr-tb;direction:ltr;text-orientation:mixed;dominant-baseline:auto;baseline-shift:baseline;text-anchor:start;white-space:normal;shape-padding:0;shape-margin:0;inline-size:0;clip-rule:nonzero;display:inline;overflow:visible;visibility:visible;isolation:auto;mix-blend-mode:normal;color-interpolation:sRGB;color-interpolation-filters:linearRGB;solid-color:#000000;solid-opacity:1;vector-effect:none;fill:url(#radialGradient896);fill-opacity:1;fill-rule:evenodd;stroke:none;stroke-width:30;stroke-linecap:round;stroke-linejoin:round;stroke-miterlimit:4;stroke-dasharray:none;stroke-dashoffset:0;stroke-opacity:1;paint-order:stroke fill markers;color-rendering:auto;image-rendering:auto;shape-rendering:auto;text-rendering:auto;enable-background:accumulate;stop-color:#000000"
     id="path886" />
  <path
     d="m 255.92969,14.890433 a 15.0015,15.0015 0 0 0 -14.60742,11.906249 l -6.3711,30.304687 C 213.733,59.325856 193.50053,64.87764 174.77734,73.22051 L 154.11133,50.163869 a 15.0015,15.0015 0 0 0 -15.13477,-4.449218 15.0015,15.0015 0 0 0 -10.29101,19.126953 l 9.65234,29.482422 C 121.48279,106.61796 106.6226,121.48045 94.32812,138.33575 L 64.8457,128.6834 a 15.0015,15.0015 0 0 0 -14.67969,25.42579 l 23.05664,20.66796 c -8.3415,18.72099 -13.89278,38.95228 -16.11718,60.16993 l -30.30664,6.37109 a 15.0015,15.0015 0 0 0 -0.002,29.35937 l 30.30859,6.3711 c 2.22457,21.21755 7.7756,41.44895 16.11719,60.16992 l -23.0586,20.66797 a 15.0015,15.0015 0 0 0 14.68164,25.42383 l 29.48047,-9.65235 c 12.29448,16.85581 27.15648,31.71735 44.01172,44.01172 l -9.65234,29.48242 a 15.0015,15.0015 0 0 0 25.42578,14.67969 l 20.66797,-23.05664 c 18.72216,8.34235 38.95307,13.89455 60.16992,16.11914 l 6.37109,30.30469 a 15.0015,15.0015 0 0 0 29.35938,0.002 l 6.37109,-30.30859 c 21.21606,-2.22486 41.44891,-7.77477 60.16992,-16.11719 l 20.66797,23.05664 A 15.0015,15.0015 0 0 0 383.3144,447.1522 l -9.65429,-29.48437 c 16.85386,-12.29452 31.71453,-27.15599 44.00781,-44.01172 l 29.48633,9.6543 a 15.0015,15.0015 0 0 0 14.67968,-25.42383 l -23.06445,-20.67383 c 8.34006,-18.72 13.89482,-38.94797 16.11914,-60.16406 l 30.3125,-6.3711 a 15.0015,15.0015 0 0 0 0,-29.35937 l -30.31055,-6.37109 c -2.22422,-21.2159 -7.77918,-41.4443 -16.11914,-60.16407 l 23.0625,-20.67187 A 15.0015,15.0015 0 0 0 447.1543,128.6834 l -29.48633,9.6543 C 405.37463,121.48268 390.51388,106.62187 373.66016,94.327932 l 9.65429,-29.486328 A 15.0015,15.0015 0 0 0 357.88867,50.163869 L 337.2207,73.222463 c -18.7216,-8.34261 -38.95321,-13.894304 -60.16992,-16.11914 l -6.37109,-30.308594 a 15.0015,15.0015 0 0 0 -14.75,-11.904296 z m 0.0703,14.992186 24.65039,117.261721 c -7.93281,-1.79497 -16.18147,-2.74805 -24.65039,-2.74805 -8.46776,0 -16.71744,0.9519 -24.65039,2.7461 z M 142.9414,60.177541 222.91601,149.4002 c -16.07874,4.99722 -30.60622,13.54133 -42.67383,24.70899 z m 226.11718,0 -37.30664,113.947269 C 319.68826,162.95164 305.16293,154.40009 289.08398,149.4002 Z M 231.69141,72.607229 220.77344,124.53887 185.31836,84.984182 c 14.60702,-6.032719 30.15618,-10.254068 46.37305,-12.376953 z m 48.61718,0 c 16.21585,2.122744 31.7648,6.342921 46.3711,12.375 l -35.45508,39.554691 z m -137.06836,36.685551 16.52344,50.46875 -50.48047,-16.52734 c 9.79975,-12.73179 21.22023,-24.14598 33.95703,-33.94141 z m 225.52149,0.002 c 12.7359,9.79492 24.15582,21.2086 33.95508,33.93946 l -50.47852,16.52734 z M 60.17773,142.94122 174.10742,180.242 c -11.17111,12.06263 -19.71992,26.58515 -24.7207,42.66211 z m 391.64454,0 -89.24024,79.99023 C 357.58523,206.84811 349.04401,192.31547 337.875,180.24786 Z M 256,159.41778 c 53.47634,0 96.64258,43.16509 96.64258,96.58203 0,53.41693 -43.16624,96.58203 -96.64258,96.58203 -53.47634,0 -96.64258,-43.1651 -96.64258,-96.58203 0,-53.41694 43.16624,-96.58203 96.64258,-96.58203 z m 171.04102,25.88086 c 6.04262,14.61567 10.26954,30.17565 12.39453,46.40234 L 387.46289,220.7752 Z m -342.08008,0.002 39.57422,35.47461 -51.96876,10.92383 c 2.12494,-16.22538 6.35264,-31.78383 12.39454,-46.39844 z m 279.87304,46.04487 117.28321,24.6543 -117.28321,24.6543 c 1.74109,-7.6955 2.6941,-15.6878 2.75,-23.89063 a 7.4894396,7.5105449 0 0 0 0.0391,-0.76367 7.4894396,7.5105449 0 0 0 -0.0391,-0.75 c -0.0549,-8.20791 -1.00788,-16.20432 -2.75,-23.9043 z m -217.70898,0.008 c -1.79413,7.93103 -2.74609,16.17938 -2.74609,24.64648 0,8.46776 0.95169,16.71483 2.74609,24.64648 L 29.88281,255.99981 Z m 292.31055,48.94531 c -2.12499,16.22669 -6.35191,31.78667 -12.39453,46.40234 L 387.46289,291.2246 Z m -366.86915,0.002 51.97071,10.92578 -39.57617,35.47266 C 78.91904,312.08465 74.69134,296.5262 72.5664,280.30082 Z m 290.01563,8.76758 89.24024,79.99023 L 337.875,331.75176 c 11.16938,-12.06794 19.71004,-26.59984 24.70703,-42.68359 z m -213.19531,0.0273 c 5.00085,16.0764 13.55,30.59968 24.7207,42.66211 L 60.17773,369.0584 Z m 182.36523,48.7793 37.30664,113.94727 -79.97461,-89.22461 c 16.07894,-5.00005 30.60427,-13.54923 42.66797,-24.72266 z m -151.50976,0.0156 c 12.06717,11.16751 26.59384,19.71349 42.67187,24.71094 l -79.97265,89.22071 z m -20.48047,14.34571 -16.52344,50.46875 C 130.50194,392.90952 119.0826,381.49504 109.2832,368.76348 Z m 192.47656,0.002 50.47852,16.52539 c -9.79947,12.73134 -21.21877,24.14618 -33.95508,33.94141 z m -120.88867,12.61914 c 7.93295,1.79426 16.18263,2.7461 24.65039,2.7461 8.46892,0 16.71757,-0.95106 24.65039,-2.7461 L 256,482.117 Z m 59.875,22.60547 35.45508,39.55469 c -14.6063,6.03208 -30.15525,10.25225 -46.3711,12.375 z m -70.44922,0.002 10.91602,51.92774 c -16.216,-2.12277 -31.76476,-6.3428 -46.3711,-12.375 z"
     style="color:#000000;font-style:normal;font-variant:normal;font-weight:normal;font-stretch:normal;font-size:medium;line-height:normal;font-family:sans-serif;font-variant-ligatures:normal;font-variant-position:normal;font-variant-caps:normal;font-variant-numeric:normal;font-variant-alternates:normal;font-variant-east-asian:normal;font-feature-settings:normal;font-variation-settings:normal;text-indent:0;text-align:start;text-decoration:none;text-decoration-line:none;text-decoration-style:solid;text-decoration-color:#000000;letter-spacing:normal;word-spacing:normal;text-transform:none;writing-mode:lr-tb;direction:ltr;text-orientation:mixed;dominant-baseline:auto;baseline-shift:baseline;text-anchor:start;white-space:normal;shape-padding:0;shape-margin:0;inline-size:0;clip-rule:nonzero;display:inline;overflow:visible;visibility:visible;isolation:auto;mix-blend-mode:normal;color-interpolation:sRGB;color-interpolation-filters:linearRGB;solid-color:#000000;solid-opacity:1;vector-effect:none;fill:#000100;fill-opacity:1;fill-rule:evenodd;stroke:none;stroke-width:15.0001;stroke-linecap:round;stroke-linejoin:round;stroke-miterlimit:4;stroke-dasharray:none;stroke-dashoffset:0;stroke-opacity:1;paint-order:normal;color-rendering:auto;image-rendering:auto;shape-rendering:auto;text-rendering:auto;enable-background:accumulate;stop-color:#000000"
     id="path843" />
</svg>
