<?xml version="1.0" encoding="UTF-8" standalone="no"?>
<svg
   xmlns:dc="http://purl.org/dc/elements/1.1/"
   xmlns:cc="http://creativecommons.org/ns#"
   xmlns:rdf="http://www.w3.org/1999/02/22-rdf-syntax-ns#"
   xmlns:svg="http://www.w3.org/2000/svg"
   xmlns="http://www.w3.org/2000/svg"
   xmlns:xlink="http://www.w3.org/1999/xlink"
   xmlns:sodipodi="http://sodipodi.sourceforge.net/DTD/sodipodi-0.dtd"
   xmlns:inkscape="http://www.inkscape.org/namespaces/inkscape"
   viewBox="0 0 512 512"
   width="512"
   height="512"
   version="1.1"
   id="svg5"
   sodipodi:docname="karmal-talent_bwc.svg"
   inkscape:version="1.0 (4035a4fb49, 2020-05-01)">
  <title
     id="title849">Devine: Miracle</title>
  <metadata
     id="metadata11">
    <rdf:RDF>
      <cc:Work
         rdf:about="">
        <dc:format>image/svg+xml</dc:format>
        <dc:type
           rdf:resource="http://purl.org/dc/dcmitype/StillImage" />
        <dc:title>Devine: Miracle</dc:title>
        <cc:license
           rdf:resource="http://creativecommons.org/licenses/by-sa/4.0/" />
        <dc:date>2022.02.08</dc:date>
        <dc:creator>
          <cc:Agent>
            <dc:title>Streuner²</dc:title>
          </cc:Agent>
        </dc:creator>
        <dc:contributor>
          <cc:Agent>
            <dc:title>completely selfmade</dc:title>
          </cc:Agent>
        </dc:contributor>
      </cc:Work>
      <cc:License
         rdf:about="http://creativecommons.org/licenses/by-sa/4.0/">
        <cc:permits
           rdf:resource="http://creativecommons.org/ns#Reproduction" />
        <cc:permits
           rdf:resource="http://creativecommons.org/ns#Distribution" />
        <cc:requires
           rdf:resource="http://creativecommons.org/ns#Notice" />
        <cc:requires
           rdf:resource="http://creativecommons.org/ns#Attribution" />
        <cc:permits
           rdf:resource="http://creativecommons.org/ns#DerivativeWorks" />
        <cc:requires
           rdf:resource="http://creativecommons.org/ns#ShareAlike" />
      </cc:License>
    </rdf:RDF>
  </metadata>
  <defs
     id="defs9">
    <linearGradient
       id="linearGradient861"
       inkscape:collect="always">
      <stop
         id="stop857"
         offset="0"
         style="stop-color:#fde1fc;stop-opacity:1" />
      <stop
         id="stop859"
         offset="1"
         style="stop-color:#8e5d6f;stop-opacity:1" />
    </linearGradient>
    <linearGradient
       id="linearGradient851"
       inkscape:collect="always">
      <stop
         id="stop847"
         offset="0"
         style="stop-color:#8e5d6f;stop-opacity:1" />
      <stop
         style="stop-color:#8e5d6f;stop-opacity:1"
         offset="0.14260253"
         id="stop855" />
      <stop
         id="stop849"
         offset="1"
         style="stop-color:#fde1fc;stop-opacity:1" />
    </linearGradient>
    <radialGradient
       gradientUnits="userSpaceOnUse"
       r="110.00586"
       fy="358.49609"
       fx="359.59961"
       cy="358.49609"
       cx="359.59961"
       id="radialGradient853"
       xlink:href="#linearGradient851"
       inkscape:collect="always" />
    <radialGradient
       gradientUnits="userSpaceOnUse"
       gradientTransform="matrix(1,0,0,0.99989375,0,0.02720028)"
       r="185.00989"
       fy="256"
       fx="256.00012"
       cy="256"
       cx="256.00012"
       id="radialGradient863"
       xlink:href="#linearGradient861"
       inkscape:collect="always" />
  </defs>
  <sodipodi:namedview
     guideopacity="0.49803922"
     guidecolor="#00ff00"
     inkscape:guide-bbox="true"
     showguides="true"
     inkscape:showpageshadow="false"
     borderlayer="false"
     inkscape:document-rotation="0"
     pagecolor="#323232"
     bordercolor="#666666"
     borderopacity="1"
     objecttolerance="10"
     gridtolerance="10"
     guidetolerance="10"
     inkscape:pageopacity="0.61960784"
     inkscape:pageshadow="2"
     inkscape:window-width="3840"
     inkscape:window-height="2066"
     id="namedview7"
     showgrid="false"
     inkscape:zoom="1.3245767"
     inkscape:cx="-262.83312"
     inkscape:cy="140.63489"
     inkscape:window-x="-11"
     inkscape:window-y="-11"
     inkscape:window-maximized="1"
     inkscape:current-layer="svg5">
    <sodipodi:guide
       id="guide869"
       orientation="-1,0"
       position="256,256"
       inkscape:label=""
       inkscape:locked="false"
       inkscape:color="rgb(0,255,0)" />
    <sodipodi:guide
       id="guide905"
       orientation="0,1"
       position="256,256"
       inkscape:label=""
       inkscape:locked="false"
       inkscape:color="rgb(0,255,0)" />
  </sodipodi:namedview>
  <filter
     id="shadow">
    <feDropShadow
       dx="6"
       dy="12"
       stdDeviation="6" />
  </filter>
  <g
     style="fill-opacity:1;fill:url(#radialGradient853)"
     id="g845">
    <path
       id="path836"
       style="color:#000000;font-style:normal;font-variant:normal;font-weight:normal;font-stretch:normal;font-size:medium;line-height:normal;font-family:sans-serif;font-variant-ligatures:normal;font-variant-position:normal;font-variant-caps:normal;font-variant-numeric:normal;font-variant-alternates:normal;font-variant-east-asian:normal;font-feature-settings:normal;font-variation-settings:normal;text-indent:0;text-align:start;text-decoration:none;text-decoration-line:none;text-decoration-style:solid;text-decoration-color:#000000;letter-spacing:normal;word-spacing:normal;text-transform:none;writing-mode:lr-tb;direction:ltr;text-orientation:mixed;dominant-baseline:auto;baseline-shift:baseline;text-anchor:start;white-space:normal;shape-padding:0;shape-margin:0;inline-size:0;clip-rule:nonzero;display:inline;overflow:visible;visibility:visible;isolation:auto;mix-blend-mode:normal;color-interpolation:sRGB;color-interpolation-filters:linearRGB;solid-color:#000000;solid-opacity:1;vector-effect:none;fill:url(#radialGradient853);fill-opacity:1;fill-rule:evenodd;stroke:none;stroke-width:30;stroke-linecap:round;stroke-linejoin:round;stroke-miterlimit:4;stroke-dasharray:none;stroke-dashoffset:0;stroke-opacity:1;paint-order:stroke fill markers;color-rendering:auto;image-rendering:auto;shape-rendering:auto;text-rendering:auto;enable-background:accumulate;stop-color:#000000"
       d="M 359.59961 248.49023 L 346.64062 310.13281 L 304.59766 263.22852 L 324.19727 323.0918 L 264.33203 303.49219 L 311.23828 345.53711 L 249.59375 358.49609 L 311.23828 371.45312 L 264.33203 413.49805 L 324.19727 393.89844 L 311.55273 432.51758 L 305.92969 449.69531 L 304.59961 453.75977 L 329.7168 425.73828 C 329.7178 425.7377 329.7197 425.73733 329.7207 425.73633 L 346.64062 406.85742 L 348.60742 416.2168 L 348.60938 416.2168 L 351.83008 431.5332 L 351.82812 431.53516 L 359.59961 468.50195 L 369.69336 420.48633 L 372.55859 406.85742 L 378.78906 413.80859 L 414.59961 453.75977 L 395.00195 393.90039 L 395.00195 393.89844 L 395.00391 393.89844 L 399.38867 395.33398 L 454.86328 413.49609 L 414.76172 377.55078 L 407.96289 371.45508 L 407.96094 371.45312 L 469.60547 358.49609 L 432.18945 350.63086 L 416.9082 347.41992 C 416.9082 347.41992 416.9082 347.41797 416.9082 347.41797 L 407.96094 345.53711 L 425.8418 329.50977 L 432.85547 323.22266 L 448.91992 308.82227 L 454.86328 303.49609 L 449.90039 305.11914 L 432.79492 310.7207 C 432.79492 310.7207 432.79492 310.71875 432.79492 310.71875 L 395.00195 323.0918 L 414.60352 263.22852 L 372.55859 310.13281 L 359.59961 248.49023 z M 359.59961 309.69531 C 386.22207 309.69531 407.98032 331.23822 408.37891 357.76367 A 7.5 7.5 0 0 1 408.41602 358.49609 A 7.5 7.5 0 0 1 408.37695 359.24805 C 407.96769 385.7643 386.21536 407.29492 359.59961 407.29492 C 332.73 407.29492 310.78516 385.35989 310.78516 358.49609 C 310.78516 331.63229 332.73 309.69532 359.59961 309.69531 z " />
    <path
       style="color:#000000;font-style:normal;font-variant:normal;font-weight:normal;font-stretch:normal;font-size:medium;line-height:normal;font-family:sans-serif;font-variant-ligatures:normal;font-variant-position:normal;font-variant-caps:normal;font-variant-numeric:normal;font-variant-alternates:normal;font-variant-east-asian:normal;font-feature-settings:normal;font-variation-settings:normal;text-indent:0;text-align:start;text-decoration:none;text-decoration-line:none;text-decoration-style:solid;text-decoration-color:#000000;letter-spacing:normal;word-spacing:normal;text-transform:none;writing-mode:lr-tb;direction:ltr;text-orientation:mixed;dominant-baseline:auto;baseline-shift:baseline;text-anchor:start;white-space:normal;shape-padding:0;shape-margin:0;inline-size:0;clip-rule:nonzero;display:inline;overflow:visible;visibility:visible;isolation:auto;mix-blend-mode:normal;color-interpolation:sRGB;color-interpolation-filters:linearRGB;solid-color:#000000;solid-opacity:1;vector-effect:none;fill:url(#radialGradient853);fill-opacity:1;fill-rule:evenodd;stroke:none;stroke-width:30;stroke-linecap:round;stroke-linejoin:round;stroke-miterlimit:4;stroke-dasharray:none;stroke-dashoffset:0;stroke-opacity:1;paint-order:stroke fill markers;color-rendering:auto;image-rendering:auto;shape-rendering:auto;text-rendering:auto;enable-background:accumulate;stop-color:#000000"
       d="m 359.59961,324.69531 c -18.76621,10e-6 -33.81445,15.04679 -33.81445,33.80078 0,18.754 15.04824,33.79883 33.81445,33.79883 18.76621,0 33.81641,-15.04483 33.81641,-33.79883 0,-18.754 -15.0502,-33.80078 -33.81641,-33.80078 z"
       id="path840" />
  </g>
  <path
     id="path925"
     d="M 256,71.009766 C 155.3302,71.009764 73.580879,151.17891 71.050781,251.2207 c -0.04016,1.58797 -0.06055,3.18156 -0.06055,4.7793 0,49.52987 19.413094,94.47973 51.054686,127.66602 1.0207,1.07052 2.05371,2.12998 3.09961,3.17578 33.46898,33.46565 79.7216,54.14844 130.85547,54.14843 1.4764,0 2.94801,-0.0242 4.41602,-0.0586 0.41908,-0.01 0.83747,-0.0226 1.25586,-0.0352 1.09963,-0.0331 2.19634,-0.0766 3.29101,-0.1289 0.41875,-0.0199 0.83785,-0.0359 1.25586,-0.0586 1.44498,-0.0787 2.88639,-0.1715 4.32227,-0.2832 0.15733,-0.0122 0.31347,-0.0284 0.4707,-0.041 1.31795,-0.1059 2.63146,-0.22604 3.9414,-0.35938 0.35774,-0.0364 0.71515,-0.0749 1.07227,-0.11328 1.2735,-0.1371 2.54302,-0.28451 3.80859,-0.44727 0.17236,-0.0221 0.34538,-0.0418 0.51758,-0.0644 1.53715,-0.20208 3.06878,-0.42264 4.59375,-0.66211 1.48008,-0.23242 2.9537,-0.48479 4.42188,-0.75195 0.18499,-0.0337 0.36988,-0.0674 0.55469,-0.10156 1.46329,-0.27089 2.92206,-0.55638 4.37304,-0.86133 l 6.43555,-19.65821 -31.73242,10.38868 a 15.001488,15.001488 0 0 1 -14.67774,-25.42579 l 24.86133,-22.28515 -32.67383,-6.86914 a 15.001488,15.001488 0 0 1 0,-29.35742 l 32.67383,-6.86914 -24.86133,-22.28516 A 15.001488,15.001488 0 0 1 269,289.23633 l 31.73047,10.39062 -10.38867,-31.73242 a 15.001488,15.001488 0 0 1 10.3164,-19.13476 15.001488,15.001488 0 0 1 15.10742,4.45703 l 22.28711,24.86328 6.86915,-32.67578 a 15.001488,15.001488 0 0 1 14.60742,-11.90821 15.001488,15.001488 0 0 1 14.75,11.90821 l 6.86718,32.67382 22.28711,-24.86328 a 15.001488,15.001488 0 0 1 25.42383,14.67969 l -10.38867,31.73242 18.73828,-6.13672 c 0.30866,-1.50154 0.59883,-3.00882 0.87109,-4.52343 0.002,-0.0117 0.004,-0.0235 0.006,-0.0352 0.002,-0.01 0.004,-0.0195 0.006,-0.0293 0.5404,-3.01236 1.00712,-6.05203 1.40039,-9.11328 0.0125,-0.0975 0.0248,-0.19538 0.0371,-0.29297 0.17384,-1.37038 0.33087,-2.74538 0.47461,-4.125 0.0213,-0.20501 0.0419,-0.41002 0.0625,-0.61523 0.14874,-1.47513 0.28455,-2.95423 0.39844,-4.43945 0.11106,-1.44822 0.2018,-2.90194 0.2793,-4.35938 0.0199,-0.37636 0.035,-0.7539 0.0527,-1.13086 0.0501,-1.06446 0.091,-2.13203 0.12305,-3.20117 0.0132,-0.44246 0.027,-0.88488 0.0371,-1.32812 0.0327,-1.42887 0.0547,-2.86009 0.0547,-4.29688 C 441.00976,153.7448 358.26773,71.009766 256,71.009766 Z"
     style="color:#000000;font-style:normal;font-variant:normal;font-weight:normal;font-stretch:normal;font-size:medium;line-height:normal;font-family:sans-serif;font-variant-ligatures:normal;font-variant-position:normal;font-variant-caps:normal;font-variant-numeric:normal;font-variant-alternates:normal;font-variant-east-asian:normal;font-feature-settings:normal;font-variation-settings:normal;text-indent:0;text-align:start;text-decoration:none;text-decoration-line:none;text-decoration-style:solid;text-decoration-color:#000000;letter-spacing:normal;word-spacing:normal;text-transform:none;writing-mode:lr-tb;direction:ltr;text-orientation:mixed;dominant-baseline:auto;baseline-shift:baseline;text-anchor:start;white-space:normal;shape-padding:0;shape-margin:0;inline-size:0;clip-rule:nonzero;display:inline;overflow:visible;visibility:visible;isolation:auto;mix-blend-mode:normal;color-interpolation:sRGB;color-interpolation-filters:linearRGB;solid-color:#000000;solid-opacity:1;vector-effect:none;fill:url(#radialGradient863);fill-opacity:1;fill-rule:evenodd;stroke:none;stroke-width:30;stroke-linecap:round;stroke-linejoin:round;stroke-miterlimit:4;stroke-dasharray:none;stroke-dashoffset:0;stroke-opacity:1;paint-order:stroke fill markers;color-rendering:auto;image-rendering:auto;shape-rendering:auto;text-rendering:auto;enable-background:accumulate;stop-color:#000000" />
  <path
     d="M 255.99999,56.009772 C 145.62649,56.009762 55.99023,145.63725 55.99022,256 c 0,110.36275 89.63627,199.99024 200.00977,199.99023 11.45518,0 22.68021,-0.98611 33.61133,-2.83984 a 15.001488,15.001488 0 0 0 26.15625,10.625 l 22.28515,-24.86328 6.86719,32.67578 a 15.001488,15.001488 0 0 0 29.35938,0 l 6.86718,-32.67578 22.28711,24.86328 a 15.001488,15.001488 0 0 0 25.42383,-14.67969 l -10.38867,-31.73047 31.73242,10.38868 a 15.001488,15.001488 0 0 0 14.67774,-25.42579 l -24.86329,-22.28515 32.67579,-6.86914 a 15.001488,15.001488 0 0 0 0,-29.35742 l -32.67579,-6.86914 24.86329,-22.28516 a 15.001488,15.001488 0 0 0 -11.54688,-26.08789 c 1.72433,-10.48366 2.64767,-21.2357 2.66797,-32.19922 a 7.5000501,7.5000501 0 0 0 0.01,-0.33789 7.5000501,7.5000501 0 0 0 0,-0.0371 7.5000501,7.5000501 0 0 0 -0.01,-0.38086 c -0.20717,-110.18698 -89.75425,-199.609368 -200,-199.609368 z m 0,15 c 102.26773,0 185.00976,82.735028 185.00977,184.990228 0,12.84753 -1.31441,25.38493 -3.80274,37.49023 l -18.73828,6.13672 10.38867,-31.73242 a 15.001488,15.001488 0 0 0 -25.42383,-14.67969 l -22.28711,24.86328 -6.86718,-32.67382 a 15.001488,15.001488 0 0 0 -14.75,-11.90821 15.001488,15.001488 0 0 0 -14.60742,11.90821 l -6.86915,32.67578 -22.28711,-24.86328 a 15.001488,15.001488 0 0 0 -15.10742,-4.45703 15.001488,15.001488 0 0 0 -10.3164,19.13476 l 10.38867,31.73242 -31.73047,-10.39062 a 15.001488,15.001488 0 0 0 -14.67969,25.42578 l 24.86133,22.28516 -32.67383,6.86914 a 15.001488,15.001488 0 0 0 0,29.35742 l 32.67383,6.86914 -24.86133,22.28515 a 15.001488,15.001488 0 0 0 14.67774,25.42579 l 31.73242,-10.38868 -6.43555,19.65821 c -12.35405,2.59642 -25.16206,3.96679 -38.29492,3.96679 C 153.73225,440.99024 70.99022,358.25521 70.99022,256 70.99023,153.7448 153.73226,71.009762 255.99999,71.009772 Z m 103.59961,177.480458 12.95898,61.64258 42.04493,-46.90429 -19.60157,59.86328 37.79297,-12.37305 17.10547,-5.59961 4.9668,-1.62695 -5.94727,5.33008 -16.06445,14.40039 -7.01367,6.28711 -17.88086,16.02734 8.94726,1.88086 15.28125,3.21289 37.41602,7.86523 -61.64453,12.95703 0.002,0.002 6.79883,6.0957 40.10547,35.94727 -55.47852,-18.16407 -4.38476,-1.43554 h -0.002 l 1.44336,4.40429 18.15821,55.46094 -35.81446,-39.95508 -6.23047,-6.95117 -2.86523,13.62891 -10.09375,48.01562 -7.77149,-36.96679 c 7.8e-4,-4.3e-4 10e-4,-0.002 0.002,-0.002 l -3.2207,-15.3164 c -5e-4,2.8e-4 -10e-4,-2.9e-4 -0.002,0 l -1.9668,-9.35938 -16.91992,18.87891 -20.73437,23.13281 -4.38867,4.89453 1.33203,-4.06836 5.62304,-17.17773 12.64454,-38.61914 -59.86524,19.59961 46.90625,-42.04493 -61.64453,-12.95703 61.64453,-12.95898 -46.90625,-42.04492 59.86524,19.59961 -19.59961,-59.86328 42.04296,46.90429 z m 0,61.20508 c -26.86961,10e-6 -48.81445,21.93698 -48.81445,48.80078 0,26.8638 21.94484,48.79883 48.81445,48.79883 26.61575,0 48.36808,-21.53062 48.77734,-48.04687 a 7.5,7.5 0 0 0 0.0391,-0.75196 7.5,7.5 0 0 0 -0.0371,-0.73242 c -0.39859,-26.52545 -22.15684,-48.06836 -48.7793,-48.06836 z m 0,15 c 18.76621,0 33.81641,15.04678 33.81641,33.80078 0,18.754 -15.0502,33.79883 -33.81641,33.79883 -18.76621,0 -33.81445,-15.04483 -33.81445,-33.79883 0,-18.75399 15.04824,-33.80077 33.81445,-33.80078 z"
     style="color:#000000;font-style:normal;font-variant:normal;font-weight:normal;font-stretch:normal;font-size:medium;line-height:normal;font-family:sans-serif;font-variant-ligatures:normal;font-variant-position:normal;font-variant-caps:normal;font-variant-numeric:normal;font-variant-alternates:normal;font-variant-east-asian:normal;font-feature-settings:normal;font-variation-settings:normal;text-indent:0;text-align:start;text-decoration:none;text-decoration-line:none;text-decoration-style:solid;text-decoration-color:#000000;letter-spacing:normal;word-spacing:normal;text-transform:none;writing-mode:lr-tb;direction:ltr;text-orientation:mixed;dominant-baseline:auto;baseline-shift:baseline;text-anchor:start;white-space:normal;shape-padding:0;shape-margin:0;inline-size:0;clip-rule:nonzero;display:inline;overflow:visible;visibility:visible;isolation:auto;mix-blend-mode:normal;color-interpolation:sRGB;color-interpolation-filters:linearRGB;solid-color:#000000;solid-opacity:1;vector-effect:none;fill:#000100;fill-opacity:1;fill-rule:evenodd;stroke:none;stroke-width:30;stroke-linecap:round;stroke-linejoin:round;stroke-miterlimit:4;stroke-dasharray:none;stroke-dashoffset:0;stroke-opacity:1;paint-order:stroke fill markers;color-rendering:auto;image-rendering:auto;shape-rendering:auto;text-rendering:auto;enable-background:accumulate;stop-color:#000000"
     id="path943" />
</svg>
