<?xml version="1.0" encoding="UTF-8" standalone="no"?>
<svg
   xmlns:dc="http://purl.org/dc/elements/1.1/"
   xmlns:cc="http://creativecommons.org/ns#"
   xmlns:rdf="http://www.w3.org/1999/02/22-rdf-syntax-ns#"
   xmlns:svg="http://www.w3.org/2000/svg"
   xmlns="http://www.w3.org/2000/svg"
   xmlns:sodipodi="http://sodipodi.sourceforge.net/DTD/sodipodi-0.dtd"
   xmlns:inkscape="http://www.inkscape.org/namespaces/inkscape"
   viewBox="0 0 512 512"
   width="512"
   height="512"
   version="1.1"
   id="svg5"
   sodipodi:docname="miracle_bw.svg"
   inkscape:version="1.0 (4035a4fb49, 2020-05-01)">
  <title
     id="title849">Devine: Miracle</title>
  <metadata
     id="metadata11">
    <rdf:RDF>
      <cc:Work
         rdf:about="">
        <dc:format>image/svg+xml</dc:format>
        <dc:type
           rdf:resource="http://purl.org/dc/dcmitype/StillImage" />
        <dc:title>Devine: Miracle</dc:title>
        <cc:license
           rdf:resource="http://creativecommons.org/licenses/by-sa/4.0/" />
        <dc:date>2022.02.08</dc:date>
        <dc:creator>
          <cc:Agent>
            <dc:title>Streuner²</dc:title>
          </cc:Agent>
        </dc:creator>
        <dc:contributor>
          <cc:Agent>
            <dc:title>completely selfmade</dc:title>
          </cc:Agent>
        </dc:contributor>
      </cc:Work>
      <cc:License
         rdf:about="http://creativecommons.org/licenses/by-sa/4.0/">
        <cc:permits
           rdf:resource="http://creativecommons.org/ns#Reproduction" />
        <cc:permits
           rdf:resource="http://creativecommons.org/ns#Distribution" />
        <cc:requires
           rdf:resource="http://creativecommons.org/ns#Notice" />
        <cc:requires
           rdf:resource="http://creativecommons.org/ns#Attribution" />
        <cc:permits
           rdf:resource="http://creativecommons.org/ns#DerivativeWorks" />
        <cc:requires
           rdf:resource="http://creativecommons.org/ns#ShareAlike" />
      </cc:License>
    </rdf:RDF>
  </metadata>
  <defs
     id="defs9" />
  <sodipodi:namedview
     guideopacity="0.49803922"
     guidecolor="#00ff00"
     inkscape:guide-bbox="true"
     showguides="true"
     inkscape:showpageshadow="false"
     borderlayer="false"
     inkscape:document-rotation="0"
     pagecolor="#323232"
     bordercolor="#666666"
     borderopacity="1"
     objecttolerance="10"
     gridtolerance="10"
     guidetolerance="10"
     inkscape:pageopacity="0.61960784"
     inkscape:pageshadow="2"
     inkscape:window-width="3840"
     inkscape:window-height="2066"
     id="namedview7"
     showgrid="false"
     inkscape:zoom="1.8732344"
     inkscape:cx="-4.9573158"
     inkscape:cy="214.69317"
     inkscape:window-x="-11"
     inkscape:window-y="-11"
     inkscape:window-maximized="1"
     inkscape:current-layer="svg5">
    <sodipodi:guide
       id="guide869"
       orientation="-1,0"
       position="256,256"
       inkscape:label=""
       inkscape:locked="false"
       inkscape:color="rgb(0,255,0)" />
    <sodipodi:guide
       id="guide905"
       orientation="0,1"
       position="256,256"
       inkscape:label=""
       inkscape:locked="false"
       inkscape:color="rgb(0,255,0)" />
  </sodipodi:namedview>
  <filter
     id="shadow">
    <feDropShadow
       dx="6"
       dy="12"
       stdDeviation="6" />
  </filter>
  <path
     d="M 256 71.009766 C 155.3302 71.009764 73.580879 151.17891 71.050781 251.2207 C 71.010621 252.80867 70.990234 254.40226 70.990234 256 C 70.990234 305.52987 90.403328 350.47973 122.04492 383.66602 C 123.06562 384.73654 124.09863 385.796 125.14453 386.8418 C 158.61351 420.30745 204.86613 440.99024 256 440.99023 C 257.4764 440.99023 258.94801 440.96607 260.41602 440.93164 C 260.8351 440.92183 261.25349 440.90907 261.67188 440.89648 C 262.77151 440.86333 263.86822 440.81985 264.96289 440.76758 C 265.38164 440.74763 265.80074 440.73171 266.21875 440.70898 C 267.66373 440.63025 269.10514 440.53748 270.54102 440.42578 C 270.69835 440.41357 270.85449 440.39737 271.01172 440.38477 C 272.32967 440.27887 273.64318 440.15873 274.95312 440.02539 C 275.31086 439.98904 275.66827 439.95049 276.02539 439.91211 C 277.29889 439.77501 278.56841 439.6276 279.83398 439.46484 C 280.00634 439.44271 280.17936 439.423 280.35156 439.40039 C 281.88871 439.19831 283.42034 438.97775 284.94531 438.73828 C 286.42539 438.50586 287.89901 438.25349 289.36719 437.98633 C 289.55218 437.95268 289.73707 437.91896 289.92188 437.88477 C 291.38517 437.61388 292.84394 437.32839 294.29492 437.02344 L 300.73047 417.36523 L 268.99805 427.75391 A 15.001488 15.001488 0 0 1 254.32031 402.32812 L 279.18164 380.04297 L 246.50781 373.17383 A 15.001488 15.001488 0 0 1 246.50781 343.81641 L 279.18164 336.94727 L 254.32031 314.66211 A 15.001488 15.001488 0 0 1 269 289.23633 L 300.73047 299.62695 L 290.3418 267.89453 A 15.001488 15.001488 0 0 1 300.6582 248.75977 A 15.001488 15.001488 0 0 1 315.76562 253.2168 L 338.05273 278.08008 L 344.92188 245.4043 A 15.001488 15.001488 0 0 1 359.5293 233.49609 A 15.001488 15.001488 0 0 1 374.2793 245.4043 L 381.14648 278.07812 L 403.43359 253.21484 A 15.001488 15.001488 0 0 1 428.85742 267.89453 L 418.46875 299.62695 L 437.20703 293.49023 C 437.51569 291.98869 437.80586 290.48141 438.07812 288.9668 C 438.08023 288.9551 438.08189 288.94334 438.08398 288.93164 C 438.08574 288.92187 438.08809 288.91212 438.08984 288.90234 C 438.63024 285.88998 439.09696 282.85031 439.49023 279.78906 C 439.50274 279.69152 439.51499 279.59368 439.52734 279.49609 C 439.70118 278.12571 439.85821 276.75071 440.00195 275.37109 C 440.02326 275.16608 440.04381 274.96107 440.06445 274.75586 C 440.21319 273.28073 440.349 271.80163 440.46289 270.31641 C 440.57395 268.86819 440.66469 267.41447 440.74219 265.95703 C 440.76213 265.58067 440.77723 265.20313 440.79492 264.82617 C 440.84506 263.76171 440.88593 262.69414 440.91797 261.625 C 440.93117 261.18254 440.94498 260.74012 440.95508 260.29688 C 440.98776 258.86801 441.00977 257.43679 441.00977 256 C 441.00976 153.7448 358.26773 71.009766 256 71.009766 z M 359.59961 248.49023 L 346.64062 310.13281 L 304.59766 263.22852 L 324.19727 323.0918 L 264.33203 303.49219 L 311.23828 345.53711 L 249.59375 358.49609 L 311.23828 371.45312 L 264.33203 413.49805 L 324.19727 393.89844 L 311.55273 432.51758 L 305.92969 449.69531 L 304.59961 453.75977 L 329.7168 425.73828 C 329.71813 425.7377 329.71937 425.73691 329.7207 425.73633 L 346.64062 406.85742 L 348.60742 416.2168 C 348.60742 416.2168 348.60938 416.2168 348.60938 416.2168 L 351.83008 431.5332 C 351.83008 431.5332 351.82812 431.53516 351.82812 431.53516 L 359.59961 468.50195 L 369.69336 420.48633 L 372.55859 406.85742 L 378.78906 413.80859 L 414.59961 453.75977 L 395.00195 393.90039 L 395.00195 393.89844 L 395.00391 393.89844 L 399.38867 395.33398 L 454.86328 413.49609 L 414.76172 377.55078 L 407.96289 371.45508 L 407.96094 371.45312 L 469.60547 358.49609 L 432.18945 350.63086 L 416.9082 347.41992 C 416.90848 347.41943 416.90792 347.41846 416.9082 347.41797 L 407.96094 345.53711 L 425.8418 329.50977 L 432.85547 323.22266 L 448.91992 308.82227 L 454.86328 303.49609 L 449.90039 305.11914 L 432.79492 310.7207 C 432.79511 310.72011 432.79474 310.71935 432.79492 310.71875 L 395.00195 323.0918 L 414.60352 263.22852 L 372.55859 310.13281 L 359.59961 248.49023 z M 359.59961 309.69531 C 386.22207 309.69531 407.98032 331.23822 408.37891 357.76367 A 7.5 7.5 0 0 1 408.41602 358.49609 A 7.5 7.5 0 0 1 408.37695 359.24805 C 407.96769 385.7643 386.21536 407.29492 359.59961 407.29492 C 332.73 407.29492 310.78516 385.35989 310.78516 358.49609 C 310.78516 331.63229 332.73 309.69532 359.59961 309.69531 z M 359.59961 324.69531 C 340.8334 324.69532 325.78516 339.7421 325.78516 358.49609 C 325.78516 377.25009 340.8334 392.29492 359.59961 392.29492 C 378.36582 392.29492 393.41602 377.25009 393.41602 358.49609 C 393.41602 339.74209 378.36582 324.69531 359.59961 324.69531 z "
     style="color:#000000;font-style:normal;font-variant:normal;font-weight:normal;font-stretch:normal;font-size:medium;line-height:normal;font-family:sans-serif;font-variant-ligatures:normal;font-variant-position:normal;font-variant-caps:normal;font-variant-numeric:normal;font-variant-alternates:normal;font-variant-east-asian:normal;font-feature-settings:normal;font-variation-settings:normal;text-indent:0;text-align:start;text-decoration:none;text-decoration-line:none;text-decoration-style:solid;text-decoration-color:#000000;letter-spacing:normal;word-spacing:normal;text-transform:none;writing-mode:lr-tb;direction:ltr;text-orientation:mixed;dominant-baseline:auto;baseline-shift:baseline;text-anchor:start;white-space:normal;shape-padding:0;shape-margin:0;inline-size:0;clip-rule:nonzero;display:inline;overflow:visible;visibility:visible;isolation:auto;mix-blend-mode:normal;color-interpolation:sRGB;color-interpolation-filters:linearRGB;solid-color:#000000;solid-opacity:1;vector-effect:none;fill:#ffffff;fill-opacity:1;fill-rule:evenodd;stroke:none;stroke-width:30;stroke-linecap:round;stroke-linejoin:round;stroke-miterlimit:4;stroke-dasharray:none;stroke-dashoffset:0;stroke-opacity:1;paint-order:stroke fill markers;color-rendering:auto;image-rendering:auto;shape-rendering:auto;text-rendering:auto;enable-background:accumulate;stop-color:#000000"
     id="path925" />
  <path
     id="path943"
     style="color:#000000;font-style:normal;font-variant:normal;font-weight:normal;font-stretch:normal;font-size:medium;line-height:normal;font-family:sans-serif;font-variant-ligatures:normal;font-variant-position:normal;font-variant-caps:normal;font-variant-numeric:normal;font-variant-alternates:normal;font-variant-east-asian:normal;font-feature-settings:normal;font-variation-settings:normal;text-indent:0;text-align:start;text-decoration:none;text-decoration-line:none;text-decoration-style:solid;text-decoration-color:#000000;letter-spacing:normal;word-spacing:normal;text-transform:none;writing-mode:lr-tb;direction:ltr;text-orientation:mixed;dominant-baseline:auto;baseline-shift:baseline;text-anchor:start;white-space:normal;shape-padding:0;shape-margin:0;inline-size:0;clip-rule:nonzero;display:inline;overflow:visible;visibility:visible;isolation:auto;mix-blend-mode:normal;color-interpolation:sRGB;color-interpolation-filters:linearRGB;solid-color:#000000;solid-opacity:1;vector-effect:none;fill:#000100;fill-opacity:1;fill-rule:evenodd;stroke:none;stroke-width:30;stroke-linecap:round;stroke-linejoin:round;stroke-miterlimit:4;stroke-dasharray:none;stroke-dashoffset:0;stroke-opacity:1;paint-order:stroke fill markers;color-rendering:auto;image-rendering:auto;shape-rendering:auto;text-rendering:auto;enable-background:accumulate;stop-color:#000000"
     d="m 255.99604,56.00777 c -110.3735,-1e-5 -200.00976,89.62748 -200.00977,199.99023 0,110.36275 89.63627,199.99024 200.00977,199.99023 11.45518,0 22.68021,-0.98611 33.61133,-2.83984 a 15.001488,15.001488 0 0 0 26.15625,10.625 l 22.28515,-24.86328 6.86719,32.67578 a 15.001488,15.001488 0 0 0 29.35938,0 l 6.86718,-32.67578 22.28711,24.86328 a 15.001488,15.001488 0 0 0 25.42383,-14.67969 l -10.38867,-31.73047 31.73242,10.38868 a 15.001488,15.001488 0 0 0 14.67774,-25.42579 l -24.86329,-22.28515 32.67579,-6.86914 a 15.001488,15.001488 0 0 0 0,-29.35742 l -32.67579,-6.86914 24.86329,-22.28516 a 15.001488,15.001488 0 0 0 -11.54688,-26.08789 c 1.72433,-10.48366 2.64767,-21.2357 2.66797,-32.19922 a 7.5000501,7.5000501 0 0 0 0.01,-0.33789 7.5000501,7.5000501 0 0 0 0,-0.0371 7.5000501,7.5000501 0 0 0 -0.01,-0.38086 c -0.20717,-110.18698 -89.75425,-199.60937 -200,-199.60937 z m 0,15 c 102.26773,0 185.00976,82.73503 185.00977,184.99023 0,12.84753 -1.31441,25.38493 -3.80274,37.49023 l -18.73828,6.13672 10.38867,-31.73242 a 15.001488,15.001488 0 0 0 -25.42383,-14.67969 l -22.28711,24.86328 -6.86718,-32.67382 a 15.001488,15.001488 0 0 0 -14.75,-11.90821 15.001488,15.001488 0 0 0 -14.60742,11.90821 l -6.86915,32.67578 -22.28711,-24.86328 a 15.001488,15.001488 0 0 0 -15.10742,-4.45703 15.001488,15.001488 0 0 0 -10.3164,19.13476 l 10.38867,31.73242 -31.73047,-10.39062 a 15.001488,15.001488 0 0 0 -14.67969,25.42578 l 24.86133,22.28516 -32.67383,6.86914 a 15.001488,15.001488 0 0 0 0,29.35742 l 32.67383,6.86914 -24.86133,22.28515 a 15.001488,15.001488 0 0 0 14.67774,25.42579 l 31.73242,-10.38868 -6.43555,19.65821 c -12.35405,2.59642 -25.16206,3.96679 -38.29492,3.96679 C 153.7283,440.98824 70.98627,358.25321 70.98627,255.998 70.98628,153.7428 153.72831,71.00776 255.99604,71.00777 Z m 103.59961,177.48046 12.95898,61.64258 42.04493,-46.90429 -19.60157,59.86328 37.79297,-12.37305 17.10547,-5.59961 4.9668,-1.62695 -5.94727,5.33008 -16.06445,14.40039 -7.01367,6.28711 -17.88086,16.02734 8.94726,1.88086 15.28125,3.21289 37.41602,7.86523 -61.64453,12.95703 0.002,0.002 6.79883,6.0957 40.10547,35.94727 L 399.38476,395.33202 395,393.89648 h -0.002 l 1.44336,4.40429 18.15821,55.46094 -35.81446,-39.95508 -6.23047,-6.95117 -2.86523,13.62891 -10.09375,48.01562 -7.77149,-36.96679 c 7.8e-4,-4.3e-4 0.001,-0.002 0.002,-0.002 l -3.2207,-15.3164 c -5e-4,2.8e-4 -0.001,-2.9e-4 -0.002,0 l -1.9668,-9.35938 -16.91992,18.87891 -20.73437,23.13281 -4.38867,4.89453 1.33203,-4.06836 5.62304,-17.17773 12.64454,-38.61914 -59.86524,19.59961 46.90625,-42.04493 -61.64453,-12.95703 61.64453,-12.95898 -46.90625,-42.04492 59.86524,19.59961 -19.59961,-59.86328 42.04296,46.90429 z m 0,61.20508 c -26.86961,1e-5 -48.81445,21.93698 -48.81445,48.80078 0,26.8638 21.94484,48.79883 48.81445,48.79883 26.61575,0 48.36808,-21.53062 48.77734,-48.04687 a 7.5,7.5 0 0 0 0.0391,-0.75196 7.5,7.5 0 0 0 -0.0371,-0.73242 c -0.39859,-26.52545 -22.15684,-48.06836 -48.7793,-48.06836 z m 0,15 c 18.76621,0 33.81641,15.04678 33.81641,33.80078 0,18.754 -15.0502,33.79883 -33.81641,33.79883 -18.76621,0 -33.81445,-15.04483 -33.81445,-33.79883 0,-18.75399 15.04824,-33.80077 33.81445,-33.80078 z" />
</svg>
