<?xml version="1.0" encoding="UTF-8" standalone="no"?>
<svg
   xmlns:dc="http://purl.org/dc/elements/1.1/"
   xmlns:cc="http://creativecommons.org/ns#"
   xmlns:rdf="http://www.w3.org/1999/02/22-rdf-syntax-ns#"
   xmlns:svg="http://www.w3.org/2000/svg"
   xmlns="http://www.w3.org/2000/svg"
   xmlns:xlink="http://www.w3.org/1999/xlink"
   xmlns:sodipodi="http://sodipodi.sourceforge.net/DTD/sodipodi-0.dtd"
   xmlns:inkscape="http://www.inkscape.org/namespaces/inkscape"
   viewBox="0 0 512 512"
   width="512"
   height="512"
   version="1.1"
   id="svg5"
   sodipodi:docname="magic-skill_bwc.svg"
   inkscape:version="1.0 (4035a4fb49, 2020-05-01)">
  <title
     id="title835">Magic: Spells</title>
  <metadata
     id="metadata11">
    <rdf:RDF>
      <cc:Work
         rdf:about="">
        <dc:format>image/svg+xml</dc:format>
        <dc:type
           rdf:resource="http://purl.org/dc/dcmitype/StillImage" />
        <dc:title>Magic: Spells</dc:title>
        <cc:license
           rdf:resource="http://creativecommons.org/licenses/by-sa/4.0/" />
        <dc:contributor>
          <cc:Agent>
            <dc:title>completely selfmade</dc:title>
          </cc:Agent>
        </dc:contributor>
        <dc:creator>
          <cc:Agent>
            <dc:title>Streuner²</dc:title>
          </cc:Agent>
        </dc:creator>
        <dc:date>2022.02.05</dc:date>
      </cc:Work>
      <cc:License
         rdf:about="http://creativecommons.org/licenses/by-sa/4.0/">
        <cc:permits
           rdf:resource="http://creativecommons.org/ns#Reproduction" />
        <cc:permits
           rdf:resource="http://creativecommons.org/ns#Distribution" />
        <cc:requires
           rdf:resource="http://creativecommons.org/ns#Notice" />
        <cc:requires
           rdf:resource="http://creativecommons.org/ns#Attribution" />
        <cc:permits
           rdf:resource="http://creativecommons.org/ns#DerivativeWorks" />
        <cc:requires
           rdf:resource="http://creativecommons.org/ns#ShareAlike" />
      </cc:License>
    </rdf:RDF>
  </metadata>
  <defs
     id="defs9">
    <linearGradient
       id="linearGradient859"
       inkscape:collect="always">
      <stop
         id="stop855"
         offset="0"
         style="stop-color:#ced9e0;stop-opacity:1" />
      <stop
         id="stop857"
         offset="1"
         style="stop-color:#425a66;stop-opacity:1" />
    </linearGradient>
    <radialGradient
       gradientUnits="userSpaceOnUse"
       gradientTransform="matrix(1,0,0,0.98571522,0,3.4541527)"
       r="204.46172"
       fy="241.80643"
       fx="257.40405"
       cy="241.80643"
       cx="257.40405"
       id="radialGradient861"
       xlink:href="#linearGradient859"
       inkscape:collect="always" />
  </defs>
  <sodipodi:namedview
     guideopacity="0.49803922"
     guidecolor="#00ff00"
     inkscape:guide-bbox="true"
     showguides="true"
     inkscape:showpageshadow="false"
     borderlayer="false"
     inkscape:document-rotation="0"
     pagecolor="#323232"
     bordercolor="#666666"
     borderopacity="1"
     objecttolerance="10"
     gridtolerance="10"
     guidetolerance="10"
     inkscape:pageopacity="0.61960784"
     inkscape:pageshadow="2"
     inkscape:window-width="3840"
     inkscape:window-height="2066"
     id="namedview7"
     showgrid="false"
     inkscape:zoom="1.7111432"
     inkscape:cx="265.04283"
     inkscape:cy="289.06768"
     inkscape:window-x="3829"
     inkscape:window-y="-11"
     inkscape:window-maximized="1"
     inkscape:current-layer="g987">
    <sodipodi:guide
       inkscape:color="rgb(0,255,0)"
       inkscape:locked="false"
       inkscape:label=""
       id="guide869"
       orientation="-1,0"
       position="256,256" />
    <sodipodi:guide
       inkscape:color="rgb(0,255,0)"
       inkscape:locked="false"
       inkscape:label=""
       id="guide905"
       orientation="0,1"
       position="256,256" />
  </sodipodi:namedview>
  <filter
     id="shadow">
    <feDropShadow
       dx="6"
       dy="12"
       stdDeviation="6" />
  </filter>
  <g
     style="stroke-width:1.54493;stroke-miterlimit:4;stroke-dasharray:none"
     transform="matrix(0.90491517,0,0,0.90746524,23.072155,38.656116)"
     id="g987">
    <path
       style="color:#000000;font-style:normal;font-variant:normal;font-weight:normal;font-stretch:normal;font-size:medium;line-height:normal;font-family:sans-serif;font-variant-ligatures:normal;font-variant-position:normal;font-variant-caps:normal;font-variant-numeric:normal;font-variant-alternates:normal;font-variant-east-asian:normal;font-feature-settings:normal;font-variation-settings:normal;text-indent:0;text-align:start;text-decoration:none;text-decoration-line:none;text-decoration-style:solid;text-decoration-color:#000000;letter-spacing:normal;word-spacing:normal;text-transform:none;writing-mode:lr-tb;direction:ltr;text-orientation:mixed;dominant-baseline:auto;baseline-shift:baseline;text-anchor:start;white-space:normal;shape-padding:0;shape-margin:0;inline-size:0;clip-rule:nonzero;display:inline;overflow:visible;visibility:visible;isolation:auto;mix-blend-mode:normal;color-interpolation:sRGB;color-interpolation-filters:linearRGB;solid-color:#000000;solid-opacity:1;vector-effect:none;fill:#425a66;fill-opacity:1;fill-rule:nonzero;stroke:none;stroke-width:33.1056;stroke-linecap:butt;stroke-linejoin:round;stroke-miterlimit:4;stroke-dasharray:none;stroke-dashoffset:0;stroke-opacity:1;paint-order:stroke fill markers;color-rendering:auto;image-rendering:auto;shape-rendering:auto;text-rendering:auto;enable-background:accumulate;stop-color:#000000"
       d="m 257.32816,-4.8926923 c -0.0911,4.616e-4 -0.18225,0.00176 -0.27335,0.0039 -0.10777,0.00206 -0.21551,0.00529 -0.32321,0.0097 -0.0419,0.00242 -0.0837,0.00502 -0.1256,0.0078 -0.0493,0.00235 -0.0985,0.00495 -0.14775,0.0078 -0.0166,0.00127 -0.0332,0.00257 -0.0498,0.0039 -0.10782,0.00726 -0.21557,0.015692 -0.32322,0.0253 -0.10722,0.00921 -0.21434,0.01959 -0.32136,0.03113 -0.0912,0.010179 -0.18233,0.021203 -0.27335,0.03307 -0.0727,0.00984 -0.14536,0.020216 -0.21794,0.03113 -0.14065,0.020041 -0.28103,0.042096 -0.42111,0.06616 -0.0783,0.013643 -0.15648,0.027914 -0.23456,0.04281 -0.0394,0.00763 -0.0788,0.015414 -0.11821,0.02336 -0.0197,0.00385 -0.0394,0.00774 -0.0591,0.01167 -0.0913,0.018604 -0.18239,0.038065 -0.27334,0.05838 -0.0969,0.021736 -0.19352,0.044441 -0.28997,0.06811 0,0 -0.0259,0.0059 -0.0259,0.0059 -0.0888,0.021886 -0.1775,0.04459 -0.26597,0.06811 -0.0765,0.020152 -0.15282,0.040913 -0.22901,0.06228 -0.0394,0.010864 -0.0789,0.021891 -0.11821,0.03308 -0.0252,0.00772 -0.0505,0.015506 -0.0757,0.02336 -0.0808,0.023966 -0.16149,0.048617 -0.24195,0.07395 0,0 -0.007,0.002 -0.007,0.002 -0.087,0.027746 -0.17385,0.05629 -0.26042,0.08563 -0.0475,0.015978 -0.0949,0.032195 -0.14221,0.04865 -0.071,0.024117 -0.14177,0.048767 -0.2124,0.07395 -0.0883,0.032255 -0.17637,0.065343 -0.26413,0.09926 -0.0136,0.00517 -0.0271,0.01036 -0.0407,0.01557 -0.0859,0.033589 -0.17144,0.067971 -0.25673,0.103143 -0.0846,0.034904 -0.16898,0.070583 -0.25303,0.107035 -0.0253,0.010308 -0.0506,0.020684 -0.0758,0.03113 -0.0191,0.00839 -0.0382,0.01682 -0.0573,0.02529 -0.071,0.031236 -0.14182,0.063024 -0.2124,0.09536 -0.0148,0.00711 -0.0295,0.014242 -0.0443,0.0214 -0.089,0.041293 -0.17768,0.083459 -0.26596,0.126493 -0.0481,0.023745 -0.0962,0.047749 -0.14406,0.07201 -0.0444,0.021834 -0.0888,0.043887 -0.13298,0.06616 -0.0148,0.00776 -0.0296,0.015549 -0.0443,0.02336 -0.0928,0.047688 -0.18516,0.096342 -0.27705,0.145956 -0.0197,0.010982 -0.0394,0.022009 -0.0591,0.03308 -0.0655,0.03584 -0.13076,0.072167 -0.19578,0.10898 -0.0142,0.00841 -0.0283,0.016843 -0.0425,0.0253 -0.0947,0.054112 -0.18893,0.109254 -0.28258,0.165416 -0.0792,0.047278 -0.15801,0.095283 -0.23641,0.144009 -0.0142,0.00906 -0.0283,0.018136 -0.0425,0.02724 -0.0929,0.058667 -0.18528,0.1183495 -0.27704,0.179037 -0.0911,0.059994 -0.1816,0.1209739 -0.27151,0.182931 -0.0905,0.062587 -0.18039,0.1261625 -0.26965,0.190715 -0.0868,0.062654 -0.17299,0.1262293 -0.25857,0.190715 0,0 -0.006,0.0039 -0.006,0.0039 -0.0743,0.0564 -0.14823,0.113487 -0.22163,0.171254 -0.0383,0.029657 -0.0765,0.059497 -0.11452,0.08952 -0.0613,0.048827 -0.12224,0.098129 -0.18284,0.147901 -0.0775,0.063456 -0.15449,0.1276799 -0.23087,0.192662 -0.0495,0.043142 -0.0988,0.086605 -0.14775,0.130386 -0.0365,0.031613 -0.0728,0.0634 -0.10897,0.09536 -0.0161,0.014236 -0.0321,0.028506 -0.0481,0.04281 -0.0582,0.0520969 -0.11611,0.10464228 -0.17362,0.157632 -0.0123,0.011656 -0.0247,0.0233327 -0.037,0.03503 -0.0683,0.0635964 -0.13598,0.12781952 -0.20317,0.192662 -0.0123,0.0123055 -0.0247,0.0246322 -0.037,0.03698 -0.0789,0.0769914 -0.15714,0.15483816 -0.23456,0.233528 -0.0727,0.073863 -0.14475,0.14846578 -0.2161,0.223798 -0.0166,0.01682799 -0.0332,0.0336947 -0.0498,0.0506 -0.064,0.06882319 -0.12741,0.13823586 -0.19024,0.20823 -0.0634,0.0694778 -0.12617,0.13953948 -0.18838,0.210177 -0.0111,0.0129548 -0.0222,0.0259281 -0.0333,0.03892 -0.0615,0.0707939 -0.12249,0.14215264 -0.18285,0.214068 -0.0584,0.0695421 -0.1163,0.13960289 -0.1736,0.210175 -0.0154,0.0187734 -0.0308,0.0375835 -0.0461,0.05643 -0.0484,0.0606112 -0.0965,0.1215895 -0.14407,0.18293 -0.0235,0.029753 -0.0469,0.059593 -0.0702,0.08952 0,0 -0.0166,0.0214 -0.0166,0.0214 -0.0573,0.074725 -0.11391,0.1499755 -0.16993,0.225743 -0.0655,0.088175 -0.13014,0.1770501 -0.19392,0.266612 0,0 -0.004,0.0039 -0.004,0.0039 -0.01,0.013611 -0.0197,0.027237 -0.0295,0.04088 -0.0542,0.077348 -0.10777,0.1551934 -0.16068,0.233528 -0.0454,0.067108 -0.0904,0.1345733 -0.13483,0.202391 -0.0217,0.033004 -0.0433,0.066091 -0.0647,0.09926 -0.0304,0.047189 -0.0606,0.094544 -0.0905,0.1420627 -0.0304,0.047189 -0.0606,0.094545 -0.0905,0.1420638 -0.043,0.069719 -0.0855,0.1397794 -0.12743,0.2101752 -0.0117,0.019433 -0.0234,0.038893 -0.0351,0.058378 -0.008,0.012961 -0.016,0.025934 -0.024,0.038918 -0.0481,0.081944 -0.0955,0.1643305 -0.14222,0.2471498 -0.0242,0.042052 -0.0482,0.084217 -0.0721,0.1264954 -0.0393,0.071049 -0.0781,0.1424068 -0.11635,0.214067 -0.0495,0.091621 -0.0981,0.1837393 -0.14592,0.2763428 -0.0192,0.037546 -0.0383,0.07517 -0.0573,0.1128718 -0.0274,0.05433 -0.0544,0.1088209 -0.0812,0.16347 -0.007,0.015556 -0.0148,0.031124 -0.0221,0.046704 -0.0908,0.186348 -0.17826,0.3745022 -0.26227,0.5643601 0,0 0,0.002 0,0.002 -0.0205,0.046606 -0.0408,0.093312 -0.0609,0.1401168 -0.0313,0.072418 -0.0621,0.1450728 -0.0924,0.21796 -0.0364,0.087892 -0.0721,0.176117 -0.10713,0.2646652 -0.0404,0.1014268 -0.0798,0.2032765 -0.1182,0.3055337 0,0 -0.006,0.011673 -0.006,0.011673 -0.006,0.015559 -0.0111,0.031127 -0.0166,0.046704 -0.0327,0.089871 -0.0648,0.1800418 -0.096,0.2705029 -0.0348,0.1001984 -0.0686,0.2007501 -0.10159,0.3016409 0,0 -0.007,0.019459 -0.007,0.019459 l -0.013,0.038918 c 0,0 -0.006,0.015572 -0.006,0.015572 L 204.92654,121.27496 H 46.83698 c -14.4735,0.005 -21.18947,18.92729 -10.27088,28.93807 L 158.77314,262.19966 93.28219,462.17401 c -2.30948,7.05868 0.16903,14.87172 6.04265,19.04839 5.87363,4.17667 13.67748,3.67529 19.02598,-1.22238 L 257.40204,352.57909 396.4551,480.00002 c 5.3485,4.89765 13.1524,5.39903 19.026,1.22236 5.8736,-4.17666 8.3521,-11.9897 6.0426,-19.04837 L 356.03279,262.19966 478.2398,150.21303 c 10.9186,-10.01078 4.2027,-28.93292 -10.2708,-28.93807 H 309.87939 L 272.21642,6.2719144 l -0.002,-0.0078 c -0.0288,-0.087835 -0.0584,-0.1754115 -0.0886,-0.2627203 -0.006,-0.018175 -0.0122,-0.036338 -0.0184,-0.05449 -0.0371,-0.1067982 -0.0753,-0.213189 -0.11451,-0.3191552 -0.039,-0.1055196 -0.079,-0.2106133 -0.12005,-0.3152644 -0.0296,-0.074833 -0.0598,-0.1494339 -0.0905,-0.2237977 -0.0152,-0.038334 -0.0306,-0.076606 -0.0461,-0.1148177 0,0 -0.009,-0.023357 -0.009,-0.023357 -0.0368,-0.087917 -0.0744,-0.1754936 -0.11266,-0.2627192 -0.0452,-0.1029925 -0.0913,-0.2054912 -0.13852,-0.3074797 -0.007,-0.01623 -0.0147,-0.032448 -0.0221,-0.048653 -0.0399,-0.085998 -0.0806,-0.1716281 -0.1219,-0.2568805 -0.0495,-0.1010945 -0.1,-0.2016468 -0.15144,-0.3016408 -0.0383,-0.074264 -0.077,-0.148217 -0.11637,-0.2218528 -0.12561,-0.2375584 -0.25678,-0.471807 -0.39339,-0.702531 -0.0117,-0.019485 -0.0234,-0.038944 -0.0351,-0.058378 -0.042,-0.070396 -0.0845,-0.1404562 -0.12743,-0.2101752 -0.0153,-0.023392 -0.0307,-0.046743 -0.0461,-0.070051 -0.0492,-0.078941 -0.0991,-0.1574356 -0.1496,-0.2354742 -0.0511,-0.079615 -0.10278,-0.1587577 -0.15515,-0.23742 -0.01,-0.01429 -0.0196,-0.028563 -0.0295,-0.04282 -0.12572,-0.1844273 -0.25503,-0.3660993 -0.38787,-0.5449 -0.0602,-0.081688 -0.12118,-0.162778 -0.18285,-0.243258 -0.0639,-0.082392 -0.12854,-0.164131 -0.19393,-0.24520504 -0.0482,-0.0600459 -0.0969,-0.1197274 -0.14591,-0.17904 -0.0324,-0.0397334 -0.0651,-0.0793035 -0.0979,-0.118709 -0.12552,-0.14903685 -0.2536,-0.29566459 -0.38417,-0.439811 -0.009,-0.0103893 -0.0184,-0.0207659 -0.0277,-0.03113 -0.009,-0.0103893 -0.0185,-0.0207659 -0.0277,-0.03113 -0.0689,-0.07529521 -0.13846,-0.14989825 -0.2087,-0.223799 -0.0416,-0.04371011 -0.0835,-0.0871728 -0.1256,-0.130386 -0.0361,-0.0371607 -0.0725,-0.0741368 -0.10896,-0.110927 0,0 -0.0147,-0.01558 -0.0147,-0.01558 -0.0659,-0.0661283 -0.13244,-0.1316491 -0.19947,-0.196555 -0.11599,-0.11279296 -0.23359,-0.22373098 -0.35276,-0.332776 -0.0563,-0.0516733 -0.11294,-0.10292164 -0.16993,-0.15374096 -0.0697,-0.062272 -0.13986,-0.1238999 -0.21055,-0.184877 0,0 -0.0221,-0.01946 -0.0221,-0.01946 -0.0764,-0.064982 -0.15334,-0.1292049 -0.23087,-0.192661 -0.0849,-0.069689 -0.17048,-0.1384537 -0.25672,-0.206283 -0.0129,-0.010398 -0.0258,-0.020775 -0.0387,-0.03113 -0.06,-0.047161 -0.12034,-0.093868 -0.18099,-0.140117 -0.0154,-0.011706 -0.0308,-0.023383 -0.0462,-0.03503 -0.0862,-0.064497 -0.173,-0.1280716 -0.26042,-0.190715 -0.0741,-0.053217 -0.14855,-0.1057632 -0.22347,-0.157632 -0.0215,-0.015624 -0.0431,-0.03119 -0.0647,-0.0467 0,0 -0.0221,-0.01558 -0.0221,-0.01558 -0.0759,-0.051943 -0.15226,-0.1031914 -0.22902,-0.153739 -0.0918,-0.060687 -0.18411,-0.1203698 -0.27704,-0.179037 -0.10699,-0.067521 -0.21473,-0.1336924 -0.32322,-0.1985 -0.087,-0.051477 -0.17438,-0.1020769 -0.26226,-0.151793 -0.0209,-0.011727 -0.0418,-0.023403 -0.0628,-0.03503 -0.0809,-0.046162 -0.16215,-0.091572 -0.24379,-0.136224 -0.0809,-0.043558 -0.16217,-0.086374 -0.24379,-0.128441 -0.0154,-0.00781 -0.0308,-0.0156 -0.0462,-0.02336 -0.0968,-0.049708 -0.19407,-0.098362 -0.29181,-0.145955 -0.0828,-0.040335 -0.1659,-0.079907 -0.24934,-0.118711 0,0 -0.0221,-0.0097 -0.0221,-0.0097 -0.0363,-0.016361 -0.0726,-0.032578 -0.10896,-0.04865 -0.0706,-0.032336 -0.14138,-0.064124 -0.2124,-0.09536 -0.0993,-0.043246 -0.19906,-0.085414 -0.29921,-0.126496 -0.0987,-0.04063 -0.19786,-0.080202 -0.29736,-0.11871 -0.019,-0.00717 -0.0381,-0.014306 -0.0572,-0.0214 -0.0749,-0.028494 -0.15001,-0.056384 -0.22532,-0.08367 -0.01,-0.0039 -0.0197,-0.00779 -0.0295,-0.01167 -0.11774,-0.0417 -0.23596,-0.081921 -0.35461,-0.120656 -0.0713,-0.023889 -0.14268,-0.047239 -0.21425,-0.07005 -0.0725,-0.022611 -0.14514,-0.044668 -0.21794,-0.06617 -0.0443,-0.013833 -0.0886,-0.02746 -0.13297,-0.04088 -0.0105,-0.00261 -0.0209,-0.00521 -0.0314,-0.0078 -0.0958,-0.027559 -0.19184,-0.054157 -0.28811,-0.07979 -0.10502,-0.027747 -0.2103,-0.054345 -0.31584,-0.07979 -0.10503,-0.025796 -0.21031,-0.050447 -0.31582,-0.07395 -0.0946,-0.021035 -0.18945,-0.041146 -0.28444,-0.06033 -0.0388,-0.00729 -0.0776,-0.014421 -0.11636,-0.0214 -0.0781,-0.014896 -0.15627,-0.029167 -0.23456,-0.04281 -0.0904,-0.015753 -0.18088,-0.030671 -0.2715,-0.04475 -0.0529,-0.00807 -0.10586,-0.015859 -0.15884,-0.02336 -0.0701,-0.010235 -0.1403,-0.019968 -0.21055,-0.0292 -0.10699,-0.014139 -0.21412,-0.027113 -0.32137,-0.03892 -0.0904,-0.00926 -0.18093,-0.017697 -0.2715,-0.0253 -0.10765,-0.00961 -0.21539,-0.018042 -0.32321,-0.0253 -0.0659,-0.00433 -0.13173,-0.00822 -0.19763,-0.01167 -0.0419,-0.00278 -0.0837,-0.00538 -0.1256,-0.0078 -0.1077,-0.00441 -0.21544,-0.00764 -0.32321,-0.0097 -0.0911,-0.00214 -0.18222,-0.00344 -0.27335,-0.0039 -0.0499,-2.511e-4 -0.0997,-2.511e-4 -0.1496,0 z m 0.0738,67.0538123 19.36156,59.11384 H 238.04233 Z M 88.68883,154.26086 h 105.4349 l -24.33908,74.31265 z m 138.55069,0 h 60.32689 l 31.98175,97.65578 -62.14612,56.94592 -62.14428,-56.94592 z m 93.44267,0 H 426.1171 l -81.09582,74.31265 z m -136.43593,131.27998 49.30428,45.17999 -91.58463,83.9243 z m 146.31341,0 42.28033,129.10429 -91.58463,-83.9243 z"
       id="path851" />
    <path
       sodipodi:nodetypes="cccccccccccccccccccccccccsccscccccccccccccscc"
       id="path853"
       style="color:#000000;font-style:normal;font-variant:normal;font-weight:normal;font-stretch:normal;font-size:medium;line-height:normal;font-family:sans-serif;font-variant-ligatures:normal;font-variant-position:normal;font-variant-caps:normal;font-variant-numeric:normal;font-variant-alternates:normal;font-variant-east-asian:normal;font-feature-settings:normal;font-variation-settings:normal;text-indent:0;text-align:start;text-decoration:none;text-decoration-line:none;text-decoration-style:solid;text-decoration-color:#000000;letter-spacing:normal;word-spacing:normal;text-transform:none;writing-mode:lr-tb;direction:ltr;text-orientation:mixed;dominant-baseline:auto;baseline-shift:baseline;text-anchor:start;white-space:normal;shape-padding:0;shape-margin:0;inline-size:0;clip-rule:nonzero;display:inline;overflow:visible;visibility:visible;isolation:auto;mix-blend-mode:normal;color-interpolation:sRGB;color-interpolation-filters:linearRGB;solid-color:#000000;solid-opacity:1;vector-effect:none;fill:url(#radialGradient861);fill-opacity:1;fill-rule:evenodd;stroke:none;stroke-width:16.5529;stroke-linecap:round;stroke-linejoin:round;stroke-miterlimit:4;stroke-dasharray:none;stroke-dashoffset:0;stroke-opacity:1;paint-order:normal;color-rendering:auto;image-rendering:auto;shape-rendering:auto;text-rendering:auto;enable-background:accumulate;stop-color:#000000"
       d="M 214.03522,40.265405 C 170.58403,49.602518 132.3003,72.678501 103.96576,104.72208 h 88.96294 z m 86.73336,0 21.10867,64.456675 h 88.96509 C 382.50691,72.677983 344.22082,49.602231 300.76858,40.265405 Z M 131.2538,170.81452 l 30.78888,28.21433 9.23991,-28.21433 z m 107.98233,0 -24.92465,76.10915 43.09149,39.488 43.09365,-39.488 -24.92681,-76.10915 z m 104.28507,0 9.23991,28.21217 30.78887,-28.21217 z m 112.91848,21.82633 -81.35474,74.55091 35.25883,107.6595 c 32.05625,-35.9858 51.522,-83.37411 51.522,-135.34437 0,-16.13189 -1.882,-31.81976 -5.42609,-46.86604 z m -398.071248,0.002 c -3.54371,15.04565 -5.4261,30.73272 -5.4261,46.86388 0,51.96974 19.46465,99.3587 51.519848,135.34437 l 35.25883,-107.6595 z m 133.619228,122.44341 -14.62931,44.675 31.69323,-29.04079 z m 130.82847,0 -17.06176,15.63421 31.69539,29.04295 z m -65.41316,59.94548 -63.59151,58.271 c 20.01184,6.51173 41.38177,10.04471 63.59151,10.04472 22.20974,0 43.57955,-3.533 63.59151,-10.04472 z" />
    <g
       transform="translate(-1.8842801e-6,3.2630685e-4)"
       style="stroke-width:1.54493;stroke-miterlimit:4;stroke-dasharray:none"
       id="g1031">
      <path
         id="path896"
         style="color:#000000;font-style:normal;font-variant:normal;font-weight:normal;font-stretch:normal;font-size:medium;line-height:normal;font-family:sans-serif;font-variant-ligatures:normal;font-variant-position:normal;font-variant-caps:normal;font-variant-numeric:normal;font-variant-alternates:normal;font-variant-east-asian:normal;font-feature-settings:normal;font-variation-settings:normal;text-indent:0;text-align:start;text-decoration:none;text-decoration-line:none;text-decoration-style:solid;text-decoration-color:#000000;letter-spacing:normal;word-spacing:normal;text-transform:none;writing-mode:lr-tb;direction:ltr;text-orientation:mixed;dominant-baseline:auto;baseline-shift:baseline;text-anchor:start;white-space:normal;shape-padding:0;shape-margin:0;inline-size:0;clip-rule:nonzero;display:inline;overflow:visible;visibility:visible;isolation:auto;mix-blend-mode:normal;color-interpolation:sRGB;color-interpolation-filters:linearRGB;solid-color:#000000;solid-opacity:1;vector-effect:none;fill:#000100;fill-opacity:1;fill-rule:evenodd;stroke:none;stroke-width:16.5529;stroke-linecap:round;stroke-linejoin:round;stroke-miterlimit:4;stroke-dasharray:none;stroke-dashoffset:0;stroke-opacity:1;paint-order:normal;color-rendering:auto;image-rendering:auto;shape-rendering:auto;text-rendering:auto;enable-background:accumulate;stop-color:#000000"
         d="M 410.57482,104.72179 H 431.9317 C 398.76685,62.09664 350.4285,31.83409 294.89797,22.34518 l 5.90093,18.01249 c 43.36572,9.33223 81.46583,32.40556 109.77592,64.36412 z" />
      <path
         id="path888"
         style="color:#000000;font-style:normal;font-variant:normal;font-weight:normal;font-stretch:normal;font-size:medium;line-height:normal;font-family:sans-serif;font-variant-ligatures:normal;font-variant-position:normal;font-variant-caps:normal;font-variant-numeric:normal;font-variant-alternates:normal;font-variant-east-asian:normal;font-feature-settings:normal;font-variation-settings:normal;text-indent:0;text-align:start;text-decoration:none;text-decoration-line:none;text-decoration-style:solid;text-decoration-color:#000000;letter-spacing:normal;word-spacing:normal;text-transform:none;writing-mode:lr-tb;direction:ltr;text-orientation:mixed;dominant-baseline:auto;baseline-shift:baseline;text-anchor:start;white-space:normal;shape-padding:0;shape-margin:0;inline-size:0;clip-rule:nonzero;display:inline;overflow:visible;visibility:visible;isolation:auto;mix-blend-mode:normal;color-interpolation:sRGB;color-interpolation-filters:linearRGB;solid-color:#000000;solid-opacity:1;vector-effect:none;fill:#000100;fill-opacity:1;fill-rule:evenodd;stroke:none;stroke-width:16.5529;stroke-linecap:round;stroke-linejoin:round;stroke-miterlimit:4;stroke-dasharray:none;stroke-dashoffset:0;stroke-opacity:1;paint-order:normal;color-rendering:auto;image-rendering:auto;shape-rendering:auto;text-rendering:auto;enable-background:accumulate;stop-color:#000000"
         d="m 410.27049,374.62494 5.87071,17.9307 c 38.37065,-39.5675 62.14553,-93.29993 62.26413,-152.60355 2e-5,-0.008 0.002,-0.0159 0.002,-0.0237 a 8.2764502,8.2764502 0 0 0 0.0107,-0.42184 8.2764502,8.2764502 0 0 0 -0.0111,-0.38526 c -0.0354,-20.44885 -3.08505,-40.16193 -8.35714,-58.95111 l -13.77891,12.62531 c 3.5315,15.02102 5.59444,30.60873 5.59444,46.71106 0,51.92797 -19.5857,99.1431 -51.59539,135.11838 z" />
      <path
         id="path878"
         style="color:#000000;font-style:normal;font-variant:normal;font-weight:normal;font-stretch:normal;font-size:medium;line-height:normal;font-family:sans-serif;font-variant-ligatures:normal;font-variant-position:normal;font-variant-caps:normal;font-variant-numeric:normal;font-variant-alternates:normal;font-variant-east-asian:normal;font-feature-settings:normal;font-variation-settings:normal;text-indent:0;text-align:start;text-decoration:none;text-decoration-line:none;text-decoration-style:solid;text-decoration-color:#000000;letter-spacing:normal;word-spacing:normal;text-transform:none;writing-mode:lr-tb;direction:ltr;text-orientation:mixed;dominant-baseline:auto;baseline-shift:baseline;text-anchor:start;white-space:normal;shape-padding:0;shape-margin:0;inline-size:0;clip-rule:nonzero;display:inline;overflow:visible;visibility:visible;isolation:auto;mix-blend-mode:normal;color-interpolation:sRGB;color-interpolation-filters:linearRGB;solid-color:#000000;solid-opacity:1;vector-effect:none;fill:#000100;fill-opacity:1;fill-rule:evenodd;stroke:none;stroke-width:16.5529;stroke-linecap:round;stroke-linejoin:round;stroke-miterlimit:4;stroke-dasharray:none;stroke-dashoffset:0;stroke-opacity:1;paint-order:normal;color-rendering:auto;image-rendering:auto;shape-rendering:auto;text-rendering:auto;enable-background:accumulate;stop-color:#000000"
         d="m 193.90007,433.22094 -13.70121,12.55429 c 24.07158,8.97884 50.01212,14.12545 77.20423,14.12545 27.19288,0 53.1328,-5.14593 77.20423,-14.12545 L 320.9061,433.22094 c -19.99985,6.50302 -41.30884,10.12651 -63.50301,10.12651 -22.19417,-10e-6 -43.50328,-3.62349 -63.50302,-10.12651 z" />
      <path
         id="path868"
         style="color:#000000;font-style:normal;font-variant:normal;font-weight:normal;font-stretch:normal;font-size:medium;line-height:normal;font-family:sans-serif;font-variant-ligatures:normal;font-variant-position:normal;font-variant-caps:normal;font-variant-numeric:normal;font-variant-alternates:normal;font-variant-east-asian:normal;font-feature-settings:normal;font-variation-settings:normal;text-indent:0;text-align:start;text-decoration:none;text-decoration-line:none;text-decoration-style:solid;text-decoration-color:#000000;letter-spacing:normal;word-spacing:normal;text-transform:none;writing-mode:lr-tb;direction:ltr;text-orientation:mixed;dominant-baseline:auto;baseline-shift:baseline;text-anchor:start;white-space:normal;shape-padding:0;shape-margin:0;inline-size:0;clip-rule:nonzero;display:inline;overflow:visible;visibility:visible;isolation:auto;mix-blend-mode:normal;color-interpolation:sRGB;color-interpolation-filters:linearRGB;solid-color:#000000;solid-opacity:1;vector-effect:none;fill:#000100;fill-opacity:1;fill-rule:evenodd;stroke:none;stroke-width:16.5529;stroke-linecap:round;stroke-linejoin:round;stroke-miterlimit:4;stroke-dasharray:none;stroke-dashoffset:0;stroke-opacity:1;paint-order:normal;color-rendering:auto;image-rendering:auto;shape-rendering:auto;text-rendering:auto;enable-background:accumulate;stop-color:#000000"
         d="M 58.53474,192.7955 44.74503,180.15727 c -5.30744,18.91049 -8.35714,38.7597 -8.35714,59.34929 0,59.48348 23.79975,113.39497 62.272756,153.062 l 5.875034,-17.94362 C 72.52644,338.64966 52.94245,291.43453 52.94245,239.50656 c 0,-16.10233 2.06086,-31.69004 5.59229,-46.71106 z" />
      <path
         id="path860"
         style="color:#000000;font-style:normal;font-variant:normal;font-weight:normal;font-stretch:normal;font-size:medium;line-height:normal;font-family:sans-serif;font-variant-ligatures:normal;font-variant-position:normal;font-variant-caps:normal;font-variant-numeric:normal;font-variant-alternates:normal;font-variant-east-asian:normal;font-feature-settings:normal;font-variation-settings:normal;text-indent:0;text-align:start;text-decoration:none;text-decoration-line:none;text-decoration-style:solid;text-decoration-color:#000000;letter-spacing:normal;word-spacing:normal;text-transform:none;writing-mode:lr-tb;direction:ltr;text-orientation:mixed;dominant-baseline:auto;baseline-shift:baseline;text-anchor:start;white-space:normal;shape-padding:0;shape-margin:0;inline-size:0;clip-rule:nonzero;display:inline;overflow:visible;visibility:visible;isolation:auto;mix-blend-mode:normal;color-interpolation:sRGB;color-interpolation-filters:linearRGB;solid-color:#000000;solid-opacity:1;vector-effect:none;fill:#000100;fill-opacity:1;fill-rule:evenodd;stroke:none;stroke-width:16.5529;stroke-linecap:round;stroke-linejoin:round;stroke-miterlimit:4;stroke-dasharray:none;stroke-dashoffset:0;stroke-opacity:1;paint-order:normal;color-rendering:auto;image-rendering:auto;shape-rendering:auto;text-rendering:auto;enable-background:accumulate;stop-color:#000000"
         d="M 219.90605,22.34303 C 164.37306,31.83208 116.03032,62.09497 82.863675,104.72179 h 21.367685 c 28.30963,-31.9585 66.40831,-55.03186 109.77376,-64.36412 z" />
      <path
         transform="matrix(1.105076,0,0,1.1019706,-25.496484,-42.597903)"
         d="m 255.85547,19.195312 c -0.15254,7.75e-4 -0.30452,0.0026 -0.45703,0.0059 -0.20617,0.004 -0.41311,0.01108 -0.61914,0.01953 a 14.980377,15.022592 0 0 0 -0.25196,0.01172 c -0.07,0.0041 -0.14088,0.0071 -0.21093,0.01172 -0.0118,6.68e-4 -0.0233,0.0012 -0.0352,0.002 a 14.980377,15.022592 0 0 0 -0.1875,0.01367 c -0.0247,0.0016 -0.0495,0.0021 -0.0742,0.0039 a 14.980377,15.022592 0 0 0 -0.0195,0.002 c -0.0318,0.0024 -0.064,0.0053 -0.0957,0.0078 -0.12663,0.0094 -0.25243,0.0182 -0.37891,0.0293 -0.20502,0.01767 -0.41068,0.03842 -0.61523,0.06055 a 14.980377,15.022592 0 0 0 -0.0547,0.0059 c -0.17432,0.01951 -0.34757,0.04172 -0.52149,0.06445 a 14.980377,15.022592 0 0 0 -0.0723,0.0078 c -0.12713,0.01725 -0.25594,0.03571 -0.38281,0.05469 -0.0118,0.0017 -0.0234,0.004 -0.0352,0.0059 -0.23017,0.03385 -0.46023,0.06989 -0.68945,0.109375 a 14.980377,15.022592 0 0 0 -0.0352,0.0059 c -0.14944,0.02612 -0.29828,0.05548 -0.44726,0.08398 a 14.980377,15.022592 0 0 0 -0.0391,0.0059 c -0.0752,0.01459 -0.14951,0.02972 -0.22461,0.04492 -0.007,0.0015 -0.0125,0.0025 -0.0195,0.0039 a 14.980377,15.022592 0 0 0 -0.0625,0.01172 c -0.17408,0.03558 -0.34617,0.0725 -0.51953,0.111328 a 14.980377,15.022592 0 0 0 -0.0156,0.0039 c -0.10356,0.0233 -0.20727,0.04781 -0.31055,0.07227 l -0.0215,0.0059 a 14.980377,15.022592 0 0 0 -0.0723,0.01562 c -0.0496,0.01192 -0.0989,0.02298 -0.14844,0.03516 a 14.980377,15.022592 0 0 0 -0.0371,0.0098 c -0.16921,0.04181 -0.33553,0.08597 -0.5039,0.13086 -0.13492,0.03582 -0.27191,0.07158 -0.40625,0.109375 -0.0525,0.01465 -0.10382,0.02998 -0.15625,0.04492 A 14.980377,15.022592 0 0 0 247.9043,20.375 c -0.007,0.0023 -0.0157,0.0036 -0.0234,0.0059 l -0.01,0.0039 a 14.980377,15.022592 0 0 0 -0.0195,0.0059 c -0.048,0.01471 -0.0966,0.02801 -0.14453,0.04297 -0.0519,0.01583 -0.10447,0.0327 -0.15625,0.04883 a 14.980377,15.022592 0 0 0 -0.0254,0.0098 c -0.0265,0.0083 -0.0536,0.01508 -0.0801,0.02344 a 14.980377,15.022592 0 0 0 -0.0586,0.01758 c -0.16533,0.05285 -0.3279,0.108225 -0.49219,0.164063 -0.08,0.02711 -0.16242,0.05423 -0.24219,0.08203 -0.10154,0.03502 -0.20162,0.06932 -0.30273,0.105469 a 14.980377,15.022592 0 0 0 -0.10742,0.04102 c -0.16691,0.06113 -0.33432,0.123298 -0.5,0.1875 -0.004,0.0014 -0.006,0.0025 -0.01,0.0039 a 14.980377,15.022592 0 0 0 -0.084,0.0332 c -0.16257,0.06378 -0.32501,0.128599 -0.48633,0.195312 -0.0574,0.02371 -0.11469,0.04818 -0.17188,0.07227 -0.0479,0.01956 -0.0948,0.04073 -0.14257,0.06055 -0.0547,0.02336 -0.11154,0.04467 -0.16602,0.06836 a 14.980377,15.022592 0 0 0 -0.12891,0.05469 c -0.0361,0.01589 -0.0714,0.03279 -0.10742,0.04883 -0.11885,0.05266 -0.23737,0.107851 -0.35547,0.162109 a 14.980377,15.022592 0 0 0 -0.10156,0.04687 c -0.0786,0.03656 -0.15612,0.07406 -0.23437,0.111328 -0.089,0.04236 -0.17908,0.08564 -0.26758,0.128906 a 14.980377,15.022592 0 0 0 -0.0645,0.03125 c -0.0907,0.04486 -0.17935,0.08896 -0.26954,0.134766 -0.03,0.01498 -0.06,0.02983 -0.0898,0.04492 a 14.980377,15.022592 0 0 0 -0.22852,0.117187 c -0.0278,0.01464 -0.0562,0.03019 -0.084,0.04492 -0.11986,0.06273 -0.23849,0.125061 -0.35742,0.189453 a 14.980377,15.022592 0 0 0 -0.12696,0.07031 c -0.0519,0.02848 -0.10452,0.05714 -0.15624,0.08594 -0.0709,0.03947 -0.14233,0.07908 -0.2129,0.119141 a 14.980377,15.022592 0 0 0 -0.0879,0.05078 l -0.0156,0.0098 c 0,0 -0.002,0.002 -0.002,0.002 a 14.980377,15.022592 0 0 0 -0.15625,0.08984 c -0.0266,0.01581 -0.0516,0.03099 -0.0781,0.04687 -0.0835,0.04899 -0.16892,0.09862 -0.25195,0.148437 -0.005,0.0029 -0.009,0.0049 -0.0137,0.0078 -0.005,0.0024 -0.007,0.0054 -0.0117,0.0078 -0.13948,0.0837 -0.27803,0.169861 -0.41602,0.25586 a 14.980377,15.022592 0 0 0 -0.15625,0.0957 c -0.0265,0.01699 -0.0517,0.03567 -0.0781,0.05273 -0.13783,0.0881 -0.27585,0.177197 -0.41211,0.267578 -0.16162,0.106979 -0.32305,0.216035 -0.48242,0.326172 a 14.980377,15.022592 0 0 0 -0.0195,0.01172 c -0.16879,0.117057 -0.33574,0.236881 -0.50195,0.357422 -0.0461,0.03337 -0.0908,0.06793 -0.13672,0.101562 -0.0286,0.02101 -0.0573,0.04139 -0.0859,0.0625 a 14.980377,15.022592 0 0 0 -0.24804,0.183594 14.980377,15.022592 0 0 0 -0.0449,0.0332 c -0.10676,0.08121 -0.21082,0.16345 -0.31641,0.246094 -0.003,0.0024 -0.006,0.0036 -0.01,0.0059 -0.0281,0.02203 -0.0579,0.04426 -0.0859,0.06641 -0.0397,0.03112 -0.0776,0.06243 -0.11719,0.09375 a 14.980377,15.022592 0 0 0 -0.0547,0.04297 c -0.10718,0.08562 -0.21438,0.170725 -0.32031,0.257813 -0.003,0.0021 -0.005,0.0057 -0.008,0.0078 -0.004,0.0032 -0.007,0.0065 -0.0117,0.0098 -0.13713,0.11275 -0.27321,0.226625 -0.40821,0.341797 a 14.980377,15.022592 0 0 0 -0.13476,0.117187 c -0.0915,0.08 -0.18294,0.159131 -0.27344,0.240235 -0.011,0.0097 -0.0223,0.01955 -0.0332,0.0293 a 14.980377,15.022592 0 0 0 -0.0195,0.01758 c -0.0297,0.02638 -0.0603,0.05163 -0.0899,0.07813 a 14.980377,15.022592 0 0 0 -0.004,0.0059 c -0.10758,0.09651 -0.21617,0.194924 -0.32227,0.292969 a 14.980377,15.022592 0 0 0 -0.13086,0.121094 c -0.0228,0.02154 -0.0437,0.04284 -0.0664,0.06445 -0.0907,0.08557 -0.18191,0.173073 -0.27149,0.259765 a 14.980377,15.022592 0 0 0 -0.16992,0.166016 c -0.0227,0.0227 -0.0457,0.04364 -0.0684,0.06641 -0.0949,0.09415 -0.18961,0.19171 -0.2832,0.28711 -0.0576,0.05869 -0.11478,0.11662 -0.17188,0.175781 -0.0306,0.03102 -0.0594,0.06064 -0.0898,0.0918 a 14.980377,15.022592 0 0 0 -0.11914,0.125 c -0.005,0.0045 -0.009,0.0091 -0.0137,0.01367 a 14.980377,15.022592 0 0 0 -0.13868,0.148437 c -0.0903,0.09744 -0.18054,0.194355 -0.26953,0.292969 -0.0183,0.02008 -0.0364,0.04041 -0.0547,0.06055 -0.008,0.0093 -0.0151,0.01995 -0.0234,0.0293 -0.089,0.09865 -0.17798,0.197066 -0.26563,0.296874 a 14.980377,15.022592 0 0 0 -0.125,0.144532 c -0.0204,0.02375 -0.0403,0.0465 -0.0605,0.07031 -0.0814,0.09476 -0.16205,0.189402 -0.24219,0.285156 -0.0884,0.10559 -0.17676,0.21159 -0.26367,0.31836 -0.005,0.0065 -0.0103,0.01299 -0.0156,0.01953 -0.011,0.01364 -0.0222,0.02736 -0.0332,0.04102 -0.0115,0.01412 -0.0217,0.02883 -0.0332,0.04297 a 14.980377,15.022592 0 0 0 -0.082,0.09961 c -0.0883,0.110804 -0.17502,0.22197 -0.26171,0.333984 -0.0164,0.02093 -0.0325,0.04153 -0.0488,0.0625 a 14.980377,15.022592 0 0 0 -0.0176,0.02148 l -0.0156,0.01953 a 14.980377,15.022592 0 0 0 -0.0527,0.06836 c -0.0976,0.127685 -0.19359,0.257526 -0.28906,0.386719 -0.005,0.0065 -0.009,0.01307 -0.0137,0.01953 -0.002,0.0024 -0.004,0.0054 -0.006,0.0078 -0.0482,0.06528 -0.0968,0.129653 -0.14454,0.195312 a 14.980377,15.022592 0 0 0 -0.12304,0.171875 c -0.0179,0.02479 -0.0369,0.04937 -0.0547,0.07422 a 14.980377,15.022592 0 0 0 -0.10547,0.150391 c -0.0983,0.14072 -0.1971,0.281495 -0.29297,0.423828 l 0.01,-0.01172 c -0.0823,0.121942 -0.16562,0.244089 -0.2461,0.367187 l 0.01,-0.0098 c -0.0393,0.05991 -0.0804,0.117554 -0.11914,0.177734 a 14.980377,15.022592 0 0 0 -0.0137,0.02344 c -0.055,0.08561 -0.108,0.171673 -0.16211,0.257812 -0.0275,0.04328 -0.0568,0.08549 -0.084,0.128907 a 14.980377,15.022592 0 0 0 -0.0762,0.123046 c -0.0458,0.07448 -0.0896,0.149748 -0.13476,0.22461 -0.0145,0.02348 -0.0285,0.04679 -0.043,0.07031 -0.0148,0.02482 -0.0302,0.04936 -0.0449,0.07422 a 14.980377,15.022592 0 0 0 -0.004,0.0098 c 0,0 -0.002,0.002 -0.002,0.002 -0.006,0.01076 -0.0131,0.02049 -0.0195,0.03125 a 14.980377,15.022592 0 0 0 -0.0898,0.146484 c -0.0644,0.110085 -0.12645,0.221169 -0.18945,0.332031 -0.0142,0.02481 -0.0288,0.04937 -0.043,0.07422 -0.007,0.01358 -0.0158,0.02742 -0.0234,0.04102 -0.0214,0.03775 -0.0412,0.07544 -0.0625,0.113281 a 14.980377,15.022592 0 0 0 -0.0644,0.113281 c -0.0708,0.12828 -0.14014,0.257462 -0.20899,0.386719 -0.0776,0.145054 -0.15323,0.291244 -0.22851,0.4375 a 14.980377,15.022592 0 0 0 -0.0215,0.03906 c -0.0346,0.06765 -0.0694,0.13523 -0.10351,0.203124 -0.048,0.0955 -0.0957,0.191131 -0.14258,0.28711 a 14.980377,15.022592 0 0 0 -0.0332,0.07227 c -0.003,0.0047 -0.005,0.0089 -0.008,0.01367 a 14.980377,15.022592 0 0 0 -0.0371,0.08008 c -0.14679,0.30469 -0.28933,0.612634 -0.42579,0.921874 a 14.980377,15.022592 0 0 0 -0.0117,0.0293 14.980377,15.022592 0 0 0 -0.0274,0.0625 c -0.0275,0.06316 -0.0549,0.126115 -0.082,0.189453 -0.051,0.118791 -0.10089,0.236064 -0.15039,0.355469 a 14.980377,15.022592 0 0 0 -0.006,0.01563 c -0.0603,0.145794 -0.11975,0.290826 -0.17773,0.4375 -0.002,0.0035 -1.5e-4,0.0063 -0.002,0.0098 -0.004,0.0084 -0.008,0.017 -0.0117,0.02539 -0.009,0.02221 -0.0167,0.04418 -0.0254,0.06641 -0.01,0.02416 -0.0179,0.05004 -0.0273,0.07422 a 14.980377,15.022592 0 0 0 -0.14453,0.371093 14.980377,15.022592 0 0 0 -0.0898,0.244141 c -0.01,0.02782 -0.0214,0.05614 -0.0312,0.08398 -0.0418,0.116705 -0.0827,0.234378 -0.12305,0.351563 -0.0153,0.04416 -0.0299,0.08858 -0.0449,0.132812 l 0.0156,-0.03906 a 14.980377,15.022592 0 0 0 -0.0117,0.03516 14.980377,15.022592 0 0 0 -0.002,0.0059 14.980377,15.022592 0 0 0 -0.0762,0.220704 14.980377,15.022592 0 0 0 -0.006,0.01562 c -7.7e-4,0.0023 -0.001,0.0055 -0.002,0.0078 l -0.006,0.01172 a 14.980377,15.022592 0 0 0 -0.004,0.01367 14.980377,15.022592 0 0 0 -0.01,0.02344 14.980377,15.022592 0 0 0 -0.002,0.0078 c -0.009,0.02663 -0.0167,0.05343 -0.0254,0.08008 a 14.980377,15.022592 0 0 0 -0.0195,0.05469 L 197.65625,133.6875 H 65.457031 a 14.980377,15.022592 0 0 0 -0.0059,0 c -26.150873,0.009 -38.47981,34.8237 -19.414063,52.35352 a 14.980377,15.022592 0 0 0 0.0039,0.002 L 149.50781,281.12305 93.25,453.38672 a 14.980377,15.022592 0 0 0 0,0.006 c -4.090611,12.53775 0.138389,26.43857 11.02148,34.19922 10.8831,7.76065 26.1972,6.73896 36.01368,-2.27539 a 14.980377,15.022592 0 0 0 0.004,-0.004 L 256,378.98438 371.71094,485.3125 a 14.980377,15.022592 0 0 0 0.002,0.004 c 9.81648,9.01433 25.13254,10.03603 36.01563,2.27539 10.88308,-7.76065 15.11403,-21.66148 11.02343,-34.19922 a 14.980377,15.022592 0 0 0 -0.002,-0.006 L 362.49219,281.12305 465.95898,186.04297 a 14.980377,15.022592 0 0 0 0.002,-0.002 c 19.06575,-17.52982 6.73876,-52.34418 -19.41211,-52.35352 a 14.980377,15.022592 0 0 0 -0.004,0 H 314.34375 l -30.55078,-93.548828 0.11914,0.470703 A 14.980377,15.022592 0 0 0 283.63477,39.6562 c -0.0366,-0.111783 -0.0735,-0.224566 -0.11133,-0.335938 l -0.0293,-0.08594 c -9e-4,-0.0035 -0.003,-0.0082 -0.004,-0.01172 a 14.980377,15.022592 0 0 0 -0.0351,-0.101562 c -0.0653,-0.188588 -0.13405,-0.377129 -0.20313,-0.564453 v -0.0078 c -0.0688,-0.186492 -0.14047,-0.369518 -0.21289,-0.554687 a 14.980377,15.022592 0 0 0 -0.0195,-0.04883 c -0.0261,-0.06616 -0.0535,-0.133238 -0.0801,-0.199218 a 14.980377,15.022592 0 0 0 -0.006,-0.01953 l -0.0527,-0.126953 c -0.0104,-0.02604 -0.0207,-0.05212 -0.0312,-0.07813 a 14.980377,15.022592 0 0 0 -0.0723,-0.177734 c -0.0653,-0.156441 -0.13125,-0.311426 -0.19922,-0.466797 l -0.002,-0.0039 c -0.0733,-0.167634 -0.14823,-0.333666 -0.22461,-0.5 -0.003,-0.0065 -0.007,-0.01303 -0.01,-0.01953 a 14.980377,15.022592 0 0 0 -0.043,-0.0918 c -0.0716,-0.154564 -0.14262,-0.309507 -0.2168,-0.462891 A 14.980377,15.022592 0 0 0 282.05664,35.75 c -0.0889,-0.18193 -0.17901,-0.36474 -0.27148,-0.544922 a 14.980377,15.022592 0 0 0 -0.002,-0.0039 c -0.0592,-0.115235 -0.11901,-0.229257 -0.17968,-0.34375 l -0.0195,-0.0332 c -0.22037,-0.416641 -0.44958,-0.830072 -0.68945,-1.236328 a 14.980377,15.022592 0 0 0 -0.0351,-0.06055 c -0.009,-0.01444 -0.0187,-0.02854 -0.0274,-0.04297 l -0.0371,-0.0625 c -0.0615,-0.102788 -0.1228,-0.204567 -0.18554,-0.306641 a 14.980377,15.022592 0 0 0 -0.082,-0.128906 c -0.0276,-0.04435 -0.0562,-0.0886 -0.084,-0.132812 a 14.980377,15.022592 0 0 0 -0.0508,-0.08203 c -0.01,-0.01524 -0.0193,-0.0297 -0.0293,-0.04492 -0.0243,-0.03827 -0.0477,-0.07707 -0.0723,-0.115234 l -0.0352,-0.05273 c -0.0816,-0.127005 -0.16258,-0.253104 -0.24609,-0.378906 a 14.980377,15.022592 0 0 0 -0.11915,-0.173829 l -0.002,-0.0039 c -0.21694,-0.319071 -0.44061,-0.632641 -0.66992,-0.943359 l -0.008,-0.01172 c -0.10701,-0.145417 -0.21455,-0.288127 -0.32422,-0.431641 a 14.980377,15.022592 0 0 0 -0.0508,-0.07031 C 278.72558,30.402199 278.61299,30.26188 278.5,30.121094 l -0.0176,-0.02344 c -0.0632,-0.07888 -0.12731,-0.156162 -0.1914,-0.234375 l -0.0312,-0.03906 c -0.0487,-0.05957 -0.0973,-0.118532 -0.14649,-0.177735 a 14.980377,15.022592 0 0 0 -0.0547,-0.06445 c -0.2075,-0.247063 -0.41915,-0.490114 -0.63476,-0.730469 l -0.0176,-0.01953 c -0.009,-0.0103 -0.018,-0.02097 -0.0273,-0.03125 a 14.980377,15.022592 0 0 0 -0.12305,-0.136719 c -0.12625,-0.138373 -0.2539,-0.278046 -0.38281,-0.414062 a 14.980377,15.022592 0 0 0 -0.0117,-0.0098 c -0.0738,-0.07772 -0.14797,-0.155479 -0.22266,-0.232422 l -0.006,-0.0098 c -0.0413,-0.04255 -0.0854,-0.08465 -0.12695,-0.126953 -0.0122,-0.01242 -0.0249,-0.02471 -0.0371,-0.03711 a 14.980377,15.022592 0 0 0 -0.0723,-0.07422 c -0.11363,-0.114268 -0.22821,-0.227409 -0.34375,-0.339844 l -0.0234,-0.02344 c -0.20033,-0.19493 -0.40344,-0.386891 -0.60938,-0.576172 l -0.0176,-0.01562 c -0.0935,-0.08596 -0.18854,-0.173051 -0.2832,-0.257813 l -0.0137,-0.01172 c -0.12409,-0.111089 -0.24897,-0.221071 -0.375,-0.330078 a 14.980377,15.022592 0 0 0 -0.0996,-0.08594 c -0.13596,-0.115993 -0.27204,-0.230215 -0.41016,-0.34375 l -0.0156,-0.01367 c -0.12706,-0.10444 -0.25591,-0.208224 -0.38477,-0.310547 a 14.980377,15.022592 0 0 0 -0.0273,-0.02148 l -0.0488,-0.03906 a 14.980377,15.022592 0 0 0 -0.0391,-0.03125 c -0.11141,-0.0878 -0.22323,-0.17357 -0.33594,-0.259766 a 14.980377,15.022592 0 0 0 -0.01,-0.0098 c -0.0286,-0.02182 -0.0592,-0.04274 -0.0879,-0.06445 a 14.980377,15.022592 0 0 0 -0.0527,-0.03906 c -0.15521,-0.116472 -0.31117,-0.2323 -0.46875,-0.345703 l -0.0176,-0.01172 c -0.0616,-0.04434 -0.12357,-0.087 -0.18554,-0.130859 -0.0215,-0.0155 -0.0411,-0.03143 -0.0625,-0.04687 A 14.980377,15.022592 0 0 0 272.37695,24.375 l -0.0176,-0.01367 a 14.980377,15.022592 0 0 0 -0.0254,-0.01563 14.980377,15.022592 0 0 0 -0.14648,-0.105469 c -0.13355,-0.09163 -0.26918,-0.180111 -0.4043,-0.269531 l -0.0234,-0.01758 c -0.16332,-0.108085 -0.3286,-0.213553 -0.49415,-0.318359 a 14.980377,15.022592 0 0 0 -0.002,0 c -0.20014,-0.126671 -0.40022,-0.251257 -0.60351,-0.373047 a 14.980377,15.022592 0 0 0 -0.0527,-0.03125 c -0.163,-0.09676 -0.32724,-0.191575 -0.49219,-0.285157 a 14.980377,15.022592 0 0 0 -0.008,-0.0039 14.980377,15.022592 0 0 0 -0.0391,-0.02344 c -0.0393,-0.02208 -0.0798,-0.04451 -0.11914,-0.06641 -0.0993,-0.05597 -0.19889,-0.111204 -0.29883,-0.166015 a 14.980377,15.022592 0 0 0 -0.0879,-0.04883 c -0.15207,-0.08211 -0.3054,-0.160847 -0.45898,-0.240235 a 14.980377,15.022592 0 0 0 -0.0605,-0.0332 l -0.0195,-0.0098 c -0.17451,-0.0897 -0.35097,-0.177519 -0.52735,-0.263672 -0.156,-0.07623 -0.31328,-0.151195 -0.4707,-0.22461 a 14.980377,15.022592 0 0 0 -0.17383,-0.08008 l -0.0449,-0.01953 a 14.980377,15.022592 0 0 0 -0.0195,-0.01172 c -0.0134,-0.0061 -0.0276,-0.01156 -0.041,-0.01758 a 14.980377,15.022592 0 0 0 -0.01,-0.0039 14.980377,15.022592 0 0 0 -0.006,0 c -0.005,-0.0025 -0.0119,-0.0053 -0.0176,-0.0078 l -0.002,-0.002 c -0.0933,-0.04232 -0.18558,-0.08366 -0.2793,-0.125 a 14.980377,15.022592 0 0 0 -0.0527,-0.02344 c -0.18305,-0.07992 -0.36604,-0.158263 -0.55079,-0.234375 l -0.0137,-0.0059 c -0.18215,-0.07505 -0.36511,-0.147446 -0.54883,-0.21875 a 14.980377,15.022592 0 0 0 -0.1289,-0.05078 c -0.0361,-0.01363 -0.0713,-0.02754 -0.10742,-0.04102 l 0.10351,0.04102 c -0.10889,-0.04154 -0.21674,-0.08088 -0.32617,-0.121094 -0.008,-0.0028 -0.0156,-0.0069 -0.0234,-0.0098 a 14.980377,15.022592 0 0 0 -0.20508,-0.07617 c -0.18591,-0.06603 -0.37324,-0.129223 -0.56054,-0.191406 -0.0376,-0.01266 -0.0756,-0.0246 -0.11328,-0.03711 -0.0977,-0.03241 -0.19487,-0.06435 -0.29297,-0.0957 a 14.980377,15.022592 0 0 0 -0.0879,-0.02734 c -0.0632,-0.01976 -0.12807,-0.03926 -0.19141,-0.05859 l -0.14258,-0.04297 c -0.0271,-0.0081 -0.055,-0.01737 -0.082,-0.02539 -0.009,-0.0027 -0.0164,-0.0051 -0.0254,-0.0078 a 14.980377,15.022592 0 0 0 -0.22265,-0.06641 l -0.0332,-0.0098 a 14.980377,15.022592 0 0 0 -0.0293,-0.0078 c -0.005,-0.0014 -0.009,-0.0025 -0.0137,-0.0039 a 14.980377,15.022592 0 0 0 -0.29882,-0.08203 c -0.0584,-0.01597 -0.11736,-0.03323 -0.17579,-0.04883 a 14.980377,15.022592 0 0 0 -0.0254,-0.0078 c -0.17929,-0.04751 -0.35884,-0.09272 -0.53906,-0.136719 -0.20005,-0.04927 -0.4024,-0.0957 -0.60352,-0.140624 a 14.980377,15.022592 0 0 0 -0.006,-0.002 c -0.18039,-0.04021 -0.35985,-0.07854 -0.54102,-0.115234 a 14.980377,15.022592 0 0 0 -0.19922,-0.03906 c -0.022,-0.0042 -0.0443,-0.0076 -0.0664,-0.01172 l -0.15624,-0.0293 c -0.0963,-0.01838 -0.19247,-0.03585 -0.28907,-0.05273 -0.1725,-0.03016 -0.34647,-0.05898 -0.51953,-0.08594 a 14.980377,15.022592 0 0 0 -0.041,-0.0039 c -0.0797,-0.0122 -0.15845,-0.02559 -0.23829,-0.03711 -0.13039,-0.01908 -0.26191,-0.03742 -0.39257,-0.05469 l -0.01,-0.002 c -0.20088,-0.02654 -0.40209,-0.05002 -0.60352,-0.07227 a 14.980377,15.022592 0 0 0 -0.11328,-0.01172 c -0.17286,-0.01776 -0.34634,-0.03425 -0.51953,-0.04883 -0.17943,-0.01555 -0.35935,-0.03084 -0.53906,-0.04297 a 14.980377,15.022592 0 0 0 -0.0234,0 c -0.1077,-0.0071 -0.21449,-0.01367 -0.32226,-0.01953 -0.0289,-0.0017 -0.059,-0.0041 -0.0879,-0.0059 a 14.980377,15.022592 0 0 0 -0.25196,-0.01367 c -0.18425,-0.0075 -0.36835,-0.01362 -0.55273,-0.01758 -0.17429,-0.0041 -0.3491,-0.005 -0.52344,-0.0059 -0.0336,-1.69e-4 -0.068,5e-5 -0.10156,0 a 14.980377,15.022592 0 0 0 -0.18555,0 14.980377,15.022592 0 0 0 -0.002,0 z m 0.0762,15.021485 h 0.002 c 0.0452,-2.28e-4 0.0896,-2.28e-4 0.13477,0 0.0825,4.17e-4 0.16561,0.002 0.24805,0.0039 0.0975,0.0019 0.19355,0.0038 0.29101,0.0078 0.0379,0.0022 0.0773,0.0053 0.11524,0.0078 0.0596,0.0031 0.1181,0.0058 0.17773,0.0098 0.0976,0.0066 0.19556,0.01472 0.29297,0.02344 0.082,0.0069 0.16429,0.01503 0.24609,0.02344 0.0971,0.01071 0.1942,0.02233 0.29102,0.03516 0.0636,0.0084 0.12602,0.0161 0.18945,0.02539 0.0479,0.0068 0.0967,0.01416 0.14453,0.02148 0.082,0.01278 0.16429,0.02672 0.2461,0.04102 0.0708,0.01238 0.14026,0.02555 0.21093,0.03906 0.0351,0.0063 0.0704,0.01292 0.10547,0.01953 0.086,0.01741 0.17221,0.0356 0.25782,0.05469 0.0955,0.02133 0.19011,0.043 0.28515,0.06641 0.0955,0.02309 0.19208,0.04709 0.28711,0.07227 0.0871,0.02326 0.17308,0.04726 0.25977,0.07227 0.01,0.0024 0.0198,0.0054 0.0293,0.0078 0.0402,0.01218 0.0791,0.02456 0.11914,0.03711 0.0659,0.01951 0.13166,0.04003 0.19727,0.06055 0.0648,0.0207 0.13079,0.04082 0.19531,0.0625 0.10737,0.03515 0.21377,0.07153 0.32031,0.109375 0.009,0.0035 0.0163,0.0082 0.0254,0.01172 0.0681,0.02476 0.1373,0.04836 0.20507,0.07422 0.0173,0.0064 0.0336,0.01302 0.0508,0.01953 0.09,0.03495 0.18021,0.0725 0.26953,0.109375 0.0906,0.03728 0.18162,0.07404 0.27148,0.113281 0.0643,0.02835 0.12752,0.05855 0.19141,0.08789 0.0329,0.01459 0.0668,0.02812 0.0996,0.04297 l 0.0195,0.0098 c 0.0755,0.03521 0.14968,0.07082 0.22461,0.107422 0.0884,0.04319 0.17803,0.0877 0.26562,0.132812 0.0139,0.007 0.0271,0.0144 0.041,0.02148 0.0739,0.03817 0.14749,0.07571 0.2207,0.115234 0.0739,0.04052 0.1475,0.08311 0.2207,0.125 0.019,0.01055 0.0377,0.02061 0.0566,0.03125 0.0795,0.04512 0.15956,0.09 0.23829,0.136719 0.0982,0.05881 0.19419,0.120368 0.29101,0.181641 0.0841,0.05324 0.16888,0.107038 0.25195,0.162109 0.0695,0.04587 0.13835,0.09154 0.20704,0.138672 l 0.0195,0.01367 c 0.0195,0.01407 0.0391,0.02879 0.0586,0.04297 0.0678,0.04707 0.13607,0.09429 0.20313,0.142579 0.0791,0.05685 0.15637,0.115299 0.23437,0.173828 0.0139,0.01057 0.029,0.02063 0.043,0.03125 0.0549,0.04197 0.10781,0.08416 0.16211,0.126953 0.0117,0.0094 0.0235,0.01986 0.0352,0.0293 0.078,0.06155 0.15559,0.124259 0.23242,0.1875 0.0702,0.05758 0.13985,0.114859 0.20898,0.173828 l 0.0215,0.01758 c 0.064,0.05533 0.12638,0.111459 0.18945,0.167969 0.0516,0.04612 0.10335,0.09373 0.1543,0.140625 0.10783,0.09895 0.21339,0.198425 0.31836,0.300781 0.0607,0.0589 0.122,0.119678 0.18164,0.179688 l 0.0117,0.01367 c 0.033,0.03339 0.067,0.06589 0.0996,0.09961 0.0381,0.03921 0.0756,0.07948 0.11328,0.11914 0.0636,0.06706 0.12711,0.134798 0.18946,0.203125 0.008,0.0094 0.0172,0.01792 0.0254,0.02734 0.008,0.0094 0.0153,0.01987 0.0234,0.0293 0.11815,0.130808 0.23407,0.263192 0.34765,0.398437 0.0297,0.03576 0.0605,0.07137 0.0899,0.107422 0.0444,0.05382 0.0872,0.10762 0.13086,0.16211 0.0592,0.07357 0.11795,0.147888 0.17578,0.222656 0.0558,0.07303 0.11154,0.146574 0.16601,0.220703 0.12021,0.162256 0.2378,0.328733 0.35156,0.496094 0.009,0.01294 0.0163,0.02414 0.0254,0.03711 0.0474,0.07138 0.0944,0.144549 0.14062,0.216797 0.0457,0.07082 0.0922,0.141255 0.13672,0.212891 0.0139,0.02115 0.0272,0.04322 0.041,0.06445 0.0388,0.06327 0.0772,0.125571 0.11523,0.189453 0.0106,0.01764 0.0207,0.03701 0.0312,0.05469 0.12362,0.209374 0.24375,0.421142 0.35742,0.636718 0.0356,0.06682 0.0689,0.13378 0.10352,0.201172 0.0466,0.09074 0.0939,0.181698 0.13867,0.273438 0.0374,0.07736 0.0733,0.156334 0.10937,0.234375 0.007,0.0147 0.0132,0.02824 0.0195,0.04297 0.0427,0.09255 0.0841,0.185835 0.125,0.279297 0.0346,0.07915 0.0702,0.1585 0.10351,0.238282 l 0.008,0.02148 c 0.014,0.03468 0.0273,0.06873 0.041,0.103516 0.0278,0.06748 0.0552,0.135216 0.082,0.203124 0.0371,0.09497 0.0741,0.191355 0.10937,0.28711 0.0355,0.09616 0.07,0.192147 0.10352,0.289062 0.006,0.01647 0.0102,0.03233 0.0156,0.04883 0.0273,0.07923 0.054,0.158575 0.0801,0.238282 l 0.002,0.0078 34.08203,104.361328 h 143.05859 c 13.09729,0.005 19.17336,17.17534 9.29297,26.25977 l -110.58594,101.625 59.26367,181.46875 c 2.08988,6.4055 -0.15362,13.49694 -5.46874,17.28711 -5.31513,3.79018 -12.37686,3.33507 -17.2168,-1.10938 L 256,358.60938 130.16992,474.24023 c -4.83994,4.44447 -11.90166,4.89956 -17.2168,1.10938 -5.31513,-3.79018 -7.55863,-10.8816 -5.46874,-17.28711 L 166.74805,276.59375 56.162109,174.96875 c -9.880392,-9.08443 -3.804321,-26.25523 9.292969,-26.25977 H 208.51367 l 34.07813,-104.359371 0.006,-0.01367 0.0117,-0.03516 0.006,-0.01758 c 0.0299,-0.09155 0.0603,-0.184464 0.0918,-0.275391 0.0282,-0.08209 0.0583,-0.162585 0.0879,-0.24414 0.005,-0.01414 0.0102,-0.02885 0.0156,-0.04297 l 0.004,-0.0098 c 0.0348,-0.09279 0.0709,-0.185303 0.10743,-0.277344 0.0317,-0.08035 0.0647,-0.160476 0.0977,-0.240235 0.0274,-0.06614 0.0557,-0.133502 0.084,-0.199218 0.0182,-0.04247 0.0361,-0.08466 0.0547,-0.126953 v -0.002 c 0.076,-0.172289 0.15416,-0.342614 0.23633,-0.511718 0.007,-0.01414 0.0152,-0.0269 0.0215,-0.04102 0.0242,-0.04959 0.0475,-0.09913 0.0723,-0.148438 0.0172,-0.03421 0.0354,-0.06944 0.0527,-0.103515 0.0433,-0.08404 0.0861,-0.166857 0.13086,-0.25 0.0346,-0.06503 0.0699,-0.130838 0.10546,-0.195313 0.0216,-0.03837 0.0445,-0.07512 0.0664,-0.113281 0.0423,-0.07516 0.0854,-0.150248 0.12891,-0.224609 0.007,-0.01178 0.0142,-0.0234 0.0215,-0.03516 0.0106,-0.01768 0.0207,-0.03705 0.0312,-0.05469 0.0379,-0.06388 0.0763,-0.126186 0.11523,-0.189453 0.0271,-0.04312 0.0545,-0.08608 0.082,-0.128906 0.0271,-0.04312 0.0545,-0.08608 0.082,-0.128907 0.0194,-0.0301 0.0389,-0.05989 0.0586,-0.08984 0.0402,-0.06154 0.08,-0.122696 0.1211,-0.183594 0.0479,-0.07109 0.0974,-0.1427 0.14648,-0.212891 0.009,-0.01238 0.0163,-0.02476 0.0254,-0.03711 l 0.004,-0.0039 c 0.0577,-0.08127 0.11651,-0.162172 0.17578,-0.242188 0.0507,-0.06876 0.10244,-0.135315 0.15429,-0.203125 l 0.0137,-0.01953 c 0.0211,-0.02716 0.0432,-0.05503 0.0645,-0.08203 0.043,-0.05566 0.0871,-0.111013 0.13086,-0.166016 0.0138,-0.0171 0.0271,-0.03375 0.041,-0.05078 0.0519,-0.06404 0.10536,-0.128299 0.15821,-0.191407 0.0546,-0.06526 0.10841,-0.129116 0.16406,-0.193359 0.01,-0.01179 0.0212,-0.0234 0.0312,-0.03516 0.0563,-0.0641 0.11255,-0.128358 0.16992,-0.191406 0.0569,-0.06352 0.11396,-0.126999 0.17188,-0.189453 0.015,-0.01534 0.0299,-0.02965 0.0449,-0.04492 0.0646,-0.06836 0.12952,-0.136097 0.19531,-0.203125 0.0701,-0.07141 0.14149,-0.143024 0.21289,-0.212891 0.0111,-0.0112 0.0221,-0.02204 0.0332,-0.0332 0.0608,-0.05884 0.12178,-0.116117 0.18359,-0.173828 0.0111,-0.01062 0.0221,-0.02263 0.0332,-0.0332 0.052,-0.04809 0.10554,-0.0953 0.15821,-0.142578 0.0145,-0.01298 0.0284,-0.02614 0.043,-0.03906 0.0327,-0.029 0.0666,-0.05725 0.0996,-0.08594 0.0443,-0.03973 0.088,-0.07999 0.13282,-0.119141 0.0691,-0.05897 0.13885,-0.116244 0.20898,-0.173828 0.0548,-0.04517 0.11054,-0.09046 0.16602,-0.134766 0.0344,-0.02725 0.0688,-0.05512 0.10351,-0.08203 0.0664,-0.05242 0.13198,-0.103116 0.19922,-0.154297 l 0.006,-0.0039 c 0.0774,-0.05852 0.15583,-0.116972 0.23437,-0.173828 0.0808,-0.05858 0.16225,-0.11508 0.24415,-0.171875 0.0814,-0.05622 0.16365,-0.111574 0.24609,-0.166016 0.083,-0.05507 0.16593,-0.108871 0.25,-0.162109 0.0129,-0.0083 0.0262,-0.01717 0.0391,-0.02539 0.071,-0.04422 0.14122,-0.08796 0.21289,-0.130859 0.0848,-0.05096 0.17017,-0.101286 0.25586,-0.150391 0.0128,-0.0077 0.0262,-0.01581 0.0391,-0.02344 0.0588,-0.03341 0.11847,-0.06513 0.17774,-0.09766 0.0178,-0.01005 0.0349,-0.02128 0.0527,-0.03125 0.0832,-0.04502 0.16603,-0.08758 0.25,-0.130859 0.0133,-0.0071 0.0276,-0.01444 0.041,-0.02148 0.04,-0.02021 0.0809,-0.04073 0.12109,-0.06055 0.0433,-0.02202 0.0854,-0.04291 0.12891,-0.06445 0.0799,-0.03905 0.16165,-0.07776 0.24219,-0.115234 0.0134,-0.0065 0.0257,-0.01308 0.0391,-0.01953 0.0639,-0.02934 0.12716,-0.05759 0.1914,-0.08594 0.0173,-0.0077 0.0354,-0.01582 0.0527,-0.02344 0.0228,-0.0095 0.0455,-0.01994 0.0684,-0.0293 0.0761,-0.03308 0.15196,-0.06403 0.22851,-0.0957 0.0772,-0.03192 0.15469,-0.06327 0.23243,-0.09375 0.0123,-0.0047 0.0248,-0.01093 0.0371,-0.01563 0.0794,-0.03078 0.16034,-0.06057 0.24024,-0.08984 0.0639,-0.02285 0.12716,-0.04452 0.19141,-0.06641 0.0428,-0.01493 0.0859,-0.03042 0.1289,-0.04492 0.0783,-0.02663 0.1576,-0.05099 0.23633,-0.07617 l 0.006,-0.002 c 0.0728,-0.02299 0.14563,-0.04661 0.21875,-0.06836 0.0228,-0.0071 0.0455,-0.01448 0.0684,-0.02148 0.0356,-0.01015 0.0718,-0.01944 0.10742,-0.0293 0.069,-0.01939 0.13781,-0.03835 0.20703,-0.05664 0.0801,-0.02134 0.15988,-0.04069 0.24024,-0.06055 l 0.0234,-0.0059 c 0.0873,-0.02148 0.17404,-0.04277 0.26172,-0.0625 0.0823,-0.01844 0.16543,-0.03585 0.24805,-0.05273 0.0178,-0.0036 0.0349,-0.0063 0.0527,-0.0098 0.0357,-0.0072 0.0718,-0.01456 0.10743,-0.02148 0.0707,-0.01352 0.14203,-0.02668 0.21289,-0.03906 0.12676,-0.02184 0.25358,-0.04236 0.38086,-0.06055 0.0657,-0.0099 0.13147,-0.01841 0.19726,-0.02734 0.0824,-0.01077 0.16552,-0.02201 0.24805,-0.03125 0.0968,-0.01047 0.19204,-0.01899 0.28906,-0.02734 0.0974,-0.0087 0.1954,-0.01685 0.29297,-0.02344 0.015,-0.0012 0.0299,-0.0028 0.0449,-0.0039 0.0446,-0.0026 0.0901,-0.0037 0.13477,-0.0059 0.0379,-0.0025 0.0754,-0.0056 0.11328,-0.0078 0.0975,-0.004 0.19544,-0.0079 0.29297,-0.0098 0.0824,-0.0019 0.16365,-0.0015 0.24609,-0.002 z M 256,95.064453 238.48047,148.70898 h 35.03906 z m -152.67188,83.578127 73.38477,67.43554 22.02539,-67.43554 z m 125.37696,0 -28.94141,88.61914 L 256,318.9375 312.23633,267.26172 283.29492,178.64258 Z m 84.55664,0 22.02539,67.43554 73.38477,-67.43554 z M 141.8457,193.66406 h 36.22266 l -8.36133,25.60352 z m 97.71485,0 h 32.8789 L 294.99609,262.73047 256,298.56445 217.00586,262.73047 Z m 94.36914,0 h 36.22265 l -27.86132,25.60156 z m -144.13086,104.11133 -38.25977,117.15625 82.87696,-76.1582 z m 132.40234,0 -44.61719,40.99805 82.87696,76.1582 z m -125.39648,26.81055 15.4414,14.1875 -28.67968,26.35351 z m 118.38867,0 13.24219,40.54297 -28.68164,-26.35547 z"
         style="color:#000000;font-style:normal;font-variant:normal;font-weight:normal;font-stretch:normal;font-size:medium;line-height:normal;font-family:sans-serif;font-variant-ligatures:normal;font-variant-position:normal;font-variant-caps:normal;font-variant-numeric:normal;font-variant-alternates:normal;font-variant-east-asian:normal;font-feature-settings:normal;font-variation-settings:normal;text-indent:0;text-align:start;text-decoration:none;text-decoration-line:none;text-decoration-style:solid;text-decoration-color:#000000;letter-spacing:normal;word-spacing:normal;text-transform:none;writing-mode:lr-tb;direction:ltr;text-orientation:mixed;dominant-baseline:auto;baseline-shift:baseline;text-anchor:start;white-space:normal;shape-padding:0;shape-margin:0;inline-size:0;clip-rule:nonzero;display:inline;overflow:visible;visibility:visible;isolation:auto;mix-blend-mode:normal;color-interpolation:sRGB;color-interpolation-filters:linearRGB;solid-color:#000000;solid-opacity:1;vector-effect:none;fill:#000000;fill-opacity:1;fill-rule:nonzero;stroke:none;stroke-width:29.9999;stroke-linecap:butt;stroke-linejoin:round;stroke-miterlimit:4;stroke-dasharray:none;stroke-dashoffset:0;stroke-opacity:1;paint-order:stroke fill markers;color-rendering:auto;image-rendering:auto;shape-rendering:auto;text-rendering:auto;enable-background:accumulate;stop-color:#000000"
         id="path844" />
    </g>
  </g>
</svg>
