<?xml version="1.0" encoding="UTF-8" standalone="no"?>
<svg
   xmlns:dc="http://purl.org/dc/elements/1.1/"
   xmlns:cc="http://creativecommons.org/ns#"
   xmlns:rdf="http://www.w3.org/1999/02/22-rdf-syntax-ns#"
   xmlns:svg="http://www.w3.org/2000/svg"
   xmlns="http://www.w3.org/2000/svg"
   xmlns:sodipodi="http://sodipodi.sourceforge.net/DTD/sodipodi-0.dtd"
   xmlns:inkscape="http://www.inkscape.org/namespaces/inkscape"
   viewBox="0 0 512 512"
   width="512"
   height="512"
   version="1.1"
   id="svg5"
   sodipodi:docname="magic-spell_bw.svg"
   inkscape:version="1.0 (4035a4fb49, 2020-05-01)">
  <title
     id="title837">Magic: Spells</title>
  <metadata
     id="metadata11">
    <rdf:RDF>
      <cc:Work
         rdf:about="">
        <dc:format>image/svg+xml</dc:format>
        <dc:type
           rdf:resource="http://purl.org/dc/dcmitype/StillImage" />
        <dc:title>Magic: Spells</dc:title>
        <cc:license
           rdf:resource="http://creativecommons.org/licenses/by-sa/4.0/" />
        <dc:date>2022.02.05</dc:date>
        <dc:creator>
          <cc:Agent>
            <dc:title>Streuner²</dc:title>
          </cc:Agent>
        </dc:creator>
        <dc:contributor>
          <cc:Agent>
            <dc:title>completely selfmade</dc:title>
          </cc:Agent>
        </dc:contributor>
      </cc:Work>
      <cc:License
         rdf:about="http://creativecommons.org/licenses/by-sa/4.0/">
        <cc:permits
           rdf:resource="http://creativecommons.org/ns#Reproduction" />
        <cc:permits
           rdf:resource="http://creativecommons.org/ns#Distribution" />
        <cc:requires
           rdf:resource="http://creativecommons.org/ns#Notice" />
        <cc:requires
           rdf:resource="http://creativecommons.org/ns#Attribution" />
        <cc:permits
           rdf:resource="http://creativecommons.org/ns#DerivativeWorks" />
        <cc:requires
           rdf:resource="http://creativecommons.org/ns#ShareAlike" />
      </cc:License>
    </rdf:RDF>
  </metadata>
  <defs
     id="defs9" />
  <sodipodi:namedview
     guideopacity="0.49803922"
     guidecolor="#00ff00"
     inkscape:guide-bbox="true"
     showguides="true"
     inkscape:showpageshadow="false"
     borderlayer="false"
     inkscape:document-rotation="0"
     pagecolor="#323232"
     bordercolor="#666666"
     borderopacity="1"
     objecttolerance="10"
     gridtolerance="10"
     guidetolerance="10"
     inkscape:pageopacity="0.61960784"
     inkscape:pageshadow="2"
     inkscape:window-width="3840"
     inkscape:window-height="2066"
     id="namedview7"
     showgrid="false"
     inkscape:zoom="1.7111432"
     inkscape:cx="265.04283"
     inkscape:cy="289.06768"
     inkscape:window-x="3829"
     inkscape:window-y="-11"
     inkscape:window-maximized="1"
     inkscape:current-layer="g987">
    <sodipodi:guide
       inkscape:color="rgb(0,255,0)"
       inkscape:locked="false"
       inkscape:label=""
       id="guide869"
       orientation="-1,0"
       position="256,256" />
    <sodipodi:guide
       inkscape:color="rgb(0,255,0)"
       inkscape:locked="false"
       inkscape:label=""
       id="guide905"
       orientation="0,1"
       position="256,256" />
  </sodipodi:namedview>
  <filter
     id="shadow">
    <feDropShadow
       dx="6"
       dy="12"
       stdDeviation="6" />
  </filter>
  <g
     style="stroke-width:1.54493;stroke-miterlimit:4;stroke-dasharray:none"
     transform="matrix(0.90491517,0,0,0.90746524,23.072155,38.656116)"
     id="g987">
    <path
       id="path838"
       d="m 470.14169,239.50656 c 0,117.14937 -95.24638,212.11769 -212.73874,212.11769 -117.49236,0 -212.738735,-94.96833 -212.738735,-212.11769 0,-117.14936 95.246375,-212.117687 212.738735,-212.11769 117.49236,0 212.73874,94.96832 212.73874,212.11769"
       style="color:#000000;font-style:normal;font-variant:normal;font-weight:normal;font-stretch:normal;font-size:medium;line-height:normal;font-family:sans-serif;font-variant-ligatures:normal;font-variant-position:normal;font-variant-caps:normal;font-variant-numeric:normal;font-variant-alternates:normal;font-variant-east-asian:normal;font-feature-settings:normal;font-variation-settings:normal;text-indent:0;text-align:start;text-decoration:none;text-decoration-line:none;text-decoration-style:solid;text-decoration-color:#000000;letter-spacing:normal;word-spacing:normal;text-transform:none;writing-mode:lr-tb;direction:ltr;text-orientation:mixed;dominant-baseline:auto;baseline-shift:baseline;text-anchor:start;white-space:normal;shape-padding:0;shape-margin:0;inline-size:0;clip-rule:nonzero;display:inline;overflow:visible;visibility:visible;isolation:auto;mix-blend-mode:normal;color-interpolation:sRGB;color-interpolation-filters:linearRGB;solid-color:#000000;solid-opacity:1;vector-effect:none;fill:#ffffff;fill-opacity:1;fill-rule:evenodd;stroke:none;stroke-width:16.5529;stroke-linecap:round;stroke-linejoin:round;stroke-miterlimit:4;stroke-dasharray:none;stroke-dashoffset:0;stroke-opacity:1;paint-order:normal;color-rendering:auto;image-rendering:auto;shape-rendering:auto;text-rendering:auto;enable-background:accumulate;stop-color:#000000" />
    <path
       id="path840"
       d="m 257.40234,19.113281 c -121.95222,3e-6 -221.013668,98.757189 -221.013668,220.392579 0,121.63538 99.061448,220.39453 221.013668,220.39453 121.8025,0 220.76106,-98.5194 221.00391,-219.94922 2e-5,-0.008 0.002,-0.0156 0.002,-0.0234 a 8.2764502,8.2764502 0 0 0 0.01,-0.42187 8.2764502,8.2764502 0 0 0 -0.01,-0.38477 C 478.19832,117.66332 379.2252,19.113281 257.40234,19.113281 Z m 0,16.552735 c 113.0325,0 204.46289,91.176504 204.46289,203.839844 0,112.66334 -91.43039,203.8418 -204.46289,203.8418 -113.03249,-1e-5 -204.460934,-91.17846 -204.460934,-203.8418 0,-112.66334 91.428444,-203.839842 204.460934,-203.839844 z"
       style="color:#000000;font-style:normal;font-variant:normal;font-weight:normal;font-stretch:normal;font-size:medium;line-height:normal;font-family:sans-serif;font-variant-ligatures:normal;font-variant-position:normal;font-variant-caps:normal;font-variant-numeric:normal;font-variant-alternates:normal;font-variant-east-asian:normal;font-feature-settings:normal;font-variation-settings:normal;text-indent:0;text-align:start;text-decoration:none;text-decoration-line:none;text-decoration-style:solid;text-decoration-color:#000000;letter-spacing:normal;word-spacing:normal;text-transform:none;writing-mode:lr-tb;direction:ltr;text-orientation:mixed;dominant-baseline:auto;baseline-shift:baseline;text-anchor:start;white-space:normal;shape-padding:0;shape-margin:0;inline-size:0;clip-rule:nonzero;display:inline;overflow:visible;visibility:visible;isolation:auto;mix-blend-mode:normal;color-interpolation:sRGB;color-interpolation-filters:linearRGB;solid-color:#000000;solid-opacity:1;vector-effect:none;fill:#000100;fill-opacity:1;fill-rule:evenodd;stroke:none;stroke-width:16.5529;stroke-linecap:round;stroke-linejoin:round;stroke-miterlimit:4;stroke-dasharray:none;stroke-dashoffset:0;stroke-opacity:1;paint-order:normal;color-rendering:auto;image-rendering:auto;shape-rendering:auto;text-rendering:auto;enable-background:accumulate;stop-color:#000000" />
    <path
       id="path844"
       d="m 257.24414,-21.445312 c -0.16857,8.53e-4 -0.33732,0.0023 -0.50586,0.0059 -0.22783,0.0044 -0.45591,0.01217 -0.68359,0.02148 a 16.554455,16.554455 0 0 0 -0.2793,0.01367 c -0.0774,0.0045 -0.15501,0.0086 -0.23242,0.01367 -0.013,7.36e-4 -0.026,0.0012 -0.0391,0.002 a 16.554455,16.554455 0 0 0 -0.20703,0.01367 c -0.0273,0.0018 -0.0547,0.0039 -0.082,0.0059 a 16.554455,16.554455 0 0 0 -0.0215,0.002 c -0.0351,0.0027 -0.0704,0.005 -0.10547,0.0078 -0.13993,0.01036 -0.28015,0.02097 -0.41992,0.0332 -0.22656,0.01947 -0.45364,0.04203 -0.67969,0.06641 a 16.554455,16.554455 0 0 0 -0.0606,0.0059 c -0.19264,0.0215 -0.38398,0.04526 -0.57617,0.07031 a 16.554455,16.554455 0 0 0 -0.0801,0.0098 c -0.14049,0.01901 -0.28166,0.03964 -0.42187,0.06055 -0.013,0.0019 -0.0261,0.0039 -0.0391,0.0059 -0.25436,0.0373 -0.50841,0.07758 -0.76172,0.121094 a 16.554455,16.554455 0 0 0 -0.0391,0.0059 c -0.16514,0.02878 -0.32951,0.06039 -0.49415,0.0918 a 16.554455,16.554455 0 0 0 -0.043,0.0078 c -0.0831,0.01608 -0.16506,0.03208 -0.24805,0.04883 -0.008,0.0016 -0.0156,0.0023 -0.0234,0.0039 a 16.554455,16.554455 0 0 0 -0.0684,0.01367 c -0.19237,0.03921 -0.38265,0.08026 -0.57422,0.123047 a 16.554455,16.554455 0 0 0 -0.0176,0.0039 c -0.11444,0.02568 -0.22767,0.05313 -0.3418,0.08008 l -0.0254,0.0059 a 16.554455,16.554455 0 0 0 -0.0781,0.01758 c -0.0548,0.01313 -0.10935,0.02564 -0.16406,0.03906 a 16.554455,16.554455 0 0 0 -0.041,0.0098 c -0.18699,0.04607 -0.37252,0.09506 -0.55859,0.144531 -0.14909,0.03947 -0.2988,0.07945 -0.44726,0.121094 -0.058,0.01614 -0.11589,0.03236 -0.17383,0.04883 a 16.554455,16.554455 0 0 0 -0.25391,0.07422 c -0.008,0.0025 -0.0169,0.0053 -0.0254,0.0078 l -0.0117,0.0039 a 16.554455,16.554455 0 0 0 -0.0215,0.0059 c -0.053,0.01621 -0.10722,0.03234 -0.16016,0.04883 -0.0573,0.01745 -0.11465,0.03496 -0.17187,0.05273 a 16.554455,16.554455 0 0 0 -0.0293,0.0098 c -0.0293,0.0091 -0.0586,0.01813 -0.0879,0.02734 a 16.554455,16.554455 0 0 0 -0.0644,0.01953 c -0.1827,0.05824 -0.36338,0.118156 -0.54493,0.179687 -0.0884,0.02987 -0.17747,0.0592 -0.26562,0.08984 -0.11221,0.03859 -0.2242,0.07735 -0.33594,0.117188 a 16.554455,16.554455 0 0 0 -0.11914,0.04492 c -0.18444,0.06736 -0.36769,0.136282 -0.55078,0.207031 -0.004,0.0015 -0.008,0.0024 -0.0117,0.0039 a 16.554455,16.554455 0 0 0 -0.0937,0.03711 c -0.17965,0.07028 -0.35884,0.141328 -0.53711,0.214844 -0.0634,0.02613 -0.12626,0.05354 -0.18945,0.08008 -0.0529,0.02155 -0.10545,0.04457 -0.15821,0.06641 -0.0604,0.02574 -0.12144,0.05006 -0.18164,0.07617 a 16.554455,16.554455 0 0 0 -0.14257,0.06055 c -0.0399,0.01751 -0.0793,0.03506 -0.11914,0.05273 -0.13134,0.05803 -0.26208,0.117943 -0.39258,0.177734 a 16.554455,16.554455 0 0 0 -0.11328,0.05273 c -0.0869,0.04029 -0.17329,0.08198 -0.25977,0.123047 -0.0983,0.04668 -0.19712,0.09295 -0.29492,0.140625 a 16.554455,16.554455 0 0 0 -0.0703,0.03516 c -0.10022,0.04944 -0.19917,0.09796 -0.29883,0.148438 -0.0331,0.01651 -0.0666,0.0322 -0.0996,0.04883 a 16.554455,16.554455 0 0 0 -0.25195,0.13086 c -0.0307,0.01613 -0.0611,0.0326 -0.0918,0.04883 -0.13245,0.06913 -0.26506,0.138025 -0.39649,0.208984 a 16.554455,16.554455 0 0 0 -0.14062,0.07813 c -0.0574,0.03138 -0.11472,0.06202 -0.17188,0.09375 -0.0784,0.0435 -0.15639,0.08671 -0.23437,0.130859 a 16.554455,16.554455 0 0 0 -0.0977,0.05664 l -0.0176,0.0098 c -7.7e-4,4.42e-4 -0.001,0.0015 -0.002,0.002 a 16.554455,16.554455 0 0 0 -0.17187,0.09961 c -0.0294,0.01742 -0.0586,0.03522 -0.0879,0.05273 -0.0923,0.05399 -0.18559,0.107213 -0.27735,0.162109 -0.005,0.0032 -0.0104,0.0066 -0.0156,0.0098 -0.005,0.0027 -0.009,0.0051 -0.0137,0.0078 -0.15413,0.09223 -0.3065,0.186482 -0.45899,0.28125 a 16.554455,16.554455 0 0 0 -0.17187,0.107422 c -0.0293,0.01872 -0.0587,0.03783 -0.0879,0.05664 -0.15231,0.09708 -0.3045,0.195324 -0.45508,0.294921 -0.1786,0.117887 -0.35709,0.238007 -0.53321,0.359375 a 16.554455,16.554455 0 0 0 -0.0215,0.01367 c -0.18653,0.128993 -0.37102,0.259746 -0.55469,0.392578 -0.0509,0.03677 -0.0997,0.07622 -0.15039,0.113282 -0.0316,0.02315 -0.0641,0.0451 -0.0957,0.06836 a 16.554455,16.554455 0 0 0 -0.27344,0.203125 16.554455,16.554455 0 0 0 -0.0488,0.03516 c -0.11797,0.08949 -0.23487,0.180414 -0.35156,0.271485 -0.003,0.0026 -0.006,0.0053 -0.01,0.0078 -0.0311,0.02428 -0.0628,0.04787 -0.0938,0.07227 -0.0439,0.03429 -0.0871,0.069 -0.13085,0.103515 a 16.554455,16.554455 0 0 0 -0.0606,0.04687 c -0.11844,0.09435 -0.23646,0.189189 -0.35352,0.285157 -0.003,0.0023 -0.005,0.0055 -0.008,0.0078 -0.004,0.0035 -0.009,0.0062 -0.0137,0.0098 -0.15154,0.124247 -0.30199,0.250037 -0.45117,0.376953 a 16.554455,16.554455 0 0 0 -0.14844,0.128906 c -0.10116,0.08816 -0.20272,0.176251 -0.30273,0.265625 -0.0122,0.01072 -0.025,0.02051 -0.0371,0.03125 a 16.554455,16.554455 0 0 0 -0.0215,0.02148 c -0.0328,0.02907 -0.065,0.05674 -0.0977,0.08594 a 16.554455,16.554455 0 0 0 -0.006,0.0059 c -0.11888,0.106346 -0.23822,0.214224 -0.35547,0.322266 a 16.554455,16.554455 0 0 0 -0.14453,0.134766 c -0.0252,0.02374 -0.0491,0.04649 -0.0742,0.07031 -0.10023,0.0943 -0.19984,0.189624 -0.29883,0.285156 a 16.554455,16.554455 0 0 0 -0.1875,0.183594 c -0.0251,0.02501 -0.0512,0.04913 -0.0762,0.07422 -0.10489,0.10375 -0.20907,0.209326 -0.3125,0.314453 -0.0637,0.06468 -0.12636,0.13012 -0.18946,0.195313 -0.0338,0.03418 -0.066,0.06723 -0.0996,0.101562 a 16.554455,16.554455 0 0 0 -0.13281,0.136719 c -0.005,0.005 -0.009,0.01061 -0.0137,0.01563 a 16.554455,16.554455 0 0 0 -0.1543,0.162109 c -0.0998,0.107376 -0.19853,0.21555 -0.29687,0.324219 -0.0202,0.02213 -0.0404,0.04422 -0.0606,0.06641 -0.009,0.01029 -0.0181,0.02095 -0.0273,0.03125 -0.0984,0.108714 -0.19611,0.218139 -0.29297,0.328125 a 16.554455,16.554455 0 0 0 -0.13867,0.158203 c -0.0225,0.02617 -0.044,0.05189 -0.0664,0.07813 -0.0899,0.104428 -0.17902,0.208935 -0.26758,0.3144534 -0.0977,0.1163563 -0.19496,0.2339047 -0.29101,0.3515625 -0.006,0.00721 -0.0117,0.014272 -0.0176,0.021484 -0.0122,0.015032 -0.0249,0.029869 -0.0371,0.044922 -0.0127,0.015555 -0.0244,0.031298 -0.0371,0.046875 a 16.554455,16.554455 0 0 0 -0.0898,0.109375 c -0.0976,0.1221034 -0.19327,0.2457047 -0.28907,0.3691407 -0.0181,0.02306 -0.0367,0.045253 -0.0547,0.068359 a 16.554455,16.554455 0 0 0 -0.0176,0.023437 l -0.0176,0.021484 a 16.554455,16.554455 0 0 0 -0.0586,0.076172 c -0.10783,0.140705 -0.21482,0.2834138 -0.32032,0.4257812 -0.005,0.00712 -0.0103,0.014365 -0.0156,0.021484 -0.002,0.00261 -0.004,0.0052 -0.006,0.00781 -0.0533,0.071938 -0.10549,0.1444425 -0.1582,0.2167969 a 16.554455,16.554455 0 0 0 -0.13672,0.1875 c -0.0198,0.027318 -0.0409,0.054654 -0.0606,0.082031 a 16.554455,16.554455 0 0 0 -0.11719,0.1660157 c -0.10867,0.1550694 -0.21632,0.3099501 -0.32226,0.4667968 l 0.01,-0.011719 c -0.0909,0.1343769 -0.18255,0.2686457 -0.27148,0.4042969 l 0.01,-0.011719 c -0.0434,0.066019 -0.088,0.1309492 -0.13086,0.1972656 a 16.554455,16.554455 0 0 0 -0.0156,0.025391 c -0.0608,0.094334 -0.11989,0.1882803 -0.17969,0.2832032 -0.0304,0.047693 -0.0617,0.094736 -0.0918,0.1425781 a 16.554455,16.554455 0 0 0 -0.084,0.1367187 c -0.0506,0.082075 -0.10052,0.1635985 -0.15039,0.2460938 -0.016,0.025875 -0.0309,0.052208 -0.0469,0.078125 -0.0164,0.027349 -0.0325,0.054637 -0.0488,0.082031 a 16.554455,16.554455 0 0 0 -0.006,0.00977 c -4.6e-4,7.702e-4 -0.002,0.00118 -0.002,0.00195 -0.007,0.011852 -0.0144,0.023296 -0.0215,0.035156 a 16.554455,16.554455 0 0 0 -0.0977,0.1621094 c -0.0712,0.1213098 -0.14131,0.2430672 -0.21093,0.3652344 -0.0157,0.027337 -0.0312,0.054651 -0.0469,0.082031 -0.008,0.014969 -0.0169,0.02994 -0.0254,0.044922 -0.0237,0.041598 -0.0468,0.083304 -0.0703,0.125 a 16.554455,16.554455 0 0 0 -0.0703,0.125 c -0.0782,0.1413604 -0.15439,0.2833443 -0.23047,0.4257813 -0.0858,0.1598454 -0.17072,0.3212523 -0.25391,0.4824218 a 16.554455,16.554455 0 0 0 -0.0234,0.042969 c -0.0382,0.074545 -0.0756,0.1497912 -0.11328,0.2246094 -0.053,0.1052347 -0.10638,0.2106403 -0.1582,0.3164062 a 16.554455,16.554455 0 0 0 -0.0371,0.078125 c -0.003,0.00523 -0.005,0.010394 -0.008,0.015625 a 16.554455,16.554455 0 0 0 -0.041,0.087891 c -0.16221,0.3357601 -0.31991,0.6748512 -0.4707,1.015625 a 16.554455,16.554455 0 0 0 -0.0137,0.033203 16.554455,16.554455 0 0 0 -0.0293,0.068359 c -0.0304,0.069601 -0.0618,0.1391867 -0.0918,0.2089843 -0.0564,0.1309032 -0.11131,0.2609973 -0.16601,0.3925781 a 16.554455,16.554455 0 0 0 -0.006,0.015625 c -0.0666,0.1606604 -0.13123,0.3207909 -0.19531,0.48242192 -0.002,0.003816 -0.002,0.007902 -0.004,0.0117188 -0.004,0.009238 -0.008,0.0181026 -0.0117,0.0273437 -0.01,0.0244695 -0.0177,0.0497277 -0.0273,0.0742188 -0.0105,0.0266205 -0.0208,0.0534322 -0.0312,0.0800781 a 16.554455,16.554455 0 0 0 -0.16016,0.41015625 16.554455,16.554455 0 0 0 -0.0996,0.26953125 c -0.011,0.03065726 -0.0223,0.06110941 -0.0332,0.09179688 -0.0462,0.12860543 -0.0921,0.25758434 -0.13672,0.38671874 -0.0169,0.0486663 -0.0322,0.0977451 -0.0488,0.14648438 l 0.12109,-0.31835938 a 16.554455,16.554455 0 0 0 -0.10351,0.27539063 16.554455,16.554455 0 0 0 -0.0137,0.0390625 16.554455,16.554455 0 0 0 -0.002,0.005859 16.554455,16.554455 0 0 0 -0.084,0.24414063 16.554455,16.554455 0 0 0 -0.008,0.0175781 c -8.5e-4,0.002541 -0.001,0.005271 -0.002,0.007813 l -0.006,0.0136719 a 16.554455,16.554455 0 0 0 -0.004,0.0136719 16.554455,16.554455 0 0 0 -0.01,0.0273438 16.554455,16.554455 0 0 0 -0.002,0.007813 c -0.01,0.0293418 -0.0197,0.0585233 -0.0293,0.0878906 a 16.554455,16.554455 0 0 0 -0.0215,0.060547 L 192.92969,104.72266 H 46.837891 a 16.554455,16.554455 0 0 0 -0.0059,0 c -28.898701,0.0103 -42.5222237,38.37406 -21.453125,57.6914 a 16.554455,16.554455 0 0 0 0.0039,0.002 L 139.7207,267.19141 77.550781,457.02148 a 16.554455,16.554455 0 0 0 0,0.006 c -4.520436,13.81623 0.154994,29.13354 12.181641,37.68555 12.026648,8.55201 28.948928,7.42769 39.796878,-2.50586 a 16.554455,16.554455 0 0 0 0.004,-0.004 L 257.40234,375.03125 385.27148,492.20312 a 16.554455,16.554455 0 0 0 0.004,0.004 c 10.84795,9.93353 27.77219,11.05786 39.79883,2.50586 12.02663,-8.552 16.70206,-23.86933 12.18164,-37.68555 a 16.554455,16.554455 0 0 0 -0.002,-0.006 L 375.08594,267.19141 489.42383,162.41602 a 16.554455,16.554455 0 0 0 0.002,-0.002 c 21.0691,-19.31734 7.44753,-57.68111 -21.45117,-57.6914 a 16.554455,16.554455 0 0 0 -0.006,0 H 321.87695 L 288.11523,1.6347656 l 0.13282,0.5175782 a 16.554455,16.554455 0 0 0 -0.30664,-1.0507813 c -0.0404,-0.12318198 -0.0812,-0.24641305 -0.12305,-0.36914062 l -0.0332,-0.0957031 c -0.001,-0.003885 -0.003,-0.007835 -0.004,-0.0117188 a 16.554455,16.554455 0 0 0 -0.0391,-0.11328125 c -0.0722,-0.20781806 -0.14633,-0.41466782 -0.22266,-0.62109375 l -0.002,-0.007813 c -0.076,-0.20550924 -0.15435,-0.40923001 -0.23438,-0.61328125 a 16.554455,16.554455 0 0 0 -0.0215,-0.0527344 c -0.0289,-0.0729043 -0.0585,-0.14604136 -0.0879,-0.21875003 a 16.554455,16.554455 0 0 0 -0.008,-0.021484 l -0.0566,-0.140625 c -0.0115,-0.028693 -0.0235,-0.057275 -0.0352,-0.085937 a 16.554455,16.554455 0 0 0 -0.0801,-0.1953125 c -0.0722,-0.1723936 -0.14559,-0.3444104 -0.2207,-0.515625 l -0.002,-0.00391 c -0.081,-0.1847276 -0.16364,-0.3674855 -0.24804,-0.5507812 -0.003,-0.00716 -0.007,-0.014323 -0.01,-0.021484 a 16.554455,16.554455 0 0 0 -0.0469,-0.1015625 c -0.0791,-0.1703242 -0.15827,-0.3407409 -0.24024,-0.5097656 a 16.554455,16.554455 0 0 0 -0.0273,-0.054687 c -0.0982,-0.2004814 -0.19859,-0.4010542 -0.30078,-0.5996094 a 16.554455,16.554455 0 0 0 -0.002,-0.00391 c -0.0654,-0.1269852 -0.13216,-0.2527377 -0.19921,-0.3789063 l -0.0215,-0.037109 c -0.24353,-0.4591253 -0.49665,-0.9136458 -0.76172,-1.3613282 a 16.554455,16.554455 0 0 0 -0.0391,-0.068359 c -0.01,-0.015912 -0.0197,-0.030979 -0.0293,-0.046875 l -0.041,-0.068359 c -0.068,-0.1132695 -0.13574,-0.2254089 -0.20508,-0.3378907 a 16.554455,16.554455 0 0 0 -0.0918,-0.1425781 c -0.0305,-0.048876 -0.0611,-0.097762 -0.0918,-0.1464843 a 16.554455,16.554455 0 0 0 -0.0566,-0.089844 c -0.011,-0.016795 -0.0222,-0.034005 -0.0332,-0.050781 -0.0269,-0.042175 -0.053,-0.084896 -0.0801,-0.1269532 l -0.0371,-0.056641 c -0.0902,-0.139955 -0.18114,-0.2793386 -0.27343,-0.4179688 a 16.554455,16.554455 0 0 0 -0.13086,-0.1914062 l -0.002,-0.00391 c -0.23974,-0.3516072 -0.48682,-0.6986138 -0.74023,-1.0410157 l -0.008,-0.011719 c -0.11825,-0.160245 -0.23819,-0.3184144 -0.35938,-0.4765625 a 16.554455,16.554455 0 0 0 -0.0566,-0.076172 c -0.12856,-0.1657931 -0.25884,-0.330757 -0.39062,-0.4941405 l 0.0195,0.027344 c -0.0766,-0.095361 -0.15279,-0.1906293 -0.23047,-0.2851561 l -0.0352,-0.042969 c -0.0538,-0.065645 -0.10778,-0.1300733 -0.16211,-0.1953125 A 16.554455,16.554455 0 0 0 281.7793,-10 c -0.22931,-0.272256 -0.46291,-0.539824 -0.70118,-0.804688 l -0.0195,-0.02148 c -0.0102,-0.01135 -0.019,-0.02383 -0.0293,-0.03516 a 16.554455,16.554455 0 0 0 -0.13672,-0.150391 c -0.13952,-0.152484 -0.28137,-0.305192 -0.42383,-0.455078 a 16.554455,16.554455 0 0 0 -0.0117,-0.01172 c -0.0816,-0.08565 -0.16355,-0.171071 -0.24609,-0.255859 l -0.008,-0.0098 c -0.0456,-0.04689 -0.0927,-0.09401 -0.13867,-0.140625 -0.0135,-0.01369 -0.0275,-0.02735 -0.041,-0.04101 a 16.554455,16.554455 0 0 0 -0.0801,-0.08203 c -0.12557,-0.12592 -0.25318,-0.2511 -0.38086,-0.375 l -0.0254,-0.02539 c -0.22138,-0.214807 -0.44625,-0.426185 -0.67383,-0.634766 l -0.0195,-0.01758 c -0.10336,-0.09472 -0.20789,-0.189798 -0.3125,-0.283203 l -0.0156,-0.01367 c -0.13713,-0.122417 -0.27479,-0.243159 -0.41406,-0.363281 a 16.554455,16.554455 0 0 0 -0.10937,-0.09375 c -0.15025,-0.12782 -0.3005,-0.253793 -0.45313,-0.378906 l -0.0176,-0.01563 c -0.14041,-0.115089 -0.28338,-0.22904 -0.42578,-0.341797 a 16.554455,16.554455 0 0 0 -0.0293,-0.02344 l -0.0547,-0.04297 a 16.554455,16.554455 0 0 0 -0.043,-0.03516 c -0.12311,-0.09675 -0.24654,-0.192124 -0.37109,-0.287109 a 16.554455,16.554455 0 0 0 -0.0117,-0.0098 c -0.0316,-0.02404 -0.064,-0.04638 -0.0957,-0.07031 a 16.554455,16.554455 0 0 0 -0.0586,-0.04492 c -0.17152,-0.128349 -0.34539,-0.255892 -0.51953,-0.380859 l -0.0176,-0.01172 c -0.0681,-0.04886 -0.13659,-0.0962 -0.20508,-0.144531 -0.0237,-0.01708 -0.0466,-0.03572 -0.0703,-0.05274 a 16.554455,16.554455 0 0 0 -0.11719,-0.08203 l -0.0215,-0.01563 a 16.554455,16.554455 0 0 0 -0.0274,-0.01758 16.554455,16.554455 0 0 0 -0.1621,-0.115235 c -0.14758,-0.100974 -0.29601,-0.20029 -0.44532,-0.298828 l -0.0273,-0.01758 c -0.18048,-0.119107 -0.36198,-0.236069 -0.54492,-0.351562 a 16.554455,16.554455 0 0 0 -0.002,0 c -0.22117,-0.139587 -0.4433,-0.277901 -0.66796,-0.41211 a 16.554455,16.554455 0 0 0 -0.0586,-0.0332 c -0.18013,-0.106632 -0.36069,-0.211329 -0.54297,-0.314453 a 16.554455,16.554455 0 0 0 -0.008,-0.0039 16.554455,16.554455 0 0 0 -0.0449,-0.02734 c -0.0434,-0.02433 -0.0874,-0.04814 -0.13086,-0.07227 -0.10968,-0.06168 -0.21964,-0.123193 -0.33008,-0.183593 a 16.554455,16.554455 0 0 0 -0.0977,-0.05273 c -0.16805,-0.09048 -0.33613,-0.178142 -0.50585,-0.265625 a 16.554455,16.554455 0 0 0 -0.0684,-0.03516 l -0.0215,-0.01172 c -0.19284,-0.09885 -0.38712,-0.196077 -0.58203,-0.291015 -0.1724,-0.084 -0.34557,-0.165193 -0.51953,-0.246094 A 16.554455,16.554455 0 0 0 270.5,-18.591797 l -0.0488,-0.02148 a 16.554455,16.554455 0 0 0 -0.0234,-0.01172 c -0.0148,-0.0067 -0.0301,-0.0129 -0.0449,-0.01953 a 16.554455,16.554455 0 0 0 -0.01,-0.0039 16.554455,16.554455 0 0 0 -0.006,-0.002 c -0.006,-0.0028 -0.0132,-0.005 -0.0195,-0.0078 l -0.004,-0.002 c -0.10305,-0.04664 -0.20502,-0.09312 -0.30859,-0.138672 a 16.554455,16.554455 0 0 0 -0.0566,-0.02539 c -0.20228,-0.08807 -0.40522,-0.173938 -0.60938,-0.257812 l -0.0156,-0.0059 c -0.20129,-0.0827 -0.40245,-0.163612 -0.60547,-0.242187 a 16.554455,16.554455 0 0 0 -0.14258,-0.05469 c -0.0399,-0.01502 -0.0792,-0.03007 -0.11914,-0.04492 l 0.11523,0.04492 c -0.12034,-0.04578 -0.2404,-0.09045 -0.36133,-0.134765 -0.009,-0.0031 -0.0168,-0.0066 -0.0254,-0.0098 a 16.554455,16.554455 0 0 0 -0.22656,-0.08398 c -0.20545,-0.07276 -0.41216,-0.142414 -0.61914,-0.210938 -0.0416,-0.01395 -0.0833,-0.02724 -0.125,-0.04102 -0.108,-0.03571 -0.21581,-0.07092 -0.32422,-0.105469 a 16.554455,16.554455 0 0 0 -0.0976,-0.03125 c -0.0698,-0.02178 -0.14095,-0.0412 -0.21094,-0.0625 l -0.15821,-0.04883 c -0.0299,-0.0089 -0.0599,-0.0185 -0.0898,-0.02734 -0.01,-0.003 -0.0194,-0.0068 -0.0293,-0.0098 a 16.554455,16.554455 0 0 0 -0.24609,-0.07227 l -0.0371,-0.0098 a 16.554455,16.554455 0 0 0 -0.0312,-0.0098 c -0.005,-0.0015 -0.0105,-0.0024 -0.0156,-0.0039 a 16.554455,16.554455 0 0 0 -0.33008,-0.08984 c -0.0645,-0.0176 -0.1288,-0.0375 -0.19336,-0.05469 a 16.554455,16.554455 0 0 0 -0.0293,-0.0078 c -0.19813,-0.05235 -0.39654,-0.1019 -0.5957,-0.15039 -0.22107,-0.05429 -0.44377,-0.106743 -0.66602,-0.15625 a 16.554455,16.554455 0 0 0 -0.008,-0.002 c -0.19934,-0.04431 -0.39745,-0.08652 -0.59766,-0.126953 a 16.554455,16.554455 0 0 0 -0.21875,-0.04297 c -0.0817,-0.01537 -0.16423,-0.0302 -0.24609,-0.04492 l 0.17188,0.0332 c -0.16401,-0.03129 -0.32769,-0.06312 -0.49219,-0.0918 -0.19063,-0.03323 -0.38298,-0.06404 -0.57422,-0.09375 a 16.554455,16.554455 0 0 0 -0.0449,-0.0059 c -0.0881,-0.01344 -0.17545,-0.02637 -0.26367,-0.03906 -0.1441,-0.02103 -0.28921,-0.04152 -0.4336,-0.06055 l -0.0117,-0.002 c -0.22199,-0.02925 -0.44342,-0.05557 -0.66601,-0.08008 a 16.554455,16.554455 0 0 0 -0.125,-0.01367 c -0.19103,-0.01957 -0.38284,-0.03667 -0.57422,-0.05273 -0.19829,-0.01714 -0.39711,-0.03351 -0.5957,-0.04687 a 16.554455,16.554455 0 0 0 -0.0254,-0.002 c -0.11902,-0.0078 -0.23833,-0.01502 -0.35743,-0.02148 -0.0319,-0.0019 -0.0638,-0.004 -0.0957,-0.0059 a 16.554455,16.554455 0 0 0 -0.2793,-0.01367 c -0.20361,-0.0083 -0.40758,-0.01517 -0.61133,-0.01953 -0.1926,-0.0045 -0.38546,-0.0068 -0.57812,-0.0078 -0.0371,-1.87e-4 -0.0742,5.5e-5 -0.11133,0 a 16.554455,16.554455 0 0 0 -0.20508,0 16.554455,16.554455 0 0 0 -0.002,0 z m 1.25781,32.617187 c 0,0 0,0.002 0,0.002 l -0.10351,0.09961 a 16.554455,16.554455 0 0 0 0.10351,-0.101563 z m -2.08593,0.07617 a 16.554455,16.554455 0 0 0 0.0195,0.04297 h -0.002 z m 1.9707,0.01758 c 0,0 0.002,0 0.002,0 l -0.002,0.002 c 0,0 0,-0.002 0,-0.002 z m -0.11524,0.300781 -0.0254,0.07813 -0.041,0.109375 a 16.554455,16.554455 0 0 0 0.0664,-0.1875 z m -0.86914,2.654297 11.95118,36.492188 a 16.554455,16.554455 0 0 0 -23.9004,-0.0039 z M 221.63477,123.44531 a 16.554455,16.554455 0 0 0 14.43554,14.26367 h -8.83008 a 16.554455,16.554455 0 0 0 -15.73046,11.4004 l -0.97852,2.98632 a 16.554455,16.554455 0 0 0 -14.43359,-14.26758 h 8.82812 a 16.554455,16.554455 0 0 0 15.73242,-11.40234 z m 71.53711,0 0.97656,2.98047 a 16.554455,16.554455 0 0 0 15.73047,11.40234 h 8.82421 a 16.554455,16.554455 0 0 0 -14.42968,14.26563 l -0.97656,-2.98437 a 16.554455,16.554455 0 0 0 -15.73047,-11.4004 h -8.82813 a 16.554455,16.554455 0 0 0 14.4336,-14.26367 z M 47.359375,137.82812 h 39.349609 a 16.554455,16.554455 0 0 0 -12.52539,24.4043 l -26.431641,-24.2207 -0.002,-0.002 c -0.196771,-0.17986 -0.264282,-0.13332 -0.390625,-0.18165 z m 380.734375,0 h 39.35156 c -0.12697,0.0487 -0.19457,0.002 -0.39258,0.1836 l -26.43164,24.22266 a 16.554455,16.554455 0 0 0 -12.52734,-24.40626 z m -296.83984,32.98633 h 40.02929 l -9.24023,28.21485 z m 107.98242,0 h 36.33398 l 24.92578,76.10938 -43.09375,39.48828 -43.09179,-39.48828 z m 104.28515,0 h 40.0293 l -30.78906,28.21289 z m -161.7871,69.21094 -2.20704,6.74023 a 16.554455,16.554455 0 0 0 4.54688,17.35547 l 6.8457,6.27344 a 16.554455,16.554455 0 0 0 -18.62304,3.69336 l 2.20703,-6.73633 a 16.554455,16.554455 0 0 0 -4.54688,-17.35547 l -6.85156,-6.27929 a 16.554455,16.554455 0 0 0 18.62891,-3.69141 z m 151.33789,0.002 a 16.554455,16.554455 0 0 0 18.6289,3.68946 l -6.85156,6.27929 a 16.554455,16.554455 0 0 0 -4.54688,17.35547 l 2.20704,6.73828 a 16.554455,16.554455 0 0 0 -18.62891,-3.69336 l 6.84961,-6.27539 a 16.554455,16.554455 0 0 0 4.54883,-17.35547 z m -141.08399,75.0586 17.0625,15.63476 -31.69336,29.04102 z m 130.82813,0 14.63281,44.67773 -31.69531,-29.04297 z m -55.85352,7.28906 a 16.554455,16.554455 0 0 0 -0.002,16.69141 16.554455,16.554455 0 0 0 -19.11719,0 16.554455,16.554455 0 0 0 0.002,-16.68946 16.554455,16.554455 0 0 0 19.11719,-0.002 z m -141.4043,94.43164 a 16.554455,16.554455 0 0 0 23.08985,12.97852 l -39.06446,35.79687 z m 263.68946,0 15.97461,48.77539 -39.06446,-35.79492 a 16.554455,16.554455 0 0 0 23.08985,-12.98047 z"
       style="color:#000000;font-style:normal;font-variant:normal;font-weight:normal;font-stretch:normal;font-size:medium;line-height:normal;font-family:sans-serif;font-variant-ligatures:normal;font-variant-position:normal;font-variant-caps:normal;font-variant-numeric:normal;font-variant-alternates:normal;font-variant-east-asian:normal;font-feature-settings:normal;font-variation-settings:normal;text-indent:0;text-align:start;text-decoration:none;text-decoration-line:none;text-decoration-style:solid;text-decoration-color:#000000;letter-spacing:normal;word-spacing:normal;text-transform:none;writing-mode:lr-tb;direction:ltr;text-orientation:mixed;dominant-baseline:auto;baseline-shift:baseline;text-anchor:start;white-space:normal;shape-padding:0;shape-margin:0;inline-size:0;clip-rule:nonzero;display:inline;overflow:visible;visibility:visible;isolation:auto;mix-blend-mode:normal;color-interpolation:sRGB;color-interpolation-filters:linearRGB;solid-color:#000000;solid-opacity:1;vector-effect:none;fill:#000000;fill-opacity:1;fill-rule:nonzero;stroke:none;stroke-width:33.1056;stroke-linecap:butt;stroke-linejoin:round;stroke-miterlimit:4;stroke-dasharray:none;stroke-dashoffset:0;stroke-opacity:1;paint-order:stroke fill markers;color-rendering:auto;image-rendering:auto;shape-rendering:auto;text-rendering:auto;enable-background:accumulate;stop-color:#000000" />
    <path
       id="path846"
       d="m 257.32816,-4.8926923 c -0.0911,4.616e-4 -0.18225,0.00176 -0.27335,0.0039 -0.10777,0.00206 -0.21551,0.00529 -0.32321,0.0097 -0.0419,0.00242 -0.0837,0.00502 -0.1256,0.0078 -0.0493,0.00235 -0.0985,0.00495 -0.14775,0.0078 -0.0166,0.00127 -0.0332,0.00257 -0.0498,0.0039 -0.10782,0.00726 -0.21557,0.015692 -0.32322,0.0253 -0.10722,0.00921 -0.21434,0.01959 -0.32136,0.03113 -0.0912,0.010179 -0.18233,0.021203 -0.27335,0.03307 -0.0727,0.00984 -0.14536,0.020216 -0.21794,0.03113 -0.14065,0.020041 -0.28103,0.042096 -0.42111,0.06616 -0.0783,0.013643 -0.15648,0.027914 -0.23456,0.04281 -0.0394,0.00763 -0.0788,0.015414 -0.11821,0.02336 -0.0197,0.00385 -0.0394,0.00774 -0.0591,0.01167 -0.0913,0.018604 -0.18239,0.038065 -0.27334,0.05838 -0.0969,0.021736 -0.19352,0.044441 -0.28997,0.06811 0,0 -0.0259,0.0059 -0.0259,0.0059 -0.0888,0.021886 -0.1775,0.04459 -0.26597,0.06811 -0.0765,0.020152 -0.15282,0.040913 -0.22901,0.06228 -0.0394,0.010864 -0.0789,0.021891 -0.11821,0.03308 -0.0252,0.00772 -0.0505,0.015506 -0.0757,0.02336 -0.0808,0.023966 -0.16149,0.048617 -0.24195,0.07395 0,0 -0.007,0.002 -0.007,0.002 -0.087,0.027746 -0.17385,0.05629 -0.26042,0.08563 -0.0475,0.015978 -0.0949,0.032195 -0.14221,0.04865 -0.071,0.024117 -0.14177,0.048767 -0.2124,0.07395 -0.0883,0.032255 -0.17637,0.065343 -0.26413,0.09926 -0.0136,0.00517 -0.0271,0.01036 -0.0407,0.01557 -0.0859,0.033589 -0.17144,0.067971 -0.25673,0.103143 -0.0846,0.034904 -0.16898,0.070583 -0.25303,0.107035 -0.0253,0.010308 -0.0506,0.020684 -0.0758,0.03113 -0.0191,0.00839 -0.0382,0.01682 -0.0573,0.02529 -0.071,0.031236 -0.14182,0.063024 -0.2124,0.09536 -0.0148,0.00711 -0.0295,0.014242 -0.0443,0.0214 -0.089,0.041293 -0.17768,0.083459 -0.26596,0.126493 -0.0481,0.023745 -0.0962,0.047749 -0.14406,0.07201 -0.0444,0.021834 -0.0888,0.043887 -0.13298,0.06616 -0.0148,0.00776 -0.0296,0.015549 -0.0443,0.02336 -0.0928,0.047688 -0.18516,0.096342 -0.27705,0.145956 -0.0197,0.010982 -0.0394,0.022009 -0.0591,0.03308 -0.0655,0.03584 -0.13076,0.072167 -0.19578,0.10898 -0.0142,0.00841 -0.0283,0.016843 -0.0425,0.0253 -0.0947,0.054112 -0.18893,0.109254 -0.28258,0.165416 -0.0792,0.047278 -0.15801,0.095283 -0.23641,0.144009 -0.0142,0.00906 -0.0283,0.018136 -0.0425,0.02724 -0.0929,0.058667 -0.18528,0.1183495 -0.27704,0.179037 -0.0911,0.059994 -0.1816,0.1209739 -0.27151,0.182931 -0.0905,0.062587 -0.18039,0.1261625 -0.26965,0.190715 -0.0868,0.062654 -0.17299,0.1262293 -0.25857,0.190715 0,0 -0.006,0.0039 -0.006,0.0039 -0.0743,0.0564 -0.14823,0.113487 -0.22163,0.171254 -0.0383,0.029657 -0.0765,0.059497 -0.11452,0.08952 -0.0613,0.048827 -0.12224,0.098129 -0.18284,0.147901 -0.0775,0.063456 -0.15449,0.1276799 -0.23087,0.192662 -0.0495,0.043142 -0.0988,0.086605 -0.14775,0.130386 -0.0365,0.031613 -0.0728,0.0634 -0.10897,0.09536 -0.0161,0.014236 -0.0321,0.028506 -0.0481,0.04281 -0.0582,0.0520969 -0.11611,0.10464228 -0.17362,0.157632 -0.0123,0.011656 -0.0247,0.0233327 -0.037,0.03503 -0.0683,0.0635964 -0.13598,0.12781952 -0.20317,0.192662 -0.0123,0.0123055 -0.0247,0.0246322 -0.037,0.03698 -0.0789,0.0769914 -0.15714,0.15483816 -0.23456,0.233528 -0.0727,0.073863 -0.14475,0.14846578 -0.2161,0.223798 -0.0166,0.01682799 -0.0332,0.0336947 -0.0498,0.0506 -0.064,0.06882319 -0.12741,0.13823586 -0.19024,0.20823 -0.0634,0.0694778 -0.12617,0.13953948 -0.18838,0.210177 -0.0111,0.0129548 -0.0222,0.0259281 -0.0333,0.03892 -0.0615,0.0707939 -0.12249,0.14215264 -0.18285,0.214068 -0.0584,0.0695421 -0.1163,0.13960289 -0.1736,0.210175 -0.0154,0.0187734 -0.0308,0.0375835 -0.0461,0.05643 -0.0484,0.0606112 -0.0965,0.1215895 -0.14407,0.18293 -0.0235,0.029753 -0.0469,0.059593 -0.0702,0.08952 0,0 -0.0166,0.0214 -0.0166,0.0214 -0.0573,0.074725 -0.11391,0.1499755 -0.16993,0.225743 -0.0655,0.088175 -0.13014,0.1770501 -0.19392,0.266612 0,0 -0.004,0.0039 -0.004,0.0039 -0.01,0.013611 -0.0197,0.027237 -0.0295,0.04088 -0.0542,0.077348 -0.10777,0.1551934 -0.16068,0.233528 -0.0454,0.067108 -0.0904,0.1345733 -0.13483,0.202391 -0.0217,0.033004 -0.0433,0.066091 -0.0647,0.09926 -0.0304,0.047189 -0.0606,0.094544 -0.0905,0.1420627 -0.0304,0.047189 -0.0606,0.094545 -0.0905,0.1420638 -0.043,0.069719 -0.0855,0.1397794 -0.12743,0.2101752 -0.0117,0.019433 -0.0234,0.038893 -0.0351,0.058378 -0.008,0.012961 -0.016,0.025934 -0.024,0.038918 -0.0481,0.081944 -0.0955,0.1643305 -0.14222,0.2471498 -0.0242,0.042052 -0.0482,0.084217 -0.0721,0.1264954 -0.0393,0.071049 -0.0781,0.1424068 -0.11635,0.214067 -0.0495,0.091621 -0.0981,0.1837393 -0.14592,0.2763428 -0.0192,0.037546 -0.0383,0.07517 -0.0573,0.1128718 -0.0274,0.05433 -0.0544,0.1088209 -0.0812,0.16347 -0.007,0.015556 -0.0148,0.031124 -0.0221,0.046704 -0.0908,0.186348 -0.17826,0.3745022 -0.26227,0.5643601 0,0 0,0.002 0,0.002 -0.0205,0.046606 -0.0408,0.093312 -0.0609,0.1401168 -0.0313,0.072418 -0.0621,0.1450728 -0.0924,0.21796 -0.0364,0.087892 -0.0721,0.176117 -0.10713,0.2646652 -0.0404,0.1014268 -0.0798,0.2032765 -0.1182,0.3055337 0,0 -0.006,0.011673 -0.006,0.011673 -0.006,0.015559 -0.0111,0.031127 -0.0166,0.046704 -0.0327,0.089871 -0.0648,0.1800418 -0.096,0.2705029 -0.0348,0.1001984 -0.0686,0.2007501 -0.10159,0.3016409 0,0 -0.007,0.019459 -0.007,0.019459 l -0.013,0.038918 c 0,0 -0.006,0.015572 -0.006,0.015572 L 204.92654,121.27496 H 46.836974 c -14.473501,0.005 -21.189465,18.92729 -10.270881,28.93807 L 158.77314,262.19966 93.282189,462.17401 c -2.309481,7.05868 0.169024,14.87172 6.042651,19.04839 5.87363,4.17667 13.67748,3.67529 19.02598,-1.22238 L 257.40204,352.57909 396.45511,480.00002 c 5.3485,4.89765 13.15235,5.39903 19.02597,1.22236 5.87362,-4.17666 8.35212,-11.9897 6.04265,-19.04837 L 356.03279,262.19966 478.23983,150.21303 c 10.91858,-10.01078 4.20262,-28.93292 -10.27088,-28.93807 H 309.87939 L 272.21642,6.2719144 l -0.002,-0.0078 c -0.0288,-0.087835 -0.0584,-0.1754115 -0.0886,-0.2627203 -0.006,-0.018175 -0.0122,-0.036338 -0.0184,-0.05449 -0.0371,-0.1067982 -0.0753,-0.213189 -0.11451,-0.3191552 -0.039,-0.1055196 -0.079,-0.2106133 -0.12005,-0.3152644 -0.0296,-0.074833 -0.0598,-0.1494339 -0.0905,-0.2237977 -0.0152,-0.038334 -0.0306,-0.076606 -0.0461,-0.1148177 0,0 -0.009,-0.023357 -0.009,-0.023357 -0.0368,-0.087917 -0.0744,-0.1754936 -0.11266,-0.2627192 -0.0452,-0.1029925 -0.0913,-0.2054912 -0.13852,-0.3074797 -0.007,-0.01623 -0.0147,-0.032448 -0.0221,-0.048653 -0.0399,-0.085998 -0.0806,-0.1716281 -0.1219,-0.2568805 -0.0495,-0.1010945 -0.1,-0.2016468 -0.15144,-0.3016408 -0.0383,-0.074264 -0.077,-0.148217 -0.11637,-0.2218528 -0.12561,-0.2375584 -0.25678,-0.471807 -0.39339,-0.702531 -0.0117,-0.019485 -0.0234,-0.038944 -0.0351,-0.058378 -0.042,-0.070396 -0.0845,-0.1404562 -0.12743,-0.2101752 -0.0153,-0.023392 -0.0307,-0.046743 -0.0461,-0.070051 -0.0492,-0.078941 -0.0991,-0.1574356 -0.1496,-0.2354742 -0.0511,-0.079615 -0.10278,-0.1587577 -0.15515,-0.23742 -0.01,-0.01429 -0.0196,-0.028563 -0.0295,-0.04282 -0.12572,-0.1844273 -0.25503,-0.3660993 -0.38787,-0.5449 -0.0602,-0.081688 -0.12118,-0.162778 -0.18285,-0.243258 -0.0639,-0.082392 -0.12854,-0.164131 -0.19393,-0.24520504 -0.0482,-0.0600459 -0.0969,-0.1197274 -0.14591,-0.17904 -0.0324,-0.0397334 -0.0651,-0.0793035 -0.0979,-0.118709 -0.12552,-0.14903685 -0.2536,-0.29566459 -0.38417,-0.439811 -0.009,-0.0103893 -0.0184,-0.0207659 -0.0277,-0.03113 -0.009,-0.0103893 -0.0185,-0.0207659 -0.0277,-0.03113 -0.0689,-0.07529521 -0.13846,-0.14989825 -0.2087,-0.223799 -0.0416,-0.04371011 -0.0835,-0.0871728 -0.1256,-0.130386 -0.0361,-0.0371607 -0.0725,-0.0741368 -0.10896,-0.110927 0,0 -0.0147,-0.01558 -0.0147,-0.01558 -0.0659,-0.0661283 -0.13244,-0.1316491 -0.19947,-0.196555 -0.11599,-0.11279296 -0.23359,-0.22373098 -0.35276,-0.332776 -0.0563,-0.0516733 -0.11294,-0.10292164 -0.16993,-0.15374096 -0.0697,-0.062272 -0.13986,-0.1238999 -0.21055,-0.184877 0,0 -0.0221,-0.01946 -0.0221,-0.01946 -0.0764,-0.064982 -0.15334,-0.1292049 -0.23087,-0.192661 -0.0849,-0.069689 -0.17048,-0.1384537 -0.25672,-0.206283 -0.0129,-0.010398 -0.0258,-0.020775 -0.0387,-0.03113 -0.06,-0.047161 -0.12034,-0.093868 -0.18099,-0.140117 -0.0154,-0.011706 -0.0308,-0.023383 -0.0462,-0.03503 -0.0862,-0.064497 -0.173,-0.1280716 -0.26042,-0.190715 -0.0741,-0.053217 -0.14855,-0.1057632 -0.22347,-0.157632 -0.0215,-0.015624 -0.0431,-0.03119 -0.0647,-0.0467 0,0 -0.0221,-0.01558 -0.0221,-0.01558 -0.0759,-0.051943 -0.15226,-0.1031914 -0.22902,-0.153739 -0.0918,-0.060687 -0.18411,-0.1203698 -0.27704,-0.179037 -0.10699,-0.067521 -0.21473,-0.1336924 -0.32322,-0.1985 -0.087,-0.051477 -0.17438,-0.1020769 -0.26226,-0.151793 -0.0209,-0.011727 -0.0418,-0.023403 -0.0628,-0.03503 -0.0809,-0.046162 -0.16215,-0.091572 -0.24379,-0.136224 -0.0809,-0.043558 -0.16217,-0.086374 -0.24379,-0.128441 -0.0154,-0.00781 -0.0308,-0.0156 -0.0462,-0.02336 -0.0968,-0.049708 -0.19407,-0.098362 -0.29181,-0.145955 -0.0828,-0.040335 -0.1659,-0.079907 -0.24934,-0.118711 0,0 -0.0221,-0.0097 -0.0221,-0.0097 -0.0363,-0.016361 -0.0726,-0.032578 -0.10896,-0.04865 -0.0706,-0.032336 -0.14138,-0.064124 -0.2124,-0.09536 -0.0993,-0.043246 -0.19906,-0.085414 -0.29921,-0.126496 -0.0987,-0.04063 -0.19786,-0.080202 -0.29736,-0.11871 -0.019,-0.00717 -0.0381,-0.014306 -0.0572,-0.0214 -0.0749,-0.028494 -0.15001,-0.056384 -0.22532,-0.08367 -0.01,-0.0039 -0.0197,-0.00779 -0.0295,-0.01167 -0.11774,-0.0417 -0.23596,-0.081921 -0.35461,-0.120656 -0.0713,-0.023889 -0.14268,-0.047239 -0.21425,-0.07005 -0.0725,-0.022611 -0.14514,-0.044668 -0.21794,-0.06617 -0.0443,-0.013833 -0.0886,-0.02746 -0.13297,-0.04088 -0.0105,-0.00261 -0.0209,-0.00521 -0.0314,-0.0078 -0.0958,-0.027559 -0.19184,-0.054157 -0.28811,-0.07979 -0.10502,-0.027747 -0.2103,-0.054345 -0.31584,-0.07979 -0.10503,-0.025796 -0.21031,-0.050447 -0.31582,-0.07395 -0.0946,-0.021035 -0.18945,-0.041146 -0.28444,-0.06033 -0.0388,-0.00729 -0.0776,-0.014421 -0.11636,-0.0214 -0.0781,-0.014896 -0.15627,-0.029167 -0.23456,-0.04281 -0.0904,-0.015753 -0.18088,-0.030671 -0.2715,-0.04475 -0.0529,-0.00807 -0.10586,-0.015859 -0.15884,-0.02336 -0.0701,-0.010235 -0.1403,-0.019968 -0.21055,-0.0292 -0.10699,-0.014139 -0.21412,-0.027113 -0.32137,-0.03892 -0.0904,-0.00926 -0.18093,-0.017697 -0.2715,-0.0253 -0.10765,-0.00961 -0.21539,-0.018042 -0.32321,-0.0253 -0.0659,-0.00433 -0.13173,-0.00822 -0.19763,-0.01167 -0.0419,-0.00278 -0.0837,-0.00538 -0.1256,-0.0078 -0.1077,-0.00441 -0.21544,-0.00764 -0.32321,-0.0097 -0.0911,-0.00214 -0.18222,-0.00344 -0.27335,-0.0039 -0.0499,-2.511e-4 -0.0997,-2.511e-4 -0.1496,0 z m 0.0738,67.0538123 19.36156,59.11384 H 238.04233 Z M 88.688828,154.26086 H 194.12373 l -24.33908,74.31265 z m 138.550692,0 h 60.32689 l 31.98175,97.65578 -62.14612,56.94592 -62.14428,-56.94592 z m 93.44267,0 H 426.1171 l -81.09582,74.31265 z m -136.43593,131.27998 49.30428,45.17999 -91.58463,83.9243 z m 146.31341,0 42.28035,129.10429 -91.58465,-83.9243 z"
       style="color:#000000;font-style:normal;font-variant:normal;font-weight:normal;font-stretch:normal;font-size:medium;line-height:normal;font-family:sans-serif;font-variant-ligatures:normal;font-variant-position:normal;font-variant-caps:normal;font-variant-numeric:normal;font-variant-alternates:normal;font-variant-east-asian:normal;font-feature-settings:normal;font-variation-settings:normal;text-indent:0;text-align:start;text-decoration:none;text-decoration-line:none;text-decoration-style:solid;text-decoration-color:#000000;letter-spacing:normal;word-spacing:normal;text-transform:none;writing-mode:lr-tb;direction:ltr;text-orientation:mixed;dominant-baseline:auto;baseline-shift:baseline;text-anchor:start;white-space:normal;shape-padding:0;shape-margin:0;inline-size:0;clip-rule:nonzero;display:inline;overflow:visible;visibility:visible;isolation:auto;mix-blend-mode:normal;color-interpolation:sRGB;color-interpolation-filters:linearRGB;solid-color:#000000;solid-opacity:1;vector-effect:none;fill:#ffffff;fill-opacity:1;fill-rule:nonzero;stroke:none;stroke-width:33.1056;stroke-linecap:butt;stroke-linejoin:round;stroke-miterlimit:4;stroke-dasharray:none;stroke-dashoffset:0;stroke-opacity:1;paint-order:stroke fill markers;color-rendering:auto;image-rendering:auto;shape-rendering:auto;text-rendering:auto;enable-background:accumulate;stop-color:#000000" />
  </g>
</svg>
