<?xml version="1.0" encoding="UTF-8" standalone="no"?>
<svg
   xmlns:dc="http://purl.org/dc/elements/1.1/"
   xmlns:cc="http://creativecommons.org/ns#"
   xmlns:rdf="http://www.w3.org/1999/02/22-rdf-syntax-ns#"
   xmlns:svg="http://www.w3.org/2000/svg"
   xmlns="http://www.w3.org/2000/svg"
   xmlns:xlink="http://www.w3.org/1999/xlink"
   xmlns:sodipodi="http://sodipodi.sourceforge.net/DTD/sodipodi-0.dtd"
   xmlns:inkscape="http://www.inkscape.org/namespaces/inkscape"
   inkscape:version="1.0 (4035a4fb49, 2020-05-01)"
   sodipodi:docname="magic-talent_bwc.svg"
   id="svg5"
   version="1.1"
   height="512"
   width="512"
   viewBox="0 0 512 512">
  <title
     id="title835">Magic: Tricks</title>
  <metadata
     id="metadata11">
    <rdf:RDF>
      <cc:Work
         rdf:about="">
        <dc:format>image/svg+xml</dc:format>
        <dc:type
           rdf:resource="http://purl.org/dc/dcmitype/StillImage" />
        <dc:title>Magic: Tricks</dc:title>
        <cc:license
           rdf:resource="http://creativecommons.org/licenses/by-sa/4.0/" />
        <dc:date>2022.02.05</dc:date>
        <dc:creator>
          <cc:Agent>
            <dc:title>Streuner²</dc:title>
          </cc:Agent>
        </dc:creator>
        <dc:contributor>
          <cc:Agent>
            <dc:title>completely selfmade</dc:title>
          </cc:Agent>
        </dc:contributor>
      </cc:Work>
      <cc:License
         rdf:about="http://creativecommons.org/licenses/by-sa/4.0/">
        <cc:permits
           rdf:resource="http://creativecommons.org/ns#Reproduction" />
        <cc:permits
           rdf:resource="http://creativecommons.org/ns#Distribution" />
        <cc:requires
           rdf:resource="http://creativecommons.org/ns#Notice" />
        <cc:requires
           rdf:resource="http://creativecommons.org/ns#Attribution" />
        <cc:permits
           rdf:resource="http://creativecommons.org/ns#DerivativeWorks" />
        <cc:requires
           rdf:resource="http://creativecommons.org/ns#ShareAlike" />
      </cc:License>
    </rdf:RDF>
  </metadata>
  <defs
     id="defs9">
    <linearGradient
       id="linearGradient887"
       inkscape:collect="always">
      <stop
         id="stop883"
         offset="0"
         style="stop-color:#ced9e0;stop-opacity:1" />
      <stop
         id="stop885"
         offset="1"
         style="stop-color:#425a66;stop-opacity:1" />
    </linearGradient>
    <radialGradient
       gradientUnits="userSpaceOnUse"
       gradientTransform="matrix(1,0,0,0.99975196,0,0.06349899)"
       r="185.02441"
       fy="256"
       fx="256.00293"
       cy="256"
       cx="256.00293"
       id="radialGradient889"
       xlink:href="#linearGradient887"
       inkscape:collect="always" />
  </defs>
  <sodipodi:namedview
     inkscape:current-layer="g987"
     inkscape:window-maximized="1"
     inkscape:window-y="-11"
     inkscape:window-x="-11"
     inkscape:cy="226.39837"
     inkscape:cx="238.2702"
     inkscape:zoom="1.7111432"
     showgrid="false"
     id="namedview7"
     inkscape:window-height="2066"
     inkscape:window-width="3840"
     inkscape:pageshadow="2"
     inkscape:pageopacity="0.61960784"
     guidetolerance="10"
     gridtolerance="10"
     objecttolerance="10"
     borderopacity="1"
     bordercolor="#666666"
     pagecolor="#323232"
     inkscape:document-rotation="0"
     borderlayer="false"
     inkscape:showpageshadow="false"
     showguides="true"
     inkscape:guide-bbox="true"
     guidecolor="#00ff00"
     guideopacity="0.49803922">
    <sodipodi:guide
       position="256,256"
       orientation="-1,0"
       id="guide869"
       inkscape:label=""
       inkscape:locked="false"
       inkscape:color="rgb(0,255,0)" />
    <sodipodi:guide
       position="256,256"
       orientation="0,1"
       id="guide905"
       inkscape:label=""
       inkscape:locked="false"
       inkscape:color="rgb(0,255,0)" />
  </sodipodi:namedview>
  <filter
     id="shadow">
    <feDropShadow
       stdDeviation="6"
       dy="12"
       dx="6" />
  </filter>
  <g
     id="g987"
     transform="matrix(0.90491517,0,0,0.90746524,23.072155,38.656116)"
     style="stroke-width:1.54493;stroke-miterlimit:4;stroke-dasharray:none">
    <path
       d="m 392.99653,247.3802 -0.002,0.002 c -0.0407,2.9e-4 -0.0823,10e-4 -0.12303,0.002 -0.0482,8.3e-4 -0.0964,0.002 -0.14461,0.004 -0.0187,9.9e-4 -0.0375,0.003 -0.0561,0.004 -0.022,9.9e-4 -0.045,0.003 -0.0669,0.004 -0.007,6.5e-4 -0.0142,0.001 -0.0216,0.002 -0.0482,0.003 -0.0965,0.007 -0.14461,0.0108 -0.048,0.004 -0.0946,0.008 -0.14244,0.0129 -0.0408,0.006 -0.0823,0.01 -0.12303,0.0151 -0.0325,0.004 -0.0648,0.01 -0.0971,0.0151 -0.0629,0.009 -0.12515,0.0192 -0.18777,0.0301 -0.035,0.006 -0.0709,0.0126 -0.10577,0.0194 -0.0176,0.003 -0.0343,0.006 -0.0518,0.009 -0.008,0.002 -0.0141,0.005 -0.0216,0.006 -10e-4,2.7e-4 -0.003,-3.1e-4 -0.004,0 h -0.002 c -0.0408,0.008 -0.0801,0.0168 -0.12087,0.0258 -0.0433,0.01 -0.0863,0.0194 -0.1295,0.0301 l -0.0129,0.004 c -0.0397,0.01 -0.0792,0.0194 -0.1187,0.0301 -0.0343,0.009 -0.0674,0.0184 -0.10145,0.028 -0.0177,0.006 -0.0365,0.01 -0.054,0.0151 -0.0113,0.003 -0.0211,0.01 -0.0324,0.0129 -0.0361,0.011 -0.0718,0.0209 -0.10791,0.0323 h -0.004 c -0.0389,0.0125 -0.0778,0.0234 -0.11655,0.0366 -0.0212,0.007 -0.0414,0.0163 -0.0626,0.0237 -0.0317,0.011 -0.0634,0.0209 -0.095,0.0323 -0.0396,0.0146 -0.0794,0.0299 -0.1187,0.0452 -0.006,0.002 -0.0113,0.006 -0.0173,0.009 -0.0383,0.0151 -0.0784,0.0315 -0.11656,0.0473 -0.0378,0.0158 -0.0747,0.031 -0.11223,0.0473 -0.0113,0.006 -0.0232,0.01 -0.0345,0.0151 -0.009,0.004 -0.0175,0.008 -0.0259,0.0108 -0.0317,0.014 -0.0635,0.0285 -0.095,0.0431 -0.002,8.9e-4 -0.003,0.001 -0.006,0.002 -0.004,0.002 -0.009,0.003 -0.0129,0.006 -0.0398,0.0186 -0.0792,0.0387 -0.11871,0.0581 -0.0215,0.011 -0.0433,0.0214 -0.0648,0.0323 -0.0198,0.01 -0.0386,0.0202 -0.0583,0.0301 -0.007,0.003 -0.0127,0.008 -0.0194,0.0108 -0.0416,0.0215 -0.0841,0.0423 -0.12519,0.0646 -0.009,0.006 -0.0171,0.01 -0.0259,0.0151 -0.0293,0.0162 -0.0572,0.0329 -0.0863,0.0495 -0.006,0.004 -0.0129,0.008 -0.0194,0.0108 -0.0423,0.0242 -0.0855,0.0499 -0.12733,0.0753 -0.0354,0.0213 -0.0707,0.0427 -0.10576,0.0646 -0.006,0.004 -0.013,0.009 -0.0194,0.0129 -0.0415,0.0264 -0.082,0.0522 -0.12303,0.0796 -0.0407,0.027 -0.0807,0.0539 -0.12087,0.0818 -0.0406,0.0282 -0.0809,0.0571 -0.12086,0.0861 -0.0388,0.0282 -0.0782,0.0571 -0.11655,0.0861 l -0.002,0.002 c -0.0333,0.0255 -0.0666,0.0515 -0.0993,0.0775 -0.0171,0.0134 -0.0348,0.0251 -0.0518,0.0387 -0.0274,0.022 -0.0527,0.0443 -0.0799,0.0667 -0.0347,0.0286 -0.0695,0.059 -0.1036,0.0882 -0.0221,0.0194 -0.045,0.0385 -0.0669,0.0581 -0.0162,0.0142 -0.0313,0.0285 -0.0475,0.043 -0.007,0.006 -0.0144,0.0129 -0.0216,0.0194 -0.026,0.0234 -0.0521,0.0471 -0.0777,0.071 -0.006,0.006 -0.0118,0.01 -0.0173,0.0151 -0.0305,0.0285 -0.0607,0.0569 -0.0906,0.0861 v 0.002 c -0.006,0.006 -0.0118,0.01 -0.0173,0.0151 -0.0353,0.0346 -0.069,0.0701 -0.1036,0.10546 -0.0325,0.0332 -0.0652,0.0672 -0.0971,0.10116 -0.007,0.008 -0.0142,0.0139 -0.0216,0.0215 v 0.002 c -0.0286,0.0311 -0.0582,0.061 -0.0863,0.0925 -0.0283,0.0313 -0.0564,0.0629 -0.0842,0.0947 -0.006,0.006 -0.01,0.0115 -0.0151,0.0172 -0.0275,0.0318 -0.055,0.0646 -0.082,0.0968 -0.0261,0.0313 -0.0498,0.0628 -0.0755,0.0947 -0.007,0.008 -0.0148,0.0152 -0.0216,0.0237 v 0.002 c -0.0217,0.0273 -0.0434,0.0542 -0.0648,0.0818 -0.011,0.0135 -0.0198,0.0252 -0.0302,0.0387 v 0.002 l -0.009,0.009 c -0.0256,0.0336 -0.0504,0.067 -0.0755,0.10116 -0.0293,0.0397 -0.0578,0.0802 -0.0863,0.12052 l -0.002,0.002 c -0.004,0.006 -0.009,0.0111 -0.0129,0.0172 v 0.002 c -0.0239,0.0343 -0.0479,0.0685 -0.0712,0.10331 v 0.002 c -0.0203,0.0302 -0.0405,0.0599 -0.0604,0.0904 -0.01,0.0149 -0.0206,0.0281 -0.0302,0.0431 v 0.002 c -0.0136,0.0212 -0.0254,0.041 -0.0388,0.0624 -0.0136,0.0212 -0.0276,0.0432 -0.041,0.0646 -0.0192,0.0314 -0.0395,0.063 -0.0583,0.0947 -0.006,0.009 -0.01,0.017 -0.0151,0.0258 -0.004,0.006 -0.007,0.0115 -0.0108,0.0172 -0.0215,0.0369 -0.0418,0.0746 -0.0626,0.11192 -0.011,0.0189 -0.0217,0.0369 -0.0324,0.056 -0.0176,0.0319 -0.0347,0.0646 -0.0518,0.0969 -0.0221,0.0412 -0.0455,0.0832 -0.0669,0.12483 -0.006,0.0112 -0.01,0.023 -0.0151,0.0344 -0.002,0.006 -0.006,0.01 -0.009,0.0151 v 0.002 c -0.0119,0.0239 -0.025,0.047 -0.0367,0.071 v 0.002 c -0.003,0.007 -0.008,0.0123 -0.0108,0.0194 -0.0406,0.0839 -0.079,0.16852 -0.11655,0.25396 v 0.002 c -0.009,0.0211 -0.019,0.0413 -0.0281,0.0624 -0.014,0.0326 -0.0275,0.0639 -0.041,0.0968 v 0.002 c -0.0163,0.0395 -0.0319,0.0786 -0.0475,0.11838 -0.018,0.0456 -0.0369,0.0918 -0.0539,0.13774 l -0.002,0.004 c -0.002,0.007 -0.003,0.0145 -0.006,0.0215 -0.0146,0.0404 -0.0292,0.0798 -0.0432,0.12054 v 0.002 c -0.0154,0.0444 -0.0308,0.0886 -0.0453,0.13343 v 0.002 0.002 l -0.004,0.006 -0.004,0.0172 -0.004,0.006 -16.83515,51.74957 h -70.678 c -0.80882,2.5e-4 -1.56366,0.13483 -2.25547,0.37666 -0.69179,0.2418 -1.32025,0.59219 -1.87777,1.02664 -0.27922,0.21759 -0.53901,0.4557 -0.78132,0.7124 -0.24155,0.25588 -0.46639,0.52922 -0.66909,0.81787 -0.8126,1.15662 -1.30251,2.55198 -1.40509,3.99034 -0.0257,0.35948 -0.0287,0.72083 -0.004,1.08261 0.003,0.0505 0.0172,0.10016 0.0216,0.15065 0.0581,0.67367 0.19568,1.34471 0.43814,1.99302 0.39007,1.04406 1.02728,2.02862 1.94252,2.8733 l 54.6322,50.39363 -20.55615,63.18036 -8.72189,26.80674 c -2.33391,7.18035 5.80319,13.00364 11.20831,8.02156 l 62.16269,-57.33905 62.16483,57.33905 c 5.4051,4.98208 13.54007,-0.84121 11.20617,-8.02156 l -29.27588,-89.99141 54.63435,-50.39363 c 4.88122,-4.50483 1.87969,-13.02117 -4.59081,-13.02348 h -70.67522 l -16.83731,-51.74957 -0.002,-0.004 c -0.0129,-0.0394 -0.0253,-0.079 -0.0389,-0.11837 -0.003,-0.008 -0.006,-0.0154 -0.009,-0.0237 v -0.002 c -0.0166,-0.0481 -0.0343,-0.0943 -0.0518,-0.14204 -0.0173,-0.0476 -0.0334,-0.095 -0.0518,-0.14206 -0.0133,-0.0337 -0.0273,-0.0678 -0.041,-0.10116 -0.007,-0.0173 -0.0148,-0.0344 -0.0216,-0.0516 l -0.004,-0.0108 c -0.0165,-0.0396 -0.0325,-0.0791 -0.0496,-0.11837 -0.0202,-0.0463 -0.0417,-0.0919 -0.0626,-0.13775 -0.003,-0.007 -0.006,-0.0142 -0.009,-0.0215 -0.0179,-0.0387 -0.0356,-0.0778 -0.054,-0.11622 -0.0221,-0.0455 -0.0461,-0.0906 -0.0691,-0.1356 -0.0171,-0.0334 -0.0343,-0.0659 -0.0518,-0.099 v -0.002 c -0.0562,-0.10689 -0.11376,-0.21041 -0.17483,-0.31424 -0.004,-0.009 -0.0124,-0.0175 -0.0173,-0.0258 v -0.002 c -0.0185,-0.0312 -0.0372,-0.0616 -0.0561,-0.0925 v -0.002 c -0.007,-0.011 -0.0147,-0.0175 -0.0216,-0.028 -0.022,-0.0355 -0.0443,-0.0704 -0.0669,-0.10546 -0.0228,-0.0358 -0.0456,-0.0743 -0.0691,-0.10977 -0.004,-0.006 -0.009,-0.013 -0.0129,-0.0194 -0.0563,-0.083 -0.11328,-0.16491 -0.17267,-0.24536 -0.0268,-0.0368 -0.0544,-0.0735 -0.082,-0.10977 -0.0286,-0.0371 -0.0571,-0.0734 -0.0863,-0.10977 -0.0215,-0.027 -0.0428,-0.0551 -0.0648,-0.0818 -0.0145,-0.018 -0.0306,-0.0339 -0.0453,-0.0517 -0.0562,-0.0671 -0.11214,-0.13316 -0.17051,-0.19802 -0.004,-0.006 -0.009,-0.01 -0.0129,-0.0151 -0.004,-0.006 -0.009,-0.008 -0.013,-0.0129 -0.0308,-0.0339 -0.0613,-0.068 -0.0928,-0.10115 -0.0186,-0.0197 -0.0374,-0.0387 -0.0561,-0.0581 -0.0163,-0.0168 -0.0335,-0.0329 -0.0497,-0.0495 l -0.006,-0.009 c -0.0295,-0.0297 -0.0585,-0.0591 -0.0885,-0.0883 -0.0519,-0.0508 -0.10433,-0.0994 -0.15756,-0.14851 -0.0252,-0.0232 -0.0521,-0.0481 -0.0777,-0.071 -0.0311,-0.028 -0.0612,-0.0544 -0.0928,-0.0818 l -0.0108,-0.009 c -0.0342,-0.0292 -0.069,-0.0595 -0.10361,-0.0882 -0.038,-0.0314 -0.0758,-0.0619 -0.11439,-0.0925 -0.006,-0.006 -0.0116,-0.008 -0.0173,-0.0129 -0.0267,-0.0212 -0.0526,-0.0437 -0.0799,-0.0646 -0.007,-0.006 -0.0147,-0.01 -0.0216,-0.0151 -0.0385,-0.029 -0.0775,-0.0579 -0.11656,-0.0861 -0.0331,-0.0239 -0.0657,-0.0476 -0.0993,-0.071 -0.01,-0.007 -0.0184,-0.0146 -0.0281,-0.0215 l -0.0108,-0.006 c -0.0339,-0.0235 -0.0694,-0.0462 -0.1036,-0.0689 -0.041,-0.0273 -0.0814,-0.0531 -0.12303,-0.0796 -0.0478,-0.0304 -0.0961,-0.0612 -0.14461,-0.0904 -0.0389,-0.0233 -0.0774,-0.0465 -0.11655,-0.0689 -0.009,-0.006 -0.0186,-0.01 -0.0281,-0.0151 -0.0362,-0.0209 -0.0736,-0.0402 -0.11008,-0.0603 -0.0362,-0.0196 -0.0713,-0.0392 -0.10791,-0.0581 -0.007,-0.004 -0.0146,-0.01 -0.0216,-0.0129 -0.0433,-0.0224 -0.0859,-0.0452 -0.12949,-0.0667 -0.037,-0.0181 -0.0749,-0.0363 -0.11223,-0.0538 h -0.013 c -0.0162,-0.007 -0.0312,-0.0164 -0.0475,-0.0237 -0.0316,-0.0148 -0.0633,-0.0312 -0.095,-0.0452 -0.0444,-0.0195 -0.0891,-0.0374 -0.13381,-0.056 -0.0441,-0.0183 -0.0894,-0.0365 -0.13383,-0.0538 -0.009,-0.003 -0.0172,-0.006 -0.0259,-0.009 -0.0335,-0.0128 -0.0635,-0.0264 -0.0971,-0.0387 -0.004,-0.002 -0.009,-0.002 -0.0129,-0.004 -0.0526,-0.0189 -0.10664,-0.0364 -0.15973,-0.0538 -0.0319,-0.011 -0.0631,-0.0219 -0.0949,-0.0323 -0.0324,-0.01 -0.0646,-0.0204 -0.0971,-0.0301 -0.0198,-0.006 -0.0406,-0.0133 -0.0604,-0.0194 -0.006,-9.9e-4 -0.008,0.001 -0.0129,0 -0.0428,-0.0123 -0.0865,-0.025 -0.1295,-0.0366 -0.0469,-0.0125 -0.093,-0.0252 -0.14029,-0.0366 -0.047,-0.0116 -0.0953,-0.0238 -0.14246,-0.0344 -0.0423,-0.009 -0.0849,-0.0193 -0.12733,-0.028 -0.0173,-0.003 -0.0344,-0.006 -0.0518,-0.009 -0.0349,-0.007 -0.0686,-0.0132 -0.1036,-0.0194 -0.0404,-0.007 -0.0826,-0.0152 -0.12302,-0.0215 -0.0236,-0.004 -0.0453,-0.008 -0.0691,-0.0108 -0.0313,-0.006 -0.0637,-0.009 -0.095,-0.0129 -0.0478,-0.006 -0.0966,-0.0119 -0.14461,-0.0172 -0.0404,-0.004 -0.0803,-0.008 -0.12087,-0.0108 -0.0481,-0.004 -0.0964,-0.008 -0.14461,-0.0108 -0.0294,-0.002 -0.0591,-0.005 -0.0885,-0.006 -0.0187,-9.9e-4 -0.0375,-0.003 -0.0561,-0.004 -0.0481,-0.002 -0.0964,-0.003 -0.1446,-0.004 -0.0407,-0.001 -0.0801,0 -0.12087,0 -0.0223,-1.1e-4 -0.0447,-1.1e-4 -0.0669,0 z m 0.0302,30.1772 8.65499,26.60011 h -17.30998 z m -75.4236,41.44443 h 47.13408 l -10.88024,33.44007 z m 61.94038,0 h 26.96859 l 14.10915,43.36641 0.18778,0.57897 -2.1713,2.00163 c -10e-4,10e-4 -0.003,0.002 -0.004,0.004 l -25.60668,23.61918 -27.78231,-25.62512 z m 41.77273,0 h 24.45197 22.68427 l -36.25383,33.44007 -1.50869,-4.63171 z m -60.99502,59.07595 22.04325,20.3305 -12.03065,11.09719 -28.91328,26.66898 4.11381,-12.64684 z m 65.41101,0 18.90284,58.09667 -40.94393,-37.76617 z"
       style="color:#000000;font-style:normal;font-variant:normal;font-weight:normal;font-stretch:normal;font-size:medium;line-height:normal;font-family:sans-serif;font-variant-ligatures:normal;font-variant-position:normal;font-variant-caps:normal;font-variant-numeric:normal;font-variant-alternates:normal;font-variant-east-asian:normal;font-feature-settings:normal;font-variation-settings:normal;text-indent:0;text-align:start;text-decoration:none;text-decoration-line:none;text-decoration-style:solid;text-decoration-color:#000000;letter-spacing:normal;word-spacing:normal;text-transform:none;writing-mode:lr-tb;direction:ltr;text-orientation:mixed;dominant-baseline:auto;baseline-shift:baseline;text-anchor:start;white-space:normal;shape-padding:0;shape-margin:0;inline-size:0;clip-rule:nonzero;display:inline;overflow:visible;visibility:visible;isolation:auto;mix-blend-mode:normal;color-interpolation:sRGB;color-interpolation-filters:linearRGB;solid-color:#000000;solid-opacity:1;vector-effect:none;fill:#425a66;fill-opacity:1;fill-rule:evenodd;stroke:none;stroke-width:16.5529;stroke-linecap:round;stroke-linejoin:round;stroke-miterlimit:4;stroke-dasharray:none;stroke-dashoffset:0;stroke-opacity:1;paint-order:normal;color-rendering:auto;image-rendering:auto;shape-rendering:auto;text-rendering:auto;enable-background:accumulate;stop-color:#000000"
       id="path867" />
    <path
       d="m 257.40454,19.117318 c -121.95225,0 -221.013032,98.758722 -221.013032,220.394112 0,121.63538 99.060782,220.39412 221.013032,220.39412 15.71249,0 31.04111,-1.65286 45.83043,-4.76946 -1.85457,9.45787 2.31974,19.33568 9.48596,24.46504 7.84796,5.61732 21.24881,5.63637 29.35789,-1.83806 a 16.55449,16.554489 0 0 0 0.004,-0.004 l 50.94142,-46.9887 50.9414,46.9887 a 16.55449,16.554489 0 0 0 0.004,0.004 c 8.1091,7.47443 21.51211,7.45538 29.36006,1.83806 7.84796,-5.61733 12.12976,-16.93014 8.80823,-27.14894 a 16.55449,16.554489 0 0 0 -0.002,-0.004 l -25.99303,-79.89502 46.83191,-43.19853 a 16.55449,16.554489 0 0 0 0.002,-0.002 c 15.00682,-13.84968 5.1786,-41.73177 -15.81208,-41.73928 a 16.55449,16.554489 0 0 0 -0.004,0 h -14.05734 c 3.43305,-15.348 5.2725,-31.29273 5.30523,-47.65808 2e-5,-0.008 0.002,-0.0138 0.002,-0.0215 a 8.2764508,8.2764505 0 0 0 0.0106,-0.42174 8.2764508,8.2764505 0 0 0 -0.0111,-0.38526 C 478.20117,117.66837 379.2274,19.117318 257.40454,19.117318 Z m 0,16.553231 c 113.0325,0 204.46495,91.177551 204.46495,203.840881 0,16.5749 -1.99494,32.67851 -5.73042,48.10145 H 428.5057 l -12.87241,-39.56548 0.17051,0.76837 a 16.55449,16.554489 0 0 0 -0.41872,-1.53458 c -0.0111,-0.0337 -0.0234,-0.0674 -0.0345,-0.10116 l -0.0238,-0.0775 a 16.55449,16.554489 0 0 0 -0.0799,-0.2389 c -0.0515,-0.14922 -0.10741,-0.29725 -0.16187,-0.44553 l -0.002,-0.007 c -0.0543,-0.14761 -0.10896,-0.29457 -0.16619,-0.44122 a 16.55449,16.554489 0 0 0 -0.0151,-0.0344 l -0.004,-0.009 a 16.55449,16.554489 0 0 0 -0.002,-0.0129 c -0.0138,-0.0352 -0.027,-0.0704 -0.041,-0.10545 -0.008,-0.0201 -0.0157,-0.0402 -0.0238,-0.0603 l -0.0367,-0.0883 a 16.55449,16.554489 0 0 0 -0.0842,-0.20447 c -0.0507,-0.12186 -0.10266,-0.24479 -0.15539,-0.36589 l -0.004,-0.009 c -0.0543,-0.12448 -0.10974,-0.24871 -0.16619,-0.37235 l -0.004,-0.009 c -0.009,-0.0199 -0.0167,-0.0403 -0.0259,-0.0603 a 16.55449,16.554489 0 0 0 -0.0151,-0.0344 c -0.0566,-0.12276 -0.1161,-0.24616 -0.17484,-0.36805 a 16.55449,16.554489 0 0 0 -0.0259,-0.0538 c -0.0703,-0.1446 -0.1404,-0.28713 -0.21366,-0.43045 a 16.55449,16.554489 0 0 0 -0.002,-0.004 c -0.0441,-0.0862 -0.0908,-0.17253 -0.13597,-0.25827 -0.17907,-0.34086 -0.36547,-0.67667 -0.56118,-1.00942 a 16.55449,16.554489 0 0 0 -0.0367,-0.0646 c -0.002,-0.003 -0.004,-0.006 -0.007,-0.009 l -0.0453,-0.0754 c -0.0455,-0.0762 -0.0896,-0.15465 -0.13598,-0.2303 a 16.55449,16.554489 0 0 0 -0.067,-0.10325 c -0.0386,-0.0623 -0.0774,-0.12312 -0.11655,-0.1851 a 16.55449,16.554489 0 0 0 -0.0582,-0.0883 c -0.002,-0.004 -0.002,-0.007 -0.004,-0.011 l -0.0238,-0.0366 c -0.0659,-0.10281 -0.1333,-0.20589 -0.20073,-0.30778 a 16.55449,16.554489 0 0 0 -0.11007,-0.16572 l -0.0151,-0.0215 c -0.002,-0.003 -0.004,-0.006 -0.007,-0.009 -0.17321,-0.25494 -0.34975,-0.50681 -0.53312,-0.75545 -0.0765,-0.10403 -0.15483,-0.20707 -0.23309,-0.30993 a 16.55449,16.554489 0 0 0 -0.0605,-0.0775 c -0.0847,-0.10998 -0.17016,-0.22075 -0.25684,-0.3293 l -0.0259,-0.0302 c -0.0448,-0.0559 -0.0907,-0.11236 -0.13598,-0.16788 l -0.0432,-0.056 c -0.0326,-0.0399 -0.0665,-0.0787 -0.0992,-0.11837 a 16.55449,16.554489 0 0 0 -0.0518,-0.0646 c -0.16824,-0.20108 -0.3407,-0.39821 -0.51584,-0.59403 a 16.55449,16.554489 0 0 0 -0.12735,-0.14204 c -0.10111,-0.11127 -0.20313,-0.22416 -0.30648,-0.33361 a 16.55449,16.554489 0 0 0 -0.0151,-0.0151 c -0.0575,-0.0608 -0.11661,-0.12059 -0.17482,-0.18079 l -0.0111,-0.0129 c -0.0495,-0.0511 -0.10112,-0.10215 -0.15109,-0.15281 a 16.55449,16.554489 0 0 0 -0.0432,-0.0431 c -0.0162,-0.0163 -0.0313,-0.0333 -0.0475,-0.0495 -0.0711,-0.0712 -0.14382,-0.14268 -0.21584,-0.21307 l -0.0302,-0.0301 c -0.16128,-0.15729 -0.32608,-0.31199 -0.4921,-0.4649 l 0.0195,0.0151 c -0.0775,-0.0716 -0.1589,-0.14244 -0.23743,-0.21307 -0.0312,-0.0281 -0.0614,-0.0561 -0.0928,-0.084 -0.0655,-0.0583 -0.13241,-0.11672 -0.19857,-0.17433 a 16.55449,16.554489 0 0 0 -0.11871,-0.10325 c -0.10896,-0.0933 -0.21735,-0.18628 -0.32808,-0.27764 l -0.0151,-0.011 c -0.088,-0.0726 -0.17634,-0.14604 -0.26547,-0.21738 a 16.55449,16.554489 0 0 0 -0.11655,-0.0926 c -0.0898,-0.0711 -0.18099,-0.14319 -0.27196,-0.21308 a 16.55449,16.554489 0 0 0 -0.0172,-0.0129 c -0.0231,-0.0178 -0.0459,-0.0341 -0.0691,-0.0517 a 16.55449,16.554489 0 0 0 -0.0625,-0.0474 c -0.12424,-0.0935 -0.24933,-0.18645 -0.37556,-0.27764 l -0.0151,-0.011 c -0.038,-0.0274 -0.0763,-0.0545 -0.11439,-0.0818 a 16.55449,16.554489 0 0 0 -0.0863,-0.0624 c -0.0394,-0.0278 -0.0769,-0.0563 -0.11655,-0.084 h -0.002 l -0.009,-0.007 a 16.55449,16.554489 0 0 0 -0.10144,-0.0689 c -0.10499,-0.0723 -0.21324,-0.14459 -0.31944,-0.21523 l -0.009,-0.007 c -0.13561,-0.0902 -0.27247,-0.17939 -0.41009,-0.26689 a 16.55449,16.554489 0 0 0 -0.007,-0.004 c -0.16213,-0.10292 -0.32511,-0.20438 -0.48995,-0.30348 a 16.55449,16.554489 0 0 0 -0.0561,-0.0323 c -0.12317,-0.0734 -0.24661,-0.1462 -0.37123,-0.21738 l -0.0172,-0.009 c -0.004,-0.002 -0.007,-0.004 -0.0111,-0.007 a 16.55449,16.554489 0 0 0 -0.011,-0.007 l -0.0324,-0.0194 c -0.0998,-0.0569 -0.19927,-0.11241 -0.30001,-0.16787 a 16.55449,16.554489 0 0 0 -0.0994,-0.0538 c -0.1235,-0.0669 -0.24642,-0.13111 -0.37123,-0.19585 a 16.55449,16.554489 0 0 0 -0.041,-0.0215 l -0.0691,-0.0366 c -0.002,-0.001 -0.004,-0.001 -0.007,-0.002 -0.12299,-0.063 -0.24705,-0.12636 -0.37124,-0.18725 -0.12689,-0.0623 -0.25392,-0.12301 -0.38203,-0.18294 a 16.55449,16.554489 0 0 0 -0.14677,-0.0668 c -0.0111,-0.006 -0.0219,-0.01 -0.0324,-0.0151 l -0.0129,-0.007 -0.0111,-0.007 c -0.008,-0.004 -0.0176,-0.004 -0.0259,-0.009 a 16.55449,16.554489 0 0 0 -0.0539,-0.0258 16.55449,16.554489 0 0 0 -0.0625,-0.028 c -0.007,-0.003 -0.0144,-0.006 -0.0215,-0.009 -0.0354,-0.0159 -0.0703,-0.0339 -0.10576,-0.0495 a 16.55449,16.554489 0 0 0 -0.0561,-0.0237 c -0.15283,-0.067 -0.30533,-0.13214 -0.45972,-0.19586 -0.14654,-0.0605 -0.29458,-0.1189 -0.44247,-0.17649 -0.0135,-0.006 -0.0275,-0.012 -0.041,-0.0172 a 16.55449,16.554489 0 0 0 -0.0625,-0.0237 c -0.0634,-0.0243 -0.12845,-0.0494 -0.19209,-0.0732 h -0.002 a 16.55449,16.554489 0 0 0 -0.1554,-0.0581 16.55449,16.554489 0 0 0 -0.13381,-0.0495 c -0.14208,-0.0507 -0.28424,-0.0984 -0.42736,-0.14636 l -0.0303,-0.011 c -0.10078,-0.0338 -0.20092,-0.0666 -0.30216,-0.099 a 16.55449,16.554489 0 0 0 -0.0906,-0.028 c -0.0293,-0.009 -0.057,-0.0189 -0.0863,-0.028 l -0.0949,-0.028 c -0.0377,-0.0117 -0.0745,-0.023 -0.11223,-0.0344 a 16.55449,16.554489 0 0 0 -0.23526,-0.0711 l -0.0259,-0.009 c -0.0162,-0.006 -0.0313,-0.008 -0.0475,-0.0129 -0.12435,-0.0356 -0.25057,-0.0698 -0.37555,-0.10326 a 16.55449,16.554489 0 0 0 -0.0303,-0.009 c -0.13951,-0.0371 -0.27847,-0.0731 -0.41872,-0.10766 l -0.0496,-0.011 c -0.14748,-0.0361 -0.29424,-0.0722 -0.44246,-0.10546 a 16.55449,16.554489 0 0 0 -0.004,0 c -0.1476,-0.0331 -0.29416,-0.0667 -0.44246,-0.0969 a 16.55449,16.554489 0 0 0 -0.11439,-0.0215 c -0.0385,-0.008 -0.0758,-0.0142 -0.11439,-0.0215 l -0.0669,-0.0129 c -0.10001,-0.0188 -0.19976,-0.0361 -0.3,-0.0538 a 16.55449,16.554489 0 0 0 -0.0111,-0.002 c -0.14126,-0.0247 -0.28129,-0.0489 -0.42304,-0.071 a 16.55449,16.554489 0 0 0 -0.0432,-0.007 c -0.0605,-0.009 -0.12062,-0.017 -0.18131,-0.0258 l -0.0215,-0.004 c -0.0967,-0.0141 -0.19447,-0.0281 -0.29137,-0.0409 l -0.0172,-0.002 c -0.16166,-0.0214 -0.32566,-0.0401 -0.48778,-0.0581 a 16.55449,16.554489 0 0 0 -0.12087,-0.0151 c -0.11243,-0.0116 -0.22408,-0.0203 -0.3367,-0.0302 l -0.0238,-0.002 c -0.14858,-0.0132 -0.29795,-0.0262 -0.44677,-0.0366 -0.0124,-8.6e-4 -0.0264,-0.001 -0.0389,-0.002 a 16.55449,16.554489 0 0 0 -0.0734,-0.004 c -0.003,-1.7e-4 -0.006,1.5e-4 -0.009,0 -0.0261,-0.002 -0.0516,-0.004 -0.0777,-0.007 a 16.55449,16.554489 0 0 0 -0.22231,-0.011 16.55449,16.554489 0 0 0 -0.24174,-0.0129 c -0.11955,-0.006 -0.24084,-0.008 -0.36045,-0.011 -0.0175,-4.4e-4 -0.0343,4.1e-4 -0.0518,0 -0.0981,-0.002 -0.19758,-0.006 -0.29569,-0.007 -0.0273,-2.8e-4 -0.0547,-0.002 -0.082,-0.002 a 16.55449,16.554489 0 0 0 -0.0324,0 c -0.0756,-3.9e-4 -0.15099,-3.7e-4 -0.22662,0 a 16.55449,16.554489 0 0 0 -0.009,0 16.55449,16.554489 0 0 0 -0.0281,0 h -0.004 c -0.13829,0.001 -0.27834,0.004 -0.41657,0.009 -0.12284,0.003 -0.24628,0.003 -0.36907,0.009 a 16.55449,16.554489 0 0 0 -0.34101,0.0172 16.55449,16.554489 0 0 0 -0.12303,0.009 c -0.0338,0.002 -0.0677,0.004 -0.10145,0.007 a 16.55449,16.554489 0 0 0 -0.0971,0.009 l -0.0625,0.004 a 16.55449,16.554489 0 0 0 -0.20936,0.0151 c -0.0254,0.002 -0.0502,0.003 -0.0756,0.007 h -0.002 c -0.0403,0.003 -0.0804,0.007 -0.12086,0.011 -0.14902,0.0132 -0.29592,0.0269 -0.44461,0.0431 a 16.55449,16.554489 0 0 0 -0.0669,0.009 c -0.14285,0.0161 -0.28487,0.0329 -0.42736,0.0517 a 16.55449,16.554489 0 0 0 -0.0777,0.011 c -0.0722,0.01 -0.14377,0.0196 -0.21584,0.0301 -0.22012,0.0316 -0.43933,0.0676 -0.6583,0.10546 a 16.55449,16.554489 0 0 0 -0.0432,0.007 c -0.11332,0.0199 -0.22589,0.0408 -0.33886,0.0624 -0.009,0.002 -0.0191,0.002 -0.0281,0.004 a 16.55449,16.554489 0 0 0 -0.0345,0.009 c -0.01,0.002 -0.0204,0.004 -0.0303,0.007 -0.0518,0.01 -0.10365,0.0196 -0.15539,0.0301 a 16.55449,16.554489 0 0 0 -0.0625,0.0129 c -0.14249,0.0293 -0.28335,0.0585 -0.4252,0.0904 a 16.55449,16.554489 0 0 0 -0.007,0.002 c -0.15106,0.0342 -0.30298,0.0684 -0.45325,0.10546 a 16.55449,16.554489 0 0 0 -0.17914,0.0474 c -0.0756,0.0193 -0.15119,0.0381 -0.22663,0.0581 -0.11904,0.0315 -0.23766,0.0656 -0.35613,0.099 l 0.0691,-0.0215 c -0.0614,0.017 -0.12222,0.0342 -0.18346,0.0517 a 16.55449,16.554489 0 0 0 -0.21583,0.0646 c -0.007,0.002 -0.0145,0.004 -0.0216,0.007 a 16.55449,16.554489 0 0 0 -0.0756,0.0237 c -0.0111,0.003 -0.0238,0.004 -0.0345,0.009 a 16.55449,16.554489 0 0 0 -0.0842,0.028 16.55449,16.554489 0 0 0 -0.0496,0.0151 c -0.0364,0.0113 -0.0737,0.0229 -0.11007,0.0344 a 16.55449,16.554489 0 0 0 -0.0518,0.0172 c -0.12523,0.0401 -0.25112,0.0804 -0.37556,0.12268 -0.003,8.7e-4 -0.006,0.001 -0.009,0.002 -0.007,0.002 -0.0144,0.006 -0.0215,0.009 -0.0637,0.0217 -0.12424,0.0445 -0.18778,0.0667 -0.075,0.0261 -0.14978,0.0507 -0.22447,0.0775 a 16.55449,16.554489 0 0 0 -0.11871,0.0431 c -0.12557,0.0462 -0.24871,0.0938 -0.37339,0.14205 -0.004,0.001 -0.009,0.002 -0.0129,0.004 -0.007,0.003 -0.0145,0.006 -0.0215,0.009 a 16.55449,16.554489 0 0 0 -0.0777,0.028 c -0.13254,0.0522 -0.26569,0.10689 -0.39714,0.16143 a 16.55449,16.554489 0 0 0 -0.004,0.002 c -0.0196,0.008 -0.0387,0.0176 -0.0582,0.0258 -0.033,0.0135 -0.0663,0.0272 -0.0992,0.0409 a 16.55449,16.554489 0 0 0 -0.34102,0.14635 c -0.0294,0.013 -0.0592,0.0277 -0.0885,0.0409 -0.0882,0.0395 -0.17564,0.0779 -0.26331,0.11838 a 16.55449,16.554489 0 0 0 -0.0863,0.0409 16.55449,16.554489 0 0 0 -0.30001,0.14206 c -0.0359,0.0174 -0.0721,0.0362 -0.10796,0.0538 a 16.55449,16.554489 0 0 0 -0.0734,0.0344 c -0.0737,0.0366 -0.14683,0.0746 -0.22015,0.11192 -0.0122,0.006 -0.0245,0.011 -0.0367,0.0172 a 16.55449,16.554489 0 0 0 -0.23526,0.12268 c -0.0225,0.0119 -0.0444,0.0225 -0.0669,0.0344 -0.0841,0.0444 -0.16898,0.0901 -0.25252,0.1356 a 16.55449,16.554489 0 0 0 -0.19641,0.10976 c -0.03,0.0169 -0.0608,0.0325 -0.0906,0.0495 -0.0378,0.0212 -0.0746,0.0432 -0.11223,0.0646 a 16.55449,16.554489 0 0 0 -0.2957,0.17219 h -0.002 a 16.55449,16.554489 0 0 0 -0.004,0.002 c -0.0215,0.0129 -0.0431,0.0258 -0.0648,0.0387 -0.0376,0.0223 -0.0747,0.0442 -0.11223,0.0668 -0.008,0.006 -0.016,0.01 -0.0238,0.0151 h -0.002 c -0.11171,0.0673 -0.22192,0.13753 -0.33238,0.20662 a 16.55449,16.554489 0 0 0 -0.12088,0.0754 c -0.002,0.001 -0.004,0.003 -0.007,0.004 a 16.55449,16.554489 0 0 0 -0.0151,0.011 c -0.0215,0.0137 -0.0432,0.0271 -0.0648,0.0409 -0.11187,0.0718 -0.22404,0.14377 -0.33455,0.21739 -0.12705,0.0845 -0.25248,0.16926 -0.37771,0.25612 a 16.55449,16.554489 0 0 0 -0.0215,0.0172 c -0.13651,0.095 -0.27147,0.19066 -0.40577,0.28839 -0.0406,0.0296 -0.0805,0.0606 -0.12087,0.0904 -0.0854,0.0629 -0.17241,0.12539 -0.25684,0.18941 a 16.55449,16.554489 0 0 0 -0.0496,0.0366 c -0.11159,0.0852 -0.2203,0.17118 -0.33023,0.25828 -0.0229,0.0181 -0.0462,0.0356 -0.0691,0.0538 a 16.55449,16.554489 0 0 0 -0.0539,0.0452 c -0.0917,0.0735 -0.18364,0.14692 -0.2741,0.22169 -0.10973,0.0905 -0.21802,0.18094 -0.32592,0.27334 a 16.55449,16.554489 0 0 0 -0.15755,0.1356 c -0.009,0.008 -0.0166,0.0176 -0.0259,0.0258 -0.0543,0.0474 -0.10808,0.0942 -0.16188,0.14206 -0.01,0.009 -0.0222,0.0187 -0.0324,0.028 a 16.55449,16.554489 0 0 0 -0.004,0.004 c -0.0239,0.0213 -0.0453,0.041 -0.0691,0.0624 -0.0838,0.0755 -0.16777,0.1537 -0.25036,0.23029 a 16.55449,16.554489 0 0 0 -0.17483,0.16357 c -0.0182,0.0174 -0.0358,0.032 -0.0539,0.0495 -0.0537,0.0513 -0.10664,0.10337 -0.15971,0.15497 a 16.55449,16.554489 0 0 0 -0.0777,0.0754 l -0.0129,0.0129 c -0.11202,0.11009 -0.22273,0.22142 -0.33239,0.3336 -0.0406,0.0416 -0.0807,0.083 -0.12087,0.12483 -0.007,0.007 -0.0146,0.0143 -0.0215,0.0215 a 16.55449,16.554489 0 0 0 -0.0906,0.0969 c -0.0273,0.0287 -0.0549,0.0573 -0.082,0.0861 a 16.55449,16.554489 0 0 0 -0.1295,0.13558 c -0.0636,0.069 -0.12713,0.13912 -0.18993,0.20878 -0.008,0.009 -0.016,0.0173 -0.0238,0.0258 -0.0221,0.0246 -0.0428,0.0506 -0.0648,0.0754 -0.0625,0.0699 -0.12604,0.14032 -0.18777,0.21092 a 16.55449,16.554489 0 0 0 -0.12735,0.14635 c -0.0162,0.0191 -0.0313,0.0368 -0.0475,0.056 -0.0593,0.0696 -0.11845,0.13856 -0.17698,0.20877 -0.0657,0.0788 -0.13174,0.15927 -0.19641,0.2389 -0.006,0.007 -0.0114,0.0142 -0.0172,0.0215 -0.0116,0.0144 -0.023,0.0286 -0.0345,0.0431 -0.006,0.006 -0.008,0.0115 -0.0129,0.0172 a 16.55449,16.554489 0 0 0 -0.0842,0.10545 c -0.0705,0.0888 -0.14017,0.17716 -0.20937,0.26688 -0.006,0.007 -0.01,0.0128 -0.0151,0.0194 a 16.55449,16.554489 0 0 0 -0.0842,0.10976 l -0.0345,0.0452 c -0.0143,0.019 -0.0288,0.037 -0.0432,0.056 a 16.55449,16.554489 0 0 0 -0.14245,0.19371 c -0.009,0.0119 -0.0171,0.0225 -0.0259,0.0344 a 16.55449,16.554489 0 0 0 -0.0195,0.028 c -0.0282,0.0385 -0.0563,0.0777 -0.0842,0.11622 a 16.55449,16.554489 0 0 0 -0.082,0.10976 c -0.0143,0.0198 -0.029,0.0403 -0.0432,0.0603 a 16.55449,16.554489 0 0 0 -0.0324,0.0452 16.55449,16.554489 0 0 0 -0.0885,0.12699 c -0.0743,0.10678 -0.14985,0.215 -0.22232,0.32283 -0.003,0.006 -0.006,0.008 -0.009,0.0129 -7.9e-4,0.001 -10e-4,0.003 -0.002,0.004 -0.0616,0.0917 -0.12323,0.18519 -0.18346,0.27764 -0.0307,0.0471 -0.0624,0.0948 -0.0928,0.14206 a 16.55449,16.554489 0 0 0 -0.002,0.004 c -0.0438,0.0683 -0.0864,0.1379 -0.1295,0.20662 -0.0136,0.0215 -0.0275,0.043 -0.041,0.0646 a 16.55449,16.554489 0 0 0 -0.0885,0.14206 c -0.0232,0.038 -0.046,0.076 -0.0691,0.11406 -0.0115,0.0187 -0.0231,0.0395 -0.0345,0.0581 a 16.55449,16.554489 0 0 0 -0.0129,0.0215 c -0.003,0.006 -0.007,0.0116 -0.0111,0.0172 l -0.0111,0.0172 c -0.0151,0.0252 -0.0304,0.05 -0.0453,0.0754 a 16.55449,16.554489 0 0 0 -0.0842,0.1442 c -0.0456,0.0781 -0.0914,0.15604 -0.13597,0.2346 -0.0118,0.0207 -0.025,0.0417 -0.0367,0.0624 -0.011,0.0195 -0.0213,0.0385 -0.0324,0.0581 -0.0115,0.0205 -0.023,0.0419 -0.0345,0.0624 a 16.55449,16.554489 0 0 0 -0.0648,0.11837 c -0.0448,0.0814 -0.0901,0.16351 -0.13382,0.24537 -0.008,0.0149 -0.0158,0.0281 -0.0238,0.0431 -0.003,0.006 -0.006,0.0135 -0.009,0.0194 -0.0591,0.11096 -0.11969,0.22183 -0.17697,0.3336 a 16.55449,16.554489 0 0 0 -0.0215,0.0452 c -0.026,0.0512 -0.0521,0.10138 -0.0777,0.15281 -6.5e-4,0.001 -10e-4,0.003 -0.002,0.004 -6.5e-4,0.001 -10e-4,0.003 -0.002,0.004 -0.0376,0.0754 -0.0734,0.15039 -0.11006,0.22599 a 16.55449,16.554489 0 0 0 -0.0496,0.10325 c -0.11989,0.24918 -0.23639,0.49843 -0.34749,0.75115 a 16.55449,16.554489 0 0 0 -0.0172,0.0431 c -0.0291,0.0665 -0.0579,0.13132 -0.0863,0.198 a 16.55449,16.554489 0 0 0 -0.0561,0.1356 c -0.0183,0.0435 -0.0381,0.0876 -0.0561,0.13128 a 16.55449,16.554489 0 0 0 -0.002,0.011 c -0.0515,0.12499 -0.10387,0.25092 -0.15325,0.37665 -0.01,0.0259 -0.0201,0.0516 -0.0302,0.0775 a 16.55449,16.554489 0 0 0 -0.0195,0.0495 16.55449,16.554489 0 0 0 -0.14244,0.3745 l 0.082,-0.1851 0.0259,-0.0538 a 16.55449,16.554489 0 0 0 -0.25469,0.66075 16.55449,16.554489 0 0 0 -0.004,0.009 c -4.1e-4,9.9e-4 4e-4,0.003 0,0.004 -0.002,0.006 -0.004,0.01 -0.007,0.0151 -10e-4,0.003 -0.003,0.007 -0.004,0.011 -0.004,0.0123 -0.007,0.0242 -0.0111,0.0366 -0.01,0.0301 -0.0223,0.0603 -0.0324,0.0904 a 16.55449,16.554489 0 0 0 -0.0281,0.0883 l -0.0195,0.0581 c -0.0143,0.0431 -0.0292,0.0861 -0.0432,0.12914 l 0.0324,-0.10336 a 16.55449,16.554489 0 0 0 -0.041,0.12053 l -13.11631,40.31878 h -58.6532 a 16.55449,16.554489 0 0 0 -0.007,0 c -20.99067,0.008 -30.8189,27.88961 -15.81208,41.73929 a 16.55449,16.554489 0 0 0 0.004,0.002 l 46.8319,43.19854 -20.90794,64.26296 c -16.47912,4.26299 -33.76753,6.5365 -51.59539,6.5365 -113.02667,10e-4 -204.454802,-91.17632 -204.454802,-203.83966 0,-112.66333 91.428132,-203.840881 204.460642,-203.840881 z m 135.5898,211.711801 v 0.002 c 0.0223,-1.1e-4 0.0446,-1.1e-4 0.0668,0 0.0407,0 0.0801,10e-4 0.12086,0.002 0.0482,0.001 0.0965,0.002 0.14462,0.004 0.0187,10e-4 0.0375,10e-4 0.0561,0.002 0.0294,0.001 0.0591,0.004 0.0885,0.007 0.0482,0.003 0.0965,0.007 0.14461,0.011 0.0405,0.003 0.0804,0.007 0.12087,0.011 0.048,0.006 0.0968,0.0133 0.14461,0.0194 0.0314,0.004 0.0616,0.008 0.0928,0.0129 0.0238,0.003 0.0475,0.007 0.0713,0.011 0.0404,0.007 0.0827,0.0123 0.12303,0.0194 0.0349,0.007 0.0687,0.0123 0.10354,0.0194 0.0174,0.003 0.0345,0.006 0.0518,0.009 0.0424,0.009 0.0851,0.019 0.12734,0.028 0.0472,0.011 0.0955,0.0228 0.14245,0.0344 0.0472,0.0113 0.0934,0.0219 0.14029,0.0344 0.043,0.0115 0.0867,0.0242 0.12951,0.0366 0.006,0.001 0.008,0.003 0.0129,0.004 0.0198,0.006 0.0407,0.0112 0.0604,0.0172 0.0325,0.01 0.0648,0.0199 0.0971,0.0301 0.0321,0.01 0.0631,0.0216 0.0949,0.0323 0.053,0.0174 0.10709,0.035 0.15972,0.0538 0.004,0.002 0.009,0.002 0.0129,0.004 0.0336,0.0123 0.0658,0.0259 0.0992,0.0387 0.009,0.003 0.0169,0.008 0.0259,0.011 0.0444,0.0173 0.0897,0.0334 0.13382,0.0517 0.0448,0.0185 0.0894,0.0386 0.13381,0.0581 0.0318,0.014 0.0633,0.0284 0.0949,0.0431 0.0162,0.008 0.0313,0.0145 0.0475,0.0215 l 0.0111,0.004 c 0.0372,0.0175 0.0752,0.0357 0.11224,0.0538 0.0437,0.0214 0.0862,0.0422 0.12949,0.0646 0.007,0.003 0.0146,0.007 0.0216,0.011 0.0365,0.019 0.0717,0.0385 0.10797,0.0581 0.0365,0.02 0.0739,0.0394 0.11006,0.0603 0.01,0.006 0.019,0.0122 0.0281,0.0172 0.0392,0.0224 0.0777,0.0435 0.11656,0.0668 0.0485,0.0292 0.0968,0.0599 0.14461,0.0904 0.0415,0.0264 0.082,0.0523 0.12302,0.0797 0.0343,0.0227 0.0697,0.0454 0.10355,0.0689 l 0.009,0.009 c 0.01,0.007 0.0202,0.0123 0.0302,0.0194 0.0335,0.0232 0.0662,0.0472 0.0993,0.0711 0.0391,0.0282 0.078,0.0571 0.11655,0.0861 0.007,0.006 0.0146,0.0122 0.0215,0.0172 0.0271,0.0208 0.053,0.0412 0.0799,0.0624 0.006,0.006 0.0113,0.008 0.0172,0.0129 0.0386,0.0305 0.0764,0.0633 0.11439,0.0947 0.0346,0.0286 0.0694,0.0569 0.10354,0.0861 l 0.0111,0.009 c 0.0316,0.0274 0.0617,0.056 0.0928,0.084 0.0255,0.0229 0.0525,0.0455 0.0777,0.0689 0.0533,0.049 0.10564,0.0977 0.15755,0.1485 0.0301,0.0292 0.059,0.0585 0.0885,0.0883 l 0.007,0.009 c 0.0162,0.0166 0.0335,0.0328 0.0496,0.0495 0.0188,0.0194 0.0376,0.0385 0.0561,0.0581 0.0314,0.0332 0.062,0.0672 0.0928,0.10116 0.004,0.006 0.009,0.008 0.0129,0.0129 0.004,0.006 0.009,0.01 0.0129,0.0151 0.0584,0.0649 0.11441,0.1309 0.1705,0.198 0.0147,0.0177 0.0286,0.0359 0.0432,0.0538 0.0219,0.0267 0.0454,0.0527 0.0669,0.0797 0.0292,0.0365 0.0577,0.0726 0.0863,0.10976 0.0276,0.0362 0.0551,0.0729 0.082,0.10975 0.0593,0.0805 0.11646,0.16236 0.17267,0.24536 0.004,0.007 0.009,0.0133 0.0129,0.0194 0.0234,0.0355 0.0463,0.0719 0.0691,0.10766 0.0226,0.0351 0.0449,0.07 0.0669,0.10546 0.007,0.011 0.0146,0.0218 0.0215,0.0323 0.0192,0.0314 0.0374,0.063 0.0561,0.0947 0.006,0.009 0.01,0.0169 0.0151,0.0258 0.0611,0.1038 0.12078,0.20948 0.17697,0.31638 0.0176,0.0331 0.0347,0.0656 0.0518,0.099 0.023,0.0451 0.0448,0.0901 0.0669,0.1356 0.0184,0.0383 0.0382,0.0775 0.0561,0.11622 0.003,0.008 0.006,0.0145 0.009,0.0215 0.0211,0.0458 0.0424,0.0915 0.0625,0.13775 0.0171,0.0392 0.0332,0.0788 0.0496,0.11837 l 0.004,0.011 c 0.007,0.0172 0.0146,0.0344 0.0215,0.0517 0.0137,0.0334 0.0255,0.0674 0.0388,0.10116 0.0185,0.0471 0.0366,0.0945 0.0539,0.14206 0.0175,0.0477 0.0352,0.0961 0.0518,0.1442 0.003,0.008 0.006,0.0157 0.009,0.0237 0.0135,0.0393 0.026,0.0789 0.0389,0.11838 l 0.002,0.004 16.8373,51.75172 h 70.67305 c 6.47048,0.002 9.4742,8.51648 4.59298,13.02134 l -54.63435,50.39362 29.27803,89.98924 c 2.33391,7.18035 -5.80105,13.00365 -11.20615,8.02157 l -62.16484,-57.33905 -62.16268,57.33905 c -5.40512,4.98208 -13.54223,-0.84122 -11.20832,-8.02157 l 29.27803,-89.98924 -54.63219,-50.39362 c -4.88122,-4.50486 -1.87966,-13.01935 4.59082,-13.02134 h 70.67521 l 16.83515,-51.75172 0.004,-0.007 0.004,-0.0172 0.004,-0.009 c 0.0147,-0.0454 0.0297,-0.0905 0.0453,-0.1356 0.014,-0.0408 0.0285,-0.0823 0.0432,-0.12267 0.002,-0.007 0.004,-0.0145 0.007,-0.0215 l 0.002,-0.004 c 0.0172,-0.0459 0.0359,-0.0921 0.0539,-0.13774 0.0156,-0.0398 0.0312,-0.0789 0.0475,-0.11838 0.0135,-0.0328 0.027,-0.0665 0.041,-0.099 0.009,-0.0211 0.019,-0.0414 0.0281,-0.0624 v -0.002 c 0.0376,-0.0854 0.0759,-0.17007 0.11654,-0.25397 0.003,-0.007 0.008,-0.0123 0.011,-0.0194 0.012,-0.0246 0.0245,-0.0487 0.0367,-0.0732 0.009,-0.017 0.0147,-0.0347 0.0238,-0.0517 0.0214,-0.0416 0.0448,-0.0836 0.0669,-0.12483 0.0171,-0.0322 0.0343,-0.0649 0.0518,-0.0969 0.0111,-0.019 0.0215,-0.037 0.0324,-0.056 0.0209,-0.0374 0.0411,-0.075 0.0625,-0.11192 0.003,-0.006 0.007,-0.0112 0.0111,-0.0172 0.006,-0.009 0.01,-0.0169 0.0151,-0.0258 0.0188,-0.0317 0.0391,-0.0632 0.0582,-0.0947 0.0134,-0.0214 0.0274,-0.0434 0.041,-0.0646 0.0134,-0.0214 0.0253,-0.0412 0.0388,-0.0624 0.01,-0.0149 0.0202,-0.0303 0.0303,-0.0452 0.0199,-0.0305 0.0401,-0.0602 0.0605,-0.0904 0.0236,-0.0353 0.0471,-0.0706 0.0713,-0.10545 0.004,-0.007 0.009,-0.0133 0.0129,-0.0194 l 0.002,-0.002 c 0.0285,-0.0402 0.057,-0.0809 0.0863,-0.12053 0.025,-0.0341 0.05,-0.0676 0.0756,-0.10116 l 0.009,-0.009 c 0.01,-0.0136 0.0197,-0.0274 0.0302,-0.0409 0.0213,-0.0277 0.0431,-0.0546 0.0648,-0.0818 0.007,-0.009 0.0146,-0.0179 0.0215,-0.0258 0.0256,-0.0318 0.0494,-0.0634 0.0756,-0.0947 0.027,-0.0323 0.0545,-0.065 0.082,-0.0969 0.004,-0.006 0.01,-0.0112 0.0151,-0.0172 0.0277,-0.0319 0.0559,-0.0634 0.0842,-0.0947 0.0281,-0.0315 0.0577,-0.0615 0.0863,-0.0926 0.008,-0.008 0.0146,-0.0156 0.0215,-0.0237 0.0319,-0.0339 0.0646,-0.068 0.0971,-0.10116 0.0347,-0.0354 0.0683,-0.0709 0.10354,-0.10546 0.006,-0.006 0.0113,-0.009 0.0172,-0.0151 0.0301,-0.0292 0.0601,-0.0596 0.0906,-0.0883 0.006,-0.006 0.0113,-0.01 0.0172,-0.0151 0.0257,-0.0238 0.0517,-0.0476 0.0777,-0.0711 0.008,-0.007 0.0146,-0.0133 0.0215,-0.0194 0.0163,-0.0144 0.0312,-0.0289 0.0475,-0.0431 0.0219,-0.0197 0.0448,-0.0387 0.0669,-0.0581 0.0342,-0.0292 0.0688,-0.0575 0.10354,-0.0861 0.0271,-0.0224 0.0525,-0.0447 0.0799,-0.0667 0.017,-0.0136 0.0347,-0.0276 0.0518,-0.0409 0.0328,-0.026 0.066,-0.0521 0.0992,-0.0775 l 0.002,-0.002 c 0.0383,-0.029 0.0778,-0.0579 0.11656,-0.0861 0.04,-0.029 0.0803,-0.0558 0.12087,-0.084 0.0402,-0.0279 0.0801,-0.057 0.12086,-0.084 0.041,-0.0273 0.0816,-0.0532 0.12303,-0.0797 0.007,-0.004 0.0135,-0.009 0.0195,-0.0129 0.035,-0.0219 0.0704,-0.0433 0.10576,-0.0646 0.0418,-0.0253 0.0851,-0.051 0.12733,-0.0754 0.007,-0.003 0.0134,-0.007 0.0195,-0.011 0.0291,-0.0165 0.057,-0.0334 0.0863,-0.0495 0.009,-0.004 0.0169,-0.01 0.0259,-0.0151 0.041,-0.0223 0.0836,-0.0431 0.12518,-0.0646 0.007,-0.003 0.0124,-0.008 0.0195,-0.011 0.0198,-0.01 0.0385,-0.0202 0.0582,-0.0301 0.0214,-0.011 0.0432,-0.0216 0.0648,-0.0323 0.0394,-0.0194 0.0789,-0.0374 0.11871,-0.056 0.007,-0.003 0.0124,-0.008 0.0195,-0.011 0.0315,-0.0146 0.0632,-0.0291 0.0949,-0.0431 0.009,-0.003 0.0169,-0.007 0.0259,-0.011 0.0113,-0.006 0.0232,-0.01 0.0345,-0.0151 0.0376,-0.0164 0.0744,-0.0316 0.11223,-0.0474 0.0381,-0.0158 0.0781,-0.0323 0.11655,-0.0474 0.007,-0.002 0.0113,-0.004 0.0172,-0.007 0.0393,-0.0153 0.0792,-0.0307 0.11872,-0.0452 0.0316,-0.0114 0.0632,-0.0214 0.0949,-0.0323 0.0212,-0.008 0.0414,-0.0145 0.0625,-0.0215 0.0387,-0.0132 0.0777,-0.0262 0.11655,-0.0388 l 0.004,-0.002 c 0.0359,-0.0113 0.0718,-0.0215 0.10797,-0.0323 0.0113,-0.003 0.0211,-0.008 0.0324,-0.011 0.0176,-0.004 0.0362,-0.01 0.0539,-0.0151 0.034,-0.01 0.0672,-0.019 0.10144,-0.028 0.0396,-0.011 0.079,-0.0202 0.11871,-0.0302 l 0.0129,-0.002 c 0.0431,-0.011 0.0862,-0.0223 0.1295,-0.0323 0.0407,-0.009 0.0801,-0.0178 0.12086,-0.0258 0.009,-0.002 0.019,-0.002 0.0281,-0.004 0.0176,-0.003 0.0343,-0.008 0.0518,-0.011 0.0348,-0.007 0.0707,-0.0133 0.10576,-0.0194 0.0627,-0.011 0.12487,-0.0212 0.18777,-0.0302 0.0324,-0.006 0.0647,-0.009 0.0971,-0.0129 0.0407,-0.004 0.0822,-0.01 0.12303,-0.0151 0.0479,-0.006 0.0946,-0.011 0.14245,-0.0151 0.0481,-0.004 0.0964,-0.008 0.14461,-0.011 0.008,-9.9e-4 0.0146,-10e-4 0.0215,-0.002 0.022,-0.001 0.0449,-0.003 0.0669,-0.004 0.0187,-9.9e-4 0.0375,-0.003 0.0561,-0.004 0.0482,-0.002 0.0964,-0.003 0.14461,-0.004 0.0407,-0.001 0.0823,-0.002 0.12302,-0.002 z m 0.0324,30.17505 -8.65498,26.60226 h 17.30997 z m -75.42358,41.44443 36.25382,33.44007 10.88025,-33.44007 z m 61.9382,0 -14.29692,43.94537 27.7823,25.62513 27.7823,-25.62513 -14.29692,-43.94537 z m 41.7749,0 10.88024,33.44007 36.256,-33.44007 z m -29.75288,16.55323 h 2.92673 l 7.29522,22.42036 -8.75859,8.07753 -8.75643,-8.07753 z m -31.24213,42.52272 -18.90069,58.09666 40.94393,-37.76616 z m 65.41099,0 -22.04108,20.3305 40.94177,37.76616 z"
       style="color:#000000;font-style:normal;font-variant:normal;font-weight:normal;font-stretch:normal;font-size:medium;line-height:normal;font-family:sans-serif;font-variant-ligatures:normal;font-variant-position:normal;font-variant-caps:normal;font-variant-numeric:normal;font-variant-alternates:normal;font-variant-east-asian:normal;font-feature-settings:normal;font-variation-settings:normal;text-indent:0;text-align:start;text-decoration:none;text-decoration-line:none;text-decoration-style:solid;text-decoration-color:#000000;letter-spacing:normal;word-spacing:normal;text-transform:none;writing-mode:lr-tb;direction:ltr;text-orientation:mixed;dominant-baseline:auto;baseline-shift:baseline;text-anchor:start;white-space:normal;shape-padding:0;shape-margin:0;inline-size:0;clip-rule:nonzero;display:inline;overflow:visible;visibility:visible;isolation:auto;mix-blend-mode:normal;color-interpolation:sRGB;color-interpolation-filters:linearRGB;solid-color:#000000;solid-opacity:1;vector-effect:none;fill:#000100;fill-opacity:1;fill-rule:evenodd;stroke:none;stroke-width:16.5529;stroke-linecap:round;stroke-linejoin:round;stroke-miterlimit:4;stroke-dasharray:none;stroke-dashoffset:0;stroke-opacity:1;paint-order:normal;color-rendering:auto;image-rendering:auto;shape-rendering:auto;text-rendering:auto;enable-background:accumulate;stop-color:#000000"
       id="path878" />
    <path
       transform="matrix(1.105076,0,0,1.1019706,-25.496484,-42.597903)"
       d="M 255.99805 71.021484 C 204.85613 71.021484 158.60201 91.707572 125.13281 125.17188 C 123.04098 127.26343 120.99783 129.40428 119.00781 131.59375 C 116.02279 134.87795 113.15525 138.27003 110.41016 141.76367 C 108.5801 144.09277 106.80454 146.46741 105.08594 148.88477 C 104.22664 150.09344 103.3815 151.31295 102.55078 152.54297 C 99.227927 157.46305 96.135241 162.55267 93.289062 167.79492 C 91.865974 170.41605 90.505165 173.07365 89.207031 175.76953 C 84.663563 185.2051 80.896714 195.08715 77.990234 205.33203 C 76.329389 211.18625 74.949131 217.1603 73.865234 223.23633 C 73.052312 227.79335 72.406798 232.40763 71.933594 237.07422 C 71.775859 238.62975 71.636602 240.19108 71.517578 241.75781 C 71.27953 244.89129 71.119378 248.04724 71.039062 251.22266 C 70.998902 252.81036 70.978516 254.40253 70.978516 256 C 70.978516 257.59747 70.998902 259.18964 71.039062 260.77734 C 71.119373 263.95276 71.27953 267.10871 71.517578 270.24219 C 71.636602 271.80892 71.775859 273.37025 71.933594 274.92578 C 72.406798 279.59237 73.052312 284.20665 73.865234 288.76367 C 74.949131 294.8397 76.329389 300.81375 77.990234 306.66797 C 80.896714 316.91285 84.663563 326.7949 89.207031 336.23047 C 90.505165 338.92635 91.865974 341.58395 93.289062 344.20508 C 96.135241 349.44733 99.227927 354.53695 102.55078 359.45703 C 103.3815 360.68705 104.22664 361.90656 105.08594 363.11523 C 106.80454 365.53259 108.5801 367.90723 110.41016 370.23633 C 113.15525 373.72997 116.02279 377.12205 119.00781 380.40625 C 120.99783 382.59572 123.04098 384.73657 125.13281 386.82812 C 127.22433 388.91935 129.36524 390.9617 131.55469 392.95117 L 131.55664 392.95117 C 132.65118 393.94573 133.75671 394.92808 134.875 395.89648 L 134.87695 395.89648 C 135.99525 396.86487 137.12406 397.82191 138.26562 398.76367 L 138.26758 398.76367 C 140.55109 400.64748 142.88017 402.4776 145.25391 404.25195 L 145.25586 404.25195 C 146.44252 405.13896 147.63918 406.01412 148.84766 406.87305 L 148.84961 406.87305 C 152.47592 409.4504 156.19954 411.90093 160.01367 414.2168 L 160.01562 414.2168 C 161.2867 414.98854 162.56647 415.74654 163.85742 416.48828 L 163.85938 416.48828 C 165.15033 417.23001 166.45135 417.95673 167.76172 418.66797 L 167.76367 418.66797 C 169.07404 419.37919 170.39335 420.0756 171.72266 420.75586 L 171.72461 420.75586 C 173.05391 421.4361 174.39248 422.10121 175.74023 422.75 L 175.74219 422.75 C 182.48309 425.99491 189.45091 428.84559 196.61719 431.26758 L 196.61914 431.26758 C 199.48531 432.23622 202.38308 433.13654 205.31055 433.9668 L 205.3125 433.9668 C 206.77593 434.38183 208.24658 434.78043 209.72461 435.16016 L 209.72656 435.16016 C 211.20459 435.53987 212.68949 435.90217 214.18164 436.24609 L 214.18359 436.24609 C 226.12513 438.99834 238.5121 440.59671 251.21875 440.91797 C 252.80716 440.95817 254.4018 440.97852 256 440.97852 C 257.83362 440.9785 259.65982 440.94363 261.48047 440.89062 C 262.05468 440.87392 262.62634 440.84807 263.19922 440.82617 C 264.49833 440.77647 265.79389 440.71696 267.08594 440.64062 C 267.67057 440.60612 268.25474 440.56912 268.83789 440.5293 C 270.21874 440.4347 271.5945 440.32193 272.9668 440.19727 C 273.40664 440.15737 273.84816 440.12307 274.28711 440.08008 C 276.13224 439.89922 277.97207 439.69744 279.80078 439.46289 C 281.62444 439.22899 283.43759 438.96224 285.24414 438.67578 C 285.59908 438.61958 285.95238 438.55824 286.30664 438.5 C 287.77358 438.25862 289.23441 438.00213 290.68945 437.72656 C 291.09931 437.64896 291.50907 437.57049 291.91797 437.49023 C 293.51723 437.17611 295.11117 436.84318 296.69531 436.48828 C 296.85308 436.45298 297.01231 436.42248 297.16992 436.38672 C 299.01997 435.96714 300.85902 435.52122 302.6875 435.04688 L 321.60742 376.73047 L 279.22852 337.5293 A 14.980412 15.022623 0 0 1 279.22461 337.52734 C 265.64471 324.95924 274.53842 299.65765 293.5332 299.65039 A 14.980412 15.022623 0 0 1 293.53906 299.65039 L 346.61523 299.65039 L 358.48438 263.0625 A 14.980412 15.022623 0 0 1 358.52148 262.95312 L 358.49219 263.04688 C 358.50489 263.00767 358.51835 262.96878 358.53125 262.92969 L 358.54883 262.87695 A 14.980412 15.022623 0 0 1 358.57422 262.79688 C 358.58322 262.76947 358.59422 262.74214 358.60352 262.71484 C 358.60652 262.70364 358.61123 262.69284 358.61523 262.68164 C 358.61614 262.67764 358.61814 262.67488 358.61914 262.67188 C 358.62114 262.66687 358.623 262.6629 358.625 262.6582 C 358.62536 262.6573 358.62463 262.6553 358.625 262.6543 A 14.980412 15.022623 0 0 1 358.62891 262.64648 A 14.980412 15.022623 0 0 1 358.85938 262.04688 L 358.83594 262.0957 L 358.76172 262.26367 A 14.980412 15.022623 0 0 1 358.89062 261.92383 A 14.980412 15.022623 0 0 1 358.9082 261.87891 C 358.9172 261.85541 358.92635 261.83209 358.93555 261.80859 C 358.98025 261.6945 359.02764 261.58022 359.07422 261.4668 A 14.980412 15.022623 0 0 1 359.07617 261.45703 C 359.09247 261.41743 359.11035 261.37733 359.12695 261.33789 A 14.980412 15.022623 0 0 1 359.17773 261.21484 C 359.20343 261.15434 359.22966 261.0955 359.25586 261.03516 A 14.980412 15.022623 0 0 1 359.27148 260.99609 C 359.37202 260.76676 359.47745 260.54057 359.58594 260.31445 A 14.980412 15.022623 0 0 1 359.63086 260.2207 C 359.66406 260.1521 359.69647 260.084 359.73047 260.01562 C 359.73137 260.01472 359.73142 260.01272 359.73242 260.01172 C 359.73332 260.01081 359.73337 260.00881 359.73438 260.00781 C 359.75768 259.96121 359.78119 259.91561 359.80469 259.86914 A 14.980412 15.022623 0 0 1 359.82422 259.82812 C 359.87602 259.72669 359.93089 259.62608 359.98438 259.52539 C 359.98738 259.52039 359.98919 259.51331 359.99219 259.50781 C 359.99919 259.49431 360.00647 259.4804 360.01367 259.4668 C 360.05327 259.3925 360.09428 259.31801 360.13477 259.24414 A 14.980412 15.022623 0 0 1 360.19336 259.13672 C 360.20376 259.11812 360.21421 259.10063 360.22461 259.08203 C 360.23461 259.06423 360.24391 259.047 360.25391 259.0293 C 360.26451 259.0105 360.27641 258.99136 360.28711 258.97266 C 360.32751 258.90136 360.36892 258.83064 360.41016 258.75977 A 14.980412 15.022623 0 0 1 360.48633 258.62891 C 360.49983 258.60591 360.51374 258.58345 360.52734 258.56055 L 360.53711 258.54492 C 360.54111 258.53992 360.54387 258.5347 360.54688 258.5293 A 14.980412 15.022623 0 0 1 360.55859 258.50977 C 360.56889 258.49277 360.57944 258.47393 360.58984 258.45703 C 360.61074 258.42253 360.63134 258.38803 360.65234 258.35352 A 14.980412 15.022623 0 0 1 360.73242 258.22461 C 360.74462 258.20501 360.75723 258.18552 360.76953 258.16602 C 360.80853 258.10362 360.84703 258.0405 360.88672 257.97852 A 14.980412 15.022623 0 0 1 360.88867 257.97461 C 360.91617 257.93171 360.94486 257.88841 360.97266 257.8457 C 361.02716 257.7618 361.08293 257.67696 361.13867 257.59375 C 361.13957 257.59284 361.13962 257.58889 361.14062 257.58789 C 361.14363 257.58389 361.14544 257.58087 361.14844 257.57617 C 361.21404 257.47837 361.28237 257.38006 361.34961 257.2832 A 14.980412 15.022623 0 0 1 361.42969 257.16797 A 14.980412 15.022623 0 0 1 361.45898 257.12891 C 361.47188 257.11081 361.48505 257.09027 361.49805 257.07227 A 14.980412 15.022623 0 0 1 361.57227 256.97461 C 361.59747 256.93961 361.62294 256.90206 361.64844 256.86719 A 14.980412 15.022623 0 0 1 361.66602 256.8418 C 361.67402 256.8309 361.68135 256.8233 361.68945 256.8125 A 14.980412 15.022623 0 0 1 361.81836 256.63672 C 361.83126 256.61952 361.84442 256.60314 361.85742 256.58594 L 361.88867 256.54492 A 14.980412 15.022623 0 0 1 361.96484 256.44531 C 361.96984 256.43931 361.97382 256.43413 361.97852 256.42773 C 362.04112 256.34633 362.10417 256.26613 362.16797 256.18555 A 14.980412 15.022623 0 0 1 362.24414 256.08984 C 362.24814 256.08484 362.25116 256.07962 362.25586 256.07422 C 362.26626 256.06112 362.27661 256.04826 362.28711 256.03516 C 362.29211 256.02816 362.29733 256.02203 362.30273 256.01562 C 362.36123 255.94332 362.42101 255.87034 362.48047 255.79883 C 362.53347 255.73513 362.58687 255.67253 362.64062 255.60938 C 362.65533 255.59197 362.66879 255.57599 362.68359 255.55859 A 14.980412 15.022623 0 0 1 362.79883 255.42578 C 362.85473 255.36168 362.9121 255.29781 362.96875 255.23438 C 362.98865 255.21197 363.00734 255.18842 363.02734 255.16602 C 363.03434 255.15802 363.04153 255.15068 363.04883 255.14258 C 363.10563 255.07938 363.16306 255.01578 363.2207 254.95312 A 14.980412 15.022623 0 0 1 363.33789 254.83008 C 363.36239 254.80398 363.38741 254.77795 363.41211 254.75195 A 14.980412 15.022623 0 0 1 363.49414 254.66406 C 363.50014 254.65706 363.50737 254.65083 363.51367 254.64453 C 363.55007 254.60663 363.58638 254.56893 363.62305 254.53125 C 363.72225 254.42945 363.82244 254.32845 363.92383 254.22852 L 363.93555 254.2168 A 14.980412 15.022623 0 0 1 364.00586 254.14844 C 364.05396 254.10154 364.10176 254.05424 364.15039 254.00781 C 364.16689 253.99191 364.18282 253.97869 364.19922 253.96289 A 14.980412 15.022623 0 0 1 364.35742 253.81445 C 364.43212 253.74495 364.50815 253.67398 364.58398 253.60547 C 364.60548 253.58607 364.62488 253.56813 364.64648 253.54883 A 14.980412 15.022623 0 0 1 364.65039 253.54492 C 364.65939 253.53692 364.67039 253.52773 364.67969 253.51953 C 364.72839 253.47613 364.77708 253.43364 364.82617 253.39062 C 364.83417 253.38362 364.84151 253.37439 364.84961 253.36719 A 14.980412 15.022623 0 0 1 364.99219 253.24414 C 365.08979 253.16034 365.18786 253.07822 365.28711 252.99609 C 365.36901 252.92819 365.45218 252.86162 365.53516 252.79492 A 14.980412 15.022623 0 0 1 365.58398 252.75391 C 365.60468 252.73741 365.62578 252.72148 365.64648 252.70508 C 365.74598 252.62608 365.84433 252.54802 365.94531 252.4707 A 14.980412 15.022623 0 0 1 365.99023 252.4375 C 366.06663 252.3794 366.14538 252.32274 366.22266 252.26562 C 366.25916 252.23862 366.29525 252.21039 366.33203 252.18359 C 366.45356 252.09489 366.57569 252.00808 366.69922 251.92188 A 14.980412 15.022623 0 0 1 366.71875 251.90625 C 366.83207 251.82745 366.94558 251.75051 367.06055 251.67383 C 367.16056 251.60703 367.26205 251.54172 367.36328 251.47656 C 367.38278 251.46406 367.40237 251.45185 367.42188 251.43945 A 14.980412 15.022623 0 0 1 367.43555 251.42773 C 367.43755 251.42682 367.43941 251.42483 367.44141 251.42383 A 14.980412 15.022623 0 0 1 367.55078 251.35547 C 367.65078 251.29277 367.75047 251.22904 367.85156 251.16797 L 367.85352 251.16797 C 367.86052 251.16397 367.8678 251.159 367.875 251.1543 C 367.9089 251.1339 367.9425 251.11405 367.97656 251.09375 C 367.99616 251.08195 368.01566 251.07029 368.03516 251.05859 A 14.980412 15.022623 0 0 1 368.03906 251.05664 L 368.04102 251.05664 A 14.980412 15.022623 0 0 1 368.30859 250.90039 C 368.34269 250.88099 368.376 250.861 368.41016 250.8418 C 368.43726 250.8264 368.46509 250.81218 368.49219 250.79688 A 14.980412 15.022623 0 0 1 368.66992 250.69727 C 368.74552 250.65597 368.82234 250.61447 368.89844 250.57422 C 368.91884 250.56332 368.93858 250.55377 368.95898 250.54297 A 14.980412 15.022623 0 0 1 369.17188 250.43164 C 369.18288 250.42564 369.19408 250.42142 369.20508 250.41602 C 369.27148 250.38212 369.33761 250.34761 369.4043 250.31445 A 14.980412 15.022623 0 0 1 369.4707 250.2832 C 369.5031 250.2673 369.53586 250.25018 369.56836 250.23438 A 14.980412 15.022623 0 0 1 369.83984 250.10547 A 14.980412 15.022623 0 0 1 369.91797 250.06836 C 369.99727 250.03166 370.07643 249.99666 370.15625 249.96094 C 370.18275 249.94894 370.20963 249.93563 370.23633 249.92383 A 14.980412 15.022623 0 0 1 370.54492 249.79102 C 370.57482 249.77862 370.60487 249.76621 370.63477 249.75391 C 370.65247 249.74691 370.6698 249.73767 370.6875 249.73047 A 14.980412 15.022623 0 0 1 370.69141 249.72852 C 370.81036 249.67902 370.93084 249.62942 371.05078 249.58203 A 14.980412 15.022623 0 0 1 371.12109 249.55664 C 371.12709 249.55364 371.13432 249.55183 371.14062 249.54883 C 371.14363 249.54683 371.14864 249.54592 371.15234 249.54492 C 371.26517 249.50112 371.3766 249.45793 371.49023 249.41602 A 14.980412 15.022623 0 0 1 371.59766 249.37695 C 371.66526 249.35265 371.73291 249.33034 371.80078 249.30664 C 371.85828 249.28654 371.91306 249.26569 371.9707 249.24609 C 371.9777 249.24309 371.98393 249.24028 371.99023 249.23828 C 371.99323 249.23738 371.99505 249.23733 371.99805 249.23633 C 372.11066 249.19803 372.22457 249.16143 372.33789 249.125 A 14.980412 15.022623 0 0 1 372.38477 249.10938 C 372.41767 249.09897 372.45147 249.08843 372.48438 249.07812 A 14.980412 15.022623 0 0 1 372.5293 249.06445 A 14.980412 15.022623 0 0 1 372.60547 249.03906 C 372.61547 249.03506 372.62692 249.03425 372.63672 249.03125 A 14.980412 15.022623 0 0 1 372.70508 249.00977 C 372.71108 249.00777 372.71831 249.00591 372.72461 249.00391 A 14.980412 15.022623 0 0 1 372.91992 248.94531 C 372.97532 248.92941 373.03038 248.91384 373.08594 248.89844 L 373.02344 248.91797 C 373.13065 248.88767 373.23798 248.85663 373.3457 248.82812 C 373.414 248.80992 373.48237 248.79289 373.55078 248.77539 A 14.980412 15.022623 0 0 1 373.71289 248.73242 C 373.84887 248.69872 373.98635 248.66762 374.12305 248.63672 A 14.980412 15.022623 0 0 1 374.12891 248.63477 C 374.25727 248.60577 374.38473 248.57933 374.51367 248.55273 A 14.980412 15.022623 0 0 1 374.57031 248.54102 C 374.61711 248.53102 374.66402 248.52287 374.71094 248.51367 C 374.71994 248.51167 374.72918 248.50981 374.73828 248.50781 A 14.980412 15.022623 0 0 1 374.76953 248.5 C 374.77753 248.498 374.78672 248.49809 374.79492 248.49609 C 374.89715 248.47649 374.99901 248.45745 375.10156 248.43945 A 14.980412 15.022623 0 0 1 375.14062 248.43359 C 375.33878 248.39919 375.53712 248.36659 375.73633 248.33789 C 375.80153 248.32789 375.8663 248.31955 375.93164 248.31055 A 14.980412 15.022623 0 0 1 376.00195 248.30078 C 376.13089 248.28378 376.2594 248.26851 376.38867 248.25391 A 14.980412 15.022623 0 0 1 376.44922 248.24609 C 376.58378 248.23139 376.71671 248.21903 376.85156 248.20703 C 376.88816 248.20303 376.92437 248.19831 376.96094 248.19531 L 376.96289 248.19531 C 376.98589 248.19231 377.00825 248.19145 377.03125 248.18945 A 14.980412 15.022623 0 0 1 377.2207 248.17578 L 377.27734 248.17188 A 14.980412 15.022623 0 0 1 377.36523 248.16406 L 377.45703 248.1582 A 14.980412 15.022623 0 0 1 377.56836 248.15039 A 14.980412 15.022623 0 0 1 377.87695 248.13477 C 377.98806 248.12977 378.09978 248.12995 378.21094 248.12695 C 378.33602 248.12295 378.46275 248.12014 378.58789 248.11914 L 378.59375 248.11914 A 14.980412 15.022623 0 0 1 378.61914 248.11914 A 14.980412 15.022623 0 0 1 378.62695 248.11914 C 378.69535 248.11881 378.76362 248.11879 378.83203 248.11914 A 14.980412 15.022623 0 0 1 378.86133 248.11914 C 378.88603 248.11914 378.91085 248.12109 378.93555 248.12109 C 379.02435 248.122 379.11435 248.12495 379.20312 248.12695 C 379.21893 248.12732 379.2341 248.12655 379.25 248.12695 C 379.35824 248.12895 379.46798 248.13172 379.57617 248.13672 A 14.980412 15.022623 0 0 1 379.79492 248.14844 A 14.980412 15.022623 0 0 1 379.99609 248.1582 C 380.01969 248.1602 380.04281 248.16206 380.06641 248.16406 C 380.06941 248.1642 380.07122 248.16391 380.07422 248.16406 A 14.980412 15.022623 0 0 1 380.14062 248.16797 C 380.15183 248.16887 380.16448 248.16892 380.17578 248.16992 C 380.31045 248.17892 380.44563 248.19112 380.58008 248.20312 L 380.60156 248.20508 C 380.70347 248.21408 380.80451 248.22182 380.90625 248.23242 A 14.980412 15.022623 0 0 1 381.01562 248.24609 C 381.16234 248.26239 381.31074 248.27943 381.45703 248.29883 L 381.47266 248.30078 C 381.56036 248.31238 381.64883 248.32509 381.73633 248.33789 L 381.75586 248.3418 C 381.81076 248.3498 381.86508 248.35713 381.91992 248.36523 A 14.980412 15.022623 0 0 1 381.95898 248.37305 C 382.08725 248.39305 382.21398 248.41315 382.3418 248.43555 A 14.980412 15.022623 0 0 1 382.35156 248.43945 C 382.44226 248.45545 382.53256 248.46923 382.62305 248.48633 L 382.68359 248.49805 C 382.71849 248.50505 382.7523 248.51038 382.78711 248.51758 A 14.980412 15.022623 0 0 1 382.89062 248.53711 C 383.02483 248.56451 383.15745 248.595 383.29102 248.625 A 14.980412 15.022623 0 0 1 383.29492 248.625 C 383.42905 248.6552 383.56186 248.6879 383.69531 248.7207 L 383.74023 248.73242 C 383.86714 248.76372 383.9929 248.79638 384.11914 248.83008 A 14.980412 15.022623 0 0 1 384.14648 248.83789 C 384.25958 248.86829 384.37381 248.89934 384.48633 248.93164 C 384.50103 248.93564 384.5146 248.93866 384.5293 248.94336 L 384.55273 248.95117 A 14.980412 15.022623 0 0 1 384.76562 249.01562 C 384.79983 249.02593 384.83303 249.03627 384.86719 249.04688 L 384.95312 249.07227 C 384.97963 249.08027 385.00475 249.08946 385.03125 249.09766 A 14.980412 15.022623 0 0 1 385.11328 249.12305 C 385.20488 249.15245 385.29556 249.18229 385.38672 249.21289 L 385.41406 249.22266 C 385.54357 249.26616 385.67219 249.30946 385.80078 249.35547 A 14.980412 15.022623 0 0 1 385.92188 249.40039 A 14.980412 15.022623 0 0 1 386.0625 249.45312 L 386.06445 249.45312 C 386.12205 249.47473 386.18087 249.49743 386.23828 249.51953 A 14.980412 15.022623 0 0 1 386.29492 249.54102 C 386.30712 249.54602 386.31983 249.55214 386.33203 249.55664 C 386.46588 249.60894 386.59981 249.6619 386.73242 249.7168 C 386.87213 249.7746 387.01014 249.83373 387.14844 249.89453 A 14.980412 15.022623 0 0 1 387.19922 249.91602 C 387.23132 249.93022 387.26292 249.94654 387.29492 249.96094 C 387.30192 249.96394 387.30815 249.96575 387.31445 249.96875 A 14.980412 15.022623 0 0 1 387.37109 249.99414 A 14.980412 15.022623 0 0 1 387.41992 250.01758 C 387.42792 250.02158 387.43616 250.02139 387.44336 250.02539 L 387.45312 250.03125 L 387.46484 250.03711 C 387.47484 250.04111 387.48454 250.04608 387.49414 250.05078 A 14.980412 15.022623 0 0 1 387.62695 250.11133 C 387.74287 250.16573 387.85784 250.22089 387.97266 250.27734 C 388.08504 250.33264 388.1973 250.3901 388.30859 250.44727 C 388.31059 250.44818 388.31245 250.44822 388.31445 250.44922 L 388.37695 250.48242 A 14.980412 15.022623 0 0 1 388.41406 250.50195 C 388.527 250.56075 388.63824 250.61898 388.75 250.67969 A 14.980412 15.022623 0 0 1 388.83984 250.72852 C 388.93104 250.77882 389.02102 250.82923 389.11133 250.88086 L 389.14062 250.89844 A 14.980412 15.022623 0 0 1 389.15039 250.9043 C 389.15339 250.9063 389.15616 250.90816 389.16016 250.91016 L 389.17578 250.91797 C 389.28855 250.98257 389.40026 251.04862 389.51172 251.11523 A 14.980412 15.022623 0 0 1 389.5625 251.14453 C 389.71167 251.23443 389.85915 251.32645 390.00586 251.41992 A 14.980412 15.022623 0 0 1 390.01172 251.42383 C 390.13626 251.50323 390.26009 251.58417 390.38281 251.66602 L 390.39062 251.67383 C 390.48673 251.73793 390.58473 251.80353 390.67969 251.86914 A 14.980412 15.022623 0 0 1 390.77148 251.93164 L 390.7793 251.9375 L 390.78125 251.9375 C 390.81705 251.9625 390.85105 251.98837 390.88672 252.01367 A 14.980412 15.022623 0 0 1 390.96484 252.07031 C 390.99934 252.09501 391.03395 252.11973 391.06836 252.14453 L 391.08203 252.1543 C 391.19628 252.2371 391.31141 252.3214 391.42383 252.40625 A 14.980412 15.022623 0 0 1 391.47852 252.44922 C 391.49952 252.46522 391.52012 252.47999 391.54102 252.49609 A 14.980412 15.022623 0 0 1 391.55664 252.50781 C 391.63894 252.57121 391.72138 252.63665 391.80273 252.70117 A 14.980412 15.022623 0 0 1 391.9082 252.78516 C 391.9889 252.84986 392.06881 252.91654 392.14844 252.98242 L 392.16211 252.99219 C 392.26231 253.07509 392.36042 253.15947 392.45898 253.24414 A 14.980412 15.022623 0 0 1 392.56641 253.33789 C 392.62631 253.39019 392.68682 253.44319 392.74609 253.49609 C 392.77449 253.52139 392.80178 253.54677 392.83008 253.57227 C 392.90118 253.63637 392.97478 253.70065 393.04492 253.76562 L 393.02734 253.75195 C 393.17757 253.89071 393.32671 254.03109 393.47266 254.17383 L 393.5 254.20117 C 393.5652 254.26507 393.63097 254.32992 393.69531 254.39453 C 393.71001 254.40923 393.72358 254.42465 393.73828 254.43945 A 14.980412 15.022623 0 0 1 393.7793 254.47852 C 393.8245 254.52452 393.8712 254.57082 393.91602 254.61719 L 393.92578 254.62891 C 393.97848 254.68351 394.03195 254.73779 394.08398 254.79297 A 14.980412 15.022623 0 0 1 394.09766 254.80664 C 394.19116 254.90594 394.2835 255.00838 394.375 255.10938 A 14.980412 15.022623 0 0 1 394.49023 255.23828 C 394.64872 255.41598 394.80479 255.59487 394.95703 255.77734 A 14.980412 15.022623 0 0 1 395.00391 255.83594 C 395.03361 255.87194 395.06425 255.90714 395.09375 255.94336 L 395.13281 255.99414 C 395.17381 256.04454 395.21541 256.09576 395.25586 256.14648 L 395.2793 256.17383 C 395.3577 256.27233 395.43507 256.37289 395.51172 256.47266 A 14.980412 15.022623 0 0 1 395.56641 256.54297 C 395.63721 256.63627 395.70812 256.72983 395.77734 256.82422 C 395.94327 257.04985 396.10303 257.27842 396.25977 257.50977 C 396.26177 257.51277 396.26362 257.51458 396.26562 257.51758 L 396.2793 257.53711 A 14.980412 15.022623 0 0 1 396.37891 257.6875 C 396.43991 257.78 396.501 257.87349 396.56055 257.9668 L 396.58203 258 C 396.58403 258.003 396.58394 258.00577 396.58594 258.00977 A 14.980412 15.022623 0 0 1 396.63867 258.08984 C 396.67417 258.14614 396.70917 258.20128 396.74414 258.25781 A 14.980412 15.022623 0 0 1 396.80469 258.35156 C 396.84659 258.42016 396.88648 258.49149 396.92773 258.56055 L 396.96875 258.62891 C 396.97075 258.63191 396.97261 258.63372 396.97461 258.63672 A 14.980412 15.022623 0 0 1 397.00781 258.69531 C 397.18491 258.99727 397.35358 259.30201 397.51562 259.61133 C 397.55653 259.68913 397.59873 259.76748 397.63867 259.8457 A 14.980412 15.022623 0 0 1 397.64062 259.84961 C 397.70693 259.97967 397.77037 260.10901 397.83398 260.24023 A 14.980412 15.022623 0 0 1 397.85742 260.28906 C 397.91062 260.39967 397.9644 260.51165 398.01562 260.62305 A 14.980412 15.022623 0 0 1 398.0293 260.6543 C 398.0373 260.6724 398.04463 260.69088 398.05273 260.70898 L 398.05664 260.7168 C 398.10774 260.829 398.15789 260.94173 398.20703 261.05469 L 398.21094 261.0625 C 398.25874 261.17239 398.30564 261.28395 398.35156 261.39453 A 14.980412 15.022623 0 0 1 398.42773 261.58008 L 398.46094 261.66016 C 398.46794 261.67826 398.47512 261.69664 398.48242 261.71484 C 398.49512 261.74664 398.50703 261.77875 398.51953 261.81055 A 14.980412 15.022623 0 0 1 398.52148 261.82227 L 398.52539 261.83008 A 14.980412 15.022623 0 0 1 398.53906 261.86133 C 398.59076 261.99441 398.64032 262.12777 398.68945 262.26172 L 398.69141 262.26953 C 398.74071 262.40409 398.79131 262.5384 398.83789 262.67383 A 14.980412 15.022623 0 0 1 398.91016 262.89062 L 398.93164 262.96094 C 398.94174 262.99154 398.95299 263.02213 398.96289 263.05273 A 14.980412 15.022623 0 0 1 399.31055 264.30859 L 399.1875 263.74805 L 410.83594 299.65234 L 435.8418 299.65234 C 435.84243 299.64934 435.84275 299.64558 435.84375 299.64258 C 437.50688 292.75524 438.78534 285.71656 439.6582 278.55273 C 439.701 278.19991 439.7385 277.84562 439.7793 277.49219 C 439.9383 276.12161 440.08205 274.74678 440.21094 273.36719 C 440.25344 272.90944 440.29284 272.4509 440.33203 271.99219 C 440.43762 270.76349 440.52991 269.53043 440.61133 268.29492 C 440.65143 267.68271 440.69243 267.07087 440.72656 266.45703 C 440.79166 265.29317 440.83935 264.12467 440.88281 262.95508 C 440.90391 262.38396 440.93332 261.81462 440.94922 261.24219 C 440.99792 259.50011 441.02734 257.75401 441.02734 256 C 441.02734 254.40253 441.0069 252.81036 440.9668 251.22266 C 440.8865 248.04724 440.72634 244.89129 440.48828 241.75781 C 440.36926 240.19107 440.23 238.62975 440.07227 237.07422 C 439.59905 232.40763 438.95357 227.79335 438.14062 223.23633 C 437.86964 221.71732 437.57926 220.20313 437.27148 218.69727 C 436.3482 214.17966 435.26129 209.7227 434.01562 205.33203 C 433.6004 203.86848 433.16687 202.41333 432.7168 200.96484 C 431.81665 198.06787 430.84722 195.20099 429.81055 192.36719 C 429.29221 190.95029 428.75683 189.54103 428.20508 188.14062 C 426.54984 183.93948 424.74607 179.81335 422.79883 175.76953 C 422.14975 174.42159 421.48525 173.0834 420.80469 171.75391 C 419.44357 169.09492 418.0193 166.47295 416.53516 163.89062 C 415.05101 161.30832 413.50566 158.76543 411.90234 156.26367 C 409.49737 152.51103 406.96109 148.85158 404.29883 145.29102 C 395.42477 133.42286 385.15758 122.65686 373.73828 113.23633 L 373.73633 113.23633 C 371.45277 111.35251 369.12377 109.52242 366.75 107.74805 L 366.74805 107.74805 C 359.62591 102.42441 352.10702 97.600898 344.24219 93.332031 L 344.24023 93.332031 C 342.92983 92.620794 341.61057 91.92441 340.28125 91.244141 L 340.2793 91.244141 C 338.94998 90.563886 337.61144 89.898804 336.26367 89.25 L 336.26172 89.25 C 311.98648 77.566355 284.76565 71.021484 255.99805 71.021484 z M 377.40039 343.15625 L 370.80078 363.50195 L 378.72461 370.83203 L 386.65039 363.50195 L 380.04883 343.15625 L 377.40039 343.15625 z "
       style="color:#000000;font-style:normal;font-variant:normal;font-weight:normal;font-stretch:normal;font-size:medium;line-height:normal;font-family:sans-serif;font-variant-ligatures:normal;font-variant-position:normal;font-variant-caps:normal;font-variant-numeric:normal;font-variant-alternates:normal;font-variant-east-asian:normal;font-feature-settings:normal;font-variation-settings:normal;text-indent:0;text-align:start;text-decoration:none;text-decoration-line:none;text-decoration-style:solid;text-decoration-color:#000000;letter-spacing:normal;word-spacing:normal;text-transform:none;writing-mode:lr-tb;direction:ltr;text-orientation:mixed;dominant-baseline:auto;baseline-shift:baseline;text-anchor:start;white-space:normal;shape-padding:0;shape-margin:0;inline-size:0;clip-rule:nonzero;display:inline;overflow:visible;visibility:visible;isolation:auto;mix-blend-mode:normal;color-interpolation:sRGB;color-interpolation-filters:linearRGB;solid-color:#000000;solid-opacity:1;vector-effect:none;fill:url(#radialGradient889);fill-opacity:1;fill-rule:evenodd;stroke:none;stroke-width:15.0001;stroke-linecap:round;stroke-linejoin:round;stroke-miterlimit:4;stroke-dasharray:none;stroke-dashoffset:0;stroke-opacity:1;paint-order:normal;color-rendering:auto;image-rendering:auto;shape-rendering:auto;text-rendering:auto;enable-background:accumulate;stop-color:#000000"
       id="path847" />
  </g>
</svg>
