<?xml version="1.0" encoding="UTF-8" standalone="no"?>
<svg
   xmlns:dc="http://purl.org/dc/elements/1.1/"
   xmlns:cc="http://creativecommons.org/ns#"
   xmlns:rdf="http://www.w3.org/1999/02/22-rdf-syntax-ns#"
   xmlns:svg="http://www.w3.org/2000/svg"
   xmlns="http://www.w3.org/2000/svg"
   xmlns:sodipodi="http://sodipodi.sourceforge.net/DTD/sodipodi-0.dtd"
   xmlns:inkscape="http://www.inkscape.org/namespaces/inkscape"
   viewBox="0 0 512 512"
   width="512"
   height="512"
   version="1.1"
   id="svg5"
   sodipodi:docname="magic-trick_w.svg"
   inkscape:version="1.0 (4035a4fb49, 2020-05-01)">
  <title
     id="title835">Magic: Tricks</title>
  <metadata
     id="metadata11">
    <rdf:RDF>
      <cc:Work
         rdf:about="">
        <dc:format>image/svg+xml</dc:format>
        <dc:type
           rdf:resource="http://purl.org/dc/dcmitype/StillImage" />
        <dc:title>Magic: Tricks</dc:title>
        <cc:license
           rdf:resource="http://creativecommons.org/licenses/by-sa/4.0/" />
        <dc:date>2022.02.05</dc:date>
        <dc:creator>
          <cc:Agent>
            <dc:title>Streuner²</dc:title>
          </cc:Agent>
        </dc:creator>
        <dc:contributor>
          <cc:Agent>
            <dc:title>completely selfmade</dc:title>
          </cc:Agent>
        </dc:contributor>
      </cc:Work>
      <cc:License
         rdf:about="http://creativecommons.org/licenses/by-sa/4.0/">
        <cc:permits
           rdf:resource="http://creativecommons.org/ns#Reproduction" />
        <cc:permits
           rdf:resource="http://creativecommons.org/ns#Distribution" />
        <cc:requires
           rdf:resource="http://creativecommons.org/ns#Notice" />
        <cc:requires
           rdf:resource="http://creativecommons.org/ns#Attribution" />
        <cc:permits
           rdf:resource="http://creativecommons.org/ns#DerivativeWorks" />
        <cc:requires
           rdf:resource="http://creativecommons.org/ns#ShareAlike" />
      </cc:License>
    </rdf:RDF>
  </metadata>
  <defs
     id="defs9" />
  <sodipodi:namedview
     guideopacity="0.49803922"
     guidecolor="#00ff00"
     inkscape:guide-bbox="true"
     showguides="true"
     inkscape:showpageshadow="false"
     borderlayer="false"
     inkscape:document-rotation="0"
     pagecolor="#323232"
     bordercolor="#666666"
     borderopacity="1"
     objecttolerance="10"
     gridtolerance="10"
     guidetolerance="10"
     inkscape:pageopacity="0.61960784"
     inkscape:pageshadow="2"
     inkscape:window-width="3840"
     inkscape:window-height="2066"
     id="namedview7"
     showgrid="false"
     inkscape:zoom="2.4199219"
     inkscape:cx="238.2702"
     inkscape:cy="226.39837"
     inkscape:window-x="3829"
     inkscape:window-y="-11"
     inkscape:window-maximized="1"
     inkscape:current-layer="g987">
    <sodipodi:guide
       inkscape:color="rgb(0,255,0)"
       inkscape:locked="false"
       inkscape:label=""
       id="guide869"
       orientation="-1,0"
       position="256,256" />
    <sodipodi:guide
       inkscape:color="rgb(0,255,0)"
       inkscape:locked="false"
       inkscape:label=""
       id="guide905"
       orientation="0,1"
       position="256,256" />
  </sodipodi:namedview>
  <filter
     id="shadow">
    <feDropShadow
       dx="6"
       dy="12"
       stdDeviation="6" />
  </filter>
  <g
     style="stroke-width:1.54493;stroke-miterlimit:4;stroke-dasharray:none"
     transform="matrix(0.90491517,0,0,0.90746524,23.072155,38.656116)"
     id="g987">
    <path
       transform="matrix(1.105076,0,0,1.1019706,-25.496484,-42.597903)"
       d="M 255.99805 71.021484 C 204.85613 71.021484 158.60201 91.707578 125.13281 125.17188 C 123.04098 127.26343 120.99783 129.40428 119.00781 131.59375 C 116.02279 134.87795 113.15525 138.27003 110.41016 141.76367 C 108.5801 144.09277 106.80454 146.46741 105.08594 148.88477 C 104.22664 150.09344 103.3815 151.31295 102.55078 152.54297 C 99.227926 157.46305 96.13524 162.55267 93.289062 167.79492 C 91.865974 170.41605 90.505165 173.07365 89.207031 175.76953 C 84.663563 185.2051 80.896714 195.08715 77.990234 205.33203 C 76.329389 211.18625 74.949131 217.1603 73.865234 223.23633 C 73.052312 227.79335 72.406798 232.40763 71.933594 237.07422 C 71.775859 238.62975 71.636602 240.19108 71.517578 241.75781 C 71.27953 244.89129 71.119377 248.04724 71.039062 251.22266 C 70.998906 252.81036 70.978516 254.40253 70.978516 256 C 70.978516 257.59747 70.998906 259.18964 71.039062 260.77734 C 71.119377 263.95276 71.27953 267.10871 71.517578 270.24219 C 71.636602 271.80892 71.775859 273.37025 71.933594 274.92578 C 72.406798 279.59237 73.052312 284.20665 73.865234 288.76367 C 74.949131 294.8397 76.329389 300.81375 77.990234 306.66797 C 80.896714 316.91285 84.663563 326.7949 89.207031 336.23047 C 90.505165 338.92635 91.865974 341.58395 93.289062 344.20508 C 96.13524 349.44733 99.227926 354.53695 102.55078 359.45703 C 103.3815 360.68705 104.22664 361.90656 105.08594 363.11523 C 106.80454 365.53259 108.5801 367.90723 110.41016 370.23633 C 113.15525 373.72997 116.02279 377.12205 119.00781 380.40625 C 120.99783 382.59572 123.04098 384.73657 125.13281 386.82812 C 127.22433 388.91934 129.36524 390.9617 131.55469 392.95117 C 131.55469 392.95117 131.55664 392.95117 131.55664 392.95117 C 132.65118 393.94573 133.75671 394.92808 134.875 395.89648 C 134.875 395.89648 134.87695 395.89648 134.87695 395.89648 C 135.99525 396.86487 137.12406 397.82191 138.26562 398.76367 C 138.26562 398.76367 138.26758 398.76367 138.26758 398.76367 C 140.55109 400.64748 142.88017 402.4776 145.25391 404.25195 C 145.25391 404.25195 145.25586 404.25195 145.25586 404.25195 C 146.44252 405.13896 147.63918 406.01412 148.84766 406.87305 C 148.84766 406.87305 148.84961 406.87305 148.84961 406.87305 C 152.47592 409.4504 156.19954 411.90093 160.01367 414.2168 C 160.01367 414.2168 160.01562 414.2168 160.01562 414.2168 C 161.28669 414.98854 162.56647 415.74654 163.85742 416.48828 C 163.85742 416.48828 163.85938 416.48828 163.85938 416.48828 C 165.15033 417.23001 166.45135 417.95673 167.76172 418.66797 C 167.76172 418.66797 167.76367 418.66797 167.76367 418.66797 C 169.07404 419.37919 170.39335 420.0756 171.72266 420.75586 C 171.72266 420.75586 171.72461 420.75586 171.72461 420.75586 C 173.05391 421.4361 174.39248 422.10121 175.74023 422.75 C 175.74023 422.75 175.74219 422.75 175.74219 422.75 C 182.48309 425.99491 189.45091 428.84559 196.61719 431.26758 C 196.61719 431.26758 196.61914 431.26758 196.61914 431.26758 C 199.48531 432.23622 202.38308 433.13654 205.31055 433.9668 C 205.31055 433.9668 205.3125 433.9668 205.3125 433.9668 C 206.77593 434.38183 208.24658 434.78043 209.72461 435.16016 C 209.72461 435.16016 209.72656 435.16016 209.72656 435.16016 C 211.20459 435.53987 212.68949 435.90217 214.18164 436.24609 C 214.18164 436.24609 214.18359 436.24609 214.18359 436.24609 C 226.12513 438.99834 238.5121 440.59671 251.21875 440.91797 C 252.80716 440.95813 254.4018 440.97852 256 440.97852 C 257.83362 440.9785 259.65982 440.94358 261.48047 440.89062 C 262.05468 440.87396 262.62634 440.84804 263.19922 440.82617 C 264.49833 440.77648 265.79389 440.71695 267.08594 440.64062 C 267.67057 440.60616 268.25474 440.56916 268.83789 440.5293 C 270.21874 440.43472 271.5945 440.32193 272.9668 440.19727 C 273.40664 440.15738 273.84816 440.12303 274.28711 440.08008 C 276.13224 439.89922 277.97207 439.69744 279.80078 439.46289 C 281.62444 439.22899 283.43759 438.96224 285.24414 438.67578 C 285.59908 438.61956 285.95238 438.55824 286.30664 438.5 C 287.77358 438.25862 289.23441 438.00213 290.68945 437.72656 C 291.09931 437.649 291.50907 437.57049 291.91797 437.49023 C 293.51723 437.17611 295.11117 436.84318 296.69531 436.48828 C 296.85308 436.45295 297.01231 436.42245 297.16992 436.38672 C 299.01997 435.96714 300.85902 435.52122 302.6875 435.04688 L 321.60742 376.73047 L 279.22852 337.5293 A 14.980411 15.022623 0 0 1 279.22461 337.52734 C 265.64471 324.95924 274.53842 299.65765 293.5332 299.65039 A 14.980411 15.022623 0 0 1 293.53906 299.65039 L 346.61523 299.65039 L 358.48438 263.0625 A 14.980411 15.022623 0 0 1 358.52148 262.95312 L 358.49219 263.04688 C 358.50486 263.00772 358.5184 262.9688 358.53125 262.92969 L 358.54883 262.87695 A 14.980411 15.022623 0 0 1 358.57422 262.79688 C 358.58336 262.76953 358.59419 262.74216 358.60352 262.71484 C 358.60686 262.70368 358.60966 262.6928 358.61328 262.68164 C 358.61419 262.67801 358.61628 262.6746 358.61719 262.67188 C 358.619 262.66713 358.62124 262.66274 358.62305 262.6582 C 358.62341 262.6573 358.62268 262.6552 358.62305 262.6543 A 14.980411 15.022623 0 0 1 358.62695 262.64648 A 14.980411 15.022623 0 0 1 358.85742 262.04688 L 358.83398 262.0957 L 358.75977 262.26367 A 14.980411 15.022623 0 0 1 358.88867 261.92383 A 14.980411 15.022623 0 0 1 358.90625 261.87891 C 358.91539 261.8554 358.92436 261.8321 358.93359 261.80859 C 358.97825 261.6945 359.02566 261.58022 359.07227 261.4668 A 14.980411 15.022623 0 0 1 359.07422 261.45703 C 359.09051 261.41742 359.10844 261.37737 359.125 261.33789 A 14.980411 15.022623 0 0 1 359.17578 261.21484 C 359.20148 261.15433 359.22766 261.0955 359.25391 261.03516 A 14.980411 15.022623 0 0 1 359.26953 260.99609 C 359.37007 260.76676 359.47549 260.54057 359.58398 260.31445 A 14.980411 15.022623 0 0 1 359.62891 260.2207 C 359.66213 260.1521 359.69449 260.08399 359.72852 260.01562 C 359.72942 260.01472 359.72988 260.01263 359.73047 260.01172 C 359.73137 260.01081 359.73183 260.00872 359.73242 260.00781 C 359.75568 259.96118 359.77921 259.9156 359.80273 259.86914 A 14.980411 15.022623 0 0 1 359.82227 259.82812 C 359.87411 259.72669 359.92894 259.62608 359.98242 259.52539 C 359.98514 259.52004 359.98752 259.51326 359.99023 259.50781 C 359.99738 259.49429 360.00448 259.48227 360.01172 259.46875 C 360.05128 259.39447 360.09236 259.31996 360.13281 259.24609 A 14.980411 15.022623 0 0 1 360.19141 259.13867 C 360.20181 259.12007 360.21225 259.10063 360.22266 259.08203 C 360.23261 259.06424 360.242 259.04699 360.25195 259.0293 C 360.26254 259.01051 360.27448 258.99144 360.28516 258.97266 C 360.32553 258.90137 360.36694 258.83064 360.4082 258.75977 A 14.980411 15.022623 0 0 1 360.48438 258.62891 C 360.49786 258.60595 360.51173 258.58341 360.52539 258.56055 L 360.53516 258.54492 C 360.53878 258.53975 360.54221 258.53474 360.54492 258.5293 A 14.980411 15.022623 0 0 1 360.55664 258.50977 C 360.56696 258.4928 360.57748 258.474 360.58789 258.45703 C 360.60879 258.42251 360.6294 258.388 360.65039 258.35352 A 14.980411 15.022623 0 0 1 360.73047 258.22461 C 360.74269 258.20501 360.75527 258.18553 360.76758 258.16602 C 360.80654 258.10366 360.84513 258.0405 360.88477 257.97852 A 14.980411 15.022623 0 0 1 360.88672 257.97461 C 360.91423 257.93167 360.94292 257.88844 360.9707 257.8457 C 361.02521 257.7618 361.08098 257.67696 361.13672 257.59375 C 361.13762 257.59284 361.13795 257.59075 361.13867 257.58984 C 361.14139 257.58558 361.14377 257.58269 361.14648 257.57812 C 361.21206 257.48027 361.28042 257.38202 361.34766 257.28516 A 14.980411 15.022623 0 0 1 361.42773 257.16992 A 14.980411 15.022623 0 0 1 361.45703 257.12891 C 361.46988 257.11085 361.48315 257.09219 361.49609 257.07422 A 14.980411 15.022623 0 0 1 361.57031 256.97461 C 361.59556 256.93964 361.62097 256.90399 361.64648 256.86914 A 14.980411 15.022623 0 0 1 361.66406 256.84375 C 361.67203 256.83286 361.67936 256.8233 361.6875 256.8125 A 14.980411 15.022623 0 0 1 361.81641 256.63672 C 361.82935 256.61957 361.84253 256.60309 361.85547 256.58594 L 361.88672 256.54492 A 14.980411 15.022623 0 0 1 361.96289 256.44531 C 361.96751 256.43932 361.97204 256.43409 361.97656 256.42773 C 362.03918 256.34631 362.10222 256.26613 362.16602 256.18555 A 14.980411 15.022623 0 0 1 362.24219 256.08984 C 362.24644 256.08458 362.24938 256.07966 362.25391 256.07422 C 362.26431 256.06115 362.27466 256.04822 362.28516 256.03516 C 362.2905 256.02853 362.29535 256.02201 362.30078 256.01562 C 362.3593 255.94336 362.41906 255.87034 362.47852 255.79883 C 362.53148 255.73511 362.58492 255.67253 362.63867 255.60938 C 362.65333 255.59201 362.66689 255.57593 362.68164 255.55859 A 14.980411 15.022623 0 0 1 362.79688 255.42578 C 362.85274 255.36171 362.91015 255.29781 362.9668 255.23438 C 362.98671 255.21193 363.00539 255.18834 363.02539 255.16602 C 363.03236 255.1583 363.03961 255.15075 363.04688 255.14258 C 363.10371 255.07936 363.16111 255.01577 363.21875 254.95312 A 14.980411 15.022623 0 0 1 363.33594 254.83008 C 363.36046 254.80394 363.38545 254.778 363.41016 254.75195 A 14.980411 15.022623 0 0 1 363.49219 254.66406 C 363.49852 254.65753 363.50538 254.65088 363.51172 254.64453 C 363.54809 254.6066 363.58444 254.56891 363.62109 254.53125 C 363.72033 254.42945 363.82049 254.32845 363.92188 254.22852 L 363.93359 254.2168 A 14.980411 15.022623 0 0 1 364.00391 254.14844 C 364.05199 254.10159 364.09984 254.05427 364.14844 254.00781 C 364.16491 253.99193 364.1808 253.97868 364.19727 253.96289 A 14.980411 15.022623 0 0 1 364.35547 253.81445 C 364.43021 253.74495 364.5062 253.67398 364.58203 253.60547 C 364.60357 253.58605 364.6229 253.56816 364.64453 253.54883 A 14.980411 15.022623 0 0 1 364.64844 253.54492 C 364.65767 253.53657 364.66841 253.5277 364.67773 253.51953 C 364.72642 253.47617 364.77508 253.43367 364.82422 253.39062 C 364.83263 253.38318 364.83951 253.37445 364.84766 253.36719 A 14.980411 15.022623 0 0 1 364.99023 253.24414 C 365.08787 253.16029 365.18591 253.07822 365.28516 252.99609 C 365.36702 252.92824 365.45022 252.86162 365.5332 252.79492 A 14.980411 15.022623 0 0 1 365.58203 252.75391 C 365.60275 252.73739 365.62381 252.7215 365.64453 252.70508 C 365.74401 252.62604 365.84238 252.54802 365.94336 252.4707 A 14.980411 15.022623 0 0 1 365.98828 252.4375 C 366.06469 252.3794 366.14342 252.32273 366.2207 252.26562 C 366.25725 252.23858 366.29334 252.21045 366.33008 252.18359 C 366.45161 252.0949 366.57374 252.00808 366.69727 251.92188 A 14.980411 15.022623 0 0 1 366.7168 251.90625 C 366.83012 251.82743 366.94362 251.75051 367.05859 251.67383 C 367.1586 251.60703 367.2601 251.54172 367.36133 251.47656 C 367.38078 251.46404 367.40047 251.45189 367.41992 251.43945 A 14.980411 15.022623 0 0 1 367.43359 251.42969 C 367.4354 251.42878 367.43764 251.42669 367.43945 251.42578 A 14.980411 15.022623 0 0 1 367.54883 251.35742 C 367.64879 251.29472 367.74852 251.23099 367.84961 251.16992 L 367.85156 251.16992 C 367.85853 251.16566 367.86581 251.16079 367.87305 251.15625 C 367.90696 251.13583 367.94058 251.11594 367.97461 251.0957 C 367.99416 251.08391 368.01375 251.07225 368.0332 251.06055 A 14.980411 15.022623 0 0 1 368.03711 251.05859 L 368.03906 251.05859 A 14.980411 15.022623 0 0 1 368.30664 250.90234 C 368.34074 250.88292 368.374 250.86299 368.4082 250.84375 C 368.43526 250.82832 368.46309 250.81416 368.49023 250.79883 A 14.980411 15.022623 0 0 1 368.66797 250.69922 C 368.74357 250.65796 368.82038 250.61646 368.89648 250.57617 C 368.91684 250.56528 368.93658 250.55572 368.95703 250.54492 A 14.980411 15.022623 0 0 1 369.16992 250.43359 C 369.18096 250.42797 369.19209 250.42341 369.20312 250.41797 C 369.26949 250.38409 369.33565 250.34962 369.40234 250.31641 A 14.980411 15.022623 0 0 1 369.46875 250.28516 C 369.50116 250.26928 369.53392 250.25212 369.56641 250.23633 A 14.980411 15.022623 0 0 1 369.83789 250.10742 A 14.980411 15.022623 0 0 1 369.91602 250.07031 C 369.99536 250.03361 370.07448 249.99864 370.1543 249.96289 C 370.18081 249.95091 370.20774 249.93758 370.23438 249.92578 A 14.980411 15.022623 0 0 1 370.54297 249.79297 C 370.57283 249.78054 370.60286 249.7682 370.63281 249.75586 C 370.65055 249.74842 370.66781 249.73968 370.68555 249.73242 A 14.980411 15.022623 0 0 1 370.68945 249.73047 C 370.8084 249.68097 370.92889 249.63135 371.04883 249.58398 A 14.980411 15.022623 0 0 1 371.11914 249.55859 C 371.12557 249.55587 371.13234 249.5535 371.13867 249.55078 C 371.14202 249.54897 371.14677 249.54778 371.15039 249.54688 C 371.26322 249.50303 371.37465 249.45989 371.48828 249.41797 A 14.980411 15.022623 0 0 1 371.5957 249.37891 C 371.66329 249.35459 371.73096 249.33228 371.79883 249.30859 C 371.85633 249.28845 371.91111 249.26774 371.96875 249.24805 C 371.97527 249.24532 371.98195 249.24205 371.98828 249.24023 C 371.991 249.23933 371.99338 249.23907 371.99609 249.23828 C 372.1087 249.19995 372.22262 249.16334 372.33594 249.12695 A 14.980411 15.022623 0 0 1 372.38281 249.11133 C 372.41573 249.10089 372.44948 249.09042 372.48242 249.08008 A 14.980411 15.022623 0 0 1 372.52734 249.06641 A 14.980411 15.022623 0 0 1 372.60352 249.04102 C 372.61329 249.03739 372.6249 249.03593 372.63477 249.0332 A 14.980411 15.022623 0 0 1 372.70312 249.01172 C 372.70958 249.0099 372.71632 249.00767 372.72266 249.00586 A 14.980411 15.022623 0 0 1 372.91797 248.94727 C 372.97339 248.93138 373.02842 248.91582 373.08398 248.90039 L 373.02148 248.91992 C 373.12869 248.88961 373.23603 248.85866 373.34375 248.83008 C 373.41202 248.81193 373.48042 248.79486 373.54883 248.77734 A 14.980411 15.022623 0 0 1 373.71094 248.73438 C 373.84692 248.70071 373.98439 248.66962 374.12109 248.63867 A 14.980411 15.022623 0 0 1 374.12695 248.63672 C 374.25531 248.60777 374.38278 248.58128 374.51172 248.55469 A 14.980411 15.022623 0 0 1 374.56836 248.54297 C 374.61516 248.53344 374.66211 248.52482 374.70898 248.51562 C 374.71785 248.51381 374.72728 248.51158 374.73633 248.50977 A 14.980411 15.022623 0 0 1 374.76758 248.50195 C 374.77572 248.50014 374.78482 248.49986 374.79297 248.49805 C 374.8952 248.47845 374.99706 248.45946 375.09961 248.44141 A 14.980411 15.022623 0 0 1 375.13867 248.43555 C 375.33682 248.40114 375.53517 248.36852 375.73438 248.33984 C 375.79959 248.33032 375.86435 248.32157 375.92969 248.3125 A 14.980411 15.022623 0 0 1 376 248.30273 C 376.12894 248.28576 376.25745 248.27047 376.38672 248.25586 A 14.980411 15.022623 0 0 1 376.44727 248.24805 C 376.58183 248.23335 376.71476 248.22096 376.84961 248.20898 C 376.88617 248.20535 376.92243 248.20194 376.95898 248.19922 L 376.96094 248.19922 C 376.98392 248.1965 377.00631 248.19517 377.0293 248.19336 A 14.980411 15.022623 0 0 1 377.21875 248.17969 L 377.27539 248.17578 A 14.980411 15.022623 0 0 1 377.36328 248.16797 C 377.39383 248.16615 377.42449 248.16392 377.45508 248.16211 A 14.980411 15.022623 0 0 1 377.56641 248.1543 A 14.980411 15.022623 0 0 1 377.875 248.13867 C 377.98611 248.13413 378.09782 248.13358 378.20898 248.13086 C 378.33406 248.12727 378.4608 248.12397 378.58594 248.12305 L 378.58984 248.12305 A 14.980411 15.022623 0 0 1 378.61523 248.12305 A 14.980411 15.022623 0 0 1 378.62305 248.12305 C 378.69149 248.12272 378.75971 248.1227 378.82812 248.12305 A 14.980411 15.022623 0 0 1 378.85742 248.12305 C 378.88213 248.12305 378.90694 248.12474 378.93164 248.125 C 379.02042 248.12591 379.11045 248.12904 379.19922 248.13086 C 379.21505 248.13123 379.23026 248.13046 379.24609 248.13086 C 379.35433 248.13331 379.46408 248.13609 379.57227 248.14062 A 14.980411 15.022623 0 0 1 379.79102 248.15234 A 14.980411 15.022623 0 0 1 379.99219 248.16211 C 380.01581 248.16392 380.03888 248.16615 380.0625 248.16797 C 380.06521 248.16811 380.0676 248.16782 380.07031 248.16797 A 14.980411 15.022623 0 0 1 380.13672 248.17188 C 380.14794 248.17278 380.16062 248.17305 380.17188 248.17383 C 380.30655 248.18327 380.44172 248.19505 380.57617 248.20703 L 380.59766 248.20898 C 380.69957 248.21797 380.8006 248.2258 380.90234 248.23633 A 14.980411 15.022623 0 0 1 381.01172 248.25 C 381.15843 248.26633 381.30683 248.28331 381.45312 248.30273 L 381.46875 248.30469 C 381.55644 248.3163 381.64492 248.329 381.73242 248.3418 L 381.75195 248.3457 C 381.80687 248.35369 381.86118 248.36097 381.91602 248.36914 A 14.980411 15.022623 0 0 1 381.95508 248.375 C 382.08335 248.39505 382.21007 248.41704 382.33789 248.43945 A 14.980411 15.022623 0 0 1 382.34766 248.44141 C 382.43837 248.45738 382.52865 248.47308 382.61914 248.49023 L 382.67969 248.50195 C 382.71456 248.50858 382.74836 248.51422 382.7832 248.52148 A 14.980411 15.022623 0 0 1 382.88672 248.54102 C 383.02092 248.56842 383.15354 248.59887 383.28711 248.62891 A 14.980411 15.022623 0 0 1 383.29102 248.62891 C 383.42515 248.6591 383.55796 248.69185 383.69141 248.72461 L 383.73633 248.73438 C 383.86324 248.7657 383.98899 248.79836 384.11523 248.83203 A 14.980411 15.022623 0 0 1 384.14258 248.83984 C 384.25568 248.87026 384.3699 248.90129 384.48242 248.93359 C 384.49708 248.93786 384.51073 248.94078 384.52539 248.94531 L 384.54883 248.95312 A 14.980411 15.022623 0 0 1 384.76172 249.01758 C 384.79591 249.02792 384.82917 249.03821 384.86328 249.04883 L 384.94922 249.07422 C 384.97573 249.08248 385.00083 249.09144 385.02734 249.09961 A 14.980411 15.022623 0 0 1 385.10938 249.125 C 385.20099 249.1544 385.29165 249.18417 385.38281 249.21484 L 385.41016 249.22461 C 385.53967 249.26807 385.66829 249.31141 385.79688 249.35742 A 14.980411 15.022623 0 0 1 385.91797 249.40234 A 14.980411 15.022623 0 0 1 386.05859 249.45508 L 386.06055 249.45508 C 386.11814 249.47668 386.17697 249.49943 386.23438 249.52148 A 14.980411 15.022623 0 0 1 386.29102 249.54297 C 386.30323 249.54769 386.31591 249.55406 386.32812 249.55859 C 386.46197 249.61085 386.59591 249.66385 386.72852 249.71875 C 386.86823 249.77657 387.00623 249.83568 387.14453 249.89648 A 14.980411 15.022623 0 0 1 387.19531 249.91797 C 387.22741 249.93213 387.25898 249.94846 387.29102 249.96289 C 387.29753 249.96561 387.30421 249.96798 387.31055 249.9707 A 14.980411 15.022623 0 0 1 387.36719 249.99609 A 14.980411 15.022623 0 0 1 387.41602 250.01953 C 387.42353 250.02316 387.43221 250.02371 387.43945 250.02734 L 387.44922 250.0332 L 387.46094 250.03906 C 387.47044 250.04342 387.48064 250.0482 387.49023 250.05273 A 14.980411 15.022623 0 0 1 387.62305 250.11328 C 387.73897 250.16767 387.85393 250.22285 387.96875 250.2793 C 388.08113 250.33455 388.1934 250.39205 388.30469 250.44922 C 388.3065 250.45013 388.30874 250.45026 388.31055 250.45117 L 388.37305 250.48438 A 14.980411 15.022623 0 0 1 388.41016 250.50391 C 388.5231 250.56266 388.63433 250.62093 388.74609 250.68164 A 14.980411 15.022623 0 0 1 388.83594 250.73047 C 388.9271 250.7808 389.01711 250.83118 389.10742 250.88281 L 389.13672 250.90039 A 14.980411 15.022623 0 0 1 389.14648 250.90625 C 389.14983 250.90806 389.15263 250.91029 389.15625 250.91211 L 389.17188 250.91992 C 389.28465 250.98452 389.39635 251.05058 389.50781 251.11719 A 14.980411 15.022623 0 0 1 389.55859 251.14648 C 389.70776 251.23641 389.85524 251.32841 390.00195 251.42188 A 14.980411 15.022623 0 0 1 390.00781 251.42578 C 390.13235 251.50518 390.25619 251.58612 390.37891 251.66797 L 390.38672 251.67383 C 390.48282 251.73793 390.58082 251.80353 390.67578 251.86914 A 14.980411 15.022623 0 0 1 390.76758 251.93164 L 390.77539 251.9375 L 390.77734 251.9375 C 390.81317 251.96255 390.84716 251.98844 390.88281 252.01367 A 14.980411 15.022623 0 0 1 390.96094 252.07031 C 390.99544 252.095 391.03007 252.11967 391.06445 252.14453 L 391.07812 252.1543 C 391.19237 252.23705 391.30555 252.3214 391.41797 252.40625 A 14.980411 15.022623 0 0 1 391.47461 252.44922 C 391.4956 252.46519 391.51621 252.48003 391.53711 252.49609 A 14.980411 15.022623 0 0 1 391.55273 252.50781 C 391.63505 252.57123 391.71748 252.63665 391.79883 252.70117 A 14.980411 15.022623 0 0 1 391.9043 252.78516 C 391.98495 252.8499 392.0649 252.91654 392.14453 252.98242 L 392.1582 252.99219 C 392.2584 253.0751 392.35652 253.15947 392.45508 253.24414 A 14.980411 15.022623 0 0 1 392.5625 253.33789 C 392.62237 253.39017 392.68292 253.44319 392.74219 253.49609 C 392.7706 253.52141 392.79794 253.54677 392.82617 253.57227 C 392.89723 253.63636 392.97088 253.70065 393.04102 253.76562 L 393.02344 253.75195 C 393.17367 253.89071 393.3228 254.03109 393.46875 254.17383 L 393.49609 254.20117 C 393.56126 254.26505 393.62707 254.32992 393.69141 254.39453 C 393.70607 254.40923 393.71969 254.42466 393.73438 254.43945 A 14.980411 15.022623 0 0 1 393.77344 254.47852 C 393.81866 254.52453 393.86536 254.57082 393.91016 254.61719 L 393.91992 254.62891 C 393.9726 254.68354 394.02609 254.73779 394.07812 254.79297 A 14.980411 15.022623 0 0 1 394.0918 254.80664 C 394.18532 254.90596 394.27764 255.00839 394.36914 255.10938 A 14.980411 15.022623 0 0 1 394.48438 255.23828 C 394.64287 255.41598 394.79893 255.59487 394.95117 255.77734 A 14.980411 15.022623 0 0 1 394.99805 255.83594 C 395.02773 255.87191 395.05839 255.90715 395.08789 255.94336 L 395.12695 255.99414 C 395.16792 256.04452 395.20955 256.09576 395.25 256.14648 L 395.27344 256.17383 C 395.35188 256.27234 395.42921 256.37289 395.50586 256.47266 A 14.980411 15.022623 0 0 1 395.56055 256.54297 C 395.63137 256.63631 395.70226 256.72983 395.77148 256.82422 C 395.93741 257.04985 396.09717 257.27842 396.25391 257.50977 C 396.25572 257.51249 396.25796 257.51486 396.25977 257.51758 L 396.27344 257.53711 A 14.980411 15.022623 0 0 1 396.37305 257.6875 C 396.43407 257.77996 396.49514 257.87349 396.55469 257.9668 L 396.57617 258 C 396.57798 258.00336 396.57827 258.00614 396.58008 258.00977 A 14.980411 15.022623 0 0 1 396.63281 258.08984 C 396.66828 258.14609 396.70335 258.20128 396.73828 258.25781 A 14.980411 15.022623 0 0 1 396.79883 258.35156 C 396.84074 258.42021 396.88067 258.49149 396.92188 258.56055 L 396.96289 258.62891 C 396.9647 258.63163 396.96694 258.634 396.96875 258.63672 A 14.980411 15.022623 0 0 1 397.00195 258.69531 C 397.17905 258.99727 397.34773 259.30201 397.50977 259.61133 C 397.55063 259.68913 397.59291 259.76748 397.63281 259.8457 A 14.980411 15.022623 0 0 1 397.63477 259.84961 C 397.70107 259.97967 397.76451 260.10901 397.82812 260.24023 A 14.980411 15.022623 0 0 1 397.85156 260.28906 C 397.90471 260.39967 397.95855 260.51165 398.00977 260.62305 A 14.980411 15.022623 0 0 1 398.02344 260.6543 C 398.03176 260.67236 398.0387 260.69093 398.04688 260.70898 L 398.05078 260.7168 C 398.10183 260.829 398.15203 260.94173 398.20117 261.05469 L 398.20508 261.0625 C 398.25283 261.17239 398.29982 261.28395 398.3457 261.39453 A 14.980411 15.022623 0 0 1 398.42188 261.58008 L 398.45508 261.66016 C 398.46234 261.67831 398.46932 261.69667 398.47656 261.71484 C 398.48923 261.74667 398.50118 261.77869 398.51367 261.81055 A 14.980411 15.022623 0 0 1 398.51562 261.82227 L 398.51953 261.83008 A 14.980411 15.022623 0 0 1 398.5332 261.86133 C 398.58495 261.99441 398.63446 262.12777 398.68359 262.26172 L 398.68555 262.26758 C 398.73485 262.40214 398.78543 262.53645 398.83203 262.67188 A 14.980411 15.022623 0 0 1 398.9043 262.88867 L 398.92578 262.95898 C 398.93583 262.98953 398.94708 263.0202 398.95703 263.05078 A 14.980411 15.022623 0 0 1 399.30469 264.30664 L 399.18164 263.74609 L 410.83008 299.65039 L 435.83594 299.65039 C 435.83657 299.64778 435.83726 299.64519 435.83789 299.64258 C 437.50102 292.75524 438.77948 285.71656 439.65234 278.55273 C 439.69515 278.19991 439.73262 277.84562 439.77344 277.49219 C 439.93244 276.12161 440.07619 274.74678 440.20508 273.36719 C 440.24762 272.90944 440.28697 272.4509 440.32617 271.99219 C 440.43176 270.76349 440.52405 269.53043 440.60547 268.29492 C 440.64556 267.68271 440.68657 267.07087 440.7207 266.45703 C 440.78585 265.29317 440.83349 264.12467 440.87695 262.95508 C 440.89803 262.38396 440.92746 261.81462 440.94336 261.24219 C 440.99209 259.50011 441.02148 257.75401 441.02148 256 C 441.02148 254.40253 441.0011 252.81036 440.96094 251.22266 C 440.88062 248.04724 440.72048 244.89129 440.48242 241.75781 C 440.3634 240.19107 440.22414 238.62975 440.06641 237.07422 C 439.59319 232.40763 438.94771 227.79335 438.13477 223.23633 C 437.86379 221.71732 437.5734 220.20313 437.26562 218.69727 C 436.34234 214.17966 435.25543 209.7227 434.00977 205.33203 C 433.59455 203.86848 433.16101 202.41333 432.71094 200.96484 C 431.81079 198.06787 430.84136 195.20099 429.80469 192.36719 C 429.28635 190.95029 428.75097 189.54102 428.19922 188.14062 C 426.54398 183.93948 424.74021 179.81335 422.79297 175.76953 C 422.14389 174.42159 421.47939 173.0834 420.79883 171.75391 C 419.43771 169.09492 418.01344 166.47294 416.5293 163.89062 C 415.04515 161.30832 413.4998 158.76543 411.89648 156.26367 C 409.49151 152.51103 406.95523 148.85158 404.29297 145.29102 C 395.41891 133.42286 385.15172 122.65686 373.73242 113.23633 C 373.73242 113.23633 373.73047 113.23633 373.73047 113.23633 C 371.44691 111.35251 369.11791 109.52242 366.74414 107.74805 C 366.74414 107.74805 366.74219 107.74805 366.74219 107.74805 C 359.62005 102.42441 352.10116 97.600898 344.23633 93.332031 C 344.23633 93.332031 344.23438 93.332031 344.23438 93.332031 C 342.92398 92.620794 341.60471 91.92441 340.27539 91.244141 C 340.27539 91.244141 340.27344 91.244141 340.27344 91.244141 C 338.94412 90.563886 337.60558 89.898804 336.25781 89.25 C 336.25781 89.25 336.25586 89.25 336.25586 89.25 C 311.98639 77.567185 284.76565 71.021484 255.99805 71.021484 z M 378.69531 263.14258 C 378.65848 263.14284 378.62081 263.14359 378.58398 263.14453 C 378.54037 263.14527 378.49676 263.14662 378.45312 263.14844 C 378.4362 263.14934 378.41927 263.15144 378.40234 263.15234 C 378.38244 263.15325 378.36171 263.15534 378.3418 263.15625 C 378.33546 263.15684 378.32896 263.1573 378.32227 263.1582 C 378.27865 263.16093 378.23493 263.16398 378.19141 263.16797 C 378.14806 263.1716 378.10581 263.17515 378.0625 263.17969 C 378.02558 263.18422 377.988 263.18891 377.95117 263.19336 C 377.92176 263.19699 377.8926 263.20249 377.86328 263.20703 C 377.80636 263.2152 377.75003 263.22454 377.69336 263.23438 C 377.66169 263.23982 377.6292 263.24587 377.59766 263.25195 C 377.58173 263.25468 377.56671 263.25659 377.55078 263.25977 C 377.54391 263.2613 377.53793 263.2643 377.53125 263.26562 C 377.53001 263.26587 377.52859 263.26534 377.52734 263.26562 C 377.52673 263.26575 377.52599 263.26549 377.52539 263.26562 C 377.48847 263.27291 377.45285 263.2808 377.41602 263.28906 C 377.37683 263.29814 377.33787 263.30679 377.29883 263.31641 L 377.28711 263.32031 C 377.25118 263.32939 377.21544 263.33804 377.17969 263.34766 C 377.14874 263.35582 377.11873 263.36434 377.08789 263.37305 C 377.07187 263.37758 377.05499 263.38227 377.03906 263.38672 C 377.02884 263.38944 377.01999 263.39331 377.00977 263.39648 C 376.9771 263.40628 376.94465 263.41544 376.91211 263.42578 L 376.9082 263.42773 C 376.873 263.43908 376.83777 263.44896 376.80273 263.46094 C 376.78355 263.46729 376.76528 263.47571 376.74609 263.48242 C 376.71741 263.49231 376.68875 263.50146 376.66016 263.51172 C 376.62441 263.52488 376.58829 263.53885 376.55273 263.55273 C 376.5473 263.55455 376.54263 263.55678 376.53711 263.55859 C 376.50236 263.5723 376.46618 263.58722 376.43164 263.60156 C 376.39743 263.61581 376.36403 263.62965 376.33008 263.64453 C 376.31985 263.64907 376.30905 263.65367 376.29883 263.6582 C 376.29068 263.66183 376.28308 263.66488 376.27539 263.66797 C 376.2467 263.68067 376.21796 263.69387 376.18945 263.70703 C 376.18754 263.70785 376.18536 263.70796 376.18359 263.70898 C 376.17991 263.71094 376.17558 263.71315 376.17188 263.71484 C 376.13586 263.73172 376.1002 263.74997 376.06445 263.76758 C 376.045 263.77729 376.02522 263.78695 376.00586 263.79688 C 375.98794 263.80595 375.97107 263.81514 375.95312 263.82422 C 375.94679 263.82694 375.94152 263.83081 375.93555 263.83398 C 375.89799 263.85349 375.85942 263.87234 375.82227 263.89258 C 375.81412 263.89712 375.80679 263.9018 375.79883 263.90625 C 375.77231 263.92086 375.74704 263.9362 375.7207 263.95117 C 375.71527 263.9548 375.70886 263.95785 375.70312 263.96094 C 375.66485 263.98299 375.62574 264.00634 375.58789 264.0293 C 375.55586 264.04863 375.52394 264.06802 375.49219 264.08789 C 375.48676 264.09152 375.48031 264.0958 375.47461 264.09961 C 375.43706 264.12357 375.40043 264.14707 375.36328 264.17188 C 375.32645 264.19638 375.29027 264.22078 375.25391 264.24609 C 375.21726 264.27168 375.18068 264.2979 375.14453 264.32422 C 375.10942 264.34981 375.07372 264.37603 375.03906 264.40234 L 375.03711 264.4043 C 375.00698 264.42735 374.97695 264.45102 374.94727 264.47461 C 374.93179 264.48677 374.91577 264.49751 374.90039 264.50977 C 374.8756 264.52973 374.85265 264.54999 374.82812 264.57031 C 374.79672 264.59627 374.76524 264.62389 374.73438 264.65039 C 374.71435 264.668 374.69365 264.68525 374.67383 264.70312 C 374.65908 264.71604 374.64552 264.72912 374.63086 264.74219 C 374.62452 264.74763 374.61784 264.75387 374.61133 264.75977 C 374.5878 264.781 374.56427 264.80262 374.54102 264.82422 C 374.53559 264.82876 374.53037 264.83308 374.52539 264.83789 C 374.49779 264.86384 374.47051 264.88952 374.44336 264.91602 C 374.44302 264.91636 374.44369 264.91763 374.44336 264.91797 C 374.43793 264.92341 374.43271 264.92665 374.42773 264.93164 C 374.39579 264.96304 374.36535 264.99524 374.33398 265.02734 C 374.30457 265.05747 374.27496 265.08837 374.24609 265.11914 C 374.23976 265.1264 374.23326 265.13178 374.22656 265.13867 C 374.22623 265.13902 374.2269 265.14028 374.22656 265.14062 C 374.20068 265.16879 374.17387 265.19602 374.14844 265.22461 C 374.12283 265.25301 374.09742 265.28169 374.07227 265.31055 C 374.06774 265.31599 374.06303 265.32091 374.05859 265.32617 C 374.03371 265.35503 374.00881 265.38475 373.98438 265.41406 C 373.96073 265.44247 373.93918 265.47114 373.91602 265.5 C 373.90968 265.50726 373.90264 265.51377 373.89648 265.52148 C 373.89618 265.52187 373.89679 265.52306 373.89648 265.52344 C 373.87685 265.54821 373.85717 265.57261 373.83789 265.59766 C 373.82839 265.60982 373.81996 265.62056 373.81055 265.63281 C 373.81023 265.63323 373.81087 265.63435 373.81055 265.63477 L 373.80273 265.64258 C 373.77957 265.67307 373.757 265.70341 373.73438 265.73438 C 373.70783 265.7704 373.68204 265.80721 373.65625 265.84375 L 373.6543 265.8457 C 373.65068 265.85115 373.64638 265.85579 373.64258 265.86133 C 373.64228 265.86177 373.64287 265.86286 373.64258 265.86328 C 373.62099 265.89442 373.59918 265.92547 373.57812 265.95703 C 373.57782 265.95748 373.57843 265.95853 373.57812 265.95898 C 373.55976 265.98639 373.54145 266.01334 373.52344 266.04102 C 373.51439 266.05454 373.50478 266.06656 373.49609 266.08008 C 373.49581 266.08052 373.49638 266.08159 373.49609 266.08203 C 373.48379 266.10127 373.47306 266.11925 373.46094 266.13867 C 373.44863 266.15791 373.43595 266.17785 373.42383 266.19727 C 373.40645 266.22576 373.38811 266.25444 373.37109 266.2832 C 373.36657 266.29137 373.36213 266.29865 373.35742 266.30664 C 373.3538 266.31209 373.351 266.317 373.34766 266.32227 C 373.3282 266.35575 373.30993 266.38996 373.29102 266.42383 C 373.28124 266.44098 373.2714 266.45737 373.26172 266.47461 C 373.24579 266.50365 373.23032 266.53328 373.21484 266.5625 C 373.19485 266.59989 373.17366 266.63798 373.1543 266.67578 C 373.14891 266.68593 373.14514 266.69663 373.14062 266.70703 C 373.13827 266.71181 373.1352 266.71591 373.13281 266.7207 C 373.13255 266.72124 373.13308 266.72212 373.13281 266.72266 C 373.12204 266.74437 373.11021 266.76531 373.09961 266.78711 C 373.09935 266.78763 373.09986 266.78854 373.09961 266.78906 C 373.09689 266.79541 373.09256 266.80029 373.08984 266.80664 C 373.0531 266.88278 373.01835 266.95958 372.98438 267.03711 L 372.98438 267.03906 C 372.9762 267.05812 372.96713 267.07656 372.95898 267.0957 C 372.94632 267.12529 372.93409 267.15383 372.92188 267.18359 C 372.92165 267.18415 372.9221 267.18499 372.92188 267.18555 C 372.90709 267.22139 372.89302 267.25686 372.87891 267.29297 C 372.86262 267.33435 372.84564 267.37623 372.83008 267.41797 L 372.82812 267.42188 C 372.82632 267.42823 372.82408 267.43505 372.82227 267.44141 C 372.80905 267.47807 372.79587 267.51382 372.7832 267.55078 C 372.783 267.55136 372.7834 267.55216 372.7832 267.55273 C 372.7693 267.59308 372.7553 267.63318 372.74219 267.67383 C 372.742 267.67442 372.74238 267.67519 372.74219 267.67578 L 372.74219 267.67773 L 372.73828 267.68359 L 372.73438 267.69922 L 372.73047 267.70508 L 357.49609 314.66602 L 293.54102 314.66602 C 292.80911 314.66624 292.12603 314.78836 291.5 315.00781 C 290.87399 315.22724 290.30529 315.5452 289.80078 315.93945 C 289.54811 316.13691 289.31302 316.35299 289.09375 316.58594 C 288.87518 316.81815 288.67172 317.06618 288.48828 317.32812 C 287.75295 318.37772 287.30962 319.64396 287.2168 320.94922 C 287.19358 321.27543 287.19111 321.60335 287.21289 321.93164 C 287.21592 321.97745 287.22849 322.02257 287.23242 322.06836 C 287.28499 322.67969 287.4095 323.28863 287.62891 323.87695 C 287.98188 324.82439 288.55851 325.71787 289.38672 326.48438 L 338.82422 372.21484 L 320.22266 429.54883 L 312.33008 453.875 C 310.21809 460.39092 317.58149 465.67536 322.47266 461.1543 L 378.72461 409.12109 L 434.97852 461.1543 C 439.86967 465.67536 447.23112 460.39092 445.11914 453.875 L 418.625 372.21484 L 468.06445 326.48438 C 472.48153 322.39639 469.76541 314.66812 463.91016 314.66602 L 399.95508 314.66602 L 384.71875 267.70508 L 384.7168 267.70117 C 384.70512 267.66533 384.69386 267.62944 384.68164 267.59375 C 384.67893 267.58649 384.67654 267.57971 384.67383 267.57227 C 384.67363 267.57169 384.67403 267.57089 384.67383 267.57031 C 384.65881 267.52666 384.64279 267.48471 384.62695 267.44141 C 384.61121 267.3983 384.59673 267.35521 384.58008 267.3125 C 384.56804 267.28192 384.55537 267.25102 384.54297 267.2207 C 384.53663 267.205 384.52968 267.18944 384.52344 267.17383 L 384.51953 267.16406 C 384.5046 267.12813 384.49008 267.09224 384.47461 267.05664 C 384.45633 267.01462 384.43706 266.97326 384.41797 266.93164 C 384.41525 266.92529 384.41287 266.91873 384.41016 266.91211 C 384.39396 266.87699 384.37807 266.84148 384.36133 266.80664 C 384.34133 266.76535 384.31964 266.72447 384.29883 266.68359 C 384.28335 266.65328 384.26788 266.62379 384.25195 266.59375 C 384.25169 266.59325 384.25222 266.5923 384.25195 266.5918 C 384.2011 266.49479 384.14901 266.40086 384.09375 266.30664 C 384.08948 266.29893 384.08266 266.29072 384.07812 266.2832 C 384.07784 266.28272 384.07841 266.28173 384.07812 266.28125 C 384.0614 266.25297 384.04442 266.22528 384.02734 266.19727 C 384.02705 266.19683 384.02764 266.19576 384.02734 266.19531 C 384.02101 266.18578 384.01406 266.1775 384.00781 266.16797 C 383.9879 266.13575 383.96772 266.10409 383.94727 266.07227 C 383.92663 266.03978 383.90594 266.00677 383.88477 265.97461 C 383.88115 265.96916 383.87685 265.96284 383.87305 265.95703 C 383.82219 265.88171 383.77054 265.80739 383.7168 265.73438 C 383.69245 265.70095 383.66755 265.66768 383.64258 265.63477 C 383.6167 265.6011 383.59088 265.56822 383.56445 265.53516 C 383.545 265.51065 383.52568 265.48517 383.50586 265.46094 C 383.49274 265.44469 383.47815 265.43012 383.46484 265.41406 C 383.41408 265.35317 383.36337 265.29324 383.31055 265.23438 C 383.30693 265.22981 383.30281 265.22524 383.29883 265.2207 C 383.29521 265.21617 383.29109 265.21352 383.28711 265.20898 C 383.25924 265.17822 383.23157 265.14732 383.20312 265.11719 C 383.18629 265.09931 383.16936 265.08206 383.15234 265.06445 C 383.13768 265.0493 383.12217 265.0346 383.10742 265.01953 L 383.10742 265.01758 L 383.10156 265.01172 C 383.07487 264.98477 383.04863 264.95814 383.02148 264.93164 C 382.97452 264.88554 382.92712 264.8414 382.87891 264.79688 C 382.8561 264.77573 382.83167 264.7532 382.80859 264.73242 C 382.78045 264.70701 382.7532 264.68307 382.72461 264.6582 L 382.71484 264.65039 C 382.6839 264.62389 382.65241 264.59627 382.62109 264.57031 C 382.58671 264.54182 382.55248 264.51401 382.51758 264.48633 C 382.51215 264.48179 382.5072 264.47915 382.50195 264.47461 C 382.4777 264.45537 382.45421 264.43489 382.42969 264.41602 C 382.42335 264.41148 382.4164 264.40706 382.41016 264.40234 C 382.37532 264.37603 382.34009 264.34981 382.30469 264.32422 C 382.27473 264.30253 382.24516 264.28091 382.21484 264.25977 C 382.20579 264.25341 382.19823 264.24659 382.18945 264.24023 L 382.17969 264.23438 C 382.14901 264.21311 382.11696 264.19247 382.08594 264.17188 C 382.04884 264.14707 382.01221 264.12357 381.97461 264.09961 C 381.93135 264.07202 381.88764 264.04408 381.84375 264.01758 C 381.80855 263.99652 381.7738 263.97541 381.73828 263.95508 C 381.73014 263.95054 381.7214 263.94613 381.71289 263.94141 C 381.68013 263.92253 381.6463 263.90496 381.61328 263.88672 C 381.58052 263.86893 381.54868 263.85114 381.51562 263.83398 C 381.50929 263.83035 381.50234 263.82739 381.49609 263.82422 C 381.45691 263.80389 381.41841 263.78309 381.37891 263.76367 C 381.34542 263.74725 381.31107 263.73072 381.27734 263.71484 L 381.26758 263.71289 C 381.25292 263.70654 381.23936 263.69794 381.22461 263.69141 C 381.19601 263.67816 381.16745 263.66505 381.13867 263.65234 C 381.09849 263.63465 381.05809 263.61835 381.01758 263.60156 C 380.97767 263.58496 380.93669 263.56843 380.89648 263.55273 C 380.88834 263.55001 380.88074 263.54764 380.87305 263.54492 C 380.84273 263.53331 380.81364 263.52093 380.7832 263.50977 C 380.77958 263.50795 380.77529 263.50767 380.77148 263.50586 C 380.72389 263.4888 380.67495 263.47282 380.62695 263.45703 C 380.59809 263.44732 380.56997 263.43708 380.54102 263.42773 C 380.5117 263.41848 380.48253 263.40919 380.45312 263.40039 C 380.43521 263.39495 380.41635 263.38826 380.39844 263.38281 C 380.39391 263.38191 380.39124 263.38177 380.38672 263.38086 C 380.34799 263.36961 380.30844 263.35809 380.26953 263.34766 C 380.22709 263.33631 380.18529 263.3248 380.14258 263.31445 C 380.10005 263.30393 380.05637 263.29478 380.01367 263.28516 C 379.97539 263.27699 379.93686 263.26766 379.89844 263.25977 C 379.88278 263.25704 379.86731 263.25468 379.85156 263.25195 C 379.81998 263.2456 379.78945 263.24 379.75781 263.23438 C 379.72125 263.22802 379.68311 263.22056 379.64648 263.21484 C 379.62504 263.21121 379.60543 263.20825 379.58398 263.20508 C 379.55566 263.20054 379.52646 263.19708 379.49805 263.19336 C 379.45479 263.18791 379.4106 263.18254 379.36719 263.17773 C 379.33063 263.1741 379.29444 263.17105 379.25781 263.16797 C 379.21429 263.16434 379.17056 263.16129 379.12695 263.1582 C 379.10035 263.15639 379.07348 263.15325 379.04688 263.15234 C 379.02995 263.15144 379.01302 263.14934 378.99609 263.14844 C 378.95257 263.14662 378.90885 263.14544 378.86523 263.14453 C 378.8284 263.14362 378.79269 263.14453 378.75586 263.14453 C 378.73568 263.14443 378.71549 263.14443 378.69531 263.14453 L 378.69531 263.14258 z M 378.72461 290.52539 L 386.55664 314.66406 L 370.89258 314.66406 L 378.72461 290.52539 z M 310.47266 328.13477 L 353.125 328.13477 L 343.2793 358.48047 L 310.47266 328.13477 z M 366.52344 328.13477 L 390.92773 328.13477 L 403.69531 367.48828 L 403.86523 368.01367 L 401.90039 369.83008 C 401.89926 369.83152 401.89761 369.83254 401.89648 369.83398 L 378.72461 391.26758 L 353.58398 368.01367 L 366.52344 328.13477 z M 404.32422 328.13477 L 426.45117 328.13477 L 446.97852 328.13477 L 414.17188 358.48047 L 412.80664 354.27734 L 404.32422 328.13477 z M 377.40039 343.15625 L 370.80078 363.50195 L 378.72461 370.83203 L 386.65039 363.50195 L 380.04883 343.15625 L 377.40039 343.15625 z M 349.12891 381.74414 L 369.07617 400.19336 L 358.18945 410.26367 L 332.02539 434.46484 L 335.74805 422.98828 L 349.12891 381.74414 z M 408.32031 381.74414 L 425.42578 434.46484 L 388.375 400.19336 L 408.32031 381.74414 z "
       style="color:#000000;font-style:normal;font-variant:normal;font-weight:normal;font-stretch:normal;font-size:medium;line-height:normal;font-family:sans-serif;font-variant-ligatures:normal;font-variant-position:normal;font-variant-caps:normal;font-variant-numeric:normal;font-variant-alternates:normal;font-variant-east-asian:normal;font-feature-settings:normal;font-variation-settings:normal;text-indent:0;text-align:start;text-decoration:none;text-decoration-line:none;text-decoration-style:solid;text-decoration-color:#000000;letter-spacing:normal;word-spacing:normal;text-transform:none;writing-mode:lr-tb;direction:ltr;text-orientation:mixed;dominant-baseline:auto;baseline-shift:baseline;text-anchor:start;white-space:normal;shape-padding:0;shape-margin:0;inline-size:0;clip-rule:nonzero;display:inline;overflow:visible;visibility:visible;isolation:auto;mix-blend-mode:normal;color-interpolation:sRGB;color-interpolation-filters:linearRGB;solid-color:#000000;solid-opacity:1;vector-effect:none;fill:#ffffff;fill-opacity:1;fill-rule:evenodd;stroke:none;stroke-width:15.0001;stroke-linecap:round;stroke-linejoin:round;stroke-miterlimit:4;stroke-dasharray:none;stroke-dashoffset:0;stroke-opacity:1;paint-order:normal;color-rendering:auto;image-rendering:auto;shape-rendering:auto;text-rendering:auto;enable-background:accumulate;stop-color:#000000"
       id="path840" />
  </g>
</svg>
