<?xml version="1.0" encoding="UTF-8" standalone="no"?>
<svg
   xmlns:dc="http://purl.org/dc/elements/1.1/"
   xmlns:cc="http://creativecommons.org/ns#"
   xmlns:rdf="http://www.w3.org/1999/02/22-rdf-syntax-ns#"
   xmlns:svg="http://www.w3.org/2000/svg"
   xmlns="http://www.w3.org/2000/svg"
   xmlns:sodipodi="http://sodipodi.sourceforge.net/DTD/sodipodi-0.dtd"
   xmlns:inkscape="http://www.inkscape.org/namespaces/inkscape"
   viewBox="0 0 512 512"
   width="512"
   height="512"
   version="1.1"
   id="svg5"
   sodipodi:docname="profan-skill_bw.svg"
   inkscape:version="1.0 (4035a4fb49, 2020-05-01)">
  <title
     id="title856">Profan Skill</title>
  <metadata
     id="metadata11">
    <rdf:RDF>
      <cc:Work
         rdf:about="">
        <dc:format>image/svg+xml</dc:format>
        <dc:type
           rdf:resource="http://purl.org/dc/dcmitype/StillImage" />
        <dc:title>Profan Skill</dc:title>
        <cc:license
           rdf:resource="http://creativecommons.org/licenses/by-sa/4.0/" />
        <dc:date>2022.02.10</dc:date>
        <dc:creator>
          <cc:Agent>
            <dc:title>Streuner²</dc:title>
          </cc:Agent>
        </dc:creator>
        <dc:contributor>
          <cc:Agent>
            <dc:title>based upon Hand iconby Lorc under CC BY 3.0 (Game-icons.net)</dc:title>
          </cc:Agent>
        </dc:contributor>
      </cc:Work>
      <cc:License
         rdf:about="http://creativecommons.org/licenses/by-sa/4.0/">
        <cc:permits
           rdf:resource="http://creativecommons.org/ns#Reproduction" />
        <cc:permits
           rdf:resource="http://creativecommons.org/ns#Distribution" />
        <cc:requires
           rdf:resource="http://creativecommons.org/ns#Notice" />
        <cc:requires
           rdf:resource="http://creativecommons.org/ns#Attribution" />
        <cc:permits
           rdf:resource="http://creativecommons.org/ns#DerivativeWorks" />
        <cc:requires
           rdf:resource="http://creativecommons.org/ns#ShareAlike" />
      </cc:License>
    </rdf:RDF>
  </metadata>
  <defs
     id="defs9" />
  <sodipodi:namedview
     guideopacity="0.49803922"
     guidecolor="#00ff00"
     inkscape:guide-bbox="true"
     showguides="true"
     inkscape:showpageshadow="false"
     borderlayer="false"
     inkscape:document-rotation="0"
     pagecolor="#323232"
     bordercolor="#666666"
     borderopacity="1"
     objecttolerance="10"
     gridtolerance="10"
     guidetolerance="10"
     inkscape:pageopacity="0.61960784"
     inkscape:pageshadow="2"
     inkscape:window-width="3840"
     inkscape:window-height="2066"
     id="namedview7"
     showgrid="false"
     inkscape:zoom="2.4199219"
     inkscape:cx="220.83052"
     inkscape:cy="318.62832"
     inkscape:window-x="-11"
     inkscape:window-y="-11"
     inkscape:window-maximized="1"
     inkscape:current-layer="g987">
    <sodipodi:guide
       inkscape:color="rgb(0,255,0)"
       inkscape:locked="false"
       inkscape:label=""
       id="guide869"
       orientation="-1,0"
       position="256,256" />
    <sodipodi:guide
       inkscape:color="rgb(0,255,0)"
       inkscape:locked="false"
       inkscape:label=""
       id="guide905"
       orientation="0,1"
       position="256,256" />
  </sodipodi:namedview>
  <filter
     id="shadow">
    <feDropShadow
       dx="6"
       dy="12"
       stdDeviation="6" />
  </filter>
  <g
     style="stroke-width:1.54493;stroke-miterlimit:4;stroke-dasharray:none"
     transform="matrix(0.90491517,0,0,0.90746524,23.072155,38.656116)"
     id="g987">
    <path
       transform="matrix(1.105076,0,0,1.1019706,-25.496484,-42.597903)"
       d="M 256 63.509766 C 249.84586 63.509766 243.76229 63.812281 237.75586 64.376953 C 241.84331 68.589829 245.67744 73.135886 249.21875 77.974609 C 268.79954 104.72915 280.37642 140.54184 280.58398 179.81445 C 280.60941 180.16675 280.62243 180.51983 280.62305 180.87305 C 280.62241 181.22562 280.60941 181.57804 280.58398 181.92969 C 280.37708 221.20363 268.80011 257.01616 249.21875 283.77148 C 229.46001 310.76917 200.72245 328.8457 168.33789 328.8457 C 135.95334 328.8457 107.21968 310.76917 87.460938 283.77148 C 77.612041 270.31429 69.780209 254.56709 64.400391 237.24219 C 63.803313 243.41483 63.490234 249.67073 63.490234 256 C 63.490234 362.30897 149.67938 448.49023 256 448.49023 C 268.86175 448.49023 281.42448 447.21793 293.58008 444.8125 C 291.10537 442.21106 288.86519 439.4658 286.9043 436.59961 C 282.8974 430.74324 275.26126 423.32318 270.94922 411.50781 C 264.96665 395.11326 258.02496 374.37392 234.70312 352.6875 A 15.301952 14.706942 0 0 1 231.49219 335.87109 C 235.4858 327.69369 240.10491 321.31831 247.82031 317.3457 C 255.35819 313.4639 265.81202 314.04205 272.98828 316.99219 A 15.301952 14.706942 0 0 0 272.99023 316.99414 C 279.90914 319.84024 285.92777 324.08063 291.54492 329.24023 C 291.90035 303.73977 294.9747 278.27739 296.8418 255.11328 A 15.301952 14.706942 0 0 1 301.32031 245.80859 C 308.52422 238.94034 317.31207 236.99561 326.13086 237.11719 A 15.301952 14.706942 0 0 0 326.13281 237.11719 C 334.80846 237.23784 342.30823 239.4216 348.98047 244.26758 A 15.301952 14.706942 0 0 1 352.43164 247.76562 C 353.83296 244.45489 355.27107 241.14512 356.80273 237.83984 A 15.301952 14.706942 0 0 1 368.51562 229.27734 C 371.00352 228.91956 373.60459 228.64595 376.4043 228.61328 A 15.301952 14.706942 0 0 1 376.47852 228.61328 A 15.301952 14.706942 0 0 1 377.46094 228.63672 C 378.06242 228.64389 378.66123 228.64175 379.27148 228.67578 A 15.301952 14.706942 0 0 1 379.2793 228.67578 C 391.86434 229.38488 402.94043 236.41684 410.61914 245.23633 A 15.301952 14.706942 0 0 1 412.42578 261.52344 C 410.53847 264.9697 408.76407 268.51889 407.05469 272.12891 C 409.82809 269.09451 412.70516 266.10953 415.70312 263.17969 A 15.301952 14.706942 0 0 1 426.45117 258.78516 C 435.36522 258.6951 441.98834 261.92329 448.18945 267.00977 C 448.39503 263.36527 448.50977 259.69592 448.50977 256 C 448.50977 149.69102 362.32062 63.509766 256 63.509766 z M 385.51367 244.75586 C 386.40235 245.07182 387.26949 245.43987 388.11914 245.85938 C 387.26957 245.43984 386.40228 245.07184 385.51367 244.75586 z M 393.03906 248.99805 C 393.83441 249.62495 394.62032 250.30441 395.40039 251.03516 C 394.62037 250.3044 393.83434 249.62497 393.03906 248.99805 z M 312.0957 256.24805 C 311.4373 264.4164 310.64655 272.78661 309.87891 281.25586 C 310.64652 272.78663 311.43729 264.4164 312.0957 256.24805 z M 309.87891 281.25586 C 308.91936 291.84242 307.99677 302.58443 307.41406 313.28516 C 307.99674 302.58446 308.91938 291.8424 309.87891 281.25586 z M 359.79102 270.6582 C 358.48788 274.25506 357.24237 277.85696 356.04492 281.45898 C 357.24237 277.85688 358.48788 274.25513 359.79102 270.6582 z M 443.17383 283.2832 C 443.94709 284.34016 444.62567 285.44024 445.19336 286.55664 C 444.62572 285.44014 443.94704 284.34027 443.17383 283.2832 z M 307.10742 319.69922 C 306.93369 323.96966 306.82467 328.22724 306.79883 332.45898 C 306.82466 328.22725 306.9337 323.96965 307.10742 319.69922 z M 306.79883 332.45898 C 306.76007 338.8066 306.90899 345.09579 307.3125 351.28516 C 306.90898 345.0958 306.76008 338.80659 306.79883 332.45898 z M 337.56641 328.45117 C 337.81335 328.52507 338.00835 328.57121 338.17578 328.60156 C 338.00833 328.57124 337.81337 328.52505 337.56641 328.45117 z M 339.19531 328.75586 C 339.69502 328.86053 340.42315 329.09437 341.99805 329.79688 C 340.4246 329.09501 339.69509 328.86061 339.19531 328.75586 z M 252.64844 331.92578 C 252.24304 332.26506 251.83641 332.63926 251.42773 333.05078 C 251.8361 332.63964 252.24336 332.26479 252.64844 331.92578 z M 366.20703 342.33203 C 367.08415 342.79698 367.77523 343.20855 368.37109 343.5957 C 367.77524 343.20852 367.08415 342.79698 366.20703 342.33203 z M 369.96289 344.71484 C 370.7061 345.26723 371.43882 345.83032 372.46484 346.50586 C 371.43882 345.8303 370.7061 345.26729 369.96289 344.71484 z M 307.80273 357.43945 C 308.46617 358.30413 309.18083 359.1469 309.9375 359.9707 C 309.18083 359.14689 308.46617 358.30413 307.80273 357.43945 z M 262.38672 361.02344 C 263.80688 362.92251 265.14778 364.81206 266.40039 366.68164 C 265.1475 364.81173 263.80722 362.92285 262.38672 361.02344 z M 311.10352 361.19141 C 311.5021 361.59475 311.90939 361.99474 312.32617 362.39062 C 311.90974 361.99505 311.50177 361.59442 311.10352 361.19141 z M 270.46875 373.14453 C 272.14298 375.97963 273.64759 378.7615 275.00977 381.47266 C 273.64733 378.76108 272.14335 375.98009 270.46875 373.14453 z M 334.74805 381.00781 C 335.60859 381.86171 336.43813 382.73721 337.22852 383.63867 C 336.43813 382.73718 335.60859 381.86175 334.74805 381.00781 z M 319.75977 382.64258 C 321.99142 384.14484 324.24642 385.63602 326.34375 387.21484 C 324.24638 385.63612 321.99146 384.14475 319.75977 382.64258 z M 338.38477 385.01172 C 339.50786 386.40391 340.53443 387.86064 341.43555 389.39453 C 340.53398 387.85982 339.50853 386.4046 338.38477 385.01172 z M 278.70312 389.38086 C 279.81212 391.93438 280.80961 394.40112 281.72461 396.76367 C 280.8094 394.40066 279.81243 391.93492 278.70312 389.38086 z M 342.29492 390.95703 C 343.10965 392.54493 343.79127 394.21696 344.31055 395.98633 C 343.79102 394.21609 343.11017 392.54565 342.29492 390.95703 z M 344.31055 395.98633 C 344.6569 397.16648 344.9305 398.39018 345.125 399.66211 C 344.9305 398.39018 344.6569 397.16648 344.31055 395.98633 z M 286.60352 409.49023 C 287.51821 411.37065 288.62551 413.21466 289.8418 415.03711 C 288.62569 413.21467 287.51813 411.37065 286.60352 409.49023 z M 306.25391 436.34961 C 307.49655 437.56848 308.8122 438.7395 310.20117 439.85547 C 308.81213 438.7395 307.49661 437.56847 306.25391 436.34961 z "
       style="color:#000000;font-style:normal;font-variant:normal;font-weight:normal;font-stretch:normal;font-size:medium;line-height:normal;font-family:sans-serif;font-variant-ligatures:normal;font-variant-position:normal;font-variant-caps:normal;font-variant-numeric:normal;font-variant-alternates:normal;font-variant-east-asian:normal;font-feature-settings:normal;font-variation-settings:normal;text-indent:0;text-align:start;text-decoration:none;text-decoration-line:none;text-decoration-style:solid;text-decoration-color:#000000;letter-spacing:normal;word-spacing:normal;text-transform:none;writing-mode:lr-tb;direction:ltr;text-orientation:mixed;dominant-baseline:auto;baseline-shift:baseline;text-anchor:start;white-space:normal;shape-padding:0;shape-margin:0;inline-size:0;clip-rule:nonzero;display:inline;overflow:visible;visibility:visible;isolation:auto;mix-blend-mode:normal;color-interpolation:sRGB;color-interpolation-filters:linearRGB;solid-color:#000000;solid-opacity:1;vector-effect:none;fill:#ffffff;fill-opacity:1;fill-rule:evenodd;stroke:none;stroke-width:15.0001;stroke-linecap:round;stroke-linejoin:round;stroke-miterlimit:4;stroke-dasharray:none;stroke-dashoffset:0;stroke-opacity:1;paint-order:normal;color-rendering:auto;image-rendering:auto;shape-rendering:auto;text-rendering:auto;enable-background:accumulate;stop-color:#000000"
       id="path969" />
    <path
       transform="matrix(1.105076,0,0,1.1019706,-25.496484,-42.597903)"
       d="M 256 56 C 247.4066 56 238.93855 56.545287 230.62891 57.599609 C 235.41693 61.781839 239.91249 66.412588 244.08203 71.412109 C 248.02337 71.162193 251.99492 71.021484 256 71.021484 C 358.28482 71.021484 441.02148 153.76194 441.02148 256 C 441.02148 258.05088 440.97623 260.09032 440.91016 262.125 C 443.88886 263.64761 446.6539 265.62717 449.35547 267.96094 C 451.5012 269.81409 453.45604 271.81939 455.17188 273.99609 C 455.69027 268.19788 455.97646 262.33359 455.98828 256.4043 C 455.9883 256.39704 455.99023 256.38989 455.99023 256.38281 A 7.4894856 7.510591 0 0 0 456 256 A 7.4894856 7.510591 0 0 0 455.99023 255.65039 C 455.80027 145.43165 366.23935 56 256 56 z M 59.605469 218.12695 C 57.249528 230.39297 56 243.05142 56 256 C 56 366.37988 145.64359 456 256 456 C 271.23845 456 286.07898 454.28325 300.3457 451.04688 C 295.57889 447.21877 291.47305 442.87463 288.06641 438.20898 C 277.65164 440.0244 266.93925 440.97852 256 440.97852 C 153.71519 440.97851 70.980469 358.23806 70.980469 256 C 70.980469 255.64878 70.99219 255.29998 70.994141 254.94922 C 65.988469 243.51124 62.140802 231.15319 59.605469 218.12695 z M 443.17383 283.2832 C 443.94709 284.34016 444.62567 285.44024 445.19336 286.55664 C 444.62572 285.44014 443.94704 284.34027 443.17383 283.2832 z M 448.03906 311.92383 C 447.94837 312.02397 447.85618 312.12235 447.76562 312.22266 A 15.301952 14.706942 0 0 1 447.94141 312.25391 C 447.9737 312.14371 448.00695 312.03411 448.03906 311.92383 z M 441.86719 328.63281 C 439.23385 330.34842 436.75007 332.24799 434.34961 334.26367 C 436.74972 332.24841 439.23424 330.34814 441.86719 328.63281 z M 306.25391 436.34961 C 307.49655 437.56848 308.8122 438.7395 310.20117 439.85547 C 308.81213 438.7395 307.49661 437.56847 306.25391 436.34961 z M 314.58594 443.03125 C 316.07704 444.00216 317.63743 444.91337 319.26367 445.75977 C 319.26504 445.75931 319.26621 445.75827 319.26758 445.75781 C 317.64069 444.91119 316.07761 444.00247 314.58594 443.03125 z "
       style="color:#000000;font-style:normal;font-variant:normal;font-weight:normal;font-stretch:normal;font-size:medium;line-height:normal;font-family:sans-serif;font-variant-ligatures:normal;font-variant-position:normal;font-variant-caps:normal;font-variant-numeric:normal;font-variant-alternates:normal;font-variant-east-asian:normal;font-feature-settings:normal;font-variation-settings:normal;text-indent:0;text-align:start;text-decoration:none;text-decoration-line:none;text-decoration-style:solid;text-decoration-color:#000000;letter-spacing:normal;word-spacing:normal;text-transform:none;writing-mode:lr-tb;direction:ltr;text-orientation:mixed;dominant-baseline:auto;baseline-shift:baseline;text-anchor:start;white-space:normal;shape-padding:0;shape-margin:0;inline-size:0;clip-rule:nonzero;display:inline;overflow:visible;visibility:visible;isolation:auto;mix-blend-mode:normal;color-interpolation:sRGB;color-interpolation-filters:linearRGB;solid-color:#000000;solid-opacity:1;vector-effect:none;fill:#000100;fill-opacity:1;fill-rule:evenodd;stroke:none;stroke-width:15.0001;stroke-linecap:round;stroke-linejoin:round;stroke-miterlimit:4;stroke-dasharray:none;stroke-dashoffset:0;stroke-opacity:1;paint-order:normal;color-rendering:auto;image-rendering:auto;shape-rendering:auto;text-rendering:auto;enable-background:accumulate;stop-color:#000000"
       id="path971" />
    <g
       style="stroke:none;stroke-width:1.83054"
       transform="matrix(0.91974051,0,0,0.77444937,-5.3861994,14.59346)"
       id="g889" />
    <g
       transform="translate(-694.11969,-81.623303)"
       id="g985">
      <path
         d="m 854.64937,75.280661 c -35.78739,0 -67.54027,19.919813 -89.37518,49.670459 -21.83491,29.75065 -34.70414,69.65083 -34.70413,113.39106 0,43.74022 12.86922,83.6404 34.70413,113.39105 21.83491,29.75066 53.58779,49.67046 89.37518,49.67046 35.7874,0 67.54459,-19.9198 89.3795,-49.67046 21.63889,-29.48358 34.43232,-68.94793 34.66096,-112.22666 a 16.552852,16.552851 0 0 0 0.0432,-1.16439 16.552852,16.552851 0 0 0 -0.0432,-1.16655 c -0.22937,-43.27726 -13.0227,-82.74179 -34.66096,-112.22451 -21.83491,-29.750646 -53.5921,-49.670459 -89.3795,-49.670459 z m 0.002,16.553233 c 59.38586,0 107.52692,65.593446 107.52692,146.508286 0,80.91483 -48.14106,146.51043 -107.52692,146.51043 -59.38586,0 -107.52908,-65.5956 -107.52908,-146.51043 0,-80.91484 48.14322,-146.508286 107.52908,-146.508286 z"
         style="color:#000000;font-style:normal;font-variant:normal;font-weight:normal;font-stretch:normal;font-size:medium;line-height:normal;font-family:sans-serif;font-variant-ligatures:normal;font-variant-position:normal;font-variant-caps:normal;font-variant-numeric:normal;font-variant-alternates:normal;font-variant-east-asian:normal;font-feature-settings:normal;font-variation-settings:normal;text-indent:0;text-align:start;text-decoration:none;text-decoration-line:none;text-decoration-style:solid;text-decoration-color:#000000;letter-spacing:normal;word-spacing:normal;text-transform:none;writing-mode:lr-tb;direction:ltr;text-orientation:mixed;dominant-baseline:auto;baseline-shift:baseline;text-anchor:start;white-space:normal;shape-padding:0;shape-margin:0;inline-size:0;clip-rule:nonzero;display:inline;overflow:visible;visibility:visible;isolation:auto;mix-blend-mode:normal;color-interpolation:sRGB;color-interpolation-filters:linearRGB;solid-color:#000000;solid-opacity:1;vector-effect:none;fill:#000000;fill-opacity:1;fill-rule:evenodd;stroke:none;stroke-width:33.1057;stroke-linecap:round;stroke-linejoin:round;stroke-miterlimit:4;stroke-dasharray:none;stroke-dashoffset:0;stroke-opacity:1;paint-order:stroke fill markers;color-rendering:auto;image-rendering:auto;shape-rendering:auto;text-rendering:auto;enable-background:accumulate;stop-color:#000000"
         id="path945" />
      <path
         d="m 854.65153,91.833894 c -59.38586,0 -107.52908,65.593446 -107.52908,146.508286 0,80.91483 48.14322,146.51043 107.52908,146.51043 59.38588,0 107.52692,-65.5956 107.52692,-146.51043 0,-80.91484 -48.14104,-146.508286 -107.52692,-146.508286 z M 815.9048,206.51847 c 6.69286,0 12.82666,1.15662 17.90784,3.4781 4.38853,2.00501 8.38184,5.41172 9.44279,9.98015 0.30023,0.69839 0.45495,1.43537 0.45541,2.17811 -2.6e-4,0.74325 -0.15497,1.47925 -0.45541,2.17812 -1.06149,4.56769 -5.05473,7.97536 -9.44279,9.98015 -5.08118,2.32149 -11.21498,3.47594 -17.90784,3.47594 -6.69286,0 -12.83096,-1.15445 -17.91216,-3.47594 -5.0812,-2.32148 -9.89604,-6.41823 -9.89604,-12.15827 0,-5.74002 4.81484,-9.8368 9.89604,-12.15826 5.0812,-2.32148 11.2193,-3.4781 17.91216,-3.4781 z m 75.21208,0 c 6.69285,0 12.82665,1.15662 17.90784,3.4781 4.38718,2.00438 8.3824,5.40958 9.44494,9.97584 0.30085,0.69984 0.45342,1.43816 0.45326,2.18242 -4.3e-4,0.74436 -0.15396,1.48269 -0.45541,2.18242 -1.06264,4.56613 -5.0557,7.9715 -9.44279,9.97585 -5.08119,2.32149 -11.21499,3.47594 -17.90784,3.47594 -6.69286,0 -12.83097,-1.15445 -17.91216,-3.47594 -5.0812,-2.32148 -9.89604,-6.41823 -9.89604,-12.15827 0,-5.74002 4.81484,-9.8368 9.89604,-12.15826 5.08119,-2.32148 11.2193,-3.4781 17.91216,-3.4781 z m -81.69145,93.7665 c 46.70804,2.87852 47.2613,3.25035 90.45219,0 5.09451,7.71456 -3.60477,12.5631 -18.37189,20.47901 -14.64126,7.84846 -35.5796,9.00438 -53.71057,0 -15.00736,-7.4531 -23.46423,-12.76445 -18.36973,-20.47901 z"
         style="color:#000000;font-style:normal;font-variant:normal;font-weight:normal;font-stretch:normal;font-size:medium;line-height:normal;font-family:sans-serif;font-variant-ligatures:normal;font-variant-position:normal;font-variant-caps:normal;font-variant-numeric:normal;font-variant-alternates:normal;font-variant-east-asian:normal;font-feature-settings:normal;font-variation-settings:normal;text-indent:0;text-align:start;text-decoration:none;text-decoration-line:none;text-decoration-style:solid;text-decoration-color:#000000;letter-spacing:normal;word-spacing:normal;text-transform:none;writing-mode:lr-tb;direction:ltr;text-orientation:mixed;dominant-baseline:auto;baseline-shift:baseline;text-anchor:start;white-space:normal;shape-padding:0;shape-margin:0;inline-size:0;clip-rule:nonzero;display:inline;overflow:visible;visibility:visible;isolation:auto;mix-blend-mode:normal;color-interpolation:sRGB;color-interpolation-filters:linearRGB;solid-color:#000000;solid-opacity:1;vector-effect:none;fill:#ffffff;fill-opacity:1;fill-rule:evenodd;stroke:none;stroke-width:33.1057;stroke-linecap:round;stroke-linejoin:round;stroke-miterlimit:4;stroke-dasharray:none;stroke-dashoffset:0;stroke-opacity:1;paint-order:stroke fill markers;color-rendering:auto;image-rendering:auto;shape-rendering:auto;text-rendering:auto;enable-background:accumulate;stop-color:#000000"
         id="path947" />
      <g
         style="stroke:none;stroke-width:1.83054"
         transform="matrix(0.91974051,0,0,0.77444937,688.73349,96.21676)"
         id="g953">
        <path
           id="path949"
           d="m 138.26758,142.42578 c -7.2769,0 -13.95001,1.49265 -19.47461,4.49024 -5.5246,2.99758 -10.75977,8.28745 -10.75977,15.69921 0,7.41176 5.23517,12.70164 10.75977,15.69922 5.5246,2.99759 12.19771,4.49024 19.47461,4.49024 7.27689,0 13.94806,-1.49265 19.47265,-4.49024 4.77098,-2.58867 9.1115,-6.98678 10.26563,-12.88476 a 8.2763996,8.2763996 0 0 0 0.49414,-2.81446 8.2763996,8.2763996 0 0 0 -0.49414,-2.8125 c -1.15353,-5.89894 -5.49415,-10.29776 -10.26563,-12.88671 -5.52459,-2.99759 -12.19576,-4.49024 -19.47265,-4.49024 z m 0,16.55274 c 4.84995,0 9.15563,1.17191 11.57812,2.48632 1.00941,0.5477 1.35429,0.88905 1.63282,1.15039 -0.27853,0.26135 -0.62341,0.6027 -1.63282,1.15039 -2.42249,1.31442 -6.72817,2.48633 -11.57812,2.48633 -4.84995,0 -9.15759,-1.17191 -11.58008,-2.48633 -1.00941,-0.54769 -1.35428,-0.88904 -1.63281,-1.15039 0.27853,-0.26134 0.6234,-0.60269 1.63281,-1.15039 2.42249,-1.31441 6.73013,-2.48633 11.58008,-2.48632 z"
           style="color:#000000;font-style:normal;font-variant:normal;font-weight:normal;font-stretch:normal;font-size:medium;line-height:normal;font-family:sans-serif;font-variant-ligatures:normal;font-variant-position:normal;font-variant-caps:normal;font-variant-numeric:normal;font-variant-alternates:normal;font-variant-east-asian:normal;font-feature-settings:normal;font-variation-settings:normal;text-indent:0;text-align:start;text-decoration:none;text-decoration-line:none;text-decoration-style:solid;text-decoration-color:#000000;letter-spacing:normal;word-spacing:normal;text-transform:none;writing-mode:lr-tb;direction:ltr;text-orientation:mixed;dominant-baseline:auto;baseline-shift:baseline;text-anchor:start;white-space:normal;shape-padding:0;shape-margin:0;inline-size:0;clip-rule:nonzero;display:inline;overflow:visible;visibility:visible;isolation:auto;mix-blend-mode:normal;color-interpolation:sRGB;color-interpolation-filters:linearRGB;solid-color:#000000;solid-opacity:1;vector-effect:none;fill-opacity:1;fill-rule:evenodd;stroke:none;stroke-width:19.6129;stroke-linecap:round;stroke-linejoin:round;stroke-miterlimit:4;stroke-dasharray:none;stroke-dashoffset:0;stroke-opacity:1;paint-order:stroke fill markers;color-rendering:auto;image-rendering:auto;shape-rendering:auto;text-rendering:auto;enable-background:accumulate;stop-color:#000000;stop-opacity:1" />
        <path
           id="path951"
           d="m 160.2245,162.61516 c 0,6.57989 -9.83075,11.91394 -21.95759,11.91394 -12.12685,0 -21.9576,-5.33405 -21.9576,-11.91394 0,-6.57989 9.83075,-11.91394 21.9576,-11.91394 12.12684,0 21.95759,5.33405 21.95759,11.91394"
           style="color:#000000;font-style:normal;font-variant:normal;font-weight:normal;font-stretch:normal;font-size:medium;line-height:normal;font-family:sans-serif;font-variant-ligatures:normal;font-variant-position:normal;font-variant-caps:normal;font-variant-numeric:normal;font-variant-alternates:normal;font-variant-east-asian:normal;font-feature-settings:normal;font-variation-settings:normal;text-indent:0;text-align:start;text-decoration:none;text-decoration-line:none;text-decoration-style:solid;text-decoration-color:#000000;letter-spacing:normal;word-spacing:normal;text-transform:none;writing-mode:lr-tb;direction:ltr;text-orientation:mixed;dominant-baseline:auto;baseline-shift:baseline;text-anchor:start;white-space:normal;shape-padding:0;shape-margin:0;inline-size:0;clip-rule:nonzero;display:inline;overflow:visible;visibility:visible;isolation:auto;mix-blend-mode:normal;color-interpolation:sRGB;color-interpolation-filters:linearRGB;solid-color:#000000;solid-opacity:1;vector-effect:none;fill:#000000;fill-opacity:1;fill-rule:evenodd;stroke:none;stroke-width:19.6129;stroke-linecap:round;stroke-linejoin:round;stroke-miterlimit:4;stroke-dasharray:none;stroke-dashoffset:0;stroke-opacity:1;paint-order:stroke fill markers;color-rendering:auto;image-rendering:auto;shape-rendering:auto;text-rendering:auto;enable-background:accumulate;stop-color:#000000;stop-opacity:1" />
      </g>
      <path
         sodipodi:nodetypes="sssssscccss"
         style="color:#000000;font-style:normal;font-variant:normal;font-weight:normal;font-stretch:normal;font-size:medium;line-height:normal;font-family:sans-serif;font-variant-ligatures:normal;font-variant-position:normal;font-variant-caps:normal;font-variant-numeric:normal;font-variant-alternates:normal;font-variant-east-asian:normal;font-feature-settings:normal;font-variation-settings:normal;text-indent:0;text-align:start;text-decoration:none;text-decoration-line:none;text-decoration-style:solid;text-decoration-color:#000000;letter-spacing:normal;word-spacing:normal;text-transform:none;writing-mode:lr-tb;direction:ltr;text-orientation:mixed;dominant-baseline:auto;baseline-shift:baseline;text-anchor:start;white-space:normal;shape-padding:0;shape-margin:0;inline-size:0;clip-rule:nonzero;display:inline;overflow:visible;visibility:visible;isolation:auto;mix-blend-mode:normal;color-interpolation:sRGB;color-interpolation-filters:linearRGB;solid-color:#000000;solid-opacity:1;vector-effect:none;fill-opacity:1;fill-rule:evenodd;stroke:none;stroke-width:16.5528;stroke-linecap:round;stroke-linejoin:round;stroke-miterlimit:4;stroke-dasharray:none;stroke-dashoffset:0;stroke-opacity:1;paint-order:stroke fill markers;color-rendering:auto;image-rendering:auto;shape-rendering:auto;text-rendering:auto;enable-background:accumulate;stop-color:#000000"
         d="m 891.11592,206.51832 c -6.69286,0 -12.83039,1.15598 -17.91158,3.47746 -5.0812,2.32147 -9.8962,6.41821 -9.8962,12.15824 0,5.74004 4.815,9.83678 9.8962,12.15825 5.08119,2.32149 11.21872,3.47747 17.91158,3.47747 6.69285,0 12.8286,-1.15598 17.90979,-3.47747 4.38709,-2.00435 8.37907,-5.40944 9.44171,-9.97557 0.30145,-0.69973 0.45585,-1.43833 0.45628,-2.18268 1.5e-4,-0.74426 -0.15364,-1.48285 -0.45448,-2.18267 -1.06255,-4.56626 -5.05634,-7.97118 -9.44351,-9.97557 -5.08119,-2.32148 -11.21694,-3.47746 -17.90979,-3.47746 z"
         id="path955" />
      <path
         d="m 899.87685,300.28478 c 5.0945,7.71455 -3.60321,12.56327 -18.37032,20.47919 -14.64127,7.84846 -35.58026,9.00438 -53.71123,0 -15.00736,-7.4531 -23.46482,-12.76464 -18.37032,-20.47919 46.70803,2.87851 47.26098,3.25035 90.45187,0 z"
         style="fill:#000000;fill-opacity:1;fill-rule:evenodd;stroke:none;stroke-width:33.1057;stroke-linecap:round;stroke-linejoin:round;stroke-miterlimit:4;stroke-dasharray:none;stroke-opacity:1;paint-order:stroke fill markers;stop-color:#000000"
         id="path957" />
      <path
         sodipodi:nodetypes="sssssscccss"
         id="path959"
         d="m 815.90379,206.51832 c -6.69286,0 -12.83039,1.15598 -17.91159,3.47746 -5.0812,2.32147 -9.8962,6.41821 -9.8962,12.15824 0,5.74004 4.815,9.83678 9.8962,12.15825 5.0812,2.32149 11.21873,3.47747 17.91159,3.47747 6.69285,0 12.82859,-1.15598 17.90978,-3.47747 4.38806,-2.00479 8.38022,-5.4109 9.44172,-9.97859 0.30043,-0.69887 0.45421,-1.43641 0.45448,-2.17966 -4.7e-4,-0.74274 -0.15426,-1.47975 -0.45448,-2.17814 -1.06095,-4.56843 -5.0532,-7.97509 -9.44172,-9.9801 -5.08119,-2.32148 -11.21693,-3.47746 -17.90978,-3.47746 z"
         style="color:#000000;font-style:normal;font-variant:normal;font-weight:normal;font-stretch:normal;font-size:medium;line-height:normal;font-family:sans-serif;font-variant-ligatures:normal;font-variant-position:normal;font-variant-caps:normal;font-variant-numeric:normal;font-variant-alternates:normal;font-variant-east-asian:normal;font-feature-settings:normal;font-variation-settings:normal;text-indent:0;text-align:start;text-decoration:none;text-decoration-line:none;text-decoration-style:solid;text-decoration-color:#000000;letter-spacing:normal;word-spacing:normal;text-transform:none;writing-mode:lr-tb;direction:ltr;text-orientation:mixed;dominant-baseline:auto;baseline-shift:baseline;text-anchor:start;white-space:normal;shape-padding:0;shape-margin:0;inline-size:0;clip-rule:nonzero;display:inline;overflow:visible;visibility:visible;isolation:auto;mix-blend-mode:normal;color-interpolation:sRGB;color-interpolation-filters:linearRGB;solid-color:#000000;solid-opacity:1;vector-effect:none;fill-opacity:1;fill-rule:evenodd;stroke:none;stroke-width:16.5528;stroke-linecap:round;stroke-linejoin:round;stroke-miterlimit:4;stroke-dasharray:none;stroke-dashoffset:0;stroke-opacity:1;paint-order:stroke fill markers;color-rendering:auto;image-rendering:auto;shape-rendering:auto;text-rendering:auto;enable-background:accumulate;stop-color:#000000" />
    </g>
    <g
       transform="translate(-532.46389,77.900122)"
       id="g998">
      <path
         d="m 922.92174,131.42735 c -3.09389,0.036 -5.96828,0.3375 -8.71759,0.73178 a 16.909819,16.206618 0 0 0 -12.94363,9.43562 c -1.6926,3.64232 -3.28183,7.28959 -4.83039,10.93792 a 16.909819,16.206618 0 0 0 -3.8138,-3.85474 c -7.37334,-5.34013 -15.66115,-7.74656 -25.2484,-7.87952 a 16.909819,16.206618 0 0 0 -0.002,0 c -9.74543,-0.13398 -19.45667,2.00906 -27.41754,9.57767 a 16.909819,16.206618 0 0 0 -4.9491,10.25349 c -2.06328,25.52617 -5.46068,53.58496 -5.85345,81.68572 -6.20738,-5.68573 -12.85842,-10.35851 -20.50434,-13.49483 a 16.909819,16.206618 0 0 0 -0.002,-0.002 c -7.93031,-3.25096 -19.48259,-3.88807 -27.81252,0.38956 -8.52611,4.3777 -13.63056,11.40317 -18.04381,20.41443 a 16.909819,16.206618 0 0 0 3.54832,18.53119 c 25.77239,23.8978 33.44351,46.75194 40.0547,64.81826 4.76513,13.02019 13.20364,21.19687 17.63157,27.65042 10.71471,15.61744 28.58189,28.21279 51.51337,32.40268 a 16.909819,16.206618 0 0 0 0.002,0 c 10.6762,1.95009 22.23794,2.81254 33.64655,1.46569 10.63204,-1.25517 21.80858,-4.41871 30.51477,-12.66404 14.32822,-8.98552 22.65459,-22.72982 30.49319,-36.9483 10.02765,-18.18925 13.87998,-37.08184 22.39506,-46.13426 7.00812,-7.45035 20.7247,-19.67884 21.3375,-20.08298 v -0.002 c 4.8467,-3.19071 8.7211,-6.28131 5.7325,-4.61234 a 16.909819,16.206618 0 0 0 7.9471,-11.69768 c 1.054,-7.61327 -1.5815,-16.33116 -4.2066,-21.3636 v 0 c -3.9318,-7.53772 -10.3051,-13.94611 -19.2136,-16.83087 a 16.909819,16.206618 0 0 0 -2.398,-0.59188 c 3.4658,-3.82813 7.023,-7.55217 10.8047,-11.04339 a 16.909819,16.206618 0 0 0 4.9556,-14.28257 c -1.6728,-9.81452 -6.9287,-17.3563 -14.0034,-23.44915 -7.22736,-6.22587 -14.84359,-10.21689 -25.311,-10.11144 a 16.909819,16.206618 0 0 0 -11.87741,4.84264 c -3.31298,3.2286 -6.49236,6.51797 -9.55718,9.86178 1.889,-3.97813 3.84985,-7.88924 5.93547,-11.68692 a 16.909819,16.206618 0 0 0 -1.99648,-17.94792 c -8.48556,-9.71882 -20.72547,-17.46783 -34.6329,-18.24924 a 16.909819,16.206618 0 0 0 -0.009,0 c -0.67438,-0.0375 -1.33611,-0.0351 -2.00079,-0.043 a 16.909819,16.206618 0 0 0 -1.08565,-0.0258 16.909819,16.206618 0 0 0 -0.082,0 z m 0.20721,16.20457 c 0.67408,-0.008 1.33668,0.005 1.98136,0.0409 9.02537,0.50711 15.82911,4.65566 22.65406,12.4725 -16.32271,29.72191 -26.00371,63.41431 -36.11138,96.59676 3.87711,2.04946 4.46826,3.15375 8.16936,5.38933 16.92511,-29.5117 34.17816,-57.46871 58.58198,-81.25097 3.91937,-0.0395 9.33675,2.08844 13.83071,5.95969 4.46936,3.84868 7.78586,9.11249 8.62046,14.00923 -23.69389,21.8738 -40.41012,49.01461 -56.85961,79.17185 3.51331,3.26313 2.54463,1.61656 5.61818,5.34628 17.79234,-15.89517 30.05123,-34.94812 49.1543,-45.86091 3.73213,1.20854 7.17173,4.25523 9.50323,8.72537 2.3304,4.46704 3.2693,6.92371 2.5684,11.98608 -0.1,0.0574 -0.1752,0.0892 -0.2806,0.15066 -1.5686,0.91115 -3.6512,3.24824 -6.2138,4.93518 -5.1237,3.37389 -16.75405,14.54448 -24.32036,22.58825 -13.13325,13.96202 -16.95068,35.19695 -24.78867,49.41435 -7.83798,14.21738 -15.74942,25.97184 -26.30598,31.96144 -9.72622,10.5344 -31.71194,11.22174 -50.23347,7.83863 -18.52155,-3.38413 -32.19985,-13.21051 -40.55327,-25.38622 -5.45375,-7.9486 -12.70582,-15.64814 -15.80345,-24.11206 -6.49591,-17.75132 -15.67859,-44.60506 -44.25268,-71.10078 3.48976,-7.12565 7.2527,-11.23573 10.72269,-13.01703 3.93703,-2.02176 7.9306,-1.92334 13.17889,0.22814 9.66256,3.96355 21.80428,15.74603 33.25157,30.36446 2.70225,3.66872 5.4437,7.22144 8.12403,10.73991 l 4.05554,5.4087 c 8.37535,11.36761 28.7752,16.29291 31.04358,31.07901 l 9.89172,-1.39253 C 884.91679,297.49211 858.84211,288.63552 847.1118,273.39 c -3.41917,-35.95436 1.83369,-75.50483 4.74405,-111.50995 3.33464,-3.17032 9.07668,-4.96218 15.26819,-4.87707 5.91489,0.082 11.71606,2.00922 15.29839,4.60373 -1.84787,25.95886 -7.1055,51.59239 -4.99227,78.83825 4.99044,2.19199 2.49835,0.27225 7.47006,2.48374 8.34593,-31.15865 17.25466,-63.42956 31.80547,-94.74149 2.24537,-0.32202 4.39883,-0.53169 6.42326,-0.55529 z"
         style="color:#000000;font-style:normal;font-variant:normal;font-weight:normal;font-stretch:normal;font-size:medium;line-height:normal;font-family:sans-serif;font-variant-ligatures:normal;font-variant-position:normal;font-variant-caps:normal;font-variant-numeric:normal;font-variant-alternates:normal;font-variant-east-asian:normal;font-feature-settings:normal;font-variation-settings:normal;text-indent:0;text-align:start;text-decoration:none;text-decoration-line:none;text-decoration-style:solid;text-decoration-color:#000000;letter-spacing:normal;word-spacing:normal;text-transform:none;writing-mode:lr-tb;direction:ltr;text-orientation:mixed;dominant-baseline:auto;baseline-shift:baseline;text-anchor:start;white-space:normal;shape-padding:0;shape-margin:0;inline-size:0;clip-rule:nonzero;display:inline;overflow:visible;visibility:visible;isolation:auto;mix-blend-mode:normal;color-interpolation:sRGB;color-interpolation-filters:linearRGB;solid-color:#000000;solid-opacity:1;vector-effect:none;fill:#000100;fill-opacity:1;fill-rule:nonzero;stroke:none;stroke-width:33.1057;stroke-linecap:round;stroke-linejoin:round;stroke-miterlimit:4;stroke-dasharray:none;stroke-dashoffset:0;stroke-opacity:1;paint-order:stroke fill markers;color-rendering:auto;image-rendering:auto;shape-rendering:auto;text-rendering:auto;enable-background:accumulate;stop-color:#000000"
         id="path987" />
      <path
         id="path989"
         d="m 923.12817,147.63178 c -2.02442,0.0236 -4.17671,0.23278 -6.42208,0.55479 -14.55081,31.31194 -23.45955,63.58426 -31.80548,94.7429 -4.97171,-2.21148 -2.47917,-0.29227 -7.4696,-2.48426 -2.11324,-27.24586 3.14363,-52.87964 4.9915,-78.8385 -3.58233,-2.59451 -9.38382,-4.52244 -15.29872,-4.60447 -6.19151,-0.0851 -11.93254,1.70744 -15.26717,4.87776 -2.91037,36.00512 -8.16296,75.55538 -4.7438,111.50974 11.73031,15.24552 37.8049,24.10328 41.24385,46.52931 l -9.89207,1.39263 c -2.26838,-14.7861 -22.66774,-19.71263 -31.04309,-31.08024 l -4.05633,-5.40949 c -2.68033,-3.51847 -5.42165,-7.07078 -8.12391,-10.73949 -11.44729,-14.61843 -23.59008,-26.40136 -33.25264,-30.3649 -5.2483,-2.15149 -9.24097,-2.2484 -13.178,-0.22664 -3.46998,1.78129 -7.23314,5.89147 -10.72291,13.01712 28.5741,26.49571 37.75783,53.34829 44.25374,71.09961 3.09763,8.46392 10.34805,16.16333 15.8018,24.11194 8.35342,12.1757 22.03308,22.00199 40.55462,25.38612 18.52153,3.38311 40.50718,2.69582 50.2334,-7.83857 10.55656,-5.98961 18.46772,-17.74349 26.30571,-31.96088 7.83798,-14.21739 11.65429,-35.45221 24.78755,-49.41423 7.56631,-8.04377 19.19816,-19.21495 24.32176,-22.58883 2.5627,-1.68694 4.6438,-4.02404 6.2124,-4.9352 0.1054,-0.0615 0.1819,-0.0933 0.282,-0.15074 0.7008,-5.06236 -0.2397,-7.51842 -2.5702,-11.98547 -2.3315,-4.47013 -5.771,-7.51585 -9.50308,-8.7244 -19.10308,10.9128 -31.36143,29.96393 -49.15377,45.8591 -3.07355,-3.72972 -2.10414,-2.08175 -5.61745,-5.34488 16.4495,-30.15724 33.16543,-57.29952 56.8593,-79.17332 -0.8346,-4.89674 -4.15156,-10.15958 -8.62091,-14.00826 -4.49396,-3.87124 -9.91132,-5.99914 -13.8307,-5.95966 -24.40381,23.78225 -41.65688,51.7398 -58.58199,81.25149 -3.7011,-2.23558 -4.29227,-3.33953 -8.16938,-5.38898 10.10767,-33.18245 19.78948,-66.87559 36.11219,-96.5975 -6.82494,-7.81684 -13.63008,-11.96496 -22.65545,-12.47207 -0.64467,-0.0359 -1.30539,-0.0492 -1.97948,-0.041 z"
         style="color:#000000;font-style:normal;font-variant:normal;font-weight:normal;font-stretch:normal;font-size:medium;line-height:normal;font-family:sans-serif;font-variant-ligatures:normal;font-variant-position:normal;font-variant-caps:normal;font-variant-numeric:normal;font-variant-alternates:normal;font-variant-east-asian:normal;font-feature-settings:normal;font-variation-settings:normal;text-indent:0;text-align:start;text-decoration:none;text-decoration-line:none;text-decoration-style:solid;text-decoration-color:#000000;letter-spacing:normal;word-spacing:normal;text-transform:none;writing-mode:lr-tb;direction:ltr;text-orientation:mixed;dominant-baseline:auto;baseline-shift:baseline;text-anchor:start;white-space:normal;shape-padding:0;shape-margin:0;inline-size:0;clip-rule:nonzero;display:inline;overflow:visible;visibility:visible;isolation:auto;mix-blend-mode:normal;color-interpolation:sRGB;color-interpolation-filters:linearRGB;solid-color:#000000;solid-opacity:1;vector-effect:none;fill:#ffffff;fill-opacity:1;fill-rule:nonzero;stroke:none;stroke-width:33.1057;stroke-linecap:round;stroke-linejoin:round;stroke-miterlimit:4;stroke-dasharray:none;stroke-dashoffset:0;stroke-opacity:1;paint-order:stroke fill markers;color-rendering:auto;image-rendering:auto;shape-rendering:auto;text-rendering:auto;enable-background:accumulate;stop-color:#000000" />
    </g>
  </g>
</svg>
