<?xml version="1.0" encoding="UTF-8" standalone="no"?>
<svg
   xmlns:dc="http://purl.org/dc/elements/1.1/"
   xmlns:cc="http://creativecommons.org/ns#"
   xmlns:rdf="http://www.w3.org/1999/02/22-rdf-syntax-ns#"
   xmlns:svg="http://www.w3.org/2000/svg"
   xmlns="http://www.w3.org/2000/svg"
   xmlns:sodipodi="http://sodipodi.sourceforge.net/DTD/sodipodi-0.dtd"
   xmlns:inkscape="http://www.inkscape.org/namespaces/inkscape"
   viewBox="0 0 512 512"
   width="512"
   height="512"
   version="1.1"
   id="svg5"
   sodipodi:docname="profan-skill_b.svg"
   inkscape:version="1.0 (4035a4fb49, 2020-05-01)">
  <title
     id="title856">Profan Skill</title>
  <metadata
     id="metadata11">
    <rdf:RDF>
      <cc:Work
         rdf:about="">
        <dc:format>image/svg+xml</dc:format>
        <dc:type
           rdf:resource="http://purl.org/dc/dcmitype/StillImage" />
        <dc:title>Profan Skill</dc:title>
        <cc:license
           rdf:resource="http://creativecommons.org/licenses/by-sa/4.0/" />
        <dc:date>2022.02.10</dc:date>
        <dc:creator>
          <cc:Agent>
            <dc:title>Streuner²</dc:title>
          </cc:Agent>
        </dc:creator>
        <dc:contributor>
          <cc:Agent>
            <dc:title>based upon Hand iconby Lorc under CC BY 3.0 (Game-icons.net)</dc:title>
          </cc:Agent>
        </dc:contributor>
      </cc:Work>
      <cc:License
         rdf:about="http://creativecommons.org/licenses/by-sa/4.0/">
        <cc:permits
           rdf:resource="http://creativecommons.org/ns#Reproduction" />
        <cc:permits
           rdf:resource="http://creativecommons.org/ns#Distribution" />
        <cc:requires
           rdf:resource="http://creativecommons.org/ns#Notice" />
        <cc:requires
           rdf:resource="http://creativecommons.org/ns#Attribution" />
        <cc:permits
           rdf:resource="http://creativecommons.org/ns#DerivativeWorks" />
        <cc:requires
           rdf:resource="http://creativecommons.org/ns#ShareAlike" />
      </cc:License>
    </rdf:RDF>
  </metadata>
  <defs
     id="defs9" />
  <sodipodi:namedview
     guideopacity="0.49803922"
     guidecolor="#00ff00"
     inkscape:guide-bbox="true"
     showguides="true"
     inkscape:showpageshadow="false"
     borderlayer="false"
     inkscape:document-rotation="0"
     pagecolor="#323232"
     bordercolor="#666666"
     borderopacity="1"
     objecttolerance="10"
     gridtolerance="10"
     guidetolerance="10"
     inkscape:pageopacity="0.61960784"
     inkscape:pageshadow="2"
     inkscape:window-width="3840"
     inkscape:window-height="2066"
     id="namedview7"
     showgrid="false"
     inkscape:zoom="2.4199219"
     inkscape:cx="220.83052"
     inkscape:cy="318.62832"
     inkscape:window-x="-11"
     inkscape:window-y="-11"
     inkscape:window-maximized="1"
     inkscape:current-layer="g987">
    <sodipodi:guide
       inkscape:color="rgb(0,255,0)"
       inkscape:locked="false"
       inkscape:label=""
       id="guide869"
       orientation="-1,0"
       position="256,256" />
    <sodipodi:guide
       inkscape:color="rgb(0,255,0)"
       inkscape:locked="false"
       inkscape:label=""
       id="guide905"
       orientation="0,1"
       position="256,256" />
  </sodipodi:namedview>
  <filter
     id="shadow">
    <feDropShadow
       dx="6"
       dy="12"
       stdDeviation="6" />
  </filter>
  <g
     style="stroke-width:1.54493;stroke-miterlimit:4;stroke-dasharray:none"
     transform="matrix(0.90491517,0,0,0.90746524,23.072155,38.656116)"
     id="g987">
    <g
       style="stroke:none;stroke-width:1.83054"
       transform="matrix(0.91974051,0,0,0.77444937,-5.3861994,14.59346)"
       id="g889" />
    <path
       d="m 390.45785,209.32747 c -3.09389,0.036 -5.96828,0.3375 -8.71759,0.73178 a 16.909819,16.206618 0 0 0 -12.94363,9.43562 c -1.6926,3.64232 -3.28183,7.28959 -4.83039,10.93792 a 16.909819,16.206618 0 0 0 -3.8138,-3.85474 c -7.37334,-5.34013 -15.66115,-7.74656 -25.2484,-7.87952 a 16.909819,16.206618 0 0 0 -0.002,0 c -9.74543,-0.13398 -19.45667,2.00906 -27.41754,9.57767 a 16.909819,16.206618 0 0 0 -4.9491,10.25349 c -2.06328,25.52617 -5.46068,53.58496 -5.85345,81.68572 -6.20738,-5.68573 -12.85842,-10.35851 -20.50434,-13.49483 a 16.909819,16.206618 0 0 0 -0.002,-0.002 c -7.93031,-3.25096 -19.48259,-3.88807 -27.81252,0.38956 -8.52611,4.3777 -13.63056,11.40317 -18.04381,20.41443 a 16.909819,16.206618 0 0 0 3.54832,18.53119 c 25.77239,23.8978 33.44351,46.75194 40.0547,64.81826 4.76513,13.02019 13.20364,21.19687 17.63157,27.65042 10.71471,15.61744 28.58189,28.21279 51.51337,32.40268 a 16.909819,16.206618 0 0 0 0.002,0 c 10.6762,1.95009 22.23794,2.81254 33.64655,1.46569 10.63204,-1.25517 21.80858,-4.41871 30.51477,-12.66404 14.32822,-8.98552 22.65459,-22.72982 30.49319,-36.9483 10.02765,-18.18925 13.87998,-37.08184 22.39506,-46.13426 7.00812,-7.45035 20.7247,-19.67884 21.3375,-20.08298 v -0.002 c 4.8467,-3.19071 8.7211,-6.28131 5.7325,-4.61234 a 16.909819,16.206618 0 0 0 7.9471,-11.69768 c 1.054,-7.61327 -1.5815,-16.33116 -4.2066,-21.3636 v 0 c -3.9318,-7.53772 -10.3051,-13.94611 -19.2136,-16.83087 a 16.909819,16.206618 0 0 0 -2.398,-0.59188 c 3.4658,-3.82813 7.023,-7.55217 10.8047,-11.04339 a 16.909819,16.206618 0 0 0 4.9556,-14.28257 c -1.6728,-9.81452 -6.9287,-17.3563 -14.0034,-23.44915 -7.22736,-6.22587 -14.84359,-10.21689 -25.311,-10.11144 a 16.909819,16.206618 0 0 0 -11.87741,4.84264 c -3.31298,3.2286 -6.49236,6.51797 -9.55718,9.86178 1.889,-3.97813 3.84985,-7.88924 5.93547,-11.68692 a 16.909819,16.206618 0 0 0 -1.99648,-17.94792 c -8.48556,-9.71882 -20.72547,-17.46783 -34.6329,-18.24924 a 16.909819,16.206618 0 0 0 -0.009,0 c -0.67438,-0.0375 -1.33611,-0.0351 -2.00079,-0.043 a 16.909819,16.206618 0 0 0 -1.08565,-0.0258 16.909819,16.206618 0 0 0 -0.082,0 z m 0.20721,16.20457 c 0.67408,-0.008 1.33668,0.005 1.98136,0.0409 9.02537,0.50711 15.82911,4.65566 22.65406,12.4725 -16.32271,29.72191 -26.00371,63.41431 -36.11138,96.59676 3.87711,2.04946 4.46826,3.15375 8.16936,5.38933 16.92511,-29.5117 34.17816,-57.46871 58.58198,-81.25097 3.91937,-0.0395 9.33675,2.08844 13.83071,5.95969 4.46936,3.84868 7.78586,9.11249 8.62046,14.00923 -23.69389,21.8738 -40.41012,49.01461 -56.85961,79.17185 3.51331,3.26313 2.54463,1.61656 5.61818,5.34628 17.79234,-15.89517 30.05123,-34.94812 49.1543,-45.86091 3.73213,1.20854 7.17173,4.25523 9.50323,8.72537 2.3304,4.46704 3.2693,6.92371 2.5684,11.98608 -0.1,0.0574 -0.1752,0.0892 -0.2806,0.15066 -1.5686,0.91115 -3.6512,3.24824 -6.2138,4.93518 -5.1237,3.37389 -16.75405,14.54448 -24.32036,22.58825 -13.13325,13.96202 -16.95068,35.19695 -24.78867,49.41435 -7.83798,14.21738 -15.74942,25.97184 -26.30598,31.96144 -9.72622,10.5344 -31.71194,11.22174 -50.23347,7.83863 -18.52155,-3.38413 -32.19985,-13.21051 -40.55327,-25.38622 -5.45375,-7.9486 -12.70582,-15.64814 -15.80345,-24.11206 -6.49591,-17.75132 -15.67859,-44.60506 -44.25268,-71.10078 3.48976,-7.12565 7.2527,-11.23573 10.72269,-13.01703 3.93703,-2.02176 7.9306,-1.92334 13.17889,0.22814 9.66256,3.96355 21.80428,15.74603 33.25157,30.36446 2.70225,3.66872 5.4437,7.22144 8.12403,10.73991 l 4.05554,5.4087 c 8.37535,11.36761 28.7752,16.29291 31.04358,31.07901 l 9.89172,-1.39253 c -3.43895,-22.42603 -29.51363,-31.28262 -41.24394,-46.52814 -3.41917,-35.95436 1.83369,-75.50483 4.74405,-111.50995 3.33464,-3.17032 9.07668,-4.96218 15.26819,-4.87707 5.91489,0.082 11.71606,2.00922 15.29839,4.60373 -1.84787,25.95886 -7.1055,51.59239 -4.99227,78.83825 4.99044,2.19199 2.49835,0.27225 7.47006,2.48374 8.34593,-31.15865 17.25466,-63.42956 31.80547,-94.74149 2.24537,-0.32202 4.39883,-0.53169 6.42326,-0.55529 z M 121.7841,124.89502 c -6.69286,0 -12.83039,1.15598 -17.91159,3.47746 -5.0812,2.32147 -9.8962,6.41821 -9.8962,12.15824 0,5.74004 4.815,9.83678 9.8962,12.15825 5.0812,2.32149 11.21873,3.47747 17.91159,3.47747 6.69285,0 12.82859,-1.15598 17.90978,-3.47747 4.38806,-2.00479 8.38022,-5.4109 9.44172,-9.97859 0.30043,-0.69887 0.45421,-1.43641 0.45448,-2.17966 -4.7e-4,-0.74274 -0.15426,-1.47975 -0.45448,-2.17814 -1.06095,-4.56843 -5.0532,-7.97509 -9.44172,-9.9801 -5.08119,-2.32148 -11.21693,-3.47746 -17.90978,-3.47746 z m 83.97306,93.76646 c 5.0945,7.71455 -3.60321,12.56327 -18.37032,20.47919 -14.64127,7.84846 -35.58026,9.00438 -53.71123,0 -15.00736,-7.4531 -23.46482,-12.76464 -18.37032,-20.47919 46.70803,2.87851 47.26098,3.25035 90.45187,0 z m -8.76093,-93.76646 c -6.69286,0 -12.83039,1.15598 -17.91158,3.47746 -5.0812,2.32147 -9.8962,6.41821 -9.8962,12.15824 0,5.74004 4.815,9.83678 9.8962,12.15825 5.08119,2.32149 11.21872,3.47747 17.91158,3.47747 6.69285,0 12.8286,-1.15598 17.90979,-3.47747 4.38709,-2.00435 8.37907,-5.40944 9.44171,-9.97557 0.30145,-0.69973 0.45585,-1.43833 0.45628,-2.18268 1.5e-4,-0.74426 -0.15364,-1.48285 -0.45448,-2.18267 -1.06255,-4.56626 -5.05634,-7.97118 -9.44351,-9.97557 -5.08119,-2.32148 -11.21694,-3.47746 -17.90979,-3.47746 z M 160.52968,-6.342642 c -35.78739,0 -67.54027,19.919813 -89.37518,49.670459 -21.83491,29.75065 -34.70414,69.650833 -34.70413,113.391063 0,43.74022 12.86922,83.6404 34.70413,113.39105 21.83491,29.75066 53.58779,49.67046 89.37518,49.67046 35.7874,0 67.54459,-19.9198 89.3795,-49.67046 21.63889,-29.48358 34.43232,-68.94793 34.66096,-112.22666 a 16.552852,16.552851 0 0 0 0.0432,-1.16439 16.552852,16.552851 0 0 0 -0.0432,-1.16655 C 284.34077,112.27507 271.54744,72.810537 249.90918,43.327817 228.07427,13.577171 196.31708,-6.342642 160.52968,-6.342642 Z m 0.002,16.553233 c 59.38586,0 107.52692,65.593446 107.52692,146.508289 0,80.91483 -48.14106,146.51043 -107.52692,146.51043 -59.38586,0 -107.52908,-65.5956 -107.52908,-146.51043 0,-80.914843 48.14322,-146.508289 107.52908,-146.508289 z m 96.87129,8.90186 c -9.49636,0 -18.8542,0.60089 -28.03698,1.762722 5.29113,4.608694 10.25906,9.711643 14.86672,15.220969 4.35548,-0.2754 8.74434,-0.430458 13.17026,-0.430458 113.0325,0 204.4628,91.177546 204.4628,203.840886 0,2.26001 -0.05,4.50741 -0.12302,6.74957 3.29169,1.67787 6.34727,3.85929 9.33271,6.43103 2.3712,2.04212 4.53144,4.2519 6.42758,6.65056 0.57286,-6.38945 0.88912,-12.85173 0.90218,-19.38563 2e-5,-0.008 0.002,-0.0159 0.002,-0.0237 a 8.2764508,8.2764505 0 0 0 0.0108,-0.42185 8.2764508,8.2764505 0 0 0 -0.0108,-0.38526 C 478.19746,117.6635 379.22583,19.112451 257.40297,19.112451 Z M 40.372089,197.77158 c -2.603494,13.5168 -3.984317,27.46604 -3.984317,41.73499 0,121.63538 99.062978,220.39412 221.015198,220.39412 16.83965,0 33.23956,-1.89181 49.00537,-5.45819 -5.26769,-4.21847 -9.80495,-9.00558 -13.56955,-14.14699 -11.50911,2.00054 -23.34712,3.05195 -35.43582,3.05195 -113.03249,-1e-5 -204.460641,-91.17755 -204.460641,-203.84089 0,-0.38703 0.01295,-0.7714 0.01511,-1.15793 -5.531648,-12.60432 -9.783612,-26.22252 -12.585348,-40.57706 z m 423.872191,71.80027 c 0.85451,1.16474 1.60439,2.377 2.23173,3.60724 -0.62728,-1.23035 -1.37727,-2.44238 -2.23173,-3.60724 z m 5.37645,31.56114 c -0.10022,0.11035 -0.2021,0.21876 -0.30217,0.3293 a 16.90982,16.206618 0 0 1 0.19426,0.0344 c 0.0357,-0.12144 0.0724,-0.24222 0.10791,-0.36374 z m -6.82039,18.4128 c -2.91004,1.89055 -5.6548,3.98382 -8.30749,6.20504 2.6523,-2.22075 5.39788,-4.31479 8.30749,-6.20504 z M 312.93736,438.24654 c 1.37321,1.34316 2.82711,2.63359 4.36202,3.86335 -1.53499,-1.22976 -2.98874,-2.5202 -4.36202,-3.86335 z m 9.20753,7.36297 c 1.64778,1.06991 3.37213,2.07404 5.16925,3.00675 0.002,-5.1e-4 0.003,-0.002 0.004,-0.002 -1.79784,-0.93295 -3.52516,-1.93433 -5.17357,-3.00459 z"
       style="color:#000000;font-style:normal;font-variant:normal;font-weight:normal;font-stretch:normal;font-size:medium;line-height:normal;font-family:sans-serif;font-variant-ligatures:normal;font-variant-position:normal;font-variant-caps:normal;font-variant-numeric:normal;font-variant-alternates:normal;font-variant-east-asian:normal;font-feature-settings:normal;font-variation-settings:normal;text-indent:0;text-align:start;text-decoration:none;text-decoration-line:none;text-decoration-style:solid;text-decoration-color:#000000;letter-spacing:normal;word-spacing:normal;text-transform:none;writing-mode:lr-tb;direction:ltr;text-orientation:mixed;dominant-baseline:auto;baseline-shift:baseline;text-anchor:start;white-space:normal;shape-padding:0;shape-margin:0;inline-size:0;clip-rule:nonzero;display:inline;overflow:visible;visibility:visible;isolation:auto;mix-blend-mode:normal;color-interpolation:sRGB;color-interpolation-filters:linearRGB;solid-color:#000000;solid-opacity:1;vector-effect:none;fill:#000100;fill-opacity:1;fill-rule:nonzero;stroke:none;stroke-width:33.1057;stroke-linecap:round;stroke-linejoin:round;stroke-miterlimit:4;stroke-dasharray:none;stroke-dashoffset:0;stroke-opacity:1;paint-order:stroke fill markers;color-rendering:auto;image-rendering:auto;shape-rendering:auto;text-rendering:auto;enable-background:accumulate;stop-color:#000000"
       id="path987" />
  </g>
</svg>
