<?xml version="1.0" encoding="UTF-8" standalone="no"?>
<svg
   xmlns:dc="http://purl.org/dc/elements/1.1/"
   xmlns:cc="http://creativecommons.org/ns#"
   xmlns:rdf="http://www.w3.org/1999/02/22-rdf-syntax-ns#"
   xmlns:svg="http://www.w3.org/2000/svg"
   xmlns="http://www.w3.org/2000/svg"
   xmlns:sodipodi="http://sodipodi.sourceforge.net/DTD/sodipodi-0.dtd"
   xmlns:inkscape="http://www.inkscape.org/namespaces/inkscape"
   inkscape:version="1.0 (4035a4fb49, 2020-05-01)"
   sodipodi:docname="3d20_10-15-20.svg"
   id="svg853"
   version="1.1"
   width="512px" height="512px"
   style="height: 512px; width: 512px;"
   viewBox="0 0 512 512">
  <metadata
     id="metadata859">
    <rdf:RDF>
      <cc:Work
         rdf:about="">
        <dc:format>image/svg+xml</dc:format>
        <dc:type
           rdf:resource="http://purl.org/dc/dcmitype/StillImage" />
        <dc:title></dc:title>
      </cc:Work>
    </rdf:RDF>
  </metadata>
  <defs
     id="defs857" />
  <sodipodi:namedview
     inkscape:current-layer="svg853"
     inkscape:window-maximized="1"
     inkscape:window-y="-11"
     inkscape:window-x="3829"
     inkscape:cy="256"
     inkscape:cx="219.79011"
     inkscape:zoom="2.5683594"
     showgrid="false"
     id="namedview855"
     inkscape:window-height="2066"
     inkscape:window-width="3840"
     inkscape:pageshadow="2"
     inkscape:pageopacity="0"
     guidetolerance="10"
     gridtolerance="10"
     objecttolerance="10"
     borderopacity="1"
     bordercolor="#666666"
     pagecolor="#ffffff" />
  <g
     transform="rotate(-10.763057,294.58941,128.85007)"
     id="g1096">
    <g
       id="g975"
       transform="matrix(0.49019608,0,0,0.49019608,92.310564,7.2341911)"
       style="stroke-width:2.04">
      <path
         style="fill:#ffffff;fill-opacity:1;stroke-width:2.04"
         id="path939"
         d="m 390.2,368.9 -87,95 140.8,-90.1 z" />
      <path
         style="fill:#ffffff;fill-opacity:1;stroke-width:2.04"
         id="path937"
         d="m 121.8,368.9 -53.84,4.9 140.84,90.1 z" />
      <path
         style="fill:#ffffff;fill-opacity:1;stroke-width:2.04"
         id="path935"
         d="M 143.2,368.6 256,491.7 368.8,368.6 Z" />
      <path
         style="fill:#ffffff;fill-opacity:1;stroke-width:2.04"
         id="path933"
         d="m 460,186 -61.9,167.5 61.9,5.7 z" />
      <path
         style="fill:#ffffff;fill-opacity:1;stroke-width:2.04"
         id="path931"
         d="m 52,186 v 173.2 l 61.9,-5.7 z" />
      <path
         style="fill:#ffffff;fill-opacity:1;stroke-width:2.04"
         id="path927"
         d="M 270.1,144.9 385.4,341.9 456.6,149 Z" />
      <path
         style="fill:#ffffff;fill-opacity:1;stroke-width:2.04"
         id="path925"
         d="M 241.9,144.9 55.39,149 126.6,341.9 Z" />
      <path
         style="fill:#ffffff;fill-opacity:1;stroke-width:2.04"
         id="path923"
         d="m 264,20.3 v 108.5 l 175.7,3.8 z" />
      <path
         style="fill:#ffffff;fill-opacity:1;stroke-width:2.04"
         id="path849"
         d="M 248,20.3 72.33,132.6 248,128.8 Z" />
      <g
         style="font-weight:bold;font-size:113.386px;line-height:1;font-family:'Arial Rounded MT Bold';-inkscape-font-specification:'Arial Rounded MT Bold, Bold';letter-spacing:-14.49px;word-spacing:0px;stroke-width:2.04"
         id="text863"
         aria-label="10">
        <path
           d="m 305.80908,286.47139 q 0,9.07974 -1.10728,15.61272 -1.10729,6.53298 -4.09696,11.84795 -3.76477,6.53298 -9.74411,10.0763 -5.97934,3.54331 -13.28742,3.54331 -8.41537,0 -15.11444,-4.76133 -6.64371,-4.76132 -10.02093,-13.17669 -1.7163,-4.59524 -2.54676,-10.13166 -0.7751,-5.59179 -0.7751,-12.06941 0,-8.36 0.88583,-15.05908 0.88583,-6.69907 2.76821,-11.51576 3.26649,-7.97246 9.46729,-12.12478 6.25616,-4.20768 14.89299,-4.20768 5.70251,0 10.35311,1.88238 4.6506,1.82703 8.13855,5.4257 3.54331,3.54331 5.97934,8.80292 4.20768,9.1351 4.20768,25.85511 z m -15.1698,-1.10729 q 0,-10.13166 -1.21802,-16.55391 -1.21801,-6.47762 -4.09695,-9.74411 -2.87894,-3.32186 -7.97246,-3.32186 -7.30808,0 -10.18702,7.36345 -2.82358,7.36345 -2.82358,22.69935 0,10.40848 1.21802,17.05219 1.21801,6.64371 4.09695,10.07629 2.87894,3.37722 7.80636,3.37722 5.09351,0 7.97246,-3.54331 2.87894,-3.54331 4.04159,-10.13166 1.16265,-6.58835 1.16265,-17.27365 z m -67.67057,33.32929 v -50.38148 q -14.06252,10.79603 -18.93457,10.79603 -2.3253,0 -4.15232,-1.82702 -1.77166,-1.88238 -1.77166,-4.31841 0,-2.82358 1.77166,-4.15232 1.77166,-1.32874 6.25616,-3.43258 6.69908,-3.15577 10.6853,-6.64372 4.04159,-3.48794 7.14199,-7.80636 3.1004,-4.31841 4.04159,-5.31496 0.94119,-0.99656 3.54332,-0.99656 2.9343,0 4.70596,2.26993 1.77165,2.26994 1.77165,6.25616 v 63.39208 q 0,11.12822 -7.5849,11.12822 -3.37722,0 -5.4257,-2.26994 -2.04848,-2.26993 -2.04848,-6.69907 z M 256,152.4 138.9,352.6 h 234.2 z"
           style="font-size:113.386px;text-align:center;text-anchor:middle;fill:#ffffff;fill-opacity:1;stroke-width:2.04"
           id="path960" />
      </g>
    </g>
    <g
       id="g1057"
       transform="translate(-1.5574125)">
      <g
         style="stroke-width:2.04"
         transform="matrix(0.49019608,0,0,0.49019608,209.31132,207.94598)"
         id="g1003">
        <path
           style="fill:#ffffff;fill-opacity:1;stroke-width:2.04"
           id="path939-0"
           d="m 390.2,368.9 -87,95 140.8,-90.1 z" />
        <path
           style="fill:#ffffff;fill-opacity:1;stroke-width:2.04"
           id="path937-0"
           d="m 121.8,368.9 -53.84,4.9 140.84,90.1 z" />
        <path
           style="fill:#ffffff;fill-opacity:1;stroke-width:2.04"
           id="path935-6"
           d="M 143.2,368.6 256,491.7 368.8,368.6 Z" />
        <path
           style="fill:#ffffff;fill-opacity:1;stroke-width:2.04"
           id="path933-5"
           d="m 460,186 -61.9,167.5 61.9,5.7 z" />
        <path
           style="fill:#ffffff;fill-opacity:1;stroke-width:2.04"
           id="path931-7"
           d="m 52,186 v 173.2 l 61.9,-5.7 z" />
        <path
           style="fill:#ffffff;fill-opacity:1;stroke-width:2.04"
           id="path927-7"
           d="M 270.1,144.9 385.4,341.9 456.6,149 Z" />
        <path
           style="fill:#ffffff;fill-opacity:1;stroke-width:2.04"
           id="path925-6"
           d="M 241.9,144.9 55.39,149 126.6,341.9 Z" />
        <path
           style="fill:#ffffff;fill-opacity:1;stroke-width:2.04"
           id="path923-9"
           d="m 264,20.3 v 108.5 l 175.7,3.8 z" />
        <path
           style="fill:#ffffff;fill-opacity:1;stroke-width:2.04"
           id="path849-0"
           d="M 248,20.3 72.33,132.6 248,128.8 Z" />
        <g
           style="font-weight:bold;font-size:113.386px;line-height:1;font-family:'Arial Rounded MT Bold';-inkscape-font-specification:'Arial Rounded MT Bold, Bold';letter-spacing:-14.49px;word-spacing:0px;stroke-width:2.04"
           id="text863-8"
           aria-label="15">
          <path
             d="m 294.28643,258.78926 h -26.29802 l -3.15577,17.93802 q 7.86173,-4.20769 14.50544,-4.20769 5.31497,0 9.9102,1.99312 4.6506,1.99311 8.13855,5.53642 3.48795,3.48795 5.48106,8.30464 1.99311,4.81669 1.99311,10.35312 0,8.02782 -3.59867,14.61616 -3.59868,6.58835 -10.40848,10.46385 -6.75444,3.8755 -15.61273,3.8755 -9.9102,0 -16.11099,-3.65404 -6.14544,-3.65405 -8.74756,-8.36001 -2.54675,-4.76132 -2.54675,-8.30464 0,-2.1592 1.77165,-4.09695 1.82702,-1.93775 4.53987,-1.93775 4.6506,0 6.92053,5.37033 2.21457,4.92742 5.97934,7.69563 3.76477,2.71285 8.41537,2.71285 4.26305,0 7.47418,-2.21457 3.21112,-2.21457 4.92742,-6.09007 1.77165,-3.87549 1.77165,-8.80291 0,-5.31497 -1.88238,-9.07974 -1.88239,-3.76477 -5.03815,-5.59179 -3.15576,-1.88239 -7.03126,-1.88239 -4.76133,0 -6.8098,1.16265 -2.04848,1.16265 -5.92398,4.09696 -3.82013,2.87894 -6.31153,2.87894 -2.71284,0 -4.81669,-1.93775 -2.10384,-1.99311 -2.10384,-4.4845 0,-0.27683 0.60901,-3.76477 l 4.6506,-26.51948 q 0.7751,-4.76133 2.87894,-6.92054 2.10384,-2.1592 6.86517,-2.1592 h 29.23232 q 8.63683,0 8.63683,6.58834 0,2.87895 -2.10384,4.6506 -2.10385,1.77166 -6.2008,1.77166 z m -73.31772,59.90413 v -50.38148 q -14.06252,10.79603 -18.93457,10.79603 -2.3253,0 -4.15232,-1.82702 -1.77166,-1.88238 -1.77166,-4.31841 0,-2.82358 1.77166,-4.15232 1.77166,-1.32874 6.25616,-3.43258 6.69908,-3.15577 10.6853,-6.64372 4.04159,-3.48794 7.14199,-7.80636 3.1004,-4.31841 4.04159,-5.31496 0.94119,-0.99656 3.54332,-0.99656 2.9343,0 4.70596,2.26993 1.77165,2.26994 1.77165,6.25616 v 63.39208 q 0,11.12822 -7.5849,11.12822 -3.37722,0 -5.4257,-2.26994 -2.04848,-2.26993 -2.04848,-6.69907 z M 256,152.4 138.9,352.6 h 234.2 z"
             style="font-size:113.386px;text-align:center;text-anchor:middle;fill:#ffffff;fill-opacity:1;stroke-width:2.04"
             id="path954" />
        </g>
      </g>
      <g
         style="stroke-width:2.04"
         transform="matrix(0.49019608,0,0,0.49019608,-21.575367,207.94598)"
         id="g1031">
        <path
           style="fill:#ffffff;fill-opacity:1;stroke-width:2.04"
           id="path939-8"
           d="m 390.2,368.9 -87,95 140.8,-90.1 z" />
        <path
           style="fill:#ffffff;fill-opacity:1;stroke-width:2.04"
           id="path937-3"
           d="m 121.8,368.9 -53.84,4.9 140.84,90.1 z" />
        <path
           style="fill:#ffffff;fill-opacity:1;stroke-width:2.04"
           id="path935-2"
           d="M 143.2,368.6 256,491.7 368.8,368.6 Z" />
        <path
           style="fill:#ffffff;fill-opacity:1;stroke-width:2.04"
           id="path933-8"
           d="m 460,186 -61.9,167.5 61.9,5.7 z" />
        <path
           style="fill:#ffffff;fill-opacity:1;stroke-width:2.04"
           id="path931-9"
           d="m 52,186 v 173.2 l 61.9,-5.7 z" />
        <path
           style="fill:#ffffff;fill-opacity:1;stroke-width:2.04"
           id="path927-1"
           d="M 270.1,144.9 385.4,341.9 456.6,149 Z" />
        <path
           style="fill:#ffffff;fill-opacity:1;stroke-width:2.04"
           id="path925-9"
           d="M 241.9,144.9 55.39,149 126.6,341.9 Z" />
        <path
           style="fill:#ffffff;fill-opacity:1;stroke-width:2.04"
           id="path923-0"
           d="m 264,20.3 v 108.5 l 175.7,3.8 z" />
        <path
           style="fill:#ffffff;fill-opacity:1;stroke-width:2.04"
           id="path849-5"
           d="M 248,20.3 72.33,132.6 248,128.8 Z" />
        <g
           style="font-weight:bold;font-size:113.386px;line-height:1;font-family:'Arial Rounded MT Bold';-inkscape-font-specification:'Arial Rounded MT Bold, Bold';letter-spacing:-8px;word-spacing:0px;stroke-width:2.04"
           id="text863-6"
           aria-label="20">
          <path
             d="m 313.05408,286.47139 q 0,9.07974 -1.10728,15.61272 -1.10729,6.53298 -4.09696,11.84795 -3.76477,6.53298 -9.74411,10.0763 -5.97934,3.54331 -13.28742,3.54331 -8.41537,0 -15.11444,-4.76133 -6.64372,-4.76132 -10.02094,-13.17669 -1.71629,-4.59524 -2.54675,-10.13166 -0.7751,-5.59179 -0.7751,-12.06941 0,-8.36 0.88583,-15.05908 0.88583,-6.69907 2.76821,-11.51576 3.26649,-7.97246 9.46729,-12.12478 6.25616,-4.20768 14.89298,-4.20768 5.70252,0 10.35312,1.88238 4.6506,1.82703 8.13855,5.4257 3.54331,3.54331 5.97934,8.80292 4.20768,9.1351 4.20768,25.85511 z m -15.16981,-1.10729 q 0,-10.13166 -1.21801,-16.55391 -1.21801,-6.47762 -4.09696,-9.74411 -2.87894,-3.32186 -7.97245,-3.32186 -7.30808,0 -10.18702,7.36345 -2.82358,7.36345 -2.82358,22.69935 0,10.40848 1.21801,17.05219 1.21802,6.64371 4.09696,10.07629 2.87894,3.37722 7.80636,3.37722 5.09351,0 7.97245,-3.54331 2.87894,-3.54331 4.04159,-10.13166 1.16265,-6.58835 1.16265,-17.27365 z m -80.85963,27.84822 h 28.90014 q 4.31841,0 6.58835,1.77166 2.26993,1.77166 2.26993,4.81669 0,2.71285 -1.82702,4.59524 -1.77165,1.88238 -5.42569,1.88238 h -40.7481 q -4.15232,0 -6.47762,-2.26993 -2.3253,-2.3253 -2.3253,-5.4257 0,-1.99312 1.49484,-5.25961 1.49483,-3.32185 3.26649,-5.20424 7.36345,-7.64026 13.28742,-13.06596 5.92398,-5.48106 8.47073,-7.19736 4.53987,-3.21112 7.52954,-6.42225 3.04504,-3.26649 4.59524,-6.64371 1.60556,-3.43258 1.60556,-6.69908 0,-3.54331 -1.71629,-6.31152 -1.66093,-2.82358 -4.59523,-4.37378 -2.87895,-1.5502 -6.31153,-1.5502 -7.25272,0 -11.40504,6.36689 -0.55364,0.83047 -1.88238,4.53987 -1.27338,3.70941 -2.93431,5.70252 -1.60556,1.99311 -4.76132,1.99311 -2.76822,0 -4.59524,-1.82702 -1.82702,-1.82702 -1.82702,-4.98278 0,-3.82013 1.71629,-7.97245 1.7163,-4.15232 5.09352,-7.52954 3.43258,-3.37722 8.63682,-5.4257 5.2596,-2.10384 12.29087,-2.10384 8.47073,0 14.45007,2.65748 3.8755,1.77166 6.8098,4.87206 2.93431,3.1004 4.53987,7.19735 1.66093,4.04159 1.66093,8.41537 0,6.86517 -3.43259,12.51232 -3.37722,5.59179 -6.92053,8.80292 -3.54331,3.15576 -11.90331,9.96556 -8.30464,6.80981 -11.40504,10.57458 -1.32874,1.49483 -2.71285,3.59867 z M 256,152.4 138.9,352.6 h 234.2 z"
             style="font-size:113.386px;text-align:center;text-anchor:middle;fill:#ffffff;fill-opacity:1;stroke-width:2.04"
             id="path948" />
        </g>
      </g>
    </g>
  </g>
</svg>
