<?xml version="1.0" encoding="UTF-8" standalone="no"?>
<svg
   xmlns:dc="http://purl.org/dc/elements/1.1/"
   xmlns:cc="http://creativecommons.org/ns#"
   xmlns:rdf="http://www.w3.org/1999/02/22-rdf-syntax-ns#"
   xmlns:svg="http://www.w3.org/2000/svg"
   xmlns="http://www.w3.org/2000/svg"
   xmlns:sodipodi="http://sodipodi.sourceforge.net/DTD/sodipodi-0.dtd"
   xmlns:inkscape="http://www.inkscape.org/namespaces/inkscape"
   inkscape:version="1.0 (4035a4fb49, 2020-05-01)"
   sodipodi:docname="alrik.svg"
   id="svg5"
   version="1.1"
   height="512"
   width="512"
   viewBox="0 0 512 512">
  <metadata
     id="metadata11">
    <rdf:RDF>
      <cc:Work
         rdf:about="">
        <dc:format>image/svg+xml</dc:format>
        <dc:type
           rdf:resource="http://purl.org/dc/dcmitype/StillImage" />
        <dc:title></dc:title>
      </cc:Work>
    </rdf:RDF>
  </metadata>
  <defs
     id="defs9" />
  <sodipodi:namedview
     inkscape:current-layer="svg5"
     inkscape:window-maximized="1"
     inkscape:window-y="-11"
     inkscape:window-x="3829"
     inkscape:cy="256"
     inkscape:cx="256"
     inkscape:zoom="2.4199219"
     showgrid="false"
     id="namedview7"
     inkscape:window-height="2066"
     inkscape:window-width="3840"
     inkscape:pageshadow="2"
     inkscape:pageopacity="0"
     guidetolerance="10"
     gridtolerance="10"
     objecttolerance="10"
     borderopacity="1"
     bordercolor="#666666"
     pagecolor="#ffffff" />
  <filter
     id="shadow">
    <feDropShadow
       stdDeviation="6"
       dy="12"
       dx="6" />
  </filter>
  <g
     id="g893">
    <path
       id="path844"
       style="fill:#ffffff;fill-opacity:1"
       d="m 251.37304,153.96875 c -38.68,21.5 -85.03605,52.21894 -113.62305,88.21094 3.76878,32.18356 13.48823,61.38029 27.42969,85.07226 0.67121,-0.54793 1.33099,-1.12207 1.97851,-1.72656 5.12052,-4.83621 9.54478,-11.25531 14.26368,-17.88477 4.72723,-6.69691 9.6067,-13.43214 15.83203,-18.66406 6.0735,-5.10431 13.84549,-8.80273 23.23828,-8.80273 9.35224,0 18.52589,2.26514 25.77539,7.07422 3.50066,2.32222 5.96872,4.72286 7.65234,6.04687 1.68362,1.32403 2.01706,1.29883 2.06836,1.29883 0.0513,0 0.38279,0.0252 2.06641,-1.29883 1.68362,-1.32401 4.15169,-3.72465 7.65234,-6.04687 7.24951,-4.80907 16.42316,-7.07422 25.77539,-7.07422 9.39278,0 17.16478,3.69841 23.23828,8.80273 6.21791,5.2257 11.09443,11.95158 15.81641,18.64063 l 0.0176,0.0234 c 4.71891,6.62945 9.14313,13.04857 14.26367,17.88477 0.67592,0.631 1.36752,1.22587 2.06836,1.79492 13.83821,-23.49799 23.52216,-52.41559 27.36328,-84.29883 -28.928,-42.097 -78.04995,-72.91078 -122.87695,-89.05078 z M 193.12304,237 c 0.814,-0.013 1.6235,-0.006 2.4375,0 13.02,0.102 26.0435,2.6865 39.0625,7.4375 -16.848,40.6 -58.98,41.963 -78.125,0 12.206,-4.835 24.42,-7.2395 36.625,-7.4375 z m 124.90429,0 h 0.002 c 13.02,-0.102 26.0425,2.2795 39.0625,7.4375 -19.148,41.963 -61.279,40.6 -78.125,0 13.02,-4.75 26.04154,-7.3355 39.06054,-7.4375 z m -62.03906,110.30859 c -12.56489,0 -32.18237,8.57261 -52.29687,16.4043 l -0.008,0.002 -0.01,0.004 c -2.04839,0.79181 -4.09532,1.54953 -6.13867,2.29687 17.31525,14.22039 37.27566,22.32813 58.52539,22.32813 21.23326,0 41.17583,-8.09382 58.47851,-22.29297 -2.07639,-0.75841 -4.15713,-1.52755 -6.23828,-2.33203 l -0.008,-0.004 -0.008,-0.002 c -20.1145,-7.83169 -39.73202,-16.4043 -52.29688,-16.4043 z"
       sodipodi:nodetypes="cccccsssssssssccccccccccccssccssccccsccccs" />
    <path
       style="fill:#ffffff;fill-opacity:1"
       d="m 250.453,18.648 c -81.376,0 -231.45,155.81 -171.668,300.672 7.978,25.267 27.867,50.345 49.205,77.076 24.453,30.633 51.61,63.238 68.668,96.885 h 20.584 c -18.13,-39.8 -48.558,-75.86 -74.646,-108.542 -27.415,-34.343 -48.813,-65.267 -48.815,-87.95 0.002,-3.61 0.377,-7.333 1.09,-11.136 l -0.12,-0.027 c 0.287,-1.23 0.598,-2.455 0.924,-3.674 0.913,-3.757 2.14,-7.578 3.68,-11.436 23.075,-61.4 94.16,-106.3 146.552,-135.014 l 3.594,-1.97 3.906,1.345 c 60.932,20.9 131.302,66.756 155.967,135.77 1.134,3.01 2.114,6.012 2.914,8.998 0.41,1.413 0.81,2.832 1.182,4.263 l -0.156,0.04 c 1.1,5.15 1.68,10.232 1.678,15.177 v 0.002 c 0,22.304 -24.448,53.49 -55.04,87.512 -29.063,32.318 -62.31,67.554 -79.997,106.644 h 20.59 c 16.756,-32.134 46.205,-64.013 73.303,-94.147 23.14,-25.733 45.285,-49.998 54.867,-74.945 52.844,-124.03 -99.228,-305.54 -178.262,-305.54 z"
       id="path3" />
    <path
       style="color:#000000;font-style:normal;font-variant:normal;font-weight:normal;font-stretch:normal;font-size:medium;line-height:normal;font-family:sans-serif;font-variant-ligatures:normal;font-variant-position:normal;font-variant-caps:normal;font-variant-numeric:normal;font-variant-alternates:normal;font-variant-east-asian:normal;font-feature-settings:normal;font-variation-settings:normal;text-indent:0;text-align:start;text-decoration:none;text-decoration-line:none;text-decoration-style:solid;text-decoration-color:#000000;letter-spacing:normal;word-spacing:normal;text-transform:none;writing-mode:lr-tb;direction:ltr;text-orientation:mixed;dominant-baseline:auto;baseline-shift:baseline;text-anchor:start;white-space:normal;shape-padding:0;shape-margin:0;inline-size:0;clip-rule:nonzero;display:inline;overflow:visible;visibility:visible;isolation:auto;mix-blend-mode:normal;color-interpolation:sRGB;color-interpolation-filters:linearRGB;solid-color:#000000;solid-opacity:1;vector-effect:none;fill:#ffffff;fill-opacity:1;fill-rule:nonzero;stroke:none;stroke-width:15;stroke-linecap:butt;stroke-linejoin:miter;stroke-miterlimit:4;stroke-dasharray:none;stroke-dashoffset:0;stroke-opacity:1;color-rendering:auto;image-rendering:auto;shape-rendering:auto;text-rendering:auto;enable-background:accumulate;stop-color:#000000"
       d="m 220.5178,287.99193 c -7.65366,0 -13.19978,2.66214 -18.41315,7.04358 -5.21335,4.38144 -9.8721,10.64857 -14.53085,17.24846 -4.65874,6.54443 -9.3175,13.42163 -15.25185,19.02323 -5.93436,5.54612 -13.43826,9.70572 -22.68367,9.92757 -11.12554,0.2773 -21.80736,-6.26713 -30.58523,-12.86703 1.15193,2.27392 2.26115,4.54783 3.58669,6.93266 7.85885,14.14262 19.16185,28.67349 28.42944,31.66839 10.521,3.43861 30.12658,-2.2739 49.92626,-9.92756 19.79968,-7.70911 39.48842,-16.9157 55.0176,-16.9157 15.52915,0 35.21791,9.20659 55.01758,16.9157 19.79968,7.65366 39.43298,13.36617 49.91517,9.92756 9.26203,-2.9949 20.57615,-17.52577 28.45163,-31.66839 1.33108,-2.38483 2.4403,-4.65874 3.54952,-6.93266 -8.76288,6.5999 -19.41144,13.14433 -30.55915,12.86703 -9.26205,-0.22185 -16.74932,-4.38145 -22.68367,-9.92757 -5.93437,-5.6016 -10.59312,-12.4788 -15.25187,-19.02323 -4.65874,-6.59989 -9.31749,-12.86702 -14.53084,-17.24846 -5.21337,-4.38144 -10.7595,-7.04358 -18.41315,-7.04358 -8.04189,0 -16.02832,2.10753 -21.62991,5.82343 -5.60159,3.71592 -8.8738,8.59649 -13.86531,8.59649 -4.99153,0 -8.26374,-4.88057 -13.86534,-8.59649 -5.60158,-3.7159 -13.588,-5.82343 -21.6299,-5.82343 z"
       id="path861" />
  </g>
</svg>
