<?xml version="1.0" encoding="UTF-8" standalone="no"?>
<svg
   xmlns:dc="http://purl.org/dc/elements/1.1/"
   xmlns:cc="http://creativecommons.org/ns#"
   xmlns:rdf="http://www.w3.org/1999/02/22-rdf-syntax-ns#"
   xmlns:svg="http://www.w3.org/2000/svg"
   xmlns="http://www.w3.org/2000/svg"
   xmlns:sodipodi="http://sodipodi.sourceforge.net/DTD/sodipodi-0.dtd"
   xmlns:inkscape="http://www.inkscape.org/namespaces/inkscape"
   inkscape:version="1.0 (4035a4fb49, 2020-05-01)"
   sodipodi:docname="ilars-fvtt_astral_white.svg"
   id="svg5"
   version="1.1"
   height="512"
   width="512"
   viewBox="0 0 512 512">
  <metadata
     id="metadata11">
    <rdf:RDF>
      <cc:Work
         rdf:about="">
        <dc:format>image/svg+xml</dc:format>
        <dc:type
           rdf:resource="http://purl.org/dc/dcmitype/StillImage" />
        <dc:title></dc:title>
        <cc:license
           rdf:resource="http://creativecommons.org/publicdomain/zero/1.0/" />
      </cc:Work>
      <cc:License
         rdf:about="http://creativecommons.org/publicdomain/zero/1.0/">
        <cc:permits
           rdf:resource="http://creativecommons.org/ns#Reproduction" />
        <cc:permits
           rdf:resource="http://creativecommons.org/ns#Distribution" />
        <cc:permits
           rdf:resource="http://creativecommons.org/ns#DerivativeWorks" />
      </cc:License>
    </rdf:RDF>
  </metadata>
  <defs
     id="defs9" />
  <sodipodi:namedview
     inkscape:current-layer="svg5"
     inkscape:window-maximized="1"
     inkscape:window-y="-11"
     inkscape:window-x="-11"
     inkscape:cy="162.42932"
     inkscape:cx="218.87601"
     inkscape:zoom="1.3245767"
     showgrid="false"
     id="namedview7"
     inkscape:window-height="2066"
     inkscape:window-width="3840"
     inkscape:pageshadow="2"
     inkscape:pageopacity="0.61960784"
     guidetolerance="10"
     gridtolerance="10"
     objecttolerance="10"
     borderopacity="1"
     bordercolor="#666666"
     pagecolor="#323232"
     inkscape:document-rotation="0"
     borderlayer="false"
     inkscape:showpageshadow="false"
     showguides="true"
     inkscape:guide-bbox="true"
     guidecolor="#00ff00"
     guideopacity="0.49803922">
    <sodipodi:guide
       inkscape:color="rgb(0,255,0)"
       inkscape:locked="false"
       inkscape:label=""
       position="256,256"
       orientation="-1,0"
       id="guide869" />
    <sodipodi:guide
       inkscape:color="rgb(0,255,0)"
       inkscape:locked="false"
       inkscape:label=""
       position="256,256"
       orientation="0,1"
       id="guide905" />
  </sodipodi:namedview>
  <filter
     id="shadow">
    <feDropShadow
       stdDeviation="6"
       dy="12"
       dx="6" />
  </filter>
  <path
     sodipodi:nodetypes="cccccccccccccccccccccccccccccccccccccccccccccccc"
     d="m 231.69141,72.607422 c -16.21687,2.122885 -31.76603,6.344234 -46.37305,12.376953 l 35.45508,39.554685 z m 48.61718,0 10.91602,51.929688 35.45508,-39.554688 c -14.6063,-6.032079 -30.15525,-10.252256 -46.3711,-12.375 z M 143.24023,109.29297 c -12.7368,9.79543 -24.15728,21.20962 -33.95703,33.94141 l 50.48047,16.52734 z m 225.52149,0.002 -16.52344,50.4668 50.47852,-16.52734 c -9.79926,-12.73085 -21.21918,-24.14454 -33.95508,-33.93946 z m 58.2793,76.00391 -39.57813,35.47656 51.97266,10.92578 c -2.12499,-16.22669 -6.35191,-31.78667 -12.39453,-46.40234 z m -342.080082,0.002 c -6.041898,14.61461 -10.269591,30.17306 -12.394532,46.39844 l 51.968754,-10.92383 z m 354.474612,94.99805 -51.97266,10.92578 39.57813,35.47656 c 6.04262,-14.61567 10.26954,-30.17565 12.39453,-46.40234 z m -366.869144,0.002 c 2.124941,16.22538 6.352634,31.78383 12.394532,46.39844 l 39.576172,-35.47266 z m 87.195314,71.93555 -50.47852,16.52734 c 9.7994,12.73156 21.21874,24.14604 33.95508,33.94141 z m 192.47656,0.002 16.52344,50.4668 c 12.73631,-9.79523 24.15561,-21.21007 33.95508,-33.94141 z m -61.01367,35.22461 -10.91602,51.92969 c 16.21585,-2.12275 31.7648,-6.34292 46.3711,-12.375 z m -70.44922,0.002 -35.45508,39.55274 c 14.60634,6.0322 30.1551,10.25223 46.3711,12.375 z"
     style="color:#000000;font-style:normal;font-variant:normal;font-weight:normal;font-stretch:normal;font-size:medium;line-height:normal;font-family:sans-serif;font-variant-ligatures:normal;font-variant-position:normal;font-variant-caps:normal;font-variant-numeric:normal;font-variant-alternates:normal;font-variant-east-asian:normal;font-feature-settings:normal;font-variation-settings:normal;text-indent:0;text-align:start;text-decoration:none;text-decoration-line:none;text-decoration-style:solid;text-decoration-color:#000000;letter-spacing:normal;word-spacing:normal;text-transform:none;writing-mode:lr-tb;direction:ltr;text-orientation:mixed;dominant-baseline:auto;baseline-shift:baseline;text-anchor:start;white-space:normal;shape-padding:0;shape-margin:0;inline-size:0;clip-rule:nonzero;display:inline;overflow:visible;visibility:visible;isolation:auto;mix-blend-mode:normal;color-interpolation:sRGB;color-interpolation-filters:linearRGB;solid-color:#000000;solid-opacity:1;vector-effect:none;fill:#ffffff;fill-opacity:1;fill-rule:evenodd;stroke:none;stroke-width:15.0001;stroke-linecap:round;stroke-linejoin:round;stroke-miterlimit:4;stroke-dasharray:none;stroke-dashoffset:0;stroke-opacity:1;paint-order:normal;color-rendering:auto;image-rendering:auto;shape-rendering:auto;text-rendering:auto;enable-background:accumulate;stop-color:#000000"
     id="path841" />
  <path
     d="M 256 29.882812 L 231.34961 147.14258 C 239.28256 145.34838 247.53224 144.39648 256 144.39648 C 264.46892 144.39648 272.71758 145.34956 280.65039 147.14453 L 256 29.882812 z M 142.94141 60.177734 L 180.24219 174.10938 C 192.3098 162.94173 206.83728 154.39761 222.91602 149.40039 L 142.94141 60.177734 z M 369.05859 60.177734 L 289.08398 149.40039 C 305.16293 154.40028 319.68826 162.95183 331.75195 174.125 L 369.05859 60.177734 z M 60.177734 142.94141 L 149.38672 222.9043 C 154.3875 206.82734 162.93631 192.30482 174.10742 180.24219 L 60.177734 142.94141 z M 451.82227 142.94141 L 337.875 180.24805 C 349.04401 192.31566 357.58523 206.8483 362.58203 222.93164 L 451.82227 142.94141 z M 256 159.41797 C 202.52366 159.41797 159.35742 202.58306 159.35742 256 C 159.35742 309.41693 202.52366 352.58203 256 352.58203 C 309.47634 352.58203 352.64258 309.41693 352.64258 256 C 352.64258 202.58306 309.47634 159.41797 256 159.41797 z M 364.83398 231.3457 C 366.5761 239.04568 367.52909 247.04209 367.58398 255.25 A 7.4894396 7.5105449 0 0 1 367.62305 256 A 7.4894396 7.5105449 0 0 1 367.58398 256.76367 C 367.52809 264.9665 366.57507 272.9588 364.83398 280.6543 L 482.11719 256 L 364.83398 231.3457 z M 147.125 231.35352 L 29.882812 256 L 147.125 280.64648 C 145.3306 272.71483 144.37891 264.46776 144.37891 256 C 144.37891 247.5329 145.33087 239.28455 147.125 231.35352 z M 362.58203 289.06836 C 357.58504 305.15211 349.04438 319.68401 337.875 331.75195 L 451.82227 369.05859 L 362.58203 289.06836 z M 149.38672 289.0957 L 60.177734 369.05859 L 174.10742 331.75781 C 162.93672 319.69538 154.38757 305.1721 149.38672 289.0957 z M 331.75195 337.875 C 319.68825 349.04843 305.16292 357.59761 289.08398 362.59766 L 369.05859 451.82227 L 331.75195 337.875 z M 180.24219 337.89062 L 142.94141 451.82227 L 222.91406 362.60156 C 206.83603 357.60411 192.30936 349.05812 180.24219 337.89062 z M 231.34961 364.85742 L 256 482.11719 L 280.65039 364.85742 C 272.71757 366.65246 264.46892 367.60352 256 367.60352 C 247.53224 367.60352 239.28256 366.65168 231.34961 364.85742 z "
     style="color:#000000;font-style:normal;font-variant:normal;font-weight:normal;font-stretch:normal;font-size:medium;line-height:normal;font-family:sans-serif;font-variant-ligatures:normal;font-variant-position:normal;font-variant-caps:normal;font-variant-numeric:normal;font-variant-alternates:normal;font-variant-east-asian:normal;font-feature-settings:normal;font-variation-settings:normal;text-indent:0;text-align:start;text-decoration:none;text-decoration-line:none;text-decoration-style:solid;text-decoration-color:#000000;letter-spacing:normal;word-spacing:normal;text-transform:none;writing-mode:lr-tb;direction:ltr;text-orientation:mixed;dominant-baseline:auto;baseline-shift:baseline;text-anchor:start;white-space:normal;shape-padding:0;shape-margin:0;inline-size:0;clip-rule:nonzero;display:inline;overflow:visible;visibility:visible;isolation:auto;mix-blend-mode:normal;color-interpolation:sRGB;color-interpolation-filters:linearRGB;solid-color:#000000;solid-opacity:1;vector-effect:none;fill:#ffffff;fill-opacity:1;fill-rule:evenodd;stroke:none;stroke-width:30;stroke-linecap:round;stroke-linejoin:round;stroke-miterlimit:4;stroke-dasharray:none;stroke-dashoffset:0;stroke-opacity:1;paint-order:stroke fill markers;color-rendering:auto;image-rendering:auto;shape-rendering:auto;text-rendering:auto;enable-background:accumulate;stop-color:#000000"
     id="path849" />
</svg>
