<?xml version="1.0" encoding="UTF-8" standalone="no"?>
<svg
   xmlns:dc="http://purl.org/dc/elements/1.1/"
   xmlns:cc="http://creativecommons.org/ns#"
   xmlns:rdf="http://www.w3.org/1999/02/22-rdf-syntax-ns#"
   xmlns:svg="http://www.w3.org/2000/svg"
   xmlns="http://www.w3.org/2000/svg"
   xmlns:sodipodi="http://sodipodi.sourceforge.net/DTD/sodipodi-0.dtd"
   xmlns:inkscape="http://www.inkscape.org/namespaces/inkscape"
   inkscape:version="1.0 (4035a4fb49, 2020-05-01)"
   sodipodi:docname="ilaris-fvtt_magic-trick_white.svg"
   id="svg5"
   version="1.1"
   height="512"
   width="512"
   viewBox="0 0 512 512">
  <metadata
     id="metadata11">
    <rdf:RDF>
      <cc:Work
         rdf:about="">
        <dc:format>image/svg+xml</dc:format>
        <dc:type
           rdf:resource="http://purl.org/dc/dcmitype/StillImage" />
        <dc:title></dc:title>
        <cc:license
           rdf:resource="http://creativecommons.org/publicdomain/zero/1.0/" />
      </cc:Work>
      <cc:License
         rdf:about="http://creativecommons.org/publicdomain/zero/1.0/">
        <cc:permits
           rdf:resource="http://creativecommons.org/ns#Reproduction" />
        <cc:permits
           rdf:resource="http://creativecommons.org/ns#Distribution" />
        <cc:permits
           rdf:resource="http://creativecommons.org/ns#DerivativeWorks" />
      </cc:License>
    </rdf:RDF>
  </metadata>
  <defs
     id="defs9" />
  <sodipodi:namedview
     inkscape:current-layer="g987"
     inkscape:window-maximized="1"
     inkscape:window-y="-11"
     inkscape:window-x="-11"
     inkscape:cy="289.06768"
     inkscape:cx="265.04283"
     inkscape:zoom="1.7111432"
     showgrid="false"
     id="namedview7"
     inkscape:window-height="2066"
     inkscape:window-width="3840"
     inkscape:pageshadow="2"
     inkscape:pageopacity="0.61960784"
     guidetolerance="10"
     gridtolerance="10"
     objecttolerance="10"
     borderopacity="1"
     bordercolor="#666666"
     pagecolor="#323232"
     inkscape:document-rotation="0"
     borderlayer="false"
     inkscape:showpageshadow="false"
     showguides="true"
     inkscape:guide-bbox="true"
     guidecolor="#00ff00"
     guideopacity="0.49803922">
    <sodipodi:guide
       position="256,256"
       orientation="-1,0"
       id="guide869"
       inkscape:label=""
       inkscape:locked="false"
       inkscape:color="rgb(0,255,0)" />
    <sodipodi:guide
       position="256,256"
       orientation="0,1"
       id="guide905"
       inkscape:label=""
       inkscape:locked="false"
       inkscape:color="rgb(0,255,0)" />
  </sodipodi:namedview>
  <filter
     id="shadow">
    <feDropShadow
       stdDeviation="6"
       dy="12"
       dx="6" />
  </filter>
  <g
     id="g987"
     transform="matrix(0.90491517,0,0,0.90746524,23.072155,38.656116)"
     style="stroke-width:1.54493;stroke-miterlimit:4;stroke-dasharray:none">
    <path
       transform="matrix(1.105076,0,0,1.1019706,-25.496484,-42.597903)"
       d="M 256 71.021484 C 153.71519 71.021486 70.980469 153.76194 70.980469 256 C 70.980469 358.23806 153.71519 440.97851 256 440.97852 C 272.13187 440.97852 287.77601 438.91691 302.6875 435.04883 L 321.60742 376.73047 L 279.22852 337.5293 A 14.980408 15.022623 0 0 1 279.22461 337.52734 C 265.64471 324.95924 274.53842 299.65765 293.5332 299.65039 A 14.980408 15.022623 0 0 1 293.53906 299.65039 L 346.61523 299.65039 L 358.48438 263.0625 A 14.980408 15.022623 0 0 1 358.52148 262.95312 L 358.49219 263.04688 C 358.50486 263.00775 358.5184 262.9688 358.53125 262.92969 L 358.54883 262.87695 A 14.980408 15.022623 0 0 1 358.57422 262.79688 C 358.58336 262.76956 358.59419 262.74216 358.60352 262.71484 C 358.60686 262.70368 358.60966 262.6928 358.61328 262.68164 C 358.61419 262.67801 358.61628 262.6746 358.61719 262.67188 C 358.619 262.66716 358.62124 262.66274 358.62305 262.6582 C 358.62341 262.6573 358.62268 262.6552 358.62305 262.6543 A 14.980408 15.022623 0 0 1 358.62695 262.64648 A 14.980408 15.022623 0 0 1 358.85742 262.04688 L 358.83398 262.0957 L 358.75977 262.26367 A 14.980408 15.022623 0 0 1 358.88867 261.92383 A 14.980408 15.022623 0 0 1 358.90625 261.87891 C 358.91539 261.8554 358.92436 261.8321 358.93359 261.80859 C 358.97825 261.6945 359.02566 261.58022 359.07227 261.4668 A 14.980408 15.022623 0 0 1 359.07422 261.45703 C 359.09051 261.41742 359.10844 261.37737 359.125 261.33789 A 14.980408 15.022623 0 0 1 359.17578 261.21484 C 359.20148 261.15433 359.22766 261.0955 359.25391 261.03516 A 14.980408 15.022623 0 0 1 359.26953 260.99609 C 359.37007 260.76676 359.47549 260.54057 359.58398 260.31445 A 14.980408 15.022623 0 0 1 359.62891 260.2207 C 359.66213 260.1521 359.69449 260.08396 359.72852 260.01562 C 359.72942 260.01472 359.72988 260.01263 359.73047 260.01172 C 359.73137 260.01081 359.73183 260.00872 359.73242 260.00781 C 359.75568 259.96118 359.77921 259.9156 359.80273 259.86914 A 14.980408 15.022623 0 0 1 359.82227 259.82812 C 359.87411 259.72669 359.92894 259.62608 359.98242 259.52539 C 359.98514 259.52004 359.98752 259.51326 359.99023 259.50781 C 359.99738 259.49429 360.00448 259.48227 360.01172 259.46875 C 360.05128 259.39447 360.09236 259.31996 360.13281 259.24609 A 14.980408 15.022623 0 0 1 360.19141 259.13867 C 360.20181 259.12007 360.21225 259.10063 360.22266 259.08203 C 360.23261 259.06424 360.242 259.04699 360.25195 259.0293 C 360.26254 259.01051 360.27448 258.99144 360.28516 258.97266 C 360.32553 258.90137 360.36694 258.83064 360.4082 258.75977 A 14.980408 15.022623 0 0 1 360.48438 258.62891 C 360.49786 258.60595 360.51173 258.58341 360.52539 258.56055 L 360.53516 258.54492 C 360.53878 258.53975 360.54221 258.53474 360.54492 258.5293 A 14.980408 15.022623 0 0 1 360.55664 258.50977 C 360.56696 258.4928 360.57748 258.474 360.58789 258.45703 C 360.60879 258.42251 360.6294 258.388 360.65039 258.35352 A 14.980408 15.022623 0 0 1 360.73047 258.22461 C 360.74269 258.20501 360.75527 258.18553 360.76758 258.16602 C 360.80654 258.10366 360.84513 258.0405 360.88477 257.97852 A 14.980408 15.022623 0 0 1 360.88672 257.97461 C 360.91423 257.93167 360.94292 257.88844 360.9707 257.8457 C 361.02521 257.7618 361.08098 257.67696 361.13672 257.59375 C 361.13762 257.59284 361.13795 257.59075 361.13867 257.58984 C 361.14139 257.58558 361.14377 257.58266 361.14648 257.57812 C 361.21206 257.48027 361.28042 257.38202 361.34766 257.28516 A 14.980408 15.022623 0 0 1 361.42773 257.16992 A 14.980408 15.022623 0 0 1 361.45703 257.12891 C 361.46988 257.11085 361.48315 257.09219 361.49609 257.07422 A 14.980408 15.022623 0 0 1 361.57031 256.97461 C 361.59556 256.93964 361.62097 256.90399 361.64648 256.86914 A 14.980408 15.022623 0 0 1 361.66406 256.84375 C 361.67203 256.83286 361.67936 256.8233 361.6875 256.8125 A 14.980408 15.022623 0 0 1 361.81641 256.63672 C 361.82935 256.61957 361.84253 256.60309 361.85547 256.58594 L 361.88672 256.54492 A 14.980408 15.022623 0 0 1 361.96289 256.44531 C 361.96751 256.43932 361.97204 256.43409 361.97656 256.42773 C 362.03918 256.34631 362.10222 256.26613 362.16602 256.18555 A 14.980408 15.022623 0 0 1 362.24219 256.08984 C 362.24644 256.08458 362.24938 256.07966 362.25391 256.07422 C 362.26431 256.06115 362.27466 256.04822 362.28516 256.03516 C 362.2905 256.02853 362.29535 256.02198 362.30078 256.01562 C 362.3593 255.94336 362.41906 255.87034 362.47852 255.79883 C 362.53148 255.73511 362.58492 255.67253 362.63867 255.60938 C 362.65333 255.59204 362.66689 255.57593 362.68164 255.55859 A 14.980408 15.022623 0 0 1 362.79688 255.42578 C 362.85274 255.36171 362.91015 255.29781 362.9668 255.23438 C 362.98671 255.21196 363.00539 255.18834 363.02539 255.16602 C 363.03236 255.1583 363.03964 255.15075 363.04688 255.14258 C 363.10371 255.07936 363.16111 255.01574 363.21875 254.95312 A 14.980408 15.022623 0 0 1 363.33594 254.83008 C 363.36046 254.80394 363.38545 254.778 363.41016 254.75195 A 14.980408 15.022623 0 0 1 363.49219 254.66406 C 363.49852 254.65753 363.50538 254.65088 363.51172 254.64453 C 363.54809 254.6066 363.58444 254.56891 363.62109 254.53125 C 363.72033 254.42945 363.82052 254.32845 363.92188 254.22852 L 363.93359 254.2168 A 14.980408 15.022623 0 0 1 364.00391 254.14844 C 364.05199 254.10159 364.09984 254.05427 364.14844 254.00781 C 364.16491 253.99193 364.1808 253.97868 364.19727 253.96289 A 14.980408 15.022623 0 0 1 364.35547 253.81445 C 364.43021 253.74495 364.5062 253.67398 364.58203 253.60547 C 364.60357 253.58605 364.6229 253.56816 364.64453 253.54883 A 14.980408 15.022623 0 0 1 364.64844 253.54492 C 364.65767 253.53657 364.66841 253.5277 364.67773 253.51953 C 364.72642 253.47617 364.77508 253.43364 364.82422 253.39062 C 364.83263 253.38318 364.83951 253.37445 364.84766 253.36719 A 14.980408 15.022623 0 0 1 364.99023 253.24414 C 365.08787 253.16029 365.18591 253.07822 365.28516 252.99609 C 365.36702 252.92824 365.45022 252.86162 365.5332 252.79492 A 14.980408 15.022623 0 0 1 365.58203 252.75391 C 365.60275 252.73739 365.62381 252.7215 365.64453 252.70508 C 365.74401 252.62604 365.84238 252.54802 365.94336 252.4707 A 14.980408 15.022623 0 0 1 365.98828 252.4375 C 366.06469 252.3794 366.14342 252.3227 366.2207 252.26562 C 366.25725 252.23858 366.29334 252.21045 366.33008 252.18359 C 366.45161 252.0949 366.57374 252.00808 366.69727 251.92188 A 14.980408 15.022623 0 0 1 366.7168 251.90625 C 366.83012 251.82743 366.94362 251.75051 367.05859 251.67383 C 367.1586 251.60703 367.2601 251.54172 367.36133 251.47656 C 367.38078 251.46404 367.40047 251.45189 367.41992 251.43945 A 14.980408 15.022623 0 0 1 367.43359 251.42969 C 367.4354 251.42878 367.43764 251.42669 367.43945 251.42578 A 14.980408 15.022623 0 0 1 367.54883 251.35742 C 367.64879 251.29472 367.74852 251.23099 367.84961 251.16992 C 367.84961 251.16992 367.85156 251.16992 367.85156 251.16992 C 367.85853 251.16566 367.86581 251.16079 367.87305 251.15625 C 367.90696 251.13583 367.94058 251.11594 367.97461 251.0957 C 367.99416 251.08391 368.01375 251.07225 368.0332 251.06055 A 14.980408 15.022623 0 0 1 368.03711 251.05859 C 368.03711 251.05859 368.03906 251.05859 368.03906 251.05859 A 14.980408 15.022623 0 0 1 368.30664 250.90234 C 368.34074 250.88292 368.374 250.86299 368.4082 250.84375 C 368.43526 250.82832 368.46309 250.81416 368.49023 250.79883 A 14.980408 15.022623 0 0 1 368.66797 250.69922 C 368.74357 250.65796 368.82038 250.61646 368.89648 250.57617 C 368.91684 250.56528 368.93658 250.55572 368.95703 250.54492 A 14.980408 15.022623 0 0 1 369.16992 250.43359 C 369.18096 250.42797 369.19209 250.42341 369.20312 250.41797 C 369.26946 250.38409 369.33565 250.34962 369.40234 250.31641 A 14.980408 15.022623 0 0 1 369.46875 250.28516 C 369.50116 250.26928 369.53392 250.25212 369.56641 250.23633 A 14.980408 15.022623 0 0 1 369.83789 250.10742 A 14.980408 15.022623 0 0 1 369.91602 250.07031 C 369.99536 250.03361 370.07448 249.99864 370.1543 249.96289 C 370.18081 249.95091 370.20777 249.93758 370.23438 249.92578 A 14.980408 15.022623 0 0 1 370.54297 249.79297 C 370.57283 249.78054 370.60286 249.7682 370.63281 249.75586 C 370.65055 249.74842 370.66781 249.73968 370.68555 249.73242 A 14.980408 15.022623 0 0 1 370.68945 249.73047 C 370.8084 249.68097 370.92889 249.63135 371.04883 249.58398 A 14.980408 15.022623 0 0 1 371.11914 249.55859 C 371.12557 249.55587 371.13234 249.5535 371.13867 249.55078 C 371.14202 249.54897 371.14677 249.54778 371.15039 249.54688 C 371.26322 249.50306 371.37465 249.45989 371.48828 249.41797 A 14.980408 15.022623 0 0 1 371.5957 249.37891 C 371.66329 249.35459 371.73096 249.33228 371.79883 249.30859 C 371.85633 249.28845 371.91111 249.26774 371.96875 249.24805 C 371.97527 249.24532 371.98195 249.24205 371.98828 249.24023 C 371.991 249.23933 371.99338 249.23907 371.99609 249.23828 C 372.1087 249.19995 372.22262 249.16334 372.33594 249.12695 A 14.980408 15.022623 0 0 1 372.38281 249.11133 C 372.41573 249.10089 372.44948 249.09042 372.48242 249.08008 A 14.980408 15.022623 0 0 1 372.52734 249.06641 A 14.980408 15.022623 0 0 1 372.60352 249.04102 C 372.61329 249.03739 372.6249 249.03593 372.63477 249.0332 A 14.980408 15.022623 0 0 1 372.70312 249.01172 C 372.70955 249.0099 372.71632 249.00767 372.72266 249.00586 A 14.980408 15.022623 0 0 1 372.91797 248.94727 C 372.97339 248.93138 373.02842 248.91582 373.08398 248.90039 L 373.02148 248.91992 C 373.12869 248.88961 373.23603 248.85866 373.34375 248.83008 C 373.41202 248.81193 373.48042 248.79486 373.54883 248.77734 A 14.980408 15.022623 0 0 1 373.71094 248.73438 C 373.84692 248.70074 373.98439 248.66962 374.12109 248.63867 A 14.980408 15.022623 0 0 1 374.12695 248.63672 C 374.25531 248.60777 374.38278 248.58128 374.51172 248.55469 A 14.980408 15.022623 0 0 1 374.56836 248.54297 C 374.61516 248.53344 374.66211 248.52479 374.70898 248.51562 C 374.71785 248.51381 374.72728 248.51158 374.73633 248.50977 A 14.980408 15.022623 0 0 1 374.76758 248.50195 C 374.77572 248.50014 374.78482 248.49986 374.79297 248.49805 C 374.8952 248.47845 374.99706 248.45946 375.09961 248.44141 A 14.980408 15.022623 0 0 1 375.13867 248.43555 C 375.33682 248.40114 375.5352 248.36852 375.73438 248.33984 C 375.79959 248.33032 375.86435 248.32157 375.92969 248.3125 A 14.980408 15.022623 0 0 1 376 248.30273 C 376.12894 248.28576 376.25745 248.27047 376.38672 248.25586 A 14.980408 15.022623 0 0 1 376.44727 248.24805 C 376.58183 248.23335 376.71476 248.22096 376.84961 248.20898 C 376.88617 248.20535 376.92243 248.20194 376.95898 248.19922 C 376.95898 248.19922 376.96094 248.19922 376.96094 248.19922 C 376.98392 248.1965 377.00631 248.19517 377.0293 248.19336 A 14.980408 15.022623 0 0 1 377.21875 248.17969 L 377.27539 248.17578 A 14.980408 15.022623 0 0 1 377.36328 248.16797 C 377.39383 248.16615 377.42449 248.16392 377.45508 248.16211 A 14.980408 15.022623 0 0 1 377.56641 248.1543 A 14.980408 15.022623 0 0 1 377.875 248.13867 C 377.98611 248.13413 378.09782 248.13358 378.20898 248.13086 C 378.33406 248.12727 378.4608 248.12397 378.58594 248.12305 L 378.58984 248.12305 A 14.980408 15.022623 0 0 1 378.61523 248.12305 A 14.980408 15.022623 0 0 1 378.62305 248.12305 C 378.69149 248.12272 378.75971 248.1227 378.82812 248.12305 A 14.980408 15.022623 0 0 1 378.85742 248.12305 C 378.88213 248.12305 378.90694 248.12474 378.93164 248.125 C 379.02042 248.12591 379.11045 248.12904 379.19922 248.13086 C 379.21505 248.13123 379.23026 248.13046 379.24609 248.13086 C 379.35433 248.13331 379.46408 248.13609 379.57227 248.14062 A 14.980408 15.022623 0 0 1 379.79102 248.15234 A 14.980408 15.022623 0 0 1 379.99219 248.16211 C 380.01581 248.16392 380.03888 248.16615 380.0625 248.16797 C 380.06521 248.16811 380.0676 248.16782 380.07031 248.16797 A 14.980408 15.022623 0 0 1 380.13672 248.17188 C 380.14794 248.17278 380.16065 248.17305 380.17188 248.17383 C 380.30655 248.18327 380.44172 248.19505 380.57617 248.20703 L 380.59766 248.20898 C 380.69957 248.21797 380.8006 248.2258 380.90234 248.23633 A 14.980408 15.022623 0 0 1 381.01172 248.25 C 381.15843 248.26633 381.30683 248.28331 381.45312 248.30273 L 381.46875 248.30469 C 381.55644 248.3163 381.64492 248.329 381.73242 248.3418 L 381.75195 248.3457 C 381.80687 248.35369 381.86118 248.36097 381.91602 248.36914 A 14.980408 15.022623 0 0 1 381.95508 248.375 C 382.08335 248.39505 382.21007 248.41704 382.33789 248.43945 A 14.980408 15.022623 0 0 1 382.34766 248.44141 C 382.43837 248.45738 382.52865 248.47308 382.61914 248.49023 L 382.67969 248.50195 C 382.71456 248.50858 382.74836 248.51422 382.7832 248.52148 A 14.980408 15.022623 0 0 1 382.88672 248.54102 C 383.02092 248.56842 383.15354 248.59887 383.28711 248.62891 A 14.980408 15.022623 0 0 1 383.29102 248.62891 C 383.42515 248.6591 383.55796 248.69185 383.69141 248.72461 L 383.73633 248.73438 C 383.86324 248.7657 383.98899 248.79836 384.11523 248.83203 A 14.980408 15.022623 0 0 1 384.14258 248.83984 C 384.25568 248.87026 384.3699 248.90129 384.48242 248.93359 C 384.49708 248.93786 384.51073 248.94078 384.52539 248.94531 L 384.54883 248.95312 A 14.980408 15.022623 0 0 1 384.76172 249.01758 C 384.79591 249.02792 384.82917 249.03821 384.86328 249.04883 L 384.94922 249.07422 C 384.97573 249.08248 385.00083 249.09144 385.02734 249.09961 A 14.980408 15.022623 0 0 1 385.10938 249.125 C 385.20099 249.1544 385.29165 249.18417 385.38281 249.21484 L 385.41016 249.22461 C 385.53967 249.26807 385.66832 249.31141 385.79688 249.35742 A 14.980408 15.022623 0 0 1 385.91797 249.40234 A 14.980408 15.022623 0 0 1 386.05859 249.45508 C 386.05859 249.45508 386.06055 249.45508 386.06055 249.45508 C 386.11814 249.47668 386.177 249.49943 386.23438 249.52148 A 14.980408 15.022623 0 0 1 386.29102 249.54297 C 386.30323 249.54769 386.31591 249.55406 386.32812 249.55859 C 386.46194 249.61085 386.59591 249.66385 386.72852 249.71875 C 386.86823 249.77657 387.00623 249.83568 387.14453 249.89648 A 14.980408 15.022623 0 0 1 387.19531 249.91797 C 387.22741 249.93213 387.25898 249.94846 387.29102 249.96289 C 387.29753 249.96561 387.30421 249.96798 387.31055 249.9707 A 14.980408 15.022623 0 0 1 387.36719 249.99609 A 14.980408 15.022623 0 0 1 387.41602 250.01953 C 387.42353 250.02316 387.43221 250.02371 387.43945 250.02734 L 387.44922 250.0332 L 387.46094 250.03906 C 387.47044 250.04342 387.48064 250.0482 387.49023 250.05273 A 14.980408 15.022623 0 0 1 387.62305 250.11328 C 387.73897 250.16767 387.85393 250.22285 387.96875 250.2793 C 388.08113 250.33455 388.1934 250.39205 388.30469 250.44922 C 388.3065 250.45013 388.30874 250.45026 388.31055 250.45117 L 388.37305 250.48438 A 14.980408 15.022623 0 0 1 388.41016 250.50391 C 388.5231 250.56266 388.63433 250.62093 388.74609 250.68164 A 14.980408 15.022623 0 0 1 388.83594 250.73047 C 388.9271 250.7808 389.01711 250.83118 389.10742 250.88281 L 389.13672 250.90039 A 14.980408 15.022623 0 0 1 389.14648 250.90625 C 389.14983 250.90806 389.15263 250.91029 389.15625 250.91211 L 389.17188 250.91992 C 389.28465 250.98452 389.39635 251.05058 389.50781 251.11719 A 14.980408 15.022623 0 0 1 389.55859 251.14648 C 389.70776 251.23641 389.85524 251.32844 390.00195 251.42188 A 14.980408 15.022623 0 0 1 390.00781 251.42578 C 390.13235 251.50518 390.25619 251.58612 390.37891 251.66797 L 390.38672 251.67383 C 390.48282 251.73793 390.58082 251.80353 390.67578 251.86914 A 14.980408 15.022623 0 0 1 390.76758 251.93164 L 390.77539 251.9375 L 390.77734 251.9375 C 390.81317 251.96255 390.84716 251.98844 390.88281 252.01367 A 14.980408 15.022623 0 0 1 390.96094 252.07031 C 390.99544 252.095 391.03007 252.11967 391.06445 252.14453 L 391.07812 252.1543 C 391.19234 252.23705 391.30555 252.3214 391.41797 252.40625 A 14.980408 15.022623 0 0 1 391.47461 252.44922 C 391.4956 252.46519 391.51621 252.48003 391.53711 252.49609 A 14.980408 15.022623 0 0 1 391.55273 252.50781 C 391.63505 252.57123 391.71748 252.63665 391.79883 252.70117 A 14.980408 15.022623 0 0 1 391.9043 252.78516 C 391.98495 252.8499 392.0649 252.91654 392.14453 252.98242 L 392.1582 252.99219 C 392.2584 253.0751 392.35652 253.15947 392.45508 253.24414 A 14.980408 15.022623 0 0 1 392.5625 253.33789 C 392.62237 253.39017 392.68292 253.44319 392.74219 253.49609 C 392.7706 253.52141 392.79794 253.54677 392.82617 253.57227 C 392.89723 253.63636 392.97088 253.70065 393.04102 253.76562 L 393.02344 253.75195 C 393.17367 253.89071 393.3228 254.03109 393.46875 254.17383 L 393.49609 254.20117 C 393.56126 254.26505 393.62707 254.32992 393.69141 254.39453 C 393.70607 254.40923 393.71972 254.42466 393.73438 254.43945 A 14.980408 15.022623 0 0 1 393.77344 254.47852 C 393.81866 254.52453 393.86536 254.57082 393.91016 254.61719 L 393.91992 254.62891 C 393.9726 254.68354 394.02609 254.73779 394.07812 254.79297 A 14.980408 15.022623 0 0 1 394.0918 254.80664 C 394.18532 254.90596 394.27764 255.00842 394.36914 255.10938 A 14.980408 15.022623 0 0 1 394.48438 255.23828 C 394.64287 255.41598 394.79893 255.59487 394.95117 255.77734 A 14.980408 15.022623 0 0 1 394.99805 255.83594 C 395.02773 255.87191 395.05839 255.90715 395.08789 255.94336 L 395.12695 255.99414 C 395.16792 256.04452 395.20955 256.09576 395.25 256.14648 L 395.27344 256.17383 C 395.35188 256.27234 395.42921 256.37289 395.50586 256.47266 A 14.980408 15.022623 0 0 1 395.56055 256.54297 C 395.63137 256.63631 395.70226 256.72983 395.77148 256.82422 C 395.93741 257.04985 396.09717 257.27842 396.25391 257.50977 C 396.25572 257.51249 396.25796 257.51486 396.25977 257.51758 L 396.27344 257.53711 A 14.980408 15.022623 0 0 1 396.37305 257.6875 C 396.43407 257.77996 396.49514 257.87349 396.55469 257.9668 L 396.57617 258 C 396.57798 258.00336 396.57827 258.00614 396.58008 258.00977 A 14.980408 15.022623 0 0 1 396.63281 258.08984 C 396.66828 258.14609 396.70335 258.20128 396.73828 258.25781 A 14.980408 15.022623 0 0 1 396.79883 258.35156 C 396.84074 258.42021 396.8807 258.49149 396.92188 258.56055 L 396.96289 258.62891 C 396.9647 258.63163 396.96694 258.634 396.96875 258.63672 A 14.980408 15.022623 0 0 1 397.00195 258.69531 C 397.17905 258.99727 397.34773 259.30201 397.50977 259.61133 C 397.55063 259.68913 397.59291 259.76748 397.63281 259.8457 A 14.980408 15.022623 0 0 1 397.63477 259.84961 C 397.70107 259.97967 397.76451 260.10901 397.82812 260.24023 A 14.980408 15.022623 0 0 1 397.85156 260.28906 C 397.90471 260.39967 397.95855 260.51165 398.00977 260.62305 A 14.980408 15.022623 0 0 1 398.02344 260.6543 C 398.03176 260.67236 398.03873 260.69093 398.04688 260.70898 L 398.05078 260.7168 C 398.10183 260.829 398.15203 260.94173 398.20117 261.05469 L 398.20508 261.0625 C 398.25283 261.17239 398.29982 261.28395 398.3457 261.39453 A 14.980408 15.022623 0 0 1 398.42188 261.58008 L 398.45508 261.66016 C 398.46234 261.67831 398.46932 261.69667 398.47656 261.71484 C 398.48923 261.74667 398.50118 261.77869 398.51367 261.81055 A 14.980408 15.022623 0 0 1 398.51562 261.82227 L 398.51953 261.83008 A 14.980408 15.022623 0 0 1 398.5332 261.86133 C 398.58495 261.99441 398.63446 262.12777 398.68359 262.26172 L 398.68555 262.26758 C 398.73485 262.40214 398.78543 262.53648 398.83203 262.67188 A 14.980408 15.022623 0 0 1 398.9043 262.88867 L 398.92578 262.95898 C 398.93583 262.98953 398.94708 263.0202 398.95703 263.05078 A 14.980408 15.022623 0 0 1 399.33594 264.44336 L 399.18164 263.74609 L 410.83008 299.65039 L 435.83789 299.65039 C 439.21818 285.65464 441.02148 271.04113 441.02148 256 C 441.02148 153.76194 358.28482 71.021484 256 71.021484 z M 377.40039 343.15625 L 370.80078 363.50195 L 378.72461 370.83203 L 386.65039 363.50195 L 380.04883 343.15625 L 377.40039 343.15625 z "
       style="color:#000000;font-style:normal;font-variant:normal;font-weight:normal;font-stretch:normal;font-size:medium;line-height:normal;font-family:sans-serif;font-variant-ligatures:normal;font-variant-position:normal;font-variant-caps:normal;font-variant-numeric:normal;font-variant-alternates:normal;font-variant-east-asian:normal;font-feature-settings:normal;font-variation-settings:normal;text-indent:0;text-align:start;text-decoration:none;text-decoration-line:none;text-decoration-style:solid;text-decoration-color:#000000;letter-spacing:normal;word-spacing:normal;text-transform:none;writing-mode:lr-tb;direction:ltr;text-orientation:mixed;dominant-baseline:auto;baseline-shift:baseline;text-anchor:start;white-space:normal;shape-padding:0;shape-margin:0;inline-size:0;clip-rule:nonzero;display:inline;overflow:visible;visibility:visible;isolation:auto;mix-blend-mode:normal;color-interpolation:sRGB;color-interpolation-filters:linearRGB;solid-color:#000000;solid-opacity:1;vector-effect:none;fill:#ffffff;fill-opacity:1;fill-rule:evenodd;stroke:none;stroke-width:15.0001;stroke-linecap:round;stroke-linejoin:round;stroke-miterlimit:4;stroke-dasharray:none;stroke-dashoffset:0;stroke-opacity:1;paint-order:normal;color-rendering:auto;image-rendering:auto;shape-rendering:auto;text-rendering:auto;enable-background:accumulate;stop-color:#000000"
       id="path838" />
    <path
       style="color:#000000;font-style:normal;font-variant:normal;font-weight:normal;font-stretch:normal;font-size:medium;line-height:normal;font-family:sans-serif;font-variant-ligatures:normal;font-variant-position:normal;font-variant-caps:normal;font-variant-numeric:normal;font-variant-alternates:normal;font-variant-east-asian:normal;font-feature-settings:normal;font-variation-settings:normal;text-indent:0;text-align:start;text-decoration:none;text-decoration-line:none;text-decoration-style:solid;text-decoration-color:#000000;letter-spacing:normal;word-spacing:normal;text-transform:none;writing-mode:lr-tb;direction:ltr;text-orientation:mixed;dominant-baseline:auto;baseline-shift:baseline;text-anchor:start;white-space:normal;shape-padding:0;shape-margin:0;inline-size:0;clip-rule:nonzero;display:inline;overflow:visible;visibility:visible;isolation:auto;mix-blend-mode:normal;color-interpolation:sRGB;color-interpolation-filters:linearRGB;solid-color:#000000;solid-opacity:1;vector-effect:none;fill:#ffffff;fill-opacity:1;fill-rule:nonzero;stroke:none;stroke-width:33.1057;stroke-linecap:butt;stroke-linejoin:round;stroke-miterlimit:4;stroke-dasharray:none;stroke-dashoffset:0;stroke-opacity:1;paint-order:stroke fill markers;color-rendering:auto;image-rendering:auto;shape-rendering:auto;text-rendering:auto;enable-background:accumulate;stop-color:#000000"
       d="m 392.98994,247.37842 c -0.0407,2.9e-4 -0.0815,9.6e-4 -0.1222,0.002 -0.0482,8.1e-4 -0.0963,0.002 -0.14449,0.004 -0.0187,0.001 -0.0375,0.003 -0.0562,0.004 -0.022,0.001 -0.0441,0.003 -0.0661,0.004 -0.007,6.5e-4 -0.0149,0.001 -0.0223,0.002 -0.0482,0.003 -0.0964,0.007 -0.1445,0.0114 -0.0479,0.004 -0.0958,0.009 -0.14366,0.014 -0.0408,0.005 -0.0815,0.01 -0.1222,0.0149 -0.0325,0.004 -0.065,0.009 -0.0974,0.014 -0.0629,0.009 -0.12564,0.019 -0.18826,0.0298 -0.035,0.006 -0.07,0.0126 -0.10486,0.0193 -0.0176,0.003 -0.0352,0.007 -0.0528,0.0105 -0.009,0.002 -0.0176,0.003 -0.0264,0.005 -0.0408,0.008 -0.0815,0.0172 -0.1222,0.0263 -0.0433,0.01 -0.0865,0.02 -0.12964,0.0306 0,0 -0.0116,0.003 -0.0116,0.003 -0.0397,0.01 -0.0794,0.02 -0.11891,0.0306 -0.0342,0.009 -0.0683,0.0184 -0.10238,0.028 -0.0177,0.005 -0.0353,0.01 -0.0529,0.0149 -0.0113,0.003 -0.0225,0.007 -0.0338,0.0105 -0.0361,0.0108 -0.0722,0.0219 -0.10816,0.0333 0,0 -0.003,9e-4 -0.003,9e-4 -0.0389,0.0125 -0.0777,0.0253 -0.11642,0.0385 -0.0212,0.007 -0.0424,0.0145 -0.0636,0.0219 -0.0317,0.0109 -0.0633,0.022 -0.0949,0.0333 -0.0395,0.0145 -0.0788,0.0294 -0.11809,0.0447 -0.006,0.002 -0.0121,0.005 -0.0182,0.007 -0.0384,0.0151 -0.0766,0.0306 -0.11477,0.0464 -0.0378,0.0157 -0.0756,0.0318 -0.11312,0.0482 -0.0113,0.005 -0.0226,0.009 -0.0339,0.014 -0.009,0.004 -0.0171,0.008 -0.0256,0.0114 -0.0317,0.014 -0.0634,0.0284 -0.0949,0.0429 -0.007,0.003 -0.0132,0.007 -0.0198,0.01 -0.0398,0.0186 -0.0794,0.0375 -0.1189,0.0569 -0.0215,0.0107 -0.043,0.0215 -0.0644,0.0324 -0.0198,0.01 -0.0396,0.0198 -0.0594,0.0298 -0.007,0.003 -0.0132,0.007 -0.0198,0.0105 -0.0415,0.0215 -0.0828,0.0434 -0.12386,0.0657 -0.009,0.005 -0.0176,0.01 -0.0264,0.0149 -0.0293,0.0161 -0.0584,0.0325 -0.0875,0.049 -0.006,0.004 -0.0127,0.008 -0.019,0.0114 -0.0423,0.0243 -0.0845,0.0491 -0.12633,0.0744 -0.0354,0.0213 -0.0706,0.0429 -0.10569,0.0648 -0.006,0.004 -0.0127,0.008 -0.019,0.0122 -0.0415,0.0264 -0.0828,0.0533 -0.12385,0.0806 -0.0407,0.027 -0.0812,0.0544 -0.12138,0.0823 -0.0405,0.0282 -0.0806,0.0568 -0.12055,0.0858 -0.0388,0.0282 -0.0773,0.0568 -0.1156,0.0858 0,0 -0.003,0.002 -0.003,0.002 -0.0333,0.0254 -0.0663,0.0511 -0.0991,0.0771 -0.0171,0.0134 -0.0342,0.0268 -0.0512,0.0403 -0.0274,0.022 -0.0546,0.0441 -0.0817,0.0665 -0.0347,0.0286 -0.0691,0.0575 -0.10321,0.0867 -0.0221,0.0194 -0.0441,0.039 -0.066,0.0587 -0.0163,0.0142 -0.0325,0.0285 -0.0487,0.0429 -0.007,0.006 -0.0143,0.0128 -0.0215,0.0193 -0.026,0.0234 -0.0519,0.0471 -0.0776,0.0709 -0.006,0.005 -0.011,0.0105 -0.0165,0.0158 -0.0305,0.0286 -0.0608,0.0575 -0.0908,0.0867 -0.006,0.006 -0.011,0.0111 -0.0165,0.0166 -0.0353,0.0346 -0.0702,0.0697 -0.10486,0.10508 -0.0325,0.0332 -0.0647,0.0668 -0.0966,0.10071 -0.007,0.008 -0.0149,0.0152 -0.0223,0.0228 -0.0286,0.031 -0.0569,0.0622 -0.085,0.0937 -0.0283,0.0313 -0.0564,0.0628 -0.0842,0.0946 -0.005,0.006 -0.01,0.0117 -0.0149,0.0175 -0.0275,0.0318 -0.0547,0.064 -0.0817,0.0963 -0.0261,0.0313 -0.052,0.0628 -0.0776,0.0946 -0.007,0.008 -0.0138,0.0169 -0.0206,0.0254 -0.0217,0.0273 -0.0431,0.0547 -0.0644,0.0823 -0.0105,0.0134 -0.021,0.0268 -0.0314,0.0403 0,0 -0.007,0.01 -0.007,0.01 -0.0256,0.0336 -0.051,0.0675 -0.076,0.10159 -0.0293,0.0397 -0.0582,0.0797 -0.0867,0.11997 0,0 -0.002,0.002 -0.002,0.002 -0.004,0.006 -0.009,0.0123 -0.0132,0.0184 -0.0242,0.0348 -0.0482,0.0698 -0.0718,0.10508 -0.0203,0.0302 -0.0404,0.0606 -0.0603,0.0911 -0.01,0.0149 -0.0193,0.0298 -0.0289,0.0447 -0.0136,0.0212 -0.0271,0.0425 -0.0405,0.0639 -0.0136,0.0212 -0.0271,0.0425 -0.0405,0.0639 -0.0192,0.0314 -0.0382,0.0629 -0.057,0.0946 -0.005,0.009 -0.0105,0.0175 -0.0157,0.0263 -0.004,0.006 -0.007,0.0117 -0.0107,0.0175 -0.0215,0.0369 -0.0427,0.0739 -0.0636,0.11122 -0.0108,0.0189 -0.0215,0.0379 -0.0322,0.0569 -0.0176,0.032 -0.0349,0.0641 -0.052,0.0963 -0.0221,0.0412 -0.0438,0.0827 -0.0652,0.12436 -0.009,0.0169 -0.0171,0.0338 -0.0256,0.0508 -0.0122,0.0245 -0.0243,0.049 -0.0363,0.0736 -0.003,0.007 -0.007,0.014 -0.01,0.021 -0.0406,0.0839 -0.0797,0.16852 -0.11725,0.25396 0,0 0,9e-4 0,9e-4 -0.009,0.021 -0.0182,0.042 -0.0272,0.0631 -0.014,0.0326 -0.0278,0.0653 -0.0413,0.0981 -0.0163,0.0395 -0.0323,0.0793 -0.0479,0.11909 -0.018,0.0456 -0.0356,0.0915 -0.0528,0.13749 0,0 -0.003,0.005 -0.003,0.005 -0.002,0.007 -0.005,0.014 -0.007,0.021 -0.0146,0.0404 -0.0289,0.081 -0.0429,0.12173 -0.0156,0.0451 -0.0307,0.0903 -0.0454,0.13574 0,0 -0.003,0.009 -0.003,0.009 l -0.006,0.0175 c 0,0 -0.003,0.007 -0.003,0.007 l -16.83611,51.75036 h -70.6749 c -6.47047,0.002 -9.47288,8.51728 -4.59166,13.02212 l 54.6334,50.39393 -29.27812,89.98836 c -2.33391,7.18035 5.80197,13.00377 11.20708,8.02169 l 62.16369,-57.33935 62.16452,57.33935 c 5.40511,4.98208 13.54099,-0.84134 11.20708,-8.02169 l -29.27812,-89.98836 54.63339,-50.39393 c 4.88122,-4.50484 1.87881,-13.0198 -4.59166,-13.02212 H 416.4834 l -16.83746,-51.75131 -8.9e-4,-0.004 c -0.0129,-0.0395 -0.0261,-0.0789 -0.0396,-0.11823 -0.003,-0.008 -0.005,-0.0163 -0.008,-0.0245 -0.0166,-0.0481 -0.0337,-0.0959 -0.0512,-0.14362 -0.0174,-0.0475 -0.0353,-0.0948 -0.0537,-0.14186 -0.0133,-0.0337 -0.0268,-0.0673 -0.0405,-0.10071 -0.007,-0.0173 -0.0137,-0.0345 -0.0206,-0.0517 0,0 -0.004,-0.0105 -0.004,-0.0105 -0.0165,-0.0396 -0.0333,-0.079 -0.0504,-0.11823 -0.0202,-0.0463 -0.0408,-0.0925 -0.0619,-0.13836 -0.003,-0.007 -0.007,-0.0146 -0.01,-0.0219 -0.0179,-0.0387 -0.036,-0.0772 -0.0545,-0.11559 -0.0221,-0.0455 -0.0447,-0.0907 -0.0677,-0.13574 -0.0171,-0.0334 -0.0344,-0.0667 -0.052,-0.0998 -0.0562,-0.1069 -0.11479,-0.21231 -0.17586,-0.31614 -0.005,-0.009 -0.0104,-0.0175 -0.0157,-0.0263 -0.0188,-0.0317 -0.0378,-0.0632 -0.057,-0.0946 -0.007,-0.0105 -0.0137,-0.021 -0.0206,-0.0315 -0.022,-0.0355 -0.0443,-0.0709 -0.0669,-0.10597 -0.0228,-0.0358 -0.046,-0.0714 -0.0694,-0.10684 -0.004,-0.006 -0.009,-0.0129 -0.0132,-0.0193 -0.0562,-0.083 -0.11401,-0.16475 -0.1734,-0.24521 -0.0269,-0.0368 -0.0541,-0.0732 -0.0817,-0.10947 -0.0286,-0.0371 -0.0575,-0.0739 -0.0867,-0.11034 -0.0215,-0.027 -0.0433,-0.0539 -0.0652,-0.0806 -0.0145,-0.0179 -0.0291,-0.0357 -0.0438,-0.0534 -0.0561,-0.0671 -0.11337,-0.13305 -0.17174,-0.19792 -0.004,-0.005 -0.008,-0.009 -0.0124,-0.014 -0.004,-0.005 -0.008,-0.009 -0.0124,-0.014 -0.0308,-0.0339 -0.0619,-0.0675 -0.0933,-0.10071 -0.0186,-0.0197 -0.0374,-0.0393 -0.0562,-0.0587 -0.0162,-0.0167 -0.0324,-0.0333 -0.0487,-0.0499 0,0 -0.007,-0.007 -0.007,-0.007 -0.0295,-0.0297 -0.0592,-0.0592 -0.0892,-0.0884 -0.0519,-0.0508 -0.10442,-0.10068 -0.1577,-0.14975 -0.0252,-0.0233 -0.0505,-0.0463 -0.076,-0.0692 -0.0311,-0.028 -0.0625,-0.0558 -0.0941,-0.0832 0,0 -0.01,-0.009 -0.01,-0.009 -0.0342,-0.0292 -0.0686,-0.0581 -0.10321,-0.0867 -0.038,-0.0314 -0.0762,-0.0623 -0.11477,-0.0928 -0.006,-0.005 -0.0115,-0.009 -0.0173,-0.014 -0.0268,-0.0212 -0.0538,-0.0423 -0.0809,-0.0631 -0.007,-0.005 -0.0138,-0.0106 -0.0207,-0.0158 -0.0385,-0.029 -0.0773,-0.0576 -0.11642,-0.0858 -0.0331,-0.0239 -0.0664,-0.0476 -0.0999,-0.0709 -0.01,-0.007 -0.0192,-0.014 -0.0289,-0.021 0,0 -0.01,-0.007 -0.01,-0.007 -0.0339,-0.0234 -0.0681,-0.0465 -0.10238,-0.0692 -0.041,-0.0273 -0.0823,-0.0542 -0.12385,-0.0806 -0.0478,-0.0304 -0.096,-0.0601 -0.1445,-0.0893 -0.0389,-0.0232 -0.078,-0.0459 -0.11725,-0.0683 -0.009,-0.005 -0.0187,-0.0106 -0.0281,-0.0158 -0.0362,-0.0208 -0.0725,-0.0412 -0.10899,-0.0613 -0.0362,-0.0196 -0.0725,-0.0389 -0.10899,-0.0578 -0.007,-0.004 -0.0138,-0.007 -0.0207,-0.0105 -0.0433,-0.0224 -0.0868,-0.0443 -0.13046,-0.0657 -0.037,-0.0181 -0.0742,-0.0359 -0.11147,-0.0534 0,0 -0.01,-0.004 -0.01,-0.004 -0.0162,-0.007 -0.0324,-0.0147 -0.0487,-0.0219 -0.0316,-0.0146 -0.0632,-0.0289 -0.095,-0.0429 -0.0444,-0.0195 -0.089,-0.0384 -0.13377,-0.0569 -0.0441,-0.0183 -0.0885,-0.0361 -0.13293,-0.0534 -0.009,-0.003 -0.0171,-0.007 -0.0256,-0.01 -0.0335,-0.0128 -0.0671,-0.0254 -0.10073,-0.0377 -0.004,-0.002 -0.009,-0.003 -0.0132,-0.005 -0.0526,-0.0188 -0.10549,-0.0369 -0.15853,-0.0543 -0.0319,-0.0107 -0.0638,-0.0212 -0.0958,-0.0315 -0.0324,-0.0102 -0.0649,-0.0201 -0.0974,-0.0298 -0.0198,-0.006 -0.0396,-0.0124 -0.0594,-0.0184 -0.005,-0.001 -0.009,-0.003 -0.014,-0.004 -0.0428,-0.0124 -0.0858,-0.0244 -0.1288,-0.0359 -0.0469,-0.0125 -0.094,-0.0245 -0.1412,-0.0359 -0.047,-0.0116 -0.094,-0.0227 -0.14119,-0.0333 -0.0423,-0.009 -0.0847,-0.0185 -0.12716,-0.0272 -0.0173,-0.003 -0.0346,-0.007 -0.052,-0.01 -0.0349,-0.007 -0.0699,-0.0131 -0.10486,-0.0193 -0.0404,-0.007 -0.0809,-0.0138 -0.12137,-0.0201 -0.0237,-0.004 -0.0473,-0.007 -0.071,-0.0105 -0.0313,-0.005 -0.0627,-0.009 -0.0941,-0.0131 -0.0478,-0.006 -0.0957,-0.0122 -0.14367,-0.0175 -0.0404,-0.004 -0.0809,-0.008 -0.12138,-0.0114 -0.0481,-0.004 -0.0963,-0.008 -0.14449,-0.0114 -0.0294,-0.002 -0.0589,-0.004 -0.0883,-0.005 -0.0187,-0.001 -0.0375,-0.003 -0.0562,-0.004 -0.0481,-0.002 -0.0963,-0.003 -0.1445,-0.004 -0.0407,-0.001 -0.0815,-0.002 -0.1222,-0.002 -0.0223,-1.1e-4 -0.0446,-1.1e-4 -0.0669,0 z m 0.033,30.17418 8.6557,26.6012 H 384.3681 Z m -75.42423,41.44484 h 47.13531 l -10.88093,33.44066 z m 61.93992,0 h 26.96951 l 14.29763,43.94505 -27.7828,25.62564 -27.78198,-25.62564 z m 41.77412,0 h 47.13531 l -36.25438,33.44066 z m -60.99451,59.07593 22.04177,20.33097 -40.94346,37.7659 z m 65.41029,0 18.90169,58.09687 -40.94347,-37.7659 z"
       id="path846" />
  </g>
</svg>
