<?xml version="1.0" encoding="UTF-8" standalone="no"?>
<svg
   xmlns:dc="http://purl.org/dc/elements/1.1/"
   xmlns:cc="http://creativecommons.org/ns#"
   xmlns:rdf="http://www.w3.org/1999/02/22-rdf-syntax-ns#"
   xmlns:svg="http://www.w3.org/2000/svg"
   xmlns="http://www.w3.org/2000/svg"
   xmlns:sodipodi="http://sodipodi.sourceforge.net/DTD/sodipodi-0.dtd"
   xmlns:inkscape="http://www.inkscape.org/namespaces/inkscape"
   inkscape:version="1.0 (4035a4fb49, 2020-05-01)"
   sodipodi:docname="ilaris-fvtt_magic-ritual_white.svg"
   id="svg5"
   version="1.1"
   height="512"
   width="512"
   viewBox="0 0 512 512">
  <metadata
     id="metadata11">
    <rdf:RDF>
      <cc:Work
         rdf:about="">
        <dc:format>image/svg+xml</dc:format>
        <dc:type
           rdf:resource="http://purl.org/dc/dcmitype/StillImage" />
        <dc:title></dc:title>
        <cc:license
           rdf:resource="http://creativecommons.org/publicdomain/zero/1.0/" />
      </cc:Work>
      <cc:License
         rdf:about="http://creativecommons.org/publicdomain/zero/1.0/">
        <cc:permits
           rdf:resource="http://creativecommons.org/ns#Reproduction" />
        <cc:permits
           rdf:resource="http://creativecommons.org/ns#Distribution" />
        <cc:permits
           rdf:resource="http://creativecommons.org/ns#DerivativeWorks" />
      </cc:License>
    </rdf:RDF>
  </metadata>
  <defs
     id="defs9" />
  <sodipodi:namedview
     inkscape:current-layer="g987"
     inkscape:window-maximized="1"
     inkscape:window-y="-11"
     inkscape:window-x="-11"
     inkscape:cy="289.06768"
     inkscape:cx="265.04283"
     inkscape:zoom="1.7111432"
     showgrid="false"
     id="namedview7"
     inkscape:window-height="2066"
     inkscape:window-width="3840"
     inkscape:pageshadow="2"
     inkscape:pageopacity="0.61960784"
     guidetolerance="10"
     gridtolerance="10"
     objecttolerance="10"
     borderopacity="1"
     bordercolor="#666666"
     pagecolor="#323232"
     inkscape:document-rotation="0"
     borderlayer="false"
     inkscape:showpageshadow="false"
     showguides="true"
     inkscape:guide-bbox="true"
     guidecolor="#00ff00"
     guideopacity="0.49803922">
    <sodipodi:guide
       position="256,256"
       orientation="-1,0"
       id="guide869"
       inkscape:label=""
       inkscape:locked="false"
       inkscape:color="rgb(0,255,0)" />
    <sodipodi:guide
       position="256,256"
       orientation="0,1"
       id="guide905"
       inkscape:label=""
       inkscape:locked="false"
       inkscape:color="rgb(0,255,0)" />
  </sodipodi:namedview>
  <filter
     id="shadow">
    <feDropShadow
       stdDeviation="6"
       dy="12"
       dx="6" />
  </filter>
  <g
     id="g987"
     transform="matrix(0.90491517,0,0,0.90746524,23.072155,38.656116)"
     style="stroke-width:1.54493;stroke-miterlimit:4;stroke-dasharray:none">
    <path
       sodipodi:nodetypes="scccscccsccsccccccccccc"
       transform="matrix(1.105076,0,0,1.1019706,-25.496484,-42.597903)"
       d="m 256,71.021484 c -30.14047,10e-7 -58.58034,7.190622 -83.70898,19.941407 L 256,161.34961 339.70898,90.962891 C 314.5801,78.212106 286.14047,71.021484 256,71.021484 Z m 145.82422,71.046876 -38.95508,109.14453 70.10352,58.94531 c 5.22834,-17.12705 8.04882,-35.30943 8.04882,-54.1582 0,-42.9935 -14.634,-82.53713 -39.19726,-113.93164 z m -291.64844,0.002 C 85.613896,173.46449 70.980469,213.00745 70.980469,256 c 0,18.84892 2.820508,37.03103 8.048828,54.1582 l 70.099613,-58.94531 z m 16.19727,245.96875 c 24.11786,23.66912 54.69897,40.77459 88.8789,48.43946 l -17.28711,-48.43946 z m 187.66211,0 -17.28711,48.43946 c 34.17991,-7.66482 64.76075,-24.77054 88.8789,-48.43946 z"
       style="color:#000000;font-style:normal;font-variant:normal;font-weight:normal;font-stretch:normal;font-size:medium;line-height:normal;font-family:sans-serif;font-variant-ligatures:normal;font-variant-position:normal;font-variant-caps:normal;font-variant-numeric:normal;font-variant-alternates:normal;font-variant-east-asian:normal;font-feature-settings:normal;font-variation-settings:normal;text-indent:0;text-align:start;text-decoration:none;text-decoration-line:none;text-decoration-style:solid;text-decoration-color:#000000;letter-spacing:normal;word-spacing:normal;text-transform:none;writing-mode:lr-tb;direction:ltr;text-orientation:mixed;dominant-baseline:auto;baseline-shift:baseline;text-anchor:start;white-space:normal;shape-padding:0;shape-margin:0;inline-size:0;clip-rule:nonzero;display:inline;overflow:visible;visibility:visible;isolation:auto;mix-blend-mode:normal;color-interpolation:sRGB;color-interpolation-filters:linearRGB;solid-color:#000000;solid-opacity:1;vector-effect:none;fill:#ffffff;fill-opacity:1;fill-rule:evenodd;stroke:none;stroke-width:15.0001;stroke-linecap:round;stroke-linejoin:round;stroke-miterlimit:4;stroke-dasharray:none;stroke-dashoffset:0;stroke-opacity:1;paint-order:normal;color-rendering:auto;image-rendering:auto;shape-rendering:auto;text-rendering:auto;enable-background:accumulate;stop-color:#000000"
       id="path838" />
    <path
       style="color:#000000;font-style:normal;font-variant:normal;font-weight:normal;font-stretch:normal;font-size:medium;line-height:normal;font-family:sans-serif;font-variant-ligatures:normal;font-variant-position:normal;font-variant-caps:normal;font-variant-numeric:normal;font-variant-alternates:normal;font-variant-east-asian:normal;font-feature-settings:normal;font-variation-settings:normal;text-indent:0;text-align:start;text-decoration:none;text-decoration-line:none;text-decoration-style:solid;text-decoration-color:#000000;letter-spacing:normal;word-spacing:normal;text-transform:none;writing-mode:lr-tb;direction:ltr;text-orientation:mixed;dominant-baseline:auto;baseline-shift:baseline;text-anchor:start;white-space:normal;shape-padding:0;shape-margin:0;inline-size:0;clip-rule:nonzero;display:inline;overflow:visible;visibility:visible;isolation:auto;mix-blend-mode:normal;color-interpolation:sRGB;color-interpolation-filters:linearRGB;solid-color:#000000;solid-opacity:1;vector-effect:none;fill:#ffffff;fill-opacity:1;fill-rule:nonzero;stroke:none;stroke-width:33.1056;stroke-linecap:butt;stroke-linejoin:round;stroke-miterlimit:4;stroke-dasharray:none;stroke-dashoffset:0;stroke-opacity:1;paint-order:stroke fill markers;color-rendering:auto;image-rendering:auto;shape-rendering:auto;text-rendering:auto;enable-background:accumulate;stop-color:#000000"
       d="m 257.32816,483.90597 c -0.0911,-5.7e-4 -0.18225,-0.002 -0.27335,-0.004 -0.10777,-0.002 -0.21551,-0.005 -0.32321,-0.009 -0.0419,-0.002 -0.0837,-0.005 -0.1256,-0.007 -0.0493,-0.002 -0.0985,-0.004 -0.14775,-0.007 -0.0166,-10e-4 -0.0332,-0.003 -0.0498,-0.004 -0.10782,-0.007 -0.21557,-0.0143 -0.32322,-0.0231 -0.10722,-0.008 -0.21434,-0.0179 -0.32136,-0.0285 -0.0912,-0.009 -0.18233,-0.0194 -0.27335,-0.0303 -0.0727,-0.009 -0.14536,-0.0185 -0.21794,-0.0285 -0.14065,-0.0184 -0.28103,-0.0386 -0.42111,-0.0606 -0.0783,-0.0125 -0.15648,-0.0256 -0.23456,-0.0392 -0.0394,-0.007 -0.0788,-0.0141 -0.11821,-0.0214 -0.0197,-0.004 -0.0394,-0.007 -0.0591,-0.0107 -0.0913,-0.017 -0.18239,-0.0348 -0.27334,-0.0534 -0.0969,-0.0199 -0.19352,-0.0407 -0.28997,-0.0623 0,0 -0.0259,-0.005 -0.0259,-0.005 -0.0888,-0.02 -0.1775,-0.0408 -0.26597,-0.0623 -0.0765,-0.0184 -0.15282,-0.0374 -0.22901,-0.057 -0.0394,-0.01 -0.0789,-0.0201 -0.11821,-0.0303 -0.0252,-0.007 -0.0505,-0.0142 -0.0757,-0.0214 -0.0808,-0.0219 -0.16149,-0.0444 -0.24195,-0.0676 0,0 -0.007,-0.002 -0.007,-0.002 -0.087,-0.0254 -0.17385,-0.0515 -0.26042,-0.0783 -0.0475,-0.0146 -0.0949,-0.0295 -0.14221,-0.0446 -0.071,-0.0221 -0.14177,-0.0446 -0.2124,-0.0677 -0.0883,-0.0295 -0.17637,-0.0598 -0.26413,-0.0909 -0.0136,-0.005 -0.0271,-0.01 -0.0407,-0.0143 -0.0859,-0.0307 -0.17144,-0.0622 -0.25673,-0.0944 -0.0846,-0.032 -0.16898,-0.0646 -0.25303,-0.098 -0.0253,-0.009 -0.0506,-0.0189 -0.0758,-0.0285 -0.0191,-0.008 -0.0382,-0.0154 -0.0573,-0.0231 -0.071,-0.0286 -0.14182,-0.0577 -0.2124,-0.0873 -0.0148,-0.007 -0.0295,-0.013 -0.0443,-0.0196 -0.089,-0.0378 -0.17768,-0.0764 -0.26596,-0.11574 -0.0481,-0.0217 -0.0962,-0.0437 -0.14406,-0.0659 -0.0444,-0.02 -0.0888,-0.0402 -0.13298,-0.0606 -0.0148,-0.007 -0.0296,-0.0142 -0.0443,-0.0214 -0.0928,-0.0436 -0.18516,-0.0882 -0.27705,-0.13355 -0.0197,-0.0101 -0.0394,-0.0202 -0.0591,-0.0303 -0.0655,-0.0328 -0.13076,-0.066 -0.19578,-0.0997 -0.0142,-0.008 -0.0283,-0.0154 -0.0425,-0.0231 -0.0947,-0.0495 -0.18893,-0.1 -0.28258,-0.15137 -0.0792,-0.0433 -0.15801,-0.0872 -0.23641,-0.13177 -0.0142,-0.008 -0.0283,-0.0166 -0.0425,-0.0249 -0.0929,-0.0537 -0.18528,-0.1083 -0.27704,-0.16383 -0.0911,-0.0549 -0.1816,-0.1107 -0.27151,-0.16739 -0.0905,-0.0573 -0.18039,-0.11544 -0.26965,-0.1745 -0.0868,-0.0573 -0.17299,-0.11551 -0.25857,-0.17452 0,0 -0.006,-0.004 -0.006,-0.004 -0.0743,-0.0516 -0.14823,-0.10384 -0.22163,-0.1567 -0.0383,-0.0271 -0.0765,-0.0544 -0.11452,-0.0819 -0.0613,-0.0447 -0.12224,-0.0898 -0.18284,-0.13533 -0.0775,-0.0581 -0.15449,-0.11683 -0.23087,-0.17629 -0.0495,-0.0395 -0.0988,-0.0793 -0.14775,-0.11931 -0.0365,-0.0289 -0.0728,-0.058 -0.10897,-0.0873 -0.0161,-0.013 -0.0321,-0.0261 -0.0481,-0.0392 -0.0582,-0.0477 -0.11611,-0.0958 -0.17362,-0.14424 -0.0123,-0.0107 -0.0247,-0.0213 -0.037,-0.032 -0.0683,-0.0582 -0.13598,-0.11696 -0.20317,-0.1763 -0.0123,-0.0113 -0.0247,-0.0225 -0.037,-0.0338 -0.0789,-0.0704 -0.15714,-0.14168 -0.23456,-0.21369 -0.0727,-0.0676 -0.14475,-0.13586 -0.2161,-0.20479 -0.0166,-0.0154 -0.0332,-0.0308 -0.0498,-0.0463 -0.064,-0.063 -0.12741,-0.12649 -0.19024,-0.19054 -0.0634,-0.0636 -0.12617,-0.12768 -0.18838,-0.19232 -0.0111,-0.0119 -0.0222,-0.0237 -0.0333,-0.0356 -0.0615,-0.0648 -0.12249,-0.13007 -0.18285,-0.19588 -0.0584,-0.0636 -0.1163,-0.12774 -0.1736,-0.19232 -0.0154,-0.0172 -0.0308,-0.0344 -0.0461,-0.0516 -0.0484,-0.0555 -0.0965,-0.11125 -0.14407,-0.16738 -0.0235,-0.0272 -0.0469,-0.0545 -0.0702,-0.0819 0,0 -0.0166,-0.0196 -0.0166,-0.0196 -0.0573,-0.0684 -0.11391,-0.13723 -0.16993,-0.20656 -0.0655,-0.0807 -0.13014,-0.16201 -0.19392,-0.24397 0,0 -0.004,-0.004 -0.004,-0.004 -0.01,-0.0125 -0.0197,-0.0249 -0.0295,-0.0374 -0.0542,-0.0708 -0.10777,-0.142 -0.16068,-0.21368 -0.0454,-0.0614 -0.0904,-0.12315 -0.13483,-0.18521 -0.0217,-0.0302 -0.0433,-0.0605 -0.0647,-0.0909 -0.0304,-0.0432 -0.0606,-0.0865 -0.0905,-0.12999 -0.0304,-0.0432 -0.0606,-0.0865 -0.0905,-0.12999 -0.043,-0.0638 -0.0855,-0.1279 -0.12743,-0.19232 -0.0117,-0.0178 -0.0234,-0.0356 -0.0351,-0.0534 -0.008,-0.0119 -0.016,-0.0237 -0.024,-0.0356 -0.0481,-0.075 -0.0955,-0.15037 -0.14222,-0.22615 -0.0242,-0.0385 -0.0482,-0.0771 -0.0721,-0.11575 -0.0393,-0.065 -0.0781,-0.1303 -0.11635,-0.19587 -0.0495,-0.0838 -0.0981,-0.16813 -0.14592,-0.25287 -0.0192,-0.0344 -0.0383,-0.0688 -0.0573,-0.10328 -0.0274,-0.0497 -0.0544,-0.0996 -0.0812,-0.14958 -0.007,-0.0142 -0.0148,-0.0285 -0.0221,-0.0427 -0.0908,-0.17052 -0.17826,-0.34268 -0.26227,-0.51641 0,0 0,-0.002 0,-0.002 -0.0205,-0.0426 -0.0408,-0.0854 -0.0609,-0.12821 -0.0313,-0.0663 -0.0621,-0.13275 -0.0924,-0.19944 -0.0364,-0.0804 -0.0721,-0.16116 -0.10713,-0.24219 -0.0404,-0.0928 -0.0798,-0.186 -0.1182,-0.27957 0,0 -0.006,-0.0107 -0.006,-0.0107 -0.006,-0.0142 -0.0111,-0.0285 -0.0166,-0.0427 -0.0327,-0.0822 -0.0648,-0.16474 -0.096,-0.24751 -0.0348,-0.0917 -0.0686,-0.1837 -0.10159,-0.27602 0,0 -0.007,-0.0178 -0.007,-0.0178 l -0.013,-0.0356 c 0,0 -0.006,-0.0143 -0.006,-0.0143 L 204.92654,368.45789 H 46.836974 c -14.473491,-0.005 -21.189451,-17.31917 -10.270881,-26.4794 L 158.77314,239.50657 93.282189,56.522622 C 88.061536,41.92196 106.26037,30.080486 118.35082,40.211162 L 257.40204,156.80604 396.45511,40.211162 c 12.09045,-10.130649 30.28925,1.710811 25.06862,16.31146 L 356.03279,239.50657 478.23983,341.97849 c 10.91857,9.16023 4.20261,26.47468 -10.27088,26.4794 H 309.87939 l -37.66297,105.23206 -0.002,0.007 c -0.0288,0.0804 -0.0584,0.16051 -0.0886,0.2404 -0.006,0.0166 -0.0122,0.0333 -0.0184,0.0499 -0.0371,0.0977 -0.0753,0.19507 -0.11451,0.29203 -0.039,0.0965 -0.079,0.19272 -0.12005,0.28848 -0.0296,0.0685 -0.0598,0.13674 -0.0905,0.20478 -0.0152,0.0351 -0.0306,0.0701 -0.0461,0.10507 0,0 -0.009,0.0214 -0.009,0.0214 -0.0368,0.0805 -0.0744,0.16058 -0.11266,0.2404 -0.0452,0.0942 -0.0913,0.18803 -0.13852,0.28135 -0.007,0.0149 -0.0147,0.0297 -0.0221,0.0446 -0.0399,0.0787 -0.0806,0.15705 -0.1219,0.23506 -0.0495,0.0925 -0.1,0.18451 -0.15144,0.27601 -0.0383,0.0679 -0.077,0.13562 -0.11637,0.203 -0.12561,0.21737 -0.25678,0.43172 -0.39339,0.64284 -0.0117,0.0178 -0.0234,0.0356 -0.0351,0.0534 -0.042,0.0644 -0.0845,0.12852 -0.12743,0.19232 -0.0153,0.0214 -0.0307,0.0428 -0.0461,0.0641 -0.0492,0.0722 -0.0991,0.14405 -0.1496,0.21546 -0.0511,0.0728 -0.10278,0.14527 -0.15515,0.21725 -0.01,0.0131 -0.0196,0.0262 -0.0295,0.0392 -0.12572,0.16876 -0.25503,0.33499 -0.38787,0.4986 -0.0602,0.0747 -0.12118,0.14895 -0.18285,0.2226 -0.0639,0.0754 -0.12854,0.15018 -0.19393,0.22437 -0.0482,0.0549 -0.0969,0.10956 -0.14591,0.16383 -0.0324,0.0364 -0.0651,0.0726 -0.0979,0.10863 -0.12552,0.13637 -0.2536,0.27054 -0.38417,0.40244 -0.009,0.01 -0.0184,0.019 -0.0277,0.0285 -0.009,0.01 -0.0185,0.019 -0.0277,0.0285 -0.0689,0.0689 -0.13846,0.13717 -0.2087,0.20479 -0.0416,0.04 -0.0835,0.0798 -0.1256,0.1193 -0.0361,0.034 -0.0725,0.0678 -0.10896,0.10151 0,0 -0.0147,0.0143 -0.0147,0.0143 -0.0659,0.0605 -0.13244,0.12046 -0.19947,0.17985 -0.11599,0.10321 -0.23359,0.20473 -0.35276,0.30451 -0.0563,0.0473 -0.11294,0.0942 -0.16993,0.14067 -0.0697,0.057 -0.13986,0.11338 -0.21055,0.16918 0,0 -0.0221,0.0178 -0.0221,0.0178 -0.0764,0.0595 -0.15334,0.11823 -0.23087,0.17629 -0.0849,0.0638 -0.17048,0.12669 -0.25672,0.18875 -0.0129,0.01 -0.0258,0.019 -0.0387,0.0285 -0.06,0.0432 -0.12034,0.0859 -0.18099,0.12822 -0.0154,0.0107 -0.0308,0.0214 -0.0462,0.032 -0.0862,0.059 -0.173,0.11719 -0.26042,0.17451 -0.0741,0.0487 -0.14855,0.0968 -0.22347,0.14425 -0.0215,0.0143 -0.0431,0.0285 -0.0647,0.0427 0,0 -0.0221,0.0143 -0.0221,0.0143 -0.0759,0.0475 -0.15226,0.0944 -0.22902,0.14067 -0.0918,0.0555 -0.18411,0.11015 -0.27704,0.16383 -0.10699,0.0618 -0.21473,0.12234 -0.32322,0.18164 -0.087,0.0471 -0.17438,0.0934 -0.26226,0.13889 -0.0209,0.0107 -0.0418,0.0214 -0.0628,0.032 -0.0809,0.0422 -0.16215,0.0838 -0.24379,0.12465 -0.0809,0.0399 -0.16217,0.079 -0.24379,0.11753 -0.0154,0.007 -0.0308,0.0143 -0.0462,0.0214 -0.0968,0.0455 -0.19407,0.09 -0.29181,0.13355 -0.0828,0.0369 -0.1659,0.0731 -0.24934,0.10863 0,0 -0.0221,0.009 -0.0221,0.009 -0.0363,0.015 -0.0726,0.0299 -0.10896,0.0446 -0.0706,0.0296 -0.14138,0.0587 -0.2124,0.0873 -0.0993,0.0396 -0.19906,0.0781 -0.29921,0.11574 -0.0987,0.0372 -0.19786,0.0734 -0.29736,0.10863 -0.019,0.007 -0.0381,0.0131 -0.0572,0.0196 -0.0749,0.0261 -0.15001,0.0516 -0.22532,0.0766 0,0 -0.0295,0.0107 -0.0295,0.0107 -0.11774,0.0382 -0.23596,0.075 -0.35461,0.11041 -0.0713,0.0219 -0.14268,0.0432 -0.21425,0.0641 -0.0725,0.0207 -0.14514,0.0409 -0.21794,0.0606 -0.0443,0.0127 -0.0886,0.0251 -0.13297,0.0374 0,0 -0.0314,0.007 -0.0314,0.007 -0.0958,0.0252 -0.19184,0.0496 -0.28811,0.073 -0.10502,0.0254 -0.2103,0.0497 -0.31584,0.073 -0.10503,0.0236 -0.21031,0.0461 -0.31582,0.0676 -0.0946,0.0192 -0.18945,0.0376 -0.28444,0.0552 -0.0388,0.007 -0.0776,0.0132 -0.11636,0.0196 -0.0781,0.0136 -0.15627,0.0267 -0.23456,0.0392 -0.0904,0.0144 -0.18088,0.0281 -0.2715,0.041 -0.0529,0.007 -0.10586,0.0145 -0.15884,0.0214 -0.0701,0.009 -0.1403,0.0183 -0.21055,0.0267 -0.10699,0.0129 -0.21412,0.0248 -0.32137,0.0356 -0.0904,0.008 -0.18093,0.0162 -0.2715,0.0231 -0.10765,0.009 -0.21539,0.0165 -0.32321,0.0231 -0.0659,0.004 -0.13173,0.008 -0.19763,0.0107 -0.0419,0.002 -0.0837,0.005 -0.1256,0.007 -0.1077,0.004 -0.21544,0.007 -0.32321,0.009 -0.0911,0.002 -0.18222,0.003 -0.27335,0.004 -0.0499,2.3e-4 -0.0997,2.3e-4 -0.1496,0 z m 0.0738,-61.35672 19.36156,-54.09136 H 238.04233 Z M 88.688828,338.27457 H 194.12373 l -24.33908,-67.99883 z m 138.550692,0 h 60.32689 l 31.98175,-89.35866 -62.14612,-52.10763 -62.14428,52.10763 z m 93.44267,0 H 426.1171 L 345.02128,270.27574 Z M 184.24626,218.14852 233.55054,176.80716 141.96591,100.01331 Z m 146.31341,0 42.28035,-118.13521 -91.58465,76.79385 z"
       id="path846" />
  </g>
</svg>
