<?xml version="1.0" encoding="UTF-8" standalone="no"?>
<svg
   xmlns:dc="http://purl.org/dc/elements/1.1/"
   xmlns:cc="http://creativecommons.org/ns#"
   xmlns:rdf="http://www.w3.org/1999/02/22-rdf-syntax-ns#"
   xmlns:svg="http://www.w3.org/2000/svg"
   xmlns="http://www.w3.org/2000/svg"
   xmlns:sodipodi="http://sodipodi.sourceforge.net/DTD/sodipodi-0.dtd"
   xmlns:inkscape="http://www.inkscape.org/namespaces/inkscape"
   inkscape:version="1.0 (4035a4fb49, 2020-05-01)"
   sodipodi:docname="skills4.svg"
   id="svg6"
   version="1.1"
   style="height: 512px; width: 512px;"
   viewBox="0 0 512 512">
  <metadata
     id="metadata12">
    <rdf:RDF>
      <cc:Work
         rdf:about="">
        <dc:format>image/svg+xml</dc:format>
        <dc:type
           rdf:resource="http://purl.org/dc/dcmitype/StillImage" />
        <dc:title></dc:title>
      </cc:Work>
    </rdf:RDF>
  </metadata>
  <defs
     id="defs10" />
  <sodipodi:namedview
     inkscape:current-layer="svg6"
     inkscape:window-maximized="1"
     inkscape:window-y="-11"
     inkscape:window-x="-11"
     inkscape:cy="274.40735"
     inkscape:cx="256"
     inkscape:zoom="2.4199219"
     showgrid="false"
     id="namedview8"
     inkscape:window-height="2066"
     inkscape:window-width="3840"
     inkscape:pageshadow="2"
     inkscape:pageopacity="0"
     guidetolerance="10"
     gridtolerance="10"
     objecttolerance="10"
     borderopacity="1"
     bordercolor="#666666"
     pagecolor="#ffffff"
     inkscape:document-rotation="0" />
  <path
     style="fill:#ffffff;fill-opacity:1"
     id="path852"
     d="m 340,417 c -17.2,0 -31,13.8 -31,31 0,17.2 13.8,31 31,31 17.2,0 31,-13.8 31,-31 0,-17.2 -13.8,-31 -31,-31 z" />
  <path
     style="fill:#ffffff;fill-opacity:1"
     id="path850"
     d="m 340,257 c -17.2,0 -31,13.8 -31,31 0,17.2 13.8,31 31,31 17.2,0 31,-13.8 31,-31 0,-17.2 -13.8,-31 -31,-31 z" />
  <path
     style="fill:#ffffff;fill-opacity:1"
     id="path846"
     d="m 340,33 c -17.2,0 -31,13.77 -31,31 0,17.23 13.8,31 31,31 17.2,0 31,-13.77 31,-31 0,-17.23 -13.8,-31 -31,-31 z" />
  <path
     style="fill:#ffffff;fill-opacity:1"
     id="path2"
     d="m 153.1,25 v 0.1 c -25,3.2 -47.1,32 -47.1,68.8 0,20.4 7.1,38.4 17.5,50.9 l 10.2,12.2 -15.7,2.9 c -13.7,2.6 -23.8,9.9 -32.2,21.5 -8.5,11.5 -14.9,27.5 -19.4,45.8 -8.2,33.6 -9.9,74.7 -10.1,110.5 h 44 l 11.9,158.4 h 96.3 L 219,337.7 h 41.9 c 0,-36.2 -0.3,-77.8 -7.8,-111.7 -4,-18.5 -10.2,-34.4 -18.7,-45.9 -8.6,-11.4 -19.2,-18.7 -34.5,-21 l -16,-2.5 L 194,144 c 10,-12.5 16.7,-30.2 16.7,-50.1 0,-39.2 -24.8,-68.8 -52.4,-68.8 -2.9,0 -4.7,-0.1 -5.2,-0.1 z" />
  <path
     sodipodi:nodetypes="cc"
     id="path939"
     d="M 225.62713,63.225173 340.50687,61.985472"
     style="fill:none;stroke:#ffffff;stroke-width:10;stroke-linecap:butt;stroke-linejoin:miter;stroke-miterlimit:4;stroke-dasharray:none;stroke-opacity:1" />
  <path
     sodipodi:nodetypes="cc"
     id="path945"
     d="m 271.08313,287.19935 66.53108,-0.41323"
     style="fill:none;stroke:#ffffff;stroke-width:10;stroke-linecap:butt;stroke-linejoin:miter;stroke-miterlimit:4;stroke-dasharray:none;stroke-opacity:1" />
  <path
     style="fill:none;stroke:#ffffff;stroke-width:10;stroke-linecap:butt;stroke-linejoin:miter;stroke-miterlimit:4;stroke-dasharray:none;stroke-opacity:1"
     d="m 225.21388,447.19935 112.40033,-0.41323"
     id="path949"
     sodipodi:nodetypes="cc" />
  <text
     id="text841"
     y="325.27982"
     x="102.86829"
     style="font-weight:bold;font-size:188.976px;line-height:1.25;font-family:Akrobat;-inkscape-font-specification:'Akrobat Bold'"
     xml:space="preserve"><tspan
       style="font-style:normal;font-variant:normal;font-weight:normal;font-stretch:normal;font-size:188.976px;font-family:'Berlin Sans FB Demi';-inkscape-font-specification:'Berlin Sans FB Demi'"
       y="325.27982"
       x="102.86829"
       id="tspan839"
       sodipodi:role="line">F</tspan></text>
</svg>
