<?xml version="1.0" encoding="UTF-8" standalone="no"?>
<svg
   viewBox="0 0 512 512"
   version="1.1"
   id="svg1"
   width="512"
   height="512"
   xmlns="http://www.w3.org/2000/svg"
   xmlns:svg="http://www.w3.org/2000/svg">
  <defs
     id="defs1" />
  <g
     class=""
     style="fill-opacity:1;fill-rule:nonzero"
     id="g1">
    <path
       d="m 467.838,35.848 c -53.208,3.518 -101.284,8.091 -139.14,50.18 9.869,29.563 26.168,65.884 46.613,95.234 20.504,29.436 44.758,50.59 68.61,53.297 C 479.186,201.502 497.62,121.96 467.838,35.848 Z M 194.207,44.36 c -0.962,0.02 -1.94,0.066 -2.937,0.139 -16.94,1.247 -26.293,7.65 -33.825,17.941 -7.532,10.291 -12.558,25.017 -17.384,41.317 -5.43,18.334 -6.273,41.726 -1.663,60.482 4.528,18.418 13.492,31.204 26.94,34.455 0.188,-1.168 0.42,-2.526 0.605,-4.502 0.82,-8.766 3.214,-23.576 14.891,-42.714 -7.75,-7.452 -14.67,-13.694 -18.121,-22.618 -2.074,-5.361 -2.392,-11.595 -0.84,-17.992 1.552,-6.396 4.726,-13.139 9.615,-21.26 l 0.037,-0.06 0.037,-0.06 c 8.568,-13.674 26.544,-21.686 43.514,-27.745 5.395,-1.926 10.528,-3.402 15.422,-4.652 -11.153,-7.45 -21.857,-13.03 -36.291,-12.73 z m 45.07,27.002 c -5.416,1.164 -12.07,3.04 -18.82,5.45 -15.466,5.521 -31.427,14.998 -35.309,21.138 -4.38,7.29 -6.778,12.784 -7.726,16.692 -0.952,3.925 -0.7,6.08 0.215,8.447 1.831,4.735 8.77,11.123 19.093,21.592 l 4.616,4.68 -3.698,5.437 c -5.348,7.864 -8.79,14.564 -11.072,20.351 a 70.936,54.43 66.039 0 0 17.928,6.88 c 2.391,57.506 -19.43,43.882 -70.535,73.605 l 15.888,31.69 c 26.64,-10.285 42.457,-16.219 56.041,-28.891 11.993,12.066 26.85,22.39 44.155,33.437 -0.035,11.558 -51.405,80.237 -52.492,79.875 a 30.273,30.273 0 0 0 3.261,3.242 c 29.1,9.088 53.46,8.208 75.89,1.272 0.097,-0.294 0.2,-0.588 0.296,-0.881 12.757,-4.462 25.877,-10.432 38.629,-17.43 20.587,-12.745 40.445,-29.295 61.107,-45.845 -10.31,-22.79 -41.559,-34.836 -62.133,-43.946 9.77,-20.016 5.393,-41.39 2.516,-60.55 18.737,-1.992 33.016,-7.841 46.527,-15.145 -0.488,-0.689 -0.989,-1.363 -1.472,-2.057 -7.049,-10.118 -13.588,-20.911 -19.56,-31.931 -28.224,12.084 -59.03,16.997 -90.142,0.855 A 70.936,54.43 66.039 0 0 252.363,92.374 70.936,54.43 66.039 0 0 239.277,71.362 Z M 15.471,87.31 18.758,121.4 71.358,229.17 92.926,218.644 40.543,111.319 15.471,87.309 Z m 97.066,139.566 -46.756,22.822 3.137,18.496 56.271,-27.464 z m 2.318,36.701 -21.568,10.528 16.668,34.15 21.568,-10.527 -16.668,-34.15 z m 255.858,73.934 c -12.264,9.86 -24.631,19.557 -37.522,28.209 26.448,38.685 47.77,79.923 73.047,117.004 l 35.82,-14.75 C 415.482,421.142 397.595,385.369 370.713,337.511 Z m -100.254,56.808 c -15.27,3.338 -31.566,4.213 -49.07,1.727 -7.565,29.607 -17.662,59.909 -25.95,94.04 l 33.711,4.917 c 13.214,-31.921 28.812,-66.285 41.309,-100.684 z"
       fill="#ffffff"
       fill-opacity="1"
       id="path1"
       style="fill-rule:nonzero" />
  </g>
</svg>
