<?xml version="1.0" encoding="UTF-8" standalone="no"?>
<svg
   xmlns:dc="http://purl.org/dc/elements/1.1/"
   xmlns:cc="http://creativecommons.org/ns#"
   xmlns:rdf="http://www.w3.org/1999/02/22-rdf-syntax-ns#"
   xmlns:svg="http://www.w3.org/2000/svg"
   xmlns="http://www.w3.org/2000/svg"
   xmlns:sodipodi="http://sodipodi.sourceforge.net/DTD/sodipodi-0.dtd"
   xmlns:inkscape="http://www.inkscape.org/namespaces/inkscape"
   inkscape:version="1.0 (4035a4fb49, 2020-05-01)"
   sodipodi:docname="tallents.svg"
   id="svg6"
   version="1.1"
   style="height: 512px; width: 512px;"
   viewBox="0 0 512 512">
  <metadata
     id="metadata12">
    <rdf:RDF>
      <cc:Work
         rdf:about="">
        <dc:format>image/svg+xml</dc:format>
        <dc:type
           rdf:resource="http://purl.org/dc/dcmitype/StillImage" />
        <dc:title></dc:title>
      </cc:Work>
    </rdf:RDF>
  </metadata>
  <defs
     id="defs10" />
  <sodipodi:namedview
     inkscape:current-layer="svg6"
     inkscape:window-maximized="1"
     inkscape:window-y="-11"
     inkscape:window-x="3829"
     inkscape:cy="259.53084"
     inkscape:cx="256"
     inkscape:zoom="2.4199219"
     showgrid="false"
     id="namedview8"
     inkscape:window-height="2066"
     inkscape:window-width="3840"
     inkscape:pageshadow="2"
     inkscape:pageopacity="0"
     guidetolerance="10"
     gridtolerance="10"
     objecttolerance="10"
     borderopacity="1"
     bordercolor="#666666"
     pagecolor="#ffffff" />
  <path
     style="fill:#ffffff;fill-opacity:1"
     id="path852"
     d="m 340,417 c -17.2,0 -31,13.8 -31,31 0,17.2 13.8,31 31,31 17.2,0 31,-13.8 31,-31 0,-17.2 -13.8,-31 -31,-31 z" />
  <path
     style="fill:#ffffff;fill-opacity:1"
     id="path850"
     d="m 340,257 c -17.2,0 -31,13.8 -31,31 0,17.2 13.8,31 31,31 17.2,0 31,-13.8 31,-31 0,-17.2 -13.8,-31 -31,-31 z" />
  <path
     style="fill:#ffffff;fill-opacity:1"
     id="path846"
     d="m 340,33 c -17.2,0 -31,13.77 -31,31 0,17.23 13.8,31 31,31 17.2,0 31,-13.77 31,-31 0,-17.23 -13.8,-31 -31,-31 z" />
  <path
     style="fill:#ffffff;fill-opacity:1"
     id="path2"
     d="m 153.1,25 v 0.1 c -25,3.2 -47.1,32 -47.1,68.8 0,20.4 7.1,38.4 17.5,50.9 l 10.2,12.2 -15.7,2.9 c -13.7,2.6 -23.8,9.9 -32.2,21.5 -8.5,11.5 -14.9,27.5 -19.4,45.8 -8.2,33.6 -9.9,74.7 -10.1,110.5 h 44 l 11.9,158.4 h 96.3 L 219,337.7 h 41.9 c 0,-36.2 -0.3,-77.8 -7.8,-111.7 -4,-18.5 -10.2,-34.4 -18.7,-45.9 -8.6,-11.4 -19.2,-18.7 -34.5,-21 l -16,-2.5 L 194,144 c 10,-12.5 16.7,-30.2 16.7,-50.1 0,-39.2 -24.8,-68.8 -52.4,-68.8 -2.9,0 -4.7,-0.1 -5.2,-0.1 z" />
  <path
     d="m 340,104.54156 c -7.91418,0 -14.26392,6.33594 -14.26392,14.26392 0,7.92798 6.34974,14.26392 14.26392,14.26392 7.91418,0 14.26392,-6.33594 14.26392,-14.26392 0,-7.92798 -6.34974,-14.26392 -14.26392,-14.26392 z"
     id="path846-4"
     style="fill:#ffffff;fill-opacity:1;stroke-width:1" />
  <path
     d="m 340,330.37047 c -7.91418,0 -14.26392,6.33594 -14.26392,14.26392 0,7.92798 6.34974,14.26392 14.26392,14.26392 7.91418,0 14.26392,-6.33594 14.26392,-14.26392 0,-7.92798 -6.34974,-14.26392 -14.26392,-14.26392 z"
     id="path911"
     style="fill:#ffffff;fill-opacity:1;stroke-width:1" />
  <path
     d="m 440,177 c -17.2,0 -31,13.8 -31,31 0,17.2 13.8,31 31,31 17.2,0 31,-13.8 31,-31 0,-17.2 -13.8,-31 -31,-31 z"
     id="path915"
     style="fill:#ffffff;fill-opacity:1" />
  <path
     d="m 440,33 c -17.2,0 -31,13.77 -31,31 0,17.23 13.8,31 31,31 17.2,0 31,-13.77 31,-31 0,-17.23 -13.8,-31 -31,-31 z"
     id="path917"
     style="fill:#ffffff;fill-opacity:1" />
  <path
     style="fill:#ffffff;fill-opacity:1;stroke-width:1"
     id="path919"
     d="m 440,104.54156 c -7.91418,0 -14.26392,6.33594 -14.26392,14.26392 0,7.92798 6.34974,14.26392 14.26392,14.26392 7.91418,0 14.26392,-6.33594 14.26392,-14.26392 0,-7.92798 -6.34974,-14.26392 -14.26392,-14.26392 z" />
  <path
     style="fill:#ffffff;fill-opacity:1;stroke-width:1"
     id="path925"
     d="m 440,250.37047 c -7.91418,0 -14.26392,6.33594 -14.26392,14.26392 0,7.92798 6.34974,14.26392 14.26392,14.26392 7.91418,0 14.26392,-6.33594 14.26392,-14.26392 0,-7.92798 -6.34974,-14.26392 -14.26392,-14.26392 z" />
  <path
     d="m 440,290.37047 c -7.91418,0 -14.26392,6.33594 -14.26392,14.26392 0,7.92798 6.34974,14.26392 14.26392,14.26392 7.91418,0 14.26392,-6.33594 14.26392,-14.26392 0,-7.92798 -6.34974,-14.26392 -14.26392,-14.26392 z"
     id="path927"
     style="fill:#ffffff;fill-opacity:1;stroke-width:1" />
  <path
     style="fill:#ffffff;fill-opacity:1;stroke-width:1"
     id="path929"
     d="m 340,144.54156 c -7.91418,0 -14.26392,6.33594 -14.26392,14.26392 0,7.92798 6.34974,14.26392 14.26392,14.26392 7.91418,0 14.26392,-6.33594 14.26392,-14.26392 0,-7.92798 -6.34974,-14.26392 -14.26392,-14.26392 z" />
  <path
     d="m 340,184.54156 c -7.91418,0 -14.26392,6.33594 -14.26392,14.26392 0,7.92798 6.34974,14.26392 14.26392,14.26392 7.91418,0 14.26392,-6.33594 14.26392,-14.26392 0,-7.92798 -6.34974,-14.26392 -14.26392,-14.26392 z"
     id="path931"
     style="fill:#ffffff;fill-opacity:1;stroke-width:1" />
  <path
     style="fill:#ffffff;fill-opacity:1"
     id="path933"
     d="m 440,379 c -17.2,0 -31,13.77 -31,31 0,17.23 13.8,31 31,31 17.2,0 31,-13.77 31,-31 0,-17.23 -13.8,-31 -31,-31 z" />
  <path
     d="m 440,450.54156 c -7.91418,0 -14.26392,6.33594 -14.26392,14.26392 0,7.92798 6.34974,14.26392 14.26392,14.26392 7.91418,0 14.26392,-6.33594 14.26392,-14.26392 0,-7.92798 -6.34974,-14.26392 -14.26392,-14.26392 z"
     id="path935"
     style="fill:#ffffff;fill-opacity:1;stroke-width:1" />
</svg>
