<?xml version="1.0" encoding="UTF-8" standalone="no"?>
<svg
   xmlns:dc="http://purl.org/dc/elements/1.1/"
   xmlns:cc="http://creativecommons.org/ns#"
   xmlns:rdf="http://www.w3.org/1999/02/22-rdf-syntax-ns#"
   xmlns:svg="http://www.w3.org/2000/svg"
   xmlns="http://www.w3.org/2000/svg"
   xmlns:sodipodi="http://sodipodi.sourceforge.net/DTD/sodipodi-0.dtd"
   xmlns:inkscape="http://www.inkscape.org/namespaces/inkscape"
   inkscape:version="1.0 (4035a4fb49, 2020-05-01)"
   sodipodi:docname="battle-talent_b.svg"
   id="svg5"
   version="1.1"
   height="512"
   width="512"
   viewBox="0 0 512 512">
  <title
     id="title869">Battle: Skill</title>
  <metadata
     id="metadata11">
    <rdf:RDF>
      <cc:Work
         rdf:about="">
        <dc:format>image/svg+xml</dc:format>
        <dc:type
           rdf:resource="http://purl.org/dc/dcmitype/StillImage" />
        <dc:title>Battle: Skill</dc:title>
        <cc:license
           rdf:resource="http://creativecommons.org/publicdomain/zero/1.0/" />
        <dc:contributor>
          <cc:Agent>
            <dc:title>based upon Battle gear icon by Lorc, Stiletto iconby Lorc and Bow arrow iconby Delapouite under CC BY 3.0 (Game-icons.net)</dc:title>
          </cc:Agent>
        </dc:contributor>
        <dc:date>2022.02.10</dc:date>
        <dc:creator>
          <cc:Agent>
            <dc:title>Streuner²</dc:title>
          </cc:Agent>
        </dc:creator>
      </cc:Work>
      <cc:License
         rdf:about="http://creativecommons.org/publicdomain/zero/1.0/">
        <cc:permits
           rdf:resource="http://creativecommons.org/ns#Reproduction" />
        <cc:permits
           rdf:resource="http://creativecommons.org/ns#Distribution" />
        <cc:permits
           rdf:resource="http://creativecommons.org/ns#DerivativeWorks" />
      </cc:License>
    </rdf:RDF>
  </metadata>
  <defs
     id="defs9" />
  <sodipodi:namedview
     inkscape:current-layer="svg5"
     inkscape:window-maximized="1"
     inkscape:window-y="-11"
     inkscape:window-x="-11"
     inkscape:cy="268.8403"
     inkscape:cx="137.38579"
     inkscape:zoom="2.6491535"
     showgrid="false"
     id="namedview7"
     inkscape:window-height="2066"
     inkscape:window-width="3840"
     inkscape:pageshadow="2"
     inkscape:pageopacity="0.61960784"
     guidetolerance="10"
     gridtolerance="10"
     objecttolerance="10"
     borderopacity="1"
     bordercolor="#666666"
     pagecolor="#323232"
     inkscape:document-rotation="0"
     borderlayer="false"
     inkscape:showpageshadow="false"
     showguides="true"
     inkscape:guide-bbox="true"
     guidecolor="#00ff00"
     guideopacity="0.49803922">
    <sodipodi:guide
       inkscape:color="rgb(0,255,0)"
       inkscape:locked="false"
       inkscape:label=""
       position="256,256"
       orientation="-1,0"
       id="guide869" />
    <sodipodi:guide
       inkscape:color="rgb(0,255,0)"
       inkscape:locked="false"
       inkscape:label=""
       position="256,256"
       orientation="0,1"
       id="guide905" />
  </sodipodi:namedview>
  <filter
     id="shadow">
    <feDropShadow
       stdDeviation="6"
       dy="12"
       dx="6" />
  </filter>
  <path
     d="M 256 56.009766 C 145.6265 56.009764 55.990237 145.63726 55.990234 256 C 55.990234 362.69234 139.76496 449.99979 245.06055 455.68945 A 15.0015 15.0015 0 0 1 250.58203 445.96094 C 252.63983 444.32306 254.6447 442.66342 256.60547 440.98242 C 256.40319 440.98307 256.20244 440.99023 256 440.99023 C 153.73226 440.99024 70.990234 358.25521 70.990234 256 C 70.990237 153.74481 153.73227 71.009764 256 71.009766 C 349.16905 71.009766 426.12091 139.68135 439.07812 229.21875 C 442.63982 226.35937 446.2462 223.52204 449.91406 220.71484 A 15.0015 15.0015 0 0 1 452.58008 219.08398 C 435.23264 126.32778 353.75992 56.009766 256 56.009766 z M 448.22852 241.10547 C 447.94762 241.33123 447.66698 241.55709 447.38672 241.7832 C 447.66699 241.5571 447.94761 241.33123 448.22852 241.10547 z M 455.40234 271.50391 C 448.80654 282.90091 441.81511 293.97298 434.50195 304.80664 C 432.05868 313.77768 428.96106 322.47644 425.25781 330.84766 C 425.82076 331.33244 426.38201 331.82459 426.93945 332.33203 C 430.53899 335.60864 433.49855 339.27652 435.97461 343.24805 C 446.65955 321.27402 453.43804 297.05832 455.40234 271.50391 z M 419.51367 346.28125 C 419.54765 346.32315 419.58136 346.36599 419.61523 346.4082 C 419.58137 346.36596 419.54765 346.32317 419.51367 346.28125 z M 420.36133 347.39453 C 420.62484 347.74984 420.88411 348.11573 421.14062 348.49023 C 420.88421 348.1154 420.62477 347.7501 420.36133 347.39453 z M 421.73438 349.37305 C 421.97747 349.74959 422.2145 350.14358 422.45117 350.53711 C 422.2147 350.14333 421.97728 349.74982 421.73438 349.37305 z M 423.5 352.37695 C 423.68534 352.71819 423.87351 353.05263 424.05469 353.4043 C 423.87351 353.05215 423.68533 352.71867 423.5 352.37695 z M 424.83008 354.98438 C 424.9332 355.20002 425.03696 355.41379 425.13867 355.63281 C 425.03698 355.4136 424.93317 355.20022 424.83008 354.98438 z M 425.88281 357.29297 C 425.98711 357.53409 426.09062 357.77875 426.19336 358.02344 C 426.09064 357.77867 425.98708 357.53419 425.88281 357.29297 z M 406.22656 364.05078 C 406.22519 364.05268 406.22403 364.05474 406.22266 364.05664 C 408.90562 369.90236 410.92858 375.33963 412.46875 380.48633 C 412.47078 380.48378 412.47258 380.48106 412.47461 380.47852 C 410.93533 375.33372 408.90891 369.8948 406.22656 364.05078 z M 395.63086 377.42773 C 395.40223 377.69042 395.16759 377.9476 394.9375 378.20898 C 395.49879 378.85422 396.21356 379.65351 396.67969 380.20312 C 396.35469 379.29451 395.99357 378.36179 395.63086 377.42773 z M 368.64453 402.80078 C 365.41228 405.28306 362.0994 407.66322 358.70312 409.93164 C 362.61536 411.99672 366.60764 413.95768 370.67578 415.81055 A 15.0015 15.0015 0 0 1 373.69336 417.64258 C 375.31707 416.45781 376.9255 415.25343 378.51172 414.02148 L 368.64453 402.80078 z M 351.63281 423.16797 C 354.22242 424.53366 356.84192 425.85089 359.48633 427.125 C 356.84179 425.85083 354.22333 424.53227 351.63281 423.16797 z M 318.20117 435.125 C 313.30953 439.78389 308.77272 444.75701 304.55078 450.03125 C 312.37679 448.07602 320.01958 445.65835 327.45117 442.81055 L 318.20117 435.125 z M 296.0957 436.6543 C 295.00927 437.93329 293.94447 439.23203 292.89648 440.54297 C 293.94479 439.23172 295.00902 437.93359 296.0957 436.6543 z M 280.09375 439.43359 C 279.49094 440.06386 278.88074 440.68693 278.26758 441.30859 C 278.88066 440.68703 279.49103 440.06376 280.09375 439.43359 z M 292.01367 441.66992 C 291.25481 442.63562 290.50443 443.60749 289.76562 444.58984 C 290.50439 443.60767 291.25487 442.63543 292.01367 441.66992 z M 288.82812 445.84961 C 288.09915 446.83708 287.38134 447.83421 286.67188 448.83789 C 287.38144 447.83416 288.09902 446.83713 288.82812 445.84961 z M 285.85156 449.99805 C 284.89598 451.37261 283.95165 452.75637 283.03125 454.16016 C 283.95157 452.7565 284.89598 451.37248 285.85156 449.99805 z "
     style="color:#000000;font-style:normal;font-variant:normal;font-weight:normal;font-stretch:normal;font-size:medium;line-height:normal;font-family:sans-serif;font-variant-ligatures:normal;font-variant-position:normal;font-variant-caps:normal;font-variant-numeric:normal;font-variant-alternates:normal;font-variant-east-asian:normal;font-feature-settings:normal;font-variation-settings:normal;text-indent:0;text-align:start;text-decoration:none;text-decoration-line:none;text-decoration-style:solid;text-decoration-color:#000000;letter-spacing:normal;word-spacing:normal;text-transform:none;writing-mode:lr-tb;direction:ltr;text-orientation:mixed;dominant-baseline:auto;baseline-shift:baseline;text-anchor:start;white-space:normal;shape-padding:0;shape-margin:0;inline-size:0;clip-rule:nonzero;display:inline;overflow:visible;visibility:visible;isolation:auto;mix-blend-mode:normal;color-interpolation:sRGB;color-interpolation-filters:linearRGB;solid-color:#000000;solid-opacity:1;vector-effect:none;fill:#000000;fill-opacity:1;fill-rule:evenodd;stroke:none;stroke-width:15.0001;stroke-linecap:round;stroke-linejoin:round;stroke-miterlimit:4;stroke-dasharray:none;stroke-dashoffset:0;stroke-opacity:1;paint-order:normal;color-rendering:auto;image-rendering:auto;shape-rendering:auto;text-rendering:auto;enable-background:accumulate;stop-color:#000000"
     id="path909" />
  <path
     d="M 257.30859 215.77734 C 256.98378 215.78034 256.65268 215.79387 256.3125 215.82227 C 253.60092 216.04873 250.38922 217.15939 246.49805 220.39648 C 246.31264 220.54988 246.12752 220.70417 245.95117 220.86328 C 245.94007 220.87428 245.92907 220.88538 245.91797 220.89648 C 245.91597 220.89948 245.91316 220.9013 245.91016 220.9043 C 244.9923 221.7384 244.18143 222.68311 243.49609 223.7168 C 243.24711 224.07297 243.0585 224.43763 242.83984 224.80664 C 242.70754 225.04664 242.58184 225.29022 242.46289 225.53711 L 242.45703 225.55469 C 242.11314 226.20659 241.70228 226.84233 241.45508 227.50977 C 241.44388 227.53907 241.43287 227.56836 241.42188 227.59766 C 236.29608 241.71145 239.81113 255.32459 245.38867 267.68359 C 250.96199 280.03322 258.92796 292.3502 274.50977 296.28125 C 274.72038 296.33915 274.91569 296.38295 275.125 296.43945 L 320.90625 348.50586 C 315.64108 354.72462 310.38049 361.00192 305.09961 367.3457 C 301.47512 362.89038 298.09866 358.20382 295.00781 353.25195 A 15.0015 15.0015 0 0 0 282.16797 346.19531 A 15.0015 15.0015 0 0 0 270.72266 351.63477 L 258.66992 366.21094 A 15.0015 15.0015 0 0 0 260.64453 387.30859 L 285.63672 408.07227 C 276.72376 422.41854 264.77929 434.66082 250.58203 445.96094 A 15.0015 15.0015 0 0 0 250.33789 469.23438 L 264.41602 480.92969 A 15.0015 15.0015 0 0 0 287.22266 476.47656 C 295.6436 460.7612 305.7927 446.94307 318.20117 435.125 L 342.81836 455.57617 A 15.0015 15.0015 0 0 0 363.96484 453.5957 L 376.01758 439.01953 A 15.0015 15.0015 0 0 0 370.67578 415.81055 C 365.16351 413.29994 359.78774 410.59127 354.56641 407.69336 C 357.55514 404.0969 360.51337 400.51838 363.48633 396.93359 L 404.67969 443.7832 C 404.70929 444.00104 404.72691 444.20448 404.75781 444.42383 C 406.665 460.37613 417.85957 469.84992 429.39258 476.95703 C 440.93591 484.07051 453.98508 489.29827 468.63867 486.02148 C 474.45355 484.72143 478.80837 479.83005 480.39844 476.42383 C 481.98852 473.01761 482.21594 470.50264 482.34961 468.2793 C 482.61694 463.83262 482.03457 460.26922 481.28906 456.76758 C 480.54355 453.26594 479.66085 450.16946 478.16406 446.88672 C 477.41566 445.24535 476.99711 443.64846 473.98828 440.65625 C 472.48386 439.16015 469.90306 436.63032 464.41211 436.08203 C 460.57948 435.69932 456.49693 437.42387 453.5918 439.46094 C 453.42832 424.54339 452.34117 405.72078 449.3457 387.36914 C 445.88904 366.19204 441.87192 345.92486 426.93945 332.33203 C 424.48685 330.09941 421.97629 328.09673 419.44922 326.23047 C 439.38851 298.89343 457.56235 270.38086 472.55469 239.11328 A 15.0015 15.0015 0 0 0 473.97461 231.3457 L 473.97461 231.34375 A 15.0015 15.0015 0 0 0 459.10742 217.62695 A 15.0015 15.0015 0 0 0 449.91406 220.71484 C 425.15499 239.66418 402.90511 259.81412 381.94336 281.00586 C 370.2468 269.85651 353.857 264.45391 336.79297 259.35938 C 318.99449 254.04557 300.48575 250.56065 285.71875 248.48828 C 287.91846 246.14638 289.98971 242.84231 290.3418 239.23633 C 290.86292 233.89932 288.85788 230.61376 287.5918 228.7793 C 285.05965 225.11038 283.49846 224.48756 282.03125 223.52734 C 279.09682 221.60692 276.40459 220.42263 273.30469 219.25391 C 270.2048 218.08518 266.9476 217.07597 263.15039 216.52734 C 261.48912 216.28732 259.58232 215.75473 257.30859 215.77734 z M 258.73633 231.20898 C 264.93623 231.09335 277.39627 236.83742 275.14648 238.13477 C 267.73905 242.40801 269.92328 261.56639 277.11328 262.42969 C 303.82163 265.63672 352.40948 275.41682 371.42773 292.01562 C 371.94993 292.47138 372.4473 292.93239 372.92383 293.39844 C 373.70502 294.16245 374.42721 294.94072 375.07812 295.73242 C 375.08519 295.741 375.09252 295.74925 375.09961 295.75781 C 375.49506 296.24006 375.87248 296.72622 376.2168 297.21875 C 382.08126 305.60684 386.15529 315.78763 390.52734 325.59766 C 399.69629 331.18913 409.27371 336.53258 416.8418 343.42188 C 434.68383 359.66325 438.92365 416.56799 438.66211 446.16602 C 438.59811 453.40821 457.31822 458.02277 462.50391 451.22266 C 464.49486 448.61221 470.5281 470.22897 465.36719 471.38281 C 449.53017 474.92471 421.49605 458.23943 419.64648 442.61719 C 419.39072 440.83066 419.1782 439.07825 418.99414 437.34766 L 283.33984 283.06445 C 281.6473 282.66048 279.9361 282.22442 278.19727 281.74219 C 262.94023 277.9084 249.98179 247.97026 255.52148 232.7168 C 255.62588 232.43491 255.7883 232.19218 256 232 C 256.0225 231.9797 256.04476 231.96051 256.06836 231.94141 C 256.65387 231.4526 257.5882 231.2304 258.73633 231.20898 z M 459.0293 232.625 L 459.0293 232.62695 C 444.4401 263.05376 426.61639 290.96725 406.89062 317.96484 C 405.35605 317.03795 403.81979 316.11515 402.32812 315.22461 C 399.23553 308.10669 395.95818 300.44847 391.28906 292.88672 C 412.24571 271.6037 434.39 251.48267 459.0293 232.625 z M 284.28711 249.86133 C 284.29731 249.87033 284.30425 249.87782 284.31445 249.88672 C 283.88941 250.29131 283.3607 250.71464 282.64258 251.12891 C 283.15248 250.83469 283.72447 250.33289 284.28711 249.86133 z M 385.34375 284.56641 C 385.39209 284.62213 385.43819 284.68035 385.48633 284.73633 C 385.43824 284.68028 385.39205 284.6222 385.34375 284.56641 z M 293.0918 285.10547 L 418.2168 427.41406 C 416.92605 404.6231 418.36683 384.43006 399.94531 351.81055 C 399.94392 351.80808 399.9428 351.8052 399.94141 351.80273 C 399.03708 350.2016 398.10044 348.58081 397.09766 346.91797 C 388.57661 336.28012 380.21504 325.69233 370.22266 316.35352 C 369.98765 316.16695 369.75921 315.99454 369.52539 315.81055 C 368.48972 314.99559 367.46602 314.20691 366.45312 313.44141 C 366.37862 313.3851 366.30485 313.33143 366.23047 313.27539 C 365.26762 312.54992 364.31417 311.8445 363.37109 311.16211 C 362.32131 310.40251 361.28412 309.66925 360.25781 308.96094 C 360.25736 308.96063 360.25631 308.96125 360.25586 308.96094 C 359.29594 308.29846 358.34655 307.65658 357.40625 307.03711 C 357.37274 307.01503 357.33817 306.99077 357.30469 306.96875 C 357.30469 306.96875 357.30273 306.9707 357.30273 306.9707 C 331.8147 290.2082 313.36221 288.89702 293.0918 285.10547 z M 386.79688 286.33008 C 386.90263 286.46393 387.00868 286.59715 387.11328 286.73242 C 387.00876 286.59705 386.90253 286.46405 386.79688 286.33008 z M 388.50977 288.625 C 389.10619 289.4781 389.66854 290.33516 390.21875 291.19336 C 389.66304 290.33556 389.1062 289.4781 388.50977 288.625 z M 343.64258 316.54102 C 344.28176 316.57206 345.44279 317.08397 347.19922 318.15039 C 346.42465 319.02 345.6576 319.90289 344.88477 320.77539 C 343.06546 318.07378 342.46236 316.4837 343.64258 316.54102 z M 349.45117 319.60352 C 350.26956 320.15546 351.19329 320.80598 352.1875 321.52148 C 351.18561 320.7991 350.27524 320.16051 349.45117 319.60352 z M 344.91602 320.82031 C 345.36326 321.48275 345.89582 322.22239 346.48242 323.01172 C 345.89493 322.22139 345.36374 321.48337 344.91602 320.82031 z M 352.20117 321.53125 C 353.21028 322.25766 354.32678 323.08539 355.52539 323.98828 C 356.65657 324.84038 357.89758 325.79409 359.20508 326.81055 C 357.8974 325.79395 356.66143 324.8448 355.52539 323.98828 C 354.32313 323.08183 353.21616 322.26328 352.20117 321.53125 z M 346.83398 323.48047 C 347.3706 324.19288 347.95528 324.94665 348.58594 325.74414 C 347.95481 324.94621 347.37103 324.19328 346.83398 323.48047 z M 348.95898 326.2168 C 349.35898 326.7187 349.81029 327.26629 350.24219 327.79688 C 349.81023 327.26628 349.35909 326.71876 348.95898 326.2168 z M 359.41992 326.97461 C 359.76427 327.24272 360.05343 327.46058 360.41016 327.74023 C 367.72482 334.64483 374.42843 342.70209 381.35742 351.30469 C 379.70067 353.38767 378.05179 355.47213 376.37891 357.55273 C 368.74823 349.13446 360.6542 340.15032 354.33594 332.7207 C 353.99415 332.3188 353.69416 331.95478 353.36328 331.5625 C 353.6936 331.95412 353.99471 332.31945 354.33594 332.7207 C 356.02884 330.80215 357.7204 328.87721 359.41992 326.97461 z M 384.67383 355.41992 C 385.59576 356.9635 386.44923 358.45289 387.27148 359.91992 C 386.45275 358.45612 385.59544 356.96297 384.67383 355.41992 z M 376.62695 357.82812 C 380.16604 361.73246 383.4791 365.38501 386.57031 368.80664 C 387.67071 367.44332 388.76262 366.07629 389.85742 364.71094 C 392.77035 370.33746 394.97456 375.43594 396.67969 380.20312 C 394.32492 377.42647 390.67178 373.34652 386.57031 368.80664 C 383.47326 365.37854 380.17996 361.7473 376.62695 357.82812 z M 330.91016 359.88477 L 353.47461 385.54688 C 346.36932 394.12914 339.19215 402.75095 331.9668 411.47656 C 342.20173 418.3362 353.11708 424.29606 364.45703 429.46094 L 352.4043 444.03711 L 317.91992 415.38867 C 299.44934 430.20633 285.18401 448.52071 274 469.39258 L 259.92188 457.69727 C 278.46444 442.93857 294.37205 425.98968 304.79492 404.48633 L 270.23047 375.76953 L 282.2832 361.19336 C 288.98187 371.92529 296.84867 381.54816 305.62891 390.16602 C 314.13965 379.88236 322.53357 369.79491 330.91016 359.88477 z M 387.61914 360.54688 C 388.39242 361.93996 389.12697 363.30489 389.81641 364.63477 C 389.12662 363.30406 388.38988 361.93835 387.61914 360.54688 z M 452.02344 440.62695 C 452.03884 440.64985 452.05101 440.6641 452.06641 440.6875 C 451.52735 441.17282 450.93106 441.6642 450.57812 442.12695 L 450.57617 442.12695 C 451.07953 441.46689 451.56732 440.99691 452.02344 440.62695 z "
     style="color:#000000;font-style:normal;font-variant:normal;font-weight:normal;font-stretch:normal;font-size:medium;line-height:normal;font-family:sans-serif;font-variant-ligatures:normal;font-variant-position:normal;font-variant-caps:normal;font-variant-numeric:normal;font-variant-alternates:normal;font-variant-east-asian:normal;font-feature-settings:normal;font-variation-settings:normal;text-indent:0;text-align:start;text-decoration:none;text-decoration-line:none;text-decoration-style:solid;text-decoration-color:#000000;letter-spacing:normal;word-spacing:normal;text-transform:none;writing-mode:lr-tb;direction:ltr;text-orientation:mixed;dominant-baseline:auto;baseline-shift:baseline;text-anchor:start;white-space:normal;shape-padding:0;shape-margin:0;inline-size:0;clip-rule:nonzero;display:inline;overflow:visible;visibility:visible;isolation:auto;mix-blend-mode:normal;color-interpolation:sRGB;color-interpolation-filters:linearRGB;solid-color:#000000;solid-opacity:1;vector-effect:none;fill:#000000;fill-opacity:1;fill-rule:nonzero;stroke:none;stroke-width:30;stroke-linecap:round;stroke-linejoin:round;stroke-miterlimit:4;stroke-dasharray:none;stroke-dashoffset:0;stroke-opacity:1;paint-order:stroke fill markers;color-rendering:auto;image-rendering:auto;shape-rendering:auto;text-rendering:auto;enable-background:accumulate;stop-color:#000000"
     id="path870" />
</svg>
