<?xml version="1.0" encoding="UTF-8" standalone="no"?>
<svg
   xmlns:dc="http://purl.org/dc/elements/1.1/"
   xmlns:cc="http://creativecommons.org/ns#"
   xmlns:rdf="http://www.w3.org/1999/02/22-rdf-syntax-ns#"
   xmlns:svg="http://www.w3.org/2000/svg"
   xmlns="http://www.w3.org/2000/svg"
   xmlns:xlink="http://www.w3.org/1999/xlink"
   xmlns:sodipodi="http://sodipodi.sourceforge.net/DTD/sodipodi-0.dtd"
   xmlns:inkscape="http://www.inkscape.org/namespaces/inkscape"
   inkscape:version="1.0 (4035a4fb49, 2020-05-01)"
   sodipodi:docname="battle-skill_bwc.svg"
   id="svg5"
   version="1.1"
   height="512"
   width="512"
   viewBox="0 0 512 512">
  <title
     id="title869">Battle: Skill</title>
  <metadata
     id="metadata11">
    <rdf:RDF>
      <cc:Work
         rdf:about="">
        <dc:format>image/svg+xml</dc:format>
        <dc:type
           rdf:resource="http://purl.org/dc/dcmitype/StillImage" />
        <dc:title>Battle: Skill</dc:title>
        <cc:license
           rdf:resource="http://creativecommons.org/publicdomain/zero/1.0/" />
        <dc:contributor>
          <cc:Agent>
            <dc:title>based upon Battle gear icon by Lorc, Stiletto iconby Lorc and Bow arrow iconby Delapouite under CC BY 3.0 (Game-icons.net)</dc:title>
          </cc:Agent>
        </dc:contributor>
        <dc:date>2022.02.10</dc:date>
        <dc:creator>
          <cc:Agent>
            <dc:title>Streuner²</dc:title>
          </cc:Agent>
        </dc:creator>
      </cc:Work>
      <cc:License
         rdf:about="http://creativecommons.org/publicdomain/zero/1.0/">
        <cc:permits
           rdf:resource="http://creativecommons.org/ns#Reproduction" />
        <cc:permits
           rdf:resource="http://creativecommons.org/ns#Distribution" />
        <cc:permits
           rdf:resource="http://creativecommons.org/ns#DerivativeWorks" />
      </cc:License>
    </rdf:RDF>
  </metadata>
  <defs
     id="defs9">
    <linearGradient
       inkscape:collect="always"
       id="linearGradient1019">
      <stop
         style="stop-color:#fedbb4;stop-opacity:1"
         offset="0"
         id="stop1015" />
      <stop
         id="stop1023"
         offset="0.66500282"
         style="stop-color:#fedbb4;stop-opacity:1" />
      <stop
         id="stop1021"
         offset="0.7740373"
         style="stop-color:#c86400;stop-opacity:1" />
      <stop
         style="stop-color:#c86400;stop-opacity:1"
         offset="1"
         id="stop1017" />
    </linearGradient>
    <linearGradient
       id="linearGradient982"
       inkscape:collect="always">
      <stop
         id="stop978"
         offset="0"
         style="stop-color:#fedbb4;stop-opacity:1" />
      <stop
         id="stop980"
         offset="1"
         style="stop-color:#c86400;stop-opacity:1" />
    </linearGradient>
    <radialGradient
       r="185.00977"
       fy="256.01602"
       fx="256"
       cy="256.01602"
       cx="256"
       gradientTransform="matrix(1,0,0,0.99989444,0,0.010997)"
       gradientUnits="userSpaceOnUse"
       id="radialGradient1042"
       xlink:href="#linearGradient982"
       inkscape:collect="always" />
    <linearGradient
       y2="439.34705"
       x2="104.09804"
       y1="63.36528"
       x1="415.85547"
       gradientUnits="userSpaceOnUse"
       id="linearGradient1044"
       xlink:href="#linearGradient1019"
       inkscape:collect="always" />
  </defs>
  <sodipodi:namedview
     inkscape:current-layer="svg5"
     inkscape:window-maximized="1"
     inkscape:window-y="-11"
     inkscape:window-x="-11"
     inkscape:cy="170.78842"
     inkscape:cx="95.082801"
     inkscape:zoom="1.8732344"
     showgrid="false"
     id="namedview7"
     inkscape:window-height="2066"
     inkscape:window-width="3840"
     inkscape:pageshadow="2"
     inkscape:pageopacity="0.61960784"
     guidetolerance="10"
     gridtolerance="10"
     objecttolerance="10"
     borderopacity="1"
     bordercolor="#666666"
     pagecolor="#323232"
     inkscape:document-rotation="0"
     borderlayer="false"
     inkscape:showpageshadow="false"
     showguides="true"
     inkscape:guide-bbox="true"
     guidecolor="#00ff00"
     guideopacity="0.49803922">
    <sodipodi:guide
       inkscape:color="rgb(0,255,0)"
       inkscape:locked="false"
       inkscape:label=""
       position="256,256"
       orientation="-1,0"
       id="guide869" />
    <sodipodi:guide
       inkscape:color="rgb(0,255,0)"
       inkscape:locked="false"
       inkscape:label=""
       position="256,256"
       orientation="0,1"
       id="guide905" />
  </sodipodi:namedview>
  <filter
     id="shadow">
    <feDropShadow
       stdDeviation="6"
       dy="12"
       dx="6" />
  </filter>
  <path
     id="path948"
     style="color:#000000;font-style:normal;font-variant:normal;font-weight:normal;font-stretch:normal;font-size:medium;line-height:normal;font-family:sans-serif;font-variant-ligatures:normal;font-variant-position:normal;font-variant-caps:normal;font-variant-numeric:normal;font-variant-alternates:normal;font-variant-east-asian:normal;font-feature-settings:normal;font-variation-settings:normal;text-indent:0;text-align:start;text-decoration:none;text-decoration-line:none;text-decoration-style:solid;text-decoration-color:#000000;letter-spacing:normal;word-spacing:normal;text-transform:none;writing-mode:lr-tb;direction:ltr;text-orientation:mixed;dominant-baseline:auto;baseline-shift:baseline;text-anchor:start;white-space:normal;shape-padding:0;shape-margin:0;inline-size:0;clip-rule:nonzero;display:inline;overflow:visible;visibility:visible;isolation:auto;mix-blend-mode:normal;color-interpolation:sRGB;color-interpolation-filters:linearRGB;solid-color:#000000;solid-opacity:1;vector-effect:none;fill:#000100;fill-opacity:1;fill-rule:nonzero;stroke:none;stroke-width:30.0001;stroke-linecap:round;stroke-linejoin:round;stroke-miterlimit:4;stroke-dasharray:none;stroke-dashoffset:0;stroke-opacity:1;paint-order:stroke fill markers;color-rendering:auto;image-rendering:auto;shape-rendering:auto;text-rendering:auto;enable-background:accumulate;stop-color:#000000"
     d="m 87.85742,45.6289 c -0.39429,0.007 -0.79446,0.0275 -1.20117,0.0625 -3.23894,0.2786 -6.88127,1.52558 -11.0625,5 -0.20466,0.16873 -0.40849,0.33982 -0.60547,0.51758 a 15.00155,15.00155 0 0 0 -0.0312,0.0293 15.00155,15.00155 0 0 0 -2.41992,2.81836 c -0.97073,1.3494 -1.79655,2.7706 -2.34375,4.24805 a 15.00155,15.00155 0 0 0 -0.0332,0.0879 c -6.86916,18.91413 -2.18784,39.63944 6.19336,58.21094 8.37641,18.56087 20.78013,36.18896 41.16601,41.32812 1.31263,0.36188 2.56741,0.65922 3.85352,0.99024 l 214.93359,244.45507 c 0.1643,1.32278 0.29846,2.60944 0.49024,3.96289 2.49432,20.8672 18.38699,35.41907 35.71874,46.09961 17.34634,10.68953 37.3014,17.98575 56.93946,13.59375 6.21966,-1.39167 10.87156,-6.57394 12.66601,-10.41797 1.7947,-3.84454 2.13429,-6.94443 2.3086,-9.84375 0.34862,-5.79864 -0.44366,-11.07765 -1.53907,-16.22265 -1.09539,-5.14501 -2.46711,-9.81185 -4.44531,-14.15039 -0.98909,-2.16927 -1.6468,-4.16464 -4.87304,-7.37305 -1.61313,-1.60421 -4.29795,-4.19799 -9.88477,-4.75586 -5.04199,-0.50347 -10.60664,2.51233 -13.31445,5.29297 -0.11406,0.044 -0.3621,0.13507 -0.95117,0.23242 -1.60031,0.26447 -4.53775,0.1939 -7.2129,-0.41406 -1.91607,-0.43546 -3.45875,-1.11139 -4.58007,-1.6875 0.0455,-24.6969 -1.61561,-58.47237 -6.8711,-90.66992 -5.50682,-33.73735 -12.99749,-65.51468 -33.54492,-84.21875 -12.89557,-11.73894 -27.58954,-20.15765 -41.17578,-28.32227 -6.35932,-14.5215 -12.82948,-30.17192 -22.82227,-44.46484 -15.91983,-22.77261 -46.47762,-34.26779 -79.23242,-44.04688 -31.26031,-9.3329 -64.54477,-15.30411 -89.04492,-18.41992 -0.42792,-1.18611 -0.89922,-2.80376 -1.08594,-4.75976 -0.26073,-2.73131 0.0447,-5.65345 0.51172,-7.20704 0.1719,-0.57176 0.29552,-0.80464 0.35352,-0.9121 2.91016,-2.13711 6.40789,-6.59316 6.88281,-11.45704 0.52976,-5.42559 -1.51252,-8.81197 -2.85547,-10.75781 -2.68589,-3.89168 -4.56036,-4.77698 -6.45898,-6.01953 -3.79724,-2.48509 -7.82249,-4.3107 -12.38086,-6.0293 -4.55837,-1.71859 -9.39984,-3.18545 -14.56445,-3.93164 -2.25952,-0.32645 -4.72237,-0.8976 -7.48242,-0.84765 z m 1.63867,15.42579 c 10.10217,-0.18843 30.40801,9.17125 26.74219,11.28515 -12.06971,6.96284 -8.51426,38.17928 3.20117,39.58594 47.88651,5.75004 138.95647,24.46597 161.48047,56.68555 9.5556,13.6676 16.19646,30.25767 23.32031,46.24219 14.93995,9.11078 30.5435,17.8175 42.875,29.04296 29.07192,26.46381 35.9789,119.18293 35.55274,167.41016 -0.10423,11.80048 30.4,19.32038 38.84961,8.24024 3.24407,-4.25349 13.07327,30.96953 4.66406,32.8496 -25.80495,5.7712 -71.48435,-21.41612 -74.49805,-46.87109 -0.41673,-2.91099 -0.7626,-5.7661 -1.0625,-8.58594 L 129.58594,145.54688 c -2.75784,-0.65825 -5.54369,-1.36465 -8.37696,-2.1504 -24.85991,-6.2468 -45.97562,-55.02872 -36.94921,-79.88281 0.17011,-0.45932 0.43435,-0.85482 0.77929,-1.16797 v -0.002 c 0.0367,-0.0332 0.0729,-0.0645 0.11133,-0.0957 0.95404,-0.79647 2.47493,-1.15847 4.3457,-1.19336 z m 55.98047,87.82031 203.87891,231.87891 c -2.20654,-38.96134 0.5142,-73.24436 -34.41211,-131.16016 C 301.0591,232.26036 287.43595,215.00773 271.1543,199.79102 218.18489,157.73952 183.83507,156.0499 145.47656,148.875 Z m 40.08594,22.875 c 22.10188,5.44892 44.91012,15.01819 75.7793,39.43164 14.74881,13.865 27.64819,30.01882 41.17382,46.9082 20.15222,33.61695 26.71594,57.41867 29.28516,79.98438 z M 415.86914,46.56836 a 16.80026,16.761052 89.99999 0 0 -10.18359,3.44336 c -46.8665,35.86922 -88.22369,74.47818 -127.25196,115.41992 0.90058,1.04554 1.73439,2.10407 2.48633,3.17969 2.48486,3.55415 4.76966,7.30995 6.91992,11.19726 39.36459,-41.47457 80.89042,-80.37808 128.01563,-116.44531 v 0.002 c -27.33533,57.00993 -61.62813,108.61019 -99.60352,158.74609 4.8309,2.92905 9.60852,5.90762 14.22852,9.01172 38.07274,-50.34864 72.70259,-102.54776 100.48047,-160.48047 a 16.80026,16.761052 89.99999 0 0 1.58984,-8.74414 16.80026,16.761052 89.99999 0 0 -2.34961,-7.21875 16.80026,16.761052 89.99999 0 0 -14.33203,-8.11133 z M 256.55273,188.86914 c -12.87087,14.06423 -25.54042,28.39889 -38.14062,42.95898 l 11.10742,12.63282 c 13.39376,-15.4924 26.84173,-30.68517 40.49414,-45.5586 -4.62107,-3.63616 -9.10841,-6.9817 -13.46094,-10.0332 z m 48.27344,48.13477 c -12.66364,16.33405 -25.68605,32.55805 -38.95508,48.80078 l 11.22266,12.76367 c 13.04772,-15.93771 25.90259,-31.88538 38.43945,-47.97461 -0.20097,-0.33588 -0.38632,-0.66252 -0.58984,-1 -3.37328,-4.21126 -6.73285,-8.4161 -10.11719,-12.58984 z m -92.83008,2.27148 c -15.60486,18.16433 -31.13018,36.67243 -46.79882,55.53906 -8.44253,-9.58787 -16.22694,-19.81656 -23.12696,-30.87109 a 16.80026,16.761052 89.99999 0 0 -27.10937,-1.80859 l -19.64063,23.75 a 16.80026,16.761052 89.99999 0 0 2.20899,23.65429 l 45.82617,38.07032 c -15.41107,26.83627 -36.93349,49.10397 -62.34766,69.33203 a 16.80026,16.761052 89.99999 0 0 -0.27148,26.08984 l 22.93945,19.05664 a 16.80026,16.761052 89.99999 0 0 25.45899,-4.98633 c 15.15596,-28.28441 33.71173,-53.14848 56.91406,-74.02539 l 45.37695,37.69727 a 16.80026,16.761052 89.99999 0 0 23.59961,-2.21289 l 19.63867,-23.75391 a 16.80026,16.761052 89.99999 0 0 -5.9707,-26.01172 c -11.97494,-5.45409 -23.56351,-11.50527 -34.72461,-18.0918 12.38782,-14.91455 24.69547,-29.7175 36.86328,-44.51171 l -11.21875,-12.75977 c -16.65832,20.29209 -33.64968,40.65065 -50.79297,61.35352 16.67686,11.17713 34.46402,20.88704 52.94141,29.30273 l -19.64063,23.75391 -56.18945,-46.68164 c -30.09609,24.14399 -53.3392,53.98341 -71.5625,87.99218 L 91.42969,430.0957 c 30.21338,-24.04793 56.13409,-51.66348 73.11719,-86.70117 l -56.32422,-46.78906 19.64062,-23.75195 c 10.91485,17.48667 23.73444,33.16307 38.04102,47.20507 19.29019,-23.30863 38.214,-46.02643 57.20117,-68.14843 z M 256,56.00976 c -53.58177,0 -102.27435,21.12507 -138.19922,55.48829 0.52851,0.20198 1.07101,0.35957 1.63867,0.42773 5.32908,0.6399 11.25724,1.46791 17.50196,2.42969 C 169.10652,87.30503 210.62728,71.00976 256,71.00976 c 40.4085,0 77.76187,12.92523 108.17383,34.85938 3.81665,-3.36179 7.67708,-6.69637 11.5625,-10.01563 C 342.34424,70.8379 300.88881,56.00976 256,56.00976 Z m 135.7793,53.23243 c -2.52332,4.43488 -5.07549,8.84911 -7.67774,13.22851 35.08156,33.65506 56.9082,81.01624 56.90821,133.5293 0,53.33188 -22.51609,101.34635 -58.5625,135.08984 0.20426,7.07454 0.26589,13.66673 0.2207,19.6211 C 427.33022,374.09257 455.88492,318.54008 456,256.375 a 7.5000501,7.5000501 0 0 0 0.01,-0.33789 7.5000501,7.5000501 0 0 0 0,-0.0371 7.5000501,7.5000501 0 0 0 -0.01,-0.38086 C 455.89129,197.79854 431.1713,145.70641 391.7793,109.24219 Z M 101.42578,129.15234 C 73.04239,163.68164 55.99024,207.86781 55.99023,256 c 0,58.41676 25.11703,111.02063 65.12696,147.60156 3.49986,-3.54084 6.89749,-7.16634 10.18359,-10.88476 C 94.23201,358.89948 70.99023,310.19171 70.99023,256 c 1e-5,-44.25106 15.50353,-84.83953 41.3711,-116.65625 -3.87291,-2.56477 -7.55561,-6.05959 -10.93555,-10.19141 z m 42.73438,274.26563 c -3.07793,3.89644 -6.05288,7.87755 -8.93164,11.93945 33.57102,25.4884 75.4164,40.63282 120.77148,40.63281 38.9232,0 75.25781,-11.15818 106,-30.42968 -3.56139,-4.00002 -6.39925,-8.2055 -8.21289,-12.46289 -28.36329,17.67441 -61.86693,27.89257 -97.78711,27.89257 -42.04773,10e-6 -80.78745,-13.99373 -111.83984,-37.57226 z" />
  <path
     id="path1030"
     style="color:#000000;font-style:normal;font-variant:normal;font-weight:normal;font-stretch:normal;font-size:medium;line-height:normal;font-family:sans-serif;font-variant-ligatures:normal;font-variant-position:normal;font-variant-caps:normal;font-variant-numeric:normal;font-variant-alternates:normal;font-variant-east-asian:normal;font-feature-settings:normal;font-variation-settings:normal;text-indent:0;text-align:start;text-decoration:none;text-decoration-line:none;text-decoration-style:solid;text-decoration-color:#000000;letter-spacing:normal;word-spacing:normal;text-transform:none;writing-mode:lr-tb;direction:ltr;text-orientation:mixed;dominant-baseline:auto;baseline-shift:baseline;text-anchor:start;white-space:normal;shape-padding:0;shape-margin:0;inline-size:0;clip-rule:nonzero;display:inline;overflow:visible;visibility:visible;isolation:auto;mix-blend-mode:normal;color-interpolation:sRGB;color-interpolation-filters:linearRGB;solid-color:#000000;solid-opacity:1;vector-effect:none;fill:#c86400;fill-opacity:1;fill-rule:nonzero;stroke:none;stroke-width:5;stroke-linecap:round;stroke-linejoin:round;stroke-miterlimit:4;stroke-dasharray:none;stroke-dashoffset:0;stroke-opacity:1;paint-order:stroke fill markers;color-rendering:auto;image-rendering:auto;shape-rendering:auto;text-rendering:auto;enable-background:accumulate;stop-color:#000000"
     d="m 89.49612,61.054745 c -0.43138,0.008 -0.83895,0.03788 -1.23046,0.08203 -0.10784,0.01218 -0.20795,0.03182 -0.3125,0.04687 -0.27026,0.03885 -0.53035,0.08587 -0.77735,0.144531 -0.18991,0.04516 -0.37954,0.09106 -0.55469,0.148438 -0.0302,0.0099 -0.062,0.01902 -0.0918,0.0293 -0.24374,0.08411 -0.47173,0.181342 -0.6836,0.291016 -0.0396,0.02051 -0.0768,0.04302 -0.11523,0.06445 -0.20941,0.11667 -0.40678,0.242039 -0.58008,0.386719 -0.0385,0.03117 -0.0746,0.06255 -0.11133,0.0957 v 0.002 c -0.34494,0.313148 -0.60918,0.708654 -0.77929,1.167969 -0.56415,1.553381 -1.0106,3.199738 -1.34571,4.923828 -0.83777,4.310226 -0.98009,9.102788 -0.52734,14.125 0,0 0,0.002 0,0.002 0.27168,3.012725 0.75746,6.109477 1.43555,9.232422 0.67823,3.123606 1.54852,6.274084 2.58984,9.398442 0.34711,1.04145 0.71343,2.07986 1.09766,3.11328 0.76815,2.06605 1.60876,4.11341 2.51562,6.12304 0,0 0.002,0.002 0.002,0.002 0.4533,1.00438 0.92267,2.00018 1.40821,2.98438 0,0 0.002,0.002 0.002,0.002 1.45776,2.95498 3.05606,5.80959 4.77539,8.50976 0.90531,1.42176 1.85364,2.78535 2.82227,4.11329 0.25749,0.35299 0.50785,0.71686 0.76953,1.0625 0.53078,0.70113 1.07381,1.37783 1.62109,2.04687 0,0 0.002,0.002 0.002,0.002 0.29493,0.3605 0.59507,0.70995 0.89453,1.06055 0.0135,0.0159 0.0275,0.031 0.041,0.0469 0.23011,0.26886 0.46064,0.536 0.69336,0.79883 0.0104,0.0118 0.0208,0.0234 0.0312,0.0352 0.30633,0.34546 0.61316,0.69078 0.92383,1.02539 0.002,0.002 0.002,0.004 0.004,0.006 0.45183,0.48647 0.9085,0.9613 1.36914,1.42382 0.29984,0.30111 0.60479,0.59034 0.9082,0.88086 0.30499,0.292 0.61147,0.57841 0.91992,0.85938 0.2768,0.25214 0.55255,0.507 0.83203,0.75 0.317,0.27559 0.63868,0.5334 0.95899,0.79687 0.19311,0.15884 0.38385,0.32614 0.57812,0.48047 0.006,0.005 0.0117,0.009 0.0176,0.0137 0.29411,0.23339 0.59198,0.45492 0.88867,0.67774 0.001,0.001 0.002,0.003 0.004,0.004 0.334,0.25077 0.66875,0.49349 1.00586,0.73047 0.0104,0.007 0.0209,0.0142 0.0312,0.0215 0.27622,0.19377 0.55185,0.39189 0.83008,0.57617 l 0.002,0.002 c 2.86291,1.89596 5.82681,3.29366 8.84765,4.05273 2.83327,0.78575 5.61912,1.49213 8.37696,2.15039 l 82.41015,93.72852 11.10938,12.63476 36.50781,41.52148 11.21875,12.75977 79.78906,90.74805 c 0.2999,2.81984 0.64577,5.67494 1.0625,8.58593 0.29822,2.51888 1.03033,5.05307 2.10352,7.57227 0.2267,0.53217 0.46844,1.06349 0.72656,1.59375 0.20287,0.41673 0.42291,0.83283 0.64453,1.24805 0.003,0.005 0.005,0.0105 0.008,0.0156 0.11074,0.20745 0.22454,0.41408 0.33984,0.6211 0.80003,1.43491 1.70662,2.8585 2.71289,4.26562 0.004,0.005 0.006,0.0106 0.01,0.0156 0.0699,0.0978 0.14011,0.19537 0.21093,0.29297 1.08391,1.49206 2.27344,2.96451 3.56055,4.41016 0.0708,0.0795 0.14148,0.15889 0.21289,0.23828 0.92288,1.02605 1.87342,2.04391 2.88672,3.03906 0.73663,0.72344 1.4955,1.43799 2.27539,2.14258 0,0 0.002,0 0.002,0 1.55938,1.40882 3.20074,2.77884 4.91016,4.09961 0,0 0.002,0 0.002,0 1.70985,1.32105 3.48699,2.59454 5.31641,3.81055 4.5736,3.04009 9.4721,5.72551 14.45898,7.92383 1.99473,0.87932 4.0043,1.67954 6.01172,2.39453 1.00372,0.35751 2.00666,0.69456 3.00781,1.00781 3.00347,0.93971 5.98667,1.67444 8.89844,2.17773 0.9706,0.16777 1.93394,0.31075 2.88672,0.42579 3.81108,0.46016 7.46269,0.48962 10.83594,0.0215 0.42165,-0.0585 0.83928,-0.12501 1.25195,-0.19922 0.41267,-0.0742 0.82141,-0.15591 1.22461,-0.24609 0.39418,-0.0881 0.74786,-0.24942 1.06445,-0.47657 0.10553,-0.0757 0.2074,-0.15994 0.30469,-0.25 0.19423,-0.17977 0.37265,-0.3875 0.53516,-0.62109 0,0 0,-0.002 0,-0.002 0.32518,-0.4678 0.58972,-1.03848 0.79687,-1.69531 0,0 0,-0.002 0,-0.002 0.10344,-0.32822 0.19329,-0.67811 0.26953,-1.04687 0,0 0,-0.002 0,-0.002 0.0763,-0.36947 0.1389,-0.7564 0.18946,-1.1621 0.0506,-0.4063 0.0889,-0.82939 0.11523,-1.26758 0.0789,-1.31247 0.0517,-2.75683 -0.0605,-4.27539 -0.59814,-8.09833 -3.62288,-18.27382 -5.9707,-21.42774 0,0 0,-0.002 0,-0.002 -0.29349,-0.39407 -0.5755,-0.67722 -0.8418,-0.83399 -0.26627,-0.15675 -0.51718,-0.18641 -0.74414,-0.0703 -0.11348,0.058 -0.22088,0.15223 -0.32226,0.28516 -0.26405,0.34625 -0.54995,0.67401 -0.85547,0.98437 -0.30582,0.31075 -0.63045,0.60325 -0.97461,0.87891 -1.03132,0.82603 -2.22717,1.49685 -3.54492,2.02344 -1.757,0.70215 -3.73021,1.14839 -5.81641,1.36718 -1.56466,0.16407 -3.19321,0.19945 -4.84179,0.11914 -2.19812,-0.10707 -4.4323,-0.41955 -6.59961,-0.9121 -0.54183,-0.12312 -1.07947,-0.25732 -1.61133,-0.40235 -1.06374,-0.29009 -2.10477,-0.62362 -3.10938,-0.99609 -0.50173,-0.18602 -0.99439,-0.38263 -1.47656,-0.58789 0,0 -0.002,0 -0.002,0 -0.4827,-0.20551 -0.95417,-0.4206 -1.41407,-0.64453 -0.91975,-0.44787 -1.79039,-0.931 -2.5996,-1.44727 -3.64143,-2.32312 -6.03323,-5.30416 -6.00391,-8.62305 0.002,-0.18827 -0.001,-0.40608 0,-0.5957 0.002,-0.22787 -0.003,-0.48902 -0.002,-0.71875 0.017,-2.7549 0.0164,-5.61312 -0.0156,-8.61914 -1e-5,-0.001 10e-6,-0.003 0,-0.004 -1.7e-4,-0.0157 1.7e-4,-0.0331 0,-0.0488 -0.009,-0.84825 -0.0393,-1.78176 -0.0527,-2.64844 -0.038,-2.45944 -0.0737,-4.9182 -0.14844,-7.51563 0,0 0,-0.002 0,-0.002 -6.1e-4,-0.0212 -9.5e-4,-0.0433 -0.002,-0.0644 -1.45552,-50.41101 -9.93741,-124.07695 -35.33203,-147.19336 -5.07649,-4.62116 -10.72187,-8.80401 -16.63282,-12.77539 l -0.002,0.002 c -2.15346,-1.44688 -4.34331,-2.8656 -6.55469,-4.26562 -0.25109,-0.15845 -0.50222,-0.31664 -0.7539,-0.47461 -2.28749,-1.4403 -4.59618,-2.86257 -6.91993,-4.27149 -4.00244,-2.42669 -8.02902,-4.82907 -12.01171,-7.25781 -5.27135,-11.82788 -10.28135,-23.98331 -16.4004,-35.04492 -0.51648,-0.9337 -1.04129,-1.85978 -1.57421,-2.77734 -0.0218,-0.0375 -0.0427,-0.0758 -0.0645,-0.11329 -0.50265,-0.86365 -1.01629,-1.71493 -1.53515,-2.5625 -0.0545,-0.089 -0.10545,-0.18077 -0.16016,-0.26953 -0.44926,-0.72982 -0.91055,-1.44747 -1.37305,-2.16406 -0.14002,-0.21675 -0.27473,-0.43882 -0.41601,-0.6543 -0.58731,-0.8965 -1.18639,-1.78305 -1.79688,-2.65625 -0.37413,-0.53518 -0.76884,-1.06653 -1.18164,-1.59375 -0.002,-0.002 -0.004,-0.005 -0.006,-0.008 -0.41502,-0.52978 -0.84854,-1.05535 -1.29883,-1.57812 -23.07352,-26.78772 -93.49601,-43.68395 -141.49218,-51.07617 -3.11035,-0.47904 -6.14022,-0.92608 -9.0586,-1.33203 -0.007,-9.3e-4 -0.0128,-9.6e-4 -0.0195,-0.002 -0.005,-7.5e-4 -0.0102,-0.001 -0.0156,-0.002 -2.92877,-0.40721 -5.74367,-0.7738 -8.40821,-1.09375 -0.29356,-0.0353 -0.57967,-0.097 -0.86132,-0.17383 -0.002,-5e-4 -0.004,-10e-4 -0.006,-0.002 -1.12728,-0.28699 -2.17525,-0.843 -3.12891,-1.64258 -0.29907,-0.25075 -0.5881,-0.52413 -0.86914,-0.81836 -0.56111,-0.58728 -1.08771,-1.25725 -1.57422,-1.99805 0,0 0,-0.002 0,-0.002 -0.48646,-0.74088 -0.93552,-1.55189 -1.34375,-2.41992 0,0 0,-0.002 0,-0.002 -0.40819,-0.86811 -0.77525,-1.79283 -1.10156,-2.76172 0,0 0,-0.002 0,-0.002 -0.32627,-0.96896 -0.61277,-1.98201 -0.85352,-3.025388 0,0 0,-0.002 0,-0.002 -0.12042,-0.522017 -0.22979,-1.050246 -0.32812,-1.585937 -0.1967,-1.071402 -0.34752,-2.167134 -0.45313,-3.273438 -0.10561,-1.106305 -0.16491,-2.223082 -0.17578,-3.337891 -0.005,-0.556744 6.7e-4,-1.114039 0.0195,-1.667968 0,0 0,-0.002 0,-0.002 0.0379,-1.109145 0.12558,-2.209058 0.26367,-3.28711 0.13807,-1.078068 0.32645,-2.133721 0.56836,-3.154297 0.21157,-0.892537 0.47202,-1.750436 0.76563,-2.580078 0.0421,-0.118924 0.0773,-0.243903 0.12109,-0.361328 0,0 0,-0.002 0,-0.002 0.17472,-0.468337 0.36218,-0.922819 0.56446,-1.365234 0.40452,-0.88484 0.86532,-1.715212 1.38281,-2.476563 0.51749,-0.761351 1.09246,-1.454943 1.72656,-2.066406 0.63411,-0.61146 1.32767,-1.140995 2.08203,-1.576172 0.12833,-0.074 0.21997,-0.158958 0.29102,-0.25 0.019,-0.02427 0.028,-0.05075 0.043,-0.07617 0.0397,-0.06729 0.0692,-0.137922 0.082,-0.212891 0.006,-0.03832 0.006,-0.07891 0.006,-0.11914 -5.9e-4,-0.07277 -0.009,-0.147873 -0.0312,-0.226563 -0.0118,-0.04172 -0.0253,-0.08365 -0.043,-0.126953 -0.0349,-0.08534 -0.0834,-0.174499 -0.14063,-0.265625 -0.0262,-0.04167 -0.0475,-0.08219 -0.0781,-0.125 -0.0827,-0.115408 -0.18448,-0.234306 -0.29883,-0.357422 -0.0195,-0.02099 -0.0323,-0.0413 -0.0527,-0.0625 -0.0202,-0.02099 -0.0493,-0.04327 -0.0703,-0.06445 -0.22639,-0.227883 -0.50745,-0.470388 -0.82812,-0.71875 -0.0543,-0.04208 -0.10331,-0.08242 -0.16016,-0.125 -0.31279,-0.234234 -0.67612,-0.47763 -1.06055,-0.724609 -0.43574,-0.279911 -0.92328,-0.566824 -1.43945,-0.857422 -0.11554,-0.06504 -0.21284,-0.127969 -0.33203,-0.193359 -0.65366,-0.358632 -1.36316,-0.723345 -2.11328,-1.085938 -0.19374,-0.09363 -0.40625,-0.18587 -0.60547,-0.279297 -0.56955,-0.267129 -1.15157,-0.532482 -1.75977,-0.794922 -0.27683,-0.119434 -0.56418,-0.235728 -0.84765,-0.353515 -0.56945,-0.236619 -1.14731,-0.469867 -1.73828,-0.697266 -0.30636,-0.117862 -0.61507,-0.232971 -0.92578,-0.347656 -0.60342,-0.222717 -1.21367,-0.436451 -1.82813,-0.644532 -0.29321,-0.09927 -0.58437,-0.20152 -0.8789,-0.296874 -0.6546,-0.211936 -1.30989,-0.408115 -1.96485,-0.597657 -0.27061,-0.0783 -0.54285,-0.162349 -0.8125,-0.236328 -0.89737,-0.24618 -1.78977,-0.4709 -2.66211,-0.662109 -0.70241,-0.153952 -1.38923,-0.282557 -2.0625,-0.394532 -0.12732,-0.02117 -0.25483,-0.0449 -0.38086,-0.06445 -0.65882,-0.1022 -1.29899,-0.181693 -1.91601,-0.236328 -0.2268,-0.02007 -0.44979,-0.0357 -0.66993,-0.04883 -0.12554,-0.0075 -0.25372,-0.01827 -0.37695,-0.02344 -0.37199,-0.01559 -0.7369,-0.02214 -1.08594,-0.01563 z m 55.98047,87.820315 c 34.98166,6.54326 66.63676,8.53968 112.11328,40.73242 0.95782,0.6784 1.9199,1.36768 2.89063,2.07422 0.70404,0.51168 1.41231,1.03428 2.12305,1.56054 0.5326,0.39503 1.06906,0.79787 1.60546,1.20118 1.88419,1.41438 3.78995,2.87473 5.72266,4.39453 0.0276,0.0217 0.0544,0.0427 0.082,0.0644 0.38245,0.30094 0.75622,0.58349 1.14063,0.88867 12.32591,11.5197 23.12647,24.20784 33.67187,37.21289 3.38434,4.17374 6.74391,8.37858 10.11719,12.58984 0.20352,0.33748 0.38887,0.66412 0.58984,1 34.28805,57.30547 31.62859,91.42585 33.82227,130.16016 z" />
  <path
     id="path1032"
     style="color:#000000;font-style:normal;font-variant:normal;font-weight:normal;font-stretch:normal;font-size:medium;line-height:normal;font-family:sans-serif;font-variant-ligatures:normal;font-variant-position:normal;font-variant-caps:normal;font-variant-numeric:normal;font-variant-alternates:normal;font-variant-east-asian:normal;font-feature-settings:normal;font-variation-settings:normal;text-indent:0;text-align:start;text-decoration:none;text-decoration-line:none;text-decoration-style:solid;text-decoration-color:#000000;letter-spacing:normal;word-spacing:normal;text-transform:none;writing-mode:lr-tb;direction:ltr;text-orientation:mixed;dominant-baseline:auto;baseline-shift:baseline;text-anchor:start;white-space:normal;shape-padding:0;shape-margin:0;inline-size:0;clip-rule:nonzero;display:inline;overflow:visible;visibility:visible;isolation:auto;mix-blend-mode:normal;color-interpolation:sRGB;color-interpolation-filters:linearRGB;solid-color:#000000;solid-opacity:1;vector-effect:none;fill:url(#radialGradient1042);fill-opacity:1;fill-rule:nonzero;stroke:none;stroke-width:5;stroke-linecap:round;stroke-linejoin:round;stroke-miterlimit:4;stroke-dasharray:none;stroke-dashoffset:0;stroke-opacity:1;paint-order:stroke fill markers;color-rendering:auto;image-rendering:auto;shape-rendering:auto;text-rendering:auto;enable-background:accumulate;stop-color:#000000"
     d="m 256,71.009766 c -1.52676,0 -3.04856,0.02192 -4.56641,0.05859 -0.44246,0.0107 -0.88254,0.03113 -1.32421,0.04492 -1.04458,0.0326 -2.0888,0.06739 -3.12891,0.117188 -0.62062,0.02973 -1.23844,0.06965 -1.85742,0.105469 -0.86407,0.04997 -1.72707,0.102302 -2.58789,0.164062 -0.65662,0.04714 -1.31212,0.100337 -1.9668,0.154297 -0.85099,0.0701 -1.70117,0.145013 -2.54883,0.226562 -0.61758,0.05945 -1.23383,0.12005 -1.84961,0.185547 -0.86464,0.09191 -1.72687,0.19117 -2.58789,0.294922 -0.63463,0.07652 -1.26972,0.153409 -1.90234,0.236328 -0.8253,0.10811 -1.64693,0.224823 -2.46875,0.34375 -0.64494,0.09338 -1.29085,0.185151 -1.9336,0.285157 -0.84039,0.13069 -1.67707,0.274076 -2.51367,0.416015 -0.60882,0.103354 -1.2194,0.199316 -1.82617,0.308594 -0.77891,0.140197 -1.55265,0.295416 -2.32812,0.445313 -1.44811,0.280079 -2.89039,0.577032 -4.32618,0.890624 -0.55327,0.120773 -1.10876,0.235626 -1.66015,0.361329 -0.75943,0.173224 -1.51371,0.358488 -2.26953,0.541015 -0.65545,0.158197 -1.31216,0.313371 -1.96485,0.478516 -0.74402,0.18836 -1.48423,0.38665 -2.22461,0.583984 -0.64512,0.171851 -1.28932,0.344819 -1.93164,0.523438 -0.77835,0.216561 -1.55396,0.439579 -2.32812,0.666015 -0.55375,0.161885 -1.10663,0.325284 -1.65821,0.492188 -0.82392,0.249441 -1.64584,0.5031 -2.46484,0.763672 -0.53644,0.170587 -1.07117,0.346155 -1.60547,0.521484 -0.81643,0.268045 -1.63201,0.537359 -2.44336,0.816406 -0.4769,0.16394 -0.95066,0.334239 -1.42578,0.501953 -0.89391,0.315696 -1.78826,0.631965 -2.67578,0.960938 -0.22956,0.08505 -0.45642,0.175783 -0.68555,0.261719 -3.56609,1.338068 -7.08181,2.776346 -10.53906,4.324219 -1.12654,0.504373 -2.24689,1.022728 -3.36133,1.548828 -0.10984,0.05183 -0.22035,0.102253 -0.33008,0.154296 -1.08542,0.515032 -2.16268,1.042718 -3.23632,1.578126 -0.136,0.06779 -0.2724,0.135007 -0.40821,0.203124 -1.05661,0.530184 -2.10744,1.069438 -3.15234,1.619141 -0.16289,0.08566 -0.32569,0.171681 -0.48828,0.257813 -1.00064,0.530249 -1.99672,1.069225 -2.98633,1.617187 -0.22197,0.122869 -0.44266,0.24734 -0.66406,0.371094 -0.99657,0.557195 -1.9876,1.120327 -2.97266,1.695312 -0.085,0.04961 -0.16899,0.100652 -0.2539,0.150391 -3.06552,1.795927 -6.07212,3.68245 -9.02149,5.646488 19.04463,3.36389 40.15484,7.98537 60.45117,14.04492 30.02415,8.96385 58.1928,19.3764 74.94336,38.58789 19.46537,-19.98559 39.56792,-39.39734 60.68555,-58.181642 -0.12083,-0.07093 -0.24033,-0.144177 -0.36133,-0.214844 -0.84365,-0.492797 -1.69086,-0.977271 -2.54297,-1.457031 -0.26695,-0.150272 -0.53496,-0.298282 -0.80273,-0.447265 -0.85118,-0.473673 -1.70507,-0.945682 -2.56446,-1.40625 -0.1534,-0.08219 -0.30922,-0.160416 -0.46289,-0.242188 -2.78258,-1.481131 -5.60753,-2.891478 -8.47265,-4.232422 -0.34911,-0.163339 -0.69658,-0.329015 -1.04688,-0.490234 -0.79594,-0.366445 -1.59642,-0.726599 -2.39844,-1.082031 -0.3922,-0.173751 -0.78605,-0.344525 -1.17968,-0.515625 -0.83223,-0.36188 -1.66535,-0.72036 -2.50391,-1.070313 -0.0132,-0.0055 -0.0259,-0.01209 -0.0391,-0.01758 -0.13871,-0.05785 -0.27909,-0.112399 -0.41797,-0.169922 -1.71717,-0.711212 -3.44854,-1.394117 -5.19141,-2.054687 -0.40066,-0.151794 -0.79918,-0.307944 -1.20117,-0.457032 -0.73873,-0.274092 -1.48144,-0.539787 -2.22461,-0.804687 -0.56464,-0.201178 -1.1301,-0.399866 -1.69726,-0.595703 -0.71688,-0.247641 -1.4354,-0.491417 -2.15625,-0.730469 -0.53359,-0.17687 -1.06973,-0.349348 -1.60547,-0.521484 -0.74683,-0.24007 -1.49319,-0.48208 -2.24414,-0.712891 -1.17573,-0.3612 -2.35539,-0.712482 -3.54102,-1.050781 -0.005,-0.0013 -0.009,-0.0026 -0.0137,-0.0039 -0.53159,-0.151709 -1.06802,-0.292385 -1.60156,-0.439453 -0.78266,-0.215625 -1.56476,-0.431141 -2.35156,-0.636718 -0.63676,-0.166464 -1.2766,-0.326492 -1.91602,-0.486329 -0.72432,-0.180953 -1.45005,-0.358847 -2.17774,-0.53125 -0.60449,-0.143298 -1.20961,-0.284514 -1.8164,-0.421874 -0.79781,-0.180494 -1.59869,-0.353274 -2.40039,-0.523438 -0.58343,-0.123907 -1.16455,-0.252694 -1.75,-0.371094 -1.27246,-0.257189 -2.5502,-0.499493 -3.83203,-0.730468 -0.46466,-0.08378 -0.93257,-0.15993 -1.39844,-0.240235 -0.94049,-0.162022 -1.88281,-0.320957 -2.82813,-0.46875 -0.53694,-0.084 -1.07481,-0.162811 -1.61328,-0.242187 -0.87384,-0.128735 -1.74916,-0.25069 -2.62695,-0.367188 -0.54727,-0.07267 -1.0938,-0.146956 -1.64258,-0.214844 -1.1737,-0.145108 -2.3508,-0.277324 -3.53125,-0.40039 -0.20284,-0.02116 -0.40438,-0.04785 -0.60742,-0.06836 -1.42704,-0.144029 -2.86038,-0.269373 -4.29687,-0.380859 -0.40155,-0.03119 -0.80476,-0.05536 -1.20704,-0.08398 -1.02149,-0.07263 -2.04427,-0.139291 -3.07031,-0.195313 -0.51618,-0.0282 -1.03347,-0.05415 -1.55078,-0.07813 -1.02301,-0.04737 -2.04886,-0.0845 -3.07617,-0.115234 -0.41742,-0.0125 -0.83384,-0.02738 -1.25196,-0.03711 -1.46168,-0.034 -2.92653,-0.05664 -4.39648,-0.05664 z m 140.08594,64.099604 c -17.4473,29.00617 -36.48955,56.79281 -56.59766,83.95899 6.08814,4.12218 12.08169,8.59953 17.72461,13.73633 20.54743,18.70407 28.0381,50.4814 33.54492,84.21875 3.24822,19.90009 5.12055,40.3967 6.06836,58.98633 7.51027,-8.80416 14.22124,-18.31265 19.99219,-28.42969 0.75065,-1.31597 1.48411,-2.64253 2.20312,-3.97851 0.0899,-0.16708 0.17623,-0.33652 0.26563,-0.50391 0.63868,-1.19554 1.26786,-2.39634 1.88086,-3.60742 0.098,-0.19367 0.19172,-0.38992 0.28906,-0.58399 0.58571,-1.16738 1.16109,-2.34205 1.72266,-3.52343 0.1381,-0.29062 0.27157,-0.58354 0.4082,-0.875 0.50301,-1.07267 0.99952,-2.14861 1.48242,-3.23243 0.186,-0.41759 0.36584,-0.83859 0.54883,-1.25781 0.42476,-0.97278 0.84548,-1.94824 1.25391,-2.92969 0.20245,-0.48665 0.39924,-0.97609 0.59765,-1.46484 0.37648,-0.92708 0.74757,-1.8565 1.10938,-2.79102 0.20752,-0.53619 0.41062,-1.07468 0.61328,-1.61328 0.33775,-0.89735 0.66999,-1.79723 0.99414,-2.70117 0.20486,-0.57147 0.40609,-1.14469 0.60547,-1.71875 0.31065,-0.89414 0.61484,-1.79106 0.91211,-2.69141 0.18588,-0.56317 0.36822,-1.12778 0.54883,-1.69335 0.2958,-0.92598 0.58562,-1.85482 0.86718,-2.78711 0.16832,-0.5575 0.33486,-1.11606 0.49805,-1.67578 0.27325,-0.93691 0.5381,-1.8773 0.79688,-2.82032 0.1557,-0.56763 0.3105,-1.13527 0.46093,-1.70508 0.24669,-0.9341 0.4844,-1.87265 0.7168,-2.8125 0.14685,-0.59411 0.29249,-1.18878 0.43359,-1.78515 0.21993,-0.92917 0.4289,-1.86232 0.63477,-2.79688 0.13421,-0.60949 0.27025,-1.21832 0.39844,-1.83007 0.19046,-0.90856 0.36783,-1.82095 0.54492,-2.73438 0.12321,-0.63578 0.25049,-1.2701 0.36719,-1.9082 0.17755,-0.97048 0.34154,-1.94614 0.5039,-2.92188 0.0946,-0.56896 0.19377,-1.13633 0.28321,-1.70703 0.15678,-1.00002 0.29873,-2.00447 0.43945,-3.00977 0.0822,-0.5877 0.16939,-1.17421 0.24609,-1.76367 0.11664,-0.89599 0.21848,-1.79726 0.32227,-2.69726 0.0835,-0.72423 0.17098,-1.44706 0.24609,-2.17383 0.085,-0.82228 0.15429,-1.64915 0.22852,-2.47461 0.0679,-0.7557 0.14234,-1.50927 0.20117,-2.26758 0.0754,-0.97105 0.13301,-1.94663 0.19336,-2.92187 0.0386,-0.62335 0.0868,-1.24412 0.11914,-1.86914 0.0617,-1.19023 0.1015,-2.3859 0.14062,-3.58204 0.0138,-0.42185 0.0379,-0.8411 0.0488,-1.26367 0.0423,-1.63017 0.0645,-3.26576 0.0645,-4.90625 0,-1.62798 -0.0228,-3.25132 -0.0645,-4.86914 -3.3e-4,-0.013 3.4e-4,-0.026 0,-0.0391 -0.008,-0.31948 -0.0272,-0.63601 -0.0371,-0.95508 -0.0396,-1.27498 -0.0832,-2.5481 -0.14843,-3.8164 -0.0297,-0.57674 -0.0745,-1.14929 -0.10938,-1.72461 -0.0613,-1.0094 -0.11795,-2.02045 -0.19531,-3.02539 -0.0602,-0.78265 -0.13906,-1.55998 -0.20899,-2.33985 -0.0708,-0.78892 -0.13423,-1.57921 -0.21484,-2.36523 -0.0739,-0.7205 -0.16399,-1.43629 -0.24609,-2.1543 -0.10172,-0.8894 -0.19824,-1.78052 -0.3125,-2.66602 -0.0717,-0.55573 -0.15582,-1.10793 -0.23242,-1.6621 -0.14,-1.01252 -0.27926,-2.02602 -0.43555,-3.03321 -0.0938,-0.6049 -0.19915,-1.20566 -0.29883,-1.80859 -0.15216,-0.92014 -0.30309,-1.84039 -0.46875,-2.75586 -0.12887,-0.71227 -0.27122,-1.41952 -0.4082,-2.12891 -0.15989,-0.82785 -0.3174,-1.65661 -0.48828,-2.48047 -0.13626,-0.65715 -0.28258,-1.31028 -0.42579,-1.96484 -0.19211,-0.8779 -0.38337,-1.75575 -0.58789,-2.62891 -0.14561,-0.62181 -0.30126,-1.24 -0.45312,-1.85937 -0.21975,-0.89606 -0.43914,-1.79273 -0.67188,-2.68359 -0.16057,-0.61476 -0.32938,-1.22566 -0.49609,-1.8379 -0.23565,-0.86523 -0.47287,-1.72973 -0.7207,-2.58984 -0.18857,-0.65456 -0.38645,-1.30549 -0.58203,-1.95703 -0.24635,-0.82058 -0.4926,-1.64132 -0.75,-2.45703 -0.20467,-0.64878 -0.4173,-1.29379 -0.62891,-1.93945 -0.2724,-0.83098 -0.54628,-1.6606 -0.83008,-2.48633 -0.20117,-0.58544 -0.41032,-1.16723 -0.61719,-1.75 -0.31411,-0.88471 -0.63185,-1.76805 -0.95898,-2.64649 -0.2069,-0.5557 -0.41879,-1.10896 -0.63086,-1.66211 -0.32216,-0.84014 -0.64646,-1.6795 -0.98047,-2.51367 -0.2513,-0.62773 -0.50767,-1.25266 -0.76562,-1.87695 -0.33377,-0.80763 -0.67276,-1.61225 -1.01758,-2.41406 -0.23918,-0.55626 -0.4821,-1.11065 -0.72656,-1.66407 -0.37732,-0.85402 -0.76059,-1.70558 -1.1504,-2.55273 -0.24083,-0.52351 -0.48294,-1.04556 -0.72851,-1.56641 -0.41869,-0.8879 -0.84306,-1.77227 -1.27539,-2.65234 -0.22249,-0.45297 -0.44776,-0.90461 -0.67383,-1.35547 -0.45281,-0.90292 -0.91183,-1.80093 -1.37891,-2.69531 -0.246,-0.47115 -0.4942,-0.94142 -0.74414,-1.41016 -0.47511,-0.89091 -0.95807,-1.77802 -1.44726,-2.66015 -0.2295,-0.41389 -0.46079,-0.82635 -0.69336,-1.23829 -0.51979,-0.92052 -1.04702,-1.83547 -1.58203,-2.74609 -0.23407,-0.39845 -0.46812,-0.79683 -0.70508,-1.19336 -0.5375,-0.89932 -1.08447,-1.79232 -1.63672,-2.68164 -0.24979,-0.4023 -0.49917,-0.80485 -0.75195,-1.20508 -0.57143,-0.90462 -1.15169,-1.80335 -1.73828,-2.69726 -0.22488,-0.34273 -0.44869,-0.68621 -0.67578,-1.02735 -0.64428,-0.96773 -1.29903,-1.92806 -1.96094,-2.88281 -0.18819,-0.27148 -0.37485,-0.54403 -0.56446,-0.81445 -0.68794,-0.98105 -1.38735,-1.953 -2.09375,-2.91993 -0.18493,-0.25317 -0.3685,-0.50757 -0.55468,-0.75976 -0.706,-0.95617 -1.42263,-1.90377 -2.14649,-2.8457 -0.20035,-0.26073 -0.3979,-0.52358 -0.59961,-0.78321 -0.70455,-0.90678 -1.42161,-1.80408 -2.14257,-2.69726 -0.24138,-0.29907 -0.47946,-0.60092 -0.72266,-0.89844 -0.74672,-0.91345 -1.5058,-1.81608 -2.26953,-2.71484 -0.1936,-0.22783 -0.38345,-0.45867 -0.57813,-0.68555 -0.13041,-0.15198 -0.26559,-0.29963 -0.39648,-0.45117 z m -292.88281,16.50001 c -0.0153,0.0224 -0.0316,0.044 -0.0469,0.0664 -0.63912,0.93487 -1.26637,1.87907 -1.88867,2.82617 -0.13137,0.19998 -0.26392,0.3991 -0.39453,0.59961 -0.57876,0.88832 -1.14907,1.78283 -1.71289,2.68164 -0.14464,0.23062 -0.288,0.46206 -0.43164,0.69336 -0.57276,0.92208 -1.13842,1.84844 -1.69532,2.78125 -0.10201,0.17092 -0.20321,0.3424 -0.30468,0.51367 -0.58442,0.98615 -1.16201,1.97676 -1.72852,2.97461 -0.0288,0.0507 -0.0572,0.10162 -0.0859,0.15235 -1.86316,3.28902 -3.6294,6.63998 -5.29297,10.05078 -0.02,0.0411 -0.0405,0.0819 -0.0605,0.12305 -0.44687,0.91795 -0.88045,1.84313 -1.3125,2.76953 -0.16005,0.34328 -0.32247,0.68487 -0.48047,1.02929 -0.37132,0.80917 -0.73382,1.62404 -1.09375,2.43946 -0.21765,0.49325 -0.43498,0.98691 -0.64844,1.48242 -0.32457,0.75318 -0.64416,1.50925 -0.95898,2.26758 -0.22174,0.5343 -0.4394,1.07059 -0.65625,1.60742 -0.30419,0.75272 -0.60586,1.50605 -0.90039,2.26367 -0.21428,0.55138 -0.42174,1.10622 -0.63086,1.66016 -0.28299,0.74926 -0.5683,1.49806 -0.8418,2.25195 -0.23108,0.63721 -0.45152,1.27946 -0.67578,1.91992 -0.43786,1.24997 -0.86181,2.50547 -1.27344,3.76758 -0.21848,0.67017 -0.44132,1.3382 -0.65234,2.01172 -0.2343,0.74751 -0.4566,1.50037 -0.68164,2.25195 -0.18179,0.6074 -0.36531,1.21421 -0.54102,1.82422 -0.21,0.72878 -0.41202,1.4609 -0.61328,2.19336 -0.17729,0.6455 -0.35298,1.29114 -0.52344,1.93945 -0.18959,0.72076 -0.37359,1.44378 -0.55469,2.16797 -0.16949,0.67815 -0.33604,1.35796 -0.49804,2.03906 -0.16354,0.68726 -0.32461,1.37619 -0.48047,2.06641 -0.17788,0.78812 -0.34783,1.57918 -0.51563,2.37109 -0.12551,0.59208 -0.2532,1.18319 -0.37304,1.77735 -0.18786,0.93185 -0.36329,1.86779 -0.53711,2.80469 -0.0907,0.48872 -0.18852,0.97476 -0.27539,1.46484 -0.24444,1.37967 -0.47377,2.76419 -0.6875,4.1543 -0.0844,0.54879 -0.15674,1.10195 -0.23633,1.65234 -0.12898,0.89235 -0.25878,1.7852 -0.375,2.68164 -0.0749,0.57736 -0.14138,1.1573 -0.21094,1.73633 -0.11079,0.92271 -0.21727,1.84658 -0.31445,2.77344 -0.0566,0.53935 -0.10821,1.08036 -0.16016,1.62109 -0.0883,0.91945 -0.17129,1.84031 -0.24609,2.76367 -0.0473,0.58412 -0.0929,1.16825 -0.13477,1.75391 -0.0662,0.92508 -0.12323,1.85243 -0.17578,2.78125 -0.0314,0.55483 -0.0653,1.10987 -0.0918,1.66601 -0.0496,1.04114 -0.0848,2.08526 -0.11718,3.13086 -0.0138,0.44425 -0.0343,0.887 -0.0449,1.33203 -0.0358,1.49896 -0.0566,3.00214 -0.0566,4.50977 0,1.65234 0.0235,3.29953 0.0664,4.94141 0.0132,0.50351 0.0395,1.00336 0.0566,1.50586 0.0384,1.12371 0.0764,2.24673 0.13477,3.36523 0.0344,0.66086 0.0836,1.31757 0.125,1.97657 0.0607,0.96638 0.11991,1.93421 0.19531,2.89648 0.0567,0.72352 0.12643,1.44292 0.19141,2.16406 0.0779,0.865 0.15435,1.73029 0.24414,2.5918 0.079,0.75797 0.16971,1.51238 0.25781,2.26758 0.10154,0.87039 0.20285,1.74079 0.31641,2.60742 0.0901,0.68784 0.18947,1.37316 0.28711,2.05859 0.1289,0.9047 0.25847,1.80859 0.40039,2.70899 0.10894,0.69135 0.22718,1.37959 0.34375,2.06836 0.14949,0.8832 0.3029,1.76566 0.46484,2.64453 0.1294,0.70231 0.26505,1.40206 0.40234,2.10156 0.16741,0.85282 0.33852,1.70418 0.51758,2.55274 0.14469,0.68572 0.29306,1.36984 0.44531,2.05273 0.20283,0.90963 0.41276,1.81619 0.62891,2.7207 0.14554,0.60908 0.29378,1.2175 0.44531,1.82422 0.22939,0.91833 0.46594,1.83328 0.70899,2.74609 0.16861,0.63335 0.33853,1.26585 0.51367,1.89649 0.24767,0.89173 0.505,1.77979 0.76562,2.66601 0.18129,0.61653 0.36132,1.23385 0.54883,1.84766 0.26421,0.86477 0.53993,1.72468 0.81641,2.58399 0.20947,0.65112 0.41635,1.30324 0.63281,1.95117 0.28595,0.85587 0.58475,1.70642 0.88281,2.55664 0.21303,0.6077 0.42146,1.21748 0.64063,1.82226 0.31719,0.87521 0.64855,1.74235 0.97851,2.61133 0.22614,0.59561 0.44565,1.19447 0.67774,1.78711 0.3761,0.96028 0.76854,1.91289 1.16015,2.86524 0.19197,0.46687 0.37661,0.9374 0.57227,1.40234 0.47233,1.12229 0.96138,2.23484 1.45508,3.3457 0.1375,0.30941 0.2671,0.62313 0.40625,0.93164 0.64358,1.42681 1.30594,2.84475 1.98437,4.25196 0.68424,1.41926 1.38635,2.82779 2.10547,4.22656 0.0573,0.11147 0.11826,0.22069 0.17578,0.33203 0.63436,1.22772 1.2786,2.44871 1.93946,3.66016 0.25199,0.46198 0.51372,0.91737 0.76953,1.37695 0.49678,0.89244 0.99481,1.78471 1.50586,2.66797 0.26893,0.46483 0.54551,0.92447 0.81836,1.38672 0.51414,0.871 1.03065,1.73982 1.55859,2.60156 0.28916,0.47201 0.58564,0.939 0.87891,1.4082 0.51677,0.82674 1.03504,1.65281 1.56445,2.47071 0.30376,0.46932 0.61399,0.93402 0.92187,1.40039 0.56313,0.85296 1.13024,1.70389 1.70704,2.54687 0.27696,0.40477 0.55781,0.80655 0.83789,1.20899 0.58514,0.84076 1.17476,1.67732 1.77343,2.50781 0.32509,0.45097 0.65339,0.89974 0.98243,1.34765 0.59634,0.81175 1.19938,1.61837 1.80859,2.41993 0.29987,0.39457 0.60134,0.78761 0.9043,1.17968 0.6428,0.83185 1.29263,1.65803 1.94921,2.47852 0.32142,0.40164 0.64409,0.80228 0.96876,1.20117 0.61577,0.75651 1.23779,1.50741 1.86523,2.25391 0.37136,0.44184 0.74178,0.88397 1.11719,1.32226 0.64544,0.75355 1.29973,1.49923 1.95703,2.24219 0.35132,0.39712 0.70196,0.79539 1.05664,1.18945 0.33171,0.36853 0.67124,0.72988 1.00586,1.09571 9.04667,-10.3264 17.09012,-21.32711 23.92578,-33.23047 L 97.52938,309.53907 a 16.80026,16.761052 89.99999 0 1 -2.20899,-23.6543 l 19.64063,-23.75 a 16.80026,16.761052 89.99999 0 1 27.10937,1.80859 c 6.90002,11.05453 14.68443,21.28323 23.12696,30.8711 12.37096,-14.89589 24.65506,-29.55947 36.95703,-44.01563 l -80.78133,-91.87695 c -1.28611,-0.33102 -2.54089,-0.62836 -3.85352,-0.99024 -5.28706,-1.33284 -10.03413,-3.51095 -14.3164,-6.32226 z m 82.35937,20.14062 42.78711,48.66406 c 5.98533,-6.83396 11.99512,-13.61499 18.04102,-20.33789 C 222.81481,183.6898 203.93647,176.27985 185.5625,171.75 Z m 119.99219,91.53516 c -6.22144,7.85228 -12.50796,15.67965 -18.85156,23.49609 l 45.09765,51.29297 c -2.43444,-21.38193 -8.47693,-43.88905 -26.24609,-74.78906 z m -44.39844,54.61914 c -9.01083,10.90216 -18.06591,21.81672 -27.1875,32.79883 11.1611,6.58654 22.74967,12.6377 34.72461,18.09179 a 16.80026,16.761052 89.99999 0 1 5.9707,26.01172 l -19.63867,23.75391 a 16.80026,16.761052 89.99999 0 1 -23.59961,2.21289 l -45.37695,-37.69726 c -10.22338,9.19874 -19.54254,19.17265 -28.06836,29.87109 0.42769,0.26744 0.85122,0.54065 1.28125,0.80469 0.88042,0.54058 1.7681,1.06952 2.6582,1.5957 0.25369,0.14994 0.50725,0.30045 0.76172,0.44922 0.84521,0.49419 1.69512,0.98178 2.54883,1.46289 0.29025,0.16353 0.58182,0.32432 0.87305,0.48633 0.84888,0.47236 1.69959,0.94302 2.55664,1.40234 0.23191,0.12425 0.46671,0.2439 0.69922,0.36719 2.87626,1.52567 5.79762,2.97761 8.76171,4.35351 0.26408,0.12254 0.52627,0.24781 0.79102,0.36914 0.81473,0.3735 1.63402,0.73764 2.45508,1.09961 0.44461,0.19594 0.8895,0.39145 1.33594,0.58399 0.77256,0.33329 1.54819,0.66134 2.32617,0.98437 0.46995,0.19506 0.94215,0.38683 1.41406,0.57813 0.78435,0.31806 1.56969,0.63578 2.35938,0.94336 0.40195,0.15651 0.80761,0.30521 1.21093,0.45898 1.50891,0.5755 3.02707,1.13109 4.55469,1.66797 0.51529,0.18102 1.02755,0.36834 1.54492,0.54492 0.68518,0.23395 1.37566,0.45552 2.06446,0.68164 0.63184,0.20733 1.26359,0.41649 1.89843,0.61719 0.6797,0.21497 1.36184,0.42354 2.04492,0.63086 0.67731,0.20547 1.35653,0.40562 2.03711,0.60352 0.63955,0.18605 1.27948,0.37147 1.92188,0.55078 0.71475,0.19943 1.43216,0.391 2.15039,0.58203 0.65204,0.17352 1.30216,0.35102 1.95703,0.51758 1.26202,0.32083 2.52851,0.63101 3.80078,0.92578 0.003,6.1e-4 0.005,9.5e-4 0.008,0.002 0.49342,0.11435 0.99141,0.21773 1.48633,0.32813 0.86947,0.19385 1.73923,0.38678 2.61328,0.56835 0.6182,0.1285 1.23892,0.24877 1.85938,0.3711 0.79853,0.15734 1.59819,0.31193 2.40039,0.45898 0.58302,0.10693 1.16702,0.21104 1.75195,0.3125 0.84917,0.14722 1.70157,0.28626 2.55469,0.42188 0.57624,0.0917 1.15246,0.18515 1.73047,0.27148 0.93887,0.14014 1.88076,0.26852 2.82422,0.39453 0.47367,0.0633 0.94511,0.13364 1.41992,0.19336 1.40654,0.1768 2.81813,0.33537 4.23437,0.48047 0.32141,0.033 0.64491,0.0605 0.9668,0.0918 1.12143,0.10899 2.24581,0.2099 3.37305,0.29883 0.49267,0.0389 0.98671,0.0724 1.48047,0.10742 0.9624,0.0682 1.92614,0.13009 2.89257,0.18359 0.52434,0.029 1.04874,0.0573 1.57422,0.082 1.02676,0.0482 2.0568,0.0858 3.08789,0.11719 0.44733,0.0136 0.89367,0.0306 1.3418,0.041 1.46685,0.0342 2.93694,0.0566 4.41211,0.0566 1.43664,0 2.86812,-0.0222 4.29688,-0.0547 0.36971,-0.008 0.73825,-0.0187 1.10742,-0.0293 1.14314,-0.0327 2.28405,-0.0756 3.42187,-0.1289 0.31803,-0.0149 0.63748,-0.0265 0.95508,-0.043 1.38335,-0.0719 2.76163,-0.15972 4.13672,-0.26172 0.3365,-0.025 0.67182,-0.0553 1.00781,-0.082 1.11529,-0.0888 2.2283,-0.18842 3.33789,-0.29688 0.34382,-0.0336 0.68799,-0.0641 1.03125,-0.0996 1.35583,-0.14014 2.70777,-0.29173 4.05469,-0.46093 0.35826,-0.0451 0.71465,-0.0974 1.07227,-0.14453 0.98975,-0.13021 1.9762,-0.26831 2.96093,-0.41407 0.51176,-0.0758 1.02283,-0.15243 1.53321,-0.23242 0.97657,-0.15293 1.95045,-0.31626 2.92187,-0.48437 0.57754,-0.10004 1.15479,-0.20127 1.73047,-0.30664 1.00592,-0.18397 2.00964,-0.37409 3.00977,-0.57422 0.61069,-0.12231 1.21963,-0.25062 1.82812,-0.37891 0.71582,-0.1508 1.42984,-0.3058 2.14258,-0.46484 0.57152,-0.12763 1.14339,-0.25187 1.71289,-0.38477 1.12532,-0.26239 2.24599,-0.53752 3.36328,-0.82031 0.67468,-0.1709 1.34589,-0.34906 2.01758,-0.52735 0.60689,-0.16096 1.212,-0.32523 1.8164,-0.49218 0.6717,-0.18567 1.34313,-0.37143 2.01172,-0.56446 0.51731,-0.14924 1.03145,-0.30537 1.54688,-0.45898 1.30812,-0.39016 2.61049,-0.79284 3.90625,-1.21094 0.43577,-0.14052 0.8723,-0.28018 1.30664,-0.42383 0.7662,-0.25357 1.53126,-0.51212 2.29297,-0.77539 0.36031,-0.12446 0.71883,-0.25228 1.07812,-0.3789 1.74853,-0.61655 3.48703,-1.25477 5.21094,-1.92188 0.005,-0.002 0.009,-0.004 0.0137,-0.006 0,0 0.002,0 0.002,0 0.88606,-0.34298 1.7671,-0.69463 2.64648,-1.05078 0.22761,-0.0921 0.45449,-0.18629 0.68164,-0.2793 2.71363,-1.11171 5.39587,-2.28453 8.04297,-3.51953 0.14709,-0.0686 0.29454,-0.13609 0.44141,-0.20507 1.95857,-0.92008 3.89617,-1.87539 5.8164,-2.86133 -1.8198,-4.12991 -3.09148,-8.55503 -3.66015,-13.3125 -0.19178,-1.35345 -0.32594,-2.64011 -0.49024,-3.96289 z" />
  <path
     id="path1034"
     style="color:#000000;font-style:normal;font-variant:normal;font-weight:normal;font-stretch:normal;font-size:medium;line-height:normal;font-family:sans-serif;font-variant-ligatures:normal;font-variant-position:normal;font-variant-caps:normal;font-variant-numeric:normal;font-variant-alternates:normal;font-variant-east-asian:normal;font-feature-settings:normal;font-variation-settings:normal;text-indent:0;text-align:start;text-decoration:none;text-decoration-line:none;text-decoration-style:solid;text-decoration-color:#000000;letter-spacing:normal;word-spacing:normal;text-transform:none;writing-mode:lr-tb;direction:ltr;text-orientation:mixed;dominant-baseline:auto;baseline-shift:baseline;text-anchor:start;white-space:normal;shape-padding:0;shape-margin:0;inline-size:0;clip-rule:nonzero;display:inline;overflow:visible;visibility:visible;isolation:auto;mix-blend-mode:normal;color-interpolation:sRGB;color-interpolation-filters:linearRGB;solid-color:#000000;solid-opacity:1;vector-effect:none;fill:url(#linearGradient1044);fill-opacity:1;fill-rule:nonzero;stroke:none;stroke-width:5;stroke-linecap:round;stroke-linejoin:round;stroke-miterlimit:4;stroke-dasharray:none;stroke-dashoffset:0;stroke-opacity:1;paint-order:stroke fill markers;color-rendering:auto;image-rendering:auto;shape-rendering:auto;text-rendering:auto;enable-background:accumulate;stop-color:#000000"
     d="m 415.85547,63.363274 c -3.01265,2.305725 -6.00093,4.624349 -8.96875,6.953125 -0.65786,0.516205 -1.30523,1.037354 -1.96094,1.554688 -2.24402,1.770458 -4.48376,3.544484 -6.70312,5.328125 -1.55431,1.249256 -3.09029,2.50796 -4.63282,3.763672 -1.31149,1.067534 -2.63042,2.130947 -3.93359,3.203125 -1.53167,1.260315 -3.046,2.53015 -4.56641,3.796875 -1.34553,1.120888 -2.69824,2.237396 -4.03515,3.363281 -1.59467,1.343135 -3.17317,2.696643 -4.75586,4.046875 -0.18787,0.160276 -0.37675,0.320093 -0.56445,0.480469 -0.0587,0.05014 -0.11711,0.100246 -0.17579,0.15039 -1.62787,1.391142 -3.24761,2.78809 -4.86523,4.185551 -0.85191,0.73773 -1.70222,1.47503 -2.55078,2.21484 -1.21651,1.06042 -2.43673,2.11891 -3.64649,3.18359 0,0 -0.002,0.002 -0.002,0.002 -22.97234,20.22109 -44.7376,41.21515 -65.81055,62.93164 7.04101,11.85419 12.23508,24.27298 17.35352,35.96094 3.03506,1.82392 6.13677,3.67318 9.25,5.55664 22.00202,-29.67499 42.6326,-59.97253 61.23047,-91.6875 0.64178,-1.09443 1.28302,-2.18925 1.91992,-3.28711 0.95888,-1.65804 1.91209,-3.3195 2.86133,-4.98437 0.26185,-0.45891 0.52417,-0.91743 0.78515,-1.37696 0.88665,-1.56117 1.77774,-3.11907 2.6543,-4.6875 1.04299,-1.86618 2.06919,-3.74435 3.09766,-5.621089 0.79314,-1.447333 1.59258,-2.889975 2.37695,-4.34375 1.0934,-2.026512 2.16612,-4.068057 3.24219,-6.107422 0.70464,-1.335448 1.41813,-2.664759 2.11523,-4.005859 1.33523,-2.568737 2.64802,-5.154086 3.95508,-7.744141 0.40139,-0.795387 0.81224,-1.583414 1.21094,-2.380859 1.73135,-3.462962 3.43956,-6.944372 5.11914,-10.447265 z M 259.875,210.04687 c -6.84365,7.58593 -13.64404,15.2525 -20.42187,22.99609 l 36.01367,40.96094 c 6.69468,-8.27285 13.31963,-16.54936 19.85742,-24.8457 -10.99127,-13.61668 -21.86754,-26.58766 -33.98242,-37.97657 -0.49688,-0.39297 -0.97407,-0.74945 -1.4668,-1.13476 z m -46.59961,53.39844 c -15.70156,18.47276 -31.41132,37.32885 -47.37109,56.61328 -14.30658,-14.042 -27.12617,-29.71841 -38.04102,-47.20508 l -19.64062,23.75195 56.32422,46.78906 c -8.86235,18.28382 -20.17621,34.53296 -33.2461,49.32227 -1.61973,1.83282 -3.26649,3.64303 -4.93945,5.43164 -0.0242,0.0259 -0.048,0.0522 -0.0723,0.0781 -5.82475,6.22241 -11.94686,12.19756 -18.34765,17.9414 -3.55504,3.19016 -7.19111,6.31333 -10.89844,9.37695 -1.85367,1.53182 -3.72495,3.0478 -5.61328,4.55079 l 22.93945,19.05664 c 1.13869,-2.12504 2.29823,-4.23405 3.47656,-6.32617 0,0 0,-0.002 0,-0.002 7.07147,-12.55515 14.8645,-24.50983 23.47657,-35.78515 0,0 0,-0.002 0,-0.002 0.93102,-1.21892 1.88761,-2.41622 2.83789,-3.61914 12.23558,-15.4886 26.06247,-29.65557 41.77148,-42.25781 l 56.18948,46.68175 19.64063,-23.75391 c -18.47739,-8.41569 -36.26455,-18.1256 -52.94141,-29.30273 13.84427,-16.71885 27.58014,-33.20892 41.13086,-49.625 z" />
</svg>
