<?xml version="1.0" encoding="UTF-8" standalone="no"?>
<svg
   xmlns:dc="http://purl.org/dc/elements/1.1/"
   xmlns:cc="http://creativecommons.org/ns#"
   xmlns:rdf="http://www.w3.org/1999/02/22-rdf-syntax-ns#"
   xmlns:svg="http://www.w3.org/2000/svg"
   xmlns="http://www.w3.org/2000/svg"
   xmlns:sodipodi="http://sodipodi.sourceforge.net/DTD/sodipodi-0.dtd"
   xmlns:inkscape="http://www.inkscape.org/namespaces/inkscape"
   inkscape:version="1.0 (4035a4fb49, 2020-05-01)"
   sodipodi:docname="liturgie_w.svg"
   id="svg5"
   version="1.1"
   height="512"
   width="512"
   viewBox="0 0 512 512">
  <title
     id="title862">Devine: Liturgy</title>
  <metadata
     id="metadata11">
    <rdf:RDF>
      <cc:Work
         rdf:about="">
        <dc:format>image/svg+xml</dc:format>
        <dc:type
           rdf:resource="http://purl.org/dc/dcmitype/StillImage" />
        <dc:title>Devine: Liturgy</dc:title>
        <cc:license
           rdf:resource="http://creativecommons.org/licenses/by-sa/4.0/" />
        <dc:date>2022.02.07</dc:date>
        <dc:creator>
          <cc:Agent>
            <dc:title>Streuner²</dc:title>
          </cc:Agent>
        </dc:creator>
        <dc:contributor>
          <cc:Agent>
            <dc:title>completely selfmade</dc:title>
          </cc:Agent>
        </dc:contributor>
      </cc:Work>
      <cc:License
         rdf:about="http://creativecommons.org/licenses/by-sa/4.0/">
        <cc:permits
           rdf:resource="http://creativecommons.org/ns#Reproduction" />
        <cc:permits
           rdf:resource="http://creativecommons.org/ns#Distribution" />
        <cc:requires
           rdf:resource="http://creativecommons.org/ns#Notice" />
        <cc:requires
           rdf:resource="http://creativecommons.org/ns#Attribution" />
        <cc:permits
           rdf:resource="http://creativecommons.org/ns#DerivativeWorks" />
        <cc:requires
           rdf:resource="http://creativecommons.org/ns#ShareAlike" />
      </cc:License>
    </rdf:RDF>
  </metadata>
  <defs
     id="defs9" />
  <sodipodi:namedview
     inkscape:current-layer="svg5"
     inkscape:window-maximized="1"
     inkscape:window-y="-11"
     inkscape:window-x="-11"
     inkscape:cy="180.0939"
     inkscape:cx="-4.9573158"
     inkscape:zoom="1.8732344"
     showgrid="false"
     id="namedview7"
     inkscape:window-height="2066"
     inkscape:window-width="3840"
     inkscape:pageshadow="2"
     inkscape:pageopacity="0.61960784"
     guidetolerance="10"
     gridtolerance="10"
     objecttolerance="10"
     borderopacity="1"
     bordercolor="#666666"
     pagecolor="#323232"
     inkscape:document-rotation="0"
     borderlayer="false"
     inkscape:showpageshadow="false"
     showguides="true"
     inkscape:guide-bbox="true"
     guidecolor="#00ff00"
     guideopacity="0.49803922">
    <sodipodi:guide
       inkscape:color="rgb(0,255,0)"
       inkscape:locked="false"
       inkscape:label=""
       position="256,256"
       orientation="-1,0"
       id="guide869" />
    <sodipodi:guide
       inkscape:color="rgb(0,255,0)"
       inkscape:locked="false"
       inkscape:label=""
       position="256,256"
       orientation="0,1"
       id="guide905" />
  </sodipodi:namedview>
  <filter
     id="shadow">
    <feDropShadow
       stdDeviation="6"
       dy="12"
       dx="6" />
  </filter>
  <g
     id="g880"
     transform="translate(-446.5282,118.80414)">
    <path
       sodipodi:nodetypes="cccccccccccccccccccccccccccccccccccccccccccccccc"
       d="m 678.21961,-46.196812 c -16.21687,2.122885 -31.76603,6.344234 -46.37305,12.376953 l 35.45508,39.5546846 z m 48.61718,0 10.91602,51.9296876 35.45508,-39.5546876 c -14.6063,-6.032079 -30.15525,-10.252256 -46.3711,-12.375 z M 589.76843,-9.5112644 c -12.7368,9.79543 -24.15728,21.2096224 -33.95703,33.9414124 l 50.48047,16.52734 z m 225.52149,0.002 L 798.76648,40.957538 849.245,24.430198 C 839.44574,11.699348 828.02582,0.2856556 815.28992,-9.5092644 Z m 58.2793,76.0039124 -39.57813,35.476562 51.97266,10.92578 C 883.83876,96.670298 879.61184,81.110318 873.56922,66.494648 Z m -342.08008,0.002 c -6.0419,14.61461 -10.26959,30.17306 -12.39453,46.398442 l 51.96875,-10.92383 z m 354.47461,94.998052 -51.97266,10.92578 39.57813,35.47656 c 6.04262,-14.61567 10.26954,-30.17565 12.39453,-46.40234 z m -366.86914,0.002 c 2.12494,16.22538 6.35263,31.78383 12.39453,46.39844 l 39.57617,-35.47266 z m 87.19531,71.93555 -50.47852,16.52734 c 9.7994,12.73156 21.21874,24.14604 33.95508,33.94141 z m 192.47656,0.002 16.52344,50.4668 c 12.73631,-9.79523 24.15561,-21.21007 33.95508,-33.94141 z m -61.01367,35.22461 -10.91602,51.92969 c 16.21585,-2.12275 31.7648,-6.34292 46.3711,-12.375 z m -70.44922,0.002 -35.45508,39.55274 c 14.60634,6.0322 30.1551,10.25223 46.3711,12.375 z"
       style="color:#000000;font-style:normal;font-variant:normal;font-weight:normal;font-stretch:normal;font-size:medium;line-height:normal;font-family:sans-serif;font-variant-ligatures:normal;font-variant-position:normal;font-variant-caps:normal;font-variant-numeric:normal;font-variant-alternates:normal;font-variant-east-asian:normal;font-feature-settings:normal;font-variation-settings:normal;text-indent:0;text-align:start;text-decoration:none;text-decoration-line:none;text-decoration-style:solid;text-decoration-color:#000000;letter-spacing:normal;word-spacing:normal;text-transform:none;writing-mode:lr-tb;direction:ltr;text-orientation:mixed;dominant-baseline:auto;baseline-shift:baseline;text-anchor:start;white-space:normal;shape-padding:0;shape-margin:0;inline-size:0;clip-rule:nonzero;display:inline;overflow:visible;visibility:visible;isolation:auto;mix-blend-mode:normal;color-interpolation:sRGB;color-interpolation-filters:linearRGB;solid-color:#000000;solid-opacity:1;vector-effect:none;fill:#ffffff;fill-opacity:1;fill-rule:evenodd;stroke:none;stroke-width:15.0001;stroke-linecap:round;stroke-linejoin:round;stroke-miterlimit:4;stroke-dasharray:none;stroke-dashoffset:0;stroke-opacity:1;paint-order:normal;color-rendering:auto;image-rendering:auto;shape-rendering:auto;text-rendering:auto;enable-background:accumulate;stop-color:#000000"
       id="path841" />
    <path
       d="m 702.5282,-88.921422 -24.65039,117.25977 c 7.93295,-1.7942 16.18263,-2.7461 24.65039,-2.7461 8.46892,0 16.71758,0.95308 24.65039,2.74805 z M 589.46961,-58.6265 626.77039,55.305148 c 12.06761,-11.16765 26.59509,-19.71177 42.67383,-24.70899 z m 226.11718,0 -79.97461,89.222658 c 16.07895,4.99989 30.60428,13.55144 42.66797,24.72461 z m -308.88085,82.763678 89.20898,79.962892 c 5.00078,-16.076962 13.54959,-30.599482 24.7207,-42.662112 z m 391.64453,0 -113.94727,37.30664 c 11.16901,12.06761 19.71023,26.60025 24.70703,42.683592 z M 702.5282,40.613738 c -53.47634,0 -96.64258,43.16509 -96.64258,96.582032 0,53.41693 43.16624,96.58203 96.64258,96.58203 53.47634,0 96.64258,-43.1651 96.64258,-96.58203 0,-53.416942 -43.16624,-96.582032 -96.64258,-96.582032 z m 108.83398,71.927732 c 1.74212,7.69998 2.69511,15.69639 2.75,23.9043 a 7.4894396,7.5105449 0 0 1 0.0391,0.75 7.4894396,7.5105449 0 0 1 -0.0391,0.76367 c -0.0559,8.20283 -1.00891,16.19513 -2.75,23.89063 l 117.28321,-24.6543 z m -217.70898,0.008 -117.24219,24.6463 117.24219,24.64648 c -1.7944,-7.93165 -2.74609,-16.17872 -2.74609,-24.64648 0,-8.4671 0.95196,-16.71545 2.74609,-24.64648 z m 215.45703,57.71484 c -4.99699,16.08375 -13.53765,30.61565 -24.70703,42.68359 l 113.94727,37.30664 z m -213.19531,0.0273 -89.20898,79.96289 113.92968,-37.30078 c -11.1707,-12.06243 -19.71985,-26.58571 -24.7207,-42.66211 z m 182.36523,48.7793 c -12.0637,11.17343 -26.58903,19.72261 -42.66797,24.72266 l 79.97461,89.22461 z m -151.50976,0.0156 -37.30078,113.93165 79.97265,-89.22071 C 653.36423,238.8 638.83756,230.25401 626.77039,219.08651 Z m 51.10742,26.9668 24.65039,117.25983 24.65039,-117.25977 c -7.93282,1.79504 -16.18147,2.7461 -24.65039,2.7461 -8.46776,0 -16.71744,-0.95184 -24.65039,-2.7461 z"
       style="color:#000000;font-style:normal;font-variant:normal;font-weight:normal;font-stretch:normal;font-size:medium;line-height:normal;font-family:sans-serif;font-variant-ligatures:normal;font-variant-position:normal;font-variant-caps:normal;font-variant-numeric:normal;font-variant-alternates:normal;font-variant-east-asian:normal;font-feature-settings:normal;font-variation-settings:normal;text-indent:0;text-align:start;text-decoration:none;text-decoration-line:none;text-decoration-style:solid;text-decoration-color:#000000;letter-spacing:normal;word-spacing:normal;text-transform:none;writing-mode:lr-tb;direction:ltr;text-orientation:mixed;dominant-baseline:auto;baseline-shift:baseline;text-anchor:start;white-space:normal;shape-padding:0;shape-margin:0;inline-size:0;clip-rule:nonzero;display:inline;overflow:visible;visibility:visible;isolation:auto;mix-blend-mode:normal;color-interpolation:sRGB;color-interpolation-filters:linearRGB;solid-color:#000000;solid-opacity:1;vector-effect:none;fill:#ffffff;fill-opacity:1;fill-rule:evenodd;stroke:none;stroke-width:30;stroke-linecap:round;stroke-linejoin:round;stroke-miterlimit:4;stroke-dasharray:none;stroke-dashoffset:0;stroke-opacity:1;paint-order:stroke fill markers;color-rendering:auto;image-rendering:auto;shape-rendering:auto;text-rendering:auto;enable-background:accumulate;stop-color:#000000"
       id="path849" />
  </g>
</svg>
