<?xml version="1.0" encoding="UTF-8" standalone="no"?>
<svg
   xmlns:dc="http://purl.org/dc/elements/1.1/"
   xmlns:cc="http://creativecommons.org/ns#"
   xmlns:rdf="http://www.w3.org/1999/02/22-rdf-syntax-ns#"
   xmlns:svg="http://www.w3.org/2000/svg"
   xmlns="http://www.w3.org/2000/svg"
   xmlns:sodipodi="http://sodipodi.sourceforge.net/DTD/sodipodi-0.dtd"
   xmlns:inkscape="http://www.inkscape.org/namespaces/inkscape"
   inkscape:version="1.0 (4035a4fb49, 2020-05-01)"
   sodipodi:docname="liturgie_bw.svg"
   id="svg5"
   version="1.1"
   height="512"
   width="512"
   viewBox="0 0 512 512">
  <title
     id="title862">Devine: Liturgy</title>
  <metadata
     id="metadata11">
    <rdf:RDF>
      <cc:Work
         rdf:about="">
        <dc:format>image/svg+xml</dc:format>
        <dc:type
           rdf:resource="http://purl.org/dc/dcmitype/StillImage" />
        <dc:title>Devine: Liturgy</dc:title>
        <cc:license
           rdf:resource="http://creativecommons.org/licenses/by-sa/4.0/" />
        <dc:date>2022.02.07</dc:date>
        <dc:creator>
          <cc:Agent>
            <dc:title>Streuner²</dc:title>
          </cc:Agent>
        </dc:creator>
        <dc:contributor>
          <cc:Agent>
            <dc:title>completely selfmade</dc:title>
          </cc:Agent>
        </dc:contributor>
      </cc:Work>
      <cc:License
         rdf:about="http://creativecommons.org/licenses/by-sa/4.0/">
        <cc:permits
           rdf:resource="http://creativecommons.org/ns#Reproduction" />
        <cc:permits
           rdf:resource="http://creativecommons.org/ns#Distribution" />
        <cc:requires
           rdf:resource="http://creativecommons.org/ns#Notice" />
        <cc:requires
           rdf:resource="http://creativecommons.org/ns#Attribution" />
        <cc:permits
           rdf:resource="http://creativecommons.org/ns#DerivativeWorks" />
        <cc:requires
           rdf:resource="http://creativecommons.org/ns#ShareAlike" />
      </cc:License>
    </rdf:RDF>
  </metadata>
  <defs
     id="defs9" />
  <sodipodi:namedview
     inkscape:current-layer="svg5"
     inkscape:window-maximized="1"
     inkscape:window-y="-11"
     inkscape:window-x="-11"
     inkscape:cy="180.0939"
     inkscape:cx="-4.9573158"
     inkscape:zoom="1.8732344"
     showgrid="false"
     id="namedview7"
     inkscape:window-height="2066"
     inkscape:window-width="3840"
     inkscape:pageshadow="2"
     inkscape:pageopacity="0.61960784"
     guidetolerance="10"
     gridtolerance="10"
     objecttolerance="10"
     borderopacity="1"
     bordercolor="#666666"
     pagecolor="#323232"
     inkscape:document-rotation="0"
     borderlayer="false"
     inkscape:showpageshadow="false"
     showguides="true"
     inkscape:guide-bbox="true"
     guidecolor="#00ff00"
     guideopacity="0.49803922">
    <sodipodi:guide
       inkscape:color="rgb(0,255,0)"
       inkscape:locked="false"
       inkscape:label=""
       position="256,256"
       orientation="-1,0"
       id="guide869" />
    <sodipodi:guide
       inkscape:color="rgb(0,255,0)"
       inkscape:locked="false"
       inkscape:label=""
       position="256,256"
       orientation="0,1"
       id="guide905" />
  </sodipodi:namedview>
  <filter
     id="shadow">
    <feDropShadow
       stdDeviation="6"
       dy="12"
       dx="6" />
  </filter>
  <path
     d="M 255.92969 14.890625 A 15.0015 15.0015 0 0 0 241.32227 26.796875 L 234.95117 57.101562 C 213.733 59.326049 193.50053 64.877833 174.77734 73.220703 L 154.11133 50.164062 A 15.0015 15.0015 0 0 0 138.97656 45.714844 A 15.0015 15.0015 0 0 0 128.68555 64.841797 L 138.33789 94.324219 C 121.48279 106.61815 106.6226 121.48064 94.328125 138.33594 L 64.845703 128.68359 A 15.0015 15.0015 0 0 0 50.166016 154.10938 L 73.222656 174.77734 C 64.881155 193.49833 59.329869 213.72962 57.105469 234.94727 L 26.798828 241.31836 A 15.0015 15.0015 0 0 0 26.796875 270.67773 L 57.105469 277.04883 C 59.330036 298.26638 64.881068 318.49778 73.222656 337.21875 L 50.164062 357.88672 A 15.0015 15.0015 0 0 0 64.845703 383.31055 L 94.326172 373.6582 C 106.62065 390.51401 121.48265 405.37555 138.33789 417.66992 L 128.68555 447.15234 A 15.0015 15.0015 0 0 0 154.11133 461.83203 L 174.7793 438.77539 C 193.50146 447.11774 213.73237 452.66994 234.94922 454.89453 L 241.32031 485.19922 A 15.0015 15.0015 0 0 0 270.67969 485.20117 L 277.05078 454.89258 C 298.26684 452.66772 318.49969 447.11781 337.2207 438.77539 L 357.88867 461.83203 A 15.0015 15.0015 0 0 0 383.31445 447.15234 L 373.66016 417.66797 C 390.51402 405.37345 405.37469 390.51198 417.66797 373.65625 L 447.1543 383.31055 A 15.0015 15.0015 0 0 0 461.83398 357.88672 L 438.76953 337.21289 C 447.10959 318.49289 452.66435 298.26492 454.88867 277.04883 L 485.20117 270.67773 A 15.0015 15.0015 0 0 0 485.20117 241.31836 L 454.89062 234.94727 C 452.6664 213.73137 447.11144 193.50297 438.77148 174.7832 L 461.83398 154.11133 A 15.0015 15.0015 0 0 0 447.1543 128.68359 L 417.66797 138.33789 C 405.37463 121.48287 390.51388 106.62206 373.66016 94.328125 L 383.31445 64.841797 A 15.0015 15.0015 0 0 0 357.88867 50.164062 L 337.2207 73.222656 C 318.4991 64.880046 298.26749 59.328352 277.05078 57.103516 L 270.67969 26.794922 A 15.0015 15.0015 0 0 0 255.92969 14.890625 z M 256 29.882812 L 280.65039 147.14453 C 272.71758 145.34956 264.46892 144.39648 256 144.39648 C 247.53224 144.39648 239.28256 145.34838 231.34961 147.14258 L 256 29.882812 z M 142.94141 60.177734 L 222.91602 149.40039 C 206.83728 154.39761 192.3098 162.94172 180.24219 174.10938 L 142.94141 60.177734 z M 369.05859 60.177734 L 331.75195 174.125 C 319.68826 162.95183 305.16293 154.40028 289.08398 149.40039 L 369.05859 60.177734 z M 231.69141 72.607422 L 220.77344 124.53906 L 185.31836 84.984375 C 199.92538 78.951656 215.47454 74.730307 231.69141 72.607422 z M 280.30859 72.607422 C 296.52444 74.730166 312.07339 78.950343 326.67969 84.982422 L 291.22461 124.53711 L 280.30859 72.607422 z M 143.24023 109.29297 L 159.76367 159.76172 L 109.2832 143.23438 C 119.08295 130.50259 130.50343 119.0884 143.24023 109.29297 z M 368.76172 109.29492 C 381.49762 119.08984 392.91754 130.50352 402.7168 143.23438 L 352.23828 159.76172 L 368.76172 109.29492 z M 60.177734 142.94141 L 174.10742 180.24219 C 162.93631 192.30482 154.3875 206.82734 149.38672 222.9043 L 60.177734 142.94141 z M 451.82227 142.94141 L 362.58203 222.93164 C 357.58523 206.8483 349.04401 192.31566 337.875 180.24805 L 451.82227 142.94141 z M 256 159.41797 C 309.47634 159.41797 352.64258 202.58306 352.64258 256 C 352.64258 309.41693 309.47634 352.58203 256 352.58203 C 202.52366 352.58203 159.35742 309.41693 159.35742 256 C 159.35742 202.58306 202.52366 159.41797 256 159.41797 z M 427.04102 185.29883 C 433.08364 199.9145 437.31056 215.47448 439.43555 231.70117 L 387.46289 220.77539 L 427.04102 185.29883 z M 84.960938 185.30078 L 124.53516 220.77539 L 72.566406 231.69922 C 74.691346 215.47384 78.919038 199.91539 84.960938 185.30078 z M 364.83398 231.3457 L 482.11719 256 L 364.83398 280.6543 C 366.57507 272.9588 367.52808 264.9665 367.58398 256.76367 A 7.4894396 7.5105449 0 0 0 367.62305 256 A 7.4894396 7.5105449 0 0 0 367.58398 255.25 C 367.52909 247.04209 366.5761 239.04568 364.83398 231.3457 z M 147.125 231.35352 C 145.33087 239.28455 144.37891 247.5329 144.37891 256 C 144.37891 264.46776 145.3306 272.71483 147.125 280.64648 L 29.882812 256 L 147.125 231.35352 z M 439.43555 280.29883 C 437.31056 296.52552 433.08364 312.0855 427.04102 326.70117 L 387.46289 291.22461 L 439.43555 280.29883 z M 72.566406 280.30078 L 124.53711 291.22656 L 84.960938 326.69922 C 78.919038 312.08461 74.691346 296.52616 72.566406 280.30078 z M 362.58203 289.06836 L 451.82227 369.05859 L 337.875 331.75195 C 349.04438 319.68401 357.58504 305.15211 362.58203 289.06836 z M 149.38672 289.0957 C 154.38757 305.1721 162.93672 319.69538 174.10742 331.75781 L 60.177734 369.05859 L 149.38672 289.0957 z M 331.75195 337.875 L 369.05859 451.82227 L 289.08398 362.59766 C 305.16292 357.59761 319.68825 349.04843 331.75195 337.875 z M 180.24219 337.89062 C 192.30936 349.05813 206.83603 357.60411 222.91406 362.60156 L 142.94141 451.82227 L 180.24219 337.89062 z M 159.76172 352.23633 L 143.23828 402.70508 C 130.50194 392.90971 119.0826 381.49523 109.2832 368.76367 L 159.76172 352.23633 z M 352.23828 352.23828 L 402.7168 368.76367 C 392.91733 381.49501 381.49803 392.90985 368.76172 402.70508 L 352.23828 352.23828 z M 231.34961 364.85742 C 239.28256 366.65168 247.53224 367.60352 256 367.60352 C 264.46892 367.60352 272.71757 366.65246 280.65039 364.85742 L 256 482.11719 L 231.34961 364.85742 z M 291.22461 387.46289 L 326.67969 427.01758 C 312.07339 433.04966 296.52444 437.26983 280.30859 439.39258 L 291.22461 387.46289 z M 220.77539 387.46484 L 231.69141 439.39258 C 215.47541 437.26981 199.92665 433.04978 185.32031 427.01758 L 220.77539 387.46484 z "
     style="color:#000000;font-style:normal;font-variant:normal;font-weight:normal;font-stretch:normal;font-size:medium;line-height:normal;font-family:sans-serif;font-variant-ligatures:normal;font-variant-position:normal;font-variant-caps:normal;font-variant-numeric:normal;font-variant-alternates:normal;font-variant-east-asian:normal;font-feature-settings:normal;font-variation-settings:normal;text-indent:0;text-align:start;text-decoration:none;text-decoration-line:none;text-decoration-style:solid;text-decoration-color:#000000;letter-spacing:normal;word-spacing:normal;text-transform:none;writing-mode:lr-tb;direction:ltr;text-orientation:mixed;dominant-baseline:auto;baseline-shift:baseline;text-anchor:start;white-space:normal;shape-padding:0;shape-margin:0;inline-size:0;clip-rule:nonzero;display:inline;overflow:visible;visibility:visible;isolation:auto;mix-blend-mode:normal;color-interpolation:sRGB;color-interpolation-filters:linearRGB;solid-color:#000000;solid-opacity:1;vector-effect:none;fill:#000100;fill-opacity:1;fill-rule:evenodd;stroke:none;stroke-width:15.0001;stroke-linecap:round;stroke-linejoin:round;stroke-miterlimit:4;stroke-dasharray:none;stroke-dashoffset:0;stroke-opacity:1;paint-order:normal;color-rendering:auto;image-rendering:auto;shape-rendering:auto;text-rendering:auto;enable-background:accumulate;stop-color:#000000"
     id="path843" />
  <g
     id="g880"
     transform="translate(-446.5282,118.80414)">
    <path
       sodipodi:nodetypes="cccccccccccccccccccccccccccccccccccccccccccccccc"
       d="m 678.21961,-46.196812 c -16.21687,2.122885 -31.76603,6.344234 -46.37305,12.376953 l 35.45508,39.5546846 z m 48.61718,0 10.91602,51.9296876 35.45508,-39.5546876 c -14.6063,-6.032079 -30.15525,-10.252256 -46.3711,-12.375 z M 589.76843,-9.5112644 c -12.7368,9.79543 -24.15728,21.2096224 -33.95703,33.9414124 l 50.48047,16.52734 z m 225.52149,0.002 L 798.76648,40.957538 849.245,24.430198 C 839.44574,11.699348 828.02582,0.2856556 815.28992,-9.5092644 Z m 58.2793,76.0039124 -39.57813,35.476562 51.97266,10.92578 C 883.83876,96.670298 879.61184,81.110318 873.56922,66.494648 Z m -342.08008,0.002 c -6.0419,14.61461 -10.26959,30.17306 -12.39453,46.398442 l 51.96875,-10.92383 z m 354.47461,94.998052 -51.97266,10.92578 39.57813,35.47656 c 6.04262,-14.61567 10.26954,-30.17565 12.39453,-46.40234 z m -366.86914,0.002 c 2.12494,16.22538 6.35263,31.78383 12.39453,46.39844 l 39.57617,-35.47266 z m 87.19531,71.93555 -50.47852,16.52734 c 9.7994,12.73156 21.21874,24.14604 33.95508,33.94141 z m 192.47656,0.002 16.52344,50.4668 c 12.73631,-9.79523 24.15561,-21.21007 33.95508,-33.94141 z m -61.01367,35.22461 -10.91602,51.92969 c 16.21585,-2.12275 31.7648,-6.34292 46.3711,-12.375 z m -70.44922,0.002 -35.45508,39.55274 c 14.60634,6.0322 30.1551,10.25223 46.3711,12.375 z"
       style="color:#000000;font-style:normal;font-variant:normal;font-weight:normal;font-stretch:normal;font-size:medium;line-height:normal;font-family:sans-serif;font-variant-ligatures:normal;font-variant-position:normal;font-variant-caps:normal;font-variant-numeric:normal;font-variant-alternates:normal;font-variant-east-asian:normal;font-feature-settings:normal;font-variation-settings:normal;text-indent:0;text-align:start;text-decoration:none;text-decoration-line:none;text-decoration-style:solid;text-decoration-color:#000000;letter-spacing:normal;word-spacing:normal;text-transform:none;writing-mode:lr-tb;direction:ltr;text-orientation:mixed;dominant-baseline:auto;baseline-shift:baseline;text-anchor:start;white-space:normal;shape-padding:0;shape-margin:0;inline-size:0;clip-rule:nonzero;display:inline;overflow:visible;visibility:visible;isolation:auto;mix-blend-mode:normal;color-interpolation:sRGB;color-interpolation-filters:linearRGB;solid-color:#000000;solid-opacity:1;vector-effect:none;fill:#ffffff;fill-opacity:1;fill-rule:evenodd;stroke:none;stroke-width:15.0001;stroke-linecap:round;stroke-linejoin:round;stroke-miterlimit:4;stroke-dasharray:none;stroke-dashoffset:0;stroke-opacity:1;paint-order:normal;color-rendering:auto;image-rendering:auto;shape-rendering:auto;text-rendering:auto;enable-background:accumulate;stop-color:#000000"
       id="path841" />
    <path
       d="m 702.5282,-88.921422 -24.65039,117.25977 c 7.93295,-1.7942 16.18263,-2.7461 24.65039,-2.7461 8.46892,0 16.71758,0.95308 24.65039,2.74805 z M 589.46961,-58.6265 626.77039,55.305148 c 12.06761,-11.16765 26.59509,-19.71177 42.67383,-24.70899 z m 226.11718,0 -79.97461,89.222658 c 16.07895,4.99989 30.60428,13.55144 42.66797,24.72461 z m -308.88085,82.763678 89.20898,79.962892 c 5.00078,-16.076962 13.54959,-30.599482 24.7207,-42.662112 z m 391.64453,0 -113.94727,37.30664 c 11.16901,12.06761 19.71023,26.60025 24.70703,42.683592 z M 702.5282,40.613738 c -53.47634,0 -96.64258,43.16509 -96.64258,96.582032 0,53.41693 43.16624,96.58203 96.64258,96.58203 53.47634,0 96.64258,-43.1651 96.64258,-96.58203 0,-53.416942 -43.16624,-96.582032 -96.64258,-96.582032 z m 108.83398,71.927732 c 1.74212,7.69998 2.69511,15.69639 2.75,23.9043 a 7.4894396,7.5105449 0 0 1 0.0391,0.75 7.4894396,7.5105449 0 0 1 -0.0391,0.76367 c -0.0559,8.20283 -1.00891,16.19513 -2.75,23.89063 l 117.28321,-24.6543 z m -217.70898,0.008 -117.24219,24.6463 117.24219,24.64648 c -1.7944,-7.93165 -2.74609,-16.17872 -2.74609,-24.64648 0,-8.4671 0.95196,-16.71545 2.74609,-24.64648 z m 215.45703,57.71484 c -4.99699,16.08375 -13.53765,30.61565 -24.70703,42.68359 l 113.94727,37.30664 z m -213.19531,0.0273 -89.20898,79.96289 113.92968,-37.30078 c -11.1707,-12.06243 -19.71985,-26.58571 -24.7207,-42.66211 z m 182.36523,48.7793 c -12.0637,11.17343 -26.58903,19.72261 -42.66797,24.72266 l 79.97461,89.22461 z m -151.50976,0.0156 -37.30078,113.93165 79.97265,-89.22071 C 653.36423,238.8 638.83756,230.25401 626.77039,219.08651 Z m 51.10742,26.9668 24.65039,117.25983 24.65039,-117.25977 c -7.93282,1.79504 -16.18147,2.7461 -24.65039,2.7461 -8.46776,0 -16.71744,-0.95184 -24.65039,-2.7461 z"
       style="color:#000000;font-style:normal;font-variant:normal;font-weight:normal;font-stretch:normal;font-size:medium;line-height:normal;font-family:sans-serif;font-variant-ligatures:normal;font-variant-position:normal;font-variant-caps:normal;font-variant-numeric:normal;font-variant-alternates:normal;font-variant-east-asian:normal;font-feature-settings:normal;font-variation-settings:normal;text-indent:0;text-align:start;text-decoration:none;text-decoration-line:none;text-decoration-style:solid;text-decoration-color:#000000;letter-spacing:normal;word-spacing:normal;text-transform:none;writing-mode:lr-tb;direction:ltr;text-orientation:mixed;dominant-baseline:auto;baseline-shift:baseline;text-anchor:start;white-space:normal;shape-padding:0;shape-margin:0;inline-size:0;clip-rule:nonzero;display:inline;overflow:visible;visibility:visible;isolation:auto;mix-blend-mode:normal;color-interpolation:sRGB;color-interpolation-filters:linearRGB;solid-color:#000000;solid-opacity:1;vector-effect:none;fill:#ffffff;fill-opacity:1;fill-rule:evenodd;stroke:none;stroke-width:30;stroke-linecap:round;stroke-linejoin:round;stroke-miterlimit:4;stroke-dasharray:none;stroke-dashoffset:0;stroke-opacity:1;paint-order:stroke fill markers;color-rendering:auto;image-rendering:auto;shape-rendering:auto;text-rendering:auto;enable-background:accumulate;stop-color:#000000"
       id="path849" />
  </g>
</svg>
