<?xml version="1.0" encoding="UTF-8" standalone="no"?>
<svg
   xmlns:dc="http://purl.org/dc/elements/1.1/"
   xmlns:cc="http://creativecommons.org/ns#"
   xmlns:rdf="http://www.w3.org/1999/02/22-rdf-syntax-ns#"
   xmlns:svg="http://www.w3.org/2000/svg"
   xmlns="http://www.w3.org/2000/svg"
   xmlns:sodipodi="http://sodipodi.sourceforge.net/DTD/sodipodi-0.dtd"
   xmlns:inkscape="http://www.inkscape.org/namespaces/inkscape"
   inkscape:version="1.0 (4035a4fb49, 2020-05-01)"
   sodipodi:docname="magic-spell_w.svg"
   id="svg5"
   version="1.1"
   height="512"
   width="512"
   viewBox="0 0 512 512">
  <title
     id="title835">Magic: Spells</title>
  <metadata
     id="metadata11">
    <rdf:RDF>
      <cc:Work
         rdf:about="">
        <dc:format>image/svg+xml</dc:format>
        <dc:type
           rdf:resource="http://purl.org/dc/dcmitype/StillImage" />
        <dc:title>Magic: Spells</dc:title>
        <cc:license
           rdf:resource="http://creativecommons.org/licenses/by-sa/4.0/" />
        <dc:contributor>
          <cc:Agent>
            <dc:title>completely selfmade</dc:title>
          </cc:Agent>
        </dc:contributor>
        <dc:creator>
          <cc:Agent>
            <dc:title>Streuner²</dc:title>
          </cc:Agent>
        </dc:creator>
        <dc:date>2022.02.05</dc:date>
      </cc:Work>
      <cc:License
         rdf:about="http://creativecommons.org/licenses/by-sa/4.0/">
        <cc:permits
           rdf:resource="http://creativecommons.org/ns#Reproduction" />
        <cc:permits
           rdf:resource="http://creativecommons.org/ns#Distribution" />
        <cc:requires
           rdf:resource="http://creativecommons.org/ns#Notice" />
        <cc:requires
           rdf:resource="http://creativecommons.org/ns#Attribution" />
        <cc:permits
           rdf:resource="http://creativecommons.org/ns#DerivativeWorks" />
        <cc:requires
           rdf:resource="http://creativecommons.org/ns#ShareAlike" />
      </cc:License>
    </rdf:RDF>
  </metadata>
  <defs
     id="defs9" />
  <sodipodi:namedview
     inkscape:current-layer="g987"
     inkscape:window-maximized="1"
     inkscape:window-y="-11"
     inkscape:window-x="3829"
     inkscape:cy="289.06768"
     inkscape:cx="265.04283"
     inkscape:zoom="1.7111432"
     showgrid="false"
     id="namedview7"
     inkscape:window-height="2066"
     inkscape:window-width="3840"
     inkscape:pageshadow="2"
     inkscape:pageopacity="0.61960784"
     guidetolerance="10"
     gridtolerance="10"
     objecttolerance="10"
     borderopacity="1"
     bordercolor="#666666"
     pagecolor="#323232"
     inkscape:document-rotation="0"
     borderlayer="false"
     inkscape:showpageshadow="false"
     showguides="true"
     inkscape:guide-bbox="true"
     guidecolor="#00ff00"
     guideopacity="0.49803922">
    <sodipodi:guide
       position="256,256"
       orientation="-1,0"
       id="guide869"
       inkscape:label=""
       inkscape:locked="false"
       inkscape:color="rgb(0,255,0)" />
    <sodipodi:guide
       position="256,256"
       orientation="0,1"
       id="guide905"
       inkscape:label=""
       inkscape:locked="false"
       inkscape:color="rgb(0,255,0)" />
  </sodipodi:namedview>
  <filter
     id="shadow">
    <feDropShadow
       stdDeviation="6"
       dy="12"
       dx="6" />
  </filter>
  <g
     id="g987"
     transform="matrix(0.90491517,0,0,0.90746524,23.072155,38.656116)"
     style="stroke-width:1.54493;stroke-miterlimit:4;stroke-dasharray:none">
    <path
       id="path838"
       style="color:#000000;font-style:normal;font-variant:normal;font-weight:normal;font-stretch:normal;font-size:medium;line-height:normal;font-family:sans-serif;font-variant-ligatures:normal;font-variant-position:normal;font-variant-caps:normal;font-variant-numeric:normal;font-variant-alternates:normal;font-variant-east-asian:normal;font-feature-settings:normal;font-variation-settings:normal;text-indent:0;text-align:start;text-decoration:none;text-decoration-line:none;text-decoration-style:solid;text-decoration-color:#000000;letter-spacing:normal;word-spacing:normal;text-transform:none;writing-mode:lr-tb;direction:ltr;text-orientation:mixed;dominant-baseline:auto;baseline-shift:baseline;text-anchor:start;white-space:normal;shape-padding:0;shape-margin:0;inline-size:0;clip-rule:nonzero;display:inline;overflow:visible;visibility:visible;isolation:auto;mix-blend-mode:normal;color-interpolation:sRGB;color-interpolation-filters:linearRGB;solid-color:#000000;solid-opacity:1;vector-effect:none;fill:#ffffff;fill-opacity:1;fill-rule:evenodd;stroke:none;stroke-width:15.0001;stroke-linecap:round;stroke-linejoin:round;stroke-miterlimit:4;stroke-dasharray:none;stroke-dashoffset:0;stroke-opacity:1;paint-order:normal;color-rendering:auto;image-rendering:auto;shape-rendering:auto;text-rendering:auto;enable-background:accumulate;stop-color:#000000"
       d="M 256 71.021484 C 253.85768 71.021484 251.7281 71.070566 249.60352 71.142578 L 245.18555 84.671875 A 14.980377 15.022592 0 0 1 266.81445 84.675781 L 262.39453 71.142578 C 260.27059 71.07061 258.14166 71.021484 256 71.021484 z M 216.75586 75.195312 C 177.43622 83.668418 142.7927 104.60907 117.15234 133.6875 L 197.65625 133.6875 L 216.75586 75.195312 z M 295.24219 75.195312 L 314.34375 133.6875 L 394.84961 133.6875 C 369.20845 104.6086 334.56278 83.668157 295.24219 75.195312 z M 223.63281 150.67773 L 222.75 153.38281 A 14.980377 15.022592 0 0 1 208.51172 163.73047 L 200.52344 163.73047 A 14.980377 15.022592 0 0 1 213.58594 176.67773 L 214.4707 173.9668 A 14.980377 15.022592 0 0 1 228.70508 163.62305 L 236.69531 163.62305 A 14.980377 15.022592 0 0 1 223.63281 150.67773 z M 288.36719 150.67773 A 14.980377 15.022592 0 0 1 275.30664 163.62305 L 283.29492 163.62305 A 14.980377 15.022592 0 0 1 297.5293 173.9668 L 298.41406 176.67578 A 14.980377 15.022592 0 0 1 311.4707 163.73047 L 303.48633 163.73047 A 14.980377 15.022592 0 0 1 289.25195 153.38281 L 288.36719 150.67773 z M 95.564453 163.73047 C 94.901717 164.88092 94.255703 166.04306 93.617188 167.20898 A 14.980377 15.022592 0 0 1 101.53711 163.73047 L 95.564453 163.73047 z M 410.46094 163.73047 A 14.980377 15.022592 0 0 1 418.38672 167.21289 C 417.7475 166.04564 417.09904 164.88222 416.43555 163.73047 L 410.46094 163.73047 z M 423.60352 177.50781 A 14.980377 15.022592 0 0 1 421.79688 185.87891 L 425.74609 182.25 C 425.05379 180.6574 424.33896 179.07668 423.60352 177.50781 z M 88.396484 177.50977 C 87.661447 179.07786 86.947808 180.6582 86.255859 182.25 L 90.201172 185.87695 A 14.980377 15.022592 0 0 1 88.396484 177.50977 z M 141.8457 193.66406 L 169.70703 219.26758 L 178.06836 193.66406 L 141.8457 193.66406 z M 239.56055 193.66406 L 217.00586 262.73047 L 256 298.56445 L 294.99609 262.73047 L 272.43945 193.66406 L 239.56055 193.66406 z M 333.92969 193.66406 L 342.29102 219.26562 L 370.15234 193.66406 L 333.92969 193.66406 z M 436.11133 213.4707 L 362.49219 281.12305 L 394.39844 378.82031 C 423.40663 346.16444 441.02148 303.1612 441.02148 256 C 441.02148 241.36087 439.31843 227.12467 436.11133 213.4707 z M 75.890625 213.47266 C 72.683871 227.12606 70.980469 241.36153 70.980469 256 C 70.980469 303.16073 88.594325 346.16456 117.60156 378.82031 L 149.50781 281.12305 L 75.890625 213.47266 z M 187.52539 256.4707 A 14.980377 15.022592 0 0 1 170.66797 259.82031 L 176.86914 265.51953 A 14.980377 15.022592 0 0 1 180.98242 281.26758 L 178.98633 287.38086 A 14.980377 15.022592 0 0 1 195.83789 284.0293 L 189.64453 278.33594 A 14.980377 15.022592 0 0 1 185.5293 262.58789 L 187.52539 256.4707 z M 324.47461 256.47266 L 326.4707 262.58789 A 14.980377 15.022592 0 0 1 322.35547 278.33594 L 316.15625 284.03125 A 14.980377 15.022592 0 0 1 333.01367 287.38281 L 331.01758 281.26758 A 14.980377 15.022592 0 0 1 335.13086 265.51953 L 341.33203 259.82031 A 14.980377 15.022592 0 0 1 324.47461 256.47266 z M 196.80469 324.58594 L 183.56641 365.12695 L 212.24609 338.77344 L 196.80469 324.58594 z M 315.19336 324.58594 L 299.75391 338.77344 L 328.43555 365.12891 L 315.19336 324.58594 z M 247.35156 331.20117 A 14.980377 15.022592 0 0 1 247.34961 346.34766 A 14.980377 15.022592 0 0 1 264.64844 346.34766 A 14.980377 15.022592 0 0 1 264.65039 331.20117 A 14.980377 15.022592 0 0 1 247.35156 331.20117 z M 256 378.98438 L 198.45508 431.86328 C 216.56409 437.77245 235.90207 440.97851 256 440.97852 C 276.09793 440.97852 295.43579 437.77244 313.54492 431.86328 L 256 378.98438 z "
       transform="matrix(1.105076,0,0,1.1019706,-25.496484,-42.597903)" />
    <path
       style="color:#000000;font-style:normal;font-variant:normal;font-weight:normal;font-stretch:normal;font-size:medium;line-height:normal;font-family:sans-serif;font-variant-ligatures:normal;font-variant-position:normal;font-variant-caps:normal;font-variant-numeric:normal;font-variant-alternates:normal;font-variant-east-asian:normal;font-feature-settings:normal;font-variation-settings:normal;text-indent:0;text-align:start;text-decoration:none;text-decoration-line:none;text-decoration-style:solid;text-decoration-color:#000000;letter-spacing:normal;word-spacing:normal;text-transform:none;writing-mode:lr-tb;direction:ltr;text-orientation:mixed;dominant-baseline:auto;baseline-shift:baseline;text-anchor:start;white-space:normal;shape-padding:0;shape-margin:0;inline-size:0;clip-rule:nonzero;display:inline;overflow:visible;visibility:visible;isolation:auto;mix-blend-mode:normal;color-interpolation:sRGB;color-interpolation-filters:linearRGB;solid-color:#000000;solid-opacity:1;vector-effect:none;fill:#ffffff;fill-opacity:1;fill-rule:nonzero;stroke:none;stroke-width:33.1056;stroke-linecap:butt;stroke-linejoin:round;stroke-miterlimit:4;stroke-dasharray:none;stroke-dashoffset:0;stroke-opacity:1;paint-order:stroke fill markers;color-rendering:auto;image-rendering:auto;shape-rendering:auto;text-rendering:auto;enable-background:accumulate;stop-color:#000000"
       d="m 257.32816,-4.8926923 c -0.0911,4.616e-4 -0.18225,0.00176 -0.27335,0.0039 -0.10777,0.00206 -0.21551,0.00529 -0.32321,0.0097 -0.0419,0.00242 -0.0837,0.00502 -0.1256,0.0078 -0.0493,0.00235 -0.0985,0.00495 -0.14775,0.0078 -0.0166,0.00127 -0.0332,0.00257 -0.0498,0.0039 -0.10782,0.00726 -0.21557,0.015692 -0.32322,0.0253 -0.10722,0.00921 -0.21434,0.01959 -0.32136,0.03113 -0.0912,0.010179 -0.18233,0.021203 -0.27335,0.03307 -0.0727,0.00984 -0.14536,0.020216 -0.21794,0.03113 -0.14065,0.020041 -0.28103,0.042096 -0.42111,0.06616 -0.0783,0.013643 -0.15648,0.027914 -0.23456,0.04281 -0.0394,0.00763 -0.0788,0.015414 -0.11821,0.02336 -0.0197,0.00385 -0.0394,0.00774 -0.0591,0.01167 -0.0913,0.018604 -0.18239,0.038065 -0.27334,0.05838 -0.0969,0.021736 -0.19352,0.044441 -0.28997,0.06811 0,0 -0.0259,0.0059 -0.0259,0.0059 -0.0888,0.021886 -0.1775,0.04459 -0.26597,0.06811 -0.0765,0.020152 -0.15282,0.040913 -0.22901,0.06228 -0.0394,0.010864 -0.0789,0.021891 -0.11821,0.03308 -0.0252,0.00772 -0.0505,0.015506 -0.0757,0.02336 -0.0808,0.023966 -0.16149,0.048617 -0.24195,0.07395 0,0 -0.007,0.002 -0.007,0.002 -0.087,0.027746 -0.17385,0.05629 -0.26042,0.08563 -0.0475,0.015978 -0.0949,0.032195 -0.14221,0.04865 -0.071,0.024117 -0.14177,0.048767 -0.2124,0.07395 -0.0883,0.032255 -0.17637,0.065343 -0.26413,0.09926 -0.0136,0.00517 -0.0271,0.01036 -0.0407,0.01557 -0.0859,0.033589 -0.17144,0.067971 -0.25673,0.103143 -0.0846,0.034904 -0.16898,0.070583 -0.25303,0.107035 -0.0253,0.010308 -0.0506,0.020684 -0.0758,0.03113 -0.0191,0.00839 -0.0382,0.01682 -0.0573,0.02529 -0.071,0.031236 -0.14182,0.063024 -0.2124,0.09536 -0.0148,0.00711 -0.0295,0.014242 -0.0443,0.0214 -0.089,0.041293 -0.17768,0.083459 -0.26596,0.126493 -0.0481,0.023745 -0.0962,0.047749 -0.14406,0.07201 -0.0444,0.021834 -0.0888,0.043887 -0.13298,0.06616 -0.0148,0.00776 -0.0296,0.015549 -0.0443,0.02336 -0.0928,0.047688 -0.18516,0.096342 -0.27705,0.145956 -0.0197,0.010982 -0.0394,0.022009 -0.0591,0.03308 -0.0655,0.03584 -0.13076,0.072167 -0.19578,0.10898 -0.0142,0.00841 -0.0283,0.016843 -0.0425,0.0253 -0.0947,0.054112 -0.18893,0.109254 -0.28258,0.165416 -0.0792,0.047278 -0.15801,0.095283 -0.23641,0.144009 -0.0142,0.00906 -0.0283,0.018136 -0.0425,0.02724 -0.0929,0.058667 -0.18528,0.1183495 -0.27704,0.179037 -0.0911,0.059994 -0.1816,0.1209739 -0.27151,0.182931 -0.0905,0.062587 -0.18039,0.1261625 -0.26965,0.190715 -0.0868,0.062654 -0.17299,0.1262293 -0.25857,0.190715 0,0 -0.006,0.0039 -0.006,0.0039 -0.0743,0.0564 -0.14823,0.113487 -0.22163,0.171254 -0.0383,0.029657 -0.0765,0.059497 -0.11452,0.08952 -0.0613,0.048827 -0.12224,0.098129 -0.18284,0.147901 -0.0775,0.063456 -0.15449,0.1276799 -0.23087,0.192662 -0.0495,0.043142 -0.0988,0.086605 -0.14775,0.130386 -0.0365,0.031613 -0.0728,0.0634 -0.10897,0.09536 -0.0161,0.014236 -0.0321,0.028506 -0.0481,0.04281 -0.0582,0.0520969 -0.11611,0.10464228 -0.17362,0.157632 -0.0123,0.011656 -0.0247,0.0233327 -0.037,0.03503 -0.0683,0.0635964 -0.13598,0.12781952 -0.20317,0.192662 -0.0123,0.0123055 -0.0247,0.0246322 -0.037,0.03698 -0.0789,0.0769914 -0.15714,0.15483816 -0.23456,0.233528 -0.0727,0.073863 -0.14475,0.14846578 -0.2161,0.223798 -0.0166,0.01682799 -0.0332,0.0336947 -0.0498,0.0506 -0.064,0.06882319 -0.12741,0.13823586 -0.19024,0.20823 -0.0634,0.0694778 -0.12617,0.13953948 -0.18838,0.210177 -0.0111,0.0129548 -0.0222,0.0259281 -0.0333,0.03892 -0.0615,0.0707939 -0.12249,0.14215264 -0.18285,0.214068 -0.0584,0.0695421 -0.1163,0.13960289 -0.1736,0.210175 -0.0154,0.0187734 -0.0308,0.0375835 -0.0461,0.05643 -0.0484,0.0606112 -0.0965,0.1215895 -0.14407,0.18293 -0.0235,0.029753 -0.0469,0.059593 -0.0702,0.08952 0,0 -0.0166,0.0214 -0.0166,0.0214 -0.0573,0.074725 -0.11391,0.1499755 -0.16993,0.225743 -0.0655,0.088175 -0.13014,0.1770501 -0.19392,0.266612 0,0 -0.004,0.0039 -0.004,0.0039 -0.01,0.013611 -0.0197,0.027237 -0.0295,0.04088 -0.0542,0.077348 -0.10777,0.1551934 -0.16068,0.233528 -0.0454,0.067108 -0.0904,0.1345733 -0.13483,0.202391 -0.0217,0.033004 -0.0433,0.066091 -0.0647,0.09926 -0.0304,0.047189 -0.0606,0.094544 -0.0905,0.1420627 -0.0304,0.047189 -0.0606,0.094545 -0.0905,0.1420638 -0.043,0.069719 -0.0855,0.1397794 -0.12743,0.2101752 -0.0117,0.019433 -0.0234,0.038893 -0.0351,0.058378 -0.008,0.012961 -0.016,0.025934 -0.024,0.038918 -0.0481,0.081944 -0.0955,0.1643305 -0.14222,0.2471498 -0.0242,0.042052 -0.0482,0.084217 -0.0721,0.1264954 -0.0393,0.071049 -0.0781,0.1424068 -0.11635,0.214067 -0.0495,0.091621 -0.0981,0.1837393 -0.14592,0.2763428 -0.0192,0.037546 -0.0383,0.07517 -0.0573,0.1128718 -0.0274,0.05433 -0.0544,0.1088209 -0.0812,0.16347 -0.007,0.015556 -0.0148,0.031124 -0.0221,0.046704 -0.0908,0.186348 -0.17826,0.3745022 -0.26227,0.5643601 0,0 0,0.002 0,0.002 -0.0205,0.046606 -0.0408,0.093312 -0.0609,0.1401168 -0.0313,0.072418 -0.0621,0.1450728 -0.0924,0.21796 -0.0364,0.087892 -0.0721,0.176117 -0.10713,0.2646652 -0.0404,0.1014268 -0.0798,0.2032765 -0.1182,0.3055337 0,0 -0.006,0.011673 -0.006,0.011673 -0.006,0.015559 -0.0111,0.031127 -0.0166,0.046704 -0.0327,0.089871 -0.0648,0.1800418 -0.096,0.2705029 -0.0348,0.1001984 -0.0686,0.2007501 -0.10159,0.3016409 0,0 -0.007,0.019459 -0.007,0.019459 l -0.013,0.038918 c 0,0 -0.006,0.015572 -0.006,0.015572 L 204.92654,121.27496 H 46.836974 c -14.473501,0.005 -21.189465,18.92729 -10.270881,28.93807 L 158.77314,262.19966 93.282189,462.17401 c -2.309481,7.05868 0.169024,14.87172 6.042651,19.04839 5.87363,4.17667 13.67748,3.67529 19.02598,-1.22238 L 257.40204,352.57909 396.45511,480.00002 c 5.3485,4.89765 13.15235,5.39903 19.02597,1.22236 5.87362,-4.17666 8.35212,-11.9897 6.04265,-19.04837 L 356.03279,262.19966 478.23983,150.21303 c 10.91858,-10.01078 4.20262,-28.93292 -10.27088,-28.93807 H 309.87939 L 272.21642,6.2719144 l -0.002,-0.0078 c -0.0288,-0.087835 -0.0584,-0.1754115 -0.0886,-0.2627203 -0.006,-0.018175 -0.0122,-0.036338 -0.0184,-0.05449 -0.0371,-0.1067982 -0.0753,-0.213189 -0.11451,-0.3191552 -0.039,-0.1055196 -0.079,-0.2106133 -0.12005,-0.3152644 -0.0296,-0.074833 -0.0598,-0.1494339 -0.0905,-0.2237977 -0.0152,-0.038334 -0.0306,-0.076606 -0.0461,-0.1148177 0,0 -0.009,-0.023357 -0.009,-0.023357 -0.0368,-0.087917 -0.0744,-0.1754936 -0.11266,-0.2627192 -0.0452,-0.1029925 -0.0913,-0.2054912 -0.13852,-0.3074797 -0.007,-0.01623 -0.0147,-0.032448 -0.0221,-0.048653 -0.0399,-0.085998 -0.0806,-0.1716281 -0.1219,-0.2568805 -0.0495,-0.1010945 -0.1,-0.2016468 -0.15144,-0.3016408 -0.0383,-0.074264 -0.077,-0.148217 -0.11637,-0.2218528 -0.12561,-0.2375584 -0.25678,-0.471807 -0.39339,-0.702531 -0.0117,-0.019485 -0.0234,-0.038944 -0.0351,-0.058378 -0.042,-0.070396 -0.0845,-0.1404562 -0.12743,-0.2101752 -0.0153,-0.023392 -0.0307,-0.046743 -0.0461,-0.070051 -0.0492,-0.078941 -0.0991,-0.1574356 -0.1496,-0.2354742 -0.0511,-0.079615 -0.10278,-0.1587577 -0.15515,-0.23742 -0.01,-0.01429 -0.0196,-0.028563 -0.0295,-0.04282 -0.12572,-0.1844273 -0.25503,-0.3660993 -0.38787,-0.5449 -0.0602,-0.081688 -0.12118,-0.162778 -0.18285,-0.243258 -0.0639,-0.082392 -0.12854,-0.164131 -0.19393,-0.24520504 -0.0482,-0.0600459 -0.0969,-0.1197274 -0.14591,-0.17904 -0.0324,-0.0397334 -0.0651,-0.0793035 -0.0979,-0.118709 -0.12552,-0.14903685 -0.2536,-0.29566459 -0.38417,-0.439811 -0.009,-0.0103893 -0.0184,-0.0207659 -0.0277,-0.03113 -0.009,-0.0103893 -0.0185,-0.0207659 -0.0277,-0.03113 -0.0689,-0.07529521 -0.13846,-0.14989825 -0.2087,-0.223799 -0.0416,-0.04371011 -0.0835,-0.0871728 -0.1256,-0.130386 -0.0361,-0.0371607 -0.0725,-0.0741368 -0.10896,-0.110927 0,0 -0.0147,-0.01558 -0.0147,-0.01558 -0.0659,-0.0661283 -0.13244,-0.1316491 -0.19947,-0.196555 -0.11599,-0.11279296 -0.23359,-0.22373098 -0.35276,-0.332776 -0.0563,-0.0516733 -0.11294,-0.10292164 -0.16993,-0.15374096 -0.0697,-0.062272 -0.13986,-0.1238999 -0.21055,-0.184877 0,0 -0.0221,-0.01946 -0.0221,-0.01946 -0.0764,-0.064982 -0.15334,-0.1292049 -0.23087,-0.192661 -0.0849,-0.069689 -0.17048,-0.1384537 -0.25672,-0.206283 -0.0129,-0.010398 -0.0258,-0.020775 -0.0387,-0.03113 -0.06,-0.047161 -0.12034,-0.093868 -0.18099,-0.140117 -0.0154,-0.011706 -0.0308,-0.023383 -0.0462,-0.03503 -0.0862,-0.064497 -0.173,-0.1280716 -0.26042,-0.190715 -0.0741,-0.053217 -0.14855,-0.1057632 -0.22347,-0.157632 -0.0215,-0.015624 -0.0431,-0.03119 -0.0647,-0.0467 0,0 -0.0221,-0.01558 -0.0221,-0.01558 -0.0759,-0.051943 -0.15226,-0.1031914 -0.22902,-0.153739 -0.0918,-0.060687 -0.18411,-0.1203698 -0.27704,-0.179037 -0.10699,-0.067521 -0.21473,-0.1336924 -0.32322,-0.1985 -0.087,-0.051477 -0.17438,-0.1020769 -0.26226,-0.151793 -0.0209,-0.011727 -0.0418,-0.023403 -0.0628,-0.03503 -0.0809,-0.046162 -0.16215,-0.091572 -0.24379,-0.136224 -0.0809,-0.043558 -0.16217,-0.086374 -0.24379,-0.128441 -0.0154,-0.00781 -0.0308,-0.0156 -0.0462,-0.02336 -0.0968,-0.049708 -0.19407,-0.098362 -0.29181,-0.145955 -0.0828,-0.040335 -0.1659,-0.079907 -0.24934,-0.118711 0,0 -0.0221,-0.0097 -0.0221,-0.0097 -0.0363,-0.016361 -0.0726,-0.032578 -0.10896,-0.04865 -0.0706,-0.032336 -0.14138,-0.064124 -0.2124,-0.09536 -0.0993,-0.043246 -0.19906,-0.085414 -0.29921,-0.126496 -0.0987,-0.04063 -0.19786,-0.080202 -0.29736,-0.11871 -0.019,-0.00717 -0.0381,-0.014306 -0.0572,-0.0214 -0.0749,-0.028494 -0.15001,-0.056384 -0.22532,-0.08367 -0.01,-0.0039 -0.0197,-0.00779 -0.0295,-0.01167 -0.11774,-0.0417 -0.23596,-0.081921 -0.35461,-0.120656 -0.0713,-0.023889 -0.14268,-0.047239 -0.21425,-0.07005 -0.0725,-0.022611 -0.14514,-0.044668 -0.21794,-0.06617 -0.0443,-0.013833 -0.0886,-0.02746 -0.13297,-0.04088 -0.0105,-0.00261 -0.0209,-0.00521 -0.0314,-0.0078 -0.0958,-0.027559 -0.19184,-0.054157 -0.28811,-0.07979 -0.10502,-0.027747 -0.2103,-0.054345 -0.31584,-0.07979 -0.10503,-0.025796 -0.21031,-0.050447 -0.31582,-0.07395 -0.0946,-0.021035 -0.18945,-0.041146 -0.28444,-0.06033 -0.0388,-0.00729 -0.0776,-0.014421 -0.11636,-0.0214 -0.0781,-0.014896 -0.15627,-0.029167 -0.23456,-0.04281 -0.0904,-0.015753 -0.18088,-0.030671 -0.2715,-0.04475 -0.0529,-0.00807 -0.10586,-0.015859 -0.15884,-0.02336 -0.0701,-0.010235 -0.1403,-0.019968 -0.21055,-0.0292 -0.10699,-0.014139 -0.21412,-0.027113 -0.32137,-0.03892 -0.0904,-0.00926 -0.18093,-0.017697 -0.2715,-0.0253 -0.10765,-0.00961 -0.21539,-0.018042 -0.32321,-0.0253 -0.0659,-0.00433 -0.13173,-0.00822 -0.19763,-0.01167 -0.0419,-0.00278 -0.0837,-0.00538 -0.1256,-0.0078 -0.1077,-0.00441 -0.21544,-0.00764 -0.32321,-0.0097 -0.0911,-0.00214 -0.18222,-0.00344 -0.27335,-0.0039 -0.0499,-2.511e-4 -0.0997,-2.511e-4 -0.1496,0 z m 0.0738,67.0538123 19.36156,59.11384 H 238.04233 Z M 88.688828,154.26086 H 194.12373 l -24.33908,74.31265 z m 138.550692,0 h 60.32689 l 31.98175,97.65578 -62.14612,56.94592 -62.14428,-56.94592 z m 93.44267,0 H 426.1171 l -81.09582,74.31265 z m -136.43593,131.27998 49.30428,45.17999 -91.58463,83.9243 z m 146.31341,0 42.28035,129.10429 -91.58465,-83.9243 z"
       id="path846" />
  </g>
</svg>
