<?xml version="1.0" encoding="UTF-8" standalone="no"?>
<svg
   xmlns:dc="http://purl.org/dc/elements/1.1/"
   xmlns:cc="http://creativecommons.org/ns#"
   xmlns:rdf="http://www.w3.org/1999/02/22-rdf-syntax-ns#"
   xmlns:svg="http://www.w3.org/2000/svg"
   xmlns="http://www.w3.org/2000/svg"
   xmlns:sodipodi="http://sodipodi.sourceforge.net/DTD/sodipodi-0.dtd"
   xmlns:inkscape="http://www.inkscape.org/namespaces/inkscape"
   inkscape:version="1.0 (4035a4fb49, 2020-05-01)"
   sodipodi:docname="magic-spell_b.svg"
   id="svg5"
   version="1.1"
   height="512"
   width="512"
   viewBox="0 0 512 512">
  <title
     id="title840">Magic: Spells</title>
  <metadata
     id="metadata11">
    <rdf:RDF>
      <cc:Work
         rdf:about="">
        <dc:format>image/svg+xml</dc:format>
        <dc:type
           rdf:resource="http://purl.org/dc/dcmitype/StillImage" />
        <dc:title>Magic: Spells</dc:title>
        <cc:license
           rdf:resource="http://creativecommons.org/licenses/by-sa/4.0/" />
        <dc:creator>
          <cc:Agent>
            <dc:title>Streuner²</dc:title>
          </cc:Agent>
        </dc:creator>
        <dc:contributor>
          <cc:Agent>
            <dc:title>completely selfmade</dc:title>
          </cc:Agent>
        </dc:contributor>
        <dc:date>2022.02.05</dc:date>
      </cc:Work>
      <cc:License
         rdf:about="http://creativecommons.org/licenses/by-sa/4.0/">
        <cc:permits
           rdf:resource="http://creativecommons.org/ns#Reproduction" />
        <cc:permits
           rdf:resource="http://creativecommons.org/ns#Distribution" />
        <cc:requires
           rdf:resource="http://creativecommons.org/ns#Notice" />
        <cc:requires
           rdf:resource="http://creativecommons.org/ns#Attribution" />
        <cc:permits
           rdf:resource="http://creativecommons.org/ns#DerivativeWorks" />
        <cc:requires
           rdf:resource="http://creativecommons.org/ns#ShareAlike" />
      </cc:License>
    </rdf:RDF>
  </metadata>
  <defs
     id="defs9" />
  <sodipodi:namedview
     inkscape:current-layer="g987"
     inkscape:window-maximized="1"
     inkscape:window-y="-11"
     inkscape:window-x="3829"
     inkscape:cy="289.06768"
     inkscape:cx="265.04283"
     inkscape:zoom="1.7111432"
     showgrid="false"
     id="namedview7"
     inkscape:window-height="2066"
     inkscape:window-width="3840"
     inkscape:pageshadow="2"
     inkscape:pageopacity="0.61960784"
     guidetolerance="10"
     gridtolerance="10"
     objecttolerance="10"
     borderopacity="1"
     bordercolor="#666666"
     pagecolor="#323232"
     inkscape:document-rotation="0"
     borderlayer="false"
     inkscape:showpageshadow="false"
     showguides="true"
     inkscape:guide-bbox="true"
     guidecolor="#00ff00"
     guideopacity="0.49803922">
    <sodipodi:guide
       position="256,256"
       orientation="-1,0"
       id="guide869"
       inkscape:label=""
       inkscape:locked="false"
       inkscape:color="rgb(0,255,0)" />
    <sodipodi:guide
       position="256,256"
       orientation="0,1"
       id="guide905"
       inkscape:label=""
       inkscape:locked="false"
       inkscape:color="rgb(0,255,0)" />
  </sodipodi:namedview>
  <filter
     id="shadow">
    <feDropShadow
       stdDeviation="6"
       dy="12"
       dx="6" />
  </filter>
  <g
     id="g987"
     transform="matrix(0.90491517,0,0,0.90746524,23.072155,38.656116)"
     style="stroke-width:1.54493;stroke-miterlimit:4;stroke-dasharray:none">
    <g
       id="g1031">
      <path
         id="path896"
         style="color:#000000;font-style:normal;font-variant:normal;font-weight:normal;font-stretch:normal;font-size:medium;line-height:normal;font-family:sans-serif;font-variant-ligatures:normal;font-variant-position:normal;font-variant-caps:normal;font-variant-numeric:normal;font-variant-alternates:normal;font-variant-east-asian:normal;font-feature-settings:normal;font-variation-settings:normal;text-indent:0;text-align:start;text-decoration:none;text-decoration-line:none;text-decoration-style:solid;text-decoration-color:#000000;letter-spacing:normal;word-spacing:normal;text-transform:none;writing-mode:lr-tb;direction:ltr;text-orientation:mixed;dominant-baseline:auto;baseline-shift:baseline;text-anchor:start;white-space:normal;shape-padding:0;shape-margin:0;inline-size:0;clip-rule:nonzero;display:inline;overflow:visible;visibility:visible;isolation:auto;mix-blend-mode:normal;color-interpolation:sRGB;color-interpolation-filters:linearRGB;solid-color:#000000;solid-opacity:1;vector-effect:none;fill:#000100;fill-opacity:1;fill-rule:evenodd;stroke:none;stroke-width:16.5529;stroke-linecap:round;stroke-linejoin:round;stroke-miterlimit:4;stroke-dasharray:none;stroke-dashoffset:0;stroke-opacity:1;paint-order:normal;color-rendering:auto;image-rendering:auto;shape-rendering:auto;text-rendering:auto;enable-background:accumulate;stop-color:#000000"
         d="M 410.57482,104.72179 H 431.9317 C 398.76685,62.09664 350.4285,31.83409 294.89797,22.34518 l 5.90093,18.01249 c 43.36572,9.33223 81.46583,32.40556 109.77592,64.36412 z" />
      <path
         id="path888"
         style="color:#000000;font-style:normal;font-variant:normal;font-weight:normal;font-stretch:normal;font-size:medium;line-height:normal;font-family:sans-serif;font-variant-ligatures:normal;font-variant-position:normal;font-variant-caps:normal;font-variant-numeric:normal;font-variant-alternates:normal;font-variant-east-asian:normal;font-feature-settings:normal;font-variation-settings:normal;text-indent:0;text-align:start;text-decoration:none;text-decoration-line:none;text-decoration-style:solid;text-decoration-color:#000000;letter-spacing:normal;word-spacing:normal;text-transform:none;writing-mode:lr-tb;direction:ltr;text-orientation:mixed;dominant-baseline:auto;baseline-shift:baseline;text-anchor:start;white-space:normal;shape-padding:0;shape-margin:0;inline-size:0;clip-rule:nonzero;display:inline;overflow:visible;visibility:visible;isolation:auto;mix-blend-mode:normal;color-interpolation:sRGB;color-interpolation-filters:linearRGB;solid-color:#000000;solid-opacity:1;vector-effect:none;fill:#000100;fill-opacity:1;fill-rule:evenodd;stroke:none;stroke-width:16.5529;stroke-linecap:round;stroke-linejoin:round;stroke-miterlimit:4;stroke-dasharray:none;stroke-dashoffset:0;stroke-opacity:1;paint-order:normal;color-rendering:auto;image-rendering:auto;shape-rendering:auto;text-rendering:auto;enable-background:accumulate;stop-color:#000000"
         d="m 410.27049,374.62494 5.87071,17.9307 c 38.37065,-39.5675 62.14553,-93.29993 62.26413,-152.60355 2e-5,-0.008 0.002,-0.0159 0.002,-0.0237 a 8.2764502,8.2764502 0 0 0 0.0107,-0.42184 8.2764502,8.2764502 0 0 0 -0.0111,-0.38526 c -0.0354,-20.44885 -3.08505,-40.16193 -8.35714,-58.95111 l -13.77891,12.62531 c 3.5315,15.02102 5.59444,30.60873 5.59444,46.71106 0,51.92797 -19.5857,99.1431 -51.59539,135.11838 z" />
      <path
         id="path878"
         style="color:#000000;font-style:normal;font-variant:normal;font-weight:normal;font-stretch:normal;font-size:medium;line-height:normal;font-family:sans-serif;font-variant-ligatures:normal;font-variant-position:normal;font-variant-caps:normal;font-variant-numeric:normal;font-variant-alternates:normal;font-variant-east-asian:normal;font-feature-settings:normal;font-variation-settings:normal;text-indent:0;text-align:start;text-decoration:none;text-decoration-line:none;text-decoration-style:solid;text-decoration-color:#000000;letter-spacing:normal;word-spacing:normal;text-transform:none;writing-mode:lr-tb;direction:ltr;text-orientation:mixed;dominant-baseline:auto;baseline-shift:baseline;text-anchor:start;white-space:normal;shape-padding:0;shape-margin:0;inline-size:0;clip-rule:nonzero;display:inline;overflow:visible;visibility:visible;isolation:auto;mix-blend-mode:normal;color-interpolation:sRGB;color-interpolation-filters:linearRGB;solid-color:#000000;solid-opacity:1;vector-effect:none;fill:#000100;fill-opacity:1;fill-rule:evenodd;stroke:none;stroke-width:16.5529;stroke-linecap:round;stroke-linejoin:round;stroke-miterlimit:4;stroke-dasharray:none;stroke-dashoffset:0;stroke-opacity:1;paint-order:normal;color-rendering:auto;image-rendering:auto;shape-rendering:auto;text-rendering:auto;enable-background:accumulate;stop-color:#000000"
         d="m 193.90007,433.22094 -13.70121,12.55429 c 24.07158,8.97884 50.01212,14.12545 77.20423,14.12545 27.19288,0 53.1328,-5.14593 77.20423,-14.12545 L 320.9061,433.22094 c -19.99985,6.50302 -41.30884,10.12651 -63.50301,10.12651 -22.19417,-10e-6 -43.50328,-3.62349 -63.50302,-10.12651 z" />
      <path
         id="path868"
         style="color:#000000;font-style:normal;font-variant:normal;font-weight:normal;font-stretch:normal;font-size:medium;line-height:normal;font-family:sans-serif;font-variant-ligatures:normal;font-variant-position:normal;font-variant-caps:normal;font-variant-numeric:normal;font-variant-alternates:normal;font-variant-east-asian:normal;font-feature-settings:normal;font-variation-settings:normal;text-indent:0;text-align:start;text-decoration:none;text-decoration-line:none;text-decoration-style:solid;text-decoration-color:#000000;letter-spacing:normal;word-spacing:normal;text-transform:none;writing-mode:lr-tb;direction:ltr;text-orientation:mixed;dominant-baseline:auto;baseline-shift:baseline;text-anchor:start;white-space:normal;shape-padding:0;shape-margin:0;inline-size:0;clip-rule:nonzero;display:inline;overflow:visible;visibility:visible;isolation:auto;mix-blend-mode:normal;color-interpolation:sRGB;color-interpolation-filters:linearRGB;solid-color:#000000;solid-opacity:1;vector-effect:none;fill:#000100;fill-opacity:1;fill-rule:evenodd;stroke:none;stroke-width:16.5529;stroke-linecap:round;stroke-linejoin:round;stroke-miterlimit:4;stroke-dasharray:none;stroke-dashoffset:0;stroke-opacity:1;paint-order:normal;color-rendering:auto;image-rendering:auto;shape-rendering:auto;text-rendering:auto;enable-background:accumulate;stop-color:#000000"
         d="M 58.53474,192.7955 44.74503,180.15727 c -5.30744,18.91049 -8.35714,38.7597 -8.35714,59.34929 0,59.48348 23.79975,113.39497 62.272756,153.062 l 5.875034,-17.94362 C 72.52644,338.64966 52.94245,291.43453 52.94245,239.50656 c 0,-16.10233 2.06086,-31.69004 5.59229,-46.71106 z" />
      <path
         id="path860"
         style="color:#000000;font-style:normal;font-variant:normal;font-weight:normal;font-stretch:normal;font-size:medium;line-height:normal;font-family:sans-serif;font-variant-ligatures:normal;font-variant-position:normal;font-variant-caps:normal;font-variant-numeric:normal;font-variant-alternates:normal;font-variant-east-asian:normal;font-feature-settings:normal;font-variation-settings:normal;text-indent:0;text-align:start;text-decoration:none;text-decoration-line:none;text-decoration-style:solid;text-decoration-color:#000000;letter-spacing:normal;word-spacing:normal;text-transform:none;writing-mode:lr-tb;direction:ltr;text-orientation:mixed;dominant-baseline:auto;baseline-shift:baseline;text-anchor:start;white-space:normal;shape-padding:0;shape-margin:0;inline-size:0;clip-rule:nonzero;display:inline;overflow:visible;visibility:visible;isolation:auto;mix-blend-mode:normal;color-interpolation:sRGB;color-interpolation-filters:linearRGB;solid-color:#000000;solid-opacity:1;vector-effect:none;fill:#000100;fill-opacity:1;fill-rule:evenodd;stroke:none;stroke-width:16.5529;stroke-linecap:round;stroke-linejoin:round;stroke-miterlimit:4;stroke-dasharray:none;stroke-dashoffset:0;stroke-opacity:1;paint-order:normal;color-rendering:auto;image-rendering:auto;shape-rendering:auto;text-rendering:auto;enable-background:accumulate;stop-color:#000000"
         d="M 219.90605,22.34303 C 164.37306,31.83208 116.03032,62.09497 82.863675,104.72179 h 21.367685 c 28.30963,-31.9585 66.40831,-55.03186 109.77376,-64.36412 z" />
      <path
         transform="matrix(1.105076,0,0,1.1019706,-25.496484,-42.597903)"
         d="M 255.85547 19.195312 C 255.70293 19.196087 255.55095 19.197905 255.39844 19.201172 C 255.19227 19.205165 254.98533 19.212255 254.7793 19.220703 A 14.980377 15.022592 0 0 0 254.52734 19.232422 C 254.4573 19.236505 254.38646 19.23954 254.31641 19.244141 C 254.30464 19.244809 254.2931 19.245368 254.28125 19.246094 A 14.980377 15.022592 0 0 0 254.09375 19.259766 C 254.06905 19.261399 254.04424 19.261857 254.01953 19.263672 A 14.980377 15.022592 0 0 0 254 19.265625 C 253.96824 19.268075 253.93603 19.270897 253.9043 19.273438 C 253.77767 19.282839 253.65187 19.291636 253.52539 19.302734 C 253.32037 19.320403 253.11471 19.341157 252.91016 19.363281 A 14.980377 15.022592 0 0 0 252.85547 19.369141 C 252.68115 19.388651 252.5079 19.410862 252.33398 19.433594 A 14.980377 15.022592 0 0 0 252.26172 19.441406 C 252.13459 19.458657 252.00578 19.477119 251.87891 19.496094 C 251.86714 19.497818 251.85551 19.500138 251.84375 19.501953 C 251.61358 19.535802 251.38352 19.571841 251.1543 19.611328 A 14.980377 15.022592 0 0 0 251.11914 19.617188 C 250.9697 19.643304 250.82086 19.672668 250.67188 19.701172 A 14.980377 15.022592 0 0 0 250.63281 19.707031 C 250.55761 19.721623 250.4833 19.736753 250.4082 19.751953 C 250.40096 19.753405 250.39573 19.754407 250.38867 19.755859 A 14.980377 15.022592 0 0 0 250.32617 19.767578 C 250.15209 19.80316 249.98 19.840079 249.80664 19.878906 A 14.980377 15.022592 0 0 0 249.79102 19.882812 C 249.68746 19.906116 249.58375 19.930622 249.48047 19.955078 L 249.45898 19.960938 A 14.980377 15.022592 0 0 0 249.38672 19.976562 C 249.33713 19.988478 249.28779 19.999541 249.23828 20.011719 A 14.980377 15.022592 0 0 0 249.20117 20.021484 C 249.03196 20.063291 248.86564 20.107451 248.69727 20.152344 C 248.56235 20.188161 248.42536 20.223928 248.29102 20.261719 C 248.23853 20.276365 248.1872 20.291695 248.13477 20.306641 A 14.980377 15.022592 0 0 0 247.9043 20.375 C 247.89706 20.377269 247.88855 20.378591 247.88086 20.380859 L 247.87109 20.384766 A 14.980377 15.022592 0 0 0 247.85156 20.390625 C 247.8036 20.405335 247.75494 20.41863 247.70703 20.433594 C 247.65518 20.449429 247.60256 20.466296 247.55078 20.482422 A 14.980377 15.022592 0 0 0 247.52539 20.492188 C 247.49888 20.500445 247.47183 20.507267 247.44531 20.515625 A 14.980377 15.022592 0 0 0 247.38672 20.533203 C 247.22139 20.586054 247.05882 20.641428 246.89453 20.697266 C 246.81454 20.724372 246.73211 20.751492 246.65234 20.779297 C 246.5508 20.814316 246.45072 20.848614 246.34961 20.884766 A 14.980377 15.022592 0 0 0 246.24219 20.925781 C 246.07528 20.986908 245.90787 21.049079 245.74219 21.113281 C 245.73857 21.114642 245.73577 21.115826 245.73242 21.117188 A 14.980377 15.022592 0 0 0 245.64844 21.150391 C 245.48587 21.214167 245.32343 21.27899 245.16211 21.345703 C 245.10474 21.369415 245.04742 21.393885 244.99023 21.417969 C 244.94236 21.437525 244.8954 21.458697 244.84766 21.478516 C 244.793 21.501874 244.73612 21.523181 244.68164 21.546875 A 14.980377 15.022592 0 0 0 244.55273 21.601562 C 244.51663 21.617452 244.48136 21.634356 244.44531 21.650391 C 244.32646 21.703051 244.20794 21.758242 244.08984 21.8125 A 14.980377 15.022592 0 0 0 243.98828 21.859375 C 243.90964 21.895937 243.83216 21.933436 243.75391 21.970703 C 243.66495 22.013064 243.57483 22.056346 243.48633 22.099609 A 14.980377 15.022592 0 0 0 243.42188 22.130859 C 243.33118 22.175724 243.24253 22.219818 243.15234 22.265625 C 243.12239 22.280607 243.09236 22.295456 243.0625 22.310547 A 14.980377 15.022592 0 0 0 242.83398 22.427734 C 242.8062 22.442372 242.77778 22.457928 242.75 22.472656 C 242.63014 22.535389 242.51151 22.597717 242.39258 22.662109 A 14.980377 15.022592 0 0 0 242.26562 22.732422 C 242.21368 22.760898 242.1611 22.789566 242.10938 22.818359 C 242.03843 22.857834 241.96705 22.897436 241.89648 22.9375 A 14.980377 15.022592 0 0 0 241.80859 22.988281 L 241.79297 22.998047 C 241.79297 22.998047 241.79102 23 241.79102 23 A 14.980377 15.022592 0 0 0 241.63477 23.089844 C 241.60816 23.105652 241.58315 23.120829 241.55664 23.136719 C 241.47312 23.185713 241.38772 23.23534 241.30469 23.285156 C 241.30016 23.28806 241.29572 23.290065 241.29102 23.292969 C 241.28649 23.295419 241.28355 23.298331 241.2793 23.300781 C 241.13982 23.384477 241.00127 23.470642 240.86328 23.556641 A 14.980377 15.022592 0 0 0 240.70703 23.652344 C 240.68052 23.669331 240.65533 23.688009 240.62891 23.705078 C 240.49108 23.793175 240.35306 23.882275 240.2168 23.972656 C 240.05518 24.079635 239.89375 24.188691 239.73438 24.298828 A 14.980377 15.022592 0 0 0 239.71484 24.310547 C 239.54605 24.427604 239.3791 24.547428 239.21289 24.667969 C 239.16683 24.701336 239.12204 24.735899 239.07617 24.769531 C 239.04758 24.790539 239.01883 24.810924 238.99023 24.832031 A 14.980377 15.022592 0 0 0 238.74219 25.015625 A 14.980377 15.022592 0 0 0 238.69727 25.048828 C 238.59051 25.130037 238.48645 25.212278 238.38086 25.294922 C 238.37814 25.297281 238.37471 25.298513 238.37109 25.300781 C 238.34295 25.322815 238.31321 25.345045 238.28516 25.367188 C 238.24543 25.398304 238.20756 25.429616 238.16797 25.460938 A 14.980377 15.022592 0 0 0 238.11328 25.503906 C 238.0061 25.589526 237.8989 25.674631 237.79297 25.761719 C 237.79025 25.763806 237.78787 25.767444 237.78516 25.769531 C 237.78154 25.772707 237.77769 25.77603 237.77344 25.779297 C 237.63631 25.892047 237.50023 26.005922 237.36523 26.121094 A 14.980377 15.022592 0 0 0 237.23047 26.238281 C 237.13893 26.318283 237.04753 26.397412 236.95703 26.478516 C 236.94599 26.488244 236.93478 26.498066 236.92383 26.507812 A 14.980377 15.022592 0 0 0 236.9043 26.525391 C 236.87462 26.551771 236.84404 26.577018 236.81445 26.603516 A 14.980377 15.022592 0 0 0 236.81055 26.609375 C 236.70297 26.70588 236.59438 26.804299 236.48828 26.902344 A 14.980377 15.022592 0 0 0 236.35742 27.023438 C 236.33462 27.044981 236.31373 27.066275 236.29102 27.087891 C 236.20032 27.173465 236.10911 27.260964 236.01953 27.347656 A 14.980377 15.022592 0 0 0 235.84961 27.513672 C 235.8269 27.536368 235.80387 27.55731 235.78125 27.580078 C 235.68633 27.674228 235.59164 27.771788 235.49805 27.867188 C 235.4404 27.925882 235.38327 27.983808 235.32617 28.042969 C 235.29559 28.073986 235.26673 28.103611 235.23633 28.134766 A 14.980377 15.022592 0 0 0 235.11719 28.259766 C 235.11266 28.264303 235.10777 28.268882 235.10352 28.273438 A 14.980377 15.022592 0 0 0 234.96484 28.421875 C 234.87453 28.519315 234.7843 28.61623 234.69531 28.714844 C 234.67703 28.734926 234.6589 28.755254 234.64062 28.775391 C 234.63248 28.784728 234.62551 28.795341 234.61719 28.804688 C 234.52814 28.903342 234.43921 29.001754 234.35156 29.101562 A 14.980377 15.022592 0 0 0 234.22656 29.246094 C 234.2062 29.269842 234.18629 29.292594 234.16602 29.316406 C 234.08466 29.411171 234.00397 29.505808 233.92383 29.601562 C 233.83542 29.707152 233.74707 29.813152 233.66016 29.919922 C 233.65473 29.926465 233.64987 29.932908 233.64453 29.939453 C 233.63349 29.953094 233.62237 29.966809 233.61133 29.980469 C 233.59984 29.994584 233.58962 30.009302 233.57812 30.023438 A 14.980377 15.022592 0 0 0 233.49609 30.123047 C 233.40777 30.233851 233.32107 30.345017 233.23438 30.457031 C 233.218 30.477957 233.20184 30.498563 233.18555 30.519531 A 14.980377 15.022592 0 0 0 233.16797 30.541016 L 233.15234 30.560547 A 14.980377 15.022592 0 0 0 233.09961 30.628906 C 233.00203 30.756591 232.90602 30.886432 232.81055 31.015625 C 232.80602 31.022086 232.80167 31.028696 232.79688 31.035156 C 232.79507 31.037525 232.79283 31.0406 232.79102 31.042969 C 232.74278 31.10825 232.69418 31.172622 232.64648 31.238281 A 14.980377 15.022592 0 0 0 232.52344 31.410156 C 232.50552 31.434946 232.48658 31.459531 232.46875 31.484375 A 14.980377 15.022592 0 0 0 232.36328 31.634766 C 232.26494 31.775486 232.16618 31.916261 232.07031 32.058594 L 232.08008 32.046875 C 231.99782 32.168817 231.91446 32.290964 231.83398 32.414062 L 231.84375 32.404297 C 231.80448 32.464207 231.76339 32.521851 231.72461 32.582031 A 14.980377 15.022592 0 0 0 231.71094 32.605469 C 231.65592 32.691074 231.60294 32.777142 231.54883 32.863281 C 231.52132 32.906561 231.49208 32.948772 231.46484 32.992188 A 14.980377 15.022592 0 0 0 231.38867 33.115234 C 231.34288 33.189715 231.29903 33.264982 231.25391 33.339844 C 231.23943 33.363324 231.22542 33.386637 231.21094 33.410156 C 231.1961 33.434975 231.18077 33.459516 231.16602 33.484375 A 14.980377 15.022592 0 0 0 231.16211 33.494141 C 231.16211 33.494141 231.16016 33.496094 231.16016 33.496094 C 231.15382 33.506849 231.14705 33.516581 231.14062 33.527344 A 14.980377 15.022592 0 0 0 231.05078 33.673828 C 230.98635 33.783913 230.92433 33.894997 230.86133 34.005859 C 230.84712 34.030667 230.83257 34.055232 230.81836 34.080078 C 230.81112 34.093662 230.80261 34.107498 230.79492 34.121094 C 230.77348 34.158842 230.75369 34.196537 230.73242 34.234375 A 14.980377 15.022592 0 0 0 230.66797 34.347656 C 230.5972 34.475936 230.52783 34.605118 230.45898 34.734375 C 230.38134 34.879429 230.30575 35.025619 230.23047 35.171875 A 14.980377 15.022592 0 0 0 230.20898 35.210938 C 230.17442 35.278584 230.13957 35.346168 230.10547 35.414062 C 230.05751 35.509559 230.00978 35.605193 229.96289 35.701172 A 14.980377 15.022592 0 0 0 229.92969 35.773438 C 229.92697 35.778184 229.92459 35.782362 229.92188 35.787109 A 14.980377 15.022592 0 0 0 229.88477 35.867188 C 229.73798 36.171878 229.59544 36.479822 229.45898 36.789062 A 14.980377 15.022592 0 0 0 229.44727 36.818359 A 14.980377 15.022592 0 0 0 229.41992 36.880859 C 229.39241 36.94402 229.36504 37.006974 229.33789 37.070312 C 229.28685 37.189103 229.237 37.306376 229.1875 37.425781 A 14.980377 15.022592 0 0 0 229.18164 37.441406 C 229.12137 37.5872 229.06189 37.732232 229.00391 37.878906 C 229.0021 37.882369 229.00376 37.885208 229.00195 37.888672 C 228.99833 37.897055 228.99358 37.905677 228.99023 37.914062 C 228.98119 37.936268 228.97353 37.958244 228.96484 37.980469 C 228.95534 38.004626 228.94691 38.030507 228.9375 38.054688 A 14.980377 15.022592 0 0 0 228.79297 38.425781 A 14.980377 15.022592 0 0 0 228.70312 38.669922 C 228.69317 38.697742 228.68174 38.726058 228.67188 38.753906 C 228.63007 38.870611 228.58921 38.988284 228.54883 39.105469 C 228.53354 39.149632 228.51893 39.194052 228.50391 39.238281 L 228.51953 39.199219 A 14.980377 15.022592 0 0 0 228.50781 39.234375 A 14.980377 15.022592 0 0 0 228.50586 39.240234 A 14.980377 15.022592 0 0 0 228.42969 39.460938 A 14.980377 15.022592 0 0 0 228.42383 39.476562 C 228.42306 39.478868 228.42278 39.482068 228.42188 39.484375 L 228.41602 39.496094 A 14.980377 15.022592 0 0 0 228.41211 39.509766 A 14.980377 15.022592 0 0 0 228.40234 39.533203 A 14.980377 15.022592 0 0 0 228.40039 39.541016 C 228.39134 39.567642 228.38369 39.594444 228.375 39.621094 A 14.980377 15.022592 0 0 0 228.35547 39.675781 L 197.65625 133.6875 L 65.457031 133.6875 A 14.980377 15.022592 0 0 0 65.451172 133.6875 C 39.300299 133.69685 26.971362 168.5112 46.037109 186.04102 A 14.980377 15.022592 0 0 0 46.041016 186.04297 L 149.50781 281.12305 L 93.25 453.38672 A 14.980377 15.022592 0 0 0 93.25 453.39258 C 89.159389 465.93033 93.388389 479.83115 104.27148 487.5918 C 115.15458 495.35245 130.46868 494.33076 140.28516 485.31641 A 14.980377 15.022592 0 0 0 140.28906 485.3125 L 256 378.98438 L 371.71094 485.3125 A 14.980377 15.022592 0 0 0 371.71289 485.31641 C 381.52937 494.33074 396.84543 495.35244 407.72852 487.5918 C 418.6116 479.83115 422.84255 465.93032 418.75195 453.39258 A 14.980377 15.022592 0 0 0 418.75 453.38672 L 362.49219 281.12305 L 465.95898 186.04297 A 14.980377 15.022592 0 0 0 465.96094 186.04102 C 485.02669 168.5112 472.6997 133.69684 446.54883 133.6875 A 14.980377 15.022592 0 0 0 446.54492 133.6875 L 314.34375 133.6875 L 283.79297 40.138672 L 283.91211 40.609375 A 14.980377 15.022592 0 0 0 283.63477 39.65625 C 283.59821 39.544467 283.56131 39.431684 283.52344 39.320312 L 283.49414 39.234375 C 283.49324 39.230849 283.49114 39.226181 283.49023 39.222656 A 14.980377 15.022592 0 0 0 283.45508 39.121094 C 283.38974 38.932506 283.32103 38.743965 283.25195 38.556641 L 283.25195 38.548828 C 283.18318 38.362336 283.11148 38.17931 283.03906 37.994141 A 14.980377 15.022592 0 0 0 283.01953 37.945312 C 282.99338 37.879154 282.96606 37.812074 282.93945 37.746094 A 14.980377 15.022592 0 0 0 282.93359 37.726562 L 282.88086 37.599609 C 282.87045 37.573571 282.8602 37.547494 282.84961 37.521484 A 14.980377 15.022592 0 0 0 282.77734 37.34375 C 282.71201 37.187309 282.64609 37.032324 282.57812 36.876953 L 282.57617 36.873047 C 282.50287 36.705413 282.42794 36.539381 282.35156 36.373047 C 282.34885 36.366549 282.34451 36.360014 282.3418 36.353516 A 14.980377 15.022592 0 0 0 282.29883 36.261719 C 282.22725 36.107155 282.15621 35.952212 282.08203 35.798828 A 14.980377 15.022592 0 0 0 282.05664 35.75 C 281.96778 35.56807 281.87763 35.38526 281.78516 35.205078 A 14.980377 15.022592 0 0 0 281.7832 35.201172 C 281.72402 35.085937 281.66419 34.971915 281.60352 34.857422 L 281.58398 34.824219 C 281.36361 34.407578 281.1344 33.994147 280.89453 33.587891 A 14.980377 15.022592 0 0 0 280.85938 33.527344 C 280.85033 33.512904 280.84072 33.4988 280.83203 33.484375 L 280.79492 33.421875 C 280.73339 33.319087 280.67212 33.217308 280.60938 33.115234 A 14.980377 15.022592 0 0 0 280.52734 32.986328 C 280.49974 32.941975 280.47114 32.897729 280.44336 32.853516 A 14.980377 15.022592 0 0 0 280.39258 32.771484 C 280.38262 32.756243 280.37324 32.741786 280.36328 32.726562 C 280.33894 32.68829 280.31554 32.649494 280.29102 32.611328 L 280.25586 32.558594 C 280.17424 32.431589 280.09328 32.30549 280.00977 32.179688 A 14.980377 15.022592 0 0 0 279.89062 32.005859 L 279.88867 32.001953 C 279.67173 31.682882 279.44806 31.369312 279.21875 31.058594 L 279.21094 31.046875 C 279.10393 30.901458 278.99639 30.758748 278.88672 30.615234 A 14.980377 15.022592 0 0 0 278.83594 30.544922 C 278.72558 30.402199 278.61299 30.26188 278.5 30.121094 L 278.48242 30.097656 C 278.41927 30.018771 278.35511 29.941494 278.29102 29.863281 L 278.25977 29.824219 C 278.21108 29.764648 278.16245 29.705687 278.11328 29.646484 A 14.980377 15.022592 0 0 0 278.05859 29.582031 C 277.85109 29.334968 277.63944 29.091917 277.42383 28.851562 L 277.40625 28.832031 C 277.39702 28.821732 277.38823 28.811063 277.37891 28.800781 A 14.980377 15.022592 0 0 0 277.25586 28.664062 C 277.12961 28.525689 277.00196 28.386016 276.87305 28.25 A 14.980377 15.022592 0 0 0 276.86133 28.240234 C 276.78749 28.16251 276.71336 28.084755 276.63867 28.007812 L 276.63281 27.998047 C 276.59155 27.955496 276.54746 27.913395 276.50586 27.871094 C 276.49364 27.858671 276.48097 27.84638 276.46875 27.833984 A 14.980377 15.022592 0 0 0 276.39648 27.759766 C 276.28285 27.645498 276.16827 27.532357 276.05273 27.419922 L 276.0293 27.396484 C 275.82897 27.201554 275.62586 27.009593 275.41992 26.820312 L 275.40234 26.804688 C 275.30881 26.718732 275.2138 26.631637 275.11914 26.546875 L 275.10547 26.535156 C 274.98138 26.424067 274.8565 26.314085 274.73047 26.205078 A 14.980377 15.022592 0 0 0 274.63086 26.119141 C 274.4949 26.003148 274.35882 25.888926 274.2207 25.775391 L 274.20508 25.761719 C 274.07802 25.657279 273.94917 25.553495 273.82031 25.451172 A 14.980377 15.022592 0 0 0 273.79297 25.429688 L 273.74414 25.390625 A 14.980377 15.022592 0 0 0 273.70508 25.359375 C 273.59367 25.271578 273.48185 25.185805 273.36914 25.099609 A 14.980377 15.022592 0 0 0 273.35938 25.089844 C 273.33078 25.068028 273.30017 25.047106 273.27148 25.025391 A 14.980377 15.022592 0 0 0 273.21875 24.986328 C 273.06354 24.869856 272.90758 24.754028 272.75 24.640625 L 272.73242 24.628906 C 272.6708 24.584567 272.60885 24.541906 272.54688 24.498047 C 272.52543 24.482547 272.50582 24.466617 272.48438 24.451172 A 14.980377 15.022592 0 0 0 272.37695 24.375 L 272.35938 24.361328 A 14.980377 15.022592 0 0 0 272.33398 24.345703 A 14.980377 15.022592 0 0 0 272.1875 24.240234 C 272.05395 24.148604 271.91832 24.060123 271.7832 23.970703 L 271.75977 23.953125 C 271.59645 23.84504 271.43117 23.739572 271.26562 23.634766 A 14.980377 15.022592 0 0 0 271.26367 23.634766 C 271.06353 23.508095 270.86345 23.383509 270.66016 23.261719 A 14.980377 15.022592 0 0 0 270.60742 23.230469 C 270.44442 23.133704 270.28018 23.038894 270.11523 22.945312 A 14.980377 15.022592 0 0 0 270.10742 22.941406 A 14.980377 15.022592 0 0 0 270.06836 22.917969 C 270.02909 22.89589 269.98855 22.87346 269.94922 22.851562 C 269.84997 22.79559 269.75033 22.740358 269.65039 22.685547 A 14.980377 15.022592 0 0 0 269.5625 22.636719 C 269.41043 22.554611 269.2571 22.475872 269.10352 22.396484 A 14.980377 15.022592 0 0 0 269.04297 22.363281 L 269.02344 22.353516 C 268.84893 22.263813 268.67247 22.175997 268.49609 22.089844 C 268.34009 22.013617 268.18281 21.938649 268.02539 21.865234 A 14.980377 15.022592 0 0 0 267.85156 21.785156 L 267.80664 21.765625 A 14.980377 15.022592 0 0 0 267.78711 21.753906 C 267.77372 21.747826 267.75949 21.742345 267.74609 21.736328 A 14.980377 15.022592 0 0 0 267.73633 21.732422 A 14.980377 15.022592 0 0 0 267.73047 21.732422 C 267.72504 21.729881 267.71859 21.72715 267.71289 21.724609 L 267.71094 21.722656 C 267.61769 21.680332 267.52536 21.638993 267.43164 21.597656 A 14.980377 15.022592 0 0 0 267.37891 21.574219 C 267.19586 21.494298 267.01287 21.415956 266.82812 21.339844 L 266.81445 21.333984 C 266.6323 21.258937 266.44934 21.186538 266.26562 21.115234 A 14.980377 15.022592 0 0 0 266.13672 21.064453 C 266.10061 21.050823 266.06544 21.036913 266.0293 21.023438 L 266.13281 21.064453 C 266.02392 21.022909 265.91607 20.983574 265.80664 20.943359 C 265.7985 20.940546 265.79099 20.936498 265.7832 20.933594 A 14.980377 15.022592 0 0 0 265.57812 20.857422 C 265.39221 20.791395 265.20488 20.728199 265.01758 20.666016 C 264.97993 20.653356 264.94203 20.641411 264.9043 20.628906 C 264.80657 20.596501 264.70943 20.564555 264.61133 20.533203 A 14.980377 15.022592 0 0 0 264.52344 20.505859 C 264.46027 20.486095 264.39537 20.466595 264.33203 20.447266 L 264.18945 20.404297 C 264.1624 20.39622 264.13448 20.386928 264.10742 20.378906 C 264.09837 20.376184 264.09099 20.373816 264.08203 20.371094 A 14.980377 15.022592 0 0 0 263.85938 20.304688 L 263.82617 20.294922 A 14.980377 15.022592 0 0 0 263.79688 20.287109 C 263.79235 20.285748 263.78782 20.284564 263.7832 20.283203 A 14.980377 15.022592 0 0 0 263.48438 20.201172 C 263.42601 20.1852 263.36702 20.167943 263.30859 20.152344 A 14.980377 15.022592 0 0 0 263.2832 20.144531 C 263.10391 20.097025 262.92436 20.051815 262.74414 20.007812 C 262.54409 19.958546 262.34174 19.912113 262.14062 19.867188 A 14.980377 15.022592 0 0 0 262.13477 19.865234 C 261.95438 19.825025 261.77492 19.786692 261.59375 19.75 A 14.980377 15.022592 0 0 0 261.39453 19.710938 C 261.37251 19.706783 261.35024 19.703296 261.32812 19.699219 L 261.17188 19.669922 C 261.07562 19.651541 260.97941 19.634076 260.88281 19.617188 C 260.71031 19.587032 260.53634 19.558211 260.36328 19.53125 A 14.980377 15.022592 0 0 0 260.32227 19.527344 C 260.24254 19.515147 260.16382 19.50175 260.08398 19.490234 C 259.95359 19.47115 259.82207 19.452816 259.69141 19.435547 L 259.68164 19.433594 C 259.48076 19.40705 259.27955 19.38357 259.07812 19.361328 A 14.980377 15.022592 0 0 0 258.96484 19.349609 C 258.79198 19.33185 258.6185 19.315355 258.44531 19.300781 C 258.26588 19.285227 258.08596 19.269936 257.90625 19.257812 A 14.980377 15.022592 0 0 0 257.88281 19.257812 C 257.77511 19.250734 257.66832 19.244143 257.56055 19.238281 C 257.53168 19.236557 257.50152 19.234146 257.47266 19.232422 A 14.980377 15.022592 0 0 0 257.2207 19.21875 C 257.03645 19.211218 256.85235 19.205128 256.66797 19.201172 C 256.49368 19.197088 256.31887 19.19622 256.14453 19.195312 C 256.11096 19.195143 256.07657 19.195362 256.04297 19.195312 A 14.980377 15.022592 0 0 0 255.85742 19.195312 A 14.980377 15.022592 0 0 0 255.85547 19.195312 z M 255.93164 34.216797 L 255.93359 34.216797 C 255.97875 34.216569 256.0232 34.216569 256.06836 34.216797 C 256.15082 34.217214 256.23397 34.218761 256.31641 34.220703 C 256.41393 34.222573 256.50996 34.224514 256.60742 34.228516 C 256.64534 34.230712 256.68474 34.233805 256.72266 34.236328 C 256.78229 34.239459 256.84076 34.242164 256.90039 34.246094 C 256.99796 34.25268 257.09595 34.260811 257.19336 34.269531 C 257.27532 34.276431 257.35765 34.284566 257.43945 34.292969 C 257.53651 34.303683 257.63365 34.315294 257.73047 34.328125 C 257.79404 34.336503 257.85649 34.344228 257.91992 34.353516 C 257.96786 34.360323 258.01658 34.367677 258.06445 34.375 C 258.14646 34.387776 258.22874 34.40172 258.31055 34.416016 C 258.38139 34.428396 258.45081 34.441561 258.52148 34.455078 C 258.55656 34.461411 258.59184 34.467994 258.62695 34.474609 C 258.71291 34.492018 258.79916 34.510208 258.88477 34.529297 C 258.98024 34.550625 259.07488 34.572294 259.16992 34.595703 C 259.26543 34.618794 259.362 34.642789 259.45703 34.667969 C 259.54415 34.69123 259.63011 34.715226 259.7168 34.740234 C 259.7263 34.742585 259.73659 34.745678 259.74609 34.748047 C 259.78624 34.760225 259.82515 34.772603 259.86523 34.785156 C 259.93111 34.804669 259.99689 34.825184 260.0625 34.845703 C 260.12726 34.866403 260.19329 34.886525 260.25781 34.908203 C 260.36518 34.943354 260.47158 34.979737 260.57812 35.017578 C 260.58699 35.021099 260.59447 35.025758 260.60352 35.029297 C 260.67166 35.054058 260.74082 35.077658 260.80859 35.103516 C 260.82588 35.109953 260.84218 35.11654 260.85938 35.123047 C 260.94941 35.157992 261.03959 35.195552 261.12891 35.232422 C 261.21953 35.269702 261.31053 35.306459 261.40039 35.345703 C 261.46466 35.374049 261.52791 35.40425 261.5918 35.433594 C 261.6247 35.448179 261.65856 35.461715 261.69141 35.476562 L 261.71094 35.486328 C 261.78644 35.521541 261.86062 35.557147 261.93555 35.59375 C 262.02399 35.636939 262.11358 35.681454 262.20117 35.726562 C 262.21511 35.733604 262.22825 35.74096 262.24219 35.748047 C 262.31605 35.786221 262.38968 35.823754 262.46289 35.863281 C 262.53677 35.903801 262.61039 35.946391 262.68359 35.988281 C 262.7026 35.998832 262.72132 36.008889 262.74023 36.019531 C 262.81976 36.064647 262.89979 36.109536 262.97852 36.15625 C 263.07669 36.215061 263.17271 36.276618 263.26953 36.337891 C 263.35363 36.391129 263.43841 36.444929 263.52148 36.5 C 263.59095 36.54587 263.65983 36.591535 263.72852 36.638672 L 263.74805 36.652344 C 263.76759 36.666419 263.78718 36.681134 263.80664 36.695312 C 263.87444 36.742382 263.94271 36.789598 264.00977 36.837891 C 264.08887 36.894737 264.16614 36.95319 264.24414 37.011719 C 264.25808 37.022288 264.27317 37.032346 264.28711 37.042969 C 264.34199 37.084938 264.39492 37.127125 264.44922 37.169922 C 264.46089 37.179319 264.4727 37.189783 264.48438 37.199219 C 264.56241 37.260771 264.63997 37.323478 264.7168 37.386719 C 264.78695 37.444303 264.85665 37.501578 264.92578 37.560547 L 264.94727 37.578125 C 265.01123 37.63346 265.07365 37.689584 265.13672 37.746094 C 265.18829 37.792211 265.24007 37.839827 265.29102 37.886719 C 265.39885 37.985673 265.50441 38.085144 265.60938 38.1875 C 265.67003 38.2464 265.73138 38.307178 265.79102 38.367188 L 265.80273 38.380859 C 265.83573 38.414245 265.86968 38.446747 265.90234 38.480469 C 265.94044 38.519683 265.97798 38.559944 266.01562 38.599609 C 266.07919 38.666672 266.14273 38.734407 266.20508 38.802734 C 266.2134 38.812139 266.22232 38.82065 266.23047 38.830078 C 266.23888 38.839483 266.24576 38.849947 266.25391 38.859375 C 266.37206 38.990183 266.48798 39.122567 266.60156 39.257812 C 266.63124 39.293572 266.66209 39.329178 266.69141 39.365234 C 266.73576 39.419058 266.77865 39.472854 266.82227 39.527344 C 266.88144 39.600916 266.94022 39.675232 266.99805 39.75 C 267.05385 39.823033 267.10959 39.896574 267.16406 39.970703 C 267.28427 40.132959 267.40186 40.299436 267.51562 40.466797 C 267.52458 40.479735 267.53197 40.490939 267.54102 40.503906 C 267.58841 40.57529 267.6354 40.648455 267.68164 40.720703 C 267.72734 40.79152 267.77384 40.861958 267.81836 40.933594 C 267.8323 40.954745 267.84553 40.976819 267.85938 40.998047 C 267.89822 41.061314 267.9366 41.123618 267.97461 41.1875 C 267.9852 41.205136 267.99527 41.224506 268.00586 41.242188 C 268.12948 41.451562 268.24961 41.66333 268.36328 41.878906 C 268.39891 41.945728 268.43214 42.012686 268.4668 42.080078 C 268.51335 42.170819 268.56068 42.261776 268.60547 42.353516 C 268.64284 42.430879 268.67874 42.50985 268.71484 42.587891 C 268.72154 42.602596 268.72804 42.616131 268.73438 42.630859 C 268.77711 42.72341 268.81847 42.816694 268.85938 42.910156 C 268.894 42.98931 268.92959 43.068656 268.96289 43.148438 L 268.9707 43.169922 C 268.98473 43.204598 268.99796 43.238651 269.01172 43.273438 C 269.0395 43.34092 269.06696 43.408654 269.09375 43.476562 C 269.1309 43.57153 269.16783 43.667917 269.20312 43.763672 C 269.23861 43.859833 269.27307 43.955819 269.30664 44.052734 C 269.31225 44.069207 269.31684 44.085069 269.32227 44.101562 C 269.34959 44.180792 269.37628 44.260137 269.40234 44.339844 L 269.4043 44.347656 L 303.48633 148.70898 L 446.54492 148.70898 C 459.64221 148.71366 465.71828 165.88432 455.83789 174.96875 L 345.25195 276.59375 L 404.51562 458.0625 C 406.6055 464.468 404.362 471.55944 399.04688 475.34961 C 393.73175 479.13979 386.67002 478.68468 381.83008 474.24023 L 256 358.60938 L 130.16992 474.24023 C 125.32998 478.6847 118.26826 479.13979 112.95312 475.34961 C 107.63799 471.55943 105.39449 464.46801 107.48438 458.0625 L 166.74805 276.59375 L 56.162109 174.96875 C 46.281717 165.88432 52.357788 148.71352 65.455078 148.70898 L 208.51367 148.70898 L 242.5918 44.349609 L 242.59766 44.335938 L 242.60938 44.300781 L 242.61523 44.283203 C 242.64509 44.191648 242.67554 44.098739 242.70703 44.007812 C 242.73526 43.925722 242.76533 43.845227 242.79492 43.763672 C 242.7999 43.749536 242.80512 43.734822 242.81055 43.720703 L 242.81445 43.710938 C 242.8492 43.618143 242.88532 43.525635 242.92188 43.433594 C 242.95357 43.353239 242.98659 43.273118 243.01953 43.193359 C 243.04695 43.127217 243.07519 43.059857 243.10352 42.994141 C 243.1217 42.951667 243.13965 42.909481 243.1582 42.867188 L 243.1582 42.865234 C 243.23423 42.692945 243.31236 42.52262 243.39453 42.353516 C 243.40114 42.339377 243.40968 42.326617 243.41602 42.3125 C 243.44027 42.262908 243.46349 42.213365 243.48828 42.164062 C 243.50547 42.129849 243.52364 42.094619 243.54102 42.060547 C 243.58429 41.976512 243.62708 41.89369 243.67188 41.810547 C 243.70649 41.745518 243.74178 41.679709 243.77734 41.615234 C 243.79897 41.576868 243.82185 41.540114 243.84375 41.501953 C 243.88603 41.426797 243.92913 41.351705 243.97266 41.277344 C 243.9799 41.265561 243.9869 41.253949 243.99414 41.242188 C 244.00473 41.224506 244.0148 41.205135 244.02539 41.1875 C 244.06333 41.123618 244.10171 41.061314 244.14062 40.998047 C 244.16768 40.954925 244.19515 40.911963 244.22266 40.869141 C 244.24971 40.826019 244.27718 40.783057 244.30469 40.740234 C 244.32405 40.710135 244.34364 40.680341 244.36328 40.650391 C 244.40349 40.588848 244.44329 40.527695 244.48438 40.466797 C 244.53225 40.395711 244.58181 40.324097 244.63086 40.253906 C 244.63973 40.241526 244.6472 40.229148 244.65625 40.216797 L 244.66016 40.212891 C 244.71787 40.131616 244.77667 40.050719 244.83594 39.970703 C 244.88663 39.901947 244.93838 39.835388 244.99023 39.767578 L 245.00391 39.748047 C 245.02499 39.720889 245.04709 39.693015 245.06836 39.666016 C 245.11141 39.610351 245.15542 39.555003 245.19922 39.5 C 245.21306 39.482897 245.2263 39.466255 245.24023 39.449219 C 245.29209 39.385177 245.34559 39.32092 245.39844 39.257812 C 245.45306 39.192552 245.50685 39.128696 245.5625 39.064453 C 245.57254 39.052663 245.58371 39.041053 245.59375 39.029297 C 245.65004 38.965196 245.7063 38.900939 245.76367 38.837891 C 245.82053 38.774373 245.87763 38.710892 245.93555 38.648438 C 245.95057 38.633097 245.96545 38.618786 245.98047 38.603516 C 246.04503 38.535154 246.10999 38.467419 246.17578 38.400391 C 246.24584 38.328982 246.31727 38.257367 246.38867 38.1875 C 246.3998 38.176295 246.41074 38.165464 246.42188 38.154297 C 246.48268 38.095455 246.54366 38.03818 246.60547 37.980469 C 246.6166 37.969854 246.62754 37.957843 246.63867 37.947266 C 246.69071 37.899179 246.74421 37.851964 246.79688 37.804688 C 246.81135 37.791707 246.82527 37.778544 246.83984 37.765625 C 246.87257 37.736622 246.90642 37.708375 246.93945 37.679688 C 246.98375 37.639958 247.02747 37.599697 247.07227 37.560547 C 247.14138 37.501578 247.21112 37.444303 247.28125 37.386719 C 247.33609 37.341552 247.39179 37.296262 247.44727 37.251953 C 247.48167 37.224708 247.51612 37.196835 247.55078 37.169922 C 247.6172 37.1175 247.68276 37.066806 247.75 37.015625 L 247.75586 37.011719 C 247.8333 36.9532 247.91169 36.894747 247.99023 36.837891 C 248.07101 36.779311 248.15248 36.722811 248.23438 36.666016 C 248.31574 36.609792 248.39803 36.554442 248.48047 36.5 C 248.5635 36.444928 248.6464 36.391129 248.73047 36.337891 C 248.74332 36.329629 248.75668 36.320722 248.76953 36.3125 C 248.84048 36.268283 248.91075 36.224544 248.98242 36.181641 C 249.06717 36.130676 249.15259 36.080355 249.23828 36.03125 C 249.25113 36.023576 249.26449 36.015444 249.27734 36.007812 C 249.33618 35.974406 249.39581 35.94268 249.45508 35.910156 C 249.4729 35.90011 249.48999 35.888872 249.50781 35.878906 C 249.59097 35.833883 249.67384 35.791322 249.75781 35.748047 C 249.77111 35.740959 249.78544 35.733604 249.79883 35.726562 C 249.83881 35.706351 249.87974 35.685829 249.91992 35.666016 C 249.96323 35.644 250.0053 35.62311 250.04883 35.601562 C 250.12871 35.562511 250.21048 35.5238 250.29102 35.486328 C 250.30441 35.479832 250.31669 35.473249 250.33008 35.466797 C 250.39395 35.437453 250.45724 35.409205 250.52148 35.380859 C 250.53877 35.373173 250.55693 35.365036 250.57422 35.357422 C 250.59702 35.347942 250.61968 35.337479 250.64258 35.328125 C 250.71864 35.295046 250.79454 35.264096 250.87109 35.232422 C 250.94827 35.200505 251.02578 35.169153 251.10352 35.138672 C 251.11582 35.133944 251.12832 35.127738 251.14062 35.123047 C 251.22004 35.092268 251.30096 35.062473 251.38086 35.033203 C 251.44477 35.01035 251.50802 34.988682 251.57227 34.966797 C 251.61508 34.951865 251.65819 34.936374 251.70117 34.921875 C 251.77951 34.89525 251.85877 34.870882 251.9375 34.845703 L 251.94336 34.84375 C 252.01617 34.820761 252.08899 34.797139 252.16211 34.775391 C 252.18491 34.768263 252.20766 34.760912 252.23047 34.753906 C 252.26604 34.743753 252.30224 34.734468 252.33789 34.724609 C 252.40684 34.70522 252.4757 34.686256 252.54492 34.667969 C 252.62498 34.646625 252.7048 34.627283 252.78516 34.607422 L 252.80859 34.601562 C 252.89587 34.580084 252.98263 34.558787 253.07031 34.539062 C 253.15261 34.520627 253.23574 34.503211 253.31836 34.486328 C 253.33619 34.482762 253.35327 34.480056 253.37109 34.476562 C 253.40676 34.469352 253.44286 34.462002 253.47852 34.455078 C 253.54917 34.441561 253.62055 34.428396 253.69141 34.416016 C 253.81817 34.394178 253.94499 34.373655 254.07227 34.355469 C 254.13794 34.345565 254.20374 34.337054 254.26953 34.328125 C 254.3519 34.317356 254.43505 34.306112 254.51758 34.296875 C 254.61442 34.286403 254.70962 34.277889 254.80664 34.269531 C 254.90405 34.260812 255.00204 34.252682 255.09961 34.246094 C 255.11463 34.244887 255.12951 34.24334 255.14453 34.242188 C 255.1891 34.239601 255.23468 34.238461 255.2793 34.236328 C 255.31721 34.233805 255.35466 34.230712 255.39258 34.228516 C 255.49004 34.224514 255.58802 34.220619 255.68555 34.21875 C 255.76798 34.216808 255.8492 34.217216 255.93164 34.216797 z M 256 95.064453 L 238.48047 148.70898 L 273.51953 148.70898 L 256 95.064453 z M 103.32812 178.64258 L 176.71289 246.07812 L 198.73828 178.64258 L 103.32812 178.64258 z M 228.70508 178.64258 L 199.76367 267.26172 L 256 318.9375 L 312.23633 267.26172 L 283.29492 178.64258 L 228.70508 178.64258 z M 313.26172 178.64258 L 335.28711 246.07812 L 408.67188 178.64258 L 313.26172 178.64258 z M 141.8457 193.66406 L 178.06836 193.66406 L 169.70703 219.26758 L 141.8457 193.66406 z M 239.56055 193.66406 L 272.43945 193.66406 L 294.99609 262.73047 L 256 298.56445 L 217.00586 262.73047 L 239.56055 193.66406 z M 333.92969 193.66406 L 370.15234 193.66406 L 342.29102 219.26562 L 333.92969 193.66406 z M 189.79883 297.77539 L 151.53906 414.93164 L 234.41602 338.77344 L 189.79883 297.77539 z M 322.20117 297.77539 L 277.58398 338.77344 L 360.46094 414.93164 L 322.20117 297.77539 z M 196.80469 324.58594 L 212.24609 338.77344 L 183.56641 365.12695 L 196.80469 324.58594 z M 315.19336 324.58594 L 328.43555 365.12891 L 299.75391 338.77344 L 315.19336 324.58594 z "
         style="color:#000000;font-style:normal;font-variant:normal;font-weight:normal;font-stretch:normal;font-size:medium;line-height:normal;font-family:sans-serif;font-variant-ligatures:normal;font-variant-position:normal;font-variant-caps:normal;font-variant-numeric:normal;font-variant-alternates:normal;font-variant-east-asian:normal;font-feature-settings:normal;font-variation-settings:normal;text-indent:0;text-align:start;text-decoration:none;text-decoration-line:none;text-decoration-style:solid;text-decoration-color:#000000;letter-spacing:normal;word-spacing:normal;text-transform:none;writing-mode:lr-tb;direction:ltr;text-orientation:mixed;dominant-baseline:auto;baseline-shift:baseline;text-anchor:start;white-space:normal;shape-padding:0;shape-margin:0;inline-size:0;clip-rule:nonzero;display:inline;overflow:visible;visibility:visible;isolation:auto;mix-blend-mode:normal;color-interpolation:sRGB;color-interpolation-filters:linearRGB;solid-color:#000000;solid-opacity:1;vector-effect:none;fill:#000000;fill-opacity:1;fill-rule:nonzero;stroke:none;stroke-width:29.9999;stroke-linecap:butt;stroke-linejoin:round;stroke-miterlimit:4;stroke-dasharray:none;stroke-dashoffset:0;stroke-opacity:1;paint-order:stroke fill markers;color-rendering:auto;image-rendering:auto;shape-rendering:auto;text-rendering:auto;enable-background:accumulate;stop-color:#000000"
         id="path844" />
    </g>
  </g>
</svg>
