<?xml version="1.0" encoding="UTF-8" standalone="no"?>
<svg
   xmlns:dc="http://purl.org/dc/elements/1.1/"
   xmlns:cc="http://creativecommons.org/ns#"
   xmlns:rdf="http://www.w3.org/1999/02/22-rdf-syntax-ns#"
   xmlns:svg="http://www.w3.org/2000/svg"
   xmlns="http://www.w3.org/2000/svg"
   xmlns:xlink="http://www.w3.org/1999/xlink"
   xmlns:sodipodi="http://sodipodi.sourceforge.net/DTD/sodipodi-0.dtd"
   xmlns:inkscape="http://www.inkscape.org/namespaces/inkscape"
   viewBox="0 0 512 512"
   width="512"
   height="512"
   version="1.1"
   id="svg5"
   sodipodi:docname="profan-skill_wc.svg"
   inkscape:version="1.0 (4035a4fb49, 2020-05-01)">
  <title
     id="title856">Profan Skill</title>
  <metadata
     id="metadata11">
    <rdf:RDF>
      <cc:Work
         rdf:about="">
        <dc:format>image/svg+xml</dc:format>
        <dc:type
           rdf:resource="http://purl.org/dc/dcmitype/StillImage" />
        <dc:title>Profan Skill</dc:title>
        <cc:license
           rdf:resource="http://creativecommons.org/licenses/by-sa/4.0/" />
        <dc:date>2022.02.10</dc:date>
        <dc:creator>
          <cc:Agent>
            <dc:title>Streuner²</dc:title>
          </cc:Agent>
        </dc:creator>
        <dc:contributor>
          <cc:Agent>
            <dc:title>based upon Hand iconby Lorc under CC BY 3.0 (Game-icons.net)</dc:title>
          </cc:Agent>
        </dc:contributor>
      </cc:Work>
      <cc:License
         rdf:about="http://creativecommons.org/licenses/by-sa/4.0/">
        <cc:permits
           rdf:resource="http://creativecommons.org/ns#Reproduction" />
        <cc:permits
           rdf:resource="http://creativecommons.org/ns#Distribution" />
        <cc:requires
           rdf:resource="http://creativecommons.org/ns#Notice" />
        <cc:requires
           rdf:resource="http://creativecommons.org/ns#Attribution" />
        <cc:permits
           rdf:resource="http://creativecommons.org/ns#DerivativeWorks" />
        <cc:requires
           rdf:resource="http://creativecommons.org/ns#ShareAlike" />
      </cc:License>
    </rdf:RDF>
  </metadata>
  <defs
     id="defs9">
    <linearGradient
       id="linearGradient1015"
       inkscape:collect="always">
      <stop
         id="stop1011"
         offset="0"
         style="stop-color:#e0dbcf;stop-opacity:1" />
      <stop
         id="stop1013"
         offset="1"
         style="stop-color:#655743;stop-opacity:1" />
    </linearGradient>
    <radialGradient
       gradientUnits="userSpaceOnUse"
       gradientTransform="matrix(1,0,0,0.99989852,0,0.02597902)"
       r="192.50977"
       fy="256"
       fx="256"
       cy="256"
       cx="256"
       id="radialGradient1017"
       xlink:href="#linearGradient1015"
       inkscape:collect="always" />
  </defs>
  <sodipodi:namedview
     guideopacity="0.49803922"
     guidecolor="#00ff00"
     inkscape:guide-bbox="true"
     showguides="true"
     inkscape:showpageshadow="false"
     borderlayer="false"
     inkscape:document-rotation="0"
     pagecolor="#323232"
     bordercolor="#666666"
     borderopacity="1"
     objecttolerance="10"
     gridtolerance="10"
     guidetolerance="10"
     inkscape:pageopacity="0.61960784"
     inkscape:pageshadow="2"
     inkscape:window-width="3840"
     inkscape:window-height="2066"
     id="namedview7"
     showgrid="false"
     inkscape:zoom="2.4199219"
     inkscape:cx="220.83052"
     inkscape:cy="318.62832"
     inkscape:window-x="-11"
     inkscape:window-y="-11"
     inkscape:window-maximized="1"
     inkscape:current-layer="g987">
    <sodipodi:guide
       inkscape:color="rgb(0,255,0)"
       inkscape:locked="false"
       inkscape:label=""
       id="guide869"
       orientation="-1,0"
       position="256,256" />
    <sodipodi:guide
       inkscape:color="rgb(0,255,0)"
       inkscape:locked="false"
       inkscape:label=""
       id="guide905"
       orientation="0,1"
       position="256,256" />
  </sodipodi:namedview>
  <filter
     id="shadow">
    <feDropShadow
       dx="6"
       dy="12"
       stdDeviation="6" />
  </filter>
  <g
     style="stroke-width:1.54493;stroke-miterlimit:4;stroke-dasharray:none"
     transform="matrix(0.90491517,0,0,0.90746524,23.072155,38.656116)"
     id="g987">
    <path
       transform="matrix(1.105076,0,0,1.1019706,-25.496484,-42.597903)"
       d="M 256 63.509766 C 249.84586 63.509766 243.76229 63.812281 237.75586 64.376953 C 241.84331 68.589829 245.67744 73.135886 249.21875 77.974609 C 268.79954 104.72915 280.37642 140.54184 280.58398 179.81445 C 280.60941 180.16675 280.62243 180.51983 280.62305 180.87305 C 280.62241 181.22562 280.60941 181.57804 280.58398 181.92969 C 280.37708 221.20363 268.80011 257.01616 249.21875 283.77148 C 229.46001 310.76917 200.72245 328.8457 168.33789 328.8457 C 135.95334 328.8457 107.21968 310.76917 87.460938 283.77148 C 77.612041 270.31429 69.780209 254.56709 64.400391 237.24219 C 63.803313 243.41483 63.490234 249.67073 63.490234 256 C 63.490234 362.30897 149.67938 448.49023 256 448.49023 C 268.86175 448.49023 281.42448 447.21793 293.58008 444.8125 C 291.10537 442.21106 288.86519 439.4658 286.9043 436.59961 C 282.8974 430.74324 275.26126 423.32318 270.94922 411.50781 C 264.96665 395.11326 258.02496 374.37392 234.70312 352.6875 A 15.301952 14.706942 0 0 1 231.49219 335.87109 C 235.4858 327.69369 240.10491 321.31831 247.82031 317.3457 C 255.35819 313.4639 265.81202 314.04205 272.98828 316.99219 A 15.301952 14.706942 0 0 0 272.99023 316.99414 C 279.90914 319.84024 285.92777 324.08063 291.54492 329.24023 C 291.90035 303.73977 294.9747 278.27739 296.8418 255.11328 A 15.301952 14.706942 0 0 1 301.32031 245.80859 C 308.52422 238.94034 317.31207 236.99561 326.13086 237.11719 A 15.301952 14.706942 0 0 0 326.13281 237.11719 C 334.80846 237.23784 342.30823 239.4216 348.98047 244.26758 A 15.301952 14.706942 0 0 1 352.43164 247.76562 C 353.83296 244.45489 355.27107 241.14512 356.80273 237.83984 A 15.301952 14.706942 0 0 1 368.51562 229.27734 C 371.00352 228.91956 373.60459 228.64595 376.4043 228.61328 A 15.301952 14.706942 0 0 1 376.47852 228.61328 A 15.301952 14.706942 0 0 1 377.46094 228.63672 C 378.06242 228.64389 378.66123 228.64175 379.27148 228.67578 A 15.301952 14.706942 0 0 1 379.2793 228.67578 C 391.86434 229.38488 402.94043 236.41684 410.61914 245.23633 A 15.301952 14.706942 0 0 1 412.42578 261.52344 C 410.53847 264.9697 408.76407 268.51889 407.05469 272.12891 C 409.82809 269.09451 412.70516 266.10953 415.70312 263.17969 A 15.301952 14.706942 0 0 1 426.45117 258.78516 C 435.36522 258.6951 441.98834 261.92329 448.18945 267.00977 C 448.39503 263.36527 448.50977 259.69592 448.50977 256 C 448.50977 149.69102 362.32062 63.509766 256 63.509766 z M 385.51367 244.75586 C 386.40235 245.07182 387.26949 245.43987 388.11914 245.85938 C 387.26957 245.43984 386.40228 245.07184 385.51367 244.75586 z M 393.03906 248.99805 C 393.83441 249.62495 394.62032 250.30441 395.40039 251.03516 C 394.62037 250.3044 393.83434 249.62497 393.03906 248.99805 z M 312.0957 256.24805 C 311.4373 264.4164 310.64655 272.78661 309.87891 281.25586 C 310.64652 272.78663 311.43729 264.4164 312.0957 256.24805 z M 309.87891 281.25586 C 308.91936 291.84242 307.99677 302.58443 307.41406 313.28516 C 307.99674 302.58446 308.91938 291.8424 309.87891 281.25586 z M 359.79102 270.6582 C 358.48788 274.25506 357.24237 277.85696 356.04492 281.45898 C 357.24237 277.85688 358.48788 274.25513 359.79102 270.6582 z M 443.17383 283.2832 C 443.94709 284.34016 444.62567 285.44024 445.19336 286.55664 C 444.62572 285.44014 443.94704 284.34027 443.17383 283.2832 z M 307.10742 319.69922 C 306.93369 323.96966 306.82467 328.22724 306.79883 332.45898 C 306.82466 328.22725 306.9337 323.96965 307.10742 319.69922 z M 306.79883 332.45898 C 306.76007 338.8066 306.90899 345.09579 307.3125 351.28516 C 306.90898 345.0958 306.76008 338.80659 306.79883 332.45898 z M 337.56641 328.45117 C 337.81335 328.52507 338.00835 328.57121 338.17578 328.60156 C 338.00833 328.57124 337.81337 328.52505 337.56641 328.45117 z M 339.19531 328.75586 C 339.69502 328.86053 340.42315 329.09437 341.99805 329.79688 C 340.4246 329.09501 339.69509 328.86061 339.19531 328.75586 z M 252.64844 331.92578 C 252.24304 332.26506 251.83641 332.63926 251.42773 333.05078 C 251.8361 332.63964 252.24336 332.26479 252.64844 331.92578 z M 366.20703 342.33203 C 367.08415 342.79698 367.77523 343.20855 368.37109 343.5957 C 367.77524 343.20852 367.08415 342.79698 366.20703 342.33203 z M 369.96289 344.71484 C 370.7061 345.26723 371.43882 345.83032 372.46484 346.50586 C 371.43882 345.8303 370.7061 345.26729 369.96289 344.71484 z M 307.80273 357.43945 C 308.46617 358.30413 309.18083 359.1469 309.9375 359.9707 C 309.18083 359.14689 308.46617 358.30413 307.80273 357.43945 z M 262.38672 361.02344 C 263.80688 362.92251 265.14778 364.81206 266.40039 366.68164 C 265.1475 364.81173 263.80722 362.92285 262.38672 361.02344 z M 311.10352 361.19141 C 311.5021 361.59475 311.90939 361.99474 312.32617 362.39062 C 311.90974 361.99505 311.50177 361.59442 311.10352 361.19141 z M 270.46875 373.14453 C 272.14298 375.97963 273.64759 378.7615 275.00977 381.47266 C 273.64733 378.76108 272.14335 375.98009 270.46875 373.14453 z M 334.74805 381.00781 C 335.60859 381.86171 336.43813 382.73721 337.22852 383.63867 C 336.43813 382.73718 335.60859 381.86175 334.74805 381.00781 z M 319.75977 382.64258 C 321.99142 384.14484 324.24642 385.63602 326.34375 387.21484 C 324.24638 385.63612 321.99146 384.14475 319.75977 382.64258 z M 338.38477 385.01172 C 339.50786 386.40391 340.53443 387.86064 341.43555 389.39453 C 340.53398 387.85982 339.50853 386.4046 338.38477 385.01172 z M 278.70312 389.38086 C 279.81212 391.93438 280.80961 394.40112 281.72461 396.76367 C 280.8094 394.40066 279.81243 391.93492 278.70312 389.38086 z M 342.29492 390.95703 C 343.10965 392.54493 343.79127 394.21696 344.31055 395.98633 C 343.79102 394.21609 343.11017 392.54565 342.29492 390.95703 z M 344.31055 395.98633 C 344.6569 397.16648 344.9305 398.39018 345.125 399.66211 C 344.9305 398.39018 344.6569 397.16648 344.31055 395.98633 z M 286.60352 409.49023 C 287.51821 411.37065 288.62551 413.21466 289.8418 415.03711 C 288.62569 413.21467 287.51813 411.37065 286.60352 409.49023 z M 306.25391 436.34961 C 307.49655 437.56848 308.8122 438.7395 310.20117 439.85547 C 308.81213 438.7395 307.49661 437.56847 306.25391 436.34961 z "
       style="color:#000000;font-style:normal;font-variant:normal;font-weight:normal;font-stretch:normal;font-size:medium;line-height:normal;font-family:sans-serif;font-variant-ligatures:normal;font-variant-position:normal;font-variant-caps:normal;font-variant-numeric:normal;font-variant-alternates:normal;font-variant-east-asian:normal;font-feature-settings:normal;font-variation-settings:normal;text-indent:0;text-align:start;text-decoration:none;text-decoration-line:none;text-decoration-style:solid;text-decoration-color:#000000;letter-spacing:normal;word-spacing:normal;text-transform:none;writing-mode:lr-tb;direction:ltr;text-orientation:mixed;dominant-baseline:auto;baseline-shift:baseline;text-anchor:start;white-space:normal;shape-padding:0;shape-margin:0;inline-size:0;clip-rule:nonzero;display:inline;overflow:visible;visibility:visible;isolation:auto;mix-blend-mode:normal;color-interpolation:sRGB;color-interpolation-filters:linearRGB;solid-color:#000000;solid-opacity:1;vector-effect:none;fill:url(#radialGradient1017);fill-opacity:1;fill-rule:evenodd;stroke:none;stroke-width:15.0001;stroke-linecap:round;stroke-linejoin:round;stroke-miterlimit:4;stroke-dasharray:none;stroke-dashoffset:0;stroke-opacity:1;paint-order:normal;color-rendering:auto;image-rendering:auto;shape-rendering:auto;text-rendering:auto;enable-background:accumulate;stop-color:#000000"
       id="path969" />
    <g
       style="stroke:none;stroke-width:1.83054"
       transform="matrix(0.91974051,0,0,0.77444937,-5.3861994,14.59346)"
       id="g889" />
    <path
       id="path947"
       style="color:#000000;font-style:normal;font-variant:normal;font-weight:normal;font-stretch:normal;font-size:medium;line-height:normal;font-family:sans-serif;font-variant-ligatures:normal;font-variant-position:normal;font-variant-caps:normal;font-variant-numeric:normal;font-variant-alternates:normal;font-variant-east-asian:normal;font-feature-settings:normal;font-variation-settings:normal;text-indent:0;text-align:start;text-decoration:none;text-decoration-line:none;text-decoration-style:solid;text-decoration-color:#000000;letter-spacing:normal;word-spacing:normal;text-transform:none;writing-mode:lr-tb;direction:ltr;text-orientation:mixed;dominant-baseline:auto;baseline-shift:baseline;text-anchor:start;white-space:normal;shape-padding:0;shape-margin:0;inline-size:0;clip-rule:nonzero;display:inline;overflow:visible;visibility:visible;isolation:auto;mix-blend-mode:normal;color-interpolation:sRGB;color-interpolation-filters:linearRGB;solid-color:#000000;solid-opacity:1;vector-effect:none;fill:#655743;fill-opacity:1;fill-rule:evenodd;stroke:none;stroke-width:33.1057;stroke-linecap:round;stroke-linejoin:round;stroke-miterlimit:4;stroke-dasharray:none;stroke-dashoffset:0;stroke-opacity:1;paint-order:stroke fill markers;color-rendering:auto;image-rendering:auto;shape-rendering:auto;text-rendering:auto;enable-background:accumulate;stop-color:#000000"
       d="m 160.53184,10.210591 c -59.38586,0 -107.52908,65.593446 -107.52908,146.508289 0,80.91483 48.14322,146.51043 107.52908,146.51043 59.38588,0 107.52692,-65.5956 107.52692,-146.51043 0,-80.914843 -48.14104,-146.508289 -107.52692,-146.508289 z M 121.78511,124.89517 c 6.69286,0 12.82666,1.15662 17.90784,3.4781 4.38853,2.00501 8.38184,5.41172 9.44279,9.98015 0.30023,0.69839 0.45495,1.43537 0.45541,2.17811 -2.6e-4,0.74325 -0.15497,1.47925 -0.45541,2.17812 -1.06149,4.56769 -5.05473,7.97536 -9.44279,9.98015 -5.08118,2.32149 -11.21498,3.47594 -17.90784,3.47594 -6.69286,0 -12.83096,-1.15445 -17.91216,-3.47594 -5.0812,-2.32148 -9.89604,-6.41823 -9.89604,-12.15827 0,-5.74002 4.81484,-9.8368 9.89604,-12.15826 5.0812,-2.32148 11.2193,-3.4781 17.91216,-3.4781 z m 75.21208,0 c 6.69285,0 12.82665,1.15662 17.90784,3.4781 4.38718,2.00438 8.3824,5.40958 9.44494,9.97584 0.30085,0.69984 0.45342,1.43816 0.45326,2.18242 -4.3e-4,0.74436 -0.15396,1.48269 -0.45541,2.18242 -1.06264,4.56613 -5.0557,7.9715 -9.44279,9.97585 -5.08119,2.32149 -11.21499,3.47594 -17.90784,3.47594 -6.69286,0 -12.83097,-1.15445 -17.91216,-3.47594 -5.0812,-2.32148 -9.89604,-6.41823 -9.89604,-12.15827 0,-5.74002 4.81484,-9.8368 9.89604,-12.15826 5.08119,-2.32148 11.2193,-3.4781 17.91216,-3.4781 z m -81.69145,93.7665 c 46.70804,2.87852 47.2613,3.25035 90.45219,0 5.09451,7.71456 -3.60477,12.5631 -18.37189,20.47901 -14.64126,7.84846 -35.5796,9.00438 -53.71057,0 -15.00736,-7.4531 -23.46423,-12.76445 -18.36973,-20.47901 z" />
    <path
       style="color:#000000;font-style:normal;font-variant:normal;font-weight:normal;font-stretch:normal;font-size:medium;line-height:normal;font-family:sans-serif;font-variant-ligatures:normal;font-variant-position:normal;font-variant-caps:normal;font-variant-numeric:normal;font-variant-alternates:normal;font-variant-east-asian:normal;font-feature-settings:normal;font-variation-settings:normal;text-indent:0;text-align:start;text-decoration:none;text-decoration-line:none;text-decoration-style:solid;text-decoration-color:#000000;letter-spacing:normal;word-spacing:normal;text-transform:none;writing-mode:lr-tb;direction:ltr;text-orientation:mixed;dominant-baseline:auto;baseline-shift:baseline;text-anchor:start;white-space:normal;shape-padding:0;shape-margin:0;inline-size:0;clip-rule:nonzero;display:inline;overflow:visible;visibility:visible;isolation:auto;mix-blend-mode:normal;color-interpolation:sRGB;color-interpolation-filters:linearRGB;solid-color:#000000;solid-opacity:1;vector-effect:none;fill:#655743;fill-opacity:1;fill-rule:nonzero;stroke:none;stroke-width:33.1057;stroke-linecap:round;stroke-linejoin:round;stroke-miterlimit:4;stroke-dasharray:none;stroke-dashoffset:0;stroke-opacity:1;paint-order:stroke fill markers;color-rendering:auto;image-rendering:auto;shape-rendering:auto;text-rendering:auto;enable-background:accumulate;stop-color:#000000"
       d="m 390.66428,225.5319 c -2.02442,0.0236 -4.17671,0.23278 -6.42208,0.55479 -14.55081,31.31194 -23.45955,63.58426 -31.80548,94.7429 -4.97171,-2.21148 -2.47917,-0.29227 -7.4696,-2.48426 -2.11324,-27.24586 3.14363,-52.87964 4.9915,-78.8385 -3.58233,-2.59451 -9.38382,-4.52244 -15.29872,-4.60447 -6.19151,-0.0851 -11.93254,1.70744 -15.26717,4.87776 -2.91037,36.00512 -8.16296,75.55538 -4.7438,111.50974 11.73031,15.24552 37.8049,24.10328 41.24385,46.52931 l -9.89207,1.39263 c -2.26838,-14.7861 -22.66774,-19.71263 -31.04309,-31.08024 l -4.05633,-5.40949 c -2.68033,-3.51847 -5.42165,-7.07078 -8.12391,-10.73949 -11.44729,-14.61843 -23.59008,-26.40136 -33.25264,-30.3649 -5.2483,-2.15149 -9.24097,-2.2484 -13.178,-0.22664 -3.46998,1.78129 -7.23314,5.89147 -10.72291,13.01712 28.5741,26.49571 37.75783,53.34829 44.25374,71.09961 3.09763,8.46392 10.34805,16.16333 15.8018,24.11194 8.35342,12.1757 22.03308,22.00199 40.55462,25.38612 18.52153,3.38311 40.50718,2.69582 50.2334,-7.83857 10.55656,-5.98961 18.46772,-17.74349 26.30571,-31.96088 7.83798,-14.21739 11.65429,-35.45221 24.78755,-49.41423 7.56631,-8.04377 19.19816,-19.21495 24.32176,-22.58883 2.5627,-1.68694 4.6438,-4.02404 6.2124,-4.9352 0.1054,-0.0615 0.1819,-0.0933 0.282,-0.15074 0.7008,-5.06236 -0.2397,-7.51842 -2.5702,-11.98547 -2.3315,-4.47013 -5.771,-7.51585 -9.50308,-8.7244 -19.10308,10.9128 -31.36143,29.96393 -49.15377,45.8591 -3.07355,-3.72972 -2.10414,-2.08175 -5.61745,-5.34488 16.4495,-30.15724 33.16543,-57.29952 56.8593,-79.17332 -0.8346,-4.89674 -4.15156,-10.15958 -8.62091,-14.00826 -4.49396,-3.87124 -9.91132,-5.99914 -13.8307,-5.95966 -24.40381,23.78225 -41.65688,51.7398 -58.58199,81.25149 -3.7011,-2.23558 -4.29227,-3.33953 -8.16938,-5.38898 10.10767,-33.18245 19.78948,-66.87559 36.11219,-96.5975 -6.82494,-7.81684 -13.63008,-11.96496 -22.65545,-12.47207 -0.64467,-0.0359 -1.30539,-0.0492 -1.97948,-0.041 z"
       id="path989" />
  </g>
</svg>
