<?xml version="1.0" encoding="UTF-8" standalone="no"?>
<svg
   xmlns:dc="http://purl.org/dc/elements/1.1/"
   xmlns:cc="http://creativecommons.org/ns#"
   xmlns:rdf="http://www.w3.org/1999/02/22-rdf-syntax-ns#"
   xmlns:svg="http://www.w3.org/2000/svg"
   xmlns="http://www.w3.org/2000/svg"
   xmlns:xlink="http://www.w3.org/1999/xlink"
   xmlns:sodipodi="http://sodipodi.sourceforge.net/DTD/sodipodi-0.dtd"
   xmlns:inkscape="http://www.inkscape.org/namespaces/inkscape"
   inkscape:version="1.0 (4035a4fb49, 2020-05-01)"
   sodipodi:docname="profan-talent_wc.svg"
   id="svg5"
   version="1.1"
   height="512"
   width="512"
   viewBox="0 0 512 512">
  <title
     id="title856">Profan Skill</title>
  <metadata
     id="metadata11">
    <rdf:RDF>
      <cc:Work
         rdf:about="">
        <dc:format>image/svg+xml</dc:format>
        <dc:type
           rdf:resource="http://purl.org/dc/dcmitype/StillImage" />
        <dc:title>Profan Skill</dc:title>
        <cc:license
           rdf:resource="http://creativecommons.org/licenses/by-sa/4.0/" />
        <dc:date>2022.02.10</dc:date>
        <dc:creator>
          <cc:Agent>
            <dc:title>Streuner²</dc:title>
          </cc:Agent>
        </dc:creator>
        <dc:contributor>
          <cc:Agent>
            <dc:title>based upon Hand iconby Lorc under CC BY 3.0 (Game-icons.net)</dc:title>
          </cc:Agent>
        </dc:contributor>
      </cc:Work>
      <cc:License
         rdf:about="http://creativecommons.org/licenses/by-sa/4.0/">
        <cc:permits
           rdf:resource="http://creativecommons.org/ns#Reproduction" />
        <cc:permits
           rdf:resource="http://creativecommons.org/ns#Distribution" />
        <cc:requires
           rdf:resource="http://creativecommons.org/ns#Notice" />
        <cc:requires
           rdf:resource="http://creativecommons.org/ns#Attribution" />
        <cc:permits
           rdf:resource="http://creativecommons.org/ns#DerivativeWorks" />
        <cc:requires
           rdf:resource="http://creativecommons.org/ns#ShareAlike" />
      </cc:License>
    </rdf:RDF>
  </metadata>
  <defs
     id="defs9">
    <linearGradient
       id="linearGradient1076"
       inkscape:collect="always">
      <stop
         id="stop1072"
         offset="0"
         style="stop-color:#e0dbcf;stop-opacity:1" />
      <stop
         id="stop1074"
         offset="1"
         style="stop-color:#655743;stop-opacity:1" />
    </linearGradient>
    <radialGradient
       gradientUnits="userSpaceOnUse"
       gradientTransform="matrix(1,0,0,0.99977307,0,0.05809518)"
       r="185.02051"
       fy="256"
       fx="256.00097"
       cy="256"
       cx="256.00097"
       id="radialGradient1078"
       xlink:href="#linearGradient1076"
       inkscape:collect="always" />
  </defs>
  <sodipodi:namedview
     inkscape:current-layer="g987"
     inkscape:window-maximized="1"
     inkscape:window-y="-11"
     inkscape:window-x="-11"
     inkscape:cy="279.95476"
     inkscape:cx="198.21611"
     inkscape:zoom="2.4199219"
     showgrid="false"
     id="namedview7"
     inkscape:window-height="2066"
     inkscape:window-width="3840"
     inkscape:pageshadow="2"
     inkscape:pageopacity="0.61960784"
     guidetolerance="10"
     gridtolerance="10"
     objecttolerance="10"
     borderopacity="1"
     bordercolor="#666666"
     pagecolor="#323232"
     inkscape:document-rotation="0"
     borderlayer="false"
     inkscape:showpageshadow="false"
     showguides="true"
     inkscape:guide-bbox="true"
     guidecolor="#00ff00"
     guideopacity="0.49803922">
    <sodipodi:guide
       position="256,256"
       orientation="-1,0"
       id="guide869"
       inkscape:label=""
       inkscape:locked="false"
       inkscape:color="rgb(0,255,0)" />
    <sodipodi:guide
       position="256,256"
       orientation="0,1"
       id="guide905"
       inkscape:label=""
       inkscape:locked="false"
       inkscape:color="rgb(0,255,0)" />
  </sodipodi:namedview>
  <filter
     id="shadow">
    <feDropShadow
       stdDeviation="6"
       dy="12"
       dx="6" />
  </filter>
  <g
     id="g987"
     transform="matrix(0.90491517,0,0,0.90746524,23.072155,38.656116)"
     style="stroke-width:1.54493;stroke-miterlimit:4;stroke-dasharray:none">
    <path
       transform="matrix(1.105076,0,0,1.1019706,-25.496484,-42.597903)"
       d="M 256 71.021484 C 153.71519 71.021486 70.980469 153.76194 70.980469 256 C 70.980469 358.23806 153.71519 440.97851 256 440.97852 C 290.57336 440.97852 322.90593 431.51485 350.57227 415.05078 A 14.980427 15.022639 0 0 1 347.33008 406.94336 C 339.67981 411.09972 331.14328 413.51953 322.06641 413.51953 C 302.93248 413.51953 286.19248 402.77927 275.11719 387.64648 C 264.04189 372.51369 257.76758 352.69686 257.76758 331.10938 C 257.76758 309.52187 264.04182 289.70484 275.11719 274.57227 C 286.19255 259.43968 302.93265 248.70312 322.06641 248.70312 C 341.20016 248.70315 357.94054 259.4416 369.01562 274.57422 C 380.09072 289.70683 386.36328 309.52202 386.36328 331.10938 C 386.36328 338.72384 385.56664 346.11019 384.07031 353.15625 A 14.980427 15.022639 0 0 1 385.40625 351.70312 C 391.09785 346.27676 397.03419 345.27116 402.86133 345.35156 A 14.980427 15.022639 0 0 0 402.86328 345.35156 C 406.62201 345.40385 409.91817 346.02903 413.13867 347.38867 A 14.980427 15.022639 0 0 1 419.67383 342.37891 C 433.29857 316.60039 441.02148 287.21256 441.02148 256 C 441.02148 153.76194 358.28482 71.021484 256 71.021484 z M 380.38672 366.0918 C 378.00293 372.66401 374.94591 378.80648 371.26953 384.38672 C 374.04567 384.53855 376.66509 385.09121 378.67188 385.90039 C 379.15191 379.0269 379.82192 372.36522 380.38672 366.0918 z "
       style="color:#000000;font-style:normal;font-variant:normal;font-weight:normal;font-stretch:normal;font-size:medium;line-height:normal;font-family:sans-serif;font-variant-ligatures:normal;font-variant-position:normal;font-variant-caps:normal;font-variant-numeric:normal;font-variant-alternates:normal;font-variant-east-asian:normal;font-feature-settings:normal;font-variation-settings:normal;text-indent:0;text-align:start;text-decoration:none;text-decoration-line:none;text-decoration-style:solid;text-decoration-color:#000000;letter-spacing:normal;word-spacing:normal;text-transform:none;writing-mode:lr-tb;direction:ltr;text-orientation:mixed;dominant-baseline:auto;baseline-shift:baseline;text-anchor:start;white-space:normal;shape-padding:0;shape-margin:0;inline-size:0;clip-rule:nonzero;display:inline;overflow:visible;visibility:visible;isolation:auto;mix-blend-mode:normal;color-interpolation:sRGB;color-interpolation-filters:linearRGB;solid-color:#000000;solid-opacity:1;vector-effect:none;fill:url(#radialGradient1078);fill-opacity:1;fill-rule:evenodd;stroke:none;stroke-width:15.0001;stroke-linecap:round;stroke-linejoin:round;stroke-miterlimit:4;stroke-dasharray:none;stroke-dashoffset:0;stroke-opacity:1;paint-order:normal;color-rendering:auto;image-rendering:auto;shape-rendering:auto;text-rendering:auto;enable-background:accumulate;stop-color:#000000"
       id="path940" />
    <g
       id="g889"
       transform="matrix(0.91974051,0,0,0.77444937,-5.3861994,14.59346)"
       style="stroke:none;stroke-width:1.83054" />
    <path
       id="path970"
       d="m 447.55019,349.821 c -1.01512,0.0118 -2.09435,0.11673 -3.22026,0.2782 -7.29631,15.70094 -11.76348,31.88346 -15.94843,47.50753 -2.49299,-1.10891 -1.24314,-0.14655 -3.74553,-1.2457 -1.05965,-13.66206 1.57633,-26.51577 2.50292,-39.53249 -1.79631,-1.30098 -4.70539,-2.26771 -7.67133,-2.30885 -3.10465,-0.0427 -5.98341,0.85618 -7.65552,2.44589 -1.45936,18.05428 -4.0932,37.88622 -2.37871,55.91504 5.882,7.64466 18.95675,12.08626 20.68117,23.33149 l -4.96025,0.69831 c -1.13745,-7.41429 -11.36643,-9.88463 -15.56613,-15.58476 l -2.03399,-2.71252 c -1.34402,-1.76428 -2.71862,-3.54554 -4.07363,-5.38517 -5.74009,-7.33021 -11.82892,-13.2386 -16.67408,-15.22606 -2.63169,-1.07884 -4.63376,-1.12743 -6.60793,-0.11365 -1.73997,0.89321 -3.62696,2.9542 -5.37686,6.52726 14.3281,13.28591 18.93315,26.75077 22.19044,35.65193 1.55326,4.24412 5.18889,8.10488 7.9236,12.0906 4.1887,6.10534 11.04818,11.0326 20.33556,12.72953 9.28737,1.69641 20.31177,1.35178 25.18885,-3.93055 5.29344,-3.0034 9.26039,-8.89723 13.19064,-16.02634 3.93025,-7.12912 5.84389,-17.77703 12.42938,-24.7781 3.79402,-4.03343 9.62666,-9.63507 12.19581,-11.32686 1.28504,-0.84589 2.32858,-2.0178 3.11513,-2.47469 0.0528,-0.0308 0.0912,-0.0468 0.1414,-0.0756 0.35141,-2.53845 -0.12019,-3.77001 -1.28879,-6.00995 -1.1691,-2.24149 -2.89379,-3.76872 -4.76519,-4.37473 -9.57898,5.47207 -15.72576,15.025 -24.64749,22.99542 -1.54119,-1.87022 -1.05509,-1.04387 -2.81679,-2.68012 8.24838,-15.12194 16.63035,-28.73206 28.51132,-39.70038 -0.4185,-2.45541 -2.08174,-5.09439 -4.32284,-7.02425 -2.25343,-1.94118 -4.96989,-3.00819 -6.93521,-2.98839 -12.23696,11.92528 -20.88828,25.94421 -29.37514,40.74245 -1.85587,-1.121 -2.1523,-1.67456 -4.09643,-2.70223 5.06836,-16.63889 9.92317,-33.53386 18.10797,-48.4375 -3.42228,-3.91965 -6.83462,-5.99967 -11.36027,-6.25395 -0.32326,-0.018 -0.65457,-0.0247 -0.99258,-0.0206 z"
       style="color:#000000;font-style:normal;font-variant:normal;font-weight:normal;font-stretch:normal;font-size:medium;line-height:normal;font-family:sans-serif;font-variant-ligatures:normal;font-variant-position:normal;font-variant-caps:normal;font-variant-numeric:normal;font-variant-alternates:normal;font-variant-east-asian:normal;font-feature-settings:normal;font-variation-settings:normal;text-indent:0;text-align:start;text-decoration:none;text-decoration-line:none;text-decoration-style:solid;text-decoration-color:#000000;letter-spacing:normal;word-spacing:normal;text-transform:none;writing-mode:lr-tb;direction:ltr;text-orientation:mixed;dominant-baseline:auto;baseline-shift:baseline;text-anchor:start;white-space:normal;shape-padding:0;shape-margin:0;inline-size:0;clip-rule:nonzero;display:inline;overflow:visible;visibility:visible;isolation:auto;mix-blend-mode:normal;color-interpolation:sRGB;color-interpolation-filters:linearRGB;solid-color:#000000;solid-opacity:1;vector-effect:none;fill:#655743;fill-opacity:1;fill-rule:nonzero;stroke:none;stroke-width:33.1057;stroke-linecap:round;stroke-linejoin:round;stroke-miterlimit:4;stroke-dasharray:none;stroke-dashoffset:0;stroke-opacity:1;paint-order:stroke fill markers;color-rendering:auto;image-rendering:auto;shape-rendering:auto;text-rendering:auto;enable-background:accumulate;stop-color:#000000" />
    <path
       d="m 330.41011,248.01765 c -30.09975,0 -54.50116,33.24606 -54.50116,74.25778 0,41.01172 24.40141,74.25887 54.50116,74.25887 30.09976,0 54.50006,-33.24715 54.50006,-74.25887 0,-41.01172 -24.4003,-74.25778 -54.50006,-74.25778 z m -19.6388,58.12792 c 3.39228,0 6.5012,0.58624 9.0766,1.76288 2.22433,1.01624 4.24834,2.74293 4.78608,5.05844 0.15217,0.35398 0.23059,0.72752 0.23083,1.10398 -1.4e-4,0.37672 -0.0786,0.74976 -0.23083,1.10398 -0.53801,2.31514 -2.56199,4.04232 -4.78608,5.05844 -2.5754,1.17665 -5.68432,1.76178 -9.0766,1.76178 -3.39228,0 -6.50337,-0.58513 -9.07878,-1.76178 -2.57541,-1.17664 -5.01581,-3.25308 -5.01581,-6.16242 0,-2.90933 2.4404,-4.98579 5.01581,-6.16242 2.57541,-1.17664 5.6865,-1.76288 9.07878,-1.76288 z m 38.12128,0 c 3.39227,0 6.50119,0.58624 9.07659,1.76288 2.22365,1.01592 4.24863,2.74185 4.78717,5.05626 0.15249,0.35471 0.22982,0.72893 0.22974,1.10616 -2.2e-4,0.37728 -0.078,0.7515 -0.23083,1.10616 -0.53859,2.31434 -2.56248,4.04036 -4.78608,5.05626 -2.5754,1.17665 -5.68432,1.76178 -9.07659,1.76178 -3.39228,0 -6.50339,-0.58513 -9.07879,-1.76178 -2.57541,-1.17664 -5.01581,-3.25308 -5.01581,-6.16242 0,-2.90933 2.4404,-4.98579 5.01581,-6.16242 2.5754,-1.17664 5.68651,-1.76288 9.07879,-1.76288 z m -41.40535,47.52559 c 23.67399,1.45898 23.95441,1.64744 45.84573,0 2.58216,3.91013 -1.82708,6.36761 -9.3118,10.3798 -7.42093,3.97799 -18.03353,4.56387 -27.22322,0 -7.60649,-3.77761 -11.89286,-6.46967 -9.31071,-10.3798 z"
       style="color:#000000;font-style:normal;font-variant:normal;font-weight:normal;font-stretch:normal;font-size:medium;line-height:normal;font-family:sans-serif;font-variant-ligatures:normal;font-variant-position:normal;font-variant-caps:normal;font-variant-numeric:normal;font-variant-alternates:normal;font-variant-east-asian:normal;font-feature-settings:normal;font-variation-settings:normal;text-indent:0;text-align:start;text-decoration:none;text-decoration-line:none;text-decoration-style:solid;text-decoration-color:#000000;letter-spacing:normal;word-spacing:normal;text-transform:none;writing-mode:lr-tb;direction:ltr;text-orientation:mixed;dominant-baseline:auto;baseline-shift:baseline;text-anchor:start;white-space:normal;shape-padding:0;shape-margin:0;inline-size:0;clip-rule:nonzero;display:inline;overflow:visible;visibility:visible;isolation:auto;mix-blend-mode:normal;color-interpolation:sRGB;color-interpolation-filters:linearRGB;solid-color:#000000;solid-opacity:1;vector-effect:none;fill:#655743;fill-opacity:1;fill-rule:evenodd;stroke:none;stroke-width:33.1057;stroke-linecap:round;stroke-linejoin:round;stroke-miterlimit:4;stroke-dasharray:none;stroke-dashoffset:0;stroke-opacity:1;paint-order:stroke fill markers;color-rendering:auto;image-rendering:auto;shape-rendering:auto;text-rendering:auto;enable-background:accumulate;stop-color:#000000"
       id="path984" />
  </g>
</svg>
