<?xml version="1.0" encoding="UTF-8" standalone="no"?>
<svg
   xmlns:dc="http://purl.org/dc/elements/1.1/"
   xmlns:cc="http://creativecommons.org/ns#"
   xmlns:rdf="http://www.w3.org/1999/02/22-rdf-syntax-ns#"
   xmlns:svg="http://www.w3.org/2000/svg"
   xmlns="http://www.w3.org/2000/svg"
   xmlns:sodipodi="http://sodipodi.sourceforge.net/DTD/sodipodi-0.dtd"
   xmlns:inkscape="http://www.inkscape.org/namespaces/inkscape"
   inkscape:version="1.0 (4035a4fb49, 2020-05-01)"
   sodipodi:docname="profan-talent_b.svg"
   id="svg5"
   version="1.1"
   height="512"
   width="512"
   viewBox="0 0 512 512">
  <title
     id="title856">Profan Skill</title>
  <metadata
     id="metadata11">
    <rdf:RDF>
      <cc:Work
         rdf:about="">
        <dc:format>image/svg+xml</dc:format>
        <dc:type
           rdf:resource="http://purl.org/dc/dcmitype/StillImage" />
        <dc:title>Profan Skill</dc:title>
        <cc:license
           rdf:resource="http://creativecommons.org/licenses/by-sa/4.0/" />
        <dc:date>2022.02.10</dc:date>
        <dc:creator>
          <cc:Agent>
            <dc:title>Streuner²</dc:title>
          </cc:Agent>
        </dc:creator>
        <dc:contributor>
          <cc:Agent>
            <dc:title>based upon Hand iconby Lorc under CC BY 3.0 (Game-icons.net)</dc:title>
          </cc:Agent>
        </dc:contributor>
      </cc:Work>
      <cc:License
         rdf:about="http://creativecommons.org/licenses/by-sa/4.0/">
        <cc:permits
           rdf:resource="http://creativecommons.org/ns#Reproduction" />
        <cc:permits
           rdf:resource="http://creativecommons.org/ns#Distribution" />
        <cc:requires
           rdf:resource="http://creativecommons.org/ns#Notice" />
        <cc:requires
           rdf:resource="http://creativecommons.org/ns#Attribution" />
        <cc:permits
           rdf:resource="http://creativecommons.org/ns#DerivativeWorks" />
        <cc:requires
           rdf:resource="http://creativecommons.org/ns#ShareAlike" />
      </cc:License>
    </rdf:RDF>
  </metadata>
  <defs
     id="defs9" />
  <sodipodi:namedview
     inkscape:current-layer="g987"
     inkscape:window-maximized="1"
     inkscape:window-y="-11"
     inkscape:window-x="-11"
     inkscape:cy="279.95476"
     inkscape:cx="198.21611"
     inkscape:zoom="2.4199219"
     showgrid="false"
     id="namedview7"
     inkscape:window-height="2066"
     inkscape:window-width="3840"
     inkscape:pageshadow="2"
     inkscape:pageopacity="0.61960784"
     guidetolerance="10"
     gridtolerance="10"
     objecttolerance="10"
     borderopacity="1"
     bordercolor="#666666"
     pagecolor="#323232"
     inkscape:document-rotation="0"
     borderlayer="false"
     inkscape:showpageshadow="false"
     showguides="true"
     inkscape:guide-bbox="true"
     guidecolor="#00ff00"
     guideopacity="0.49803922">
    <sodipodi:guide
       position="256,256"
       orientation="-1,0"
       id="guide869"
       inkscape:label=""
       inkscape:locked="false"
       inkscape:color="rgb(0,255,0)" />
    <sodipodi:guide
       position="256,256"
       orientation="0,1"
       id="guide905"
       inkscape:label=""
       inkscape:locked="false"
       inkscape:color="rgb(0,255,0)" />
  </sodipodi:namedview>
  <filter
     id="shadow">
    <feDropShadow
       stdDeviation="6"
       dy="12"
       dx="6" />
  </filter>
  <g
     id="g987"
     transform="matrix(0.90491517,0,0,0.90746524,23.072155,38.656116)"
     style="stroke-width:1.54493;stroke-miterlimit:4;stroke-dasharray:none">
    <g
       id="g889"
       transform="matrix(0.91974051,0,0,0.77444937,-5.3861994,14.59346)"
       style="stroke:none;stroke-width:1.83054" />
    <g
       transform="translate(2.3e-4,9e-5)"
       id="g1060">
      <path
         id="path942"
         style="color:#000000;font-style:normal;font-variant:normal;font-weight:normal;font-stretch:normal;font-size:medium;line-height:normal;font-family:sans-serif;font-variant-ligatures:normal;font-variant-position:normal;font-variant-caps:normal;font-variant-numeric:normal;font-variant-alternates:normal;font-variant-east-asian:normal;font-feature-settings:normal;font-variation-settings:normal;text-indent:0;text-align:start;text-decoration:none;text-decoration-line:none;text-decoration-style:solid;text-decoration-color:#000000;letter-spacing:normal;word-spacing:normal;text-transform:none;writing-mode:lr-tb;direction:ltr;text-orientation:mixed;dominant-baseline:auto;baseline-shift:baseline;text-anchor:start;white-space:normal;shape-padding:0;shape-margin:0;inline-size:0;clip-rule:nonzero;display:inline;overflow:visible;visibility:visible;isolation:auto;mix-blend-mode:normal;color-interpolation:sRGB;color-interpolation-filters:linearRGB;solid-color:#000000;solid-opacity:1;vector-effect:none;fill:#000100;fill-opacity:1;fill-rule:evenodd;stroke:none;stroke-width:15.0001;stroke-linecap:round;stroke-linejoin:round;stroke-miterlimit:4;stroke-dasharray:none;stroke-dashoffset:0;stroke-opacity:1;paint-order:normal;color-rendering:auto;image-rendering:auto;shape-rendering:auto;text-rendering:auto;enable-background:accumulate;stop-color:#000000"
         d="m 256,56 c -110.35641,3e-6 -200,89.62011 -200,200 0,110.37988 89.64359,200 200,200 38.30824,0 74.11339,-10.80876 104.54492,-29.52734 -2.10896,-3.14695 -4.80763,-6.39694 -8.47656,-9.8086 a 14.980427,15.022639 0 0 1 -1.49609,-1.61328 C 322.90592,431.51498 290.57336,440.97852 256,440.97852 153.71519,440.97851 70.980469,358.23806 70.980469,256 70.980469,153.76194 153.71519,71.021486 256,71.021484 c 102.28482,0 185.02148,82.740456 185.02148,184.978516 0,31.21256 -7.7229,60.60028 -21.34765,86.37891 a 14.980427,15.022639 0 0 1 3.35351,-0.88868 c 1.44556,-0.20789 3.03351,-0.3826 4.85743,-0.40429 h 0.008 a 14.980427,15.022639 0 0 1 0.25781,-0.002 14.980427,15.022639 0 0 1 0.70117,0.0234 c 0.31518,0.007 0.62203,10e-4 0.94532,0.0195 a 14.980427,15.022639 0 0 1 0.01,0 c 2.23241,0.12579 4.43463,0.59435 6.55469,1.30469 12.52034,-26.05359 19.56553,-55.22678 19.62695,-86.02734 2e-5,-0.007 0.002,-0.0144 0.002,-0.0215 A 7.4894853,7.5105909 0 0 0 456,256 7.4894853,7.5105909 0 0 0 455.99,255.65039 C 455.80027,145.43165 366.23935,56 256,56 Z"
         transform="matrix(1.105076,0,0,1.1019706,-25.496484,-42.597903)" />
      <path
         d="m 447.64245,333.26657 a 16.554507,16.554507 0 0 0 -0.2849,0.002 h -0.009 c -2.01557,0.0239 -3.77038,0.21642 -5.36783,0.44551 a 16.554507,16.554507 0 0 0 -10.92774,6.49991 c -3.55889,-1.49829 -7.2014,-2.18722 -11.35508,-2.24484 a 16.554507,16.554507 0 0 0 -0.002,0 c -6.43943,-0.0886 -12.99954,1.01955 -19.28919,6.99924 a 16.554507,16.554507 0 0 0 -5.09371,10.66458 c -0.67597,8.36274 -1.68324,17.52391 -2.34828,27.0198 -5.21229,-2.09581 -14.15751,-2.65827 -20.32737,0.51009 -6.61589,3.39712 -9.97137,8.43696 -12.68247,13.97265 a 16.554507,16.554507 0 0 0 3.61093,19.41792 c 11.53601,10.69693 14.52298,19.97017 17.90137,29.20222 3.30487,9.03024 8.1366,13.31346 9.8205,15.76766 h -0.002 c 6.60758,9.63103 17.56612,17.19201 31.00904,19.64821 a 16.554507,16.554507 0 0 0 0.002,0 c 5.97745,1.09182 12.39902,1.60575 19.164,0.80712 6.06516,-0.71604 12.96418,-2.54367 19.0453,-7.96993 8.90331,-5.78883 13.59916,-13.75585 17.64021,-21.08594 6.19783,-11.2423 8.04795,-19.36248 9.991,-21.42816 3.23022,-3.43405 11.05696,-10.03584 9.24206,-8.84374 3.64594,-2.40004 6.40882,-4.34188 2.3893,-2.01886 a 16.554507,16.554507 0 0 0 8.16073,-12.08724 c 0.72688,-5.25074 -1.53398,-13.1057 -3.00875,-15.93337 v -0.002 c -1.23613,-2.3697 -2.90339,-4.58055 -4.87571,-6.55587 a 16.554507,16.554507 0 0 0 2.79939,-12.32829 c -1.30873,-7.67857 -5.01227,-12.62983 -9.83778,-16.78568 l -0.002,-0.002 c -4.92451,-4.24174 -9.73661,-7.01759 -17.7287,-6.98201 a 16.554507,16.554507 0 0 0 -2.90298,-4.74579 c -5.09946,-5.84057 -13.79181,-11.38392 -22.90011,-11.89569 a 16.554507,16.554507 0 0 0 -0.0111,0 c -0.35723,-0.0199 -0.69635,-0.0142 -1.04465,-0.0215 a 16.554507,16.554507 0 0 0 -0.77485,-0.0258 z m -0.0928,16.55539 h 0.002 c 0.33801,-0.004 0.66958,0.001 0.99284,0.0194 4.52566,0.25428 7.93712,2.3349 11.3594,6.25455 -8.1848,14.90364 -13.0402,31.79832 -18.10856,48.4372 1.94413,1.02767 2.24068,1.58228 4.09655,2.70327 8.48685,-14.79823 17.13821,-28.81749 29.37516,-40.74277 1.96533,-0.0198 4.68136,1.04619 6.93479,2.98737 2.24109,1.92986 3.90467,4.56965 4.32318,7.02507 -11.88097,10.96831 -20.26345,24.57912 -28.51183,39.70106 1.7617,1.63625 1.27546,0.80938 2.81664,2.6796 8.92174,-7.97042 15.06941,-17.52295 24.64838,-22.99503 1.8714,0.60602 3.59655,2.13196 4.76564,4.37345 1.16861,2.23994 1.63995,3.47289 1.28854,6.01133 -0.0502,0.0288 -0.0896,0.0445 -0.14245,0.0754 -0.78655,0.45689 -1.82947,1.62708 -3.11451,2.47298 -2.56914,1.69178 -8.40066,7.29405 -12.19467,11.32748 -6.5855,7.00107 -8.49971,17.65015 -12.42995,24.77928 -3.93025,7.12911 -7.89841,13.02251 -13.19185,16.02591 -4.87708,5.28234 -15.9006,5.62649 -25.18796,3.93008 -9.28738,-1.69693 -16.1473,-6.62328 -20.33599,-12.72862 -2.73471,-3.98572 -6.37005,-7.84743 -7.92332,-12.09155 -3.25728,-8.90116 -7.8619,-22.36671 -22.19,-35.65262 1.7499,-3.57306 3.63649,-5.63252 5.37645,-6.52573 1.97417,-1.01378 3.97718,-0.96692 6.60887,0.11191 4.84517,1.98747 10.93318,7.89722 16.67327,15.22743 1.35501,1.83963 2.72879,3.62074 4.07281,5.38502 l 2.03532,2.71188 c 4.19971,5.70013 14.42859,8.17042 15.56603,15.58471 l 4.95989,-0.69734 C 428.38991,424.96745 415.315,420.5244 409.433,412.87975 c -1.71449,-18.02883 0.91915,-37.85997 2.3785,-55.91426 1.67212,-1.5897 4.55103,-2.4877 7.65568,-2.44499 2.96594,0.0411 5.87446,1.00627 7.67078,2.30725 -0.92659,13.01672 -3.56118,25.87114 -2.50153,39.53319 2.50239,1.09915 1.25175,0.13727 3.74474,1.24618 4.18495,-15.62407 8.65175,-31.80648 15.94806,-47.50741 1.12591,-0.16147 2.20514,-0.26585 3.22027,-0.27765 z"
         style="color:#000000;font-style:normal;font-variant:normal;font-weight:normal;font-stretch:normal;font-size:medium;line-height:normal;font-family:sans-serif;font-variant-ligatures:normal;font-variant-position:normal;font-variant-caps:normal;font-variant-numeric:normal;font-variant-alternates:normal;font-variant-east-asian:normal;font-feature-settings:normal;font-variation-settings:normal;text-indent:0;text-align:start;text-decoration:none;text-decoration-line:none;text-decoration-style:solid;text-decoration-color:#000000;letter-spacing:normal;word-spacing:normal;text-transform:none;writing-mode:lr-tb;direction:ltr;text-orientation:mixed;dominant-baseline:auto;baseline-shift:baseline;text-anchor:start;white-space:normal;shape-padding:0;shape-margin:0;inline-size:0;clip-rule:nonzero;display:inline;overflow:visible;visibility:visible;isolation:auto;mix-blend-mode:normal;color-interpolation:sRGB;color-interpolation-filters:linearRGB;solid-color:#000000;solid-opacity:1;vector-effect:none;fill:#000000;fill-opacity:1;fill-rule:nonzero;stroke:none;stroke-width:33.1057;stroke-linecap:round;stroke-linejoin:round;stroke-miterlimit:4;stroke-dasharray:none;stroke-dashoffset:0;stroke-opacity:1;paint-order:stroke fill markers;color-rendering:auto;image-rendering:auto;shape-rendering:auto;text-rendering:auto;enable-background:accumulate;stop-color:#000000"
         id="path968" />
      <g
         id="g1051">
        <path
           sodipodi:nodetypes="sssssscccss"
           style="color:#000000;font-style:normal;font-variant:normal;font-weight:normal;font-stretch:normal;font-size:medium;line-height:normal;font-family:sans-serif;font-variant-ligatures:normal;font-variant-position:normal;font-variant-caps:normal;font-variant-numeric:normal;font-variant-alternates:normal;font-variant-east-asian:normal;font-feature-settings:normal;font-variation-settings:normal;text-indent:0;text-align:start;text-decoration:none;text-decoration-line:none;text-decoration-style:solid;text-decoration-color:#000000;letter-spacing:normal;word-spacing:normal;text-transform:none;writing-mode:lr-tb;direction:ltr;text-orientation:mixed;dominant-baseline:auto;baseline-shift:baseline;text-anchor:start;white-space:normal;shape-padding:0;shape-margin:0;inline-size:0;clip-rule:nonzero;display:inline;overflow:visible;visibility:visible;isolation:auto;mix-blend-mode:normal;color-interpolation:sRGB;color-interpolation-filters:linearRGB;solid-color:#000000;solid-opacity:1;vector-effect:none;fill-opacity:1;fill-rule:evenodd;stroke:none;stroke-width:16.5528;stroke-linecap:round;stroke-linejoin:round;stroke-miterlimit:4;stroke-dasharray:none;stroke-dashoffset:0;stroke-opacity:1;paint-order:stroke fill markers;color-rendering:auto;image-rendering:auto;shape-rendering:auto;text-rendering:auto;enable-background:accumulate;stop-color:#000000"
           d="m 348.8921,306.1455 c -3.39228,0 -6.50309,0.58591 -9.07849,1.76255 -2.57541,1.17664 -5.01589,3.25307 -5.01589,6.16241 0,2.90934 2.44048,4.98577 5.01589,6.16241 2.5754,1.17665 5.68621,1.76256 9.07849,1.76256 3.39227,0 6.50218,-0.58591 9.07758,-1.76256 2.2236,-1.0159 4.24694,-2.74177 4.78554,-5.05612 0.15279,-0.35466 0.23105,-0.72902 0.23126,-1.10629 8e-5,-0.37723 -0.0779,-0.75158 -0.23035,-1.10629 -0.53855,-2.31441 -2.56281,-4.04019 -4.78645,-5.05612 -2.5754,-1.17664 -5.68531,-1.76255 -9.07758,-1.76255 z"
           id="path986" />
        <path
           d="m 353.33258,353.67107 c 2.58215,3.91012 -1.82629,6.36769 -9.311,10.37988 -7.42094,3.978 -18.03387,4.56388 -27.22356,0 -7.60649,-3.77761 -11.89315,-6.46976 -9.31101,-10.37988 23.67399,1.45897 23.95425,1.64744 45.84557,0 z"
           style="fill:#000000;fill-opacity:1;fill-rule:evenodd;stroke:none;stroke-width:33.1057;stroke-linecap:round;stroke-linejoin:round;stroke-miterlimit:4;stroke-dasharray:none;stroke-opacity:1;paint-order:stroke fill markers;stop-color:#000000"
           id="path988" />
        <path
           sodipodi:nodetypes="sssssscccss"
           id="path990"
           d="m 310.7708,306.1455 c -3.39228,0 -6.50309,0.58591 -9.07849,1.76255 -2.57541,1.17664 -5.0159,3.25307 -5.0159,6.16241 0,2.90934 2.44049,4.98577 5.0159,6.16241 2.5754,1.17665 5.68621,1.76256 9.07849,1.76256 3.39228,0 6.50218,-0.58591 9.07758,-1.76256 2.22409,-1.01613 4.24752,-2.74251 4.78554,-5.05765 0.15227,-0.35422 0.23022,-0.72805 0.23035,-1.10476 -2.3e-4,-0.37646 -0.0782,-0.75001 -0.23035,-1.10399 -0.53774,-2.31551 -2.56122,-4.04218 -4.78554,-5.05842 -2.5754,-1.17664 -5.6853,-1.76255 -9.07758,-1.76255 z"
           style="color:#000000;font-style:normal;font-variant:normal;font-weight:normal;font-stretch:normal;font-size:medium;line-height:normal;font-family:sans-serif;font-variant-ligatures:normal;font-variant-position:normal;font-variant-caps:normal;font-variant-numeric:normal;font-variant-alternates:normal;font-variant-east-asian:normal;font-feature-settings:normal;font-variation-settings:normal;text-indent:0;text-align:start;text-decoration:none;text-decoration-line:none;text-decoration-style:solid;text-decoration-color:#000000;letter-spacing:normal;word-spacing:normal;text-transform:none;writing-mode:lr-tb;direction:ltr;text-orientation:mixed;dominant-baseline:auto;baseline-shift:baseline;text-anchor:start;white-space:normal;shape-padding:0;shape-margin:0;inline-size:0;clip-rule:nonzero;display:inline;overflow:visible;visibility:visible;isolation:auto;mix-blend-mode:normal;color-interpolation:sRGB;color-interpolation-filters:linearRGB;solid-color:#000000;solid-opacity:1;vector-effect:none;fill-opacity:1;fill-rule:evenodd;stroke:none;stroke-width:16.5528;stroke-linecap:round;stroke-linejoin:round;stroke-miterlimit:4;stroke-dasharray:none;stroke-dashoffset:0;stroke-opacity:1;paint-order:stroke fill markers;color-rendering:auto;image-rendering:auto;shape-rendering:auto;text-rendering:auto;enable-background:accumulate;stop-color:#000000" />
        <path
           d="m 330.41064,231.46456 c -21.14425,0 -39.64333,11.83138 -51.88245,28.50704 -12.23912,16.67565 -19.17264,38.51345 -19.17264,62.30222 0,23.78877 6.9336,45.62635 19.17264,62.30224 12.23904,16.67589 30.73801,28.51134 51.88245,28.51134 21.14444,0 39.64372,-11.8354 51.88246,-28.51134 12.23873,-16.67594 19.17047,-38.51362 19.17047,-62.30224 0,-23.78861 -6.93167,-45.62438 -19.17047,-62.30007 -12.23881,-16.6757 -30.73821,-28.50919 -51.88246,-28.50919 z m 0,16.55324 c 30.09976,0 54.50054,33.2443 54.50054,74.25602 0,41.01172 -24.40078,74.26035 -54.50054,74.26035 -30.09975,0 -54.50053,-33.24863 -54.50053,-74.26035 0,-41.01172 24.40078,-74.25602 54.50053,-74.25602 z"
           style="color:#000000;font-style:normal;font-variant:normal;font-weight:normal;font-stretch:normal;font-size:medium;line-height:normal;font-family:sans-serif;font-variant-ligatures:normal;font-variant-position:normal;font-variant-caps:normal;font-variant-numeric:normal;font-variant-alternates:normal;font-variant-east-asian:normal;font-feature-settings:normal;font-variation-settings:normal;text-indent:0;text-align:start;text-decoration:none;text-decoration-line:none;text-decoration-style:solid;text-decoration-color:#000000;letter-spacing:normal;word-spacing:normal;text-transform:none;writing-mode:lr-tb;direction:ltr;text-orientation:mixed;dominant-baseline:auto;baseline-shift:baseline;text-anchor:start;white-space:normal;shape-padding:0;shape-margin:0;inline-size:0;clip-rule:nonzero;display:inline;overflow:visible;visibility:visible;isolation:auto;mix-blend-mode:normal;color-interpolation:sRGB;color-interpolation-filters:linearRGB;solid-color:#000000;solid-opacity:1;vector-effect:none;fill:#000000;fill-opacity:1;fill-rule:evenodd;stroke:none;stroke-width:33.1057;stroke-linecap:round;stroke-linejoin:round;stroke-miterlimit:4;stroke-dasharray:none;stroke-dashoffset:0;stroke-opacity:1;paint-order:stroke fill markers;color-rendering:auto;image-rendering:auto;shape-rendering:auto;text-rendering:auto;enable-background:accumulate;stop-color:#000000"
           id="path994" />
      </g>
    </g>
  </g>
</svg>
